<?xml version="1.0" encoding="utf-8"?>
<svg xmlns="http://www.w3.org/2000/svg" xmlns:xlink="http://www.w3.org/1999/xlink" width="500" height="250" viewBox="0 0 2000 1000">
<defs>
  <clipPath id="clip650">
    <rect x="0" y="0" width="2000" height="1000"/>
  </clipPath>
</defs>
<path clip-path="url(#clip650)" d="M0 1000 L2000 1000 L2000 0 L0 0  Z" fill="#ffffff" fill-rule="evenodd" fill-opacity="1"/>
<defs>
  <clipPath id="clip651">
    <rect x="400" y="0" width="1401" height="1000"/>
  </clipPath>
</defs>
<path clip-path="url(#clip650)" d="M203.986 849.7 L1613.77 849.7 L1613.77 47.2441 L203.986 47.2441  Z" fill="#ffffff" fill-rule="evenodd" fill-opacity="1"/>
<defs>
  <clipPath id="clip652">
    <rect x="203" y="47" width="1411" height="803"/>
  </clipPath>
</defs>
<polyline clip-path="url(#clip652)" style="stroke:#000000; stroke-linecap:round; stroke-linejoin:round; stroke-width:2; stroke-opacity:0.1; fill:none" points="243.886,849.7 243.886,47.2441 "/>
<polyline clip-path="url(#clip652)" style="stroke:#000000; stroke-linecap:round; stroke-linejoin:round; stroke-width:2; stroke-opacity:0.1; fill:none" points="576.381,849.7 576.381,47.2441 "/>
<polyline clip-path="url(#clip652)" style="stroke:#000000; stroke-linecap:round; stroke-linejoin:round; stroke-width:2; stroke-opacity:0.1; fill:none" points="908.877,849.7 908.877,47.2441 "/>
<polyline clip-path="url(#clip652)" style="stroke:#000000; stroke-linecap:round; stroke-linejoin:round; stroke-width:2; stroke-opacity:0.1; fill:none" points="1241.37,849.7 1241.37,47.2441 "/>
<polyline clip-path="url(#clip652)" style="stroke:#000000; stroke-linecap:round; stroke-linejoin:round; stroke-width:2; stroke-opacity:0.1; fill:none" points="1573.87,849.7 1573.87,47.2441 "/>
<polyline clip-path="url(#clip652)" style="stroke:#000000; stroke-linecap:round; stroke-linejoin:round; stroke-width:2; stroke-opacity:0.1; fill:none" points="203.986,827.515 1613.77,827.515 "/>
<polyline clip-path="url(#clip652)" style="stroke:#000000; stroke-linecap:round; stroke-linejoin:round; stroke-width:2; stroke-opacity:0.1; fill:none" points="203.986,709.914 1613.77,709.914 "/>
<polyline clip-path="url(#clip652)" style="stroke:#000000; stroke-linecap:round; stroke-linejoin:round; stroke-width:2; stroke-opacity:0.1; fill:none" points="203.986,592.313 1613.77,592.313 "/>
<polyline clip-path="url(#clip652)" style="stroke:#000000; stroke-linecap:round; stroke-linejoin:round; stroke-width:2; stroke-opacity:0.1; fill:none" points="203.986,474.711 1613.77,474.711 "/>
<polyline clip-path="url(#clip652)" style="stroke:#000000; stroke-linecap:round; stroke-linejoin:round; stroke-width:2; stroke-opacity:0.1; fill:none" points="203.986,357.11 1613.77,357.11 "/>
<polyline clip-path="url(#clip652)" style="stroke:#000000; stroke-linecap:round; stroke-linejoin:round; stroke-width:2; stroke-opacity:0.1; fill:none" points="203.986,239.509 1613.77,239.509 "/>
<polyline clip-path="url(#clip652)" style="stroke:#000000; stroke-linecap:round; stroke-linejoin:round; stroke-width:2; stroke-opacity:0.1; fill:none" points="203.986,121.908 1613.77,121.908 "/>
<polyline clip-path="url(#clip650)" style="stroke:#000000; stroke-linecap:round; stroke-linejoin:round; stroke-width:4; stroke-opacity:1; fill:none" points="203.986,849.7 1613.77,849.7 "/>
<polyline clip-path="url(#clip650)" style="stroke:#000000; stroke-linecap:round; stroke-linejoin:round; stroke-width:4; stroke-opacity:1; fill:none" points="243.886,849.7 243.886,830.802 "/>
<polyline clip-path="url(#clip650)" style="stroke:#000000; stroke-linecap:round; stroke-linejoin:round; stroke-width:4; stroke-opacity:1; fill:none" points="576.381,849.7 576.381,830.802 "/>
<polyline clip-path="url(#clip650)" style="stroke:#000000; stroke-linecap:round; stroke-linejoin:round; stroke-width:4; stroke-opacity:1; fill:none" points="908.877,849.7 908.877,830.802 "/>
<polyline clip-path="url(#clip650)" style="stroke:#000000; stroke-linecap:round; stroke-linejoin:round; stroke-width:4; stroke-opacity:1; fill:none" points="1241.37,849.7 1241.37,830.802 "/>
<polyline clip-path="url(#clip650)" style="stroke:#000000; stroke-linecap:round; stroke-linejoin:round; stroke-width:4; stroke-opacity:1; fill:none" points="1573.87,849.7 1573.87,830.802 "/>
<path clip-path="url(#clip650)" d="M206.189 877.419 Q202.578 877.419 200.749 880.983 Q198.944 884.525 198.944 891.655 Q198.944 898.761 200.749 902.326 Q202.578 905.867 206.189 905.867 Q209.823 905.867 211.629 902.326 Q213.458 898.761 213.458 891.655 Q213.458 884.525 211.629 880.983 Q209.823 877.419 206.189 877.419 M206.189 873.715 Q211.999 873.715 215.055 878.321 Q218.134 882.905 218.134 891.655 Q218.134 900.381 215.055 904.988 Q211.999 909.571 206.189 909.571 Q200.379 909.571 197.3 904.988 Q194.245 900.381 194.245 891.655 Q194.245 882.905 197.3 878.321 Q200.379 873.715 206.189 873.715 Z" fill="#000000" fill-rule="nonzero" fill-opacity="1" /><path clip-path="url(#clip650)" d="M226.351 903.02 L231.235 903.02 L231.235 908.9 L226.351 908.9 L226.351 903.02 Z" fill="#000000" fill-rule="nonzero" fill-opacity="1" /><path clip-path="url(#clip650)" d="M251.42 877.419 Q247.809 877.419 245.981 880.983 Q244.175 884.525 244.175 891.655 Q244.175 898.761 245.981 902.326 Q247.809 905.867 251.42 905.867 Q255.055 905.867 256.86 902.326 Q258.689 898.761 258.689 891.655 Q258.689 884.525 256.86 880.983 Q255.055 877.419 251.42 877.419 M251.42 873.715 Q257.231 873.715 260.286 878.321 Q263.365 882.905 263.365 891.655 Q263.365 900.381 260.286 904.988 Q257.231 909.571 251.42 909.571 Q245.61 909.571 242.532 904.988 Q239.476 900.381 239.476 891.655 Q239.476 882.905 242.532 878.321 Q245.61 873.715 251.42 873.715 Z" fill="#000000" fill-rule="nonzero" fill-opacity="1" /><path clip-path="url(#clip650)" d="M281.582 877.419 Q277.971 877.419 276.143 880.983 Q274.337 884.525 274.337 891.655 Q274.337 898.761 276.143 902.326 Q277.971 905.867 281.582 905.867 Q285.217 905.867 287.022 902.326 Q288.851 898.761 288.851 891.655 Q288.851 884.525 287.022 880.983 Q285.217 877.419 281.582 877.419 M281.582 873.715 Q287.392 873.715 290.448 878.321 Q293.527 882.905 293.527 891.655 Q293.527 900.381 290.448 904.988 Q287.392 909.571 281.582 909.571 Q275.772 909.571 272.693 904.988 Q269.638 900.381 269.638 891.655 Q269.638 882.905 272.693 878.321 Q275.772 873.715 281.582 873.715 Z" fill="#000000" fill-rule="nonzero" fill-opacity="1" /><path clip-path="url(#clip650)" d="M539.183 877.419 Q535.572 877.419 533.743 880.983 Q531.937 884.525 531.937 891.655 Q531.937 898.761 533.743 902.326 Q535.572 905.867 539.183 905.867 Q542.817 905.867 544.622 902.326 Q546.451 898.761 546.451 891.655 Q546.451 884.525 544.622 880.983 Q542.817 877.419 539.183 877.419 M539.183 873.715 Q544.993 873.715 548.048 878.321 Q551.127 882.905 551.127 891.655 Q551.127 900.381 548.048 904.988 Q544.993 909.571 539.183 909.571 Q533.372 909.571 530.294 904.988 Q527.238 900.381 527.238 891.655 Q527.238 882.905 530.294 878.321 Q533.372 873.715 539.183 873.715 Z" fill="#000000" fill-rule="nonzero" fill-opacity="1" /><path clip-path="url(#clip650)" d="M559.345 903.02 L564.229 903.02 L564.229 908.9 L559.345 908.9 L559.345 903.02 Z" fill="#000000" fill-rule="nonzero" fill-opacity="1" /><path clip-path="url(#clip650)" d="M578.442 904.965 L594.761 904.965 L594.761 908.9 L572.817 908.9 L572.817 904.965 Q575.479 902.21 580.062 897.58 Q584.668 892.928 585.849 891.585 Q588.094 889.062 588.974 887.326 Q589.877 885.567 589.877 883.877 Q589.877 881.122 587.932 879.386 Q586.011 877.65 582.909 877.65 Q580.71 877.65 578.256 878.414 Q575.826 879.178 573.048 880.729 L573.048 876.007 Q575.872 874.872 578.326 874.294 Q580.78 873.715 582.817 873.715 Q588.187 873.715 591.381 876.4 Q594.576 879.085 594.576 883.576 Q594.576 885.706 593.766 887.627 Q592.979 889.525 590.872 892.118 Q590.293 892.789 587.192 896.006 Q584.09 899.201 578.442 904.965 Z" fill="#000000" fill-rule="nonzero" fill-opacity="1" /><path clip-path="url(#clip650)" d="M604.622 874.34 L622.978 874.34 L622.978 878.275 L608.904 878.275 L608.904 886.747 Q609.923 886.4 610.941 886.238 Q611.96 886.053 612.979 886.053 Q618.766 886.053 622.145 889.224 Q625.525 892.395 625.525 897.812 Q625.525 903.391 622.053 906.492 Q618.58 909.571 612.261 909.571 Q610.085 909.571 607.816 909.201 Q605.571 908.83 603.164 908.09 L603.164 903.391 Q605.247 904.525 607.469 905.08 Q609.691 905.636 612.168 905.636 Q616.173 905.636 618.511 903.53 Q620.849 901.423 620.849 897.812 Q620.849 894.201 618.511 892.094 Q616.173 889.988 612.168 889.988 Q610.293 889.988 608.418 890.405 Q606.567 890.821 604.622 891.701 L604.622 874.34 Z" fill="#000000" fill-rule="nonzero" fill-opacity="1" /><path clip-path="url(#clip650)" d="M871.181 877.419 Q867.57 877.419 865.741 880.983 Q863.935 884.525 863.935 891.655 Q863.935 898.761 865.741 902.326 Q867.57 905.867 871.181 905.867 Q874.815 905.867 876.62 902.326 Q878.449 898.761 878.449 891.655 Q878.449 884.525 876.62 880.983 Q874.815 877.419 871.181 877.419 M871.181 873.715 Q876.991 873.715 880.046 878.321 Q883.125 882.905 883.125 891.655 Q883.125 900.381 880.046 904.988 Q876.991 909.571 871.181 909.571 Q865.37 909.571 862.292 904.988 Q859.236 900.381 859.236 891.655 Q859.236 882.905 862.292 878.321 Q865.37 873.715 871.181 873.715 Z" fill="#000000" fill-rule="nonzero" fill-opacity="1" /><path clip-path="url(#clip650)" d="M891.343 903.02 L896.227 903.02 L896.227 908.9 L891.343 908.9 L891.343 903.02 Z" fill="#000000" fill-rule="nonzero" fill-opacity="1" /><path clip-path="url(#clip650)" d="M906.458 874.34 L924.815 874.34 L924.815 878.275 L910.741 878.275 L910.741 886.747 Q911.759 886.4 912.778 886.238 Q913.796 886.053 914.815 886.053 Q920.602 886.053 923.981 889.224 Q927.361 892.395 927.361 897.812 Q927.361 903.391 923.889 906.492 Q920.416 909.571 914.097 909.571 Q911.921 909.571 909.653 909.201 Q907.407 908.83 905 908.09 L905 903.391 Q907.083 904.525 909.305 905.08 Q911.528 905.636 914.004 905.636 Q918.009 905.636 920.347 903.53 Q922.685 901.423 922.685 897.812 Q922.685 894.201 920.347 892.094 Q918.009 889.988 914.004 889.988 Q912.13 889.988 910.255 890.405 Q908.403 890.821 906.458 891.701 L906.458 874.34 Z" fill="#000000" fill-rule="nonzero" fill-opacity="1" /><path clip-path="url(#clip650)" d="M946.574 877.419 Q942.963 877.419 941.134 880.983 Q939.328 884.525 939.328 891.655 Q939.328 898.761 941.134 902.326 Q942.963 905.867 946.574 905.867 Q950.208 905.867 952.014 902.326 Q953.842 898.761 953.842 891.655 Q953.842 884.525 952.014 880.983 Q950.208 877.419 946.574 877.419 M946.574 873.715 Q952.384 873.715 955.439 878.321 Q958.518 882.905 958.518 891.655 Q958.518 900.381 955.439 904.988 Q952.384 909.571 946.574 909.571 Q940.764 909.571 937.685 904.988 Q934.629 900.381 934.629 891.655 Q934.629 882.905 937.685 878.321 Q940.764 873.715 946.574 873.715 Z" fill="#000000" fill-rule="nonzero" fill-opacity="1" /><path clip-path="url(#clip650)" d="M1204.17 877.419 Q1200.56 877.419 1198.73 880.983 Q1196.93 884.525 1196.93 891.655 Q1196.93 898.761 1198.73 902.326 Q1200.56 905.867 1204.17 905.867 Q1207.81 905.867 1209.61 902.326 Q1211.44 898.761 1211.44 891.655 Q1211.44 884.525 1209.61 880.983 Q1207.81 877.419 1204.17 877.419 M1204.17 873.715 Q1209.98 873.715 1213.04 878.321 Q1216.12 882.905 1216.12 891.655 Q1216.12 900.381 1213.04 904.988 Q1209.98 909.571 1204.17 909.571 Q1198.36 909.571 1195.29 904.988 Q1192.23 900.381 1192.23 891.655 Q1192.23 882.905 1195.29 878.321 Q1198.36 873.715 1204.17 873.715 Z" fill="#000000" fill-rule="nonzero" fill-opacity="1" /><path clip-path="url(#clip650)" d="M1224.34 903.02 L1229.22 903.02 L1229.22 908.9 L1224.34 908.9 L1224.34 903.02 Z" fill="#000000" fill-rule="nonzero" fill-opacity="1" /><path clip-path="url(#clip650)" d="M1238.22 874.34 L1260.45 874.34 L1260.45 876.331 L1247.9 908.9 L1243.02 908.9 L1254.82 878.275 L1238.22 878.275 L1238.22 874.34 Z" fill="#000000" fill-rule="nonzero" fill-opacity="1" /><path clip-path="url(#clip650)" d="M1269.61 874.34 L1287.97 874.34 L1287.97 878.275 L1273.9 878.275 L1273.9 886.747 Q1274.91 886.4 1275.93 886.238 Q1276.95 886.053 1277.97 886.053 Q1283.76 886.053 1287.14 889.224 Q1290.52 892.395 1290.52 897.812 Q1290.52 903.391 1287.04 906.492 Q1283.57 909.571 1277.25 909.571 Q1275.08 909.571 1272.81 909.201 Q1270.56 908.83 1268.16 908.09 L1268.16 903.391 Q1270.24 904.525 1272.46 905.08 Q1274.68 905.636 1277.16 905.636 Q1281.16 905.636 1283.5 903.53 Q1285.84 901.423 1285.84 897.812 Q1285.84 894.201 1283.5 892.094 Q1281.16 889.988 1277.16 889.988 Q1275.28 889.988 1273.41 890.405 Q1271.56 890.821 1269.61 891.701 L1269.61 874.34 Z" fill="#000000" fill-rule="nonzero" fill-opacity="1" /><path clip-path="url(#clip650)" d="M1525.94 904.965 L1533.58 904.965 L1533.58 878.599 L1525.27 880.266 L1525.27 876.007 L1533.53 874.34 L1538.21 874.34 L1538.21 904.965 L1545.85 904.965 L1545.85 908.9 L1525.94 908.9 L1525.94 904.965 Z" fill="#000000" fill-rule="nonzero" fill-opacity="1" /><path clip-path="url(#clip650)" d="M1555.29 903.02 L1560.18 903.02 L1560.18 908.9 L1555.29 908.9 L1555.29 903.02 Z" fill="#000000" fill-rule="nonzero" fill-opacity="1" /><path clip-path="url(#clip650)" d="M1580.36 877.419 Q1576.75 877.419 1574.92 880.983 Q1573.12 884.525 1573.12 891.655 Q1573.12 898.761 1574.92 902.326 Q1576.75 905.867 1580.36 905.867 Q1584 905.867 1585.8 902.326 Q1587.63 898.761 1587.63 891.655 Q1587.63 884.525 1585.8 880.983 Q1584 877.419 1580.36 877.419 M1580.36 873.715 Q1586.17 873.715 1589.23 878.321 Q1592.31 882.905 1592.31 891.655 Q1592.31 900.381 1589.23 904.988 Q1586.17 909.571 1580.36 909.571 Q1574.55 909.571 1571.47 904.988 Q1568.42 900.381 1568.42 891.655 Q1568.42 882.905 1571.47 878.321 Q1574.55 873.715 1580.36 873.715 Z" fill="#000000" fill-rule="nonzero" fill-opacity="1" /><path clip-path="url(#clip650)" d="M1610.52 877.419 Q1606.91 877.419 1605.08 880.983 Q1603.28 884.525 1603.28 891.655 Q1603.28 898.761 1605.08 902.326 Q1606.91 905.867 1610.52 905.867 Q1614.16 905.867 1615.96 902.326 Q1617.79 898.761 1617.79 891.655 Q1617.79 884.525 1615.96 880.983 Q1614.16 877.419 1610.52 877.419 M1610.52 873.715 Q1616.33 873.715 1619.39 878.321 Q1622.47 882.905 1622.47 891.655 Q1622.47 900.381 1619.39 904.988 Q1616.33 909.571 1610.52 909.571 Q1604.71 909.571 1601.63 904.988 Q1598.58 900.381 1598.58 891.655 Q1598.58 882.905 1601.63 878.321 Q1604.71 873.715 1610.52 873.715 Z" fill="#000000" fill-rule="nonzero" fill-opacity="1" /><path clip-path="url(#clip650)" d="M917.349 952.439 Q917.349 953.341 916.93 953.567 Q916.511 953.76 915.352 953.76 L909.168 953.76 L904.273 973.212 Q903.887 974.919 903.887 976.368 Q903.887 977.979 904.37 978.687 Q904.885 979.396 905.948 979.396 Q908.041 979.396 910.296 977.496 Q912.582 975.595 914.515 970.958 Q914.772 970.346 914.901 970.217 Q915.062 970.056 915.481 970.056 Q916.286 970.056 916.286 970.7 Q916.286 970.926 915.835 971.956 Q915.416 972.987 914.482 974.5 Q913.581 976.014 912.389 977.431 Q911.23 978.848 909.458 979.879 Q907.687 980.877 905.787 980.877 Q903.114 980.877 901.407 979.17 Q899.732 977.463 899.732 974.79 Q899.732 973.921 900.408 971.151 Q901.085 968.349 904.756 953.76 L898.927 953.76 Q898.122 953.76 897.8 953.728 Q897.51 953.695 897.284 953.534 Q897.091 953.341 897.091 952.955 Q897.091 952.343 897.349 952.085 Q897.606 951.795 897.929 951.763 Q898.283 951.699 899.088 951.699 L905.271 951.699 L907.848 941.232 Q908.106 940.201 908.75 939.622 Q909.426 939.01 909.812 938.945 Q910.199 938.849 910.489 938.849 Q911.358 938.849 911.874 939.332 Q912.389 939.783 912.389 940.62 Q912.389 941.071 909.684 951.699 L915.481 951.699 Q916.221 951.699 916.511 951.731 Q916.833 951.763 917.091 951.924 Q917.349 952.085 917.349 952.439 Z" fill="#000000" fill-rule="nonzero" fill-opacity="1" /><polyline clip-path="url(#clip650)" style="stroke:#000000; stroke-linecap:round; stroke-linejoin:round; stroke-width:4; stroke-opacity:1; fill:none" points="203.986,849.7 203.986,47.2441 "/>
<polyline clip-path="url(#clip650)" style="stroke:#000000; stroke-linecap:round; stroke-linejoin:round; stroke-width:4; stroke-opacity:1; fill:none" points="203.986,827.515 219.221,827.515 "/>
<polyline clip-path="url(#clip650)" style="stroke:#000000; stroke-linecap:round; stroke-linejoin:round; stroke-width:4; stroke-opacity:1; fill:none" points="203.986,709.914 219.221,709.914 "/>
<polyline clip-path="url(#clip650)" style="stroke:#000000; stroke-linecap:round; stroke-linejoin:round; stroke-width:4; stroke-opacity:1; fill:none" points="203.986,592.313 219.221,592.313 "/>
<polyline clip-path="url(#clip650)" style="stroke:#000000; stroke-linecap:round; stroke-linejoin:round; stroke-width:4; stroke-opacity:1; fill:none" points="203.986,474.711 219.221,474.711 "/>
<polyline clip-path="url(#clip650)" style="stroke:#000000; stroke-linecap:round; stroke-linejoin:round; stroke-width:4; stroke-opacity:1; fill:none" points="203.986,357.11 219.221,357.11 "/>
<polyline clip-path="url(#clip650)" style="stroke:#000000; stroke-linecap:round; stroke-linejoin:round; stroke-width:4; stroke-opacity:1; fill:none" points="203.986,239.509 219.221,239.509 "/>
<polyline clip-path="url(#clip650)" style="stroke:#000000; stroke-linecap:round; stroke-linejoin:round; stroke-width:4; stroke-opacity:1; fill:none" points="203.986,121.908 219.221,121.908 "/>
<path clip-path="url(#clip650)" d="M116.811 813.314 Q113.2 813.314 111.371 816.879 Q109.565 820.421 109.565 827.55 Q109.565 834.657 111.371 838.221 Q113.2 841.763 116.811 841.763 Q120.445 841.763 122.25 838.221 Q124.079 834.657 124.079 827.55 Q124.079 820.421 122.25 816.879 Q120.445 813.314 116.811 813.314 M116.811 809.61 Q122.621 809.61 125.676 814.217 Q128.755 818.8 128.755 827.55 Q128.755 836.277 125.676 840.883 Q122.621 845.467 116.811 845.467 Q111 845.467 107.922 840.883 Q104.866 836.277 104.866 827.55 Q104.866 818.8 107.922 814.217 Q111 809.61 116.811 809.61 Z" fill="#000000" fill-rule="nonzero" fill-opacity="1" /><path clip-path="url(#clip650)" d="M136.973 838.916 L141.857 838.916 L141.857 844.795 L136.973 844.795 L136.973 838.916 Z" fill="#000000" fill-rule="nonzero" fill-opacity="1" /><path clip-path="url(#clip650)" d="M162.042 813.314 Q158.431 813.314 156.602 816.879 Q154.797 820.421 154.797 827.55 Q154.797 834.657 156.602 838.221 Q158.431 841.763 162.042 841.763 Q165.676 841.763 167.482 838.221 Q169.31 834.657 169.31 827.55 Q169.31 820.421 167.482 816.879 Q165.676 813.314 162.042 813.314 M162.042 809.61 Q167.852 809.61 170.908 814.217 Q173.986 818.8 173.986 827.55 Q173.986 836.277 170.908 840.883 Q167.852 845.467 162.042 845.467 Q156.232 845.467 153.153 840.883 Q150.098 836.277 150.098 827.55 Q150.098 818.8 153.153 814.217 Q156.232 809.61 162.042 809.61 Z" fill="#000000" fill-rule="nonzero" fill-opacity="1" /><path clip-path="url(#clip650)" d="M118.037 695.713 Q114.426 695.713 112.598 699.278 Q110.792 702.819 110.792 709.949 Q110.792 717.055 112.598 720.62 Q114.426 724.162 118.037 724.162 Q121.672 724.162 123.477 720.62 Q125.306 717.055 125.306 709.949 Q125.306 702.819 123.477 699.278 Q121.672 695.713 118.037 695.713 M118.037 692.009 Q123.848 692.009 126.903 696.616 Q129.982 701.199 129.982 709.949 Q129.982 718.676 126.903 723.282 Q123.848 727.865 118.037 727.865 Q112.227 727.865 109.149 723.282 Q106.093 718.676 106.093 709.949 Q106.093 701.199 109.149 696.616 Q112.227 692.009 118.037 692.009 Z" fill="#000000" fill-rule="nonzero" fill-opacity="1" /><path clip-path="url(#clip650)" d="M138.199 721.315 L143.084 721.315 L143.084 727.194 L138.199 727.194 L138.199 721.315 Z" fill="#000000" fill-rule="nonzero" fill-opacity="1" /><path clip-path="url(#clip650)" d="M154.079 723.259 L161.718 723.259 L161.718 696.893 L153.408 698.56 L153.408 694.301 L161.672 692.634 L166.347 692.634 L166.347 723.259 L173.986 723.259 L173.986 727.194 L154.079 727.194 L154.079 723.259 Z" fill="#000000" fill-rule="nonzero" fill-opacity="1" /><path clip-path="url(#clip650)" d="M118.408 578.112 Q114.797 578.112 112.968 581.676 Q111.163 585.218 111.163 592.348 Q111.163 599.454 112.968 603.019 Q114.797 606.56 118.408 606.56 Q122.042 606.56 123.848 603.019 Q125.676 599.454 125.676 592.348 Q125.676 585.218 123.848 581.676 Q122.042 578.112 118.408 578.112 M118.408 574.408 Q124.218 574.408 127.274 579.014 Q130.352 583.598 130.352 592.348 Q130.352 601.074 127.274 605.681 Q124.218 610.264 118.408 610.264 Q112.598 610.264 109.519 605.681 Q106.463 601.074 106.463 592.348 Q106.463 583.598 109.519 579.014 Q112.598 574.408 118.408 574.408 Z" fill="#000000" fill-rule="nonzero" fill-opacity="1" /><path clip-path="url(#clip650)" d="M138.57 603.713 L143.454 603.713 L143.454 609.593 L138.57 609.593 L138.57 603.713 Z" fill="#000000" fill-rule="nonzero" fill-opacity="1" /><path clip-path="url(#clip650)" d="M157.667 605.658 L173.986 605.658 L173.986 609.593 L152.042 609.593 L152.042 605.658 Q154.704 602.903 159.287 598.273 Q163.894 593.621 165.074 592.278 Q167.32 589.755 168.199 588.019 Q169.102 586.26 169.102 584.57 Q169.102 581.815 167.158 580.079 Q165.236 578.343 162.134 578.343 Q159.935 578.343 157.482 579.107 Q155.051 579.871 152.273 581.422 L152.273 576.699 Q155.097 575.565 157.551 574.987 Q160.005 574.408 162.042 574.408 Q167.412 574.408 170.607 577.093 Q173.801 579.778 173.801 584.269 Q173.801 586.399 172.991 588.32 Q172.204 590.218 170.097 592.811 Q169.519 593.482 166.417 596.699 Q163.315 599.894 157.667 605.658 Z" fill="#000000" fill-rule="nonzero" fill-opacity="1" /><path clip-path="url(#clip650)" d="M117.459 460.51 Q113.848 460.51 112.019 464.075 Q110.213 467.617 110.213 474.746 Q110.213 481.853 112.019 485.417 Q113.848 488.959 117.459 488.959 Q121.093 488.959 122.899 485.417 Q124.727 481.853 124.727 474.746 Q124.727 467.617 122.899 464.075 Q121.093 460.51 117.459 460.51 M117.459 456.806 Q123.269 456.806 126.324 461.413 Q129.403 465.996 129.403 474.746 Q129.403 483.473 126.324 488.079 Q123.269 492.663 117.459 492.663 Q111.649 492.663 108.57 488.079 Q105.514 483.473 105.514 474.746 Q105.514 465.996 108.57 461.413 Q111.649 456.806 117.459 456.806 Z" fill="#000000" fill-rule="nonzero" fill-opacity="1" /><path clip-path="url(#clip650)" d="M137.621 486.112 L142.505 486.112 L142.505 491.991 L137.621 491.991 L137.621 486.112 Z" fill="#000000" fill-rule="nonzero" fill-opacity="1" /><path clip-path="url(#clip650)" d="M166.857 473.357 Q170.213 474.075 172.088 476.343 Q173.986 478.612 173.986 481.945 Q173.986 487.061 170.468 489.862 Q166.949 492.663 160.468 492.663 Q158.292 492.663 155.977 492.223 Q153.685 491.806 151.232 490.95 L151.232 486.436 Q153.176 487.57 155.491 488.149 Q157.806 488.728 160.329 488.728 Q164.727 488.728 167.019 486.992 Q169.334 485.255 169.334 481.945 Q169.334 478.89 167.181 477.177 Q165.051 475.441 161.232 475.441 L157.204 475.441 L157.204 471.598 L161.417 471.598 Q164.866 471.598 166.695 470.232 Q168.523 468.843 168.523 466.251 Q168.523 463.589 166.625 462.177 Q164.75 460.742 161.232 460.742 Q159.31 460.742 157.111 461.158 Q154.912 461.575 152.273 462.455 L152.273 458.288 Q154.935 457.547 157.25 457.177 Q159.588 456.806 161.648 456.806 Q166.972 456.806 170.074 459.237 Q173.176 461.644 173.176 465.765 Q173.176 468.635 171.533 470.626 Q169.889 472.593 166.857 473.357 Z" fill="#000000" fill-rule="nonzero" fill-opacity="1" /><path clip-path="url(#clip650)" d="M116.325 342.909 Q112.713 342.909 110.885 346.474 Q109.079 350.015 109.079 357.145 Q109.079 364.251 110.885 367.816 Q112.713 371.358 116.325 371.358 Q119.959 371.358 121.764 367.816 Q123.593 364.251 123.593 357.145 Q123.593 350.015 121.764 346.474 Q119.959 342.909 116.325 342.909 M116.325 339.205 Q122.135 339.205 125.19 343.812 Q128.269 348.395 128.269 357.145 Q128.269 365.872 125.19 370.478 Q122.135 375.061 116.325 375.061 Q110.514 375.061 107.436 370.478 Q104.38 365.872 104.38 357.145 Q104.38 348.395 107.436 343.812 Q110.514 339.205 116.325 339.205 Z" fill="#000000" fill-rule="nonzero" fill-opacity="1" /><path clip-path="url(#clip650)" d="M136.486 368.511 L141.371 368.511 L141.371 374.39 L136.486 374.39 L136.486 368.511 Z" fill="#000000" fill-rule="nonzero" fill-opacity="1" /><path clip-path="url(#clip650)" d="M164.403 343.904 L152.597 362.353 L164.403 362.353 L164.403 343.904 M163.176 339.83 L169.056 339.83 L169.056 362.353 L173.986 362.353 L173.986 366.242 L169.056 366.242 L169.056 374.39 L164.403 374.39 L164.403 366.242 L148.801 366.242 L148.801 361.728 L163.176 339.83 Z" fill="#000000" fill-rule="nonzero" fill-opacity="1" /><path clip-path="url(#clip650)" d="M117.806 225.308 Q114.195 225.308 112.366 228.872 Q110.561 232.414 110.561 239.544 Q110.561 246.65 112.366 250.215 Q114.195 253.756 117.806 253.756 Q121.44 253.756 123.246 250.215 Q125.074 246.65 125.074 239.544 Q125.074 232.414 123.246 228.872 Q121.44 225.308 117.806 225.308 M117.806 221.604 Q123.616 221.604 126.672 226.21 Q129.75 230.794 129.75 239.544 Q129.75 248.27 126.672 252.877 Q123.616 257.46 117.806 257.46 Q111.996 257.46 108.917 252.877 Q105.862 248.27 105.862 239.544 Q105.862 230.794 108.917 226.21 Q111.996 221.604 117.806 221.604 Z" fill="#000000" fill-rule="nonzero" fill-opacity="1" /><path clip-path="url(#clip650)" d="M137.968 250.909 L142.852 250.909 L142.852 256.789 L137.968 256.789 L137.968 250.909 Z" fill="#000000" fill-rule="nonzero" fill-opacity="1" /><path clip-path="url(#clip650)" d="M153.084 222.229 L171.44 222.229 L171.44 226.164 L157.366 226.164 L157.366 234.636 Q158.384 234.289 159.403 234.127 Q160.422 233.942 161.44 233.942 Q167.227 233.942 170.607 237.113 Q173.986 240.284 173.986 245.701 Q173.986 251.28 170.514 254.381 Q167.042 257.46 160.722 257.46 Q158.547 257.46 156.278 257.09 Q154.033 256.719 151.625 255.979 L151.625 251.28 Q153.709 252.414 155.931 252.969 Q158.153 253.525 160.63 253.525 Q164.634 253.525 166.972 251.418 Q169.31 249.312 169.31 245.701 Q169.31 242.09 166.972 239.983 Q164.634 237.877 160.63 237.877 Q158.755 237.877 156.88 238.294 Q155.028 238.71 153.084 239.59 L153.084 222.229 Z" fill="#000000" fill-rule="nonzero" fill-opacity="1" /><path clip-path="url(#clip650)" d="M116.649 107.706 Q113.038 107.706 111.209 111.271 Q109.403 114.813 109.403 121.942 Q109.403 129.049 111.209 132.613 Q113.038 136.155 116.649 136.155 Q120.283 136.155 122.088 132.613 Q123.917 129.049 123.917 121.942 Q123.917 114.813 122.088 111.271 Q120.283 107.706 116.649 107.706 M116.649 104.003 Q122.459 104.003 125.514 108.609 Q128.593 113.192 128.593 121.942 Q128.593 130.669 125.514 135.275 Q122.459 139.859 116.649 139.859 Q110.838 139.859 107.76 135.275 Q104.704 130.669 104.704 121.942 Q104.704 113.192 107.76 108.609 Q110.838 104.003 116.649 104.003 Z" fill="#000000" fill-rule="nonzero" fill-opacity="1" /><path clip-path="url(#clip650)" d="M136.811 133.308 L141.695 133.308 L141.695 139.188 L136.811 139.188 L136.811 133.308 Z" fill="#000000" fill-rule="nonzero" fill-opacity="1" /><path clip-path="url(#clip650)" d="M162.459 120.044 Q159.31 120.044 157.459 122.197 Q155.63 124.35 155.63 128.1 Q155.63 131.826 157.459 134.002 Q159.31 136.155 162.459 136.155 Q165.607 136.155 167.435 134.002 Q169.287 131.826 169.287 128.1 Q169.287 124.35 167.435 122.197 Q165.607 120.044 162.459 120.044 M171.741 105.391 L171.741 109.651 Q169.982 108.817 168.176 108.377 Q166.394 107.938 164.634 107.938 Q160.005 107.938 157.551 111.063 Q155.121 114.188 154.773 120.507 Q156.139 118.493 158.199 117.428 Q160.259 116.34 162.736 116.34 Q167.945 116.34 170.954 119.512 Q173.986 122.66 173.986 128.1 Q173.986 133.424 170.838 136.641 Q167.69 139.859 162.459 139.859 Q156.463 139.859 153.292 135.275 Q150.121 130.669 150.121 121.942 Q150.121 113.748 154.01 108.887 Q157.898 104.003 164.449 104.003 Q166.209 104.003 167.991 104.35 Q169.796 104.697 171.741 105.391 Z" fill="#000000" fill-rule="nonzero" fill-opacity="1" /><path clip-path="url(#clip650)" d="M15.6339 444.976 L30.0621 448.551 Q30.9317 448.744 31.1571 448.905 Q31.3825 449.066 31.3825 449.517 Q31.3825 449.872 31.2215 450.097 Q31.0605 450.29 30.8995 450.29 L30.7384 450.322 Q30.6418 450.322 30.1587 450.258 Q29.6434 450.194 28.8061 450.129 Q27.9687 450.065 27.0348 450.065 Q21.753 450.065 19.3053 452.641 Q16.8255 455.186 16.8255 459.566 Q16.8255 462.593 18.4358 465.298 Q20.0461 468.003 22.5903 469.549 Q25.1024 471.095 27.7433 471.095 Q30.1587 471.095 31.7046 469.871 Q33.2505 468.648 33.7658 467.069 L34.9574 462.657 Q36.149 458.02 36.6643 456.699 Q37.1474 455.379 38.2424 454.284 Q41.2697 451.031 45.9718 451.031 Q50.0297 451.031 53.9589 453.318 Q57.8558 455.604 60.4 459.533 Q62.9121 463.462 62.9121 467.81 Q62.9121 475.443 58.1778 478.953 L61.9137 482.174 Q62.6222 482.786 62.7511 482.979 Q62.9121 483.14 62.9121 483.366 Q62.9121 483.655 62.7188 483.881 Q62.5578 484.106 62.268 484.106 Q62.0425 484.106 54.4741 482.206 Q46.9058 480.306 46.7447 480.145 Q46.4871 479.887 46.4871 479.469 Q46.4871 478.696 47.2278 478.696 Q47.4211 478.76 47.6787 478.825 Q49.9975 479.211 51.2536 479.211 Q53.6046 479.211 55.4081 478.406 Q57.1794 477.601 58.21 476.409 Q59.2084 475.185 59.8525 473.543 Q60.4644 471.9 60.6899 470.515 Q60.8831 469.131 60.8831 467.681 Q60.8831 464.557 59.0796 461.788 Q57.2761 458.986 54.4741 457.408 Q51.6722 455.797 48.7415 455.797 Q47.1956 455.797 46.004 456.216 Q44.7802 456.635 44.1039 457.214 Q43.4275 457.762 42.9122 458.696 Q42.3969 459.63 42.2037 460.274 Q41.9783 460.886 41.7528 461.852 L39.8849 468.905 Q39.0475 471.739 36.6321 473.768 Q34.2167 475.765 30.513 475.765 Q26.6161 475.765 23.009 473.478 Q19.3698 471.16 17.1798 467.392 Q14.9576 463.591 14.9576 459.501 Q14.9576 456.281 16.2136 453.801 Q17.4374 451.321 19.724 450.065 L15.9559 446.876 Q15.2152 446.232 15.0864 446.103 Q14.9576 445.942 14.9576 445.717 Q14.9576 445.331 15.183 445.169 Q15.4084 444.976 15.6339 444.976 Z" fill="#000000" fill-rule="nonzero" fill-opacity="1" /><path clip-path="url(#clip650)" d="M57.0423 419.695 Q57.5157 419.695 57.899 420.101 Q58.2822 420.484 58.2822 420.957 Q58.2822 421.228 57.8314 421.882 Q56.5238 423.753 56.5238 426.12 Q56.5238 428.239 57.0423 430.2 Q57.5608 432.162 58.6204 433.492 Q59.6574 434.799 61.0101 434.799 Q62.7009 434.799 63.6928 432.951 Q62.8136 431.035 62.8136 428.667 Q62.8136 427.901 62.8587 427.382 Q62.9038 426.841 63.0165 426.323 Q63.1292 425.804 63.3997 425.556 Q63.6477 425.286 64.0535 425.286 Q65.4964 425.286 65.4964 429.028 Q65.4964 431.463 64.8426 432.996 Q65.812 434.957 67.3675 436.039 Q68.9231 437.122 70.2532 437.122 Q71.4029 437.122 72.237 436.49 Q73.0712 435.837 73.477 434.777 Q73.8828 433.695 74.0631 432.635 Q74.2209 431.553 74.2209 430.358 Q74.2209 428.397 73.9729 427.022 Q73.7024 425.624 73.2064 424.858 Q72.7105 424.068 72.3723 423.753 Q72.0116 423.415 71.448 423.077 Q71.1324 422.874 71.1324 422.603 Q71.1324 422.4 71.2676 422.265 Q71.3804 422.107 71.5833 422.107 Q71.8312 422.107 72.3498 422.423 Q72.8683 422.716 73.5671 423.437 Q74.2435 424.136 74.8747 425.106 Q75.4834 426.052 75.9117 427.563 Q76.3401 429.073 76.3401 430.787 Q76.3401 434.281 74.6267 436.31 Q72.9134 438.316 70.5237 438.316 Q68.8554 438.316 67.1421 437.212 Q65.4062 436.085 64.3015 434.101 Q62.9263 435.949 61.0101 435.949 Q59.2967 435.949 57.7637 434.506 Q56.2307 433.041 55.329 430.674 Q54.4047 428.284 54.4047 425.669 Q54.4047 424.204 54.9006 422.761 Q55.374 421.318 55.9827 420.507 Q56.5914 419.695 57.0423 419.695 M64.0986 426.481 Q63.8281 427.473 63.8281 428.667 Q63.8281 430.291 64.2339 431.486 Q64.4819 430.516 64.4819 429.028 Q64.4819 427.788 64.4142 427.428 Q64.3466 427.044 64.0986 426.481 Z" fill="#000000" fill-rule="nonzero" fill-opacity="1" /><polyline clip-path="url(#clip652)" style="stroke:#377db8; stroke-linecap:round; stroke-linejoin:round; stroke-width:4; stroke-opacity:1; fill:none" points="243.886,826.253 299.302,826.73 354.718,826.989 410.134,826.651 465.55,825.03 520.966,821.008 576.381,812.982 631.797,799.139 687.213,778.391 742.629,751.919 798.045,724.259 853.461,703.412 908.877,697.29 964.293,707.8 1019.71,731.647 1075.13,759.676 1130.54,784.264 1185.96,802.456 1241.37,814.219 1296.79,820.984 1352.2,824.427 1407.62,825.878 1463.04,826.232 1518.45,826.035 1573.87,825.596 "/>
<circle clip-path="url(#clip652)" cx="243.886" cy="826.253" r="14.4" fill="#377db8" fill-rule="evenodd" fill-opacity="1" stroke="none"/>
<circle clip-path="url(#clip652)" cx="299.302" cy="826.73" r="14.4" fill="#377db8" fill-rule="evenodd" fill-opacity="1" stroke="none"/>
<circle clip-path="url(#clip652)" cx="354.718" cy="826.989" r="14.4" fill="#377db8" fill-rule="evenodd" fill-opacity="1" stroke="none"/>
<circle clip-path="url(#clip652)" cx="410.134" cy="826.651" r="14.4" fill="#377db8" fill-rule="evenodd" fill-opacity="1" stroke="none"/>
<circle clip-path="url(#clip652)" cx="465.55" cy="825.03" r="14.4" fill="#377db8" fill-rule="evenodd" fill-opacity="1" stroke="none"/>
<circle clip-path="url(#clip652)" cx="520.966" cy="821.008" r="14.4" fill="#377db8" fill-rule="evenodd" fill-opacity="1" stroke="none"/>
<circle clip-path="url(#clip652)" cx="576.381" cy="812.982" r="14.4" fill="#377db8" fill-rule="evenodd" fill-opacity="1" stroke="none"/>
<circle clip-path="url(#clip652)" cx="631.797" cy="799.139" r="14.4" fill="#377db8" fill-rule="evenodd" fill-opacity="1" stroke="none"/>
<circle clip-path="url(#clip652)" cx="687.213" cy="778.391" r="14.4" fill="#377db8" fill-rule="evenodd" fill-opacity="1" stroke="none"/>
<circle clip-path="url(#clip652)" cx="742.629" cy="751.919" r="14.4" fill="#377db8" fill-rule="evenodd" fill-opacity="1" stroke="none"/>
<circle clip-path="url(#clip652)" cx="798.045" cy="724.259" r="14.4" fill="#377db8" fill-rule="evenodd" fill-opacity="1" stroke="none"/>
<circle clip-path="url(#clip652)" cx="853.461" cy="703.412" r="14.4" fill="#377db8" fill-rule="evenodd" fill-opacity="1" stroke="none"/>
<circle clip-path="url(#clip652)" cx="908.877" cy="697.29" r="14.4" fill="#377db8" fill-rule="evenodd" fill-opacity="1" stroke="none"/>
<circle clip-path="url(#clip652)" cx="964.293" cy="707.8" r="14.4" fill="#377db8" fill-rule="evenodd" fill-opacity="1" stroke="none"/>
<circle clip-path="url(#clip652)" cx="1019.71" cy="731.647" r="14.4" fill="#377db8" fill-rule="evenodd" fill-opacity="1" stroke="none"/>
<circle clip-path="url(#clip652)" cx="1075.13" cy="759.676" r="14.4" fill="#377db8" fill-rule="evenodd" fill-opacity="1" stroke="none"/>
<circle clip-path="url(#clip652)" cx="1130.54" cy="784.264" r="14.4" fill="#377db8" fill-rule="evenodd" fill-opacity="1" stroke="none"/>
<circle clip-path="url(#clip652)" cx="1185.96" cy="802.456" r="14.4" fill="#377db8" fill-rule="evenodd" fill-opacity="1" stroke="none"/>
<circle clip-path="url(#clip652)" cx="1241.37" cy="814.219" r="14.4" fill="#377db8" fill-rule="evenodd" fill-opacity="1" stroke="none"/>
<circle clip-path="url(#clip652)" cx="1296.79" cy="820.984" r="14.4" fill="#377db8" fill-rule="evenodd" fill-opacity="1" stroke="none"/>
<circle clip-path="url(#clip652)" cx="1352.2" cy="824.427" r="14.4" fill="#377db8" fill-rule="evenodd" fill-opacity="1" stroke="none"/>
<circle clip-path="url(#clip652)" cx="1407.62" cy="825.878" r="14.4" fill="#377db8" fill-rule="evenodd" fill-opacity="1" stroke="none"/>
<circle clip-path="url(#clip652)" cx="1463.04" cy="826.232" r="14.4" fill="#377db8" fill-rule="evenodd" fill-opacity="1" stroke="none"/>
<circle clip-path="url(#clip652)" cx="1518.45" cy="826.035" r="14.4" fill="#377db8" fill-rule="evenodd" fill-opacity="1" stroke="none"/>
<circle clip-path="url(#clip652)" cx="1573.87" cy="825.596" r="14.4" fill="#377db8" fill-rule="evenodd" fill-opacity="1" stroke="none"/>
<polyline clip-path="url(#clip652)" style="stroke:#e31a1c; stroke-linecap:round; stroke-linejoin:round; stroke-width:4; stroke-opacity:1; fill:none" points="243.886,815 299.302,817.306 354.718,818.492 410.134,816.131 465.55,805.677 520.966,779.635 576.381,727.544 631.797,638.696 687.213,509.778 742.629,355.284 798.045,208.937 853.461,107.003 908.877,69.9551 964.293,102.757 1019.71,200.68 1075.13,344.038 1130.54,497.416 1185.96,627.196 1241.37,718.273 1296.79,773.182 1352.2,802.042 1407.62,814.975 1463.04,819.336 1518.45,819.651 1573.87,818.389 "/>
<circle clip-path="url(#clip652)" cx="243.886" cy="815" r="14.4" fill="#e31a1c" fill-rule="evenodd" fill-opacity="1" stroke="none"/>
<circle clip-path="url(#clip652)" cx="299.302" cy="817.306" r="14.4" fill="#e31a1c" fill-rule="evenodd" fill-opacity="1" stroke="none"/>
<circle clip-path="url(#clip652)" cx="354.718" cy="818.492" r="14.4" fill="#e31a1c" fill-rule="evenodd" fill-opacity="1" stroke="none"/>
<circle clip-path="url(#clip652)" cx="410.134" cy="816.131" r="14.4" fill="#e31a1c" fill-rule="evenodd" fill-opacity="1" stroke="none"/>
<circle clip-path="url(#clip652)" cx="465.55" cy="805.677" r="14.4" fill="#e31a1c" fill-rule="evenodd" fill-opacity="1" stroke="none"/>
<circle clip-path="url(#clip652)" cx="520.966" cy="779.635" r="14.4" fill="#e31a1c" fill-rule="evenodd" fill-opacity="1" stroke="none"/>
<circle clip-path="url(#clip652)" cx="576.381" cy="727.544" r="14.4" fill="#e31a1c" fill-rule="evenodd" fill-opacity="1" stroke="none"/>
<circle clip-path="url(#clip652)" cx="631.797" cy="638.696" r="14.4" fill="#e31a1c" fill-rule="evenodd" fill-opacity="1" stroke="none"/>
<circle clip-path="url(#clip652)" cx="687.213" cy="509.778" r="14.4" fill="#e31a1c" fill-rule="evenodd" fill-opacity="1" stroke="none"/>
<circle clip-path="url(#clip652)" cx="742.629" cy="355.284" r="14.4" fill="#e31a1c" fill-rule="evenodd" fill-opacity="1" stroke="none"/>
<circle clip-path="url(#clip652)" cx="798.045" cy="208.937" r="14.4" fill="#e31a1c" fill-rule="evenodd" fill-opacity="1" stroke="none"/>
<circle clip-path="url(#clip652)" cx="853.461" cy="107.003" r="14.4" fill="#e31a1c" fill-rule="evenodd" fill-opacity="1" stroke="none"/>
<circle clip-path="url(#clip652)" cx="908.877" cy="69.9551" r="14.4" fill="#e31a1c" fill-rule="evenodd" fill-opacity="1" stroke="none"/>
<circle clip-path="url(#clip652)" cx="964.293" cy="102.757" r="14.4" fill="#e31a1c" fill-rule="evenodd" fill-opacity="1" stroke="none"/>
<circle clip-path="url(#clip652)" cx="1019.71" cy="200.68" r="14.4" fill="#e31a1c" fill-rule="evenodd" fill-opacity="1" stroke="none"/>
<circle clip-path="url(#clip652)" cx="1075.13" cy="344.038" r="14.4" fill="#e31a1c" fill-rule="evenodd" fill-opacity="1" stroke="none"/>
<circle clip-path="url(#clip652)" cx="1130.54" cy="497.416" r="14.4" fill="#e31a1c" fill-rule="evenodd" fill-opacity="1" stroke="none"/>
<circle clip-path="url(#clip652)" cx="1185.96" cy="627.196" r="14.4" fill="#e31a1c" fill-rule="evenodd" fill-opacity="1" stroke="none"/>
<circle clip-path="url(#clip652)" cx="1241.37" cy="718.273" r="14.4" fill="#e31a1c" fill-rule="evenodd" fill-opacity="1" stroke="none"/>
<circle clip-path="url(#clip652)" cx="1296.79" cy="773.182" r="14.4" fill="#e31a1c" fill-rule="evenodd" fill-opacity="1" stroke="none"/>
<circle clip-path="url(#clip652)" cx="1352.2" cy="802.042" r="14.4" fill="#e31a1c" fill-rule="evenodd" fill-opacity="1" stroke="none"/>
<circle clip-path="url(#clip652)" cx="1407.62" cy="814.975" r="14.4" fill="#e31a1c" fill-rule="evenodd" fill-opacity="1" stroke="none"/>
<circle clip-path="url(#clip652)" cx="1463.04" cy="819.336" r="14.4" fill="#e31a1c" fill-rule="evenodd" fill-opacity="1" stroke="none"/>
<circle clip-path="url(#clip652)" cx="1518.45" cy="819.651" r="14.4" fill="#e31a1c" fill-rule="evenodd" fill-opacity="1" stroke="none"/>
<circle clip-path="url(#clip652)" cx="1573.87" cy="818.389" r="14.4" fill="#e31a1c" fill-rule="evenodd" fill-opacity="1" stroke="none"/>
<polyline clip-path="url(#clip652)" style="stroke:#ff7e00; stroke-linecap:round; stroke-linejoin:round; stroke-width:4; stroke-opacity:1; fill:none" points="243.886,800.866 299.302,792.844 354.718,782.259 410.134,767.954 465.55,748.079 520.966,719.938 576.381,680.372 631.797,627.622 687.213,565.285 742.629,505.601 798.045,464.456 853.461,447.279 908.877,444.689 964.293,449.177 1019.71,467.85 1075.13,509.821 1130.54,569.639 1185.96,631.615 1241.37,683.764 1296.79,722.689 1352.2,750.26 1407.62,769.689 1463.04,783.679 1518.45,794.062 1573.87,801.97 "/>
<circle clip-path="url(#clip652)" cx="243.886" cy="800.866" r="14.4" fill="#ff7e00" fill-rule="evenodd" fill-opacity="1" stroke="none"/>
<circle clip-path="url(#clip652)" cx="299.302" cy="792.844" r="14.4" fill="#ff7e00" fill-rule="evenodd" fill-opacity="1" stroke="none"/>
<circle clip-path="url(#clip652)" cx="354.718" cy="782.259" r="14.4" fill="#ff7e00" fill-rule="evenodd" fill-opacity="1" stroke="none"/>
<circle clip-path="url(#clip652)" cx="410.134" cy="767.954" r="14.4" fill="#ff7e00" fill-rule="evenodd" fill-opacity="1" stroke="none"/>
<circle clip-path="url(#clip652)" cx="465.55" cy="748.079" r="14.4" fill="#ff7e00" fill-rule="evenodd" fill-opacity="1" stroke="none"/>
<circle clip-path="url(#clip652)" cx="520.966" cy="719.938" r="14.4" fill="#ff7e00" fill-rule="evenodd" fill-opacity="1" stroke="none"/>
<circle clip-path="url(#clip652)" cx="576.381" cy="680.372" r="14.4" fill="#ff7e00" fill-rule="evenodd" fill-opacity="1" stroke="none"/>
<circle clip-path="url(#clip652)" cx="631.797" cy="627.622" r="14.4" fill="#ff7e00" fill-rule="evenodd" fill-opacity="1" stroke="none"/>
<circle clip-path="url(#clip652)" cx="687.213" cy="565.285" r="14.4" fill="#ff7e00" fill-rule="evenodd" fill-opacity="1" stroke="none"/>
<circle clip-path="url(#clip652)" cx="742.629" cy="505.601" r="14.4" fill="#ff7e00" fill-rule="evenodd" fill-opacity="1" stroke="none"/>
<circle clip-path="url(#clip652)" cx="798.045" cy="464.456" r="14.4" fill="#ff7e00" fill-rule="evenodd" fill-opacity="1" stroke="none"/>
<circle clip-path="url(#clip652)" cx="853.461" cy="447.279" r="14.4" fill="#ff7e00" fill-rule="evenodd" fill-opacity="1" stroke="none"/>
<circle clip-path="url(#clip652)" cx="908.877" cy="444.689" r="14.4" fill="#ff7e00" fill-rule="evenodd" fill-opacity="1" stroke="none"/>
<circle clip-path="url(#clip652)" cx="964.293" cy="449.177" r="14.4" fill="#ff7e00" fill-rule="evenodd" fill-opacity="1" stroke="none"/>
<circle clip-path="url(#clip652)" cx="1019.71" cy="467.85" r="14.4" fill="#ff7e00" fill-rule="evenodd" fill-opacity="1" stroke="none"/>
<circle clip-path="url(#clip652)" cx="1075.13" cy="509.821" r="14.4" fill="#ff7e00" fill-rule="evenodd" fill-opacity="1" stroke="none"/>
<circle clip-path="url(#clip652)" cx="1130.54" cy="569.639" r="14.4" fill="#ff7e00" fill-rule="evenodd" fill-opacity="1" stroke="none"/>
<circle clip-path="url(#clip652)" cx="1185.96" cy="631.615" r="14.4" fill="#ff7e00" fill-rule="evenodd" fill-opacity="1" stroke="none"/>
<circle clip-path="url(#clip652)" cx="1241.37" cy="683.764" r="14.4" fill="#ff7e00" fill-rule="evenodd" fill-opacity="1" stroke="none"/>
<circle clip-path="url(#clip652)" cx="1296.79" cy="722.689" r="14.4" fill="#ff7e00" fill-rule="evenodd" fill-opacity="1" stroke="none"/>
<circle clip-path="url(#clip652)" cx="1352.2" cy="750.26" r="14.4" fill="#ff7e00" fill-rule="evenodd" fill-opacity="1" stroke="none"/>
<circle clip-path="url(#clip652)" cx="1407.62" cy="769.689" r="14.4" fill="#ff7e00" fill-rule="evenodd" fill-opacity="1" stroke="none"/>
<circle clip-path="url(#clip652)" cx="1463.04" cy="783.679" r="14.4" fill="#ff7e00" fill-rule="evenodd" fill-opacity="1" stroke="none"/>
<circle clip-path="url(#clip652)" cx="1518.45" cy="794.062" r="14.4" fill="#ff7e00" fill-rule="evenodd" fill-opacity="1" stroke="none"/>
<circle clip-path="url(#clip652)" cx="1573.87" cy="801.97" r="14.4" fill="#ff7e00" fill-rule="evenodd" fill-opacity="1" stroke="none"/>
<path clip-path="url(#clip650)" d="M1672.06 281.353 L1952.76 281.353 L1952.76 73.9926 L1672.06 73.9926  Z" fill="#ffffff" fill-rule="evenodd" fill-opacity="1"/>
<polyline clip-path="url(#clip650)" style="stroke:#000000; stroke-linecap:round; stroke-linejoin:round; stroke-width:4; stroke-opacity:1; fill:none" points="1672.06,281.353 1952.76,281.353 1952.76,73.9926 1672.06,73.9926 1672.06,281.353 "/>
<polyline clip-path="url(#clip650)" style="stroke:#377db8; stroke-linecap:round; stroke-linejoin:round; stroke-width:4; stroke-opacity:1; fill:none" points="1691.49,125.833 1808.08,125.833 "/>
<circle clip-path="url(#clip650)" cx="1749.78" cy="125.833" r="16.1923" fill="#377db8" fill-rule="evenodd" fill-opacity="1" stroke="none"/>
<path clip-path="url(#clip650)" d="M1843.53 111.724 Q1838.43 111.724 1835.42 115.52 Q1832.44 119.316 1832.44 125.867 Q1832.44 132.395 1835.42 136.191 Q1838.43 139.988 1843.53 139.988 Q1848.62 139.988 1851.58 136.191 Q1854.57 132.395 1854.57 125.867 Q1854.57 119.316 1851.58 115.52 Q1848.62 111.724 1843.53 111.724 M1850.08 142.488 L1856.23 149.224 L1850.59 149.224 L1845.47 143.691 Q1844.71 143.738 1844.29 143.761 Q1843.9 143.784 1843.53 143.784 Q1836.23 143.784 1831.86 138.923 Q1827.51 134.039 1827.51 125.867 Q1827.51 117.673 1831.86 112.812 Q1836.23 107.928 1843.53 107.928 Q1850.79 107.928 1855.15 112.812 Q1859.5 117.673 1859.5 125.867 Q1859.5 131.886 1857.07 136.168 Q1854.66 140.451 1850.08 142.488 Z" fill="#000000" fill-rule="nonzero" fill-opacity="1" /><path clip-path="url(#clip650)" d="M1880.84 111.724 Q1875.75 111.724 1872.74 115.52 Q1869.75 119.316 1869.75 125.867 Q1869.75 132.395 1872.74 136.191 Q1875.75 139.988 1880.84 139.988 Q1885.93 139.988 1888.9 136.191 Q1891.88 132.395 1891.88 125.867 Q1891.88 119.316 1888.9 115.52 Q1885.93 111.724 1880.84 111.724 M1880.84 107.928 Q1888.11 107.928 1892.46 112.812 Q1896.81 117.673 1896.81 125.867 Q1896.81 134.039 1892.46 138.923 Q1888.11 143.784 1880.84 143.784 Q1873.55 143.784 1869.17 138.923 Q1864.82 134.062 1864.82 125.867 Q1864.82 117.673 1869.17 112.812 Q1873.55 107.928 1880.84 107.928 Z" fill="#000000" fill-rule="nonzero" fill-opacity="1" /><path clip-path="url(#clip650)" d="M1899.33 108.553 L1928.57 108.553 L1928.57 112.488 L1916.3 112.488 L1916.3 143.113 L1911.6 143.113 L1911.6 112.488 L1899.33 112.488 L1899.33 108.553 Z" fill="#000000" fill-rule="nonzero" fill-opacity="1" /><polyline clip-path="url(#clip650)" style="stroke:#e31a1c; stroke-linecap:round; stroke-linejoin:round; stroke-width:4; stroke-opacity:1; fill:none" points="1691.49,177.673 1808.08,177.673 "/>
<circle clip-path="url(#clip650)" cx="1749.78" cy="177.673" r="16.1923" fill="#e31a1c" fill-rule="evenodd" fill-opacity="1" stroke="none"/>
<path clip-path="url(#clip650)" d="M1827.51 160.393 L1849.36 160.393 L1849.36 164.328 L1832.18 164.328 L1832.18 174.559 L1848.64 174.559 L1848.64 178.494 L1832.18 178.494 L1832.18 191.017 L1849.78 191.017 L1849.78 194.953 L1827.51 194.953 L1827.51 160.393 Z" fill="#000000" fill-rule="nonzero" fill-opacity="1" /><path clip-path="url(#clip650)" d="M1871.49 163.564 Q1866.4 163.564 1863.39 167.36 Q1860.4 171.156 1860.4 177.707 Q1860.4 184.235 1863.39 188.031 Q1866.4 191.828 1871.49 191.828 Q1876.58 191.828 1879.54 188.031 Q1882.53 184.235 1882.53 177.707 Q1882.53 171.156 1879.54 167.36 Q1876.58 163.564 1871.49 163.564 M1871.49 159.768 Q1878.76 159.768 1883.11 164.652 Q1887.46 169.513 1887.46 177.707 Q1887.46 185.879 1883.11 190.763 Q1878.76 195.624 1871.49 195.624 Q1864.2 195.624 1859.82 190.763 Q1855.47 185.902 1855.47 177.707 Q1855.47 169.513 1859.82 164.652 Q1864.2 159.768 1871.49 159.768 Z" fill="#000000" fill-rule="nonzero" fill-opacity="1" /><path clip-path="url(#clip650)" d="M1889.98 160.393 L1919.22 160.393 L1919.22 164.328 L1906.95 164.328 L1906.95 194.953 L1902.25 194.953 L1902.25 164.328 L1889.98 164.328 L1889.98 160.393 Z" fill="#000000" fill-rule="nonzero" fill-opacity="1" /><polyline clip-path="url(#clip650)" style="stroke:#ff7e00; stroke-linecap:round; stroke-linejoin:round; stroke-width:4; stroke-opacity:1; fill:none" points="1691.49,229.513 1808.08,229.513 "/>
<circle clip-path="url(#clip650)" cx="1749.78" cy="229.513" r="16.1923" fill="#ff7e00" fill-rule="evenodd" fill-opacity="1" stroke="none"/>
<path clip-path="url(#clip650)" d="M1849.22 227.554 Q1849.22 228.889 1848.4 229.686 Q1847.6 230.482 1846.6 230.482 Q1845.71 230.482 1845.24 229.967 Q1844.77 229.451 1844.77 228.796 Q1844.77 228.515 1844.89 228.163 Q1845 227.788 1845.26 227.343 Q1845.54 226.898 1846.13 226.571 Q1846.71 226.243 1847.51 226.196 Q1847.35 226.032 1847.3 226.008 Q1846.95 225.727 1846.29 225.634 Q1846.2 225.587 1845.87 225.587 Q1844.25 225.587 1842.61 226.781 Q1841 227.952 1839.01 230.178 Q1836.5 232.777 1834.88 233.738 Q1841.98 234.675 1841.98 238.774 Q1841.98 239.453 1841.79 240.273 Q1841.42 241.819 1841.42 242.943 Q1841.42 245.191 1842.94 245.191 Q1844.42 245.191 1845.35 243.692 Q1846.31 242.193 1847.11 239.265 Q1847.23 238.727 1847.35 238.563 Q1847.46 238.399 1847.79 238.399 Q1848.38 238.399 1848.38 238.867 Q1847.84 241.608 1846.64 243.716 Q1845.12 246.269 1842.85 246.269 Q1840.95 246.269 1839.69 244.957 Q1838.44 243.622 1838.44 241.514 Q1838.44 240.999 1838.63 239.828 Q1838.77 239.359 1838.77 238.82 Q1838.77 237.72 1838.16 236.9 Q1837.55 236.057 1836.57 235.635 Q1835.59 235.213 1834.77 235.026 Q1833.97 234.815 1833.2 234.745 Q1830.86 244.653 1830.53 245.262 Q1830.32 245.683 1829.85 245.964 Q1829.38 246.269 1828.89 246.269 Q1828.42 246.269 1827.95 245.941 Q1827.51 245.636 1827.51 244.91 Q1827.51 244.536 1827.69 243.856 L1834.65 216.218 L1834.79 215.281 Q1834.79 215 1834.67 214.859 Q1834.58 214.695 1834.02 214.578 Q1833.48 214.461 1832.4 214.461 Q1831.96 214.461 1831.75 214.438 Q1831.56 214.414 1831.39 214.297 Q1831.23 214.157 1831.23 213.876 Q1831.23 213.477 1831.39 213.267 Q1831.58 213.032 1831.72 212.985 Q1831.86 212.939 1832.14 212.915 Q1832.54 212.892 1833.88 212.775 Q1835.21 212.634 1836.36 212.54 Q1837.51 212.447 1838 212.447 Q1838.28 212.447 1838.42 212.587 Q1838.59 212.704 1838.61 212.845 L1838.63 212.962 L1833.64 233.199 Q1835.7 232.379 1838.96 228.749 Q1842.73 224.533 1845.96 224.533 Q1847.49 224.533 1848.35 225.47 Q1849.22 226.383 1849.22 227.554 Z" fill="#000000" fill-rule="nonzero" fill-opacity="1" /><path clip-path="url(#clip650)" d="M1852.26 230.846 L1864.74 230.846 L1864.74 234.642 L1852.26 234.642 L1852.26 230.846 Z" fill="#000000" fill-rule="nonzero" fill-opacity="1" /><path clip-path="url(#clip650)" d="M1871.71 211.17 L1878 211.17 L1893.33 240.082 L1893.33 211.17 L1897.86 211.17 L1897.86 245.73 L1891.57 245.73 L1876.24 216.818 L1876.24 245.73 L1871.71 245.73 L1871.71 211.17 Z" fill="#000000" fill-rule="nonzero" fill-opacity="1" /><path clip-path="url(#clip650)" d="M1907.17 211.17 L1913.46 211.17 L1928.79 240.082 L1928.79 211.17 L1933.33 211.17 L1933.33 245.73 L1927.03 245.73 L1911.7 216.818 L1911.7 245.73 L1907.17 245.73 L1907.17 211.17 Z" fill="#000000" fill-rule="nonzero" fill-opacity="1" /></svg>
