<?xml version="1.0" encoding="utf-8"?>
<svg xmlns="http://www.w3.org/2000/svg" xmlns:xlink="http://www.w3.org/1999/xlink" width="500" height="250" viewBox="0 0 2000 1000">
<defs>
  <clipPath id="clip790">
    <rect x="0" y="0" width="2000" height="1000"/>
  </clipPath>
</defs>
<path clip-path="url(#clip790)" d="M0 1000 L2000 1000 L2000 0 L0 0  Z" fill="#ffffff" fill-rule="evenodd" fill-opacity="1"/>
<defs>
  <clipPath id="clip791">
    <rect x="400" y="0" width="1401" height="1000"/>
  </clipPath>
</defs>
<path clip-path="url(#clip790)" d="M203.986 849.7 L1346.05 849.7 L1346.05 47.2441 L203.986 47.2441  Z" fill="#ffffff" fill-rule="evenodd" fill-opacity="1"/>
<defs>
  <clipPath id="clip792">
    <rect x="203" y="47" width="1143" height="803"/>
  </clipPath>
</defs>
<polyline clip-path="url(#clip792)" style="stroke:#000000; stroke-linecap:round; stroke-linejoin:round; stroke-width:2; stroke-opacity:0.1; fill:none" points="236.309,849.7 236.309,47.2441 "/>
<polyline clip-path="url(#clip792)" style="stroke:#000000; stroke-linecap:round; stroke-linejoin:round; stroke-width:2; stroke-opacity:0.1; fill:none" points="505.663,849.7 505.663,47.2441 "/>
<polyline clip-path="url(#clip792)" style="stroke:#000000; stroke-linecap:round; stroke-linejoin:round; stroke-width:2; stroke-opacity:0.1; fill:none" points="775.017,849.7 775.017,47.2441 "/>
<polyline clip-path="url(#clip792)" style="stroke:#000000; stroke-linecap:round; stroke-linejoin:round; stroke-width:2; stroke-opacity:0.1; fill:none" points="1044.37,849.7 1044.37,47.2441 "/>
<polyline clip-path="url(#clip792)" style="stroke:#000000; stroke-linecap:round; stroke-linejoin:round; stroke-width:2; stroke-opacity:0.1; fill:none" points="1313.72,849.7 1313.72,47.2441 "/>
<polyline clip-path="url(#clip792)" style="stroke:#000000; stroke-linecap:round; stroke-linejoin:round; stroke-width:2; stroke-opacity:0.1; fill:none" points="203.986,827.515 1346.05,827.515 "/>
<polyline clip-path="url(#clip792)" style="stroke:#000000; stroke-linecap:round; stroke-linejoin:round; stroke-width:2; stroke-opacity:0.1; fill:none" points="203.986,709.914 1346.05,709.914 "/>
<polyline clip-path="url(#clip792)" style="stroke:#000000; stroke-linecap:round; stroke-linejoin:round; stroke-width:2; stroke-opacity:0.1; fill:none" points="203.986,592.313 1346.05,592.313 "/>
<polyline clip-path="url(#clip792)" style="stroke:#000000; stroke-linecap:round; stroke-linejoin:round; stroke-width:2; stroke-opacity:0.1; fill:none" points="203.986,474.711 1346.05,474.711 "/>
<polyline clip-path="url(#clip792)" style="stroke:#000000; stroke-linecap:round; stroke-linejoin:round; stroke-width:2; stroke-opacity:0.1; fill:none" points="203.986,357.11 1346.05,357.11 "/>
<polyline clip-path="url(#clip792)" style="stroke:#000000; stroke-linecap:round; stroke-linejoin:round; stroke-width:2; stroke-opacity:0.1; fill:none" points="203.986,239.509 1346.05,239.509 "/>
<polyline clip-path="url(#clip792)" style="stroke:#000000; stroke-linecap:round; stroke-linejoin:round; stroke-width:2; stroke-opacity:0.1; fill:none" points="203.986,121.908 1346.05,121.908 "/>
<polyline clip-path="url(#clip790)" style="stroke:#000000; stroke-linecap:round; stroke-linejoin:round; stroke-width:4; stroke-opacity:1; fill:none" points="203.986,849.7 1346.05,849.7 "/>
<polyline clip-path="url(#clip790)" style="stroke:#000000; stroke-linecap:round; stroke-linejoin:round; stroke-width:4; stroke-opacity:1; fill:none" points="236.309,849.7 236.309,830.802 "/>
<polyline clip-path="url(#clip790)" style="stroke:#000000; stroke-linecap:round; stroke-linejoin:round; stroke-width:4; stroke-opacity:1; fill:none" points="505.663,849.7 505.663,830.802 "/>
<polyline clip-path="url(#clip790)" style="stroke:#000000; stroke-linecap:round; stroke-linejoin:round; stroke-width:4; stroke-opacity:1; fill:none" points="775.017,849.7 775.017,830.802 "/>
<polyline clip-path="url(#clip790)" style="stroke:#000000; stroke-linecap:round; stroke-linejoin:round; stroke-width:4; stroke-opacity:1; fill:none" points="1044.37,849.7 1044.37,830.802 "/>
<polyline clip-path="url(#clip790)" style="stroke:#000000; stroke-linecap:round; stroke-linejoin:round; stroke-width:4; stroke-opacity:1; fill:none" points="1313.72,849.7 1313.72,830.802 "/>
<path clip-path="url(#clip790)" d="M198.612 877.419 Q195.001 877.419 193.172 880.983 Q191.367 884.525 191.367 891.655 Q191.367 898.761 193.172 902.326 Q195.001 905.867 198.612 905.867 Q202.246 905.867 204.052 902.326 Q205.881 898.761 205.881 891.655 Q205.881 884.525 204.052 880.983 Q202.246 877.419 198.612 877.419 M198.612 873.715 Q204.422 873.715 207.478 878.321 Q210.557 882.905 210.557 891.655 Q210.557 900.381 207.478 904.988 Q204.422 909.571 198.612 909.571 Q192.802 909.571 189.723 904.988 Q186.668 900.381 186.668 891.655 Q186.668 882.905 189.723 878.321 Q192.802 873.715 198.612 873.715 Z" fill="#000000" fill-rule="nonzero" fill-opacity="1" /><path clip-path="url(#clip790)" d="M218.774 903.02 L223.658 903.02 L223.658 908.9 L218.774 908.9 L218.774 903.02 Z" fill="#000000" fill-rule="nonzero" fill-opacity="1" /><path clip-path="url(#clip790)" d="M243.843 877.419 Q240.232 877.419 238.404 880.983 Q236.598 884.525 236.598 891.655 Q236.598 898.761 238.404 902.326 Q240.232 905.867 243.843 905.867 Q247.478 905.867 249.283 902.326 Q251.112 898.761 251.112 891.655 Q251.112 884.525 249.283 880.983 Q247.478 877.419 243.843 877.419 M243.843 873.715 Q249.654 873.715 252.709 878.321 Q255.788 882.905 255.788 891.655 Q255.788 900.381 252.709 904.988 Q249.654 909.571 243.843 909.571 Q238.033 909.571 234.955 904.988 Q231.899 900.381 231.899 891.655 Q231.899 882.905 234.955 878.321 Q238.033 873.715 243.843 873.715 Z" fill="#000000" fill-rule="nonzero" fill-opacity="1" /><path clip-path="url(#clip790)" d="M274.005 877.419 Q270.394 877.419 268.566 880.983 Q266.76 884.525 266.76 891.655 Q266.76 898.761 268.566 902.326 Q270.394 905.867 274.005 905.867 Q277.64 905.867 279.445 902.326 Q281.274 898.761 281.274 891.655 Q281.274 884.525 279.445 880.983 Q277.64 877.419 274.005 877.419 M274.005 873.715 Q279.815 873.715 282.871 878.321 Q285.95 882.905 285.95 891.655 Q285.95 900.381 282.871 904.988 Q279.815 909.571 274.005 909.571 Q268.195 909.571 265.116 904.988 Q262.061 900.381 262.061 891.655 Q262.061 882.905 265.116 878.321 Q268.195 873.715 274.005 873.715 Z" fill="#000000" fill-rule="nonzero" fill-opacity="1" /><path clip-path="url(#clip790)" d="M468.464 877.419 Q464.853 877.419 463.024 880.983 Q461.218 884.525 461.218 891.655 Q461.218 898.761 463.024 902.326 Q464.853 905.867 468.464 905.867 Q472.098 905.867 473.904 902.326 Q475.732 898.761 475.732 891.655 Q475.732 884.525 473.904 880.983 Q472.098 877.419 468.464 877.419 M468.464 873.715 Q474.274 873.715 477.329 878.321 Q480.408 882.905 480.408 891.655 Q480.408 900.381 477.329 904.988 Q474.274 909.571 468.464 909.571 Q462.654 909.571 459.575 904.988 Q456.519 900.381 456.519 891.655 Q456.519 882.905 459.575 878.321 Q462.654 873.715 468.464 873.715 Z" fill="#000000" fill-rule="nonzero" fill-opacity="1" /><path clip-path="url(#clip790)" d="M488.626 903.02 L493.51 903.02 L493.51 908.9 L488.626 908.9 L488.626 903.02 Z" fill="#000000" fill-rule="nonzero" fill-opacity="1" /><path clip-path="url(#clip790)" d="M507.723 904.965 L524.042 904.965 L524.042 908.9 L502.098 908.9 L502.098 904.965 Q504.76 902.21 509.343 897.58 Q513.95 892.928 515.13 891.585 Q517.376 889.062 518.255 887.326 Q519.158 885.567 519.158 883.877 Q519.158 881.122 517.214 879.386 Q515.292 877.65 512.19 877.65 Q509.991 877.65 507.538 878.414 Q505.107 879.178 502.329 880.729 L502.329 876.007 Q505.153 874.872 507.607 874.294 Q510.061 873.715 512.098 873.715 Q517.468 873.715 520.663 876.4 Q523.857 879.085 523.857 883.576 Q523.857 885.706 523.047 887.627 Q522.26 889.525 520.153 892.118 Q519.575 892.789 516.473 896.006 Q513.371 899.201 507.723 904.965 Z" fill="#000000" fill-rule="nonzero" fill-opacity="1" /><path clip-path="url(#clip790)" d="M533.903 874.34 L552.26 874.34 L552.26 878.275 L538.186 878.275 L538.186 886.747 Q539.204 886.4 540.223 886.238 Q541.241 886.053 542.26 886.053 Q548.047 886.053 551.426 889.224 Q554.806 892.395 554.806 897.812 Q554.806 903.391 551.334 906.492 Q547.862 909.571 541.542 909.571 Q539.366 909.571 537.098 909.201 Q534.852 908.83 532.445 908.09 L532.445 903.391 Q534.528 904.525 536.75 905.08 Q538.973 905.636 541.45 905.636 Q545.454 905.636 547.792 903.53 Q550.13 901.423 550.13 897.812 Q550.13 894.201 547.792 892.094 Q545.454 889.988 541.45 889.988 Q539.575 889.988 537.7 890.405 Q535.848 890.821 533.903 891.701 L533.903 874.34 Z" fill="#000000" fill-rule="nonzero" fill-opacity="1" /><path clip-path="url(#clip790)" d="M737.32 877.419 Q733.709 877.419 731.88 880.983 Q730.075 884.525 730.075 891.655 Q730.075 898.761 731.88 902.326 Q733.709 905.867 737.32 905.867 Q740.954 905.867 742.76 902.326 Q744.589 898.761 744.589 891.655 Q744.589 884.525 742.76 880.983 Q740.954 877.419 737.32 877.419 M737.32 873.715 Q743.13 873.715 746.186 878.321 Q749.264 882.905 749.264 891.655 Q749.264 900.381 746.186 904.988 Q743.13 909.571 737.32 909.571 Q731.51 909.571 728.431 904.988 Q725.376 900.381 725.376 891.655 Q725.376 882.905 728.431 878.321 Q731.51 873.715 737.32 873.715 Z" fill="#000000" fill-rule="nonzero" fill-opacity="1" /><path clip-path="url(#clip790)" d="M757.482 903.02 L762.366 903.02 L762.366 908.9 L757.482 908.9 L757.482 903.02 Z" fill="#000000" fill-rule="nonzero" fill-opacity="1" /><path clip-path="url(#clip790)" d="M772.598 874.34 L790.954 874.34 L790.954 878.275 L776.88 878.275 L776.88 886.747 Q777.899 886.4 778.917 886.238 Q779.936 886.053 780.954 886.053 Q786.741 886.053 790.121 889.224 Q793.5 892.395 793.5 897.812 Q793.5 903.391 790.028 906.492 Q786.556 909.571 780.236 909.571 Q778.061 909.571 775.792 909.201 Q773.547 908.83 771.139 908.09 L771.139 903.391 Q773.223 904.525 775.445 905.08 Q777.667 905.636 780.144 905.636 Q784.149 905.636 786.486 903.53 Q788.824 901.423 788.824 897.812 Q788.824 894.201 786.486 892.094 Q784.149 889.988 780.144 889.988 Q778.269 889.988 776.394 890.405 Q774.542 890.821 772.598 891.701 L772.598 874.34 Z" fill="#000000" fill-rule="nonzero" fill-opacity="1" /><path clip-path="url(#clip790)" d="M812.713 877.419 Q809.102 877.419 807.273 880.983 Q805.468 884.525 805.468 891.655 Q805.468 898.761 807.273 902.326 Q809.102 905.867 812.713 905.867 Q816.347 905.867 818.153 902.326 Q819.982 898.761 819.982 891.655 Q819.982 884.525 818.153 880.983 Q816.347 877.419 812.713 877.419 M812.713 873.715 Q818.523 873.715 821.579 878.321 Q824.658 882.905 824.658 891.655 Q824.658 900.381 821.579 904.988 Q818.523 909.571 812.713 909.571 Q806.903 909.571 803.824 904.988 Q800.769 900.381 800.769 891.655 Q800.769 882.905 803.824 878.321 Q806.903 873.715 812.713 873.715 Z" fill="#000000" fill-rule="nonzero" fill-opacity="1" /><path clip-path="url(#clip790)" d="M1007.17 877.419 Q1003.56 877.419 1001.73 880.983 Q999.926 884.525 999.926 891.655 Q999.926 898.761 1001.73 902.326 Q1003.56 905.867 1007.17 905.867 Q1010.81 905.867 1012.61 902.326 Q1014.44 898.761 1014.44 891.655 Q1014.44 884.525 1012.61 880.983 Q1010.81 877.419 1007.17 877.419 M1007.17 873.715 Q1012.98 873.715 1016.04 878.321 Q1019.12 882.905 1019.12 891.655 Q1019.12 900.381 1016.04 904.988 Q1012.98 909.571 1007.17 909.571 Q1001.36 909.571 998.283 904.988 Q995.227 900.381 995.227 891.655 Q995.227 882.905 998.283 878.321 Q1001.36 873.715 1007.17 873.715 Z" fill="#000000" fill-rule="nonzero" fill-opacity="1" /><path clip-path="url(#clip790)" d="M1027.33 903.02 L1032.22 903.02 L1032.22 908.9 L1027.33 908.9 L1027.33 903.02 Z" fill="#000000" fill-rule="nonzero" fill-opacity="1" /><path clip-path="url(#clip790)" d="M1041.22 874.34 L1063.44 874.34 L1063.44 876.331 L1050.9 908.9 L1046.01 908.9 L1057.82 878.275 L1041.22 878.275 L1041.22 874.34 Z" fill="#000000" fill-rule="nonzero" fill-opacity="1" /><path clip-path="url(#clip790)" d="M1072.61 874.34 L1090.97 874.34 L1090.97 878.275 L1076.89 878.275 L1076.89 886.747 Q1077.91 886.4 1078.93 886.238 Q1079.95 886.053 1080.97 886.053 Q1086.75 886.053 1090.13 889.224 Q1093.51 892.395 1093.51 897.812 Q1093.51 903.391 1090.04 906.492 Q1086.57 909.571 1080.25 909.571 Q1078.07 909.571 1075.81 909.201 Q1073.56 908.83 1071.15 908.09 L1071.15 903.391 Q1073.24 904.525 1075.46 905.08 Q1077.68 905.636 1080.16 905.636 Q1084.16 905.636 1086.5 903.53 Q1088.84 901.423 1088.84 897.812 Q1088.84 894.201 1086.5 892.094 Q1084.16 889.988 1080.16 889.988 Q1078.28 889.988 1076.41 890.405 Q1074.56 890.821 1072.61 891.701 L1072.61 874.34 Z" fill="#000000" fill-rule="nonzero" fill-opacity="1" /><path clip-path="url(#clip790)" d="M1265.8 904.965 L1273.44 904.965 L1273.44 878.599 L1265.13 880.266 L1265.13 876.007 L1273.39 874.34 L1278.06 874.34 L1278.06 904.965 L1285.7 904.965 L1285.7 908.9 L1265.8 908.9 L1265.8 904.965 Z" fill="#000000" fill-rule="nonzero" fill-opacity="1" /><path clip-path="url(#clip790)" d="M1295.15 903.02 L1300.03 903.02 L1300.03 908.9 L1295.15 908.9 L1295.15 903.02 Z" fill="#000000" fill-rule="nonzero" fill-opacity="1" /><path clip-path="url(#clip790)" d="M1320.22 877.419 Q1316.61 877.419 1314.78 880.983 Q1312.97 884.525 1312.97 891.655 Q1312.97 898.761 1314.78 902.326 Q1316.61 905.867 1320.22 905.867 Q1323.85 905.867 1325.66 902.326 Q1327.49 898.761 1327.49 891.655 Q1327.49 884.525 1325.66 880.983 Q1323.85 877.419 1320.22 877.419 M1320.22 873.715 Q1326.03 873.715 1329.08 878.321 Q1332.16 882.905 1332.16 891.655 Q1332.16 900.381 1329.08 904.988 Q1326.03 909.571 1320.22 909.571 Q1314.41 909.571 1311.33 904.988 Q1308.27 900.381 1308.27 891.655 Q1308.27 882.905 1311.33 878.321 Q1314.41 873.715 1320.22 873.715 Z" fill="#000000" fill-rule="nonzero" fill-opacity="1" /><path clip-path="url(#clip790)" d="M1350.38 877.419 Q1346.77 877.419 1344.94 880.983 Q1343.13 884.525 1343.13 891.655 Q1343.13 898.761 1344.94 902.326 Q1346.77 905.867 1350.38 905.867 Q1354.01 905.867 1355.82 902.326 Q1357.65 898.761 1357.65 891.655 Q1357.65 884.525 1355.82 880.983 Q1354.01 877.419 1350.38 877.419 M1350.38 873.715 Q1356.19 873.715 1359.25 878.321 Q1362.32 882.905 1362.32 891.655 Q1362.32 900.381 1359.25 904.988 Q1356.19 909.571 1350.38 909.571 Q1344.57 909.571 1341.49 904.988 Q1338.43 900.381 1338.43 891.655 Q1338.43 882.905 1341.49 878.321 Q1344.57 873.715 1350.38 873.715 Z" fill="#000000" fill-rule="nonzero" fill-opacity="1" /><path clip-path="url(#clip790)" d="M783.488 952.439 Q783.488 953.341 783.069 953.567 Q782.651 953.76 781.491 953.76 L775.308 953.76 L770.412 973.212 Q770.026 974.919 770.026 976.368 Q770.026 977.979 770.509 978.687 Q771.024 979.396 772.087 979.396 Q774.181 979.396 776.435 977.496 Q778.722 975.595 780.654 970.958 Q780.912 970.346 781.04 970.217 Q781.201 970.056 781.62 970.056 Q782.425 970.056 782.425 970.7 Q782.425 970.926 781.974 971.956 Q781.556 972.987 780.622 974.5 Q779.72 976.014 778.528 977.431 Q777.369 978.848 775.598 979.879 Q773.826 980.877 771.926 980.877 Q769.253 980.877 767.546 979.17 Q765.871 977.463 765.871 974.79 Q765.871 973.921 766.548 971.151 Q767.224 968.349 770.896 953.76 L765.066 953.76 Q764.261 953.76 763.939 953.728 Q763.649 953.695 763.424 953.534 Q763.231 953.341 763.231 952.955 Q763.231 952.343 763.488 952.085 Q763.746 951.795 764.068 951.763 Q764.422 951.699 765.227 951.699 L771.411 951.699 L773.987 941.232 Q774.245 940.201 774.889 939.622 Q775.565 939.01 775.952 938.945 Q776.338 938.849 776.628 938.849 Q777.498 938.849 778.013 939.332 Q778.528 939.783 778.528 940.62 Q778.528 941.071 775.823 951.699 L781.62 951.699 Q782.361 951.699 782.651 951.731 Q782.973 951.763 783.23 951.924 Q783.488 952.085 783.488 952.439 Z" fill="#000000" fill-rule="nonzero" fill-opacity="1" /><polyline clip-path="url(#clip790)" style="stroke:#000000; stroke-linecap:round; stroke-linejoin:round; stroke-width:4; stroke-opacity:1; fill:none" points="203.986,849.7 203.986,47.2441 "/>
<polyline clip-path="url(#clip790)" style="stroke:#000000; stroke-linecap:round; stroke-linejoin:round; stroke-width:4; stroke-opacity:1; fill:none" points="203.986,827.515 216.328,827.515 "/>
<polyline clip-path="url(#clip790)" style="stroke:#000000; stroke-linecap:round; stroke-linejoin:round; stroke-width:4; stroke-opacity:1; fill:none" points="203.986,709.914 216.328,709.914 "/>
<polyline clip-path="url(#clip790)" style="stroke:#000000; stroke-linecap:round; stroke-linejoin:round; stroke-width:4; stroke-opacity:1; fill:none" points="203.986,592.313 216.328,592.313 "/>
<polyline clip-path="url(#clip790)" style="stroke:#000000; stroke-linecap:round; stroke-linejoin:round; stroke-width:4; stroke-opacity:1; fill:none" points="203.986,474.711 216.328,474.711 "/>
<polyline clip-path="url(#clip790)" style="stroke:#000000; stroke-linecap:round; stroke-linejoin:round; stroke-width:4; stroke-opacity:1; fill:none" points="203.986,357.11 216.328,357.11 "/>
<polyline clip-path="url(#clip790)" style="stroke:#000000; stroke-linecap:round; stroke-linejoin:round; stroke-width:4; stroke-opacity:1; fill:none" points="203.986,239.509 216.328,239.509 "/>
<polyline clip-path="url(#clip790)" style="stroke:#000000; stroke-linecap:round; stroke-linejoin:round; stroke-width:4; stroke-opacity:1; fill:none" points="203.986,121.908 216.328,121.908 "/>
<path clip-path="url(#clip790)" d="M116.811 813.314 Q113.2 813.314 111.371 816.879 Q109.565 820.421 109.565 827.55 Q109.565 834.657 111.371 838.221 Q113.2 841.763 116.811 841.763 Q120.445 841.763 122.25 838.221 Q124.079 834.657 124.079 827.55 Q124.079 820.421 122.25 816.879 Q120.445 813.314 116.811 813.314 M116.811 809.61 Q122.621 809.61 125.676 814.217 Q128.755 818.8 128.755 827.55 Q128.755 836.277 125.676 840.883 Q122.621 845.467 116.811 845.467 Q111 845.467 107.922 840.883 Q104.866 836.277 104.866 827.55 Q104.866 818.8 107.922 814.217 Q111 809.61 116.811 809.61 Z" fill="#000000" fill-rule="nonzero" fill-opacity="1" /><path clip-path="url(#clip790)" d="M136.973 838.916 L141.857 838.916 L141.857 844.795 L136.973 844.795 L136.973 838.916 Z" fill="#000000" fill-rule="nonzero" fill-opacity="1" /><path clip-path="url(#clip790)" d="M162.042 813.314 Q158.431 813.314 156.602 816.879 Q154.797 820.421 154.797 827.55 Q154.797 834.657 156.602 838.221 Q158.431 841.763 162.042 841.763 Q165.676 841.763 167.482 838.221 Q169.31 834.657 169.31 827.55 Q169.31 820.421 167.482 816.879 Q165.676 813.314 162.042 813.314 M162.042 809.61 Q167.852 809.61 170.908 814.217 Q173.986 818.8 173.986 827.55 Q173.986 836.277 170.908 840.883 Q167.852 845.467 162.042 845.467 Q156.232 845.467 153.153 840.883 Q150.098 836.277 150.098 827.55 Q150.098 818.8 153.153 814.217 Q156.232 809.61 162.042 809.61 Z" fill="#000000" fill-rule="nonzero" fill-opacity="1" /><path clip-path="url(#clip790)" d="M118.037 695.713 Q114.426 695.713 112.598 699.278 Q110.792 702.819 110.792 709.949 Q110.792 717.055 112.598 720.62 Q114.426 724.162 118.037 724.162 Q121.672 724.162 123.477 720.62 Q125.306 717.055 125.306 709.949 Q125.306 702.819 123.477 699.278 Q121.672 695.713 118.037 695.713 M118.037 692.009 Q123.848 692.009 126.903 696.616 Q129.982 701.199 129.982 709.949 Q129.982 718.676 126.903 723.282 Q123.848 727.865 118.037 727.865 Q112.227 727.865 109.149 723.282 Q106.093 718.676 106.093 709.949 Q106.093 701.199 109.149 696.616 Q112.227 692.009 118.037 692.009 Z" fill="#000000" fill-rule="nonzero" fill-opacity="1" /><path clip-path="url(#clip790)" d="M138.199 721.315 L143.084 721.315 L143.084 727.194 L138.199 727.194 L138.199 721.315 Z" fill="#000000" fill-rule="nonzero" fill-opacity="1" /><path clip-path="url(#clip790)" d="M154.079 723.259 L161.718 723.259 L161.718 696.893 L153.408 698.56 L153.408 694.301 L161.672 692.634 L166.347 692.634 L166.347 723.259 L173.986 723.259 L173.986 727.194 L154.079 727.194 L154.079 723.259 Z" fill="#000000" fill-rule="nonzero" fill-opacity="1" /><path clip-path="url(#clip790)" d="M118.408 578.112 Q114.797 578.112 112.968 581.676 Q111.163 585.218 111.163 592.348 Q111.163 599.454 112.968 603.019 Q114.797 606.56 118.408 606.56 Q122.042 606.56 123.848 603.019 Q125.676 599.454 125.676 592.348 Q125.676 585.218 123.848 581.676 Q122.042 578.112 118.408 578.112 M118.408 574.408 Q124.218 574.408 127.274 579.014 Q130.352 583.598 130.352 592.348 Q130.352 601.074 127.274 605.681 Q124.218 610.264 118.408 610.264 Q112.598 610.264 109.519 605.681 Q106.463 601.074 106.463 592.348 Q106.463 583.598 109.519 579.014 Q112.598 574.408 118.408 574.408 Z" fill="#000000" fill-rule="nonzero" fill-opacity="1" /><path clip-path="url(#clip790)" d="M138.57 603.713 L143.454 603.713 L143.454 609.593 L138.57 609.593 L138.57 603.713 Z" fill="#000000" fill-rule="nonzero" fill-opacity="1" /><path clip-path="url(#clip790)" d="M157.667 605.658 L173.986 605.658 L173.986 609.593 L152.042 609.593 L152.042 605.658 Q154.704 602.903 159.287 598.273 Q163.894 593.621 165.074 592.278 Q167.32 589.755 168.199 588.019 Q169.102 586.26 169.102 584.57 Q169.102 581.815 167.158 580.079 Q165.236 578.343 162.134 578.343 Q159.935 578.343 157.482 579.107 Q155.051 579.871 152.273 581.422 L152.273 576.699 Q155.097 575.565 157.551 574.987 Q160.005 574.408 162.042 574.408 Q167.412 574.408 170.607 577.093 Q173.801 579.778 173.801 584.269 Q173.801 586.399 172.991 588.32 Q172.204 590.218 170.097 592.811 Q169.519 593.482 166.417 596.699 Q163.315 599.894 157.667 605.658 Z" fill="#000000" fill-rule="nonzero" fill-opacity="1" /><path clip-path="url(#clip790)" d="M117.459 460.51 Q113.848 460.51 112.019 464.075 Q110.213 467.617 110.213 474.746 Q110.213 481.853 112.019 485.417 Q113.848 488.959 117.459 488.959 Q121.093 488.959 122.899 485.417 Q124.727 481.853 124.727 474.746 Q124.727 467.617 122.899 464.075 Q121.093 460.51 117.459 460.51 M117.459 456.806 Q123.269 456.806 126.324 461.413 Q129.403 465.996 129.403 474.746 Q129.403 483.473 126.324 488.079 Q123.269 492.663 117.459 492.663 Q111.649 492.663 108.57 488.079 Q105.514 483.473 105.514 474.746 Q105.514 465.996 108.57 461.413 Q111.649 456.806 117.459 456.806 Z" fill="#000000" fill-rule="nonzero" fill-opacity="1" /><path clip-path="url(#clip790)" d="M137.621 486.112 L142.505 486.112 L142.505 491.991 L137.621 491.991 L137.621 486.112 Z" fill="#000000" fill-rule="nonzero" fill-opacity="1" /><path clip-path="url(#clip790)" d="M166.857 473.357 Q170.213 474.075 172.088 476.343 Q173.986 478.612 173.986 481.945 Q173.986 487.061 170.468 489.862 Q166.949 492.663 160.468 492.663 Q158.292 492.663 155.977 492.223 Q153.685 491.806 151.232 490.95 L151.232 486.436 Q153.176 487.57 155.491 488.149 Q157.806 488.728 160.329 488.728 Q164.727 488.728 167.019 486.992 Q169.334 485.255 169.334 481.945 Q169.334 478.89 167.181 477.177 Q165.051 475.441 161.232 475.441 L157.204 475.441 L157.204 471.598 L161.417 471.598 Q164.866 471.598 166.695 470.232 Q168.523 468.843 168.523 466.251 Q168.523 463.589 166.625 462.177 Q164.75 460.742 161.232 460.742 Q159.31 460.742 157.111 461.158 Q154.912 461.575 152.273 462.455 L152.273 458.288 Q154.935 457.547 157.25 457.177 Q159.588 456.806 161.648 456.806 Q166.972 456.806 170.074 459.237 Q173.176 461.644 173.176 465.765 Q173.176 468.635 171.533 470.626 Q169.889 472.593 166.857 473.357 Z" fill="#000000" fill-rule="nonzero" fill-opacity="1" /><path clip-path="url(#clip790)" d="M116.325 342.909 Q112.713 342.909 110.885 346.474 Q109.079 350.015 109.079 357.145 Q109.079 364.251 110.885 367.816 Q112.713 371.358 116.325 371.358 Q119.959 371.358 121.764 367.816 Q123.593 364.251 123.593 357.145 Q123.593 350.015 121.764 346.474 Q119.959 342.909 116.325 342.909 M116.325 339.205 Q122.135 339.205 125.19 343.812 Q128.269 348.395 128.269 357.145 Q128.269 365.872 125.19 370.478 Q122.135 375.061 116.325 375.061 Q110.514 375.061 107.436 370.478 Q104.38 365.872 104.38 357.145 Q104.38 348.395 107.436 343.812 Q110.514 339.205 116.325 339.205 Z" fill="#000000" fill-rule="nonzero" fill-opacity="1" /><path clip-path="url(#clip790)" d="M136.486 368.511 L141.371 368.511 L141.371 374.39 L136.486 374.39 L136.486 368.511 Z" fill="#000000" fill-rule="nonzero" fill-opacity="1" /><path clip-path="url(#clip790)" d="M164.403 343.904 L152.597 362.353 L164.403 362.353 L164.403 343.904 M163.176 339.83 L169.056 339.83 L169.056 362.353 L173.986 362.353 L173.986 366.242 L169.056 366.242 L169.056 374.39 L164.403 374.39 L164.403 366.242 L148.801 366.242 L148.801 361.728 L163.176 339.83 Z" fill="#000000" fill-rule="nonzero" fill-opacity="1" /><path clip-path="url(#clip790)" d="M117.806 225.308 Q114.195 225.308 112.366 228.872 Q110.561 232.414 110.561 239.544 Q110.561 246.65 112.366 250.215 Q114.195 253.756 117.806 253.756 Q121.44 253.756 123.246 250.215 Q125.074 246.65 125.074 239.544 Q125.074 232.414 123.246 228.872 Q121.44 225.308 117.806 225.308 M117.806 221.604 Q123.616 221.604 126.672 226.21 Q129.75 230.794 129.75 239.544 Q129.75 248.27 126.672 252.877 Q123.616 257.46 117.806 257.46 Q111.996 257.46 108.917 252.877 Q105.862 248.27 105.862 239.544 Q105.862 230.794 108.917 226.21 Q111.996 221.604 117.806 221.604 Z" fill="#000000" fill-rule="nonzero" fill-opacity="1" /><path clip-path="url(#clip790)" d="M137.968 250.909 L142.852 250.909 L142.852 256.789 L137.968 256.789 L137.968 250.909 Z" fill="#000000" fill-rule="nonzero" fill-opacity="1" /><path clip-path="url(#clip790)" d="M153.084 222.229 L171.44 222.229 L171.44 226.164 L157.366 226.164 L157.366 234.636 Q158.384 234.289 159.403 234.127 Q160.422 233.942 161.44 233.942 Q167.227 233.942 170.607 237.113 Q173.986 240.284 173.986 245.701 Q173.986 251.28 170.514 254.381 Q167.042 257.46 160.722 257.46 Q158.547 257.46 156.278 257.09 Q154.033 256.719 151.625 255.979 L151.625 251.28 Q153.709 252.414 155.931 252.969 Q158.153 253.525 160.63 253.525 Q164.634 253.525 166.972 251.418 Q169.31 249.312 169.31 245.701 Q169.31 242.09 166.972 239.983 Q164.634 237.877 160.63 237.877 Q158.755 237.877 156.88 238.294 Q155.028 238.71 153.084 239.59 L153.084 222.229 Z" fill="#000000" fill-rule="nonzero" fill-opacity="1" /><path clip-path="url(#clip790)" d="M116.649 107.706 Q113.038 107.706 111.209 111.271 Q109.403 114.813 109.403 121.942 Q109.403 129.049 111.209 132.613 Q113.038 136.155 116.649 136.155 Q120.283 136.155 122.088 132.613 Q123.917 129.049 123.917 121.942 Q123.917 114.813 122.088 111.271 Q120.283 107.706 116.649 107.706 M116.649 104.003 Q122.459 104.003 125.514 108.609 Q128.593 113.192 128.593 121.942 Q128.593 130.669 125.514 135.275 Q122.459 139.859 116.649 139.859 Q110.838 139.859 107.76 135.275 Q104.704 130.669 104.704 121.942 Q104.704 113.192 107.76 108.609 Q110.838 104.003 116.649 104.003 Z" fill="#000000" fill-rule="nonzero" fill-opacity="1" /><path clip-path="url(#clip790)" d="M136.811 133.308 L141.695 133.308 L141.695 139.188 L136.811 139.188 L136.811 133.308 Z" fill="#000000" fill-rule="nonzero" fill-opacity="1" /><path clip-path="url(#clip790)" d="M162.459 120.044 Q159.31 120.044 157.459 122.197 Q155.63 124.35 155.63 128.1 Q155.63 131.826 157.459 134.002 Q159.31 136.155 162.459 136.155 Q165.607 136.155 167.435 134.002 Q169.287 131.826 169.287 128.1 Q169.287 124.35 167.435 122.197 Q165.607 120.044 162.459 120.044 M171.741 105.391 L171.741 109.651 Q169.982 108.817 168.176 108.377 Q166.394 107.938 164.634 107.938 Q160.005 107.938 157.551 111.063 Q155.121 114.188 154.773 120.507 Q156.139 118.493 158.199 117.428 Q160.259 116.34 162.736 116.34 Q167.945 116.34 170.954 119.512 Q173.986 122.66 173.986 128.1 Q173.986 133.424 170.838 136.641 Q167.69 139.859 162.459 139.859 Q156.463 139.859 153.292 135.275 Q150.121 130.669 150.121 121.942 Q150.121 113.748 154.01 108.887 Q157.898 104.003 164.449 104.003 Q166.209 104.003 167.991 104.35 Q169.796 104.697 171.741 105.391 Z" fill="#000000" fill-rule="nonzero" fill-opacity="1" /><path clip-path="url(#clip790)" d="M15.6339 444.976 L30.0621 448.551 Q30.9317 448.744 31.1571 448.905 Q31.3825 449.066 31.3825 449.517 Q31.3825 449.872 31.2215 450.097 Q31.0605 450.29 30.8995 450.29 L30.7384 450.322 Q30.6418 450.322 30.1587 450.258 Q29.6434 450.194 28.8061 450.129 Q27.9687 450.065 27.0348 450.065 Q21.753 450.065 19.3053 452.641 Q16.8255 455.186 16.8255 459.566 Q16.8255 462.593 18.4358 465.298 Q20.0461 468.003 22.5903 469.549 Q25.1024 471.095 27.7433 471.095 Q30.1587 471.095 31.7046 469.871 Q33.2505 468.648 33.7658 467.069 L34.9574 462.657 Q36.149 458.02 36.6643 456.699 Q37.1474 455.379 38.2424 454.284 Q41.2697 451.031 45.9718 451.031 Q50.0297 451.031 53.9589 453.318 Q57.8558 455.604 60.4 459.533 Q62.9121 463.462 62.9121 467.81 Q62.9121 475.443 58.1778 478.953 L61.9137 482.174 Q62.6222 482.786 62.7511 482.979 Q62.9121 483.14 62.9121 483.366 Q62.9121 483.655 62.7188 483.881 Q62.5578 484.106 62.268 484.106 Q62.0425 484.106 54.4741 482.206 Q46.9058 480.306 46.7447 480.145 Q46.4871 479.887 46.4871 479.469 Q46.4871 478.696 47.2278 478.696 Q47.4211 478.76 47.6787 478.825 Q49.9975 479.211 51.2536 479.211 Q53.6046 479.211 55.4081 478.406 Q57.1794 477.601 58.21 476.409 Q59.2084 475.185 59.8525 473.543 Q60.4644 471.9 60.6899 470.515 Q60.8831 469.131 60.8831 467.681 Q60.8831 464.557 59.0796 461.788 Q57.2761 458.986 54.4741 457.408 Q51.6722 455.797 48.7415 455.797 Q47.1956 455.797 46.004 456.216 Q44.7802 456.635 44.1039 457.214 Q43.4275 457.762 42.9122 458.696 Q42.3969 459.63 42.2037 460.274 Q41.9783 460.886 41.7528 461.852 L39.8849 468.905 Q39.0475 471.739 36.6321 473.768 Q34.2167 475.765 30.513 475.765 Q26.6161 475.765 23.009 473.478 Q19.3698 471.16 17.1798 467.392 Q14.9576 463.591 14.9576 459.501 Q14.9576 456.281 16.2136 453.801 Q17.4374 451.321 19.724 450.065 L15.9559 446.876 Q15.2152 446.232 15.0864 446.103 Q14.9576 445.942 14.9576 445.717 Q14.9576 445.331 15.183 445.169 Q15.4084 444.976 15.6339 444.976 Z" fill="#000000" fill-rule="nonzero" fill-opacity="1" /><path clip-path="url(#clip790)" d="M57.0423 419.695 Q57.5157 419.695 57.899 420.101 Q58.2822 420.484 58.2822 420.957 Q58.2822 421.228 57.8314 421.882 Q56.5238 423.753 56.5238 426.12 Q56.5238 428.239 57.0423 430.2 Q57.5608 432.162 58.6204 433.492 Q59.6574 434.799 61.0101 434.799 Q62.7009 434.799 63.6928 432.951 Q62.8136 431.035 62.8136 428.667 Q62.8136 427.901 62.8587 427.382 Q62.9038 426.841 63.0165 426.323 Q63.1292 425.804 63.3997 425.556 Q63.6477 425.286 64.0535 425.286 Q65.4964 425.286 65.4964 429.028 Q65.4964 431.463 64.8426 432.996 Q65.812 434.957 67.3675 436.039 Q68.9231 437.122 70.2532 437.122 Q71.4029 437.122 72.237 436.49 Q73.0712 435.837 73.477 434.777 Q73.8828 433.695 74.0631 432.635 Q74.2209 431.553 74.2209 430.358 Q74.2209 428.397 73.9729 427.022 Q73.7024 425.624 73.2064 424.858 Q72.7105 424.068 72.3723 423.753 Q72.0116 423.415 71.448 423.077 Q71.1324 422.874 71.1324 422.603 Q71.1324 422.4 71.2676 422.265 Q71.3804 422.107 71.5833 422.107 Q71.8312 422.107 72.3498 422.423 Q72.8683 422.716 73.5671 423.437 Q74.2435 424.136 74.8747 425.106 Q75.4834 426.052 75.9117 427.563 Q76.3401 429.073 76.3401 430.787 Q76.3401 434.281 74.6267 436.31 Q72.9134 438.316 70.5237 438.316 Q68.8554 438.316 67.1421 437.212 Q65.4062 436.085 64.3015 434.101 Q62.9263 435.949 61.0101 435.949 Q59.2967 435.949 57.7637 434.506 Q56.2307 433.041 55.329 430.674 Q54.4047 428.284 54.4047 425.669 Q54.4047 424.204 54.9006 422.761 Q55.374 421.318 55.9827 420.507 Q56.5914 419.695 57.0423 419.695 M64.0986 426.481 Q63.8281 427.473 63.8281 428.667 Q63.8281 430.291 64.2339 431.486 Q64.4819 430.516 64.4819 429.028 Q64.4819 427.788 64.4142 427.428 Q64.3466 427.044 64.0986 426.481 Z" fill="#000000" fill-rule="nonzero" fill-opacity="1" /><polyline clip-path="url(#clip792)" style="stroke:#377db8; stroke-linecap:round; stroke-linejoin:round; stroke-width:4; stroke-opacity:1; fill:none" points="236.309,826.253 281.201,826.73 326.093,826.989 370.986,826.651 415.878,825.03 460.77,821.008 505.663,812.982 550.555,799.139 595.447,778.391 640.34,751.919 685.232,724.259 730.124,703.412 775.017,697.29 819.909,707.8 864.801,731.647 909.694,759.676 954.586,784.264 999.478,802.456 1044.37,814.219 1089.26,820.984 1134.16,824.427 1179.05,825.878 1223.94,826.232 1268.83,826.035 1313.72,825.596 "/>
<circle clip-path="url(#clip792)" cx="236.309" cy="826.253" r="14.4" fill="#377db8" fill-rule="evenodd" fill-opacity="1" stroke="none"/>
<circle clip-path="url(#clip792)" cx="281.201" cy="826.73" r="14.4" fill="#377db8" fill-rule="evenodd" fill-opacity="1" stroke="none"/>
<circle clip-path="url(#clip792)" cx="326.093" cy="826.989" r="14.4" fill="#377db8" fill-rule="evenodd" fill-opacity="1" stroke="none"/>
<circle clip-path="url(#clip792)" cx="370.986" cy="826.651" r="14.4" fill="#377db8" fill-rule="evenodd" fill-opacity="1" stroke="none"/>
<circle clip-path="url(#clip792)" cx="415.878" cy="825.03" r="14.4" fill="#377db8" fill-rule="evenodd" fill-opacity="1" stroke="none"/>
<circle clip-path="url(#clip792)" cx="460.77" cy="821.008" r="14.4" fill="#377db8" fill-rule="evenodd" fill-opacity="1" stroke="none"/>
<circle clip-path="url(#clip792)" cx="505.663" cy="812.982" r="14.4" fill="#377db8" fill-rule="evenodd" fill-opacity="1" stroke="none"/>
<circle clip-path="url(#clip792)" cx="550.555" cy="799.139" r="14.4" fill="#377db8" fill-rule="evenodd" fill-opacity="1" stroke="none"/>
<circle clip-path="url(#clip792)" cx="595.447" cy="778.391" r="14.4" fill="#377db8" fill-rule="evenodd" fill-opacity="1" stroke="none"/>
<circle clip-path="url(#clip792)" cx="640.34" cy="751.919" r="14.4" fill="#377db8" fill-rule="evenodd" fill-opacity="1" stroke="none"/>
<circle clip-path="url(#clip792)" cx="685.232" cy="724.259" r="14.4" fill="#377db8" fill-rule="evenodd" fill-opacity="1" stroke="none"/>
<circle clip-path="url(#clip792)" cx="730.124" cy="703.412" r="14.4" fill="#377db8" fill-rule="evenodd" fill-opacity="1" stroke="none"/>
<circle clip-path="url(#clip792)" cx="775.017" cy="697.29" r="14.4" fill="#377db8" fill-rule="evenodd" fill-opacity="1" stroke="none"/>
<circle clip-path="url(#clip792)" cx="819.909" cy="707.8" r="14.4" fill="#377db8" fill-rule="evenodd" fill-opacity="1" stroke="none"/>
<circle clip-path="url(#clip792)" cx="864.801" cy="731.647" r="14.4" fill="#377db8" fill-rule="evenodd" fill-opacity="1" stroke="none"/>
<circle clip-path="url(#clip792)" cx="909.694" cy="759.676" r="14.4" fill="#377db8" fill-rule="evenodd" fill-opacity="1" stroke="none"/>
<circle clip-path="url(#clip792)" cx="954.586" cy="784.264" r="14.4" fill="#377db8" fill-rule="evenodd" fill-opacity="1" stroke="none"/>
<circle clip-path="url(#clip792)" cx="999.478" cy="802.456" r="14.4" fill="#377db8" fill-rule="evenodd" fill-opacity="1" stroke="none"/>
<circle clip-path="url(#clip792)" cx="1044.37" cy="814.219" r="14.4" fill="#377db8" fill-rule="evenodd" fill-opacity="1" stroke="none"/>
<circle clip-path="url(#clip792)" cx="1089.26" cy="820.984" r="14.4" fill="#377db8" fill-rule="evenodd" fill-opacity="1" stroke="none"/>
<circle clip-path="url(#clip792)" cx="1134.16" cy="824.427" r="14.4" fill="#377db8" fill-rule="evenodd" fill-opacity="1" stroke="none"/>
<circle clip-path="url(#clip792)" cx="1179.05" cy="825.878" r="14.4" fill="#377db8" fill-rule="evenodd" fill-opacity="1" stroke="none"/>
<circle clip-path="url(#clip792)" cx="1223.94" cy="826.232" r="14.4" fill="#377db8" fill-rule="evenodd" fill-opacity="1" stroke="none"/>
<circle clip-path="url(#clip792)" cx="1268.83" cy="826.035" r="14.4" fill="#377db8" fill-rule="evenodd" fill-opacity="1" stroke="none"/>
<circle clip-path="url(#clip792)" cx="1313.72" cy="825.596" r="14.4" fill="#377db8" fill-rule="evenodd" fill-opacity="1" stroke="none"/>
<polyline clip-path="url(#clip792)" style="stroke:#e31a1c; stroke-linecap:round; stroke-linejoin:round; stroke-width:4; stroke-opacity:1; fill:none" points="236.309,815 281.201,817.306 326.093,818.492 370.986,816.131 415.878,805.677 460.77,779.635 505.663,727.544 550.555,638.696 595.447,509.778 640.34,355.284 685.232,208.937 730.124,107.003 775.017,69.9551 819.909,102.757 864.801,200.68 909.694,344.038 954.586,497.416 999.478,627.196 1044.37,718.273 1089.26,773.182 1134.16,802.042 1179.05,814.975 1223.94,819.336 1268.83,819.651 1313.72,818.389 "/>
<circle clip-path="url(#clip792)" cx="236.309" cy="815" r="14.4" fill="#e31a1c" fill-rule="evenodd" fill-opacity="1" stroke="none"/>
<circle clip-path="url(#clip792)" cx="281.201" cy="817.306" r="14.4" fill="#e31a1c" fill-rule="evenodd" fill-opacity="1" stroke="none"/>
<circle clip-path="url(#clip792)" cx="326.093" cy="818.492" r="14.4" fill="#e31a1c" fill-rule="evenodd" fill-opacity="1" stroke="none"/>
<circle clip-path="url(#clip792)" cx="370.986" cy="816.131" r="14.4" fill="#e31a1c" fill-rule="evenodd" fill-opacity="1" stroke="none"/>
<circle clip-path="url(#clip792)" cx="415.878" cy="805.677" r="14.4" fill="#e31a1c" fill-rule="evenodd" fill-opacity="1" stroke="none"/>
<circle clip-path="url(#clip792)" cx="460.77" cy="779.635" r="14.4" fill="#e31a1c" fill-rule="evenodd" fill-opacity="1" stroke="none"/>
<circle clip-path="url(#clip792)" cx="505.663" cy="727.544" r="14.4" fill="#e31a1c" fill-rule="evenodd" fill-opacity="1" stroke="none"/>
<circle clip-path="url(#clip792)" cx="550.555" cy="638.696" r="14.4" fill="#e31a1c" fill-rule="evenodd" fill-opacity="1" stroke="none"/>
<circle clip-path="url(#clip792)" cx="595.447" cy="509.778" r="14.4" fill="#e31a1c" fill-rule="evenodd" fill-opacity="1" stroke="none"/>
<circle clip-path="url(#clip792)" cx="640.34" cy="355.284" r="14.4" fill="#e31a1c" fill-rule="evenodd" fill-opacity="1" stroke="none"/>
<circle clip-path="url(#clip792)" cx="685.232" cy="208.937" r="14.4" fill="#e31a1c" fill-rule="evenodd" fill-opacity="1" stroke="none"/>
<circle clip-path="url(#clip792)" cx="730.124" cy="107.003" r="14.4" fill="#e31a1c" fill-rule="evenodd" fill-opacity="1" stroke="none"/>
<circle clip-path="url(#clip792)" cx="775.017" cy="69.9551" r="14.4" fill="#e31a1c" fill-rule="evenodd" fill-opacity="1" stroke="none"/>
<circle clip-path="url(#clip792)" cx="819.909" cy="102.757" r="14.4" fill="#e31a1c" fill-rule="evenodd" fill-opacity="1" stroke="none"/>
<circle clip-path="url(#clip792)" cx="864.801" cy="200.68" r="14.4" fill="#e31a1c" fill-rule="evenodd" fill-opacity="1" stroke="none"/>
<circle clip-path="url(#clip792)" cx="909.694" cy="344.038" r="14.4" fill="#e31a1c" fill-rule="evenodd" fill-opacity="1" stroke="none"/>
<circle clip-path="url(#clip792)" cx="954.586" cy="497.416" r="14.4" fill="#e31a1c" fill-rule="evenodd" fill-opacity="1" stroke="none"/>
<circle clip-path="url(#clip792)" cx="999.478" cy="627.196" r="14.4" fill="#e31a1c" fill-rule="evenodd" fill-opacity="1" stroke="none"/>
<circle clip-path="url(#clip792)" cx="1044.37" cy="718.273" r="14.4" fill="#e31a1c" fill-rule="evenodd" fill-opacity="1" stroke="none"/>
<circle clip-path="url(#clip792)" cx="1089.26" cy="773.182" r="14.4" fill="#e31a1c" fill-rule="evenodd" fill-opacity="1" stroke="none"/>
<circle clip-path="url(#clip792)" cx="1134.16" cy="802.042" r="14.4" fill="#e31a1c" fill-rule="evenodd" fill-opacity="1" stroke="none"/>
<circle clip-path="url(#clip792)" cx="1179.05" cy="814.975" r="14.4" fill="#e31a1c" fill-rule="evenodd" fill-opacity="1" stroke="none"/>
<circle clip-path="url(#clip792)" cx="1223.94" cy="819.336" r="14.4" fill="#e31a1c" fill-rule="evenodd" fill-opacity="1" stroke="none"/>
<circle clip-path="url(#clip792)" cx="1268.83" cy="819.651" r="14.4" fill="#e31a1c" fill-rule="evenodd" fill-opacity="1" stroke="none"/>
<circle clip-path="url(#clip792)" cx="1313.72" cy="818.389" r="14.4" fill="#e31a1c" fill-rule="evenodd" fill-opacity="1" stroke="none"/>
<polyline clip-path="url(#clip792)" style="stroke:#ff7e00; stroke-linecap:round; stroke-linejoin:round; stroke-width:4; stroke-opacity:1; fill:none" points="236.309,800.866 281.201,792.844 326.093,782.259 370.986,767.954 415.878,748.079 460.77,719.938 505.663,680.372 550.555,627.622 595.447,565.285 640.34,505.601 685.232,464.456 730.124,447.279 775.017,444.689 819.909,449.177 864.801,467.85 909.694,509.821 954.586,569.639 999.478,631.615 1044.37,683.764 1089.26,722.689 1134.16,750.26 1179.05,769.689 1223.94,783.679 1268.83,794.062 1313.72,801.97 "/>
<circle clip-path="url(#clip792)" cx="236.309" cy="800.866" r="14.4" fill="#ff7e00" fill-rule="evenodd" fill-opacity="1" stroke="none"/>
<circle clip-path="url(#clip792)" cx="281.201" cy="792.844" r="14.4" fill="#ff7e00" fill-rule="evenodd" fill-opacity="1" stroke="none"/>
<circle clip-path="url(#clip792)" cx="326.093" cy="782.259" r="14.4" fill="#ff7e00" fill-rule="evenodd" fill-opacity="1" stroke="none"/>
<circle clip-path="url(#clip792)" cx="370.986" cy="767.954" r="14.4" fill="#ff7e00" fill-rule="evenodd" fill-opacity="1" stroke="none"/>
<circle clip-path="url(#clip792)" cx="415.878" cy="748.079" r="14.4" fill="#ff7e00" fill-rule="evenodd" fill-opacity="1" stroke="none"/>
<circle clip-path="url(#clip792)" cx="460.77" cy="719.938" r="14.4" fill="#ff7e00" fill-rule="evenodd" fill-opacity="1" stroke="none"/>
<circle clip-path="url(#clip792)" cx="505.663" cy="680.372" r="14.4" fill="#ff7e00" fill-rule="evenodd" fill-opacity="1" stroke="none"/>
<circle clip-path="url(#clip792)" cx="550.555" cy="627.622" r="14.4" fill="#ff7e00" fill-rule="evenodd" fill-opacity="1" stroke="none"/>
<circle clip-path="url(#clip792)" cx="595.447" cy="565.285" r="14.4" fill="#ff7e00" fill-rule="evenodd" fill-opacity="1" stroke="none"/>
<circle clip-path="url(#clip792)" cx="640.34" cy="505.601" r="14.4" fill="#ff7e00" fill-rule="evenodd" fill-opacity="1" stroke="none"/>
<circle clip-path="url(#clip792)" cx="685.232" cy="464.456" r="14.4" fill="#ff7e00" fill-rule="evenodd" fill-opacity="1" stroke="none"/>
<circle clip-path="url(#clip792)" cx="730.124" cy="447.279" r="14.4" fill="#ff7e00" fill-rule="evenodd" fill-opacity="1" stroke="none"/>
<circle clip-path="url(#clip792)" cx="775.017" cy="444.689" r="14.4" fill="#ff7e00" fill-rule="evenodd" fill-opacity="1" stroke="none"/>
<circle clip-path="url(#clip792)" cx="819.909" cy="449.177" r="14.4" fill="#ff7e00" fill-rule="evenodd" fill-opacity="1" stroke="none"/>
<circle clip-path="url(#clip792)" cx="864.801" cy="467.85" r="14.4" fill="#ff7e00" fill-rule="evenodd" fill-opacity="1" stroke="none"/>
<circle clip-path="url(#clip792)" cx="909.694" cy="509.821" r="14.4" fill="#ff7e00" fill-rule="evenodd" fill-opacity="1" stroke="none"/>
<circle clip-path="url(#clip792)" cx="954.586" cy="569.639" r="14.4" fill="#ff7e00" fill-rule="evenodd" fill-opacity="1" stroke="none"/>
<circle clip-path="url(#clip792)" cx="999.478" cy="631.615" r="14.4" fill="#ff7e00" fill-rule="evenodd" fill-opacity="1" stroke="none"/>
<circle clip-path="url(#clip792)" cx="1044.37" cy="683.764" r="14.4" fill="#ff7e00" fill-rule="evenodd" fill-opacity="1" stroke="none"/>
<circle clip-path="url(#clip792)" cx="1089.26" cy="722.689" r="14.4" fill="#ff7e00" fill-rule="evenodd" fill-opacity="1" stroke="none"/>
<circle clip-path="url(#clip792)" cx="1134.16" cy="750.26" r="14.4" fill="#ff7e00" fill-rule="evenodd" fill-opacity="1" stroke="none"/>
<circle clip-path="url(#clip792)" cx="1179.05" cy="769.689" r="14.4" fill="#ff7e00" fill-rule="evenodd" fill-opacity="1" stroke="none"/>
<circle clip-path="url(#clip792)" cx="1223.94" cy="783.679" r="14.4" fill="#ff7e00" fill-rule="evenodd" fill-opacity="1" stroke="none"/>
<circle clip-path="url(#clip792)" cx="1268.83" cy="794.062" r="14.4" fill="#ff7e00" fill-rule="evenodd" fill-opacity="1" stroke="none"/>
<circle clip-path="url(#clip792)" cx="1313.72" cy="801.97" r="14.4" fill="#ff7e00" fill-rule="evenodd" fill-opacity="1" stroke="none"/>
<path clip-path="url(#clip790)" d="M1404.34 281.353 L1952.76 281.353 L1952.76 73.9926 L1404.34 73.9926  Z" fill="#ffffff" fill-rule="evenodd" fill-opacity="1"/>
<polyline clip-path="url(#clip790)" style="stroke:#000000; stroke-linecap:round; stroke-linejoin:round; stroke-width:4; stroke-opacity:1; fill:none" points="1404.34,281.353 1952.76,281.353 1952.76,73.9926 1404.34,73.9926 1404.34,281.353 "/>
<polyline clip-path="url(#clip790)" style="stroke:#377db8; stroke-linecap:round; stroke-linejoin:round; stroke-width:4; stroke-opacity:1; fill:none" points="1423.77,125.833 1540.35,125.833 "/>
<circle clip-path="url(#clip790)" cx="1482.06" cy="125.833" r="16.1923" fill="#377db8" fill-rule="evenodd" fill-opacity="1" stroke="none"/>
<path clip-path="url(#clip790)" d="M1564.46 126.608 L1564.46 139.27 L1571.96 139.27 Q1575.73 139.27 1577.54 137.719 Q1579.37 136.145 1579.37 132.927 Q1579.37 129.687 1577.54 128.159 Q1575.73 126.608 1571.96 126.608 L1564.46 126.608 M1564.46 112.395 L1564.46 122.812 L1571.38 122.812 Q1574.81 122.812 1576.48 121.539 Q1578.16 120.242 1578.16 117.603 Q1578.16 114.988 1576.48 113.691 Q1574.81 112.395 1571.38 112.395 L1564.46 112.395 M1559.79 108.553 L1571.73 108.553 Q1577.08 108.553 1579.97 110.775 Q1582.86 112.997 1582.86 117.094 Q1582.86 120.266 1581.38 122.141 Q1579.9 124.015 1577.03 124.478 Q1580.48 125.219 1582.38 127.58 Q1584.3 129.918 1584.3 133.437 Q1584.3 138.066 1581.15 140.589 Q1578 143.113 1572.19 143.113 L1559.79 143.113 L1559.79 108.553 Z" fill="#000000" fill-rule="nonzero" fill-opacity="1" /><path clip-path="url(#clip790)" d="M1592.12 117.187 L1596.38 117.187 L1596.38 143.113 L1592.12 143.113 L1592.12 117.187 M1592.12 107.094 L1596.38 107.094 L1596.38 112.488 L1592.12 112.488 L1592.12 107.094 Z" fill="#000000" fill-rule="nonzero" fill-opacity="1" /><path clip-path="url(#clip790)" d="M1621.82 117.951 L1621.82 121.978 Q1620.02 121.053 1618.07 120.59 Q1616.13 120.127 1614.04 120.127 Q1610.87 120.127 1609.28 121.099 Q1607.7 122.071 1607.7 124.015 Q1607.7 125.497 1608.84 126.353 Q1609.97 127.187 1613.4 127.951 L1614.85 128.275 Q1619.39 129.247 1621.29 131.029 Q1623.21 132.789 1623.21 135.96 Q1623.21 139.571 1620.34 141.677 Q1617.49 143.784 1612.49 143.784 Q1610.41 143.784 1608.14 143.367 Q1605.9 142.974 1603.4 142.164 L1603.4 137.765 Q1605.76 138.992 1608.05 139.617 Q1610.34 140.219 1612.59 140.219 Q1615.6 140.219 1617.22 139.201 Q1618.84 138.159 1618.84 136.284 Q1618.84 134.548 1617.66 133.622 Q1616.5 132.696 1612.54 131.84 L1611.06 131.492 Q1607.1 130.659 1605.34 128.946 Q1603.58 127.21 1603.58 124.201 Q1603.58 120.543 1606.17 118.553 Q1608.77 116.562 1613.54 116.562 Q1615.9 116.562 1617.98 116.909 Q1620.06 117.256 1621.82 117.951 Z" fill="#000000" fill-rule="nonzero" fill-opacity="1" /><path clip-path="url(#clip790)" d="M1634.21 109.826 L1634.21 117.187 L1642.98 117.187 L1642.98 120.497 L1634.21 120.497 L1634.21 134.571 Q1634.21 137.742 1635.06 138.645 Q1635.94 139.548 1638.6 139.548 L1642.98 139.548 L1642.98 143.113 L1638.6 143.113 Q1633.67 143.113 1631.8 141.284 Q1629.92 139.432 1629.92 134.571 L1629.92 120.497 L1626.8 120.497 L1626.8 117.187 L1629.92 117.187 L1629.92 109.826 L1634.21 109.826 Z" fill="#000000" fill-rule="nonzero" fill-opacity="1" /><path clip-path="url(#clip790)" d="M1658.63 120.173 Q1655.2 120.173 1653.21 122.858 Q1651.22 125.52 1651.22 130.173 Q1651.22 134.826 1653.19 137.511 Q1655.18 140.173 1658.63 140.173 Q1662.03 140.173 1664.02 137.488 Q1666.01 134.802 1666.01 130.173 Q1666.01 125.566 1664.02 122.881 Q1662.03 120.173 1658.63 120.173 M1658.63 116.562 Q1664.18 116.562 1667.35 120.173 Q1670.53 123.784 1670.53 130.173 Q1670.53 136.539 1667.35 140.173 Q1664.18 143.784 1658.63 143.784 Q1653.05 143.784 1649.88 140.173 Q1646.73 136.539 1646.73 130.173 Q1646.73 123.784 1649.88 120.173 Q1653.05 116.562 1658.63 116.562 Z" fill="#000000" fill-rule="nonzero" fill-opacity="1" /><path clip-path="url(#clip790)" d="M1696.24 118.182 L1696.24 122.164 Q1694.44 121.168 1692.61 120.682 Q1690.8 120.173 1688.95 120.173 Q1684.81 120.173 1682.52 122.812 Q1680.22 125.428 1680.22 130.173 Q1680.22 134.918 1682.52 137.557 Q1684.81 140.173 1688.95 140.173 Q1690.8 140.173 1692.61 139.687 Q1694.44 139.177 1696.24 138.182 L1696.24 142.117 Q1694.46 142.951 1692.54 143.367 Q1690.64 143.784 1688.49 143.784 Q1682.63 143.784 1679.18 140.103 Q1675.73 136.423 1675.73 130.173 Q1675.73 123.83 1679.21 120.196 Q1682.7 116.562 1688.77 116.562 Q1690.73 116.562 1692.61 116.979 Q1694.48 117.372 1696.24 118.182 Z" fill="#000000" fill-rule="nonzero" fill-opacity="1" /><path clip-path="url(#clip790)" d="M1725.2 127.465 L1725.2 143.113 L1720.94 143.113 L1720.94 127.603 Q1720.94 123.923 1719.51 122.094 Q1718.07 120.266 1715.2 120.266 Q1711.75 120.266 1709.76 122.465 Q1707.77 124.664 1707.77 128.46 L1707.77 143.113 L1703.49 143.113 L1703.49 107.094 L1707.77 107.094 L1707.77 121.215 Q1709.3 118.877 1711.36 117.719 Q1713.44 116.562 1716.15 116.562 Q1720.62 116.562 1722.91 119.34 Q1725.2 122.094 1725.2 127.465 Z" fill="#000000" fill-rule="nonzero" fill-opacity="1" /><path clip-path="url(#clip790)" d="M1745.48 130.08 Q1740.32 130.08 1738.33 131.261 Q1736.34 132.441 1736.34 135.289 Q1736.34 137.557 1737.82 138.9 Q1739.32 140.219 1741.89 140.219 Q1745.43 140.219 1747.56 137.719 Q1749.72 135.196 1749.72 131.029 L1749.72 130.08 L1745.48 130.08 M1753.97 128.321 L1753.97 143.113 L1749.72 143.113 L1749.72 139.177 Q1748.26 141.539 1746.08 142.673 Q1743.9 143.784 1740.76 143.784 Q1736.78 143.784 1734.41 141.562 Q1732.08 139.316 1732.08 135.566 Q1732.08 131.191 1734.99 128.969 Q1737.93 126.747 1743.74 126.747 L1749.72 126.747 L1749.72 126.33 Q1749.72 123.391 1747.77 121.793 Q1745.85 120.173 1742.35 120.173 Q1740.13 120.173 1738.03 120.705 Q1735.92 121.238 1733.97 122.303 L1733.97 118.367 Q1736.31 117.465 1738.51 117.025 Q1740.71 116.562 1742.79 116.562 Q1748.42 116.562 1751.2 119.478 Q1753.97 122.395 1753.97 128.321 Z" fill="#000000" fill-rule="nonzero" fill-opacity="1" /><path clip-path="url(#clip790)" d="M1779.28 117.951 L1779.28 121.978 Q1777.47 121.053 1775.53 120.59 Q1773.58 120.127 1771.5 120.127 Q1768.33 120.127 1766.73 121.099 Q1765.15 122.071 1765.15 124.015 Q1765.15 125.497 1766.29 126.353 Q1767.42 127.187 1770.85 127.951 L1772.31 128.275 Q1776.84 129.247 1778.74 131.029 Q1780.66 132.789 1780.66 135.96 Q1780.66 139.571 1777.79 141.677 Q1774.95 143.784 1769.95 143.784 Q1767.86 143.784 1765.59 143.367 Q1763.35 142.974 1760.85 142.164 L1760.85 137.765 Q1763.21 138.992 1765.5 139.617 Q1767.79 140.219 1770.04 140.219 Q1773.05 140.219 1774.67 139.201 Q1776.29 138.159 1776.29 136.284 Q1776.29 134.548 1775.11 133.622 Q1773.95 132.696 1769.99 131.84 L1768.51 131.492 Q1764.55 130.659 1762.79 128.946 Q1761.03 127.21 1761.03 124.201 Q1761.03 120.543 1763.63 118.553 Q1766.22 116.562 1770.99 116.562 Q1773.35 116.562 1775.43 116.909 Q1777.52 117.256 1779.28 117.951 Z" fill="#000000" fill-rule="nonzero" fill-opacity="1" /><path clip-path="url(#clip790)" d="M1791.66 109.826 L1791.66 117.187 L1800.43 117.187 L1800.43 120.497 L1791.66 120.497 L1791.66 134.571 Q1791.66 137.742 1792.52 138.645 Q1793.4 139.548 1796.06 139.548 L1800.43 139.548 L1800.43 143.113 L1796.06 143.113 Q1791.13 143.113 1789.25 141.284 Q1787.38 139.432 1787.38 134.571 L1787.38 120.497 L1784.25 120.497 L1784.25 117.187 L1787.38 117.187 L1787.38 109.826 L1791.66 109.826 Z" fill="#000000" fill-rule="nonzero" fill-opacity="1" /><path clip-path="url(#clip790)" d="M1806.03 117.187 L1810.29 117.187 L1810.29 143.113 L1806.03 143.113 L1806.03 117.187 M1806.03 107.094 L1810.29 107.094 L1810.29 112.488 L1806.03 112.488 L1806.03 107.094 Z" fill="#000000" fill-rule="nonzero" fill-opacity="1" /><path clip-path="url(#clip790)" d="M1837.86 118.182 L1837.86 122.164 Q1836.06 121.168 1834.23 120.682 Q1832.42 120.173 1830.57 120.173 Q1826.43 120.173 1824.14 122.812 Q1821.84 125.428 1821.84 130.173 Q1821.84 134.918 1824.14 137.557 Q1826.43 140.173 1830.57 140.173 Q1832.42 140.173 1834.23 139.687 Q1836.06 139.177 1837.86 138.182 L1837.86 142.117 Q1836.08 142.951 1834.16 143.367 Q1832.26 143.784 1830.11 143.784 Q1824.25 143.784 1820.8 140.103 Q1817.35 136.423 1817.35 130.173 Q1817.35 123.83 1820.83 120.196 Q1824.32 116.562 1830.39 116.562 Q1832.35 116.562 1834.23 116.979 Q1836.1 117.372 1837.86 118.182 Z" fill="#000000" fill-rule="nonzero" fill-opacity="1" /><path clip-path="url(#clip790)" d="M1860.52 108.553 L1865.2 108.553 L1865.2 139.177 L1882.03 139.177 L1882.03 143.113 L1860.52 143.113 L1860.52 108.553 Z" fill="#000000" fill-rule="nonzero" fill-opacity="1" /><path clip-path="url(#clip790)" d="M1891.38 139.177 L1907.7 139.177 L1907.7 143.113 L1885.76 143.113 L1885.76 139.177 Q1888.42 136.423 1893 131.793 Q1897.61 127.14 1898.79 125.798 Q1901.03 123.275 1901.91 121.539 Q1902.82 119.779 1902.82 118.09 Q1902.82 115.335 1900.87 113.599 Q1898.95 111.863 1895.85 111.863 Q1893.65 111.863 1891.2 112.627 Q1888.77 113.391 1885.99 114.941 L1885.99 110.219 Q1888.81 109.085 1891.27 108.506 Q1893.72 107.928 1895.76 107.928 Q1901.13 107.928 1904.32 110.613 Q1907.52 113.298 1907.52 117.789 Q1907.52 119.918 1906.7 121.84 Q1905.92 123.738 1903.81 126.33 Q1903.23 127.002 1900.13 130.219 Q1897.03 133.414 1891.38 139.177 Z" fill="#000000" fill-rule="nonzero" fill-opacity="1" /><polyline clip-path="url(#clip790)" style="stroke:#e31a1c; stroke-linecap:round; stroke-linejoin:round; stroke-width:4; stroke-opacity:1; fill:none" points="1423.77,177.673 1540.35,177.673 "/>
<circle clip-path="url(#clip790)" cx="1482.06" cy="177.673" r="16.1923" fill="#e31a1c" fill-rule="evenodd" fill-opacity="1" stroke="none"/>
<path clip-path="url(#clip790)" d="M1564.46 178.448 L1564.46 191.11 L1571.96 191.11 Q1575.73 191.11 1577.54 189.559 Q1579.37 187.985 1579.37 184.767 Q1579.37 181.527 1577.54 179.999 Q1575.73 178.448 1571.96 178.448 L1564.46 178.448 M1564.46 164.235 L1564.46 174.652 L1571.38 174.652 Q1574.81 174.652 1576.48 173.379 Q1578.16 172.082 1578.16 169.443 Q1578.16 166.828 1576.48 165.531 Q1574.81 164.235 1571.38 164.235 L1564.46 164.235 M1559.79 160.393 L1571.73 160.393 Q1577.08 160.393 1579.97 162.615 Q1582.86 164.837 1582.86 168.934 Q1582.86 172.106 1581.38 173.981 Q1579.9 175.855 1577.03 176.318 Q1580.48 177.059 1582.38 179.42 Q1584.3 181.758 1584.3 185.277 Q1584.3 189.906 1581.15 192.429 Q1578 194.953 1572.19 194.953 L1559.79 194.953 L1559.79 160.393 Z" fill="#000000" fill-rule="nonzero" fill-opacity="1" /><path clip-path="url(#clip790)" d="M1592.12 169.027 L1596.38 169.027 L1596.38 194.953 L1592.12 194.953 L1592.12 169.027 M1592.12 158.934 L1596.38 158.934 L1596.38 164.328 L1592.12 164.328 L1592.12 158.934 Z" fill="#000000" fill-rule="nonzero" fill-opacity="1" /><path clip-path="url(#clip790)" d="M1621.82 169.791 L1621.82 173.818 Q1620.02 172.893 1618.07 172.43 Q1616.13 171.967 1614.04 171.967 Q1610.87 171.967 1609.28 172.939 Q1607.7 173.911 1607.7 175.855 Q1607.7 177.337 1608.84 178.193 Q1609.97 179.027 1613.4 179.791 L1614.85 180.115 Q1619.39 181.087 1621.29 182.869 Q1623.21 184.629 1623.21 187.8 Q1623.21 191.411 1620.34 193.517 Q1617.49 195.624 1612.49 195.624 Q1610.41 195.624 1608.14 195.207 Q1605.9 194.814 1603.4 194.004 L1603.4 189.605 Q1605.76 190.832 1608.05 191.457 Q1610.34 192.059 1612.59 192.059 Q1615.6 192.059 1617.22 191.041 Q1618.84 189.999 1618.84 188.124 Q1618.84 186.388 1617.66 185.462 Q1616.5 184.536 1612.54 183.68 L1611.06 183.332 Q1607.1 182.499 1605.34 180.786 Q1603.58 179.05 1603.58 176.041 Q1603.58 172.383 1606.17 170.393 Q1608.77 168.402 1613.54 168.402 Q1615.9 168.402 1617.98 168.749 Q1620.06 169.096 1621.82 169.791 Z" fill="#000000" fill-rule="nonzero" fill-opacity="1" /><path clip-path="url(#clip790)" d="M1634.21 161.666 L1634.21 169.027 L1642.98 169.027 L1642.98 172.337 L1634.21 172.337 L1634.21 186.411 Q1634.21 189.582 1635.06 190.485 Q1635.94 191.388 1638.6 191.388 L1642.98 191.388 L1642.98 194.953 L1638.6 194.953 Q1633.67 194.953 1631.8 193.124 Q1629.92 191.272 1629.92 186.411 L1629.92 172.337 L1626.8 172.337 L1626.8 169.027 L1629.92 169.027 L1629.92 161.666 L1634.21 161.666 Z" fill="#000000" fill-rule="nonzero" fill-opacity="1" /><path clip-path="url(#clip790)" d="M1658.63 172.013 Q1655.2 172.013 1653.21 174.698 Q1651.22 177.36 1651.22 182.013 Q1651.22 186.666 1653.19 189.351 Q1655.18 192.013 1658.63 192.013 Q1662.03 192.013 1664.02 189.328 Q1666.01 186.642 1666.01 182.013 Q1666.01 177.406 1664.02 174.721 Q1662.03 172.013 1658.63 172.013 M1658.63 168.402 Q1664.18 168.402 1667.35 172.013 Q1670.53 175.624 1670.53 182.013 Q1670.53 188.379 1667.35 192.013 Q1664.18 195.624 1658.63 195.624 Q1653.05 195.624 1649.88 192.013 Q1646.73 188.379 1646.73 182.013 Q1646.73 175.624 1649.88 172.013 Q1653.05 168.402 1658.63 168.402 Z" fill="#000000" fill-rule="nonzero" fill-opacity="1" /><path clip-path="url(#clip790)" d="M1696.24 170.022 L1696.24 174.004 Q1694.44 173.008 1692.61 172.522 Q1690.8 172.013 1688.95 172.013 Q1684.81 172.013 1682.52 174.652 Q1680.22 177.268 1680.22 182.013 Q1680.22 186.758 1682.52 189.397 Q1684.81 192.013 1688.95 192.013 Q1690.8 192.013 1692.61 191.527 Q1694.44 191.017 1696.24 190.022 L1696.24 193.957 Q1694.46 194.791 1692.54 195.207 Q1690.64 195.624 1688.49 195.624 Q1682.63 195.624 1679.18 191.943 Q1675.73 188.263 1675.73 182.013 Q1675.73 175.67 1679.21 172.036 Q1682.7 168.402 1688.77 168.402 Q1690.73 168.402 1692.61 168.819 Q1694.48 169.212 1696.24 170.022 Z" fill="#000000" fill-rule="nonzero" fill-opacity="1" /><path clip-path="url(#clip790)" d="M1725.2 179.305 L1725.2 194.953 L1720.94 194.953 L1720.94 179.443 Q1720.94 175.763 1719.51 173.934 Q1718.07 172.106 1715.2 172.106 Q1711.75 172.106 1709.76 174.305 Q1707.77 176.504 1707.77 180.3 L1707.77 194.953 L1703.49 194.953 L1703.49 158.934 L1707.77 158.934 L1707.77 173.055 Q1709.3 170.717 1711.36 169.559 Q1713.44 168.402 1716.15 168.402 Q1720.62 168.402 1722.91 171.18 Q1725.2 173.934 1725.2 179.305 Z" fill="#000000" fill-rule="nonzero" fill-opacity="1" /><path clip-path="url(#clip790)" d="M1745.48 181.92 Q1740.32 181.92 1738.33 183.101 Q1736.34 184.281 1736.34 187.129 Q1736.34 189.397 1737.82 190.74 Q1739.32 192.059 1741.89 192.059 Q1745.43 192.059 1747.56 189.559 Q1749.72 187.036 1749.72 182.869 L1749.72 181.92 L1745.48 181.92 M1753.97 180.161 L1753.97 194.953 L1749.72 194.953 L1749.72 191.017 Q1748.26 193.379 1746.08 194.513 Q1743.9 195.624 1740.76 195.624 Q1736.78 195.624 1734.41 193.402 Q1732.08 191.156 1732.08 187.406 Q1732.08 183.031 1734.99 180.809 Q1737.93 178.587 1743.74 178.587 L1749.72 178.587 L1749.72 178.17 Q1749.72 175.231 1747.77 173.633 Q1745.85 172.013 1742.35 172.013 Q1740.13 172.013 1738.03 172.545 Q1735.92 173.078 1733.97 174.143 L1733.97 170.207 Q1736.31 169.305 1738.51 168.865 Q1740.71 168.402 1742.79 168.402 Q1748.42 168.402 1751.2 171.318 Q1753.97 174.235 1753.97 180.161 Z" fill="#000000" fill-rule="nonzero" fill-opacity="1" /><path clip-path="url(#clip790)" d="M1779.28 169.791 L1779.28 173.818 Q1777.47 172.893 1775.53 172.43 Q1773.58 171.967 1771.5 171.967 Q1768.33 171.967 1766.73 172.939 Q1765.15 173.911 1765.15 175.855 Q1765.15 177.337 1766.29 178.193 Q1767.42 179.027 1770.85 179.791 L1772.31 180.115 Q1776.84 181.087 1778.74 182.869 Q1780.66 184.629 1780.66 187.8 Q1780.66 191.411 1777.79 193.517 Q1774.95 195.624 1769.95 195.624 Q1767.86 195.624 1765.59 195.207 Q1763.35 194.814 1760.85 194.004 L1760.85 189.605 Q1763.21 190.832 1765.5 191.457 Q1767.79 192.059 1770.04 192.059 Q1773.05 192.059 1774.67 191.041 Q1776.29 189.999 1776.29 188.124 Q1776.29 186.388 1775.11 185.462 Q1773.95 184.536 1769.99 183.68 L1768.51 183.332 Q1764.55 182.499 1762.79 180.786 Q1761.03 179.05 1761.03 176.041 Q1761.03 172.383 1763.63 170.393 Q1766.22 168.402 1770.99 168.402 Q1773.35 168.402 1775.43 168.749 Q1777.52 169.096 1779.28 169.791 Z" fill="#000000" fill-rule="nonzero" fill-opacity="1" /><path clip-path="url(#clip790)" d="M1791.66 161.666 L1791.66 169.027 L1800.43 169.027 L1800.43 172.337 L1791.66 172.337 L1791.66 186.411 Q1791.66 189.582 1792.52 190.485 Q1793.4 191.388 1796.06 191.388 L1800.43 191.388 L1800.43 194.953 L1796.06 194.953 Q1791.13 194.953 1789.25 193.124 Q1787.38 191.272 1787.38 186.411 L1787.38 172.337 L1784.25 172.337 L1784.25 169.027 L1787.38 169.027 L1787.38 161.666 L1791.66 161.666 Z" fill="#000000" fill-rule="nonzero" fill-opacity="1" /><path clip-path="url(#clip790)" d="M1806.03 169.027 L1810.29 169.027 L1810.29 194.953 L1806.03 194.953 L1806.03 169.027 M1806.03 158.934 L1810.29 158.934 L1810.29 164.328 L1806.03 164.328 L1806.03 158.934 Z" fill="#000000" fill-rule="nonzero" fill-opacity="1" /><path clip-path="url(#clip790)" d="M1837.86 170.022 L1837.86 174.004 Q1836.06 173.008 1834.23 172.522 Q1832.42 172.013 1830.57 172.013 Q1826.43 172.013 1824.14 174.652 Q1821.84 177.268 1821.84 182.013 Q1821.84 186.758 1824.14 189.397 Q1826.43 192.013 1830.57 192.013 Q1832.42 192.013 1834.23 191.527 Q1836.06 191.017 1837.86 190.022 L1837.86 193.957 Q1836.08 194.791 1834.16 195.207 Q1832.26 195.624 1830.11 195.624 Q1824.25 195.624 1820.8 191.943 Q1817.35 188.263 1817.35 182.013 Q1817.35 175.67 1820.83 172.036 Q1824.32 168.402 1830.39 168.402 Q1832.35 168.402 1834.23 168.819 Q1836.1 169.212 1837.86 170.022 Z" fill="#000000" fill-rule="nonzero" fill-opacity="1" /><path clip-path="url(#clip790)" d="M1860.52 160.393 L1882.38 160.393 L1882.38 164.328 L1865.2 164.328 L1865.2 174.559 L1881.66 174.559 L1881.66 178.494 L1865.2 178.494 L1865.2 191.017 L1882.79 191.017 L1882.79 194.953 L1860.52 194.953 L1860.52 160.393 Z" fill="#000000" fill-rule="nonzero" fill-opacity="1" /><path clip-path="url(#clip790)" d="M1911.84 179.305 L1911.84 194.953 L1907.58 194.953 L1907.58 179.443 Q1907.58 175.763 1906.15 173.934 Q1904.71 172.106 1901.84 172.106 Q1898.39 172.106 1896.4 174.305 Q1894.41 176.504 1894.41 180.3 L1894.41 194.953 L1890.13 194.953 L1890.13 169.027 L1894.41 169.027 L1894.41 173.055 Q1895.94 170.717 1898 169.559 Q1900.08 168.402 1902.79 168.402 Q1907.26 168.402 1909.55 171.18 Q1911.84 173.934 1911.84 179.305 Z" fill="#000000" fill-rule="nonzero" fill-opacity="1" /><path clip-path="url(#clip790)" d="M1924.55 161.666 L1924.55 169.027 L1933.33 169.027 L1933.33 172.337 L1924.55 172.337 L1924.55 186.411 Q1924.55 189.582 1925.41 190.485 Q1926.29 191.388 1928.95 191.388 L1933.33 191.388 L1933.33 194.953 L1928.95 194.953 Q1924.02 194.953 1922.14 193.124 Q1920.27 191.272 1920.27 186.411 L1920.27 172.337 L1917.14 172.337 L1917.14 169.027 L1920.27 169.027 L1920.27 161.666 L1924.55 161.666 Z" fill="#000000" fill-rule="nonzero" fill-opacity="1" /><polyline clip-path="url(#clip790)" style="stroke:#ff7e00; stroke-linecap:round; stroke-linejoin:round; stroke-width:4; stroke-opacity:1; fill:none" points="1423.77,229.513 1540.35,229.513 "/>
<circle clip-path="url(#clip790)" cx="1482.06" cy="229.513" r="16.1923" fill="#ff7e00" fill-rule="evenodd" fill-opacity="1" stroke="none"/>
<path clip-path="url(#clip790)" d="M1581.5 227.554 Q1581.5 228.889 1580.68 229.686 Q1579.88 230.482 1578.87 230.482 Q1577.98 230.482 1577.52 229.967 Q1577.05 229.451 1577.05 228.796 Q1577.05 228.515 1577.16 228.163 Q1577.28 227.788 1577.54 227.343 Q1577.82 226.898 1578.41 226.571 Q1578.99 226.243 1579.79 226.196 Q1579.62 226.032 1579.58 226.008 Q1579.23 225.727 1578.57 225.634 Q1578.48 225.587 1578.15 225.587 Q1576.53 225.587 1574.89 226.781 Q1573.28 227.952 1571.29 230.178 Q1568.78 232.777 1567.16 233.738 Q1574.26 234.675 1574.26 238.774 Q1574.26 239.453 1574.07 240.273 Q1573.7 241.819 1573.7 242.943 Q1573.7 245.191 1575.22 245.191 Q1576.7 245.191 1577.63 243.692 Q1578.59 242.193 1579.39 239.265 Q1579.51 238.727 1579.62 238.563 Q1579.74 238.399 1580.07 238.399 Q1580.65 238.399 1580.65 238.867 Q1580.12 241.608 1578.92 243.716 Q1577.4 246.269 1575.13 246.269 Q1573.23 246.269 1571.97 244.957 Q1570.72 243.622 1570.72 241.514 Q1570.72 240.999 1570.91 239.828 Q1571.05 239.359 1571.05 238.82 Q1571.05 237.72 1570.44 236.9 Q1569.83 236.057 1568.85 235.635 Q1567.87 235.213 1567.05 235.026 Q1566.25 234.815 1565.48 234.745 Q1563.13 244.653 1562.81 245.262 Q1562.6 245.683 1562.13 245.964 Q1561.66 246.269 1561.17 246.269 Q1560.7 246.269 1560.23 245.941 Q1559.79 245.636 1559.79 244.91 Q1559.79 244.536 1559.97 243.856 L1566.93 216.218 L1567.07 215.281 Q1567.07 215 1566.95 214.859 Q1566.86 214.695 1566.3 214.578 Q1565.76 214.461 1564.68 214.461 Q1564.24 214.461 1564.02 214.438 Q1563.84 214.414 1563.67 214.297 Q1563.51 214.157 1563.51 213.876 Q1563.51 213.477 1563.67 213.267 Q1563.86 213.032 1564 212.985 Q1564.14 212.939 1564.42 212.915 Q1564.82 212.892 1566.16 212.775 Q1567.49 212.634 1568.64 212.54 Q1569.79 212.447 1570.28 212.447 Q1570.56 212.447 1570.7 212.587 Q1570.86 212.704 1570.89 212.845 L1570.91 212.962 L1565.92 233.199 Q1567.98 232.379 1571.24 228.749 Q1575.01 224.533 1578.24 224.533 Q1579.76 224.533 1580.63 225.47 Q1581.5 226.383 1581.5 227.554 Z" fill="#000000" fill-rule="nonzero" fill-opacity="1" /><path clip-path="url(#clip790)" d="M1584.54 230.846 L1597.02 230.846 L1597.02 234.642 L1584.54 234.642 L1584.54 230.846 Z" fill="#000000" fill-rule="nonzero" fill-opacity="1" /><path clip-path="url(#clip790)" d="M1603.98 211.17 L1610.28 211.17 L1625.6 240.082 L1625.6 211.17 L1630.14 211.17 L1630.14 245.73 L1623.84 245.73 L1608.52 216.818 L1608.52 245.73 L1603.98 245.73 L1603.98 211.17 Z" fill="#000000" fill-rule="nonzero" fill-opacity="1" /><path clip-path="url(#clip790)" d="M1639.45 211.17 L1645.74 211.17 L1661.07 240.082 L1661.07 211.17 L1665.6 211.17 L1665.6 245.73 L1659.31 245.73 L1643.98 216.818 L1643.98 245.73 L1639.45 245.73 L1639.45 211.17 Z" fill="#000000" fill-rule="nonzero" fill-opacity="1" /></svg>
