<?xml version="1.0" encoding="utf-8"?>
<svg xmlns="http://www.w3.org/2000/svg" xmlns:xlink="http://www.w3.org/1999/xlink" width="300" height="250" viewBox="0 0 1200 1000">
<defs>
  <clipPath id="clip640">
    <rect x="0" y="0" width="1200" height="1000"/>
  </clipPath>
</defs>
<path clip-path="url(#clip640)" d="M0 1000 L1200 1000 L1200 0 L0 0  Z" fill="#ffffff" fill-rule="evenodd" fill-opacity="1"/>
<defs>
  <clipPath id="clip641">
    <rect x="240" y="0" width="841" height="841"/>
  </clipPath>
</defs>
<path clip-path="url(#clip640)" d="M235.494 792.912 L1137.01 792.912 L1137.01 62.9921 L235.494 62.9921  Z" fill="#ffffff" fill-rule="evenodd" fill-opacity="1"/>
<defs>
  <clipPath id="clip642">
    <rect x="235" y="62" width="903" height="731"/>
  </clipPath>
</defs>
<polyline clip-path="url(#clip642)" style="stroke:#000000; stroke-linecap:round; stroke-linejoin:round; stroke-width:2; stroke-opacity:0.1; fill:none" points="243.652,792.912 243.652,62.9921 "/>
<polyline clip-path="url(#clip642)" style="stroke:#000000; stroke-linecap:round; stroke-linejoin:round; stroke-width:2; stroke-opacity:0.1; fill:none" points="417.22,792.912 417.22,62.9921 "/>
<polyline clip-path="url(#clip642)" style="stroke:#000000; stroke-linecap:round; stroke-linejoin:round; stroke-width:2; stroke-opacity:0.1; fill:none" points="590.789,792.912 590.789,62.9921 "/>
<polyline clip-path="url(#clip642)" style="stroke:#000000; stroke-linecap:round; stroke-linejoin:round; stroke-width:2; stroke-opacity:0.1; fill:none" points="764.357,792.912 764.357,62.9921 "/>
<polyline clip-path="url(#clip642)" style="stroke:#000000; stroke-linecap:round; stroke-linejoin:round; stroke-width:2; stroke-opacity:0.1; fill:none" points="937.925,792.912 937.925,62.9921 "/>
<polyline clip-path="url(#clip642)" style="stroke:#000000; stroke-linecap:round; stroke-linejoin:round; stroke-width:2; stroke-opacity:0.1; fill:none" points="1111.49,792.912 1111.49,62.9921 "/>
<polyline clip-path="url(#clip642)" style="stroke:#000000; stroke-linecap:round; stroke-linejoin:round; stroke-width:2; stroke-opacity:0.1; fill:none" points="235.494,792.912 1137.01,792.912 "/>
<polyline clip-path="url(#clip642)" style="stroke:#000000; stroke-linecap:round; stroke-linejoin:round; stroke-width:2; stroke-opacity:0.1; fill:none" points="235.494,646.928 1137.01,646.928 "/>
<polyline clip-path="url(#clip642)" style="stroke:#000000; stroke-linecap:round; stroke-linejoin:round; stroke-width:2; stroke-opacity:0.1; fill:none" points="235.494,500.944 1137.01,500.944 "/>
<polyline clip-path="url(#clip642)" style="stroke:#000000; stroke-linecap:round; stroke-linejoin:round; stroke-width:2; stroke-opacity:0.1; fill:none" points="235.494,354.96 1137.01,354.96 "/>
<polyline clip-path="url(#clip642)" style="stroke:#000000; stroke-linecap:round; stroke-linejoin:round; stroke-width:2; stroke-opacity:0.1; fill:none" points="235.494,208.976 1137.01,208.976 "/>
<polyline clip-path="url(#clip642)" style="stroke:#000000; stroke-linecap:round; stroke-linejoin:round; stroke-width:2; stroke-opacity:0.1; fill:none" points="235.494,62.9921 1137.01,62.9921 "/>
<polyline clip-path="url(#clip640)" style="stroke:#000000; stroke-linecap:round; stroke-linejoin:round; stroke-width:4; stroke-opacity:1; fill:none" points="235.494,792.912 1137.01,792.912 "/>
<polyline clip-path="url(#clip640)" style="stroke:#000000; stroke-linecap:round; stroke-linejoin:round; stroke-width:4; stroke-opacity:1; fill:none" points="243.652,792.912 243.652,774.014 "/>
<polyline clip-path="url(#clip640)" style="stroke:#000000; stroke-linecap:round; stroke-linejoin:round; stroke-width:4; stroke-opacity:1; fill:none" points="417.22,792.912 417.22,774.014 "/>
<polyline clip-path="url(#clip640)" style="stroke:#000000; stroke-linecap:round; stroke-linejoin:round; stroke-width:4; stroke-opacity:1; fill:none" points="590.789,792.912 590.789,774.014 "/>
<polyline clip-path="url(#clip640)" style="stroke:#000000; stroke-linecap:round; stroke-linejoin:round; stroke-width:4; stroke-opacity:1; fill:none" points="764.357,792.912 764.357,774.014 "/>
<polyline clip-path="url(#clip640)" style="stroke:#000000; stroke-linecap:round; stroke-linejoin:round; stroke-width:4; stroke-opacity:1; fill:none" points="937.925,792.912 937.925,774.014 "/>
<polyline clip-path="url(#clip640)" style="stroke:#000000; stroke-linecap:round; stroke-linejoin:round; stroke-width:4; stroke-opacity:1; fill:none" points="1111.49,792.912 1111.49,774.014 "/>
<path clip-path="url(#clip640)" d="M243.652 814.23 Q240.041 814.23 238.212 817.795 Q236.407 821.337 236.407 828.467 Q236.407 835.573 238.212 839.138 Q240.041 842.679 243.652 842.679 Q247.286 842.679 249.092 839.138 Q250.92 835.573 250.92 828.467 Q250.92 821.337 249.092 817.795 Q247.286 814.23 243.652 814.23 M243.652 810.527 Q249.462 810.527 252.518 815.133 Q255.596 819.717 255.596 828.467 Q255.596 837.193 252.518 841.8 Q249.462 846.383 243.652 846.383 Q237.842 846.383 234.763 841.8 Q231.708 837.193 231.708 828.467 Q231.708 819.717 234.763 815.133 Q237.842 810.527 243.652 810.527 Z" fill="#000000" fill-rule="nonzero" fill-opacity="1" /><path clip-path="url(#clip640)" d="M391.919 811.152 L410.276 811.152 L410.276 815.087 L396.202 815.087 L396.202 823.559 Q397.22 823.212 398.239 823.05 Q399.257 822.865 400.276 822.865 Q406.063 822.865 409.443 826.036 Q412.822 829.207 412.822 834.624 Q412.822 840.203 409.35 843.304 Q405.878 846.383 399.558 846.383 Q397.382 846.383 395.114 846.013 Q392.869 845.642 390.461 844.902 L390.461 840.203 Q392.544 841.337 394.767 841.892 Q396.989 842.448 399.466 842.448 Q403.47 842.448 405.808 840.341 Q408.146 838.235 408.146 834.624 Q408.146 831.013 405.808 828.906 Q403.47 826.8 399.466 826.8 Q397.591 826.8 395.716 827.217 Q393.864 827.633 391.919 828.513 L391.919 811.152 Z" fill="#000000" fill-rule="nonzero" fill-opacity="1" /><path clip-path="url(#clip640)" d="M432.035 814.23 Q428.424 814.23 426.595 817.795 Q424.79 821.337 424.79 828.467 Q424.79 835.573 426.595 839.138 Q428.424 842.679 432.035 842.679 Q435.669 842.679 437.475 839.138 Q439.303 835.573 439.303 828.467 Q439.303 821.337 437.475 817.795 Q435.669 814.23 432.035 814.23 M432.035 810.527 Q437.845 810.527 440.901 815.133 Q443.979 819.717 443.979 828.467 Q443.979 837.193 440.901 841.8 Q437.845 846.383 432.035 846.383 Q426.225 846.383 423.146 841.8 Q420.091 837.193 420.091 828.467 Q420.091 819.717 423.146 815.133 Q426.225 810.527 432.035 810.527 Z" fill="#000000" fill-rule="nonzero" fill-opacity="1" /><path clip-path="url(#clip640)" d="M550.395 841.777 L558.034 841.777 L558.034 815.411 L549.724 817.078 L549.724 812.818 L557.988 811.152 L562.664 811.152 L562.664 841.777 L570.303 841.777 L570.303 845.712 L550.395 845.712 L550.395 841.777 Z" fill="#000000" fill-rule="nonzero" fill-opacity="1" /><path clip-path="url(#clip640)" d="M589.747 814.23 Q586.136 814.23 584.307 817.795 Q582.502 821.337 582.502 828.467 Q582.502 835.573 584.307 839.138 Q586.136 842.679 589.747 842.679 Q593.381 842.679 595.187 839.138 Q597.015 835.573 597.015 828.467 Q597.015 821.337 595.187 817.795 Q593.381 814.23 589.747 814.23 M589.747 810.527 Q595.557 810.527 598.613 815.133 Q601.691 819.717 601.691 828.467 Q601.691 837.193 598.613 841.8 Q595.557 846.383 589.747 846.383 Q583.937 846.383 580.858 841.8 Q577.802 837.193 577.802 828.467 Q577.802 819.717 580.858 815.133 Q583.937 810.527 589.747 810.527 Z" fill="#000000" fill-rule="nonzero" fill-opacity="1" /><path clip-path="url(#clip640)" d="M619.909 814.23 Q616.298 814.23 614.469 817.795 Q612.663 821.337 612.663 828.467 Q612.663 835.573 614.469 839.138 Q616.298 842.679 619.909 842.679 Q623.543 842.679 625.349 839.138 Q627.177 835.573 627.177 828.467 Q627.177 821.337 625.349 817.795 Q623.543 814.23 619.909 814.23 M619.909 810.527 Q625.719 810.527 628.774 815.133 Q631.853 819.717 631.853 828.467 Q631.853 837.193 628.774 841.8 Q625.719 846.383 619.909 846.383 Q614.099 846.383 611.02 841.8 Q607.964 837.193 607.964 828.467 Q607.964 819.717 611.02 815.133 Q614.099 810.527 619.909 810.527 Z" fill="#000000" fill-rule="nonzero" fill-opacity="1" /><path clip-path="url(#clip640)" d="M723.964 841.777 L731.602 841.777 L731.602 815.411 L723.292 817.078 L723.292 812.818 L731.556 811.152 L736.232 811.152 L736.232 841.777 L743.871 841.777 L743.871 845.712 L723.964 845.712 L723.964 841.777 Z" fill="#000000" fill-rule="nonzero" fill-opacity="1" /><path clip-path="url(#clip640)" d="M753.361 811.152 L771.718 811.152 L771.718 815.087 L757.644 815.087 L757.644 823.559 Q758.662 823.212 759.681 823.05 Q760.699 822.865 761.718 822.865 Q767.505 822.865 770.885 826.036 Q774.264 829.207 774.264 834.624 Q774.264 840.203 770.792 843.304 Q767.32 846.383 761 846.383 Q758.824 846.383 756.556 846.013 Q754.311 845.642 751.903 844.902 L751.903 840.203 Q753.986 841.337 756.209 841.892 Q758.431 842.448 760.908 842.448 Q764.912 842.448 767.25 840.341 Q769.588 838.235 769.588 834.624 Q769.588 831.013 767.25 828.906 Q764.912 826.8 760.908 826.8 Q759.033 826.8 757.158 827.217 Q755.306 827.633 753.361 828.513 L753.361 811.152 Z" fill="#000000" fill-rule="nonzero" fill-opacity="1" /><path clip-path="url(#clip640)" d="M793.477 814.23 Q789.866 814.23 788.037 817.795 Q786.232 821.337 786.232 828.467 Q786.232 835.573 788.037 839.138 Q789.866 842.679 793.477 842.679 Q797.111 842.679 798.917 839.138 Q800.745 835.573 800.745 828.467 Q800.745 821.337 798.917 817.795 Q797.111 814.23 793.477 814.23 M793.477 810.527 Q799.287 810.527 802.343 815.133 Q805.421 819.717 805.421 828.467 Q805.421 837.193 802.343 841.8 Q799.287 846.383 793.477 846.383 Q787.667 846.383 784.588 841.8 Q781.533 837.193 781.533 828.467 Q781.533 819.717 784.588 815.133 Q787.667 810.527 793.477 810.527 Z" fill="#000000" fill-rule="nonzero" fill-opacity="1" /><path clip-path="url(#clip640)" d="M901.617 841.777 L917.937 841.777 L917.937 845.712 L895.992 845.712 L895.992 841.777 Q898.654 839.022 903.238 834.392 Q907.844 829.74 909.025 828.397 Q911.27 825.874 912.15 824.138 Q913.053 822.379 913.053 820.689 Q913.053 817.934 911.108 816.198 Q909.187 814.462 906.085 814.462 Q903.886 814.462 901.432 815.226 Q899.002 815.99 896.224 817.541 L896.224 812.818 Q899.048 811.684 901.502 811.106 Q903.955 810.527 905.992 810.527 Q911.363 810.527 914.557 813.212 Q917.752 815.897 917.752 820.388 Q917.752 822.517 916.941 824.439 Q916.154 826.337 914.048 828.929 Q913.469 829.601 910.367 832.818 Q907.266 836.013 901.617 841.777 Z" fill="#000000" fill-rule="nonzero" fill-opacity="1" /><path clip-path="url(#clip640)" d="M937.751 814.23 Q934.14 814.23 932.312 817.795 Q930.506 821.337 930.506 828.467 Q930.506 835.573 932.312 839.138 Q934.14 842.679 937.751 842.679 Q941.386 842.679 943.191 839.138 Q945.02 835.573 945.02 828.467 Q945.02 821.337 943.191 817.795 Q941.386 814.23 937.751 814.23 M937.751 810.527 Q943.562 810.527 946.617 815.133 Q949.696 819.717 949.696 828.467 Q949.696 837.193 946.617 841.8 Q943.562 846.383 937.751 846.383 Q931.941 846.383 928.863 841.8 Q925.807 837.193 925.807 828.467 Q925.807 819.717 928.863 815.133 Q931.941 810.527 937.751 810.527 Z" fill="#000000" fill-rule="nonzero" fill-opacity="1" /><path clip-path="url(#clip640)" d="M967.913 814.23 Q964.302 814.23 962.474 817.795 Q960.668 821.337 960.668 828.467 Q960.668 835.573 962.474 839.138 Q964.302 842.679 967.913 842.679 Q971.548 842.679 973.353 839.138 Q975.182 835.573 975.182 828.467 Q975.182 821.337 973.353 817.795 Q971.548 814.23 967.913 814.23 M967.913 810.527 Q973.723 810.527 976.779 815.133 Q979.858 819.717 979.858 828.467 Q979.858 837.193 976.779 841.8 Q973.723 846.383 967.913 846.383 Q962.103 846.383 959.024 841.8 Q955.969 837.193 955.969 828.467 Q955.969 819.717 959.024 815.133 Q962.103 810.527 967.913 810.527 Z" fill="#000000" fill-rule="nonzero" fill-opacity="1" /><path clip-path="url(#clip640)" d="M1075.19 841.777 L1091.51 841.777 L1091.51 845.712 L1069.56 845.712 L1069.56 841.777 Q1072.22 839.022 1076.81 834.392 Q1081.41 829.74 1082.59 828.397 Q1084.84 825.874 1085.72 824.138 Q1086.62 822.379 1086.62 820.689 Q1086.62 817.934 1084.68 816.198 Q1082.76 814.462 1079.65 814.462 Q1077.45 814.462 1075 815.226 Q1072.57 815.99 1069.79 817.541 L1069.79 812.818 Q1072.62 811.684 1075.07 811.106 Q1077.52 810.527 1079.56 810.527 Q1084.93 810.527 1088.13 813.212 Q1091.32 815.897 1091.32 820.388 Q1091.32 822.517 1090.51 824.439 Q1089.72 826.337 1087.62 828.929 Q1087.04 829.601 1083.94 832.818 Q1080.83 836.013 1075.19 841.777 Z" fill="#000000" fill-rule="nonzero" fill-opacity="1" /><path clip-path="url(#clip640)" d="M1101.37 811.152 L1119.72 811.152 L1119.72 815.087 L1105.65 815.087 L1105.65 823.559 Q1106.67 823.212 1107.69 823.05 Q1108.7 822.865 1109.72 822.865 Q1115.51 822.865 1118.89 826.036 Q1122.27 829.207 1122.27 834.624 Q1122.27 840.203 1118.8 843.304 Q1115.32 846.383 1109 846.383 Q1106.83 846.383 1104.56 846.013 Q1102.32 845.642 1099.91 844.902 L1099.91 840.203 Q1101.99 841.337 1104.21 841.892 Q1106.44 842.448 1108.91 842.448 Q1112.92 842.448 1115.25 840.341 Q1117.59 838.235 1117.59 834.624 Q1117.59 831.013 1115.25 828.906 Q1112.92 826.8 1108.91 826.8 Q1107.04 826.8 1105.16 827.217 Q1103.31 827.633 1101.37 828.513 L1101.37 811.152 Z" fill="#000000" fill-rule="nonzero" fill-opacity="1" /><path clip-path="url(#clip640)" d="M1141.48 814.23 Q1137.87 814.23 1136.04 817.795 Q1134.24 821.337 1134.24 828.467 Q1134.24 835.573 1136.04 839.138 Q1137.87 842.679 1141.48 842.679 Q1145.12 842.679 1146.92 839.138 Q1148.75 835.573 1148.75 828.467 Q1148.75 821.337 1146.92 817.795 Q1145.12 814.23 1141.48 814.23 M1141.48 810.527 Q1147.29 810.527 1150.35 815.133 Q1153.43 819.717 1153.43 828.467 Q1153.43 837.193 1150.35 841.8 Q1147.29 846.383 1141.48 846.383 Q1135.67 846.383 1132.59 841.8 Q1129.54 837.193 1129.54 828.467 Q1129.54 819.717 1132.59 815.133 Q1135.67 810.527 1141.48 810.527 Z" fill="#000000" fill-rule="nonzero" fill-opacity="1" /><path clip-path="url(#clip640)" d="M579.816 891.098 L570.554 891.098 L567.881 901.729 L577.207 901.729 L579.816 891.098 M575.042 872.988 L571.732 886.197 L581.026 886.197 L584.368 872.988 L589.461 872.988 L586.182 886.197 L596.113 886.197 L596.113 891.098 L584.941 891.098 L582.331 901.729 L592.452 901.729 L592.452 906.599 L581.09 906.599 L577.779 919.776 L572.687 919.776 L575.965 906.599 L566.639 906.599 L563.361 919.776 L558.237 919.776 L561.547 906.599 L551.521 906.599 L551.521 901.729 L562.725 901.729 L565.398 891.098 L555.149 891.098 L555.149 886.197 L566.639 886.197 L569.886 872.988 L575.042 872.988 Z" fill="#000000" fill-rule="nonzero" fill-opacity="1" /><path clip-path="url(#clip640)" d="M641.787 888.234 Q637.076 888.234 634.339 891.926 Q631.601 895.586 631.601 901.984 Q631.601 908.381 634.307 912.073 Q637.044 915.734 641.787 915.734 Q646.465 915.734 649.203 912.041 Q651.94 908.349 651.94 901.984 Q651.94 895.65 649.203 891.958 Q646.465 888.234 641.787 888.234 M641.787 883.268 Q649.425 883.268 653.786 888.234 Q658.146 893.199 658.146 901.984 Q658.146 910.737 653.786 915.734 Q649.425 920.699 641.787 920.699 Q634.116 920.699 629.755 915.734 Q625.427 910.737 625.427 901.984 Q625.427 893.199 629.755 888.234 Q634.116 883.268 641.787 883.268 Z" fill="#000000" fill-rule="nonzero" fill-opacity="1" /><path clip-path="url(#clip640)" d="M685.901 870.251 L685.901 875.12 L680.299 875.12 Q677.148 875.12 675.907 876.394 Q674.697 877.667 674.697 880.977 L674.697 884.128 L684.341 884.128 L684.341 888.679 L674.697 888.679 L674.697 919.776 L668.809 919.776 L668.809 888.679 L663.207 888.679 L663.207 884.128 L668.809 884.128 L668.809 881.645 Q668.809 875.693 671.578 872.988 Q674.347 870.251 680.363 870.251 L685.901 870.251 Z" fill="#000000" fill-rule="nonzero" fill-opacity="1" /><path clip-path="url(#clip640)" d="M718.207 877.539 L718.207 895.395 L726.291 895.395 Q730.779 895.395 733.23 893.072 Q735.681 890.748 735.681 886.451 Q735.681 882.186 733.23 879.863 Q730.779 877.539 726.291 877.539 L718.207 877.539 M711.778 872.256 L726.291 872.256 Q734.28 872.256 738.354 875.884 Q742.46 879.481 742.46 886.451 Q742.46 893.485 738.354 897.082 Q734.28 900.679 726.291 900.679 L718.207 900.679 L718.207 919.776 L711.778 919.776 L711.778 872.256 Z" fill="#000000" fill-rule="nonzero" fill-opacity="1" /><path clip-path="url(#clip640)" d="M786.67 875.916 L786.67 882.696 Q783.424 879.672 779.731 878.176 Q776.071 876.68 771.933 876.68 Q763.785 876.68 759.457 881.677 Q755.128 886.642 755.128 896.064 Q755.128 905.453 759.457 910.45 Q763.785 915.415 771.933 915.415 Q776.071 915.415 779.731 913.919 Q783.424 912.423 786.67 909.4 L786.67 916.116 Q783.296 918.407 779.509 919.553 Q775.753 920.699 771.552 920.699 Q760.762 920.699 754.555 914.11 Q748.349 907.49 748.349 896.064 Q748.349 884.605 754.555 878.017 Q760.762 871.396 771.552 871.396 Q775.817 871.396 779.572 872.542 Q783.36 873.656 786.67 875.916 Z" fill="#000000" fill-rule="nonzero" fill-opacity="1" /><path clip-path="url(#clip640)" d="M819.072 885.178 L819.072 890.716 Q816.589 889.443 813.915 888.807 Q811.242 888.17 808.377 888.17 Q804.017 888.17 801.82 889.507 Q799.656 890.844 799.656 893.517 Q799.656 895.554 801.216 896.732 Q802.775 897.878 807.486 898.928 L809.491 899.374 Q815.73 900.711 818.339 903.161 Q820.981 905.58 820.981 909.941 Q820.981 914.906 817.035 917.802 Q813.12 920.699 806.245 920.699 Q803.38 920.699 800.261 920.126 Q797.174 919.585 793.736 918.471 L793.736 912.423 Q796.983 914.11 800.134 914.97 Q803.285 915.797 806.372 915.797 Q810.51 915.797 812.738 914.397 Q814.966 912.965 814.966 910.386 Q814.966 907.999 813.342 906.726 Q811.751 905.453 806.308 904.275 L804.271 903.798 Q798.829 902.652 796.41 900.297 Q793.991 897.91 793.991 893.772 Q793.991 888.743 797.555 886.006 Q801.12 883.268 807.677 883.268 Q810.923 883.268 813.788 883.746 Q816.653 884.223 819.072 885.178 Z" fill="#000000" fill-rule="nonzero" fill-opacity="1" /><polyline clip-path="url(#clip640)" style="stroke:#000000; stroke-linecap:round; stroke-linejoin:round; stroke-width:4; stroke-opacity:1; fill:none" points="235.494,792.912 235.494,62.9921 "/>
<polyline clip-path="url(#clip640)" style="stroke:#000000; stroke-linecap:round; stroke-linejoin:round; stroke-width:4; stroke-opacity:1; fill:none" points="235.494,792.912 254.392,792.912 "/>
<polyline clip-path="url(#clip640)" style="stroke:#000000; stroke-linecap:round; stroke-linejoin:round; stroke-width:4; stroke-opacity:1; fill:none" points="235.494,646.928 254.392,646.928 "/>
<polyline clip-path="url(#clip640)" style="stroke:#000000; stroke-linecap:round; stroke-linejoin:round; stroke-width:4; stroke-opacity:1; fill:none" points="235.494,500.944 254.392,500.944 "/>
<polyline clip-path="url(#clip640)" style="stroke:#000000; stroke-linecap:round; stroke-linejoin:round; stroke-width:4; stroke-opacity:1; fill:none" points="235.494,354.96 254.392,354.96 "/>
<polyline clip-path="url(#clip640)" style="stroke:#000000; stroke-linecap:round; stroke-linejoin:round; stroke-width:4; stroke-opacity:1; fill:none" points="235.494,208.976 254.392,208.976 "/>
<polyline clip-path="url(#clip640)" style="stroke:#000000; stroke-linecap:round; stroke-linejoin:round; stroke-width:4; stroke-opacity:1; fill:none" points="235.494,62.9921 254.392,62.9921 "/>
<path clip-path="url(#clip640)" d="M160.319 778.71 Q156.708 778.71 154.879 782.275 Q153.073 785.817 153.073 792.947 Q153.073 800.053 154.879 803.618 Q156.708 807.159 160.319 807.159 Q163.953 807.159 165.758 803.618 Q167.587 800.053 167.587 792.947 Q167.587 785.817 165.758 782.275 Q163.953 778.71 160.319 778.71 M160.319 775.007 Q166.129 775.007 169.184 779.613 Q172.263 784.197 172.263 792.947 Q172.263 801.673 169.184 806.28 Q166.129 810.863 160.319 810.863 Q154.509 810.863 151.43 806.28 Q148.374 801.673 148.374 792.947 Q148.374 784.197 151.43 779.613 Q154.509 775.007 160.319 775.007 Z" fill="#000000" fill-rule="nonzero" fill-opacity="1" /><path clip-path="url(#clip640)" d="M180.481 804.312 L185.365 804.312 L185.365 810.192 L180.481 810.192 L180.481 804.312 Z" fill="#000000" fill-rule="nonzero" fill-opacity="1" /><path clip-path="url(#clip640)" d="M205.55 778.71 Q201.939 778.71 200.11 782.275 Q198.305 785.817 198.305 792.947 Q198.305 800.053 200.11 803.618 Q201.939 807.159 205.55 807.159 Q209.184 807.159 210.99 803.618 Q212.818 800.053 212.818 792.947 Q212.818 785.817 210.99 782.275 Q209.184 778.71 205.55 778.71 M205.55 775.007 Q211.36 775.007 214.416 779.613 Q217.494 784.197 217.494 792.947 Q217.494 801.673 214.416 806.28 Q211.36 810.863 205.55 810.863 Q199.74 810.863 196.661 806.28 Q193.606 801.673 193.606 792.947 Q193.606 784.197 196.661 779.613 Q199.74 775.007 205.55 775.007 Z" fill="#000000" fill-rule="nonzero" fill-opacity="1" /><path clip-path="url(#clip640)" d="M161.916 632.727 Q158.305 632.727 156.476 636.291 Q154.671 639.833 154.671 646.963 Q154.671 654.069 156.476 657.634 Q158.305 661.175 161.916 661.175 Q165.55 661.175 167.356 657.634 Q169.184 654.069 169.184 646.963 Q169.184 639.833 167.356 636.291 Q165.55 632.727 161.916 632.727 M161.916 629.023 Q167.726 629.023 170.782 633.629 Q173.86 638.213 173.86 646.963 Q173.86 655.689 170.782 660.296 Q167.726 664.879 161.916 664.879 Q156.106 664.879 153.027 660.296 Q149.972 655.689 149.972 646.963 Q149.972 638.213 153.027 633.629 Q156.106 629.023 161.916 629.023 Z" fill="#000000" fill-rule="nonzero" fill-opacity="1" /><path clip-path="url(#clip640)" d="M182.078 658.328 L186.962 658.328 L186.962 664.208 L182.078 664.208 L182.078 658.328 Z" fill="#000000" fill-rule="nonzero" fill-opacity="1" /><path clip-path="url(#clip640)" d="M201.175 660.273 L217.494 660.273 L217.494 664.208 L195.55 664.208 L195.55 660.273 Q198.212 657.518 202.795 652.888 Q207.402 648.236 208.582 646.893 Q210.828 644.37 211.707 642.634 Q212.61 640.875 212.61 639.185 Q212.61 636.43 210.666 634.694 Q208.744 632.958 205.643 632.958 Q203.443 632.958 200.99 633.722 Q198.559 634.486 195.781 636.037 L195.781 631.315 Q198.606 630.18 201.059 629.602 Q203.513 629.023 205.55 629.023 Q210.92 629.023 214.115 631.708 Q217.309 634.393 217.309 638.884 Q217.309 641.014 216.499 642.935 Q215.712 644.833 213.605 647.426 Q213.027 648.097 209.925 651.314 Q206.823 654.509 201.175 660.273 Z" fill="#000000" fill-rule="nonzero" fill-opacity="1" /><path clip-path="url(#clip640)" d="M159.833 486.743 Q156.221 486.743 154.393 490.307 Q152.587 493.849 152.587 500.979 Q152.587 508.085 154.393 511.65 Q156.221 515.192 159.833 515.192 Q163.467 515.192 165.272 511.65 Q167.101 508.085 167.101 500.979 Q167.101 493.849 165.272 490.307 Q163.467 486.743 159.833 486.743 M159.833 483.039 Q165.643 483.039 168.698 487.645 Q171.777 492.229 171.777 500.979 Q171.777 509.705 168.698 514.312 Q165.643 518.895 159.833 518.895 Q154.022 518.895 150.944 514.312 Q147.888 509.705 147.888 500.979 Q147.888 492.229 150.944 487.645 Q154.022 483.039 159.833 483.039 Z" fill="#000000" fill-rule="nonzero" fill-opacity="1" /><path clip-path="url(#clip640)" d="M179.994 512.344 L184.879 512.344 L184.879 518.224 L179.994 518.224 L179.994 512.344 Z" fill="#000000" fill-rule="nonzero" fill-opacity="1" /><path clip-path="url(#clip640)" d="M207.911 487.738 L196.106 506.187 L207.911 506.187 L207.911 487.738 M206.684 483.664 L212.564 483.664 L212.564 506.187 L217.494 506.187 L217.494 510.076 L212.564 510.076 L212.564 518.224 L207.911 518.224 L207.911 510.076 L192.309 510.076 L192.309 505.562 L206.684 483.664 Z" fill="#000000" fill-rule="nonzero" fill-opacity="1" /><path clip-path="url(#clip640)" d="M160.157 340.759 Q156.546 340.759 154.717 344.323 Q152.911 347.865 152.911 354.995 Q152.911 362.101 154.717 365.666 Q156.546 369.208 160.157 369.208 Q163.791 369.208 165.596 365.666 Q167.425 362.101 167.425 354.995 Q167.425 347.865 165.596 344.323 Q163.791 340.759 160.157 340.759 M160.157 337.055 Q165.967 337.055 169.022 341.661 Q172.101 346.245 172.101 354.995 Q172.101 363.722 169.022 368.328 Q165.967 372.911 160.157 372.911 Q154.346 372.911 151.268 368.328 Q148.212 363.722 148.212 354.995 Q148.212 346.245 151.268 341.661 Q154.346 337.055 160.157 337.055 Z" fill="#000000" fill-rule="nonzero" fill-opacity="1" /><path clip-path="url(#clip640)" d="M180.319 366.36 L185.203 366.36 L185.203 372.24 L180.319 372.24 L180.319 366.36 Z" fill="#000000" fill-rule="nonzero" fill-opacity="1" /><path clip-path="url(#clip640)" d="M205.967 353.097 Q202.818 353.097 200.967 355.249 Q199.138 357.402 199.138 361.152 Q199.138 364.879 200.967 367.055 Q202.818 369.208 205.967 369.208 Q209.115 369.208 210.943 367.055 Q212.795 364.879 212.795 361.152 Q212.795 357.402 210.943 355.249 Q209.115 353.097 205.967 353.097 M215.249 338.444 L215.249 342.703 Q213.49 341.87 211.684 341.43 Q209.902 340.99 208.142 340.99 Q203.513 340.99 201.059 344.115 Q198.629 347.24 198.281 353.56 Q199.647 351.546 201.707 350.481 Q203.768 349.393 206.244 349.393 Q211.453 349.393 214.462 352.564 Q217.494 355.712 217.494 361.152 Q217.494 366.476 214.346 369.694 Q211.198 372.911 205.967 372.911 Q199.971 372.911 196.8 368.328 Q193.629 363.722 193.629 354.995 Q193.629 346.8 197.518 341.939 Q201.406 337.055 207.957 337.055 Q209.717 337.055 211.499 337.402 Q213.305 337.749 215.249 338.444 Z" fill="#000000" fill-rule="nonzero" fill-opacity="1" /><path clip-path="url(#clip640)" d="M160.411 194.775 Q156.8 194.775 154.971 198.34 Q153.166 201.881 153.166 209.011 Q153.166 216.117 154.971 219.682 Q156.8 223.224 160.411 223.224 Q164.046 223.224 165.851 219.682 Q167.68 216.117 167.68 209.011 Q167.68 201.881 165.851 198.34 Q164.046 194.775 160.411 194.775 M160.411 191.071 Q166.221 191.071 169.277 195.678 Q172.356 200.261 172.356 209.011 Q172.356 217.738 169.277 222.344 Q166.221 226.927 160.411 226.927 Q154.601 226.927 151.522 222.344 Q148.467 217.738 148.467 209.011 Q148.467 200.261 151.522 195.678 Q154.601 191.071 160.411 191.071 Z" fill="#000000" fill-rule="nonzero" fill-opacity="1" /><path clip-path="url(#clip640)" d="M180.573 220.376 L185.457 220.376 L185.457 226.256 L180.573 226.256 L180.573 220.376 Z" fill="#000000" fill-rule="nonzero" fill-opacity="1" /><path clip-path="url(#clip640)" d="M205.643 209.844 Q202.309 209.844 200.388 211.627 Q198.49 213.409 198.49 216.534 Q198.49 219.659 200.388 221.441 Q202.309 223.224 205.643 223.224 Q208.976 223.224 210.897 221.441 Q212.818 219.636 212.818 216.534 Q212.818 213.409 210.897 211.627 Q208.999 209.844 205.643 209.844 M200.967 207.853 Q197.957 207.113 196.268 205.052 Q194.601 202.992 194.601 200.029 Q194.601 195.886 197.541 193.478 Q200.504 191.071 205.643 191.071 Q210.805 191.071 213.744 193.478 Q216.684 195.886 216.684 200.029 Q216.684 202.992 214.994 205.052 Q213.328 207.113 210.342 207.853 Q213.721 208.64 215.596 210.932 Q217.494 213.224 217.494 216.534 Q217.494 221.557 214.416 224.242 Q211.36 226.927 205.643 226.927 Q199.925 226.927 196.846 224.242 Q193.791 221.557 193.791 216.534 Q193.791 213.224 195.689 210.932 Q197.587 208.64 200.967 207.853 M199.254 200.469 Q199.254 203.154 200.92 204.659 Q202.61 206.164 205.643 206.164 Q208.652 206.164 210.342 204.659 Q212.055 203.154 212.055 200.469 Q212.055 197.784 210.342 196.279 Q208.652 194.775 205.643 194.775 Q202.61 194.775 200.92 196.279 Q199.254 197.784 199.254 200.469 Z" fill="#000000" fill-rule="nonzero" fill-opacity="1" /><path clip-path="url(#clip640)" d="M151.129 76.337 L158.768 76.337 L158.768 49.9714 L150.458 51.638 L150.458 47.3788 L158.721 45.7121 L163.397 45.7121 L163.397 76.337 L171.036 76.337 L171.036 80.2721 L151.129 80.2721 L151.129 76.337 Z" fill="#000000" fill-rule="nonzero" fill-opacity="1" /><path clip-path="url(#clip640)" d="M180.481 74.3925 L185.365 74.3925 L185.365 80.2721 L180.481 80.2721 L180.481 74.3925 Z" fill="#000000" fill-rule="nonzero" fill-opacity="1" /><path clip-path="url(#clip640)" d="M205.55 48.7908 Q201.939 48.7908 200.11 52.3556 Q198.305 55.8973 198.305 63.0268 Q198.305 70.1333 200.11 73.6981 Q201.939 77.2397 205.55 77.2397 Q209.184 77.2397 210.99 73.6981 Q212.818 70.1333 212.818 63.0268 Q212.818 55.8973 210.99 52.3556 Q209.184 48.7908 205.55 48.7908 M205.55 45.0871 Q211.36 45.0871 214.416 49.6936 Q217.494 54.2769 217.494 63.0268 Q217.494 71.7537 214.416 76.3601 Q211.36 80.9434 205.55 80.9434 Q199.74 80.9434 196.661 76.3601 Q193.606 71.7537 193.606 63.0268 Q193.606 54.2769 196.661 49.6936 Q199.74 45.0871 205.55 45.0871 Z" fill="#000000" fill-rule="nonzero" fill-opacity="1" /><path clip-path="url(#clip640)" d="M68.1122 483.668 L68.1122 475.01 L107.866 453.94 L68.1122 453.94 L68.1122 447.702 L115.632 447.702 L115.632 456.359 L75.8784 477.429 L115.632 477.429 L115.632 483.668 L68.1122 483.668 Z" fill="#000000" fill-rule="nonzero" fill-opacity="1" /><path clip-path="url(#clip640)" d="M68.1122 434.907 L68.1122 425.326 L100.45 413.199 L68.1122 401.009 L68.1122 391.429 L115.632 391.429 L115.632 397.699 L73.905 397.699 L106.497 409.953 L106.497 416.414 L73.905 428.668 L115.632 428.668 L115.632 434.907 L68.1122 434.907 Z" fill="#000000" fill-rule="nonzero" fill-opacity="1" /><path clip-path="url(#clip640)" d="M68.1122 378.665 L68.1122 372.236 L115.632 372.236 L115.632 378.665 L68.1122 378.665 Z" fill="#000000" fill-rule="nonzero" fill-opacity="1" /><polyline clip-path="url(#clip642)" style="stroke:#e31a1c; stroke-linecap:round; stroke-linejoin:round; stroke-width:4; stroke-opacity:1; fill:none" points="261.009,207.062 295.722,113.472 330.436,73.3184 365.15,91.3681 399.863,90.5186 438.048,81.189 472.762,81.189 507.476,93.8887 542.189,104.744 576.903,105.704 615.088,108.57 649.802,108.921 684.515,117.475 719.229,121.218 753.943,121.218 792.128,115.539 826.841,126.576 861.555,121.218 896.269,123.934 930.982,121.218 969.167,121.218 1003.88,121.218 1038.59,123.934 1073.31,121.218 1111.49,121.218 "/>
<path clip-path="url(#clip642)" d="M261.009 217.062 L253.939 214.132 L251.009 207.062 L253.939 199.992 L261.009 197.062 L268.079 199.992 L271.009 207.062 L268.079 214.132 Z" fill="#e31a1c" fill-rule="evenodd" fill-opacity="1" stroke="none"/>
<path clip-path="url(#clip642)" d="M295.722 123.472 L288.652 120.542 L285.722 113.472 L288.652 106.402 L295.722 103.472 L302.792 106.402 L305.722 113.472 L302.792 120.542 Z" fill="#e31a1c" fill-rule="evenodd" fill-opacity="1" stroke="none"/>
<path clip-path="url(#clip642)" d="M330.436 83.3184 L323.366 80.3884 L320.436 73.3184 L323.366 66.2484 L330.436 63.3184 L337.506 66.2484 L340.436 73.3184 L337.506 80.3884 Z" fill="#e31a1c" fill-rule="evenodd" fill-opacity="1" stroke="none"/>
<path clip-path="url(#clip642)" d="M365.15 101.368 L358.08 98.4381 L355.15 91.3681 L358.08 84.2981 L365.15 81.3681 L372.22 84.2981 L375.15 91.3681 L372.22 98.4381 Z" fill="#e31a1c" fill-rule="evenodd" fill-opacity="1" stroke="none"/>
<path clip-path="url(#clip642)" d="M399.863 100.519 L392.793 97.5886 L389.863 90.5186 L392.793 83.4486 L399.863 80.5186 L406.933 83.4486 L409.863 90.5186 L406.933 97.5886 Z" fill="#e31a1c" fill-rule="evenodd" fill-opacity="1" stroke="none"/>
<path clip-path="url(#clip642)" d="M438.048 91.189 L430.978 88.259 L428.048 81.189 L430.978 74.119 L438.048 71.189 L445.118 74.119 L448.048 81.189 L445.118 88.259 Z" fill="#e31a1c" fill-rule="evenodd" fill-opacity="1" stroke="none"/>
<path clip-path="url(#clip642)" d="M472.762 91.189 L465.692 88.259 L462.762 81.189 L465.692 74.119 L472.762 71.189 L479.832 74.119 L482.762 81.189 L479.832 88.259 Z" fill="#e31a1c" fill-rule="evenodd" fill-opacity="1" stroke="none"/>
<path clip-path="url(#clip642)" d="M507.476 103.889 L500.406 100.959 L497.476 93.8887 L500.406 86.8187 L507.476 83.8887 L514.546 86.8187 L517.476 93.8887 L514.546 100.959 Z" fill="#e31a1c" fill-rule="evenodd" fill-opacity="1" stroke="none"/>
<path clip-path="url(#clip642)" d="M542.189 114.744 L535.119 111.814 L532.189 104.744 L535.119 97.6744 L542.189 94.7444 L549.259 97.6744 L552.189 104.744 L549.259 111.814 Z" fill="#e31a1c" fill-rule="evenodd" fill-opacity="1" stroke="none"/>
<path clip-path="url(#clip642)" d="M576.903 115.704 L569.833 112.774 L566.903 105.704 L569.833 98.6336 L576.903 95.7036 L583.973 98.6336 L586.903 105.704 L583.973 112.774 Z" fill="#e31a1c" fill-rule="evenodd" fill-opacity="1" stroke="none"/>
<path clip-path="url(#clip642)" d="M615.088 118.57 L608.018 115.64 L605.088 108.57 L608.018 101.5 L615.088 98.57 L622.158 101.5 L625.088 108.57 L622.158 115.64 Z" fill="#e31a1c" fill-rule="evenodd" fill-opacity="1" stroke="none"/>
<path clip-path="url(#clip642)" d="M649.802 118.921 L642.732 115.991 L639.802 108.921 L642.732 101.851 L649.802 98.9206 L656.872 101.851 L659.802 108.921 L656.872 115.991 Z" fill="#e31a1c" fill-rule="evenodd" fill-opacity="1" stroke="none"/>
<path clip-path="url(#clip642)" d="M684.515 127.475 L677.445 124.545 L674.515 117.475 L677.445 110.405 L684.515 107.475 L691.585 110.405 L694.515 117.475 L691.585 124.545 Z" fill="#e31a1c" fill-rule="evenodd" fill-opacity="1" stroke="none"/>
<path clip-path="url(#clip642)" d="M719.229 131.218 L712.159 128.288 L709.229 121.218 L712.159 114.148 L719.229 111.218 L726.299 114.148 L729.229 121.218 L726.299 128.288 Z" fill="#e31a1c" fill-rule="evenodd" fill-opacity="1" stroke="none"/>
<path clip-path="url(#clip642)" d="M753.943 131.218 L746.873 128.288 L743.943 121.218 L746.873 114.148 L753.943 111.218 L761.013 114.148 L763.943 121.218 L761.013 128.288 Z" fill="#e31a1c" fill-rule="evenodd" fill-opacity="1" stroke="none"/>
<path clip-path="url(#clip642)" d="M792.128 125.539 L785.058 122.609 L782.128 115.539 L785.058 108.469 L792.128 105.539 L799.198 108.469 L802.128 115.539 L799.198 122.609 Z" fill="#e31a1c" fill-rule="evenodd" fill-opacity="1" stroke="none"/>
<path clip-path="url(#clip642)" d="M826.841 136.576 L819.771 133.646 L816.841 126.576 L819.771 119.506 L826.841 116.576 L833.911 119.506 L836.841 126.576 L833.911 133.646 Z" fill="#e31a1c" fill-rule="evenodd" fill-opacity="1" stroke="none"/>
<path clip-path="url(#clip642)" d="M861.555 131.218 L854.485 128.288 L851.555 121.218 L854.485 114.148 L861.555 111.218 L868.625 114.148 L871.555 121.218 L868.625 128.288 Z" fill="#e31a1c" fill-rule="evenodd" fill-opacity="1" stroke="none"/>
<path clip-path="url(#clip642)" d="M896.269 133.934 L889.199 131.004 L886.269 123.934 L889.199 116.864 L896.269 113.934 L903.339 116.864 L906.269 123.934 L903.339 131.004 Z" fill="#e31a1c" fill-rule="evenodd" fill-opacity="1" stroke="none"/>
<path clip-path="url(#clip642)" d="M930.982 131.218 L923.912 128.288 L920.982 121.218 L923.912 114.148 L930.982 111.218 L938.052 114.148 L940.982 121.218 L938.052 128.288 Z" fill="#e31a1c" fill-rule="evenodd" fill-opacity="1" stroke="none"/>
<path clip-path="url(#clip642)" d="M969.167 131.218 L962.097 128.288 L959.167 121.218 L962.097 114.148 L969.167 111.218 L976.237 114.148 L979.167 121.218 L976.237 128.288 Z" fill="#e31a1c" fill-rule="evenodd" fill-opacity="1" stroke="none"/>
<path clip-path="url(#clip642)" d="M1003.88 131.218 L996.811 128.288 L993.881 121.218 L996.811 114.148 L1003.88 111.218 L1010.95 114.148 L1013.88 121.218 L1010.95 128.288 Z" fill="#e31a1c" fill-rule="evenodd" fill-opacity="1" stroke="none"/>
<path clip-path="url(#clip642)" d="M1038.59 133.934 L1031.52 131.004 L1028.59 123.934 L1031.52 116.864 L1038.59 113.934 L1045.66 116.864 L1048.59 123.934 L1045.66 131.004 Z" fill="#e31a1c" fill-rule="evenodd" fill-opacity="1" stroke="none"/>
<path clip-path="url(#clip642)" d="M1073.31 131.218 L1066.24 128.288 L1063.31 121.218 L1066.24 114.148 L1073.31 111.218 L1080.38 114.148 L1083.31 121.218 L1080.38 128.288 Z" fill="#e31a1c" fill-rule="evenodd" fill-opacity="1" stroke="none"/>
<path clip-path="url(#clip642)" d="M1111.49 131.218 L1104.42 128.288 L1101.49 121.218 L1104.42 114.148 L1111.49 111.218 L1118.56 114.148 L1121.49 121.218 L1118.56 128.288 Z" fill="#e31a1c" fill-rule="evenodd" fill-opacity="1" stroke="none"/>
<polyline clip-path="url(#clip642)" style="stroke:#377db8; stroke-linecap:round; stroke-linejoin:round; stroke-width:4; stroke-opacity:1; fill:none" points="261.009,496.999 295.722,361.191 330.436,785.342 365.15,367.255 399.863,783.501 438.048,785.342 472.762,785.342 507.476,340.859 542.189,785.342 576.903,364.409 615.088,373.813 649.802,367.867 684.515,361.191 719.229,383.533 753.943,385.571 792.128,388.622 826.841,388.622 861.555,389.535 896.269,389.535 930.982,327.365 969.167,296.886 1003.88,299.401 1038.59,292.036 1073.31,294.55 1111.49,294.55 "/>
<path clip-path="url(#clip642)" d="M261.009 506.999 L253.939 504.069 L251.009 496.999 L253.939 489.929 L261.009 486.999 L268.079 489.929 L271.009 496.999 L268.079 504.069 Z" fill="#377db8" fill-rule="evenodd" fill-opacity="1" stroke="none"/>
<path clip-path="url(#clip642)" d="M295.722 371.191 L288.652 368.261 L285.722 361.191 L288.652 354.121 L295.722 351.191 L302.792 354.121 L305.722 361.191 L302.792 368.261 Z" fill="#377db8" fill-rule="evenodd" fill-opacity="1" stroke="none"/>
<path clip-path="url(#clip642)" d="M330.436 795.342 L323.366 792.412 L320.436 785.342 L323.366 778.272 L330.436 775.342 L337.506 778.272 L340.436 785.342 L337.506 792.412 Z" fill="#377db8" fill-rule="evenodd" fill-opacity="1" stroke="none"/>
<path clip-path="url(#clip642)" d="M365.15 377.255 L358.08 374.325 L355.15 367.255 L358.08 360.185 L365.15 357.255 L372.22 360.185 L375.15 367.255 L372.22 374.325 Z" fill="#377db8" fill-rule="evenodd" fill-opacity="1" stroke="none"/>
<path clip-path="url(#clip642)" d="M399.863 793.501 L392.793 790.571 L389.863 783.501 L392.793 776.431 L399.863 773.501 L406.933 776.431 L409.863 783.501 L406.933 790.571 Z" fill="#377db8" fill-rule="evenodd" fill-opacity="1" stroke="none"/>
<path clip-path="url(#clip642)" d="M438.048 795.342 L430.978 792.412 L428.048 785.342 L430.978 778.272 L438.048 775.342 L445.118 778.272 L448.048 785.342 L445.118 792.412 Z" fill="#377db8" fill-rule="evenodd" fill-opacity="1" stroke="none"/>
<path clip-path="url(#clip642)" d="M472.762 795.342 L465.692 792.412 L462.762 785.342 L465.692 778.272 L472.762 775.342 L479.832 778.272 L482.762 785.342 L479.832 792.412 Z" fill="#377db8" fill-rule="evenodd" fill-opacity="1" stroke="none"/>
<path clip-path="url(#clip642)" d="M507.476 350.859 L500.406 347.929 L497.476 340.859 L500.406 333.789 L507.476 330.859 L514.546 333.789 L517.476 340.859 L514.546 347.929 Z" fill="#377db8" fill-rule="evenodd" fill-opacity="1" stroke="none"/>
<path clip-path="url(#clip642)" d="M542.189 795.342 L535.119 792.412 L532.189 785.342 L535.119 778.272 L542.189 775.342 L549.259 778.272 L552.189 785.342 L549.259 792.412 Z" fill="#377db8" fill-rule="evenodd" fill-opacity="1" stroke="none"/>
<path clip-path="url(#clip642)" d="M576.903 374.409 L569.833 371.479 L566.903 364.409 L569.833 357.339 L576.903 354.409 L583.973 357.339 L586.903 364.409 L583.973 371.479 Z" fill="#377db8" fill-rule="evenodd" fill-opacity="1" stroke="none"/>
<path clip-path="url(#clip642)" d="M615.088 383.813 L608.018 380.883 L605.088 373.813 L608.018 366.743 L615.088 363.813 L622.158 366.743 L625.088 373.813 L622.158 380.883 Z" fill="#377db8" fill-rule="evenodd" fill-opacity="1" stroke="none"/>
<path clip-path="url(#clip642)" d="M649.802 377.867 L642.732 374.937 L639.802 367.867 L642.732 360.797 L649.802 357.867 L656.872 360.797 L659.802 367.867 L656.872 374.937 Z" fill="#377db8" fill-rule="evenodd" fill-opacity="1" stroke="none"/>
<path clip-path="url(#clip642)" d="M684.515 371.191 L677.445 368.261 L674.515 361.191 L677.445 354.121 L684.515 351.191 L691.585 354.121 L694.515 361.191 L691.585 368.261 Z" fill="#377db8" fill-rule="evenodd" fill-opacity="1" stroke="none"/>
<path clip-path="url(#clip642)" d="M719.229 393.533 L712.159 390.603 L709.229 383.533 L712.159 376.463 L719.229 373.533 L726.299 376.463 L729.229 383.533 L726.299 390.603 Z" fill="#377db8" fill-rule="evenodd" fill-opacity="1" stroke="none"/>
<path clip-path="url(#clip642)" d="M753.943 395.571 L746.873 392.641 L743.943 385.571 L746.873 378.501 L753.943 375.571 L761.013 378.501 L763.943 385.571 L761.013 392.641 Z" fill="#377db8" fill-rule="evenodd" fill-opacity="1" stroke="none"/>
<path clip-path="url(#clip642)" d="M792.128 398.622 L785.058 395.692 L782.128 388.622 L785.058 381.552 L792.128 378.622 L799.198 381.552 L802.128 388.622 L799.198 395.692 Z" fill="#377db8" fill-rule="evenodd" fill-opacity="1" stroke="none"/>
<path clip-path="url(#clip642)" d="M826.841 398.622 L819.771 395.692 L816.841 388.622 L819.771 381.552 L826.841 378.622 L833.911 381.552 L836.841 388.622 L833.911 395.692 Z" fill="#377db8" fill-rule="evenodd" fill-opacity="1" stroke="none"/>
<path clip-path="url(#clip642)" d="M861.555 399.535 L854.485 396.605 L851.555 389.535 L854.485 382.465 L861.555 379.535 L868.625 382.465 L871.555 389.535 L868.625 396.605 Z" fill="#377db8" fill-rule="evenodd" fill-opacity="1" stroke="none"/>
<path clip-path="url(#clip642)" d="M896.269 399.535 L889.199 396.605 L886.269 389.535 L889.199 382.465 L896.269 379.535 L903.339 382.465 L906.269 389.535 L903.339 396.605 Z" fill="#377db8" fill-rule="evenodd" fill-opacity="1" stroke="none"/>
<path clip-path="url(#clip642)" d="M930.982 337.365 L923.912 334.435 L920.982 327.365 L923.912 320.295 L930.982 317.365 L938.052 320.295 L940.982 327.365 L938.052 334.435 Z" fill="#377db8" fill-rule="evenodd" fill-opacity="1" stroke="none"/>
<path clip-path="url(#clip642)" d="M969.167 306.886 L962.097 303.956 L959.167 296.886 L962.097 289.816 L969.167 286.886 L976.237 289.816 L979.167 296.886 L976.237 303.956 Z" fill="#377db8" fill-rule="evenodd" fill-opacity="1" stroke="none"/>
<path clip-path="url(#clip642)" d="M1003.88 309.401 L996.811 306.471 L993.881 299.401 L996.811 292.331 L1003.88 289.401 L1010.95 292.331 L1013.88 299.401 L1010.95 306.471 Z" fill="#377db8" fill-rule="evenodd" fill-opacity="1" stroke="none"/>
<path clip-path="url(#clip642)" d="M1038.59 302.036 L1031.52 299.106 L1028.59 292.036 L1031.52 284.966 L1038.59 282.036 L1045.66 284.966 L1048.59 292.036 L1045.66 299.106 Z" fill="#377db8" fill-rule="evenodd" fill-opacity="1" stroke="none"/>
<path clip-path="url(#clip642)" d="M1073.31 304.55 L1066.24 301.62 L1063.31 294.55 L1066.24 287.48 L1073.31 284.55 L1080.38 287.48 L1083.31 294.55 L1080.38 301.62 Z" fill="#377db8" fill-rule="evenodd" fill-opacity="1" stroke="none"/>
<path clip-path="url(#clip642)" d="M1111.49 304.55 L1104.42 301.62 L1101.49 294.55 L1104.42 287.48 L1111.49 284.55 L1118.56 287.48 L1121.49 294.55 L1118.56 301.62 Z" fill="#377db8" fill-rule="evenodd" fill-opacity="1" stroke="none"/>
<polyline clip-path="url(#clip642)" style="stroke:#ff7e00; stroke-linecap:round; stroke-linejoin:round; stroke-width:4; stroke-opacity:1; fill:none" points="261.009,226.698 295.722,402.178 330.436,556.086 365.15,650.776 399.863,703.487 438.048,733.453 472.762,754.123 507.476,752.866 542.189,755.052 576.903,774.837 615.088,771.533 649.802,762.087 684.515,767.457 719.229,773.202 753.943,768.661 792.128,769.153 826.841,765.655 861.555,767.352 896.269,773.339 930.982,766.963 969.167,765.046 1003.88,775.996 1038.59,776.029 1073.31,758.979 1111.49,757.111 "/>
<path clip-path="url(#clip642)" d="M261.009 236.698 L253.939 233.768 L251.009 226.698 L253.939 219.628 L261.009 216.698 L268.079 219.628 L271.009 226.698 L268.079 233.768 Z" fill="#ff7e00" fill-rule="evenodd" fill-opacity="1" stroke="none"/>
<path clip-path="url(#clip642)" d="M295.722 412.178 L288.652 409.248 L285.722 402.178 L288.652 395.108 L295.722 392.178 L302.792 395.108 L305.722 402.178 L302.792 409.248 Z" fill="#ff7e00" fill-rule="evenodd" fill-opacity="1" stroke="none"/>
<path clip-path="url(#clip642)" d="M330.436 566.086 L323.366 563.156 L320.436 556.086 L323.366 549.016 L330.436 546.086 L337.506 549.016 L340.436 556.086 L337.506 563.156 Z" fill="#ff7e00" fill-rule="evenodd" fill-opacity="1" stroke="none"/>
<path clip-path="url(#clip642)" d="M365.15 660.776 L358.08 657.846 L355.15 650.776 L358.08 643.706 L365.15 640.776 L372.22 643.706 L375.15 650.776 L372.22 657.846 Z" fill="#ff7e00" fill-rule="evenodd" fill-opacity="1" stroke="none"/>
<path clip-path="url(#clip642)" d="M399.863 713.487 L392.793 710.557 L389.863 703.487 L392.793 696.417 L399.863 693.487 L406.933 696.417 L409.863 703.487 L406.933 710.557 Z" fill="#ff7e00" fill-rule="evenodd" fill-opacity="1" stroke="none"/>
<path clip-path="url(#clip642)" d="M438.048 743.453 L430.978 740.523 L428.048 733.453 L430.978 726.383 L438.048 723.453 L445.118 726.383 L448.048 733.453 L445.118 740.523 Z" fill="#ff7e00" fill-rule="evenodd" fill-opacity="1" stroke="none"/>
<path clip-path="url(#clip642)" d="M472.762 764.123 L465.692 761.193 L462.762 754.123 L465.692 747.053 L472.762 744.123 L479.832 747.053 L482.762 754.123 L479.832 761.193 Z" fill="#ff7e00" fill-rule="evenodd" fill-opacity="1" stroke="none"/>
<path clip-path="url(#clip642)" d="M507.476 762.866 L500.406 759.936 L497.476 752.866 L500.406 745.796 L507.476 742.866 L514.546 745.796 L517.476 752.866 L514.546 759.936 Z" fill="#ff7e00" fill-rule="evenodd" fill-opacity="1" stroke="none"/>
<path clip-path="url(#clip642)" d="M542.189 765.052 L535.119 762.122 L532.189 755.052 L535.119 747.982 L542.189 745.052 L549.259 747.982 L552.189 755.052 L549.259 762.122 Z" fill="#ff7e00" fill-rule="evenodd" fill-opacity="1" stroke="none"/>
<path clip-path="url(#clip642)" d="M576.903 784.837 L569.833 781.907 L566.903 774.837 L569.833 767.767 L576.903 764.837 L583.973 767.767 L586.903 774.837 L583.973 781.907 Z" fill="#ff7e00" fill-rule="evenodd" fill-opacity="1" stroke="none"/>
<path clip-path="url(#clip642)" d="M615.088 781.533 L608.018 778.603 L605.088 771.533 L608.018 764.463 L615.088 761.533 L622.158 764.463 L625.088 771.533 L622.158 778.603 Z" fill="#ff7e00" fill-rule="evenodd" fill-opacity="1" stroke="none"/>
<path clip-path="url(#clip642)" d="M649.802 772.087 L642.732 769.157 L639.802 762.087 L642.732 755.017 L649.802 752.087 L656.872 755.017 L659.802 762.087 L656.872 769.157 Z" fill="#ff7e00" fill-rule="evenodd" fill-opacity="1" stroke="none"/>
<path clip-path="url(#clip642)" d="M684.515 777.457 L677.445 774.527 L674.515 767.457 L677.445 760.387 L684.515 757.457 L691.585 760.387 L694.515 767.457 L691.585 774.527 Z" fill="#ff7e00" fill-rule="evenodd" fill-opacity="1" stroke="none"/>
<path clip-path="url(#clip642)" d="M719.229 783.202 L712.159 780.272 L709.229 773.202 L712.159 766.132 L719.229 763.202 L726.299 766.132 L729.229 773.202 L726.299 780.272 Z" fill="#ff7e00" fill-rule="evenodd" fill-opacity="1" stroke="none"/>
<path clip-path="url(#clip642)" d="M753.943 778.661 L746.873 775.731 L743.943 768.661 L746.873 761.591 L753.943 758.661 L761.013 761.591 L763.943 768.661 L761.013 775.731 Z" fill="#ff7e00" fill-rule="evenodd" fill-opacity="1" stroke="none"/>
<path clip-path="url(#clip642)" d="M792.128 779.153 L785.058 776.223 L782.128 769.153 L785.058 762.083 L792.128 759.153 L799.198 762.083 L802.128 769.153 L799.198 776.223 Z" fill="#ff7e00" fill-rule="evenodd" fill-opacity="1" stroke="none"/>
<path clip-path="url(#clip642)" d="M826.841 775.655 L819.771 772.725 L816.841 765.655 L819.771 758.585 L826.841 755.655 L833.911 758.585 L836.841 765.655 L833.911 772.725 Z" fill="#ff7e00" fill-rule="evenodd" fill-opacity="1" stroke="none"/>
<path clip-path="url(#clip642)" d="M861.555 777.352 L854.485 774.422 L851.555 767.352 L854.485 760.282 L861.555 757.352 L868.625 760.282 L871.555 767.352 L868.625 774.422 Z" fill="#ff7e00" fill-rule="evenodd" fill-opacity="1" stroke="none"/>
<path clip-path="url(#clip642)" d="M896.269 783.339 L889.199 780.409 L886.269 773.339 L889.199 766.269 L896.269 763.339 L903.339 766.269 L906.269 773.339 L903.339 780.409 Z" fill="#ff7e00" fill-rule="evenodd" fill-opacity="1" stroke="none"/>
<path clip-path="url(#clip642)" d="M930.982 776.963 L923.912 774.033 L920.982 766.963 L923.912 759.893 L930.982 756.963 L938.052 759.893 L940.982 766.963 L938.052 774.033 Z" fill="#ff7e00" fill-rule="evenodd" fill-opacity="1" stroke="none"/>
<path clip-path="url(#clip642)" d="M969.167 775.046 L962.097 772.116 L959.167 765.046 L962.097 757.976 L969.167 755.046 L976.237 757.976 L979.167 765.046 L976.237 772.116 Z" fill="#ff7e00" fill-rule="evenodd" fill-opacity="1" stroke="none"/>
<path clip-path="url(#clip642)" d="M1003.88 785.996 L996.811 783.066 L993.881 775.996 L996.811 768.926 L1003.88 765.996 L1010.95 768.926 L1013.88 775.996 L1010.95 783.066 Z" fill="#ff7e00" fill-rule="evenodd" fill-opacity="1" stroke="none"/>
<path clip-path="url(#clip642)" d="M1038.59 786.029 L1031.52 783.099 L1028.59 776.029 L1031.52 768.959 L1038.59 766.029 L1045.66 768.959 L1048.59 776.029 L1045.66 783.099 Z" fill="#ff7e00" fill-rule="evenodd" fill-opacity="1" stroke="none"/>
<path clip-path="url(#clip642)" d="M1073.31 768.979 L1066.24 766.049 L1063.31 758.979 L1066.24 751.909 L1073.31 748.979 L1080.38 751.909 L1083.31 758.979 L1080.38 766.049 Z" fill="#ff7e00" fill-rule="evenodd" fill-opacity="1" stroke="none"/>
<path clip-path="url(#clip642)" d="M1111.49 767.111 L1104.42 764.181 L1101.49 757.111 L1104.42 750.041 L1111.49 747.111 L1118.56 750.041 L1121.49 757.111 L1118.56 764.181 Z" fill="#ff7e00" fill-rule="evenodd" fill-opacity="1" stroke="none"/>
<path clip-path="url(#clip640)" d="M515.965 656.464 L1141.04 656.464 L1141.04 449.104 L515.965 449.104  Z" fill="#ffffff" fill-rule="evenodd" fill-opacity="1"/>
<polyline clip-path="url(#clip640)" style="stroke:#000000; stroke-linecap:round; stroke-linejoin:round; stroke-width:4; stroke-opacity:1; fill:none" points="515.965,656.464 1141.04,656.464 1141.04,449.104 515.965,449.104 515.965,656.464 "/>
<polyline clip-path="url(#clip640)" style="stroke:#e31a1c; stroke-linecap:round; stroke-linejoin:round; stroke-width:4; stroke-opacity:1; fill:none" points="525.982,500.944 586.083,500.944 "/>
<path clip-path="url(#clip640)" d="M556.032 510.219 L549.475 507.501 L546.758 500.944 L549.475 494.387 L556.032 491.669 L562.59 494.387 L565.307 500.944 L562.59 507.501 Z" fill="#e31a1c" fill-rule="evenodd" fill-opacity="1" stroke="none"/>
<path clip-path="url(#clip640)" d="M600.776 501.719 L600.776 514.381 L608.276 514.381 Q612.049 514.381 613.854 512.83 Q615.683 511.256 615.683 508.039 Q615.683 504.798 613.854 503.27 Q612.049 501.719 608.276 501.719 L600.776 501.719 M600.776 487.507 L600.776 497.923 L607.697 497.923 Q611.123 497.923 612.789 496.65 Q614.479 495.354 614.479 492.715 Q614.479 490.099 612.789 488.803 Q611.123 487.507 607.697 487.507 L600.776 487.507 M596.1 483.664 L608.044 483.664 Q613.391 483.664 616.285 485.886 Q619.178 488.108 619.178 492.206 Q619.178 495.377 617.697 497.252 Q616.215 499.127 613.345 499.59 Q616.794 500.331 618.692 502.692 Q620.613 505.03 620.613 508.548 Q620.613 513.178 617.465 515.701 Q614.317 518.224 608.507 518.224 L596.1 518.224 L596.1 483.664 Z" fill="#000000" fill-rule="nonzero" fill-opacity="1" /><path clip-path="url(#clip640)" d="M628.438 492.298 L632.697 492.298 L632.697 518.224 L628.438 518.224 L628.438 492.298 M628.438 482.206 L632.697 482.206 L632.697 487.599 L628.438 487.599 L628.438 482.206 Z" fill="#000000" fill-rule="nonzero" fill-opacity="1" /><path clip-path="url(#clip640)" d="M658.136 493.062 L658.136 497.09 Q656.331 496.164 654.386 495.701 Q652.442 495.238 650.359 495.238 Q647.187 495.238 645.59 496.21 Q644.016 497.182 644.016 499.127 Q644.016 500.608 645.15 501.465 Q646.285 502.298 649.711 503.062 L651.169 503.386 Q655.706 504.358 657.604 506.141 Q659.525 507.9 659.525 511.071 Q659.525 514.682 656.655 516.789 Q653.808 518.895 648.808 518.895 Q646.724 518.895 644.456 518.479 Q642.211 518.085 639.711 517.275 L639.711 512.877 Q642.072 514.104 644.363 514.729 Q646.655 515.33 648.9 515.33 Q651.91 515.33 653.53 514.312 Q655.15 513.27 655.15 511.395 Q655.15 509.659 653.97 508.733 Q652.812 507.807 648.854 506.951 L647.373 506.604 Q643.414 505.77 641.655 504.057 Q639.896 502.321 639.896 499.312 Q639.896 495.655 642.488 493.664 Q645.081 491.673 649.849 491.673 Q652.211 491.673 654.294 492.02 Q656.377 492.368 658.136 493.062 Z" fill="#000000" fill-rule="nonzero" fill-opacity="1" /><path clip-path="url(#clip640)" d="M670.521 484.937 L670.521 492.298 L679.294 492.298 L679.294 495.608 L670.521 495.608 L670.521 509.682 Q670.521 512.854 671.377 513.756 Q672.257 514.659 674.919 514.659 L679.294 514.659 L679.294 518.224 L674.919 518.224 Q669.988 518.224 668.113 516.395 Q666.238 514.543 666.238 509.682 L666.238 495.608 L663.113 495.608 L663.113 492.298 L666.238 492.298 L666.238 484.937 L670.521 484.937 Z" fill="#000000" fill-rule="nonzero" fill-opacity="1" /><path clip-path="url(#clip640)" d="M694.942 495.284 Q691.516 495.284 689.525 497.969 Q687.534 500.631 687.534 505.284 Q687.534 509.937 689.502 512.622 Q691.493 515.284 694.942 515.284 Q698.345 515.284 700.335 512.599 Q702.326 509.914 702.326 505.284 Q702.326 500.678 700.335 497.993 Q698.345 495.284 694.942 495.284 M694.942 491.673 Q700.497 491.673 703.669 495.284 Q706.84 498.895 706.84 505.284 Q706.84 511.65 703.669 515.284 Q700.497 518.895 694.942 518.895 Q689.363 518.895 686.192 515.284 Q683.044 511.65 683.044 505.284 Q683.044 498.895 686.192 495.284 Q689.363 491.673 694.942 491.673 Z" fill="#000000" fill-rule="nonzero" fill-opacity="1" /><path clip-path="url(#clip640)" d="M732.557 493.294 L732.557 497.275 Q730.752 496.28 728.923 495.794 Q727.118 495.284 725.266 495.284 Q721.122 495.284 718.831 497.923 Q716.539 500.539 716.539 505.284 Q716.539 510.03 718.831 512.668 Q721.122 515.284 725.266 515.284 Q727.118 515.284 728.923 514.798 Q730.752 514.289 732.557 513.293 L732.557 517.229 Q730.775 518.062 728.854 518.479 Q726.956 518.895 724.803 518.895 Q718.946 518.895 715.497 515.215 Q712.048 511.534 712.048 505.284 Q712.048 498.942 715.52 495.307 Q719.016 491.673 725.081 491.673 Q727.048 491.673 728.923 492.09 Q730.798 492.483 732.557 493.294 Z" fill="#000000" fill-rule="nonzero" fill-opacity="1" /><path clip-path="url(#clip640)" d="M761.516 502.576 L761.516 518.224 L757.256 518.224 L757.256 502.715 Q757.256 499.034 755.821 497.206 Q754.386 495.377 751.516 495.377 Q748.067 495.377 746.076 497.576 Q744.085 499.775 744.085 503.571 L744.085 518.224 L739.803 518.224 L739.803 482.206 L744.085 482.206 L744.085 496.326 Q745.613 493.988 747.673 492.831 Q749.756 491.673 752.465 491.673 Q756.932 491.673 759.224 494.451 Q761.516 497.206 761.516 502.576 Z" fill="#000000" fill-rule="nonzero" fill-opacity="1" /><path clip-path="url(#clip640)" d="M781.793 505.192 Q776.631 505.192 774.64 506.372 Q772.65 507.553 772.65 510.4 Q772.65 512.668 774.131 514.011 Q775.636 515.33 778.205 515.33 Q781.747 515.33 783.876 512.83 Q786.029 510.307 786.029 506.141 L786.029 505.192 L781.793 505.192 M790.289 503.432 L790.289 518.224 L786.029 518.224 L786.029 514.289 Q784.571 516.65 782.395 517.784 Q780.219 518.895 777.071 518.895 Q773.09 518.895 770.728 516.673 Q768.39 514.428 768.39 510.678 Q768.39 506.303 771.307 504.08 Q774.247 501.858 780.057 501.858 L786.029 501.858 L786.029 501.442 Q786.029 498.502 784.085 496.905 Q782.164 495.284 778.668 495.284 Q776.446 495.284 774.34 495.817 Q772.233 496.349 770.289 497.414 L770.289 493.479 Q772.627 492.576 774.826 492.136 Q777.025 491.673 779.108 491.673 Q784.733 491.673 787.511 494.59 Q790.289 497.506 790.289 503.432 Z" fill="#000000" fill-rule="nonzero" fill-opacity="1" /><path clip-path="url(#clip640)" d="M815.589 493.062 L815.589 497.09 Q813.784 496.164 811.839 495.701 Q809.895 495.238 807.812 495.238 Q804.64 495.238 803.043 496.21 Q801.469 497.182 801.469 499.127 Q801.469 500.608 802.603 501.465 Q803.738 502.298 807.163 503.062 L808.622 503.386 Q813.159 504.358 815.057 506.141 Q816.978 507.9 816.978 511.071 Q816.978 514.682 814.108 516.789 Q811.261 518.895 806.261 518.895 Q804.177 518.895 801.909 518.479 Q799.663 518.085 797.163 517.275 L797.163 512.877 Q799.525 514.104 801.816 514.729 Q804.108 515.33 806.353 515.33 Q809.362 515.33 810.983 514.312 Q812.603 513.27 812.603 511.395 Q812.603 509.659 811.423 508.733 Q810.265 507.807 806.307 506.951 L804.825 506.604 Q800.867 505.77 799.108 504.057 Q797.349 502.321 797.349 499.312 Q797.349 495.655 799.941 493.664 Q802.534 491.673 807.302 491.673 Q809.663 491.673 811.747 492.02 Q813.83 492.368 815.589 493.062 Z" fill="#000000" fill-rule="nonzero" fill-opacity="1" /><path clip-path="url(#clip640)" d="M827.973 484.937 L827.973 492.298 L836.747 492.298 L836.747 495.608 L827.973 495.608 L827.973 509.682 Q827.973 512.854 828.83 513.756 Q829.71 514.659 832.372 514.659 L836.747 514.659 L836.747 518.224 L832.372 518.224 Q827.441 518.224 825.566 516.395 Q823.691 514.543 823.691 509.682 L823.691 495.608 L820.566 495.608 L820.566 492.298 L823.691 492.298 L823.691 484.937 L827.973 484.937 Z" fill="#000000" fill-rule="nonzero" fill-opacity="1" /><path clip-path="url(#clip640)" d="M842.348 492.298 L846.608 492.298 L846.608 518.224 L842.348 518.224 L842.348 492.298 M842.348 482.206 L846.608 482.206 L846.608 487.599 L842.348 487.599 L842.348 482.206 Z" fill="#000000" fill-rule="nonzero" fill-opacity="1" /><path clip-path="url(#clip640)" d="M874.177 493.294 L874.177 497.275 Q872.371 496.28 870.543 495.794 Q868.737 495.284 866.885 495.284 Q862.742 495.284 860.45 497.923 Q858.159 500.539 858.159 505.284 Q858.159 510.03 860.45 512.668 Q862.742 515.284 866.885 515.284 Q868.737 515.284 870.543 514.798 Q872.371 514.289 874.177 513.293 L874.177 517.229 Q872.395 518.062 870.473 518.479 Q868.575 518.895 866.422 518.895 Q860.566 518.895 857.117 515.215 Q853.668 511.534 853.668 505.284 Q853.668 498.942 857.14 495.307 Q860.635 491.673 866.7 491.673 Q868.668 491.673 870.543 492.09 Q872.418 492.483 874.177 493.294 Z" fill="#000000" fill-rule="nonzero" fill-opacity="1" /><path clip-path="url(#clip640)" d="M896.839 483.664 L901.515 483.664 L901.515 514.289 L918.343 514.289 L918.343 518.224 L896.839 518.224 L896.839 483.664 Z" fill="#000000" fill-rule="nonzero" fill-opacity="1" /><path clip-path="url(#clip640)" d="M927.695 514.289 L944.015 514.289 L944.015 518.224 L922.07 518.224 L922.07 514.289 Q924.732 511.534 929.316 506.905 Q933.922 502.252 935.103 500.909 Q937.348 498.386 938.228 496.65 Q939.13 494.891 939.13 493.201 Q939.13 490.446 937.186 488.71 Q935.265 486.974 932.163 486.974 Q929.964 486.974 927.51 487.738 Q925.079 488.502 922.302 490.053 L922.302 485.331 Q925.126 484.196 927.579 483.618 Q930.033 483.039 932.07 483.039 Q937.44 483.039 940.635 485.724 Q943.829 488.409 943.829 492.9 Q943.829 495.03 943.019 496.951 Q942.232 498.849 940.126 501.442 Q939.547 502.113 936.445 505.33 Q933.343 508.525 927.695 514.289 Z" fill="#000000" fill-rule="nonzero" fill-opacity="1" /><path clip-path="url(#clip640)" d="M978.528 482.252 Q975.426 487.576 973.922 492.784 Q972.417 497.993 972.417 503.34 Q972.417 508.687 973.922 513.942 Q975.45 519.173 978.528 524.474 L974.825 524.474 Q971.352 519.034 969.616 513.78 Q967.903 508.525 967.903 503.34 Q967.903 498.178 969.616 492.946 Q971.329 487.715 974.825 482.252 L978.528 482.252 Z" fill="#000000" fill-rule="nonzero" fill-opacity="1" /><path clip-path="url(#clip640)" d="M1001 486.835 Q995.912 486.835 992.903 490.631 Q989.917 494.428 989.917 500.979 Q989.917 507.506 992.903 511.303 Q995.912 515.099 1001 515.099 Q1006.1 515.099 1009.06 511.303 Q1012.05 507.506 1012.05 500.979 Q1012.05 494.428 1009.06 490.631 Q1006.1 486.835 1001 486.835 M1007.56 517.599 L1013.71 524.335 L1008.07 524.335 L1002.95 518.803 Q1002.19 518.849 1001.77 518.872 Q1001.38 518.895 1001 518.895 Q993.713 518.895 989.338 514.034 Q984.987 509.15 984.987 500.979 Q984.987 492.784 989.338 487.923 Q993.713 483.039 1001 483.039 Q1008.27 483.039 1012.63 487.923 Q1016.98 492.784 1016.98 500.979 Q1016.98 506.997 1014.55 511.28 Q1012.14 515.562 1007.56 517.599 Z" fill="#000000" fill-rule="nonzero" fill-opacity="1" /><path clip-path="url(#clip640)" d="M1038.32 486.835 Q1033.23 486.835 1030.22 490.631 Q1027.23 494.428 1027.23 500.979 Q1027.23 507.506 1030.22 511.303 Q1033.23 515.099 1038.32 515.099 Q1043.41 515.099 1046.38 511.303 Q1049.36 507.506 1049.36 500.979 Q1049.36 494.428 1046.38 490.631 Q1043.41 486.835 1038.32 486.835 M1038.32 483.039 Q1045.59 483.039 1049.94 487.923 Q1054.29 492.784 1054.29 500.979 Q1054.29 509.15 1049.94 514.034 Q1045.59 518.895 1038.32 518.895 Q1031.03 518.895 1026.65 514.034 Q1022.3 509.173 1022.3 500.979 Q1022.3 492.784 1026.65 487.923 Q1031.03 483.039 1038.32 483.039 Z" fill="#000000" fill-rule="nonzero" fill-opacity="1" /><path clip-path="url(#clip640)" d="M1056.81 483.664 L1086.05 483.664 L1086.05 487.599 L1073.78 487.599 L1073.78 518.224 L1069.08 518.224 L1069.08 487.599 L1056.81 487.599 L1056.81 483.664 Z" fill="#000000" fill-rule="nonzero" fill-opacity="1" /><path clip-path="url(#clip640)" d="M1089.71 482.252 L1093.41 482.252 Q1096.88 487.715 1098.6 492.946 Q1100.33 498.178 1100.33 503.34 Q1100.33 508.525 1098.6 513.78 Q1096.88 519.034 1093.41 524.474 L1089.71 524.474 Q1092.79 519.173 1094.29 513.942 Q1095.82 508.687 1095.82 503.34 Q1095.82 497.993 1094.29 492.784 Q1092.79 487.576 1089.71 482.252 Z" fill="#000000" fill-rule="nonzero" fill-opacity="1" /><polyline clip-path="url(#clip640)" style="stroke:#377db8; stroke-linecap:round; stroke-linejoin:round; stroke-width:4; stroke-opacity:1; fill:none" points="525.982,552.784 586.083,552.784 "/>
<path clip-path="url(#clip640)" d="M556.032 562.059 L549.475 559.341 L546.758 552.784 L549.475 546.227 L556.032 543.509 L562.59 546.227 L565.307 552.784 L562.59 559.341 Z" fill="#377db8" fill-rule="evenodd" fill-opacity="1" stroke="none"/>
<path clip-path="url(#clip640)" d="M600.776 553.559 L600.776 566.221 L608.276 566.221 Q612.049 566.221 613.854 564.67 Q615.683 563.096 615.683 559.879 Q615.683 556.638 613.854 555.11 Q612.049 553.559 608.276 553.559 L600.776 553.559 M600.776 539.347 L600.776 549.763 L607.697 549.763 Q611.123 549.763 612.789 548.49 Q614.479 547.194 614.479 544.555 Q614.479 541.939 612.789 540.643 Q611.123 539.347 607.697 539.347 L600.776 539.347 M596.1 535.504 L608.044 535.504 Q613.391 535.504 616.285 537.726 Q619.178 539.948 619.178 544.046 Q619.178 547.217 617.697 549.092 Q616.215 550.967 613.345 551.43 Q616.794 552.171 618.692 554.532 Q620.613 556.87 620.613 560.388 Q620.613 565.018 617.465 567.541 Q614.317 570.064 608.507 570.064 L596.1 570.064 L596.1 535.504 Z" fill="#000000" fill-rule="nonzero" fill-opacity="1" /><path clip-path="url(#clip640)" d="M628.438 544.138 L632.697 544.138 L632.697 570.064 L628.438 570.064 L628.438 544.138 M628.438 534.046 L632.697 534.046 L632.697 539.439 L628.438 539.439 L628.438 534.046 Z" fill="#000000" fill-rule="nonzero" fill-opacity="1" /><path clip-path="url(#clip640)" d="M658.136 544.902 L658.136 548.93 Q656.331 548.004 654.386 547.541 Q652.442 547.078 650.359 547.078 Q647.187 547.078 645.59 548.05 Q644.016 549.022 644.016 550.967 Q644.016 552.448 645.15 553.305 Q646.285 554.138 649.711 554.902 L651.169 555.226 Q655.706 556.198 657.604 557.981 Q659.525 559.74 659.525 562.911 Q659.525 566.522 656.655 568.629 Q653.808 570.735 648.808 570.735 Q646.724 570.735 644.456 570.319 Q642.211 569.925 639.711 569.115 L639.711 564.717 Q642.072 565.944 644.363 566.569 Q646.655 567.17 648.9 567.17 Q651.91 567.17 653.53 566.152 Q655.15 565.11 655.15 563.235 Q655.15 561.499 653.97 560.573 Q652.812 559.647 648.854 558.791 L647.373 558.444 Q643.414 557.61 641.655 555.897 Q639.896 554.161 639.896 551.152 Q639.896 547.495 642.488 545.504 Q645.081 543.513 649.849 543.513 Q652.211 543.513 654.294 543.86 Q656.377 544.208 658.136 544.902 Z" fill="#000000" fill-rule="nonzero" fill-opacity="1" /><path clip-path="url(#clip640)" d="M670.521 536.777 L670.521 544.138 L679.294 544.138 L679.294 547.448 L670.521 547.448 L670.521 561.522 Q670.521 564.694 671.377 565.596 Q672.257 566.499 674.919 566.499 L679.294 566.499 L679.294 570.064 L674.919 570.064 Q669.988 570.064 668.113 568.235 Q666.238 566.383 666.238 561.522 L666.238 547.448 L663.113 547.448 L663.113 544.138 L666.238 544.138 L666.238 536.777 L670.521 536.777 Z" fill="#000000" fill-rule="nonzero" fill-opacity="1" /><path clip-path="url(#clip640)" d="M694.942 547.124 Q691.516 547.124 689.525 549.809 Q687.534 552.471 687.534 557.124 Q687.534 561.777 689.502 564.462 Q691.493 567.124 694.942 567.124 Q698.345 567.124 700.335 564.439 Q702.326 561.754 702.326 557.124 Q702.326 552.518 700.335 549.833 Q698.345 547.124 694.942 547.124 M694.942 543.513 Q700.497 543.513 703.669 547.124 Q706.84 550.735 706.84 557.124 Q706.84 563.49 703.669 567.124 Q700.497 570.735 694.942 570.735 Q689.363 570.735 686.192 567.124 Q683.044 563.49 683.044 557.124 Q683.044 550.735 686.192 547.124 Q689.363 543.513 694.942 543.513 Z" fill="#000000" fill-rule="nonzero" fill-opacity="1" /><path clip-path="url(#clip640)" d="M732.557 545.134 L732.557 549.115 Q730.752 548.12 728.923 547.634 Q727.118 547.124 725.266 547.124 Q721.122 547.124 718.831 549.763 Q716.539 552.379 716.539 557.124 Q716.539 561.87 718.831 564.508 Q721.122 567.124 725.266 567.124 Q727.118 567.124 728.923 566.638 Q730.752 566.129 732.557 565.133 L732.557 569.069 Q730.775 569.902 728.854 570.319 Q726.956 570.735 724.803 570.735 Q718.946 570.735 715.497 567.055 Q712.048 563.374 712.048 557.124 Q712.048 550.782 715.52 547.147 Q719.016 543.513 725.081 543.513 Q727.048 543.513 728.923 543.93 Q730.798 544.323 732.557 545.134 Z" fill="#000000" fill-rule="nonzero" fill-opacity="1" /><path clip-path="url(#clip640)" d="M761.516 554.416 L761.516 570.064 L757.256 570.064 L757.256 554.555 Q757.256 550.874 755.821 549.046 Q754.386 547.217 751.516 547.217 Q748.067 547.217 746.076 549.416 Q744.085 551.615 744.085 555.411 L744.085 570.064 L739.803 570.064 L739.803 534.046 L744.085 534.046 L744.085 548.166 Q745.613 545.828 747.673 544.671 Q749.756 543.513 752.465 543.513 Q756.932 543.513 759.224 546.291 Q761.516 549.046 761.516 554.416 Z" fill="#000000" fill-rule="nonzero" fill-opacity="1" /><path clip-path="url(#clip640)" d="M781.793 557.032 Q776.631 557.032 774.64 558.212 Q772.65 559.393 772.65 562.24 Q772.65 564.508 774.131 565.851 Q775.636 567.17 778.205 567.17 Q781.747 567.17 783.876 564.67 Q786.029 562.147 786.029 557.981 L786.029 557.032 L781.793 557.032 M790.289 555.272 L790.289 570.064 L786.029 570.064 L786.029 566.129 Q784.571 568.49 782.395 569.624 Q780.219 570.735 777.071 570.735 Q773.09 570.735 770.728 568.513 Q768.39 566.268 768.39 562.518 Q768.39 558.143 771.307 555.92 Q774.247 553.698 780.057 553.698 L786.029 553.698 L786.029 553.282 Q786.029 550.342 784.085 548.745 Q782.164 547.124 778.668 547.124 Q776.446 547.124 774.34 547.657 Q772.233 548.189 770.289 549.254 L770.289 545.319 Q772.627 544.416 774.826 543.976 Q777.025 543.513 779.108 543.513 Q784.733 543.513 787.511 546.43 Q790.289 549.346 790.289 555.272 Z" fill="#000000" fill-rule="nonzero" fill-opacity="1" /><path clip-path="url(#clip640)" d="M815.589 544.902 L815.589 548.93 Q813.784 548.004 811.839 547.541 Q809.895 547.078 807.812 547.078 Q804.64 547.078 803.043 548.05 Q801.469 549.022 801.469 550.967 Q801.469 552.448 802.603 553.305 Q803.738 554.138 807.163 554.902 L808.622 555.226 Q813.159 556.198 815.057 557.981 Q816.978 559.74 816.978 562.911 Q816.978 566.522 814.108 568.629 Q811.261 570.735 806.261 570.735 Q804.177 570.735 801.909 570.319 Q799.663 569.925 797.163 569.115 L797.163 564.717 Q799.525 565.944 801.816 566.569 Q804.108 567.17 806.353 567.17 Q809.362 567.17 810.983 566.152 Q812.603 565.11 812.603 563.235 Q812.603 561.499 811.423 560.573 Q810.265 559.647 806.307 558.791 L804.825 558.444 Q800.867 557.61 799.108 555.897 Q797.349 554.161 797.349 551.152 Q797.349 547.495 799.941 545.504 Q802.534 543.513 807.302 543.513 Q809.663 543.513 811.747 543.86 Q813.83 544.208 815.589 544.902 Z" fill="#000000" fill-rule="nonzero" fill-opacity="1" /><path clip-path="url(#clip640)" d="M827.973 536.777 L827.973 544.138 L836.747 544.138 L836.747 547.448 L827.973 547.448 L827.973 561.522 Q827.973 564.694 828.83 565.596 Q829.71 566.499 832.372 566.499 L836.747 566.499 L836.747 570.064 L832.372 570.064 Q827.441 570.064 825.566 568.235 Q823.691 566.383 823.691 561.522 L823.691 547.448 L820.566 547.448 L820.566 544.138 L823.691 544.138 L823.691 536.777 L827.973 536.777 Z" fill="#000000" fill-rule="nonzero" fill-opacity="1" /><path clip-path="url(#clip640)" d="M842.348 544.138 L846.608 544.138 L846.608 570.064 L842.348 570.064 L842.348 544.138 M842.348 534.046 L846.608 534.046 L846.608 539.439 L842.348 539.439 L842.348 534.046 Z" fill="#000000" fill-rule="nonzero" fill-opacity="1" /><path clip-path="url(#clip640)" d="M874.177 545.134 L874.177 549.115 Q872.371 548.12 870.543 547.634 Q868.737 547.124 866.885 547.124 Q862.742 547.124 860.45 549.763 Q858.159 552.379 858.159 557.124 Q858.159 561.87 860.45 564.508 Q862.742 567.124 866.885 567.124 Q868.737 567.124 870.543 566.638 Q872.371 566.129 874.177 565.133 L874.177 569.069 Q872.395 569.902 870.473 570.319 Q868.575 570.735 866.422 570.735 Q860.566 570.735 857.117 567.055 Q853.668 563.374 853.668 557.124 Q853.668 550.782 857.14 547.147 Q860.635 543.513 866.7 543.513 Q868.668 543.513 870.543 543.93 Q872.418 544.323 874.177 545.134 Z" fill="#000000" fill-rule="nonzero" fill-opacity="1" /><path clip-path="url(#clip640)" d="M896.839 535.504 L918.691 535.504 L918.691 539.439 L901.515 539.439 L901.515 549.671 L917.973 549.671 L917.973 553.606 L901.515 553.606 L901.515 566.129 L919.107 566.129 L919.107 570.064 L896.839 570.064 L896.839 535.504 Z" fill="#000000" fill-rule="nonzero" fill-opacity="1" /><path clip-path="url(#clip640)" d="M948.158 554.416 L948.158 570.064 L943.899 570.064 L943.899 554.555 Q943.899 550.874 942.464 549.046 Q941.028 547.217 938.158 547.217 Q934.709 547.217 932.718 549.416 Q930.728 551.615 930.728 555.411 L930.728 570.064 L926.445 570.064 L926.445 544.138 L930.728 544.138 L930.728 548.166 Q932.255 545.828 934.316 544.671 Q936.399 543.513 939.107 543.513 Q943.575 543.513 945.866 546.291 Q948.158 549.046 948.158 554.416 Z" fill="#000000" fill-rule="nonzero" fill-opacity="1" /><path clip-path="url(#clip640)" d="M960.866 536.777 L960.866 544.138 L969.639 544.138 L969.639 547.448 L960.866 547.448 L960.866 561.522 Q960.866 564.694 961.723 565.596 Q962.602 566.499 965.264 566.499 L969.639 566.499 L969.639 570.064 L965.264 570.064 Q960.334 570.064 958.459 568.235 Q956.584 566.383 956.584 561.522 L956.584 547.448 L953.459 547.448 L953.459 544.138 L956.584 544.138 L956.584 536.777 L960.866 536.777 Z" fill="#000000" fill-rule="nonzero" fill-opacity="1" /><path clip-path="url(#clip640)" d="M1000.54 534.092 Q997.44 539.416 995.936 544.624 Q994.431 549.833 994.431 555.18 Q994.431 560.527 995.936 565.782 Q997.463 571.013 1000.54 576.314 L996.838 576.314 Q993.366 570.874 991.63 565.62 Q989.917 560.365 989.917 555.18 Q989.917 550.018 991.63 544.786 Q993.343 539.555 996.838 534.092 L1000.54 534.092 Z" fill="#000000" fill-rule="nonzero" fill-opacity="1" /><path clip-path="url(#clip640)" d="M1008.99 535.504 L1030.84 535.504 L1030.84 539.439 L1013.67 539.439 L1013.67 549.671 L1030.13 549.671 L1030.13 553.606 L1013.67 553.606 L1013.67 566.129 L1031.26 566.129 L1031.26 570.064 L1008.99 570.064 L1008.99 535.504 Z" fill="#000000" fill-rule="nonzero" fill-opacity="1" /><path clip-path="url(#clip640)" d="M1052.97 538.675 Q1047.88 538.675 1044.87 542.471 Q1041.88 546.268 1041.88 552.819 Q1041.88 559.346 1044.87 563.143 Q1047.88 566.939 1052.97 566.939 Q1058.06 566.939 1061.03 563.143 Q1064.01 559.346 1064.01 552.819 Q1064.01 546.268 1061.03 542.471 Q1058.06 538.675 1052.97 538.675 M1052.97 534.879 Q1060.24 534.879 1064.59 539.763 Q1068.94 544.624 1068.94 552.819 Q1068.94 560.99 1064.59 565.874 Q1060.24 570.735 1052.97 570.735 Q1045.68 570.735 1041.31 565.874 Q1036.95 561.013 1036.95 552.819 Q1036.95 544.624 1041.31 539.763 Q1045.68 534.879 1052.97 534.879 Z" fill="#000000" fill-rule="nonzero" fill-opacity="1" /><path clip-path="url(#clip640)" d="M1071.47 535.504 L1100.7 535.504 L1100.7 539.439 L1088.44 539.439 L1088.44 570.064 L1083.74 570.064 L1083.74 539.439 L1071.47 539.439 L1071.47 535.504 Z" fill="#000000" fill-rule="nonzero" fill-opacity="1" /><path clip-path="url(#clip640)" d="M1104.36 534.092 L1108.06 534.092 Q1111.54 539.555 1113.25 544.786 Q1114.99 550.018 1114.99 555.18 Q1114.99 560.365 1113.25 565.62 Q1111.54 570.874 1108.06 576.314 L1104.36 576.314 Q1107.44 571.013 1108.94 565.782 Q1110.47 560.527 1110.47 555.18 Q1110.47 549.833 1108.94 544.624 Q1107.44 539.416 1104.36 534.092 Z" fill="#000000" fill-rule="nonzero" fill-opacity="1" /><polyline clip-path="url(#clip640)" style="stroke:#ff7e00; stroke-linecap:round; stroke-linejoin:round; stroke-width:4; stroke-opacity:1; fill:none" points="525.982,604.624 586.083,604.624 "/>
<path clip-path="url(#clip640)" d="M556.032 613.899 L549.475 611.181 L546.758 604.624 L549.475 598.067 L556.032 595.349 L562.59 598.067 L565.307 604.624 L562.59 611.181 Z" fill="#ff7e00" fill-rule="evenodd" fill-opacity="1" stroke="none"/>
<path clip-path="url(#clip640)" d="M596.1 585.886 L600.382 585.886 L600.382 607.159 L613.09 595.978 L618.53 595.978 L604.78 608.108 L619.109 621.904 L613.553 621.904 L600.382 609.242 L600.382 621.904 L596.1 621.904 L596.1 585.886 Z" fill="#000000" fill-rule="nonzero" fill-opacity="1" /><path clip-path="url(#clip640)" d="M623.901 587.344 L630.197 587.344 L645.521 616.256 L645.521 587.344 L650.058 587.344 L650.058 621.904 L643.762 621.904 L628.438 592.992 L628.438 621.904 L623.901 621.904 L623.901 587.344 Z" fill="#000000" fill-rule="nonzero" fill-opacity="1" /><path clip-path="url(#clip640)" d="M659.363 587.344 L665.66 587.344 L680.984 616.256 L680.984 587.344 L685.521 587.344 L685.521 621.904 L679.224 621.904 L663.9 592.992 L663.9 621.904 L659.363 621.904 L659.363 587.344 Z" fill="#000000" fill-rule="nonzero" fill-opacity="1" /><path clip-path="url(#clip640)" d="M711.979 592.182 L711.979 605.075 L724.872 605.075 L724.872 609.01 L711.979 609.01 L711.979 621.904 L708.09 621.904 L708.09 609.01 L695.196 609.01 L695.196 605.075 L708.09 605.075 L708.09 592.182 L711.979 592.182 Z" fill="#000000" fill-rule="nonzero" fill-opacity="1" /><path clip-path="url(#clip640)" d="M758.113 616.973 L758.113 607.691 L750.474 607.691 L750.474 603.848 L762.742 603.848 L762.742 618.686 Q760.034 620.608 756.77 621.603 Q753.506 622.575 749.803 622.575 Q741.701 622.575 737.117 617.853 Q732.557 613.108 732.557 604.659 Q732.557 596.186 737.117 591.464 Q741.701 586.719 749.803 586.719 Q753.182 586.719 756.215 587.552 Q759.27 588.386 761.84 590.006 L761.84 594.983 Q759.247 592.784 756.33 591.673 Q753.414 590.562 750.196 590.562 Q743.854 590.562 740.659 594.103 Q737.488 597.645 737.488 604.659 Q737.488 611.649 740.659 615.191 Q743.854 618.733 750.196 618.733 Q752.673 618.733 754.617 618.316 Q756.562 617.876 758.113 616.973 Z" fill="#000000" fill-rule="nonzero" fill-opacity="1" /><path clip-path="url(#clip640)" d="M782.881 608.872 Q777.719 608.872 775.728 610.052 Q773.738 611.233 773.738 614.08 Q773.738 616.348 775.219 617.691 Q776.724 619.01 779.293 619.01 Q782.835 619.01 784.964 616.51 Q787.117 613.987 787.117 609.821 L787.117 608.872 L782.881 608.872 M791.376 607.112 L791.376 621.904 L787.117 621.904 L787.117 617.969 Q785.659 620.33 783.483 621.464 Q781.307 622.575 778.159 622.575 Q774.177 622.575 771.816 620.353 Q769.478 618.108 769.478 614.358 Q769.478 609.983 772.395 607.76 Q775.335 605.538 781.145 605.538 L787.117 605.538 L787.117 605.122 Q787.117 602.182 785.173 600.585 Q783.252 598.964 779.756 598.964 Q777.534 598.964 775.427 599.497 Q773.321 600.029 771.377 601.094 L771.377 597.159 Q773.715 596.256 775.914 595.816 Q778.113 595.353 780.196 595.353 Q785.821 595.353 788.599 598.27 Q791.376 601.186 791.376 607.112 Z" fill="#000000" fill-rule="nonzero" fill-opacity="1" /><path clip-path="url(#clip640)" d="M799.71 611.673 L799.71 595.978 L803.969 595.978 L803.969 611.51 Q803.969 615.191 805.404 617.043 Q806.839 618.872 809.71 618.872 Q813.159 618.872 815.149 616.672 Q817.163 614.473 817.163 610.677 L817.163 595.978 L821.423 595.978 L821.423 621.904 L817.163 621.904 L817.163 617.922 Q815.612 620.284 813.552 621.441 Q811.515 622.575 808.807 622.575 Q804.339 622.575 802.025 619.797 Q799.71 617.02 799.71 611.673 M810.427 595.353 L810.427 595.353 Z" fill="#000000" fill-rule="nonzero" fill-opacity="1" /><path clip-path="url(#clip640)" d="M846.723 596.742 L846.723 600.77 Q844.918 599.844 842.973 599.381 Q841.029 598.918 838.946 598.918 Q835.774 598.918 834.177 599.89 Q832.603 600.862 832.603 602.807 Q832.603 604.288 833.737 605.145 Q834.872 605.978 838.298 606.742 L839.756 607.066 Q844.293 608.038 846.191 609.821 Q848.112 611.58 848.112 614.751 Q848.112 618.362 845.242 620.469 Q842.395 622.575 837.395 622.575 Q835.311 622.575 833.043 622.159 Q830.798 621.765 828.298 620.955 L828.298 616.557 Q830.659 617.784 832.95 618.409 Q835.242 619.01 837.487 619.01 Q840.497 619.01 842.117 617.992 Q843.737 616.95 843.737 615.075 Q843.737 613.339 842.557 612.413 Q841.399 611.487 837.441 610.631 L835.96 610.284 Q832.001 609.45 830.242 607.737 Q828.483 606.001 828.483 602.992 Q828.483 599.335 831.075 597.344 Q833.668 595.353 838.436 595.353 Q840.797 595.353 842.881 595.7 Q844.964 596.048 846.723 596.742 Z" fill="#000000" fill-rule="nonzero" fill-opacity="1" /><path clip-path="url(#clip640)" d="M871.422 596.742 L871.422 600.77 Q869.617 599.844 867.672 599.381 Q865.728 598.918 863.645 598.918 Q860.473 598.918 858.876 599.89 Q857.302 600.862 857.302 602.807 Q857.302 604.288 858.436 605.145 Q859.571 605.978 862.996 606.742 L864.455 607.066 Q868.992 608.038 870.89 609.821 Q872.811 611.58 872.811 614.751 Q872.811 618.362 869.941 620.469 Q867.094 622.575 862.094 622.575 Q860.01 622.575 857.742 622.159 Q855.496 621.765 852.996 620.955 L852.996 616.557 Q855.358 617.784 857.649 618.409 Q859.941 619.01 862.186 619.01 Q865.196 619.01 866.816 617.992 Q868.436 616.95 868.436 615.075 Q868.436 613.339 867.256 612.413 Q866.098 611.487 862.14 610.631 L860.658 610.284 Q856.7 609.45 854.941 607.737 Q853.182 606.001 853.182 602.992 Q853.182 599.335 855.774 597.344 Q858.367 595.353 863.135 595.353 Q865.496 595.353 867.58 595.7 Q869.663 596.048 871.422 596.742 Z" fill="#000000" fill-rule="nonzero" fill-opacity="1" /><path clip-path="url(#clip640)" d="M879.594 595.978 L883.853 595.978 L883.853 621.904 L879.594 621.904 L879.594 595.978 M879.594 585.886 L883.853 585.886 L883.853 591.279 L879.594 591.279 L879.594 585.886 Z" fill="#000000" fill-rule="nonzero" fill-opacity="1" /><path clip-path="url(#clip640)" d="M904.547 608.872 Q899.385 608.872 897.394 610.052 Q895.404 611.233 895.404 614.08 Q895.404 616.348 896.885 617.691 Q898.39 619.01 900.959 619.01 Q904.501 619.01 906.63 616.51 Q908.783 613.987 908.783 609.821 L908.783 608.872 L904.547 608.872 M913.042 607.112 L913.042 621.904 L908.783 621.904 L908.783 617.969 Q907.325 620.33 905.149 621.464 Q902.973 622.575 899.825 622.575 Q895.843 622.575 893.482 620.353 Q891.144 618.108 891.144 614.358 Q891.144 609.983 894.061 607.76 Q897.001 605.538 902.811 605.538 L908.783 605.538 L908.783 605.122 Q908.783 602.182 906.839 600.585 Q904.918 598.964 901.422 598.964 Q899.2 598.964 897.093 599.497 Q894.987 600.029 893.043 601.094 L893.043 597.159 Q895.381 596.256 897.58 595.816 Q899.779 595.353 901.862 595.353 Q907.487 595.353 910.265 598.27 Q913.042 601.186 913.042 607.112 Z" fill="#000000" fill-rule="nonzero" fill-opacity="1" /><path clip-path="url(#clip640)" d="M943.366 606.256 L943.366 621.904 L939.107 621.904 L939.107 606.395 Q939.107 602.714 937.672 600.886 Q936.237 599.057 933.366 599.057 Q929.917 599.057 927.927 601.256 Q925.936 603.455 925.936 607.251 L925.936 621.904 L921.654 621.904 L921.654 595.978 L925.936 595.978 L925.936 600.006 Q927.464 597.668 929.524 596.511 Q931.607 595.353 934.316 595.353 Q938.783 595.353 941.075 598.131 Q943.366 600.886 943.366 606.256 Z" fill="#000000" fill-rule="nonzero" fill-opacity="1" /><path clip-path="url(#clip640)" d="M952.95 616.024 L957.834 616.024 L957.834 620.006 L954.038 627.413 L951.052 627.413 L952.95 620.006 L952.95 616.024 Z" fill="#000000" fill-rule="nonzero" fill-opacity="1" /><path clip-path="url(#clip640)" d="M981.838 585.886 L986.121 585.886 L986.121 607.159 L998.829 595.978 L1004.27 595.978 L990.519 608.108 L1004.85 621.904 L999.292 621.904 L986.121 609.242 L986.121 621.904 L981.838 621.904 L981.838 585.886 Z" fill="#000000" fill-rule="nonzero" fill-opacity="1" /><path clip-path="url(#clip640)" d="M1025.08 600.376 L1054.75 600.376 L1054.75 604.265 L1025.08 604.265 L1025.08 600.376 M1025.08 609.821 L1054.75 609.821 L1054.75 613.756 L1025.08 613.756 L1025.08 609.821 Z" fill="#000000" fill-rule="nonzero" fill-opacity="1" /><path clip-path="url(#clip640)" d="M1083.94 617.969 L1100.26 617.969 L1100.26 621.904 L1078.32 621.904 L1078.32 617.969 Q1080.98 615.214 1085.56 610.585 Q1090.17 605.932 1091.35 604.589 Q1093.6 602.066 1094.48 600.33 Q1095.38 598.571 1095.38 596.881 Q1095.38 594.126 1093.44 592.39 Q1091.51 590.654 1088.41 590.654 Q1086.21 590.654 1083.76 591.418 Q1081.33 592.182 1078.55 593.733 L1078.55 589.011 Q1081.37 587.876 1083.83 587.298 Q1086.28 586.719 1088.32 586.719 Q1093.69 586.719 1096.88 589.404 Q1100.08 592.089 1100.08 596.58 Q1100.08 598.71 1099.27 600.631 Q1098.48 602.529 1096.37 605.122 Q1095.8 605.793 1092.69 609.01 Q1089.59 612.205 1083.94 617.969 Z" fill="#000000" fill-rule="nonzero" fill-opacity="1" /><path clip-path="url(#clip640)" d="M1110.12 587.344 L1128.48 587.344 L1128.48 591.279 L1114.41 591.279 L1114.41 599.751 Q1115.43 599.404 1116.44 599.242 Q1117.46 599.057 1118.48 599.057 Q1124.27 599.057 1127.65 602.228 Q1131.03 605.399 1131.03 610.816 Q1131.03 616.395 1127.56 619.497 Q1124.08 622.575 1117.76 622.575 Q1115.59 622.575 1113.32 622.205 Q1111.07 621.834 1108.67 621.094 L1108.67 616.395 Q1110.75 617.529 1112.97 618.085 Q1115.19 618.64 1117.67 618.64 Q1121.68 618.64 1124.01 616.534 Q1126.35 614.427 1126.35 610.816 Q1126.35 607.205 1124.01 605.098 Q1121.68 602.992 1117.67 602.992 Q1115.8 602.992 1113.92 603.409 Q1112.07 603.825 1110.12 604.705 L1110.12 587.344 Z" fill="#000000" fill-rule="nonzero" fill-opacity="1" /></svg>
