<?xml version="1.0" encoding="utf-8"?>
<svg xmlns="http://www.w3.org/2000/svg" xmlns:xlink="http://www.w3.org/1999/xlink" width="500" height="250" viewBox="0 0 2000 1000">
<defs>
  <clipPath id="clip710">
    <rect x="0" y="0" width="2000" height="1000"/>
  </clipPath>
</defs>
<path clip-path="url(#clip710)" d="M0 1000 L2000 1000 L2000 0 L0 0  Z" fill="#ffffff" fill-rule="evenodd" fill-opacity="1"/>
<defs>
  <clipPath id="clip711">
    <rect x="400" y="0" width="1401" height="1000"/>
  </clipPath>
</defs>
<path clip-path="url(#clip710)" d="M203.986 849.7 L1346.05 849.7 L1346.05 47.2441 L203.986 47.2441  Z" fill="#ffffff" fill-rule="evenodd" fill-opacity="1"/>
<defs>
  <clipPath id="clip712">
    <rect x="203" y="47" width="1143" height="803"/>
  </clipPath>
</defs>
<polyline clip-path="url(#clip712)" style="stroke:#000000; stroke-linecap:round; stroke-linejoin:round; stroke-width:2; stroke-opacity:0.1; fill:none" points="214.321,849.7 214.321,47.2441 "/>
<polyline clip-path="url(#clip712)" style="stroke:#000000; stroke-linecap:round; stroke-linejoin:round; stroke-width:2; stroke-opacity:0.1; fill:none" points="434.201,849.7 434.201,47.2441 "/>
<polyline clip-path="url(#clip712)" style="stroke:#000000; stroke-linecap:round; stroke-linejoin:round; stroke-width:2; stroke-opacity:0.1; fill:none" points="654.082,849.7 654.082,47.2441 "/>
<polyline clip-path="url(#clip712)" style="stroke:#000000; stroke-linecap:round; stroke-linejoin:round; stroke-width:2; stroke-opacity:0.1; fill:none" points="873.963,849.7 873.963,47.2441 "/>
<polyline clip-path="url(#clip712)" style="stroke:#000000; stroke-linecap:round; stroke-linejoin:round; stroke-width:2; stroke-opacity:0.1; fill:none" points="1093.84,849.7 1093.84,47.2441 "/>
<polyline clip-path="url(#clip712)" style="stroke:#000000; stroke-linecap:round; stroke-linejoin:round; stroke-width:2; stroke-opacity:0.1; fill:none" points="1313.72,849.7 1313.72,47.2441 "/>
<polyline clip-path="url(#clip712)" style="stroke:#000000; stroke-linecap:round; stroke-linejoin:round; stroke-width:2; stroke-opacity:0.1; fill:none" points="203.986,849.7 1346.05,849.7 "/>
<polyline clip-path="url(#clip712)" style="stroke:#000000; stroke-linecap:round; stroke-linejoin:round; stroke-width:2; stroke-opacity:0.1; fill:none" points="203.986,689.209 1346.05,689.209 "/>
<polyline clip-path="url(#clip712)" style="stroke:#000000; stroke-linecap:round; stroke-linejoin:round; stroke-width:2; stroke-opacity:0.1; fill:none" points="203.986,528.718 1346.05,528.718 "/>
<polyline clip-path="url(#clip712)" style="stroke:#000000; stroke-linecap:round; stroke-linejoin:round; stroke-width:2; stroke-opacity:0.1; fill:none" points="203.986,368.226 1346.05,368.226 "/>
<polyline clip-path="url(#clip712)" style="stroke:#000000; stroke-linecap:round; stroke-linejoin:round; stroke-width:2; stroke-opacity:0.1; fill:none" points="203.986,207.735 1346.05,207.735 "/>
<polyline clip-path="url(#clip712)" style="stroke:#000000; stroke-linecap:round; stroke-linejoin:round; stroke-width:2; stroke-opacity:0.1; fill:none" points="203.986,47.2441 1346.05,47.2441 "/>
<polyline clip-path="url(#clip710)" style="stroke:#000000; stroke-linecap:round; stroke-linejoin:round; stroke-width:4; stroke-opacity:1; fill:none" points="203.986,849.7 1346.05,849.7 "/>
<polyline clip-path="url(#clip710)" style="stroke:#000000; stroke-linecap:round; stroke-linejoin:round; stroke-width:4; stroke-opacity:1; fill:none" points="214.321,849.7 214.321,830.802 "/>
<polyline clip-path="url(#clip710)" style="stroke:#000000; stroke-linecap:round; stroke-linejoin:round; stroke-width:4; stroke-opacity:1; fill:none" points="434.201,849.7 434.201,830.802 "/>
<polyline clip-path="url(#clip710)" style="stroke:#000000; stroke-linecap:round; stroke-linejoin:round; stroke-width:4; stroke-opacity:1; fill:none" points="654.082,849.7 654.082,830.802 "/>
<polyline clip-path="url(#clip710)" style="stroke:#000000; stroke-linecap:round; stroke-linejoin:round; stroke-width:4; stroke-opacity:1; fill:none" points="873.963,849.7 873.963,830.802 "/>
<polyline clip-path="url(#clip710)" style="stroke:#000000; stroke-linecap:round; stroke-linejoin:round; stroke-width:4; stroke-opacity:1; fill:none" points="1093.84,849.7 1093.84,830.802 "/>
<polyline clip-path="url(#clip710)" style="stroke:#000000; stroke-linecap:round; stroke-linejoin:round; stroke-width:4; stroke-opacity:1; fill:none" points="1313.72,849.7 1313.72,830.802 "/>
<path clip-path="url(#clip710)" d="M214.321 877.419 Q210.71 877.419 208.881 880.983 Q207.075 884.525 207.075 891.655 Q207.075 898.761 208.881 902.326 Q210.71 905.867 214.321 905.867 Q217.955 905.867 219.76 902.326 Q221.589 898.761 221.589 891.655 Q221.589 884.525 219.76 880.983 Q217.955 877.419 214.321 877.419 M214.321 873.715 Q220.131 873.715 223.186 878.321 Q226.265 882.905 226.265 891.655 Q226.265 900.381 223.186 904.988 Q220.131 909.571 214.321 909.571 Q208.511 909.571 205.432 904.988 Q202.376 900.381 202.376 891.655 Q202.376 882.905 205.432 878.321 Q208.511 873.715 214.321 873.715 Z" fill="#000000" fill-rule="nonzero" fill-opacity="1" /><path clip-path="url(#clip710)" d="M408.901 874.34 L427.257 874.34 L427.257 878.275 L413.183 878.275 L413.183 886.747 Q414.202 886.4 415.22 886.238 Q416.239 886.053 417.257 886.053 Q423.044 886.053 426.424 889.224 Q429.803 892.395 429.803 897.812 Q429.803 903.391 426.331 906.492 Q422.859 909.571 416.539 909.571 Q414.364 909.571 412.095 909.201 Q409.85 908.83 407.442 908.09 L407.442 903.391 Q409.526 904.525 411.748 905.08 Q413.97 905.636 416.447 905.636 Q420.451 905.636 422.789 903.53 Q425.127 901.423 425.127 897.812 Q425.127 894.201 422.789 892.094 Q420.451 889.988 416.447 889.988 Q414.572 889.988 412.697 890.405 Q410.845 890.821 408.901 891.701 L408.901 874.34 Z" fill="#000000" fill-rule="nonzero" fill-opacity="1" /><path clip-path="url(#clip710)" d="M449.016 877.419 Q445.405 877.419 443.576 880.983 Q441.771 884.525 441.771 891.655 Q441.771 898.761 443.576 902.326 Q445.405 905.867 449.016 905.867 Q452.65 905.867 454.456 902.326 Q456.285 898.761 456.285 891.655 Q456.285 884.525 454.456 880.983 Q452.65 877.419 449.016 877.419 M449.016 873.715 Q454.826 873.715 457.882 878.321 Q460.961 882.905 460.961 891.655 Q460.961 900.381 457.882 904.988 Q454.826 909.571 449.016 909.571 Q443.206 909.571 440.127 904.988 Q437.072 900.381 437.072 891.655 Q437.072 882.905 440.127 878.321 Q443.206 873.715 449.016 873.715 Z" fill="#000000" fill-rule="nonzero" fill-opacity="1" /><path clip-path="url(#clip710)" d="M613.689 904.965 L621.328 904.965 L621.328 878.599 L613.018 880.266 L613.018 876.007 L621.281 874.34 L625.957 874.34 L625.957 904.965 L633.596 904.965 L633.596 908.9 L613.689 908.9 L613.689 904.965 Z" fill="#000000" fill-rule="nonzero" fill-opacity="1" /><path clip-path="url(#clip710)" d="M653.041 877.419 Q649.429 877.419 647.601 880.983 Q645.795 884.525 645.795 891.655 Q645.795 898.761 647.601 902.326 Q649.429 905.867 653.041 905.867 Q656.675 905.867 658.48 902.326 Q660.309 898.761 660.309 891.655 Q660.309 884.525 658.48 880.983 Q656.675 877.419 653.041 877.419 M653.041 873.715 Q658.851 873.715 661.906 878.321 Q664.985 882.905 664.985 891.655 Q664.985 900.381 661.906 904.988 Q658.851 909.571 653.041 909.571 Q647.23 909.571 644.152 904.988 Q641.096 900.381 641.096 891.655 Q641.096 882.905 644.152 878.321 Q647.23 873.715 653.041 873.715 Z" fill="#000000" fill-rule="nonzero" fill-opacity="1" /><path clip-path="url(#clip710)" d="M683.202 877.419 Q679.591 877.419 677.763 880.983 Q675.957 884.525 675.957 891.655 Q675.957 898.761 677.763 902.326 Q679.591 905.867 683.202 905.867 Q686.837 905.867 688.642 902.326 Q690.471 898.761 690.471 891.655 Q690.471 884.525 688.642 880.983 Q686.837 877.419 683.202 877.419 M683.202 873.715 Q689.013 873.715 692.068 878.321 Q695.147 882.905 695.147 891.655 Q695.147 900.381 692.068 904.988 Q689.013 909.571 683.202 909.571 Q677.392 909.571 674.314 904.988 Q671.258 900.381 671.258 891.655 Q671.258 882.905 674.314 878.321 Q677.392 873.715 683.202 873.715 Z" fill="#000000" fill-rule="nonzero" fill-opacity="1" /><path clip-path="url(#clip710)" d="M833.57 904.965 L841.209 904.965 L841.209 878.599 L832.898 880.266 L832.898 876.007 L841.162 874.34 L845.838 874.34 L845.838 904.965 L853.477 904.965 L853.477 908.9 L833.57 908.9 L833.57 904.965 Z" fill="#000000" fill-rule="nonzero" fill-opacity="1" /><path clip-path="url(#clip710)" d="M862.968 874.34 L881.324 874.34 L881.324 878.275 L867.25 878.275 L867.25 886.747 Q868.269 886.4 869.287 886.238 Q870.306 886.053 871.324 886.053 Q877.111 886.053 880.491 889.224 Q883.87 892.395 883.87 897.812 Q883.87 903.391 880.398 906.492 Q876.926 909.571 870.606 909.571 Q868.431 909.571 866.162 909.201 Q863.917 908.83 861.509 908.09 L861.509 903.391 Q863.593 904.525 865.815 905.08 Q868.037 905.636 870.514 905.636 Q874.519 905.636 876.856 903.53 Q879.194 901.423 879.194 897.812 Q879.194 894.201 876.856 892.094 Q874.519 889.988 870.514 889.988 Q868.639 889.988 866.764 890.405 Q864.912 890.821 862.968 891.701 L862.968 874.34 Z" fill="#000000" fill-rule="nonzero" fill-opacity="1" /><path clip-path="url(#clip710)" d="M903.083 877.419 Q899.472 877.419 897.643 880.983 Q895.838 884.525 895.838 891.655 Q895.838 898.761 897.643 902.326 Q899.472 905.867 903.083 905.867 Q906.717 905.867 908.523 902.326 Q910.352 898.761 910.352 891.655 Q910.352 884.525 908.523 880.983 Q906.717 877.419 903.083 877.419 M903.083 873.715 Q908.893 873.715 911.949 878.321 Q915.028 882.905 915.028 891.655 Q915.028 900.381 911.949 904.988 Q908.893 909.571 903.083 909.571 Q897.273 909.571 894.194 904.988 Q891.139 900.381 891.139 891.655 Q891.139 882.905 894.194 878.321 Q897.273 873.715 903.083 873.715 Z" fill="#000000" fill-rule="nonzero" fill-opacity="1" /><path clip-path="url(#clip710)" d="M1057.54 904.965 L1073.86 904.965 L1073.86 908.9 L1051.91 908.9 L1051.91 904.965 Q1054.57 902.21 1059.16 897.58 Q1063.76 892.928 1064.94 891.585 Q1067.19 889.062 1068.07 887.326 Q1068.97 885.567 1068.97 883.877 Q1068.97 881.122 1067.03 879.386 Q1065.11 877.65 1062 877.65 Q1059.8 877.65 1057.35 878.414 Q1054.92 879.178 1052.14 880.729 L1052.14 876.007 Q1054.97 874.872 1057.42 874.294 Q1059.87 873.715 1061.91 873.715 Q1067.28 873.715 1070.48 876.4 Q1073.67 879.085 1073.67 883.576 Q1073.67 885.706 1072.86 887.627 Q1072.07 889.525 1069.97 892.118 Q1069.39 892.789 1066.29 896.006 Q1063.18 899.201 1057.54 904.965 Z" fill="#000000" fill-rule="nonzero" fill-opacity="1" /><path clip-path="url(#clip710)" d="M1093.67 877.419 Q1090.06 877.419 1088.23 880.983 Q1086.42 884.525 1086.42 891.655 Q1086.42 898.761 1088.23 902.326 Q1090.06 905.867 1093.67 905.867 Q1097.3 905.867 1099.11 902.326 Q1100.94 898.761 1100.94 891.655 Q1100.94 884.525 1099.11 880.983 Q1097.3 877.419 1093.67 877.419 M1093.67 873.715 Q1099.48 873.715 1102.54 878.321 Q1105.61 882.905 1105.61 891.655 Q1105.61 900.381 1102.54 904.988 Q1099.48 909.571 1093.67 909.571 Q1087.86 909.571 1084.78 904.988 Q1081.73 900.381 1081.73 891.655 Q1081.73 882.905 1084.78 878.321 Q1087.86 873.715 1093.67 873.715 Z" fill="#000000" fill-rule="nonzero" fill-opacity="1" /><path clip-path="url(#clip710)" d="M1123.83 877.419 Q1120.22 877.419 1118.39 880.983 Q1116.59 884.525 1116.59 891.655 Q1116.59 898.761 1118.39 902.326 Q1120.22 905.867 1123.83 905.867 Q1127.47 905.867 1129.27 902.326 Q1131.1 898.761 1131.1 891.655 Q1131.1 884.525 1129.27 880.983 Q1127.47 877.419 1123.83 877.419 M1123.83 873.715 Q1129.64 873.715 1132.7 878.321 Q1135.78 882.905 1135.78 891.655 Q1135.78 900.381 1132.7 904.988 Q1129.64 909.571 1123.83 909.571 Q1118.02 909.571 1114.94 904.988 Q1111.89 900.381 1111.89 891.655 Q1111.89 882.905 1114.94 878.321 Q1118.02 873.715 1123.83 873.715 Z" fill="#000000" fill-rule="nonzero" fill-opacity="1" /><path clip-path="url(#clip710)" d="M1277.42 904.965 L1293.74 904.965 L1293.74 908.9 L1271.79 908.9 L1271.79 904.965 Q1274.45 902.21 1279.04 897.58 Q1283.64 892.928 1284.82 891.585 Q1287.07 889.062 1287.95 887.326 Q1288.85 885.567 1288.85 883.877 Q1288.85 881.122 1286.91 879.386 Q1284.99 877.65 1281.88 877.65 Q1279.69 877.65 1277.23 878.414 Q1274.8 879.178 1272.02 880.729 L1272.02 876.007 Q1274.85 874.872 1277.3 874.294 Q1279.75 873.715 1281.79 873.715 Q1287.16 873.715 1290.36 876.4 Q1293.55 879.085 1293.55 883.576 Q1293.55 885.706 1292.74 887.627 Q1291.95 889.525 1289.85 892.118 Q1289.27 892.789 1286.17 896.006 Q1283.06 899.201 1277.42 904.965 Z" fill="#000000" fill-rule="nonzero" fill-opacity="1" /><path clip-path="url(#clip710)" d="M1303.6 874.34 L1321.95 874.34 L1321.95 878.275 L1307.88 878.275 L1307.88 886.747 Q1308.9 886.4 1309.92 886.238 Q1310.94 886.053 1311.95 886.053 Q1317.74 886.053 1321.12 889.224 Q1324.5 892.395 1324.5 897.812 Q1324.5 903.391 1321.03 906.492 Q1317.56 909.571 1311.24 909.571 Q1309.06 909.571 1306.79 909.201 Q1304.55 908.83 1302.14 908.09 L1302.14 903.391 Q1304.22 904.525 1306.44 905.08 Q1308.67 905.636 1311.14 905.636 Q1315.15 905.636 1317.49 903.53 Q1319.82 901.423 1319.82 897.812 Q1319.82 894.201 1317.49 892.094 Q1315.15 889.988 1311.14 889.988 Q1309.27 889.988 1307.39 890.405 Q1305.54 890.821 1303.6 891.701 L1303.6 874.34 Z" fill="#000000" fill-rule="nonzero" fill-opacity="1" /><path clip-path="url(#clip710)" d="M1343.71 877.419 Q1340.1 877.419 1338.27 880.983 Q1336.47 884.525 1336.47 891.655 Q1336.47 898.761 1338.27 902.326 Q1340.1 905.867 1343.71 905.867 Q1347.35 905.867 1349.15 902.326 Q1350.98 898.761 1350.98 891.655 Q1350.98 884.525 1349.15 880.983 Q1347.35 877.419 1343.71 877.419 M1343.71 873.715 Q1349.52 873.715 1352.58 878.321 Q1355.66 882.905 1355.66 891.655 Q1355.66 900.381 1352.58 904.988 Q1349.52 909.571 1343.71 909.571 Q1337.9 909.571 1334.82 904.988 Q1331.77 900.381 1331.77 891.655 Q1331.77 882.905 1334.82 878.321 Q1337.9 873.715 1343.71 873.715 Z" fill="#000000" fill-rule="nonzero" fill-opacity="1" /><path clip-path="url(#clip710)" d="M509.805 946.327 L509.805 964.183 L517.89 964.183 Q522.378 964.183 524.828 961.86 Q527.279 959.536 527.279 955.239 Q527.279 950.974 524.828 948.651 Q522.378 946.327 517.89 946.327 L509.805 946.327 M503.376 941.044 L517.89 941.044 Q525.879 941.044 529.953 944.672 Q534.059 948.269 534.059 955.239 Q534.059 962.273 529.953 965.87 Q525.879 969.467 517.89 969.467 L509.805 969.467 L509.805 988.564 L503.376 988.564 L503.376 941.044 Z" fill="#000000" fill-rule="nonzero" fill-opacity="1" /><path clip-path="url(#clip710)" d="M578.269 944.704 L578.269 951.484 Q575.022 948.46 571.33 946.964 Q567.67 945.468 563.532 945.468 Q555.384 945.468 551.055 950.465 Q546.726 955.43 546.726 964.852 Q546.726 974.241 551.055 979.238 Q555.384 984.203 563.532 984.203 Q567.67 984.203 571.33 982.707 Q575.022 981.211 578.269 978.188 L578.269 984.904 Q574.895 987.195 571.107 988.341 Q567.351 989.487 563.15 989.487 Q552.36 989.487 546.154 982.898 Q539.947 976.278 539.947 964.852 Q539.947 953.393 546.154 946.805 Q552.36 940.184 563.15 940.184 Q567.415 940.184 571.171 941.33 Q574.958 942.444 578.269 944.704 Z" fill="#000000" fill-rule="nonzero" fill-opacity="1" /><path clip-path="url(#clip710)" d="M604.081 947.378 L595.36 971.026 L612.834 971.026 L604.081 947.378 M600.453 941.044 L607.742 941.044 L625.852 988.564 L619.168 988.564 L614.84 976.374 L593.419 976.374 L589.09 988.564 L582.311 988.564 L600.453 941.044 Z" fill="#000000" fill-rule="nonzero" fill-opacity="1" /><path clip-path="url(#clip710)" d="M678.91 954.285 L678.91 959.759 Q676.428 958.39 673.913 957.722 Q671.431 957.022 668.884 957.022 Q663.187 957.022 660.036 960.65 Q656.885 964.247 656.885 970.772 Q656.885 977.297 660.036 980.925 Q663.187 984.522 668.884 984.522 Q671.431 984.522 673.913 983.853 Q676.428 983.153 678.91 981.784 L678.91 987.195 Q676.46 988.341 673.818 988.914 Q671.208 989.487 668.248 989.487 Q660.195 989.487 655.453 984.426 Q650.71 979.365 650.71 970.772 Q650.71 962.051 655.485 957.054 Q660.291 952.057 668.63 952.057 Q671.335 952.057 673.913 952.629 Q676.491 953.171 678.91 954.285 Z" fill="#000000" fill-rule="nonzero" fill-opacity="1" /><path clip-path="url(#clip710)" d="M702.909 957.022 Q698.198 957.022 695.461 960.714 Q692.724 964.374 692.724 970.772 Q692.724 977.169 695.429 980.861 Q698.167 984.522 702.909 984.522 Q707.588 984.522 710.325 980.83 Q713.062 977.137 713.062 970.772 Q713.062 964.438 710.325 960.746 Q707.588 957.022 702.909 957.022 M702.909 952.057 Q710.548 952.057 714.908 957.022 Q719.269 961.987 719.269 970.772 Q719.269 979.525 714.908 984.522 Q710.548 989.487 702.909 989.487 Q695.238 989.487 690.878 984.522 Q686.549 979.525 686.549 970.772 Q686.549 961.987 690.878 957.022 Q695.238 952.057 702.909 952.057 Z" fill="#000000" fill-rule="nonzero" fill-opacity="1" /><path clip-path="url(#clip710)" d="M756.731 959.759 Q758.927 955.812 761.983 953.934 Q765.038 952.057 769.176 952.057 Q774.746 952.057 777.77 955.971 Q780.793 959.855 780.793 967.048 L780.793 988.564 L774.905 988.564 L774.905 967.239 Q774.905 962.114 773.091 959.632 Q771.277 957.149 767.553 957.149 Q763.001 957.149 760.36 960.173 Q757.718 963.197 757.718 968.416 L757.718 988.564 L751.83 988.564 L751.83 967.239 Q751.83 962.083 750.015 959.632 Q748.201 957.149 744.413 957.149 Q739.926 957.149 737.284 960.205 Q734.642 963.228 734.642 968.416 L734.642 988.564 L728.754 988.564 L728.754 952.916 L734.642 952.916 L734.642 958.454 Q736.647 955.176 739.448 953.616 Q742.249 952.057 746.1 952.057 Q749.983 952.057 752.689 954.03 Q755.426 956.003 756.731 959.759 Z" fill="#000000" fill-rule="nonzero" fill-opacity="1" /><path clip-path="url(#clip710)" d="M798.14 983.217 L798.14 1002.12 L792.252 1002.12 L792.252 952.916 L798.14 952.916 L798.14 958.327 Q799.986 955.144 802.787 953.616 Q805.62 952.057 809.535 952.057 Q816.028 952.057 820.07 957.213 Q824.144 962.369 824.144 970.772 Q824.144 979.174 820.07 984.331 Q816.028 989.487 809.535 989.487 Q805.62 989.487 802.787 987.959 Q799.986 986.4 798.14 983.217 M818.065 970.772 Q818.065 964.311 815.391 960.65 Q812.749 956.958 808.102 956.958 Q803.455 956.958 800.782 960.65 Q798.14 964.311 798.14 970.772 Q798.14 977.233 800.782 980.925 Q803.455 984.585 808.102 984.585 Q812.749 984.585 815.391 980.925 Q818.065 977.233 818.065 970.772 Z" fill="#000000" fill-rule="nonzero" fill-opacity="1" /><path clip-path="url(#clip710)" d="M847.665 957.022 Q842.955 957.022 840.217 960.714 Q837.48 964.374 837.48 970.772 Q837.48 977.169 840.186 980.861 Q842.923 984.522 847.665 984.522 Q852.344 984.522 855.081 980.83 Q857.819 977.137 857.819 970.772 Q857.819 964.438 855.081 960.746 Q852.344 957.022 847.665 957.022 M847.665 952.057 Q855.304 952.057 859.665 957.022 Q864.025 961.987 864.025 970.772 Q864.025 979.525 859.665 984.522 Q855.304 989.487 847.665 989.487 Q839.995 989.487 835.634 984.522 Q831.305 979.525 831.305 970.772 Q831.305 961.987 835.634 957.022 Q839.995 952.057 847.665 952.057 Z" fill="#000000" fill-rule="nonzero" fill-opacity="1" /><path clip-path="url(#clip710)" d="M903.365 967.048 L903.365 988.564 L897.509 988.564 L897.509 967.239 Q897.509 962.178 895.535 959.664 Q893.562 957.149 889.615 957.149 Q884.873 957.149 882.136 960.173 Q879.398 963.197 879.398 968.416 L879.398 988.564 L873.51 988.564 L873.51 952.916 L879.398 952.916 L879.398 958.454 Q881.499 955.239 884.332 953.648 Q887.196 952.057 890.92 952.057 Q897.063 952.057 900.214 955.876 Q903.365 959.664 903.365 967.048 Z" fill="#000000" fill-rule="nonzero" fill-opacity="1" /><path clip-path="url(#clip710)" d="M945.538 969.276 L945.538 972.14 L918.611 972.14 Q918.993 978.188 922.239 981.371 Q925.518 984.522 931.342 984.522 Q934.716 984.522 937.867 983.694 Q941.05 982.867 944.169 981.211 L944.169 986.75 Q941.018 988.086 937.708 988.787 Q934.398 989.487 930.992 989.487 Q922.462 989.487 917.465 984.522 Q912.5 979.556 912.5 971.09 Q912.5 962.337 917.211 957.213 Q921.953 952.057 929.974 952.057 Q937.167 952.057 941.337 956.703 Q945.538 961.319 945.538 969.276 M939.682 967.557 Q939.618 962.751 936.976 959.886 Q934.366 957.022 930.037 957.022 Q925.136 957.022 922.176 959.791 Q919.248 962.56 918.802 967.589 L939.682 967.557 Z" fill="#000000" fill-rule="nonzero" fill-opacity="1" /><path clip-path="url(#clip710)" d="M984.783 967.048 L984.783 988.564 L978.926 988.564 L978.926 967.239 Q978.926 962.178 976.953 959.664 Q974.979 957.149 971.033 957.149 Q966.29 957.149 963.553 960.173 Q960.816 963.197 960.816 968.416 L960.816 988.564 L954.927 988.564 L954.927 952.916 L960.816 952.916 L960.816 958.454 Q962.916 955.239 965.749 953.648 Q968.614 952.057 972.338 952.057 Q978.481 952.057 981.632 955.876 Q984.783 959.664 984.783 967.048 Z" fill="#000000" fill-rule="nonzero" fill-opacity="1" /><path clip-path="url(#clip710)" d="M1002.26 942.794 L1002.26 952.916 L1014.32 952.916 L1014.32 957.467 L1002.26 957.467 L1002.26 976.819 Q1002.26 981.18 1003.43 982.421 Q1004.64 983.662 1008.3 983.662 L1014.32 983.662 L1014.32 988.564 L1008.3 988.564 Q1001.52 988.564 998.946 986.049 Q996.368 983.503 996.368 976.819 L996.368 957.467 L992.071 957.467 L992.071 952.916 L996.368 952.916 L996.368 942.794 L1002.26 942.794 Z" fill="#000000" fill-rule="nonzero" fill-opacity="1" /><path clip-path="url(#clip710)" d="M1044.75 953.966 L1044.75 959.504 Q1042.26 958.231 1039.59 957.595 Q1036.92 956.958 1034.05 956.958 Q1029.69 956.958 1027.5 958.295 Q1025.33 959.632 1025.33 962.305 Q1025.33 964.342 1026.89 965.52 Q1028.45 966.666 1033.16 967.716 L1035.17 968.162 Q1041.41 969.499 1044.02 971.949 Q1046.66 974.368 1046.66 978.729 Q1046.66 983.694 1042.71 986.59 Q1038.8 989.487 1031.92 989.487 Q1029.06 989.487 1025.94 988.914 Q1022.85 988.373 1019.41 987.259 L1019.41 981.211 Q1022.66 982.898 1025.81 983.758 Q1028.96 984.585 1032.05 984.585 Q1036.19 984.585 1038.41 983.185 Q1040.64 981.753 1040.64 979.174 Q1040.64 976.787 1039.02 975.514 Q1037.43 974.241 1031.98 973.063 L1029.95 972.586 Q1024.5 971.44 1022.09 969.085 Q1019.67 966.698 1019.67 962.56 Q1019.67 957.531 1023.23 954.794 Q1026.8 952.057 1033.35 952.057 Q1036.6 952.057 1039.46 952.534 Q1042.33 953.011 1044.75 953.966 Z" fill="#000000" fill-rule="nonzero" fill-opacity="1" /><polyline clip-path="url(#clip710)" style="stroke:#000000; stroke-linecap:round; stroke-linejoin:round; stroke-width:4; stroke-opacity:1; fill:none" points="203.986,849.7 203.986,47.2441 "/>
<polyline clip-path="url(#clip710)" style="stroke:#000000; stroke-linecap:round; stroke-linejoin:round; stroke-width:4; stroke-opacity:1; fill:none" points="203.986,849.7 216.328,849.7 "/>
<polyline clip-path="url(#clip710)" style="stroke:#000000; stroke-linecap:round; stroke-linejoin:round; stroke-width:4; stroke-opacity:1; fill:none" points="203.986,689.209 216.328,689.209 "/>
<polyline clip-path="url(#clip710)" style="stroke:#000000; stroke-linecap:round; stroke-linejoin:round; stroke-width:4; stroke-opacity:1; fill:none" points="203.986,528.718 216.328,528.718 "/>
<polyline clip-path="url(#clip710)" style="stroke:#000000; stroke-linecap:round; stroke-linejoin:round; stroke-width:4; stroke-opacity:1; fill:none" points="203.986,368.226 216.328,368.226 "/>
<polyline clip-path="url(#clip710)" style="stroke:#000000; stroke-linecap:round; stroke-linejoin:round; stroke-width:4; stroke-opacity:1; fill:none" points="203.986,207.735 216.328,207.735 "/>
<polyline clip-path="url(#clip710)" style="stroke:#000000; stroke-linecap:round; stroke-linejoin:round; stroke-width:4; stroke-opacity:1; fill:none" points="203.986,47.2441 216.328,47.2441 "/>
<path clip-path="url(#clip710)" d="M116.811 835.499 Q113.2 835.499 111.371 839.063 Q109.565 842.605 109.565 849.735 Q109.565 856.841 111.371 860.406 Q113.2 863.947 116.811 863.947 Q120.445 863.947 122.25 860.406 Q124.079 856.841 124.079 849.735 Q124.079 842.605 122.25 839.063 Q120.445 835.499 116.811 835.499 M116.811 831.795 Q122.621 831.795 125.676 836.401 Q128.755 840.985 128.755 849.735 Q128.755 858.461 125.676 863.068 Q122.621 867.651 116.811 867.651 Q111 867.651 107.922 863.068 Q104.866 858.461 104.866 849.735 Q104.866 840.985 107.922 836.401 Q111 831.795 116.811 831.795 Z" fill="#000000" fill-rule="nonzero" fill-opacity="1" /><path clip-path="url(#clip710)" d="M136.973 861.1 L141.857 861.1 L141.857 866.98 L136.973 866.98 L136.973 861.1 Z" fill="#000000" fill-rule="nonzero" fill-opacity="1" /><path clip-path="url(#clip710)" d="M162.042 835.499 Q158.431 835.499 156.602 839.063 Q154.797 842.605 154.797 849.735 Q154.797 856.841 156.602 860.406 Q158.431 863.947 162.042 863.947 Q165.676 863.947 167.482 860.406 Q169.31 856.841 169.31 849.735 Q169.31 842.605 167.482 839.063 Q165.676 835.499 162.042 835.499 M162.042 831.795 Q167.852 831.795 170.908 836.401 Q173.986 840.985 173.986 849.735 Q173.986 858.461 170.908 863.068 Q167.852 867.651 162.042 867.651 Q156.232 867.651 153.153 863.068 Q150.098 858.461 150.098 849.735 Q150.098 840.985 153.153 836.401 Q156.232 831.795 162.042 831.795 Z" fill="#000000" fill-rule="nonzero" fill-opacity="1" /><path clip-path="url(#clip710)" d="M118.037 675.007 Q114.426 675.007 112.598 678.572 Q110.792 682.114 110.792 689.243 Q110.792 696.35 112.598 699.915 Q114.426 703.456 118.037 703.456 Q121.672 703.456 123.477 699.915 Q125.306 696.35 125.306 689.243 Q125.306 682.114 123.477 678.572 Q121.672 675.007 118.037 675.007 M118.037 671.304 Q123.848 671.304 126.903 675.91 Q129.982 680.493 129.982 689.243 Q129.982 697.97 126.903 702.577 Q123.848 707.16 118.037 707.16 Q112.227 707.16 109.149 702.577 Q106.093 697.97 106.093 689.243 Q106.093 680.493 109.149 675.91 Q112.227 671.304 118.037 671.304 Z" fill="#000000" fill-rule="nonzero" fill-opacity="1" /><path clip-path="url(#clip710)" d="M138.199 700.609 L143.084 700.609 L143.084 706.489 L138.199 706.489 L138.199 700.609 Z" fill="#000000" fill-rule="nonzero" fill-opacity="1" /><path clip-path="url(#clip710)" d="M154.079 702.554 L161.718 702.554 L161.718 676.188 L153.408 677.855 L153.408 673.595 L161.672 671.929 L166.347 671.929 L166.347 702.554 L173.986 702.554 L173.986 706.489 L154.079 706.489 L154.079 702.554 Z" fill="#000000" fill-rule="nonzero" fill-opacity="1" /><path clip-path="url(#clip710)" d="M118.408 514.516 Q114.797 514.516 112.968 518.081 Q111.163 521.623 111.163 528.752 Q111.163 535.859 112.968 539.424 Q114.797 542.965 118.408 542.965 Q122.042 542.965 123.848 539.424 Q125.676 535.859 125.676 528.752 Q125.676 521.623 123.848 518.081 Q122.042 514.516 118.408 514.516 M118.408 510.813 Q124.218 510.813 127.274 515.419 Q130.352 520.002 130.352 528.752 Q130.352 537.479 127.274 542.086 Q124.218 546.669 118.408 546.669 Q112.598 546.669 109.519 542.086 Q106.463 537.479 106.463 528.752 Q106.463 520.002 109.519 515.419 Q112.598 510.813 118.408 510.813 Z" fill="#000000" fill-rule="nonzero" fill-opacity="1" /><path clip-path="url(#clip710)" d="M138.57 540.118 L143.454 540.118 L143.454 545.998 L138.57 545.998 L138.57 540.118 Z" fill="#000000" fill-rule="nonzero" fill-opacity="1" /><path clip-path="url(#clip710)" d="M157.667 542.062 L173.986 542.062 L173.986 545.998 L152.042 545.998 L152.042 542.062 Q154.704 539.308 159.287 534.678 Q163.894 530.025 165.074 528.683 Q167.32 526.16 168.199 524.424 Q169.102 522.664 169.102 520.975 Q169.102 518.22 167.158 516.484 Q165.236 514.748 162.134 514.748 Q159.935 514.748 157.482 515.512 Q155.051 516.275 152.273 517.826 L152.273 513.104 Q155.097 511.97 157.551 511.391 Q160.005 510.813 162.042 510.813 Q167.412 510.813 170.607 513.498 Q173.801 516.183 173.801 520.674 Q173.801 522.803 172.991 524.725 Q172.204 526.623 170.097 529.215 Q169.519 529.887 166.417 533.104 Q163.315 536.299 157.667 542.062 Z" fill="#000000" fill-rule="nonzero" fill-opacity="1" /><path clip-path="url(#clip710)" d="M117.459 354.025 Q113.848 354.025 112.019 357.59 Q110.213 361.132 110.213 368.261 Q110.213 375.368 112.019 378.932 Q113.848 382.474 117.459 382.474 Q121.093 382.474 122.899 378.932 Q124.727 375.368 124.727 368.261 Q124.727 361.132 122.899 357.59 Q121.093 354.025 117.459 354.025 M117.459 350.321 Q123.269 350.321 126.324 354.928 Q129.403 359.511 129.403 368.261 Q129.403 376.988 126.324 381.594 Q123.269 386.178 117.459 386.178 Q111.649 386.178 108.57 381.594 Q105.514 376.988 105.514 368.261 Q105.514 359.511 108.57 354.928 Q111.649 350.321 117.459 350.321 Z" fill="#000000" fill-rule="nonzero" fill-opacity="1" /><path clip-path="url(#clip710)" d="M137.621 379.627 L142.505 379.627 L142.505 385.506 L137.621 385.506 L137.621 379.627 Z" fill="#000000" fill-rule="nonzero" fill-opacity="1" /><path clip-path="url(#clip710)" d="M166.857 366.872 Q170.213 367.59 172.088 369.858 Q173.986 372.127 173.986 375.46 Q173.986 380.576 170.468 383.377 Q166.949 386.178 160.468 386.178 Q158.292 386.178 155.977 385.738 Q153.685 385.321 151.232 384.465 L151.232 379.951 Q153.176 381.085 155.491 381.664 Q157.806 382.243 160.329 382.243 Q164.727 382.243 167.019 380.506 Q169.334 378.77 169.334 375.46 Q169.334 372.405 167.181 370.692 Q165.051 368.956 161.232 368.956 L157.204 368.956 L157.204 365.113 L161.417 365.113 Q164.866 365.113 166.695 363.747 Q168.523 362.358 168.523 359.766 Q168.523 357.104 166.625 355.692 Q164.75 354.257 161.232 354.257 Q159.31 354.257 157.111 354.673 Q154.912 355.09 152.273 355.97 L152.273 351.803 Q154.935 351.062 157.25 350.692 Q159.588 350.321 161.648 350.321 Q166.972 350.321 170.074 352.752 Q173.176 355.159 173.176 359.28 Q173.176 362.15 171.533 364.141 Q169.889 366.108 166.857 366.872 Z" fill="#000000" fill-rule="nonzero" fill-opacity="1" /><path clip-path="url(#clip710)" d="M116.325 193.534 Q112.713 193.534 110.885 197.099 Q109.079 200.64 109.079 207.77 Q109.079 214.876 110.885 218.441 Q112.713 221.983 116.325 221.983 Q119.959 221.983 121.764 218.441 Q123.593 214.876 123.593 207.77 Q123.593 200.64 121.764 197.099 Q119.959 193.534 116.325 193.534 M116.325 189.83 Q122.135 189.83 125.19 194.437 Q128.269 199.02 128.269 207.77 Q128.269 216.497 125.19 221.103 Q122.135 225.687 116.325 225.687 Q110.514 225.687 107.436 221.103 Q104.38 216.497 104.38 207.77 Q104.38 199.02 107.436 194.437 Q110.514 189.83 116.325 189.83 Z" fill="#000000" fill-rule="nonzero" fill-opacity="1" /><path clip-path="url(#clip710)" d="M136.486 219.136 L141.371 219.136 L141.371 225.015 L136.486 225.015 L136.486 219.136 Z" fill="#000000" fill-rule="nonzero" fill-opacity="1" /><path clip-path="url(#clip710)" d="M164.403 194.529 L152.597 212.978 L164.403 212.978 L164.403 194.529 M163.176 190.455 L169.056 190.455 L169.056 212.978 L173.986 212.978 L173.986 216.867 L169.056 216.867 L169.056 225.015 L164.403 225.015 L164.403 216.867 L148.801 216.867 L148.801 212.353 L163.176 190.455 Z" fill="#000000" fill-rule="nonzero" fill-opacity="1" /><path clip-path="url(#clip710)" d="M117.806 33.0428 Q114.195 33.0428 112.366 36.6076 Q110.561 40.1492 110.561 47.2788 Q110.561 54.3853 112.366 57.9501 Q114.195 61.4917 117.806 61.4917 Q121.44 61.4917 123.246 57.9501 Q125.074 54.3853 125.074 47.2788 Q125.074 40.1492 123.246 36.6076 Q121.44 33.0428 117.806 33.0428 M117.806 29.3391 Q123.616 29.3391 126.672 33.9456 Q129.75 38.5289 129.75 47.2788 Q129.75 56.0056 126.672 60.6121 Q123.616 65.1954 117.806 65.1954 Q111.996 65.1954 108.917 60.6121 Q105.862 56.0056 105.862 47.2788 Q105.862 38.5289 108.917 33.9456 Q111.996 29.3391 117.806 29.3391 Z" fill="#000000" fill-rule="nonzero" fill-opacity="1" /><path clip-path="url(#clip710)" d="M137.968 58.6445 L142.852 58.6445 L142.852 64.5241 L137.968 64.5241 L137.968 58.6445 Z" fill="#000000" fill-rule="nonzero" fill-opacity="1" /><path clip-path="url(#clip710)" d="M153.084 29.9641 L171.44 29.9641 L171.44 33.8993 L157.366 33.8993 L157.366 42.3714 Q158.384 42.0242 159.403 41.8622 Q160.422 41.677 161.44 41.677 Q167.227 41.677 170.607 44.8483 Q173.986 48.0196 173.986 53.4362 Q173.986 59.0149 170.514 62.1167 Q167.042 65.1954 160.722 65.1954 Q158.547 65.1954 156.278 64.825 Q154.033 64.4547 151.625 63.7139 L151.625 59.0149 Q153.709 60.1491 155.931 60.7047 Q158.153 61.2602 160.63 61.2602 Q164.634 61.2602 166.972 59.1538 Q169.31 57.0473 169.31 53.4362 Q169.31 49.8251 166.972 47.7186 Q164.634 45.6122 160.63 45.6122 Q158.755 45.6122 156.88 46.0288 Q155.028 46.4455 153.084 47.3251 L153.084 29.9641 Z" fill="#000000" fill-rule="nonzero" fill-opacity="1" /><path clip-path="url(#clip710)" d="M77.3718 474.262 Q77.9193 474.262 78.3057 474.648 Q78.6922 475.034 78.6922 475.582 Q78.6922 476.516 77.8226 476.838 L46.1643 489.108 Q46.0355 489.173 45.7134 489.173 Q45.3913 489.173 45.2625 489.108 L13.6041 476.838 Q12.7346 476.516 12.7346 475.582 Q12.7346 475.034 13.1211 474.648 Q13.5075 474.262 14.055 474.262 Q14.3771 474.262 14.5059 474.326 L45.7134 486.468 L76.9209 474.326 Q77.0497 474.262 77.3718 474.262 Z" fill="#000000" fill-rule="nonzero" fill-opacity="1" /><path clip-path="url(#clip710)" d="M29.224 436.536 Q34.6346 436.536 40.7215 438.276 Q46.7762 439.983 51.6715 442.688 Q56.5346 445.393 59.7551 448.936 Q62.9435 452.478 62.9435 455.86 Q62.9435 458.018 61.7519 459.628 Q60.5281 461.206 58.4991 462.076 Q56.4379 462.945 54.1835 463.364 Q51.8969 463.783 49.4171 463.783 Q45.7134 463.783 41.6877 462.977 Q37.6297 462.172 33.9583 460.82 Q30.2546 459.467 26.9052 457.567 Q23.5236 455.667 21.0759 453.573 Q18.5961 451.448 17.1468 449.065 Q15.6975 446.681 15.6975 444.459 Q15.6975 442.849 16.4061 441.561 Q17.0824 440.24 18.274 439.403 Q19.4334 438.565 20.8183 437.986 Q22.2031 437.374 23.8134 437.084 Q25.3915 436.794 26.7119 436.665 Q28.0002 436.536 29.224 436.536 M25.1338 440.884 Q23.4913 440.884 22.2675 441.013 Q21.0115 441.142 19.7555 441.496 Q18.4994 441.85 17.8231 442.623 Q17.1468 443.364 17.1468 444.524 Q17.1468 447.905 24.0711 451.705 Q26.2288 452.929 29.1596 454.024 Q32.0903 455.119 33.4752 455.506 Q34.86 455.892 38.2738 456.794 L38.2738 443.01 Q29.4816 440.884 25.1338 440.884 M40.3672 443.59 L40.3672 457.309 Q48.4187 459.435 53.4428 459.435 Q57.8228 459.435 59.6585 458.533 Q61.4621 457.599 61.4621 455.86 Q61.4621 453.863 59.4653 451.995 Q57.4363 450.127 53.7649 448.227 Q48.9984 445.715 40.3672 443.59 Z" fill="#000000" fill-rule="nonzero" fill-opacity="1" /><path clip-path="url(#clip710)" d="M45.2625 418.347 Q45.3913 418.282 45.7134 418.282 Q46.0355 418.282 46.1643 418.347 L77.8226 430.617 Q78.6922 430.939 78.6922 431.841 Q78.6922 432.388 78.3057 432.775 Q77.9193 433.161 77.3718 433.161 Q77.0497 433.161 76.9209 433.097 L45.7134 420.987 L14.5059 433.097 Q14.3771 433.161 14.055 433.161 Q13.5075 433.161 13.1211 432.775 Q12.7346 432.388 12.7346 431.841 Q12.7346 430.939 13.6041 430.617 L45.2625 418.347 Z" fill="#000000" fill-rule="nonzero" fill-opacity="1" /><path clip-path="url(#clip712)" d="M236.309 747.237 L258.297 759.812 L280.285 765.084 L302.273 778.521 L324.261 768.04 L346.249 769.601 L368.237 769.074 L390.225 768.363 L412.213 762.733 L434.201 760.942 L456.19 760.561 L478.178 756.704 L500.166 755.809 L522.154 754.304 L544.142 754.311 L566.13 754.698 L588.118 753.49 L610.106 752.94 L632.094 755.201 L654.082 753.854 L676.07 753.367 L698.058 753.28 L720.046 751.725 L742.034 751.963 L764.023 752.576 L786.011 753.005 L807.999 753.207 L829.987 753.413 L851.975 754.15 L873.963 755.1 L895.951 754.396 L917.939 754.279 L939.927 754.593 L961.915 755.051 L983.903 755.214 L1005.89 755.667 L1027.88 755.261 L1049.87 754.956 L1071.86 755.288 L1093.84 755.157 L1115.83 754.673 L1137.82 754.569 L1159.81 754.762 L1181.8 754.58 L1203.78 754.58 L1225.77 754.58 L1247.76 754.58 L1269.75 754.58 L1291.74 754.58 L1313.72 754.58 L1313.72 696.488 L1291.74 696.488 L1269.75 696.488 L1247.76 696.488 L1225.77 696.488 L1203.78 696.488 L1181.8 696.488 L1159.81 695.646 L1137.82 696.52 L1115.83 697.285 L1093.84 697.858 L1071.86 701.652 L1049.87 701.912 L1027.88 703.927 L1005.89 705.727 L983.903 705.499 L961.915 708.465 L939.927 706.963 L917.939 706.283 L895.951 707.167 L873.963 704.987 L851.975 706.857 L829.987 706.476 L807.999 705.565 L786.011 706.424 L764.023 707.35 L742.034 709.894 L720.046 715.949 L698.058 713.981 L676.07 713.268 L654.082 715.214 L632.094 714.004 L610.106 713.409 L588.118 706.514 L566.13 702.656 L544.142 706.571 L522.154 701.128 L500.166 698.364 L478.178 699.241 L456.19 687.179 L434.201 682.371 L412.213 686.077 L390.225 677.114 L368.237 679.003 L346.249 680.687 L324.261 653.755 L302.273 655.091 L280.285 636.941 L258.297 617.084 L236.309 603.352  Z" fill="#377db8" fill-rule="evenodd" fill-opacity="0.1"/>
<polyline clip-path="url(#clip712)" style="stroke:#377db8; stroke-linecap:round; stroke-linejoin:round; stroke-width:4; stroke-opacity:1; fill:none" points="236.309,675.295 258.297,688.448 280.285,701.013 302.273,716.806 324.261,710.897 346.249,725.144 368.237,724.039 390.225,722.739 412.213,724.405 434.201,721.657 456.19,723.87 478.178,727.973 500.166,727.086 522.154,727.716 544.142,730.441 566.13,728.677 588.118,730.002 610.106,733.175 632.094,734.602 654.082,734.534 676.07,733.318 698.058,733.63 720.046,733.837 742.034,730.928 764.023,729.963 786.011,729.715 807.999,729.386 829.987,729.944 851.975,730.504 873.963,730.043 895.951,730.782 917.939,730.281 939.927,730.778 961.915,731.758 983.903,730.357 1005.89,730.697 1027.88,729.594 1049.87,728.434 1071.86,728.47 1093.84,726.507 1115.83,725.979 1137.82,725.544 1159.81,725.204 1181.8,725.534 1203.78,725.534 1225.77,725.534 1247.76,725.534 1269.75,725.534 1291.74,725.534 1313.72,725.534 "/>
<circle clip-path="url(#clip712)" cx="236.309" cy="675.295" r="14.4" fill="#377db8" fill-rule="evenodd" fill-opacity="1" stroke="none"/>
<circle clip-path="url(#clip712)" cx="258.297" cy="688.448" r="14.4" fill="#377db8" fill-rule="evenodd" fill-opacity="1" stroke="none"/>
<circle clip-path="url(#clip712)" cx="280.285" cy="701.013" r="14.4" fill="#377db8" fill-rule="evenodd" fill-opacity="1" stroke="none"/>
<circle clip-path="url(#clip712)" cx="302.273" cy="716.806" r="14.4" fill="#377db8" fill-rule="evenodd" fill-opacity="1" stroke="none"/>
<circle clip-path="url(#clip712)" cx="324.261" cy="710.897" r="14.4" fill="#377db8" fill-rule="evenodd" fill-opacity="1" stroke="none"/>
<circle clip-path="url(#clip712)" cx="346.249" cy="725.144" r="14.4" fill="#377db8" fill-rule="evenodd" fill-opacity="1" stroke="none"/>
<circle clip-path="url(#clip712)" cx="368.237" cy="724.039" r="14.4" fill="#377db8" fill-rule="evenodd" fill-opacity="1" stroke="none"/>
<circle clip-path="url(#clip712)" cx="390.225" cy="722.739" r="14.4" fill="#377db8" fill-rule="evenodd" fill-opacity="1" stroke="none"/>
<circle clip-path="url(#clip712)" cx="412.213" cy="724.405" r="14.4" fill="#377db8" fill-rule="evenodd" fill-opacity="1" stroke="none"/>
<circle clip-path="url(#clip712)" cx="434.201" cy="721.657" r="14.4" fill="#377db8" fill-rule="evenodd" fill-opacity="1" stroke="none"/>
<circle clip-path="url(#clip712)" cx="456.19" cy="723.87" r="14.4" fill="#377db8" fill-rule="evenodd" fill-opacity="1" stroke="none"/>
<circle clip-path="url(#clip712)" cx="478.178" cy="727.973" r="14.4" fill="#377db8" fill-rule="evenodd" fill-opacity="1" stroke="none"/>
<circle clip-path="url(#clip712)" cx="500.166" cy="727.086" r="14.4" fill="#377db8" fill-rule="evenodd" fill-opacity="1" stroke="none"/>
<circle clip-path="url(#clip712)" cx="522.154" cy="727.716" r="14.4" fill="#377db8" fill-rule="evenodd" fill-opacity="1" stroke="none"/>
<circle clip-path="url(#clip712)" cx="544.142" cy="730.441" r="14.4" fill="#377db8" fill-rule="evenodd" fill-opacity="1" stroke="none"/>
<circle clip-path="url(#clip712)" cx="566.13" cy="728.677" r="14.4" fill="#377db8" fill-rule="evenodd" fill-opacity="1" stroke="none"/>
<circle clip-path="url(#clip712)" cx="588.118" cy="730.002" r="14.4" fill="#377db8" fill-rule="evenodd" fill-opacity="1" stroke="none"/>
<circle clip-path="url(#clip712)" cx="610.106" cy="733.175" r="14.4" fill="#377db8" fill-rule="evenodd" fill-opacity="1" stroke="none"/>
<circle clip-path="url(#clip712)" cx="632.094" cy="734.602" r="14.4" fill="#377db8" fill-rule="evenodd" fill-opacity="1" stroke="none"/>
<circle clip-path="url(#clip712)" cx="654.082" cy="734.534" r="14.4" fill="#377db8" fill-rule="evenodd" fill-opacity="1" stroke="none"/>
<circle clip-path="url(#clip712)" cx="676.07" cy="733.318" r="14.4" fill="#377db8" fill-rule="evenodd" fill-opacity="1" stroke="none"/>
<circle clip-path="url(#clip712)" cx="698.058" cy="733.63" r="14.4" fill="#377db8" fill-rule="evenodd" fill-opacity="1" stroke="none"/>
<circle clip-path="url(#clip712)" cx="720.046" cy="733.837" r="14.4" fill="#377db8" fill-rule="evenodd" fill-opacity="1" stroke="none"/>
<circle clip-path="url(#clip712)" cx="742.034" cy="730.928" r="14.4" fill="#377db8" fill-rule="evenodd" fill-opacity="1" stroke="none"/>
<circle clip-path="url(#clip712)" cx="764.023" cy="729.963" r="14.4" fill="#377db8" fill-rule="evenodd" fill-opacity="1" stroke="none"/>
<circle clip-path="url(#clip712)" cx="786.011" cy="729.715" r="14.4" fill="#377db8" fill-rule="evenodd" fill-opacity="1" stroke="none"/>
<circle clip-path="url(#clip712)" cx="807.999" cy="729.386" r="14.4" fill="#377db8" fill-rule="evenodd" fill-opacity="1" stroke="none"/>
<circle clip-path="url(#clip712)" cx="829.987" cy="729.944" r="14.4" fill="#377db8" fill-rule="evenodd" fill-opacity="1" stroke="none"/>
<circle clip-path="url(#clip712)" cx="851.975" cy="730.504" r="14.4" fill="#377db8" fill-rule="evenodd" fill-opacity="1" stroke="none"/>
<circle clip-path="url(#clip712)" cx="873.963" cy="730.043" r="14.4" fill="#377db8" fill-rule="evenodd" fill-opacity="1" stroke="none"/>
<circle clip-path="url(#clip712)" cx="895.951" cy="730.782" r="14.4" fill="#377db8" fill-rule="evenodd" fill-opacity="1" stroke="none"/>
<circle clip-path="url(#clip712)" cx="917.939" cy="730.281" r="14.4" fill="#377db8" fill-rule="evenodd" fill-opacity="1" stroke="none"/>
<circle clip-path="url(#clip712)" cx="939.927" cy="730.778" r="14.4" fill="#377db8" fill-rule="evenodd" fill-opacity="1" stroke="none"/>
<circle clip-path="url(#clip712)" cx="961.915" cy="731.758" r="14.4" fill="#377db8" fill-rule="evenodd" fill-opacity="1" stroke="none"/>
<circle clip-path="url(#clip712)" cx="983.903" cy="730.357" r="14.4" fill="#377db8" fill-rule="evenodd" fill-opacity="1" stroke="none"/>
<circle clip-path="url(#clip712)" cx="1005.89" cy="730.697" r="14.4" fill="#377db8" fill-rule="evenodd" fill-opacity="1" stroke="none"/>
<circle clip-path="url(#clip712)" cx="1027.88" cy="729.594" r="14.4" fill="#377db8" fill-rule="evenodd" fill-opacity="1" stroke="none"/>
<circle clip-path="url(#clip712)" cx="1049.87" cy="728.434" r="14.4" fill="#377db8" fill-rule="evenodd" fill-opacity="1" stroke="none"/>
<circle clip-path="url(#clip712)" cx="1071.86" cy="728.47" r="14.4" fill="#377db8" fill-rule="evenodd" fill-opacity="1" stroke="none"/>
<circle clip-path="url(#clip712)" cx="1093.84" cy="726.507" r="14.4" fill="#377db8" fill-rule="evenodd" fill-opacity="1" stroke="none"/>
<circle clip-path="url(#clip712)" cx="1115.83" cy="725.979" r="14.4" fill="#377db8" fill-rule="evenodd" fill-opacity="1" stroke="none"/>
<circle clip-path="url(#clip712)" cx="1137.82" cy="725.544" r="14.4" fill="#377db8" fill-rule="evenodd" fill-opacity="1" stroke="none"/>
<circle clip-path="url(#clip712)" cx="1159.81" cy="725.204" r="14.4" fill="#377db8" fill-rule="evenodd" fill-opacity="1" stroke="none"/>
<circle clip-path="url(#clip712)" cx="1181.8" cy="725.534" r="14.4" fill="#377db8" fill-rule="evenodd" fill-opacity="1" stroke="none"/>
<circle clip-path="url(#clip712)" cx="1203.78" cy="725.534" r="14.4" fill="#377db8" fill-rule="evenodd" fill-opacity="1" stroke="none"/>
<circle clip-path="url(#clip712)" cx="1225.77" cy="725.534" r="14.4" fill="#377db8" fill-rule="evenodd" fill-opacity="1" stroke="none"/>
<circle clip-path="url(#clip712)" cx="1247.76" cy="725.534" r="14.4" fill="#377db8" fill-rule="evenodd" fill-opacity="1" stroke="none"/>
<circle clip-path="url(#clip712)" cx="1269.75" cy="725.534" r="14.4" fill="#377db8" fill-rule="evenodd" fill-opacity="1" stroke="none"/>
<circle clip-path="url(#clip712)" cx="1291.74" cy="725.534" r="14.4" fill="#377db8" fill-rule="evenodd" fill-opacity="1" stroke="none"/>
<circle clip-path="url(#clip712)" cx="1313.72" cy="725.534" r="14.4" fill="#377db8" fill-rule="evenodd" fill-opacity="1" stroke="none"/>
<path clip-path="url(#clip712)" d="M236.309 721.356 L258.297 717.845 L280.285 711.981 L302.273 671.14 L324.261 676.542 L346.249 671.987 L368.237 682.291 L390.225 584.169 L412.213 604.587 L434.201 581.708 L456.19 584.173 L478.178 616.57 L500.166 619.356 L522.154 572.25 L544.142 579.689 L566.13 586.098 L588.118 629.553 L610.106 656.748 L632.094 618.598 L654.082 601.484 L676.07 597.788 L698.058 593.052 L720.046 580.786 L742.034 618.244 L764.023 577.746 L786.011 606.712 L807.999 632.619 L829.987 649.825 L851.975 641.159 L873.963 670.72 L895.951 653.679 L917.939 658.74 L939.927 650.32 L961.915 631.835 L983.903 610.109 L1005.89 662.341 L1027.88 670.455 L1049.87 658.006 L1071.86 665.011 L1093.84 672.454 L1115.83 678.185 L1137.82 666.609 L1159.81 664.394 L1181.8 663.872 L1203.78 663.872 L1225.77 663.872 L1247.76 663.872 L1269.75 663.872 L1291.74 663.872 L1313.72 663.872 L1313.72 518.33 L1291.74 518.33 L1269.75 518.33 L1247.76 518.33 L1225.77 518.33 L1203.78 518.33 L1181.8 518.33 L1159.81 519.754 L1137.82 518.732 L1115.83 520.598 L1093.84 517.813 L1071.86 517.177 L1049.87 511.47 L1027.88 520.187 L1005.89 513.087 L983.903 489.635 L961.915 450.161 L939.927 458.479 L917.939 449.758 L895.951 441.153 L873.963 443.783 L851.975 445.234 L829.987 458.399 L807.999 466.136 L786.011 465.494 L764.023 453.067 L742.034 437.681 L720.046 439.792 L698.058 408.741 L676.07 398.372 L654.082 342.93 L632.094 313.547 L610.106 320.814 L588.118 388.342 L566.13 403.935 L544.142 348.431 L522.154 388.656 L500.166 372.636 L478.178 406.085 L456.19 355.597 L434.201 359.046 L412.213 366.615 L390.225 390.289 L368.237 452.412 L346.249 527.663 L324.261 511.665 L302.273 524.403 L280.285 556.161 L258.297 606.443 L236.309 564.415  Z" fill="#e31a1c" fill-rule="evenodd" fill-opacity="0.1"/>
<polyline clip-path="url(#clip712)" style="stroke:#e31a1c; stroke-linecap:round; stroke-linejoin:round; stroke-width:4; stroke-opacity:1; fill:none" points="236.309,642.885 258.297,662.144 280.285,634.071 302.273,597.772 324.261,594.103 346.249,599.825 368.237,567.352 390.225,487.229 412.213,485.601 434.201,470.377 456.19,469.885 478.178,511.327 500.166,495.996 522.154,480.453 544.142,464.06 566.13,495.016 588.118,508.948 610.106,488.781 632.094,466.073 654.082,472.207 676.07,498.08 698.058,500.897 720.046,510.289 742.034,527.963 764.023,515.407 786.011,536.103 807.999,549.378 829.987,554.112 851.975,543.197 873.963,557.252 895.951,547.416 917.939,554.249 939.927,554.399 961.915,540.998 983.903,549.872 1005.89,587.714 1027.88,595.321 1049.87,584.738 1071.86,591.094 1093.84,595.134 1115.83,599.392 1137.82,592.671 1159.81,592.074 1181.8,591.101 1203.78,591.101 1225.77,591.101 1247.76,591.101 1269.75,591.101 1291.74,591.101 1313.72,591.101 "/>
<circle clip-path="url(#clip712)" cx="236.309" cy="642.885" r="14.4" fill="#e31a1c" fill-rule="evenodd" fill-opacity="1" stroke="none"/>
<circle clip-path="url(#clip712)" cx="258.297" cy="662.144" r="14.4" fill="#e31a1c" fill-rule="evenodd" fill-opacity="1" stroke="none"/>
<circle clip-path="url(#clip712)" cx="280.285" cy="634.071" r="14.4" fill="#e31a1c" fill-rule="evenodd" fill-opacity="1" stroke="none"/>
<circle clip-path="url(#clip712)" cx="302.273" cy="597.772" r="14.4" fill="#e31a1c" fill-rule="evenodd" fill-opacity="1" stroke="none"/>
<circle clip-path="url(#clip712)" cx="324.261" cy="594.103" r="14.4" fill="#e31a1c" fill-rule="evenodd" fill-opacity="1" stroke="none"/>
<circle clip-path="url(#clip712)" cx="346.249" cy="599.825" r="14.4" fill="#e31a1c" fill-rule="evenodd" fill-opacity="1" stroke="none"/>
<circle clip-path="url(#clip712)" cx="368.237" cy="567.352" r="14.4" fill="#e31a1c" fill-rule="evenodd" fill-opacity="1" stroke="none"/>
<circle clip-path="url(#clip712)" cx="390.225" cy="487.229" r="14.4" fill="#e31a1c" fill-rule="evenodd" fill-opacity="1" stroke="none"/>
<circle clip-path="url(#clip712)" cx="412.213" cy="485.601" r="14.4" fill="#e31a1c" fill-rule="evenodd" fill-opacity="1" stroke="none"/>
<circle clip-path="url(#clip712)" cx="434.201" cy="470.377" r="14.4" fill="#e31a1c" fill-rule="evenodd" fill-opacity="1" stroke="none"/>
<circle clip-path="url(#clip712)" cx="456.19" cy="469.885" r="14.4" fill="#e31a1c" fill-rule="evenodd" fill-opacity="1" stroke="none"/>
<circle clip-path="url(#clip712)" cx="478.178" cy="511.327" r="14.4" fill="#e31a1c" fill-rule="evenodd" fill-opacity="1" stroke="none"/>
<circle clip-path="url(#clip712)" cx="500.166" cy="495.996" r="14.4" fill="#e31a1c" fill-rule="evenodd" fill-opacity="1" stroke="none"/>
<circle clip-path="url(#clip712)" cx="522.154" cy="480.453" r="14.4" fill="#e31a1c" fill-rule="evenodd" fill-opacity="1" stroke="none"/>
<circle clip-path="url(#clip712)" cx="544.142" cy="464.06" r="14.4" fill="#e31a1c" fill-rule="evenodd" fill-opacity="1" stroke="none"/>
<circle clip-path="url(#clip712)" cx="566.13" cy="495.016" r="14.4" fill="#e31a1c" fill-rule="evenodd" fill-opacity="1" stroke="none"/>
<circle clip-path="url(#clip712)" cx="588.118" cy="508.948" r="14.4" fill="#e31a1c" fill-rule="evenodd" fill-opacity="1" stroke="none"/>
<circle clip-path="url(#clip712)" cx="610.106" cy="488.781" r="14.4" fill="#e31a1c" fill-rule="evenodd" fill-opacity="1" stroke="none"/>
<circle clip-path="url(#clip712)" cx="632.094" cy="466.073" r="14.4" fill="#e31a1c" fill-rule="evenodd" fill-opacity="1" stroke="none"/>
<circle clip-path="url(#clip712)" cx="654.082" cy="472.207" r="14.4" fill="#e31a1c" fill-rule="evenodd" fill-opacity="1" stroke="none"/>
<circle clip-path="url(#clip712)" cx="676.07" cy="498.08" r="14.4" fill="#e31a1c" fill-rule="evenodd" fill-opacity="1" stroke="none"/>
<circle clip-path="url(#clip712)" cx="698.058" cy="500.897" r="14.4" fill="#e31a1c" fill-rule="evenodd" fill-opacity="1" stroke="none"/>
<circle clip-path="url(#clip712)" cx="720.046" cy="510.289" r="14.4" fill="#e31a1c" fill-rule="evenodd" fill-opacity="1" stroke="none"/>
<circle clip-path="url(#clip712)" cx="742.034" cy="527.963" r="14.4" fill="#e31a1c" fill-rule="evenodd" fill-opacity="1" stroke="none"/>
<circle clip-path="url(#clip712)" cx="764.023" cy="515.407" r="14.4" fill="#e31a1c" fill-rule="evenodd" fill-opacity="1" stroke="none"/>
<circle clip-path="url(#clip712)" cx="786.011" cy="536.103" r="14.4" fill="#e31a1c" fill-rule="evenodd" fill-opacity="1" stroke="none"/>
<circle clip-path="url(#clip712)" cx="807.999" cy="549.378" r="14.4" fill="#e31a1c" fill-rule="evenodd" fill-opacity="1" stroke="none"/>
<circle clip-path="url(#clip712)" cx="829.987" cy="554.112" r="14.4" fill="#e31a1c" fill-rule="evenodd" fill-opacity="1" stroke="none"/>
<circle clip-path="url(#clip712)" cx="851.975" cy="543.197" r="14.4" fill="#e31a1c" fill-rule="evenodd" fill-opacity="1" stroke="none"/>
<circle clip-path="url(#clip712)" cx="873.963" cy="557.252" r="14.4" fill="#e31a1c" fill-rule="evenodd" fill-opacity="1" stroke="none"/>
<circle clip-path="url(#clip712)" cx="895.951" cy="547.416" r="14.4" fill="#e31a1c" fill-rule="evenodd" fill-opacity="1" stroke="none"/>
<circle clip-path="url(#clip712)" cx="917.939" cy="554.249" r="14.4" fill="#e31a1c" fill-rule="evenodd" fill-opacity="1" stroke="none"/>
<circle clip-path="url(#clip712)" cx="939.927" cy="554.399" r="14.4" fill="#e31a1c" fill-rule="evenodd" fill-opacity="1" stroke="none"/>
<circle clip-path="url(#clip712)" cx="961.915" cy="540.998" r="14.4" fill="#e31a1c" fill-rule="evenodd" fill-opacity="1" stroke="none"/>
<circle clip-path="url(#clip712)" cx="983.903" cy="549.872" r="14.4" fill="#e31a1c" fill-rule="evenodd" fill-opacity="1" stroke="none"/>
<circle clip-path="url(#clip712)" cx="1005.89" cy="587.714" r="14.4" fill="#e31a1c" fill-rule="evenodd" fill-opacity="1" stroke="none"/>
<circle clip-path="url(#clip712)" cx="1027.88" cy="595.321" r="14.4" fill="#e31a1c" fill-rule="evenodd" fill-opacity="1" stroke="none"/>
<circle clip-path="url(#clip712)" cx="1049.87" cy="584.738" r="14.4" fill="#e31a1c" fill-rule="evenodd" fill-opacity="1" stroke="none"/>
<circle clip-path="url(#clip712)" cx="1071.86" cy="591.094" r="14.4" fill="#e31a1c" fill-rule="evenodd" fill-opacity="1" stroke="none"/>
<circle clip-path="url(#clip712)" cx="1093.84" cy="595.134" r="14.4" fill="#e31a1c" fill-rule="evenodd" fill-opacity="1" stroke="none"/>
<circle clip-path="url(#clip712)" cx="1115.83" cy="599.392" r="14.4" fill="#e31a1c" fill-rule="evenodd" fill-opacity="1" stroke="none"/>
<circle clip-path="url(#clip712)" cx="1137.82" cy="592.671" r="14.4" fill="#e31a1c" fill-rule="evenodd" fill-opacity="1" stroke="none"/>
<circle clip-path="url(#clip712)" cx="1159.81" cy="592.074" r="14.4" fill="#e31a1c" fill-rule="evenodd" fill-opacity="1" stroke="none"/>
<circle clip-path="url(#clip712)" cx="1181.8" cy="591.101" r="14.4" fill="#e31a1c" fill-rule="evenodd" fill-opacity="1" stroke="none"/>
<circle clip-path="url(#clip712)" cx="1203.78" cy="591.101" r="14.4" fill="#e31a1c" fill-rule="evenodd" fill-opacity="1" stroke="none"/>
<circle clip-path="url(#clip712)" cx="1225.77" cy="591.101" r="14.4" fill="#e31a1c" fill-rule="evenodd" fill-opacity="1" stroke="none"/>
<circle clip-path="url(#clip712)" cx="1247.76" cy="591.101" r="14.4" fill="#e31a1c" fill-rule="evenodd" fill-opacity="1" stroke="none"/>
<circle clip-path="url(#clip712)" cx="1269.75" cy="591.101" r="14.4" fill="#e31a1c" fill-rule="evenodd" fill-opacity="1" stroke="none"/>
<circle clip-path="url(#clip712)" cx="1291.74" cy="591.101" r="14.4" fill="#e31a1c" fill-rule="evenodd" fill-opacity="1" stroke="none"/>
<circle clip-path="url(#clip712)" cx="1313.72" cy="591.101" r="14.4" fill="#e31a1c" fill-rule="evenodd" fill-opacity="1" stroke="none"/>
<path clip-path="url(#clip712)" d="M236.309 694.303 L258.297 597.558 L280.285 539.32 L302.273 491.239 L324.261 450.29 L346.249 420.458 L368.237 392.272 L390.225 366.608 L412.213 348.101 L434.201 335.881 L456.19 327.945 L478.178 314.596 L500.166 301.864 L522.154 293.45 L544.142 285.172 L566.13 276.141 L588.118 267.697 L610.106 259.156 L632.094 252.455 L654.082 246.482 L676.07 242.792 L698.058 235.71 L720.046 230.652 L742.034 225.758 L764.023 220.446 L786.011 216.192 L807.999 212.201 L829.987 207.853 L851.975 204.574 L873.963 200.952 L895.951 197.228 L917.939 194.43 L939.927 191.124 L961.915 188.196 L983.903 184.845 L1005.89 181.694 L1027.88 179.055 L1049.87 176.986 L1071.86 175.286 L1093.84 172.658 L1115.83 170.311 L1137.82 168.467 L1159.81 165.97 L1181.8 164.326 L1203.78 164.326 L1225.77 164.326 L1247.76 164.326 L1269.75 164.326 L1291.74 164.326 L1313.72 164.326 L1313.72 144.881 L1291.74 144.881 L1269.75 144.881 L1247.76 144.881 L1225.77 144.881 L1203.78 144.881 L1181.8 144.881 L1159.81 146.808 L1137.82 148.485 L1115.83 150.911 L1093.84 152.861 L1071.86 155.468 L1049.87 157.695 L1027.88 160.532 L1005.89 162.824 L983.903 165.792 L961.915 168.596 L939.927 171.622 L917.939 173.928 L895.951 177.508 L873.963 180.302 L851.975 184.151 L829.987 188.571 L807.999 192.875 L786.011 197.27 L764.023 201.13 L742.034 207.076 L720.046 211.606 L698.058 217.122 L676.07 222.338 L654.082 227.736 L632.094 232.998 L610.106 240.133 L588.118 246.821 L566.13 253.639 L544.142 262.347 L522.154 269.531 L500.166 278.639 L478.178 288.517 L456.19 300.5 L434.201 313.911 L412.213 323.935 L390.225 341.1 L368.237 360.645 L346.249 381.475 L324.261 402.573 L302.273 428.521 L280.285 459.672 L258.297 488.607 L236.309 540.128  Z" fill="#ff7e00" fill-rule="evenodd" fill-opacity="0.1"/>
<polyline clip-path="url(#clip712)" style="stroke:#ff7e00; stroke-linecap:round; stroke-linejoin:round; stroke-width:4; stroke-opacity:1; fill:none" points="236.309,617.216 258.297,543.083 280.285,499.496 302.273,459.88 324.261,426.431 346.249,400.966 368.237,376.459 390.225,353.854 412.213,336.018 434.201,324.896 456.19,314.222 478.178,301.556 500.166,290.251 522.154,281.491 544.142,273.759 566.13,264.89 588.118,257.259 610.106,249.644 632.094,242.726 654.082,237.109 676.07,232.565 698.058,226.416 720.046,221.129 742.034,216.417 764.023,210.788 786.011,206.731 807.999,202.538 829.987,198.212 851.975,194.362 873.963,190.627 895.951,187.368 917.939,184.179 939.927,181.373 961.915,178.396 983.903,175.319 1005.89,172.259 1027.88,169.793 1049.87,167.341 1071.86,165.377 1093.84,162.76 1115.83,160.611 1137.82,158.476 1159.81,156.389 1181.8,154.604 1203.78,154.604 1225.77,154.604 1247.76,154.604 1269.75,154.604 1291.74,154.604 1313.72,154.604 "/>
<circle clip-path="url(#clip712)" cx="236.309" cy="617.216" r="14.4" fill="#ff7e00" fill-rule="evenodd" fill-opacity="1" stroke="none"/>
<circle clip-path="url(#clip712)" cx="258.297" cy="543.083" r="14.4" fill="#ff7e00" fill-rule="evenodd" fill-opacity="1" stroke="none"/>
<circle clip-path="url(#clip712)" cx="280.285" cy="499.496" r="14.4" fill="#ff7e00" fill-rule="evenodd" fill-opacity="1" stroke="none"/>
<circle clip-path="url(#clip712)" cx="302.273" cy="459.88" r="14.4" fill="#ff7e00" fill-rule="evenodd" fill-opacity="1" stroke="none"/>
<circle clip-path="url(#clip712)" cx="324.261" cy="426.431" r="14.4" fill="#ff7e00" fill-rule="evenodd" fill-opacity="1" stroke="none"/>
<circle clip-path="url(#clip712)" cx="346.249" cy="400.966" r="14.4" fill="#ff7e00" fill-rule="evenodd" fill-opacity="1" stroke="none"/>
<circle clip-path="url(#clip712)" cx="368.237" cy="376.459" r="14.4" fill="#ff7e00" fill-rule="evenodd" fill-opacity="1" stroke="none"/>
<circle clip-path="url(#clip712)" cx="390.225" cy="353.854" r="14.4" fill="#ff7e00" fill-rule="evenodd" fill-opacity="1" stroke="none"/>
<circle clip-path="url(#clip712)" cx="412.213" cy="336.018" r="14.4" fill="#ff7e00" fill-rule="evenodd" fill-opacity="1" stroke="none"/>
<circle clip-path="url(#clip712)" cx="434.201" cy="324.896" r="14.4" fill="#ff7e00" fill-rule="evenodd" fill-opacity="1" stroke="none"/>
<circle clip-path="url(#clip712)" cx="456.19" cy="314.222" r="14.4" fill="#ff7e00" fill-rule="evenodd" fill-opacity="1" stroke="none"/>
<circle clip-path="url(#clip712)" cx="478.178" cy="301.556" r="14.4" fill="#ff7e00" fill-rule="evenodd" fill-opacity="1" stroke="none"/>
<circle clip-path="url(#clip712)" cx="500.166" cy="290.251" r="14.4" fill="#ff7e00" fill-rule="evenodd" fill-opacity="1" stroke="none"/>
<circle clip-path="url(#clip712)" cx="522.154" cy="281.491" r="14.4" fill="#ff7e00" fill-rule="evenodd" fill-opacity="1" stroke="none"/>
<circle clip-path="url(#clip712)" cx="544.142" cy="273.759" r="14.4" fill="#ff7e00" fill-rule="evenodd" fill-opacity="1" stroke="none"/>
<circle clip-path="url(#clip712)" cx="566.13" cy="264.89" r="14.4" fill="#ff7e00" fill-rule="evenodd" fill-opacity="1" stroke="none"/>
<circle clip-path="url(#clip712)" cx="588.118" cy="257.259" r="14.4" fill="#ff7e00" fill-rule="evenodd" fill-opacity="1" stroke="none"/>
<circle clip-path="url(#clip712)" cx="610.106" cy="249.644" r="14.4" fill="#ff7e00" fill-rule="evenodd" fill-opacity="1" stroke="none"/>
<circle clip-path="url(#clip712)" cx="632.094" cy="242.726" r="14.4" fill="#ff7e00" fill-rule="evenodd" fill-opacity="1" stroke="none"/>
<circle clip-path="url(#clip712)" cx="654.082" cy="237.109" r="14.4" fill="#ff7e00" fill-rule="evenodd" fill-opacity="1" stroke="none"/>
<circle clip-path="url(#clip712)" cx="676.07" cy="232.565" r="14.4" fill="#ff7e00" fill-rule="evenodd" fill-opacity="1" stroke="none"/>
<circle clip-path="url(#clip712)" cx="698.058" cy="226.416" r="14.4" fill="#ff7e00" fill-rule="evenodd" fill-opacity="1" stroke="none"/>
<circle clip-path="url(#clip712)" cx="720.046" cy="221.129" r="14.4" fill="#ff7e00" fill-rule="evenodd" fill-opacity="1" stroke="none"/>
<circle clip-path="url(#clip712)" cx="742.034" cy="216.417" r="14.4" fill="#ff7e00" fill-rule="evenodd" fill-opacity="1" stroke="none"/>
<circle clip-path="url(#clip712)" cx="764.023" cy="210.788" r="14.4" fill="#ff7e00" fill-rule="evenodd" fill-opacity="1" stroke="none"/>
<circle clip-path="url(#clip712)" cx="786.011" cy="206.731" r="14.4" fill="#ff7e00" fill-rule="evenodd" fill-opacity="1" stroke="none"/>
<circle clip-path="url(#clip712)" cx="807.999" cy="202.538" r="14.4" fill="#ff7e00" fill-rule="evenodd" fill-opacity="1" stroke="none"/>
<circle clip-path="url(#clip712)" cx="829.987" cy="198.212" r="14.4" fill="#ff7e00" fill-rule="evenodd" fill-opacity="1" stroke="none"/>
<circle clip-path="url(#clip712)" cx="851.975" cy="194.362" r="14.4" fill="#ff7e00" fill-rule="evenodd" fill-opacity="1" stroke="none"/>
<circle clip-path="url(#clip712)" cx="873.963" cy="190.627" r="14.4" fill="#ff7e00" fill-rule="evenodd" fill-opacity="1" stroke="none"/>
<circle clip-path="url(#clip712)" cx="895.951" cy="187.368" r="14.4" fill="#ff7e00" fill-rule="evenodd" fill-opacity="1" stroke="none"/>
<circle clip-path="url(#clip712)" cx="917.939" cy="184.179" r="14.4" fill="#ff7e00" fill-rule="evenodd" fill-opacity="1" stroke="none"/>
<circle clip-path="url(#clip712)" cx="939.927" cy="181.373" r="14.4" fill="#ff7e00" fill-rule="evenodd" fill-opacity="1" stroke="none"/>
<circle clip-path="url(#clip712)" cx="961.915" cy="178.396" r="14.4" fill="#ff7e00" fill-rule="evenodd" fill-opacity="1" stroke="none"/>
<circle clip-path="url(#clip712)" cx="983.903" cy="175.319" r="14.4" fill="#ff7e00" fill-rule="evenodd" fill-opacity="1" stroke="none"/>
<circle clip-path="url(#clip712)" cx="1005.89" cy="172.259" r="14.4" fill="#ff7e00" fill-rule="evenodd" fill-opacity="1" stroke="none"/>
<circle clip-path="url(#clip712)" cx="1027.88" cy="169.793" r="14.4" fill="#ff7e00" fill-rule="evenodd" fill-opacity="1" stroke="none"/>
<circle clip-path="url(#clip712)" cx="1049.87" cy="167.341" r="14.4" fill="#ff7e00" fill-rule="evenodd" fill-opacity="1" stroke="none"/>
<circle clip-path="url(#clip712)" cx="1071.86" cy="165.377" r="14.4" fill="#ff7e00" fill-rule="evenodd" fill-opacity="1" stroke="none"/>
<circle clip-path="url(#clip712)" cx="1093.84" cy="162.76" r="14.4" fill="#ff7e00" fill-rule="evenodd" fill-opacity="1" stroke="none"/>
<circle clip-path="url(#clip712)" cx="1115.83" cy="160.611" r="14.4" fill="#ff7e00" fill-rule="evenodd" fill-opacity="1" stroke="none"/>
<circle clip-path="url(#clip712)" cx="1137.82" cy="158.476" r="14.4" fill="#ff7e00" fill-rule="evenodd" fill-opacity="1" stroke="none"/>
<circle clip-path="url(#clip712)" cx="1159.81" cy="156.389" r="14.4" fill="#ff7e00" fill-rule="evenodd" fill-opacity="1" stroke="none"/>
<circle clip-path="url(#clip712)" cx="1181.8" cy="154.604" r="14.4" fill="#ff7e00" fill-rule="evenodd" fill-opacity="1" stroke="none"/>
<circle clip-path="url(#clip712)" cx="1203.78" cy="154.604" r="14.4" fill="#ff7e00" fill-rule="evenodd" fill-opacity="1" stroke="none"/>
<circle clip-path="url(#clip712)" cx="1225.77" cy="154.604" r="14.4" fill="#ff7e00" fill-rule="evenodd" fill-opacity="1" stroke="none"/>
<circle clip-path="url(#clip712)" cx="1247.76" cy="154.604" r="14.4" fill="#ff7e00" fill-rule="evenodd" fill-opacity="1" stroke="none"/>
<circle clip-path="url(#clip712)" cx="1269.75" cy="154.604" r="14.4" fill="#ff7e00" fill-rule="evenodd" fill-opacity="1" stroke="none"/>
<circle clip-path="url(#clip712)" cx="1291.74" cy="154.604" r="14.4" fill="#ff7e00" fill-rule="evenodd" fill-opacity="1" stroke="none"/>
<circle clip-path="url(#clip712)" cx="1313.72" cy="154.604" r="14.4" fill="#ff7e00" fill-rule="evenodd" fill-opacity="1" stroke="none"/>
<path clip-path="url(#clip710)" d="M1404.34 281.353 L1952.76 281.353 L1952.76 73.9926 L1404.34 73.9926  Z" fill="#ffffff" fill-rule="evenodd" fill-opacity="1"/>
<polyline clip-path="url(#clip710)" style="stroke:#000000; stroke-linecap:round; stroke-linejoin:round; stroke-width:4; stroke-opacity:1; fill:none" points="1404.34,281.353 1952.76,281.353 1952.76,73.9926 1404.34,73.9926 1404.34,281.353 "/>
<polyline clip-path="url(#clip710)" style="stroke:#377db8; stroke-linecap:round; stroke-linejoin:round; stroke-width:4; stroke-opacity:1; fill:none" points="1423.77,125.833 1540.35,125.833 "/>
<circle clip-path="url(#clip710)" cx="1482.06" cy="125.833" r="16.1923" fill="#377db8" fill-rule="evenodd" fill-opacity="1" stroke="none"/>
<path clip-path="url(#clip710)" d="M1564.46 126.608 L1564.46 139.27 L1571.96 139.27 Q1575.73 139.27 1577.54 137.719 Q1579.37 136.145 1579.37 132.927 Q1579.37 129.687 1577.54 128.159 Q1575.73 126.608 1571.96 126.608 L1564.46 126.608 M1564.46 112.395 L1564.46 122.812 L1571.38 122.812 Q1574.81 122.812 1576.48 121.539 Q1578.16 120.242 1578.16 117.603 Q1578.16 114.988 1576.48 113.691 Q1574.81 112.395 1571.38 112.395 L1564.46 112.395 M1559.79 108.553 L1571.73 108.553 Q1577.08 108.553 1579.97 110.775 Q1582.86 112.997 1582.86 117.094 Q1582.86 120.266 1581.38 122.141 Q1579.9 124.015 1577.03 124.478 Q1580.48 125.219 1582.38 127.58 Q1584.3 129.918 1584.3 133.437 Q1584.3 138.066 1581.15 140.589 Q1578 143.113 1572.19 143.113 L1559.79 143.113 L1559.79 108.553 Z" fill="#000000" fill-rule="nonzero" fill-opacity="1" /><path clip-path="url(#clip710)" d="M1592.12 117.187 L1596.38 117.187 L1596.38 143.113 L1592.12 143.113 L1592.12 117.187 M1592.12 107.094 L1596.38 107.094 L1596.38 112.488 L1592.12 112.488 L1592.12 107.094 Z" fill="#000000" fill-rule="nonzero" fill-opacity="1" /><path clip-path="url(#clip710)" d="M1621.82 117.951 L1621.82 121.978 Q1620.02 121.053 1618.07 120.59 Q1616.13 120.127 1614.04 120.127 Q1610.87 120.127 1609.28 121.099 Q1607.7 122.071 1607.7 124.015 Q1607.7 125.497 1608.84 126.353 Q1609.97 127.187 1613.4 127.951 L1614.85 128.275 Q1619.39 129.247 1621.29 131.029 Q1623.21 132.789 1623.21 135.96 Q1623.21 139.571 1620.34 141.677 Q1617.49 143.784 1612.49 143.784 Q1610.41 143.784 1608.14 143.367 Q1605.9 142.974 1603.4 142.164 L1603.4 137.765 Q1605.76 138.992 1608.05 139.617 Q1610.34 140.219 1612.59 140.219 Q1615.6 140.219 1617.22 139.201 Q1618.84 138.159 1618.84 136.284 Q1618.84 134.548 1617.66 133.622 Q1616.5 132.696 1612.54 131.84 L1611.06 131.492 Q1607.1 130.659 1605.34 128.946 Q1603.58 127.21 1603.58 124.201 Q1603.58 120.543 1606.17 118.553 Q1608.77 116.562 1613.54 116.562 Q1615.9 116.562 1617.98 116.909 Q1620.06 117.256 1621.82 117.951 Z" fill="#000000" fill-rule="nonzero" fill-opacity="1" /><path clip-path="url(#clip710)" d="M1634.21 109.826 L1634.21 117.187 L1642.98 117.187 L1642.98 120.497 L1634.21 120.497 L1634.21 134.571 Q1634.21 137.742 1635.06 138.645 Q1635.94 139.548 1638.6 139.548 L1642.98 139.548 L1642.98 143.113 L1638.6 143.113 Q1633.67 143.113 1631.8 141.284 Q1629.92 139.432 1629.92 134.571 L1629.92 120.497 L1626.8 120.497 L1626.8 117.187 L1629.92 117.187 L1629.92 109.826 L1634.21 109.826 Z" fill="#000000" fill-rule="nonzero" fill-opacity="1" /><path clip-path="url(#clip710)" d="M1658.63 120.173 Q1655.2 120.173 1653.21 122.858 Q1651.22 125.52 1651.22 130.173 Q1651.22 134.826 1653.19 137.511 Q1655.18 140.173 1658.63 140.173 Q1662.03 140.173 1664.02 137.488 Q1666.01 134.802 1666.01 130.173 Q1666.01 125.566 1664.02 122.881 Q1662.03 120.173 1658.63 120.173 M1658.63 116.562 Q1664.18 116.562 1667.35 120.173 Q1670.53 123.784 1670.53 130.173 Q1670.53 136.539 1667.35 140.173 Q1664.18 143.784 1658.63 143.784 Q1653.05 143.784 1649.88 140.173 Q1646.73 136.539 1646.73 130.173 Q1646.73 123.784 1649.88 120.173 Q1653.05 116.562 1658.63 116.562 Z" fill="#000000" fill-rule="nonzero" fill-opacity="1" /><path clip-path="url(#clip710)" d="M1696.24 118.182 L1696.24 122.164 Q1694.44 121.168 1692.61 120.682 Q1690.8 120.173 1688.95 120.173 Q1684.81 120.173 1682.52 122.812 Q1680.22 125.428 1680.22 130.173 Q1680.22 134.918 1682.52 137.557 Q1684.81 140.173 1688.95 140.173 Q1690.8 140.173 1692.61 139.687 Q1694.44 139.177 1696.24 138.182 L1696.24 142.117 Q1694.46 142.951 1692.54 143.367 Q1690.64 143.784 1688.49 143.784 Q1682.63 143.784 1679.18 140.103 Q1675.73 136.423 1675.73 130.173 Q1675.73 123.83 1679.21 120.196 Q1682.7 116.562 1688.77 116.562 Q1690.73 116.562 1692.61 116.979 Q1694.48 117.372 1696.24 118.182 Z" fill="#000000" fill-rule="nonzero" fill-opacity="1" /><path clip-path="url(#clip710)" d="M1725.2 127.465 L1725.2 143.113 L1720.94 143.113 L1720.94 127.603 Q1720.94 123.923 1719.51 122.094 Q1718.07 120.266 1715.2 120.266 Q1711.75 120.266 1709.76 122.465 Q1707.77 124.664 1707.77 128.46 L1707.77 143.113 L1703.49 143.113 L1703.49 107.094 L1707.77 107.094 L1707.77 121.215 Q1709.3 118.877 1711.36 117.719 Q1713.44 116.562 1716.15 116.562 Q1720.62 116.562 1722.91 119.34 Q1725.2 122.094 1725.2 127.465 Z" fill="#000000" fill-rule="nonzero" fill-opacity="1" /><path clip-path="url(#clip710)" d="M1745.48 130.08 Q1740.32 130.08 1738.33 131.261 Q1736.34 132.441 1736.34 135.289 Q1736.34 137.557 1737.82 138.9 Q1739.32 140.219 1741.89 140.219 Q1745.43 140.219 1747.56 137.719 Q1749.72 135.196 1749.72 131.029 L1749.72 130.08 L1745.48 130.08 M1753.97 128.321 L1753.97 143.113 L1749.72 143.113 L1749.72 139.177 Q1748.26 141.539 1746.08 142.673 Q1743.9 143.784 1740.76 143.784 Q1736.78 143.784 1734.41 141.562 Q1732.08 139.316 1732.08 135.566 Q1732.08 131.191 1734.99 128.969 Q1737.93 126.747 1743.74 126.747 L1749.72 126.747 L1749.72 126.33 Q1749.72 123.391 1747.77 121.793 Q1745.85 120.173 1742.35 120.173 Q1740.13 120.173 1738.03 120.705 Q1735.92 121.238 1733.97 122.303 L1733.97 118.367 Q1736.31 117.465 1738.51 117.025 Q1740.71 116.562 1742.79 116.562 Q1748.42 116.562 1751.2 119.478 Q1753.97 122.395 1753.97 128.321 Z" fill="#000000" fill-rule="nonzero" fill-opacity="1" /><path clip-path="url(#clip710)" d="M1779.28 117.951 L1779.28 121.978 Q1777.47 121.053 1775.53 120.59 Q1773.58 120.127 1771.5 120.127 Q1768.33 120.127 1766.73 121.099 Q1765.15 122.071 1765.15 124.015 Q1765.15 125.497 1766.29 126.353 Q1767.42 127.187 1770.85 127.951 L1772.31 128.275 Q1776.84 129.247 1778.74 131.029 Q1780.66 132.789 1780.66 135.96 Q1780.66 139.571 1777.79 141.677 Q1774.95 143.784 1769.95 143.784 Q1767.86 143.784 1765.59 143.367 Q1763.35 142.974 1760.85 142.164 L1760.85 137.765 Q1763.21 138.992 1765.5 139.617 Q1767.79 140.219 1770.04 140.219 Q1773.05 140.219 1774.67 139.201 Q1776.29 138.159 1776.29 136.284 Q1776.29 134.548 1775.11 133.622 Q1773.95 132.696 1769.99 131.84 L1768.51 131.492 Q1764.55 130.659 1762.79 128.946 Q1761.03 127.21 1761.03 124.201 Q1761.03 120.543 1763.63 118.553 Q1766.22 116.562 1770.99 116.562 Q1773.35 116.562 1775.43 116.909 Q1777.52 117.256 1779.28 117.951 Z" fill="#000000" fill-rule="nonzero" fill-opacity="1" /><path clip-path="url(#clip710)" d="M1791.66 109.826 L1791.66 117.187 L1800.43 117.187 L1800.43 120.497 L1791.66 120.497 L1791.66 134.571 Q1791.66 137.742 1792.52 138.645 Q1793.4 139.548 1796.06 139.548 L1800.43 139.548 L1800.43 143.113 L1796.06 143.113 Q1791.13 143.113 1789.25 141.284 Q1787.38 139.432 1787.38 134.571 L1787.38 120.497 L1784.25 120.497 L1784.25 117.187 L1787.38 117.187 L1787.38 109.826 L1791.66 109.826 Z" fill="#000000" fill-rule="nonzero" fill-opacity="1" /><path clip-path="url(#clip710)" d="M1806.03 117.187 L1810.29 117.187 L1810.29 143.113 L1806.03 143.113 L1806.03 117.187 M1806.03 107.094 L1810.29 107.094 L1810.29 112.488 L1806.03 112.488 L1806.03 107.094 Z" fill="#000000" fill-rule="nonzero" fill-opacity="1" /><path clip-path="url(#clip710)" d="M1837.86 118.182 L1837.86 122.164 Q1836.06 121.168 1834.23 120.682 Q1832.42 120.173 1830.57 120.173 Q1826.43 120.173 1824.14 122.812 Q1821.84 125.428 1821.84 130.173 Q1821.84 134.918 1824.14 137.557 Q1826.43 140.173 1830.57 140.173 Q1832.42 140.173 1834.23 139.687 Q1836.06 139.177 1837.86 138.182 L1837.86 142.117 Q1836.08 142.951 1834.16 143.367 Q1832.26 143.784 1830.11 143.784 Q1824.25 143.784 1820.8 140.103 Q1817.35 136.423 1817.35 130.173 Q1817.35 123.83 1820.83 120.196 Q1824.32 116.562 1830.39 116.562 Q1832.35 116.562 1834.23 116.979 Q1836.1 117.372 1837.86 118.182 Z" fill="#000000" fill-rule="nonzero" fill-opacity="1" /><path clip-path="url(#clip710)" d="M1860.52 108.553 L1865.2 108.553 L1865.2 139.177 L1882.03 139.177 L1882.03 143.113 L1860.52 143.113 L1860.52 108.553 Z" fill="#000000" fill-rule="nonzero" fill-opacity="1" /><path clip-path="url(#clip710)" d="M1891.38 139.177 L1907.7 139.177 L1907.7 143.113 L1885.76 143.113 L1885.76 139.177 Q1888.42 136.423 1893 131.793 Q1897.61 127.14 1898.79 125.798 Q1901.03 123.275 1901.91 121.539 Q1902.82 119.779 1902.82 118.09 Q1902.82 115.335 1900.87 113.599 Q1898.95 111.863 1895.85 111.863 Q1893.65 111.863 1891.2 112.627 Q1888.77 113.391 1885.99 114.941 L1885.99 110.219 Q1888.81 109.085 1891.27 108.506 Q1893.72 107.928 1895.76 107.928 Q1901.13 107.928 1904.32 110.613 Q1907.52 113.298 1907.52 117.789 Q1907.52 119.918 1906.7 121.84 Q1905.92 123.738 1903.81 126.33 Q1903.23 127.002 1900.13 130.219 Q1897.03 133.414 1891.38 139.177 Z" fill="#000000" fill-rule="nonzero" fill-opacity="1" /><polyline clip-path="url(#clip710)" style="stroke:#e31a1c; stroke-linecap:round; stroke-linejoin:round; stroke-width:4; stroke-opacity:1; fill:none" points="1423.77,177.673 1540.35,177.673 "/>
<circle clip-path="url(#clip710)" cx="1482.06" cy="177.673" r="16.1923" fill="#e31a1c" fill-rule="evenodd" fill-opacity="1" stroke="none"/>
<path clip-path="url(#clip710)" d="M1564.46 178.448 L1564.46 191.11 L1571.96 191.11 Q1575.73 191.11 1577.54 189.559 Q1579.37 187.985 1579.37 184.767 Q1579.37 181.527 1577.54 179.999 Q1575.73 178.448 1571.96 178.448 L1564.46 178.448 M1564.46 164.235 L1564.46 174.652 L1571.38 174.652 Q1574.81 174.652 1576.48 173.379 Q1578.16 172.082 1578.16 169.443 Q1578.16 166.828 1576.48 165.531 Q1574.81 164.235 1571.38 164.235 L1564.46 164.235 M1559.79 160.393 L1571.73 160.393 Q1577.08 160.393 1579.97 162.615 Q1582.86 164.837 1582.86 168.934 Q1582.86 172.106 1581.38 173.981 Q1579.9 175.855 1577.03 176.318 Q1580.48 177.059 1582.38 179.42 Q1584.3 181.758 1584.3 185.277 Q1584.3 189.906 1581.15 192.429 Q1578 194.953 1572.19 194.953 L1559.79 194.953 L1559.79 160.393 Z" fill="#000000" fill-rule="nonzero" fill-opacity="1" /><path clip-path="url(#clip710)" d="M1592.12 169.027 L1596.38 169.027 L1596.38 194.953 L1592.12 194.953 L1592.12 169.027 M1592.12 158.934 L1596.38 158.934 L1596.38 164.328 L1592.12 164.328 L1592.12 158.934 Z" fill="#000000" fill-rule="nonzero" fill-opacity="1" /><path clip-path="url(#clip710)" d="M1621.82 169.791 L1621.82 173.818 Q1620.02 172.893 1618.07 172.43 Q1616.13 171.967 1614.04 171.967 Q1610.87 171.967 1609.28 172.939 Q1607.7 173.911 1607.7 175.855 Q1607.7 177.337 1608.84 178.193 Q1609.97 179.027 1613.4 179.791 L1614.85 180.115 Q1619.39 181.087 1621.29 182.869 Q1623.21 184.629 1623.21 187.8 Q1623.21 191.411 1620.34 193.517 Q1617.49 195.624 1612.49 195.624 Q1610.41 195.624 1608.14 195.207 Q1605.9 194.814 1603.4 194.004 L1603.4 189.605 Q1605.76 190.832 1608.05 191.457 Q1610.34 192.059 1612.59 192.059 Q1615.6 192.059 1617.22 191.041 Q1618.84 189.999 1618.84 188.124 Q1618.84 186.388 1617.66 185.462 Q1616.5 184.536 1612.54 183.68 L1611.06 183.332 Q1607.1 182.499 1605.34 180.786 Q1603.58 179.05 1603.58 176.041 Q1603.58 172.383 1606.17 170.393 Q1608.77 168.402 1613.54 168.402 Q1615.9 168.402 1617.98 168.749 Q1620.06 169.096 1621.82 169.791 Z" fill="#000000" fill-rule="nonzero" fill-opacity="1" /><path clip-path="url(#clip710)" d="M1634.21 161.666 L1634.21 169.027 L1642.98 169.027 L1642.98 172.337 L1634.21 172.337 L1634.21 186.411 Q1634.21 189.582 1635.06 190.485 Q1635.94 191.388 1638.6 191.388 L1642.98 191.388 L1642.98 194.953 L1638.6 194.953 Q1633.67 194.953 1631.8 193.124 Q1629.92 191.272 1629.92 186.411 L1629.92 172.337 L1626.8 172.337 L1626.8 169.027 L1629.92 169.027 L1629.92 161.666 L1634.21 161.666 Z" fill="#000000" fill-rule="nonzero" fill-opacity="1" /><path clip-path="url(#clip710)" d="M1658.63 172.013 Q1655.2 172.013 1653.21 174.698 Q1651.22 177.36 1651.22 182.013 Q1651.22 186.666 1653.19 189.351 Q1655.18 192.013 1658.63 192.013 Q1662.03 192.013 1664.02 189.328 Q1666.01 186.642 1666.01 182.013 Q1666.01 177.406 1664.02 174.721 Q1662.03 172.013 1658.63 172.013 M1658.63 168.402 Q1664.18 168.402 1667.35 172.013 Q1670.53 175.624 1670.53 182.013 Q1670.53 188.379 1667.35 192.013 Q1664.18 195.624 1658.63 195.624 Q1653.05 195.624 1649.88 192.013 Q1646.73 188.379 1646.73 182.013 Q1646.73 175.624 1649.88 172.013 Q1653.05 168.402 1658.63 168.402 Z" fill="#000000" fill-rule="nonzero" fill-opacity="1" /><path clip-path="url(#clip710)" d="M1696.24 170.022 L1696.24 174.004 Q1694.44 173.008 1692.61 172.522 Q1690.8 172.013 1688.95 172.013 Q1684.81 172.013 1682.52 174.652 Q1680.22 177.268 1680.22 182.013 Q1680.22 186.758 1682.52 189.397 Q1684.81 192.013 1688.95 192.013 Q1690.8 192.013 1692.61 191.527 Q1694.44 191.017 1696.24 190.022 L1696.24 193.957 Q1694.46 194.791 1692.54 195.207 Q1690.64 195.624 1688.49 195.624 Q1682.63 195.624 1679.18 191.943 Q1675.73 188.263 1675.73 182.013 Q1675.73 175.67 1679.21 172.036 Q1682.7 168.402 1688.77 168.402 Q1690.73 168.402 1692.61 168.819 Q1694.48 169.212 1696.24 170.022 Z" fill="#000000" fill-rule="nonzero" fill-opacity="1" /><path clip-path="url(#clip710)" d="M1725.2 179.305 L1725.2 194.953 L1720.94 194.953 L1720.94 179.443 Q1720.94 175.763 1719.51 173.934 Q1718.07 172.106 1715.2 172.106 Q1711.75 172.106 1709.76 174.305 Q1707.77 176.504 1707.77 180.3 L1707.77 194.953 L1703.49 194.953 L1703.49 158.934 L1707.77 158.934 L1707.77 173.055 Q1709.3 170.717 1711.36 169.559 Q1713.44 168.402 1716.15 168.402 Q1720.62 168.402 1722.91 171.18 Q1725.2 173.934 1725.2 179.305 Z" fill="#000000" fill-rule="nonzero" fill-opacity="1" /><path clip-path="url(#clip710)" d="M1745.48 181.92 Q1740.32 181.92 1738.33 183.101 Q1736.34 184.281 1736.34 187.129 Q1736.34 189.397 1737.82 190.74 Q1739.32 192.059 1741.89 192.059 Q1745.43 192.059 1747.56 189.559 Q1749.72 187.036 1749.72 182.869 L1749.72 181.92 L1745.48 181.92 M1753.97 180.161 L1753.97 194.953 L1749.72 194.953 L1749.72 191.017 Q1748.26 193.379 1746.08 194.513 Q1743.9 195.624 1740.76 195.624 Q1736.78 195.624 1734.41 193.402 Q1732.08 191.156 1732.08 187.406 Q1732.08 183.031 1734.99 180.809 Q1737.93 178.587 1743.74 178.587 L1749.72 178.587 L1749.72 178.17 Q1749.72 175.231 1747.77 173.633 Q1745.85 172.013 1742.35 172.013 Q1740.13 172.013 1738.03 172.545 Q1735.92 173.078 1733.97 174.143 L1733.97 170.207 Q1736.31 169.305 1738.51 168.865 Q1740.71 168.402 1742.79 168.402 Q1748.42 168.402 1751.2 171.318 Q1753.97 174.235 1753.97 180.161 Z" fill="#000000" fill-rule="nonzero" fill-opacity="1" /><path clip-path="url(#clip710)" d="M1779.28 169.791 L1779.28 173.818 Q1777.47 172.893 1775.53 172.43 Q1773.58 171.967 1771.5 171.967 Q1768.33 171.967 1766.73 172.939 Q1765.15 173.911 1765.15 175.855 Q1765.15 177.337 1766.29 178.193 Q1767.42 179.027 1770.85 179.791 L1772.31 180.115 Q1776.84 181.087 1778.74 182.869 Q1780.66 184.629 1780.66 187.8 Q1780.66 191.411 1777.79 193.517 Q1774.95 195.624 1769.95 195.624 Q1767.86 195.624 1765.59 195.207 Q1763.35 194.814 1760.85 194.004 L1760.85 189.605 Q1763.21 190.832 1765.5 191.457 Q1767.79 192.059 1770.04 192.059 Q1773.05 192.059 1774.67 191.041 Q1776.29 189.999 1776.29 188.124 Q1776.29 186.388 1775.11 185.462 Q1773.95 184.536 1769.99 183.68 L1768.51 183.332 Q1764.55 182.499 1762.79 180.786 Q1761.03 179.05 1761.03 176.041 Q1761.03 172.383 1763.63 170.393 Q1766.22 168.402 1770.99 168.402 Q1773.35 168.402 1775.43 168.749 Q1777.52 169.096 1779.28 169.791 Z" fill="#000000" fill-rule="nonzero" fill-opacity="1" /><path clip-path="url(#clip710)" d="M1791.66 161.666 L1791.66 169.027 L1800.43 169.027 L1800.43 172.337 L1791.66 172.337 L1791.66 186.411 Q1791.66 189.582 1792.52 190.485 Q1793.4 191.388 1796.06 191.388 L1800.43 191.388 L1800.43 194.953 L1796.06 194.953 Q1791.13 194.953 1789.25 193.124 Q1787.38 191.272 1787.38 186.411 L1787.38 172.337 L1784.25 172.337 L1784.25 169.027 L1787.38 169.027 L1787.38 161.666 L1791.66 161.666 Z" fill="#000000" fill-rule="nonzero" fill-opacity="1" /><path clip-path="url(#clip710)" d="M1806.03 169.027 L1810.29 169.027 L1810.29 194.953 L1806.03 194.953 L1806.03 169.027 M1806.03 158.934 L1810.29 158.934 L1810.29 164.328 L1806.03 164.328 L1806.03 158.934 Z" fill="#000000" fill-rule="nonzero" fill-opacity="1" /><path clip-path="url(#clip710)" d="M1837.86 170.022 L1837.86 174.004 Q1836.06 173.008 1834.23 172.522 Q1832.42 172.013 1830.57 172.013 Q1826.43 172.013 1824.14 174.652 Q1821.84 177.268 1821.84 182.013 Q1821.84 186.758 1824.14 189.397 Q1826.43 192.013 1830.57 192.013 Q1832.42 192.013 1834.23 191.527 Q1836.06 191.017 1837.86 190.022 L1837.86 193.957 Q1836.08 194.791 1834.16 195.207 Q1832.26 195.624 1830.11 195.624 Q1824.25 195.624 1820.8 191.943 Q1817.35 188.263 1817.35 182.013 Q1817.35 175.67 1820.83 172.036 Q1824.32 168.402 1830.39 168.402 Q1832.35 168.402 1834.23 168.819 Q1836.1 169.212 1837.86 170.022 Z" fill="#000000" fill-rule="nonzero" fill-opacity="1" /><path clip-path="url(#clip710)" d="M1860.52 160.393 L1882.38 160.393 L1882.38 164.328 L1865.2 164.328 L1865.2 174.559 L1881.66 174.559 L1881.66 178.494 L1865.2 178.494 L1865.2 191.017 L1882.79 191.017 L1882.79 194.953 L1860.52 194.953 L1860.52 160.393 Z" fill="#000000" fill-rule="nonzero" fill-opacity="1" /><path clip-path="url(#clip710)" d="M1911.84 179.305 L1911.84 194.953 L1907.58 194.953 L1907.58 179.443 Q1907.58 175.763 1906.15 173.934 Q1904.71 172.106 1901.84 172.106 Q1898.39 172.106 1896.4 174.305 Q1894.41 176.504 1894.41 180.3 L1894.41 194.953 L1890.13 194.953 L1890.13 169.027 L1894.41 169.027 L1894.41 173.055 Q1895.94 170.717 1898 169.559 Q1900.08 168.402 1902.79 168.402 Q1907.26 168.402 1909.55 171.18 Q1911.84 173.934 1911.84 179.305 Z" fill="#000000" fill-rule="nonzero" fill-opacity="1" /><path clip-path="url(#clip710)" d="M1924.55 161.666 L1924.55 169.027 L1933.33 169.027 L1933.33 172.337 L1924.55 172.337 L1924.55 186.411 Q1924.55 189.582 1925.41 190.485 Q1926.29 191.388 1928.95 191.388 L1933.33 191.388 L1933.33 194.953 L1928.95 194.953 Q1924.02 194.953 1922.14 193.124 Q1920.27 191.272 1920.27 186.411 L1920.27 172.337 L1917.14 172.337 L1917.14 169.027 L1920.27 169.027 L1920.27 161.666 L1924.55 161.666 Z" fill="#000000" fill-rule="nonzero" fill-opacity="1" /><polyline clip-path="url(#clip710)" style="stroke:#ff7e00; stroke-linecap:round; stroke-linejoin:round; stroke-width:4; stroke-opacity:1; fill:none" points="1423.77,229.513 1540.35,229.513 "/>
<circle clip-path="url(#clip710)" cx="1482.06" cy="229.513" r="16.1923" fill="#ff7e00" fill-rule="evenodd" fill-opacity="1" stroke="none"/>
<path clip-path="url(#clip710)" d="M1581.5 227.554 Q1581.5 228.889 1580.68 229.686 Q1579.88 230.482 1578.87 230.482 Q1577.98 230.482 1577.52 229.967 Q1577.05 229.451 1577.05 228.796 Q1577.05 228.515 1577.16 228.163 Q1577.28 227.788 1577.54 227.343 Q1577.82 226.898 1578.41 226.571 Q1578.99 226.243 1579.79 226.196 Q1579.62 226.032 1579.58 226.008 Q1579.23 225.727 1578.57 225.634 Q1578.48 225.587 1578.15 225.587 Q1576.53 225.587 1574.89 226.781 Q1573.28 227.952 1571.29 230.178 Q1568.78 232.777 1567.16 233.738 Q1574.26 234.675 1574.26 238.774 Q1574.26 239.453 1574.07 240.273 Q1573.7 241.819 1573.7 242.943 Q1573.7 245.191 1575.22 245.191 Q1576.7 245.191 1577.63 243.692 Q1578.59 242.193 1579.39 239.265 Q1579.51 238.727 1579.62 238.563 Q1579.74 238.399 1580.07 238.399 Q1580.65 238.399 1580.65 238.867 Q1580.12 241.608 1578.92 243.716 Q1577.4 246.269 1575.13 246.269 Q1573.23 246.269 1571.97 244.957 Q1570.72 243.622 1570.72 241.514 Q1570.72 240.999 1570.91 239.828 Q1571.05 239.359 1571.05 238.82 Q1571.05 237.72 1570.44 236.9 Q1569.83 236.057 1568.85 235.635 Q1567.87 235.213 1567.05 235.026 Q1566.25 234.815 1565.48 234.745 Q1563.13 244.653 1562.81 245.262 Q1562.6 245.683 1562.13 245.964 Q1561.66 246.269 1561.17 246.269 Q1560.7 246.269 1560.23 245.941 Q1559.79 245.636 1559.79 244.91 Q1559.79 244.536 1559.97 243.856 L1566.93 216.218 L1567.07 215.281 Q1567.07 215 1566.95 214.859 Q1566.86 214.695 1566.3 214.578 Q1565.76 214.461 1564.68 214.461 Q1564.24 214.461 1564.02 214.438 Q1563.84 214.414 1563.67 214.297 Q1563.51 214.157 1563.51 213.876 Q1563.51 213.477 1563.67 213.267 Q1563.86 213.032 1564 212.985 Q1564.14 212.939 1564.42 212.915 Q1564.82 212.892 1566.16 212.775 Q1567.49 212.634 1568.64 212.54 Q1569.79 212.447 1570.28 212.447 Q1570.56 212.447 1570.7 212.587 Q1570.86 212.704 1570.89 212.845 L1570.91 212.962 L1565.92 233.199 Q1567.98 232.379 1571.24 228.749 Q1575.01 224.533 1578.24 224.533 Q1579.76 224.533 1580.63 225.47 Q1581.5 226.383 1581.5 227.554 Z" fill="#000000" fill-rule="nonzero" fill-opacity="1" /><path clip-path="url(#clip710)" d="M1584.54 230.846 L1597.02 230.846 L1597.02 234.642 L1584.54 234.642 L1584.54 230.846 Z" fill="#000000" fill-rule="nonzero" fill-opacity="1" /><path clip-path="url(#clip710)" d="M1603.98 211.17 L1610.28 211.17 L1625.6 240.082 L1625.6 211.17 L1630.14 211.17 L1630.14 245.73 L1623.84 245.73 L1608.52 216.818 L1608.52 245.73 L1603.98 245.73 L1603.98 211.17 Z" fill="#000000" fill-rule="nonzero" fill-opacity="1" /><path clip-path="url(#clip710)" d="M1639.45 211.17 L1645.74 211.17 L1661.07 240.082 L1661.07 211.17 L1665.6 211.17 L1665.6 245.73 L1659.31 245.73 L1643.98 216.818 L1643.98 245.73 L1639.45 245.73 L1639.45 211.17 Z" fill="#000000" fill-rule="nonzero" fill-opacity="1" /></svg>
