<?xml version="1.0" encoding="utf-8"?>
<svg xmlns="http://www.w3.org/2000/svg" xmlns:xlink="http://www.w3.org/1999/xlink" width="250" height="250" viewBox="0 0 1000 1000">
<defs>
  <clipPath id="clip730">
    <rect x="0" y="0" width="1000" height="1000"/>
  </clipPath>
</defs>
<path clip-path="url(#clip730)" d="M0 1000 L1000 1000 L1000 0 L0 0  Z" fill="#ffffff" fill-rule="evenodd" fill-opacity="1"/>
<defs>
  <clipPath id="clip731">
    <rect x="200" y="100" width="701" height="701"/>
  </clipPath>
</defs>
<path clip-path="url(#clip730)" d="M229.626 788.14 L952.756 788.14 L952.756 47.2441 L229.626 47.2441  Z" fill="#ffffff" fill-rule="evenodd" fill-opacity="1"/>
<defs>
  <clipPath id="clip732">
    <rect x="229" y="47" width="724" height="742"/>
  </clipPath>
</defs>
<polyline clip-path="url(#clip732)" style="stroke:#000000; stroke-linecap:round; stroke-linejoin:round; stroke-width:2; stroke-opacity:0.1; fill:none" points="250.092,788.14 250.092,47.2441 "/>
<polyline clip-path="url(#clip732)" style="stroke:#000000; stroke-linecap:round; stroke-linejoin:round; stroke-width:2; stroke-opacity:0.1; fill:none" points="474.845,788.14 474.845,47.2441 "/>
<polyline clip-path="url(#clip732)" style="stroke:#000000; stroke-linecap:round; stroke-linejoin:round; stroke-width:2; stroke-opacity:0.1; fill:none" points="699.597,788.14 699.597,47.2441 "/>
<polyline clip-path="url(#clip732)" style="stroke:#000000; stroke-linecap:round; stroke-linejoin:round; stroke-width:2; stroke-opacity:0.1; fill:none" points="924.35,788.14 924.35,47.2441 "/>
<polyline clip-path="url(#clip732)" style="stroke:#000000; stroke-linecap:round; stroke-linejoin:round; stroke-width:2; stroke-opacity:0.1; fill:none" points="229.626,767.171 952.756,767.171 "/>
<polyline clip-path="url(#clip732)" style="stroke:#000000; stroke-linecap:round; stroke-linejoin:round; stroke-width:2; stroke-opacity:0.1; fill:none" points="229.626,657.731 952.756,657.731 "/>
<polyline clip-path="url(#clip732)" style="stroke:#000000; stroke-linecap:round; stroke-linejoin:round; stroke-width:2; stroke-opacity:0.1; fill:none" points="229.626,548.291 952.756,548.291 "/>
<polyline clip-path="url(#clip732)" style="stroke:#000000; stroke-linecap:round; stroke-linejoin:round; stroke-width:2; stroke-opacity:0.1; fill:none" points="229.626,438.85 952.756,438.85 "/>
<polyline clip-path="url(#clip732)" style="stroke:#000000; stroke-linecap:round; stroke-linejoin:round; stroke-width:2; stroke-opacity:0.1; fill:none" points="229.626,329.41 952.756,329.41 "/>
<polyline clip-path="url(#clip732)" style="stroke:#000000; stroke-linecap:round; stroke-linejoin:round; stroke-width:2; stroke-opacity:0.1; fill:none" points="229.626,219.97 952.756,219.97 "/>
<polyline clip-path="url(#clip732)" style="stroke:#000000; stroke-linecap:round; stroke-linejoin:round; stroke-width:2; stroke-opacity:0.1; fill:none" points="229.626,110.53 952.756,110.53 "/>
<polyline clip-path="url(#clip730)" style="stroke:#000000; stroke-linecap:round; stroke-linejoin:round; stroke-width:4; stroke-opacity:1; fill:none" points="229.626,788.14 952.756,788.14 "/>
<polyline clip-path="url(#clip730)" style="stroke:#000000; stroke-linecap:round; stroke-linejoin:round; stroke-width:4; stroke-opacity:1; fill:none" points="250.092,788.14 250.092,769.242 "/>
<polyline clip-path="url(#clip730)" style="stroke:#000000; stroke-linecap:round; stroke-linejoin:round; stroke-width:4; stroke-opacity:1; fill:none" points="474.845,788.14 474.845,769.242 "/>
<polyline clip-path="url(#clip730)" style="stroke:#000000; stroke-linecap:round; stroke-linejoin:round; stroke-width:4; stroke-opacity:1; fill:none" points="699.597,788.14 699.597,769.242 "/>
<polyline clip-path="url(#clip730)" style="stroke:#000000; stroke-linecap:round; stroke-linejoin:round; stroke-width:4; stroke-opacity:1; fill:none" points="924.35,788.14 924.35,769.242 "/>
<path clip-path="url(#clip730)" d="M250.092 807.859 Q246.481 807.859 244.652 811.423 Q242.847 814.965 242.847 822.095 Q242.847 829.201 244.652 832.766 Q246.481 836.307 250.092 836.307 Q253.726 836.307 255.532 832.766 Q257.361 829.201 257.361 822.095 Q257.361 814.965 255.532 811.423 Q253.726 807.859 250.092 807.859 M250.092 804.155 Q255.902 804.155 258.958 808.761 Q262.037 813.345 262.037 822.095 Q262.037 830.821 258.958 835.428 Q255.902 840.011 250.092 840.011 Q244.282 840.011 241.203 835.428 Q238.148 830.821 238.148 822.095 Q238.148 813.345 241.203 808.761 Q244.282 804.155 250.092 804.155 Z" fill="#000000" fill-rule="nonzero" fill-opacity="1" /><path clip-path="url(#clip730)" d="M434.451 835.405 L442.09 835.405 L442.09 809.039 L433.78 810.706 L433.78 806.447 L442.044 804.78 L446.72 804.78 L446.72 835.405 L454.359 835.405 L454.359 839.34 L434.451 839.34 L434.451 835.405 Z" fill="#000000" fill-rule="nonzero" fill-opacity="1" /><path clip-path="url(#clip730)" d="M473.803 807.859 Q470.192 807.859 468.363 811.423 Q466.558 814.965 466.558 822.095 Q466.558 829.201 468.363 832.766 Q470.192 836.307 473.803 836.307 Q477.437 836.307 479.243 832.766 Q481.072 829.201 481.072 822.095 Q481.072 814.965 479.243 811.423 Q477.437 807.859 473.803 807.859 M473.803 804.155 Q479.613 804.155 482.669 808.761 Q485.747 813.345 485.747 822.095 Q485.747 830.821 482.669 835.428 Q479.613 840.011 473.803 840.011 Q467.993 840.011 464.914 835.428 Q461.859 830.821 461.859 822.095 Q461.859 813.345 464.914 808.761 Q467.993 804.155 473.803 804.155 Z" fill="#000000" fill-rule="nonzero" fill-opacity="1" /><path clip-path="url(#clip730)" d="M503.965 807.859 Q500.354 807.859 498.525 811.423 Q496.72 814.965 496.72 822.095 Q496.72 829.201 498.525 832.766 Q500.354 836.307 503.965 836.307 Q507.599 836.307 509.405 832.766 Q511.233 829.201 511.233 822.095 Q511.233 814.965 509.405 811.423 Q507.599 807.859 503.965 807.859 M503.965 804.155 Q509.775 804.155 512.831 808.761 Q515.909 813.345 515.909 822.095 Q515.909 830.821 512.831 835.428 Q509.775 840.011 503.965 840.011 Q498.155 840.011 495.076 835.428 Q492.021 830.821 492.021 822.095 Q492.021 813.345 495.076 808.761 Q498.155 804.155 503.965 804.155 Z" fill="#000000" fill-rule="nonzero" fill-opacity="1" /><path clip-path="url(#clip730)" d="M663.29 835.405 L679.609 835.405 L679.609 839.34 L657.665 839.34 L657.665 835.405 Q660.327 832.65 664.91 828.02 Q669.516 823.368 670.697 822.025 Q672.942 819.502 673.822 817.766 Q674.725 816.007 674.725 814.317 Q674.725 811.562 672.78 809.826 Q670.859 808.09 667.757 808.09 Q665.558 808.09 663.104 808.854 Q660.674 809.618 657.896 811.169 L657.896 806.447 Q660.72 805.312 663.174 804.734 Q665.628 804.155 667.665 804.155 Q673.035 804.155 676.229 806.84 Q679.424 809.525 679.424 814.016 Q679.424 816.146 678.614 818.067 Q677.827 819.965 675.72 822.558 Q675.141 823.229 672.04 826.446 Q668.938 829.641 663.29 835.405 Z" fill="#000000" fill-rule="nonzero" fill-opacity="1" /><path clip-path="url(#clip730)" d="M699.424 807.859 Q695.813 807.859 693.984 811.423 Q692.178 814.965 692.178 822.095 Q692.178 829.201 693.984 832.766 Q695.813 836.307 699.424 836.307 Q703.058 836.307 704.863 832.766 Q706.692 829.201 706.692 822.095 Q706.692 814.965 704.863 811.423 Q703.058 807.859 699.424 807.859 M699.424 804.155 Q705.234 804.155 708.289 808.761 Q711.368 813.345 711.368 822.095 Q711.368 830.821 708.289 835.428 Q705.234 840.011 699.424 840.011 Q693.614 840.011 690.535 835.428 Q687.479 830.821 687.479 822.095 Q687.479 813.345 690.535 808.761 Q693.614 804.155 699.424 804.155 Z" fill="#000000" fill-rule="nonzero" fill-opacity="1" /><path clip-path="url(#clip730)" d="M729.586 807.859 Q725.974 807.859 724.146 811.423 Q722.34 814.965 722.34 822.095 Q722.34 829.201 724.146 832.766 Q725.974 836.307 729.586 836.307 Q733.22 836.307 735.025 832.766 Q736.854 829.201 736.854 822.095 Q736.854 814.965 735.025 811.423 Q733.22 807.859 729.586 807.859 M729.586 804.155 Q735.396 804.155 738.451 808.761 Q741.53 813.345 741.53 822.095 Q741.53 830.821 738.451 835.428 Q735.396 840.011 729.586 840.011 Q723.775 840.011 720.697 835.428 Q717.641 830.821 717.641 822.095 Q717.641 813.345 720.697 808.761 Q723.775 804.155 729.586 804.155 Z" fill="#000000" fill-rule="nonzero" fill-opacity="1" /><path clip-path="url(#clip730)" d="M898.112 820.706 Q901.468 821.423 903.343 823.692 Q905.241 825.96 905.241 829.294 Q905.241 834.409 901.723 837.21 Q898.204 840.011 891.723 840.011 Q889.547 840.011 887.232 839.571 Q884.94 839.155 882.487 838.298 L882.487 833.784 Q884.431 834.919 886.746 835.497 Q889.061 836.076 891.584 836.076 Q895.982 836.076 898.274 834.34 Q900.588 832.604 900.588 829.294 Q900.588 826.238 898.436 824.525 Q896.306 822.789 892.487 822.789 L888.459 822.789 L888.459 818.946 L892.672 818.946 Q896.121 818.946 897.95 817.581 Q899.778 816.192 899.778 813.599 Q899.778 810.937 897.88 809.525 Q896.005 808.09 892.487 808.09 Q890.565 808.09 888.366 808.507 Q886.167 808.923 883.528 809.803 L883.528 805.636 Q886.19 804.896 888.505 804.525 Q890.843 804.155 892.903 804.155 Q898.227 804.155 901.329 806.585 Q904.431 808.993 904.431 813.113 Q904.431 815.983 902.787 817.974 Q901.144 819.942 898.112 820.706 Z" fill="#000000" fill-rule="nonzero" fill-opacity="1" /><path clip-path="url(#clip730)" d="M924.107 807.859 Q920.496 807.859 918.667 811.423 Q916.861 814.965 916.861 822.095 Q916.861 829.201 918.667 832.766 Q920.496 836.307 924.107 836.307 Q927.741 836.307 929.547 832.766 Q931.375 829.201 931.375 822.095 Q931.375 814.965 929.547 811.423 Q927.741 807.859 924.107 807.859 M924.107 804.155 Q929.917 804.155 932.972 808.761 Q936.051 813.345 936.051 822.095 Q936.051 830.821 932.972 835.428 Q929.917 840.011 924.107 840.011 Q918.297 840.011 915.218 835.428 Q912.162 830.821 912.162 822.095 Q912.162 813.345 915.218 808.761 Q918.297 804.155 924.107 804.155 Z" fill="#000000" fill-rule="nonzero" fill-opacity="1" /><path clip-path="url(#clip730)" d="M954.269 807.859 Q950.658 807.859 948.829 811.423 Q947.023 814.965 947.023 822.095 Q947.023 829.201 948.829 832.766 Q950.658 836.307 954.269 836.307 Q957.903 836.307 959.708 832.766 Q961.537 829.201 961.537 822.095 Q961.537 814.965 959.708 811.423 Q957.903 807.859 954.269 807.859 M954.269 804.155 Q960.079 804.155 963.134 808.761 Q966.213 813.345 966.213 822.095 Q966.213 830.821 963.134 835.428 Q960.079 840.011 954.269 840.011 Q948.459 840.011 945.38 835.428 Q942.324 830.821 942.324 822.095 Q942.324 813.345 945.38 808.761 Q948.459 804.155 954.269 804.155 Z" fill="#000000" fill-rule="nonzero" fill-opacity="1" /><path clip-path="url(#clip730)" d="M440.212 869.767 L440.212 887.623 L448.297 887.623 Q452.785 887.623 455.236 885.3 Q457.686 882.976 457.686 878.679 Q457.686 874.414 455.236 872.091 Q452.785 869.767 448.297 869.767 L440.212 869.767 M433.783 864.484 L448.297 864.484 Q456.286 864.484 460.36 868.112 Q464.466 871.709 464.466 878.679 Q464.466 885.713 460.36 889.31 Q456.286 892.907 448.297 892.907 L440.212 892.907 L440.212 912.004 L433.783 912.004 L433.783 864.484 Z" fill="#000000" fill-rule="nonzero" fill-opacity="1" /><path clip-path="url(#clip730)" d="M501.005 892.716 L501.005 895.58 L474.078 895.58 Q474.46 901.628 477.706 904.811 Q480.985 907.962 486.809 907.962 Q490.183 907.962 493.334 907.134 Q496.517 906.307 499.636 904.651 L499.636 910.19 Q496.485 911.526 493.175 912.227 Q489.865 912.927 486.459 912.927 Q477.929 912.927 472.932 907.962 Q467.967 902.996 467.967 894.53 Q467.967 885.777 472.678 880.653 Q477.42 875.497 485.441 875.497 Q492.634 875.497 496.804 880.143 Q501.005 884.759 501.005 892.716 M495.148 890.997 Q495.085 886.191 492.443 883.326 Q489.833 880.462 485.504 880.462 Q480.603 880.462 477.643 883.231 Q474.715 886 474.269 891.029 L495.148 890.997 Z" fill="#000000" fill-rule="nonzero" fill-opacity="1" /><path clip-path="url(#clip730)" d="M531.274 881.83 Q530.287 881.257 529.11 881.003 Q527.964 880.716 526.563 880.716 Q521.598 880.716 518.924 883.963 Q516.283 887.178 516.283 893.225 L516.283 912.004 L510.394 912.004 L510.394 876.356 L516.283 876.356 L516.283 881.894 Q518.129 878.648 521.089 877.088 Q524.049 875.497 528.282 875.497 Q528.887 875.497 529.619 875.592 Q530.351 875.656 531.242 875.815 L531.274 881.83 Z" fill="#000000" fill-rule="nonzero" fill-opacity="1" /><path clip-path="url(#clip730)" d="M543.082 906.657 L543.082 925.563 L537.194 925.563 L537.194 876.356 L543.082 876.356 L543.082 881.767 Q544.928 878.584 547.729 877.056 Q550.562 875.497 554.477 875.497 Q560.97 875.497 565.012 880.653 Q569.086 885.809 569.086 894.212 Q569.086 902.614 565.012 907.771 Q560.97 912.927 554.477 912.927 Q550.562 912.927 547.729 911.399 Q544.928 909.84 543.082 906.657 M563.007 894.212 Q563.007 887.751 560.333 884.09 Q557.692 880.398 553.045 880.398 Q548.398 880.398 545.724 884.09 Q543.082 887.751 543.082 894.212 Q543.082 900.673 545.724 904.365 Q548.398 908.025 553.045 908.025 Q557.692 908.025 560.333 904.365 Q563.007 900.673 563.007 894.212 Z" fill="#000000" fill-rule="nonzero" fill-opacity="1" /><path clip-path="url(#clip730)" d="M578.794 862.479 L584.65 862.479 L584.65 912.004 L578.794 912.004 L578.794 862.479 Z" fill="#000000" fill-rule="nonzero" fill-opacity="1" /><path clip-path="url(#clip730)" d="M627.396 892.716 L627.396 895.58 L600.469 895.58 Q600.851 901.628 604.098 904.811 Q607.376 907.962 613.201 907.962 Q616.574 907.962 619.725 907.134 Q622.908 906.307 626.027 904.651 L626.027 910.19 Q622.876 911.526 619.566 912.227 Q616.256 912.927 612.85 912.927 Q604.32 912.927 599.323 907.962 Q594.358 902.996 594.358 894.53 Q594.358 885.777 599.069 880.653 Q603.811 875.497 611.832 875.497 Q619.025 875.497 623.195 880.143 Q627.396 884.759 627.396 892.716 M621.54 890.997 Q621.476 886.191 618.834 883.326 Q616.224 880.462 611.896 880.462 Q606.994 880.462 604.034 883.231 Q601.106 886 600.66 891.029 L621.54 890.997 Z" fill="#000000" fill-rule="nonzero" fill-opacity="1" /><path clip-path="url(#clip730)" d="M665.495 876.356 L652.604 893.702 L666.163 912.004 L659.256 912.004 L648.88 897.999 L638.504 912.004 L631.597 912.004 L645.443 893.352 L632.775 876.356 L639.682 876.356 L649.135 889.055 L658.588 876.356 L665.495 876.356 Z" fill="#000000" fill-rule="nonzero" fill-opacity="1" /><path clip-path="url(#clip730)" d="M674.439 876.356 L680.295 876.356 L680.295 912.004 L674.439 912.004 L674.439 876.356 M674.439 862.479 L680.295 862.479 L680.295 869.895 L674.439 869.895 L674.439 862.479 Z" fill="#000000" fill-rule="nonzero" fill-opacity="1" /><path clip-path="url(#clip730)" d="M698.342 866.234 L698.342 876.356 L710.405 876.356 L710.405 880.907 L698.342 880.907 L698.342 900.259 Q698.342 904.62 699.519 905.861 Q700.729 907.102 704.389 907.102 L710.405 907.102 L710.405 912.004 L704.389 912.004 Q697.61 912.004 695.032 909.489 Q692.454 906.943 692.454 900.259 L692.454 880.907 L688.157 880.907 L688.157 876.356 L692.454 876.356 L692.454 866.234 L698.342 866.234 Z" fill="#000000" fill-rule="nonzero" fill-opacity="1" /><path clip-path="url(#clip730)" d="M732.939 915.314 Q730.457 921.68 728.102 923.621 Q725.746 925.563 721.799 925.563 L717.121 925.563 L717.121 920.661 L720.558 920.661 Q722.977 920.661 724.314 919.515 Q725.651 918.37 727.274 914.105 L728.324 911.431 L713.906 876.356 L720.113 876.356 L731.253 904.238 L742.393 876.356 L748.599 876.356 L732.939 915.314 Z" fill="#000000" fill-rule="nonzero" fill-opacity="1" /><polyline clip-path="url(#clip730)" style="stroke:#000000; stroke-linecap:round; stroke-linejoin:round; stroke-width:4; stroke-opacity:1; fill:none" points="229.626,788.14 229.626,47.2441 "/>
<polyline clip-path="url(#clip730)" style="stroke:#000000; stroke-linecap:round; stroke-linejoin:round; stroke-width:4; stroke-opacity:1; fill:none" points="229.626,767.171 248.524,767.171 "/>
<polyline clip-path="url(#clip730)" style="stroke:#000000; stroke-linecap:round; stroke-linejoin:round; stroke-width:4; stroke-opacity:1; fill:none" points="229.626,657.731 248.524,657.731 "/>
<polyline clip-path="url(#clip730)" style="stroke:#000000; stroke-linecap:round; stroke-linejoin:round; stroke-width:4; stroke-opacity:1; fill:none" points="229.626,548.291 248.524,548.291 "/>
<polyline clip-path="url(#clip730)" style="stroke:#000000; stroke-linecap:round; stroke-linejoin:round; stroke-width:4; stroke-opacity:1; fill:none" points="229.626,438.85 248.524,438.85 "/>
<polyline clip-path="url(#clip730)" style="stroke:#000000; stroke-linecap:round; stroke-linejoin:round; stroke-width:4; stroke-opacity:1; fill:none" points="229.626,329.41 248.524,329.41 "/>
<polyline clip-path="url(#clip730)" style="stroke:#000000; stroke-linecap:round; stroke-linejoin:round; stroke-width:4; stroke-opacity:1; fill:none" points="229.626,219.97 248.524,219.97 "/>
<polyline clip-path="url(#clip730)" style="stroke:#000000; stroke-linecap:round; stroke-linejoin:round; stroke-width:4; stroke-opacity:1; fill:none" points="229.626,110.53 248.524,110.53 "/>
<path clip-path="url(#clip730)" d="M157.451 752.97 Q153.84 752.97 152.011 756.535 Q150.205 760.076 150.205 767.206 Q150.205 774.312 152.011 777.877 Q153.84 781.419 157.451 781.419 Q161.085 781.419 162.89 777.877 Q164.719 774.312 164.719 767.206 Q164.719 760.076 162.89 756.535 Q161.085 752.97 157.451 752.97 M157.451 749.266 Q163.261 749.266 166.316 753.873 Q169.395 758.456 169.395 767.206 Q169.395 775.933 166.316 780.539 Q163.261 785.122 157.451 785.122 Q151.64 785.122 148.562 780.539 Q145.506 775.933 145.506 767.206 Q145.506 758.456 148.562 753.873 Q151.64 749.266 157.451 749.266 Z" fill="#000000" fill-rule="nonzero" fill-opacity="1" /><path clip-path="url(#clip730)" d="M177.613 778.571 L182.497 778.571 L182.497 784.451 L177.613 784.451 L177.613 778.571 Z" fill="#000000" fill-rule="nonzero" fill-opacity="1" /><path clip-path="url(#clip730)" d="M202.682 752.97 Q199.071 752.97 197.242 756.535 Q195.437 760.076 195.437 767.206 Q195.437 774.312 197.242 777.877 Q199.071 781.419 202.682 781.419 Q206.316 781.419 208.122 777.877 Q209.95 774.312 209.95 767.206 Q209.95 760.076 208.122 756.535 Q206.316 752.97 202.682 752.97 M202.682 749.266 Q208.492 749.266 211.548 753.873 Q214.626 758.456 214.626 767.206 Q214.626 775.933 211.548 780.539 Q208.492 785.122 202.682 785.122 Q196.872 785.122 193.793 780.539 Q190.738 775.933 190.738 767.206 Q190.738 758.456 193.793 753.873 Q196.872 749.266 202.682 749.266 Z" fill="#000000" fill-rule="nonzero" fill-opacity="1" /><path clip-path="url(#clip730)" d="M158.677 643.53 Q155.066 643.53 153.238 647.094 Q151.432 650.636 151.432 657.766 Q151.432 664.872 153.238 668.437 Q155.066 671.978 158.677 671.978 Q162.312 671.978 164.117 668.437 Q165.946 664.872 165.946 657.766 Q165.946 650.636 164.117 647.094 Q162.312 643.53 158.677 643.53 M158.677 639.826 Q164.488 639.826 167.543 644.432 Q170.622 649.016 170.622 657.766 Q170.622 666.492 167.543 671.099 Q164.488 675.682 158.677 675.682 Q152.867 675.682 149.789 671.099 Q146.733 666.492 146.733 657.766 Q146.733 649.016 149.789 644.432 Q152.867 639.826 158.677 639.826 Z" fill="#000000" fill-rule="nonzero" fill-opacity="1" /><path clip-path="url(#clip730)" d="M178.839 669.131 L183.724 669.131 L183.724 675.011 L178.839 675.011 L178.839 669.131 Z" fill="#000000" fill-rule="nonzero" fill-opacity="1" /><path clip-path="url(#clip730)" d="M194.719 671.076 L202.358 671.076 L202.358 644.71 L194.048 646.377 L194.048 642.118 L202.312 640.451 L206.987 640.451 L206.987 671.076 L214.626 671.076 L214.626 675.011 L194.719 675.011 L194.719 671.076 Z" fill="#000000" fill-rule="nonzero" fill-opacity="1" /><path clip-path="url(#clip730)" d="M159.048 534.089 Q155.437 534.089 153.608 537.654 Q151.803 541.196 151.803 548.325 Q151.803 555.432 153.608 558.997 Q155.437 562.538 159.048 562.538 Q162.682 562.538 164.488 558.997 Q166.316 555.432 166.316 548.325 Q166.316 541.196 164.488 537.654 Q162.682 534.089 159.048 534.089 M159.048 530.386 Q164.858 530.386 167.914 534.992 Q170.992 539.575 170.992 548.325 Q170.992 557.052 167.914 561.659 Q164.858 566.242 159.048 566.242 Q153.238 566.242 150.159 561.659 Q147.103 557.052 147.103 548.325 Q147.103 539.575 150.159 534.992 Q153.238 530.386 159.048 530.386 Z" fill="#000000" fill-rule="nonzero" fill-opacity="1" /><path clip-path="url(#clip730)" d="M179.21 559.691 L184.094 559.691 L184.094 565.571 L179.21 565.571 L179.21 559.691 Z" fill="#000000" fill-rule="nonzero" fill-opacity="1" /><path clip-path="url(#clip730)" d="M198.307 561.635 L214.626 561.635 L214.626 565.571 L192.682 565.571 L192.682 561.635 Q195.344 558.881 199.927 554.251 Q204.534 549.599 205.714 548.256 Q207.96 545.733 208.839 543.997 Q209.742 542.237 209.742 540.548 Q209.742 537.793 207.798 536.057 Q205.876 534.321 202.774 534.321 Q200.575 534.321 198.122 535.085 Q195.691 535.849 192.913 537.399 L192.913 532.677 Q195.737 531.543 198.191 530.964 Q200.645 530.386 202.682 530.386 Q208.052 530.386 211.247 533.071 Q214.441 535.756 214.441 540.247 Q214.441 542.376 213.631 544.298 Q212.844 546.196 210.737 548.788 Q210.159 549.46 207.057 552.677 Q203.955 555.872 198.307 561.635 Z" fill="#000000" fill-rule="nonzero" fill-opacity="1" /><path clip-path="url(#clip730)" d="M158.099 424.649 Q154.488 424.649 152.659 428.214 Q150.853 431.756 150.853 438.885 Q150.853 445.992 152.659 449.556 Q154.488 453.098 158.099 453.098 Q161.733 453.098 163.539 449.556 Q165.367 445.992 165.367 438.885 Q165.367 431.756 163.539 428.214 Q161.733 424.649 158.099 424.649 M158.099 420.945 Q163.909 420.945 166.964 425.552 Q170.043 430.135 170.043 438.885 Q170.043 447.612 166.964 452.218 Q163.909 456.802 158.099 456.802 Q152.289 456.802 149.21 452.218 Q146.154 447.612 146.154 438.885 Q146.154 430.135 149.21 425.552 Q152.289 420.945 158.099 420.945 Z" fill="#000000" fill-rule="nonzero" fill-opacity="1" /><path clip-path="url(#clip730)" d="M178.261 450.251 L183.145 450.251 L183.145 456.13 L178.261 456.13 L178.261 450.251 Z" fill="#000000" fill-rule="nonzero" fill-opacity="1" /><path clip-path="url(#clip730)" d="M207.497 437.496 Q210.853 438.214 212.728 440.482 Q214.626 442.751 214.626 446.084 Q214.626 451.2 211.108 454.001 Q207.589 456.802 201.108 456.802 Q198.932 456.802 196.617 456.362 Q194.325 455.945 191.872 455.089 L191.872 450.575 Q193.816 451.709 196.131 452.288 Q198.446 452.867 200.969 452.867 Q205.367 452.867 207.659 451.13 Q209.974 449.394 209.974 446.084 Q209.974 443.029 207.821 441.316 Q205.691 439.58 201.872 439.58 L197.844 439.58 L197.844 435.737 L202.057 435.737 Q205.506 435.737 207.335 434.371 Q209.163 432.982 209.163 430.39 Q209.163 427.728 207.265 426.316 Q205.39 424.881 201.872 424.881 Q199.95 424.881 197.751 425.297 Q195.552 425.714 192.913 426.594 L192.913 422.427 Q195.575 421.686 197.89 421.316 Q200.228 420.945 202.288 420.945 Q207.612 420.945 210.714 423.376 Q213.816 425.783 213.816 429.904 Q213.816 432.774 212.173 434.765 Q210.529 436.732 207.497 437.496 Z" fill="#000000" fill-rule="nonzero" fill-opacity="1" /><path clip-path="url(#clip730)" d="M156.965 315.209 Q153.353 315.209 151.525 318.774 Q149.719 322.315 149.719 329.445 Q149.719 336.551 151.525 340.116 Q153.353 343.658 156.965 343.658 Q160.599 343.658 162.404 340.116 Q164.233 336.551 164.233 329.445 Q164.233 322.315 162.404 318.774 Q160.599 315.209 156.965 315.209 M156.965 311.505 Q162.775 311.505 165.83 316.112 Q168.909 320.695 168.909 329.445 Q168.909 338.172 165.83 342.778 Q162.775 347.361 156.965 347.361 Q151.154 347.361 148.076 342.778 Q145.02 338.172 145.02 329.445 Q145.02 320.695 148.076 316.112 Q151.154 311.505 156.965 311.505 Z" fill="#000000" fill-rule="nonzero" fill-opacity="1" /><path clip-path="url(#clip730)" d="M177.126 340.811 L182.011 340.811 L182.011 346.69 L177.126 346.69 L177.126 340.811 Z" fill="#000000" fill-rule="nonzero" fill-opacity="1" /><path clip-path="url(#clip730)" d="M205.043 316.204 L193.237 334.653 L205.043 334.653 L205.043 316.204 M203.816 312.13 L209.696 312.13 L209.696 334.653 L214.626 334.653 L214.626 338.542 L209.696 338.542 L209.696 346.69 L205.043 346.69 L205.043 338.542 L189.441 338.542 L189.441 334.028 L203.816 312.13 Z" fill="#000000" fill-rule="nonzero" fill-opacity="1" /><path clip-path="url(#clip730)" d="M158.446 205.769 Q154.835 205.769 153.006 209.333 Q151.201 212.875 151.201 220.005 Q151.201 227.111 153.006 230.676 Q154.835 234.218 158.446 234.218 Q162.08 234.218 163.886 230.676 Q165.714 227.111 165.714 220.005 Q165.714 212.875 163.886 209.333 Q162.08 205.769 158.446 205.769 M158.446 202.065 Q164.256 202.065 167.312 206.671 Q170.39 211.255 170.39 220.005 Q170.39 228.731 167.312 233.338 Q164.256 237.921 158.446 237.921 Q152.636 237.921 149.557 233.338 Q146.502 228.731 146.502 220.005 Q146.502 211.255 149.557 206.671 Q152.636 202.065 158.446 202.065 Z" fill="#000000" fill-rule="nonzero" fill-opacity="1" /><path clip-path="url(#clip730)" d="M178.608 231.37 L183.492 231.37 L183.492 237.25 L178.608 237.25 L178.608 231.37 Z" fill="#000000" fill-rule="nonzero" fill-opacity="1" /><path clip-path="url(#clip730)" d="M193.724 202.69 L212.08 202.69 L212.08 206.625 L198.006 206.625 L198.006 215.097 Q199.024 214.75 200.043 214.588 Q201.062 214.403 202.08 214.403 Q207.867 214.403 211.247 217.574 Q214.626 220.745 214.626 226.162 Q214.626 231.741 211.154 234.843 Q207.682 237.921 201.362 237.921 Q199.187 237.921 196.918 237.551 Q194.673 237.181 192.265 236.44 L192.265 231.741 Q194.349 232.875 196.571 233.431 Q198.793 233.986 201.27 233.986 Q205.274 233.986 207.612 231.88 Q209.95 229.773 209.95 226.162 Q209.95 222.551 207.612 220.444 Q205.274 218.338 201.27 218.338 Q199.395 218.338 197.52 218.755 Q195.668 219.171 193.724 220.051 L193.724 202.69 Z" fill="#000000" fill-rule="nonzero" fill-opacity="1" /><path clip-path="url(#clip730)" d="M157.289 96.3284 Q153.678 96.3284 151.849 99.8932 Q150.043 103.435 150.043 110.564 Q150.043 117.671 151.849 121.236 Q153.678 124.777 157.289 124.777 Q160.923 124.777 162.728 121.236 Q164.557 117.671 164.557 110.564 Q164.557 103.435 162.728 99.8932 Q160.923 96.3284 157.289 96.3284 M157.289 92.6247 Q163.099 92.6247 166.154 97.2312 Q169.233 101.814 169.233 110.564 Q169.233 119.291 166.154 123.898 Q163.099 128.481 157.289 128.481 Q151.478 128.481 148.4 123.898 Q145.344 119.291 145.344 110.564 Q145.344 101.814 148.4 97.2312 Q151.478 92.6247 157.289 92.6247 Z" fill="#000000" fill-rule="nonzero" fill-opacity="1" /><path clip-path="url(#clip730)" d="M177.451 121.93 L182.335 121.93 L182.335 127.81 L177.451 127.81 L177.451 121.93 Z" fill="#000000" fill-rule="nonzero" fill-opacity="1" /><path clip-path="url(#clip730)" d="M203.099 108.666 Q199.95 108.666 198.099 110.819 Q196.27 112.972 196.27 116.722 Q196.27 120.449 198.099 122.625 Q199.95 124.777 203.099 124.777 Q206.247 124.777 208.075 122.625 Q209.927 120.449 209.927 116.722 Q209.927 112.972 208.075 110.819 Q206.247 108.666 203.099 108.666 M212.381 94.0136 L212.381 98.2729 Q210.622 97.4395 208.816 96.9997 Q207.034 96.5599 205.274 96.5599 Q200.645 96.5599 198.191 99.6849 Q195.761 102.81 195.413 109.129 Q196.779 107.115 198.839 106.051 Q200.899 104.963 203.376 104.963 Q208.585 104.963 211.594 108.134 Q214.626 111.282 214.626 116.722 Q214.626 122.046 211.478 125.263 Q208.33 128.481 203.099 128.481 Q197.103 128.481 193.932 123.898 Q190.761 119.291 190.761 110.564 Q190.761 102.37 194.65 97.509 Q198.538 92.6247 205.089 92.6247 Q206.849 92.6247 208.631 92.972 Q210.436 93.3192 212.381 94.0136 Z" fill="#000000" fill-rule="nonzero" fill-opacity="1" /><path clip-path="url(#clip730)" d="M68.2442 581.895 L68.2442 554.586 L73.655 554.586 L73.655 575.466 L87.6596 575.466 L87.6596 556.624 L93.0704 556.624 L93.0704 575.466 L115.764 575.466 L115.764 581.895 L68.2442 581.895 Z" fill="#000000" fill-rule="nonzero" fill-opacity="1" /><path clip-path="url(#clip730)" d="M85.5907 528.742 Q85.0178 529.728 84.7632 530.906 Q84.4767 532.052 84.4767 533.452 Q84.4767 538.418 87.7232 541.091 Q90.9379 543.733 96.9853 543.733 L115.764 543.733 L115.764 549.621 L80.1162 549.621 L80.1162 543.733 L85.6544 543.733 Q82.4079 541.887 80.8483 538.927 Q79.2568 535.967 79.2568 531.734 Q79.2568 531.129 79.3523 530.397 Q79.416 529.665 79.5751 528.774 L85.5907 528.742 Z" fill="#000000" fill-rule="nonzero" fill-opacity="1" /><path clip-path="url(#clip730)" d="M96.4761 493.539 L99.3406 493.539 L99.3406 520.466 Q105.388 520.084 108.571 516.838 Q111.722 513.56 111.722 507.735 Q111.722 504.361 110.894 501.21 Q110.067 498.027 108.412 494.908 L113.95 494.908 Q115.287 498.059 115.987 501.369 Q116.687 504.679 116.687 508.085 Q116.687 516.615 111.722 521.612 Q106.757 526.577 98.2903 526.577 Q89.5374 526.577 84.4131 521.867 Q79.2568 517.124 79.2568 509.104 Q79.2568 501.91 83.9038 497.741 Q88.5189 493.539 96.4761 493.539 M94.7573 499.396 Q89.9512 499.459 87.0866 502.101 Q84.2221 504.711 84.2221 509.04 Q84.2221 513.941 86.9912 516.902 Q89.7602 519.83 94.7892 520.275 L94.7573 499.396 Z" fill="#000000" fill-rule="nonzero" fill-opacity="1" /><path clip-path="url(#clip730)" d="M97.972 480.426 Q104.433 480.426 108.125 477.784 Q111.786 475.111 111.786 470.464 Q111.786 465.817 108.125 463.143 Q104.433 460.47 97.972 460.47 Q91.5108 460.47 87.8505 463.143 Q84.1584 465.817 84.1584 470.464 Q84.1584 475.111 87.8505 477.784 Q91.5108 480.426 97.972 480.426 M110.417 460.47 Q113.6 462.316 115.159 465.148 Q116.687 467.949 116.687 471.896 Q116.687 478.357 111.531 482.431 Q106.375 486.473 97.972 486.473 Q89.5693 486.473 84.4131 482.431 Q79.2568 478.357 79.2568 471.896 Q79.2568 467.949 80.8164 465.148 Q82.3442 462.316 85.5271 460.47 L80.1162 460.47 L80.1162 454.613 L129.323 454.613 L129.323 460.47 L110.417 460.47 Z" fill="#000000" fill-rule="nonzero" fill-opacity="1" /><path clip-path="url(#clip730)" d="M101.696 443.155 L80.1162 443.155 L80.1162 437.298 L101.473 437.298 Q106.534 437.298 109.08 435.325 Q111.595 433.352 111.595 429.405 Q111.595 424.662 108.571 421.925 Q105.547 419.156 100.327 419.156 L80.1162 419.156 L80.1162 413.3 L115.764 413.3 L115.764 419.156 L110.29 419.156 Q113.536 421.289 115.128 424.121 Q116.687 426.922 116.687 430.646 Q116.687 436.789 112.868 439.972 Q109.048 443.155 101.696 443.155 M79.2568 428.418 L79.2568 428.418 Z" fill="#000000" fill-rule="nonzero" fill-opacity="1" /><path clip-path="url(#clip730)" d="M96.4761 370.745 L99.3406 370.745 L99.3406 397.672 Q105.388 397.29 108.571 394.043 Q111.722 390.765 111.722 384.94 Q111.722 381.567 110.894 378.416 Q110.067 375.233 108.412 372.114 L113.95 372.114 Q115.287 375.265 115.987 378.575 Q116.687 381.885 116.687 385.291 Q116.687 393.821 111.722 398.818 Q106.757 403.783 98.2903 403.783 Q89.5374 403.783 84.4131 399.072 Q79.2568 394.33 79.2568 386.309 Q79.2568 379.116 83.9038 374.946 Q88.5189 370.745 96.4761 370.745 M94.7573 376.601 Q89.9512 376.665 87.0866 379.307 Q84.2221 381.917 84.2221 386.245 Q84.2221 391.147 86.9912 394.107 Q89.7602 397.035 94.7892 397.481 L94.7573 376.601 Z" fill="#000000" fill-rule="nonzero" fill-opacity="1" /><path clip-path="url(#clip730)" d="M94.2481 331.5 L115.764 331.5 L115.764 337.357 L94.439 337.357 Q89.3783 337.357 86.8638 339.33 Q84.3494 341.303 84.3494 345.25 Q84.3494 349.993 87.3731 352.73 Q90.3968 355.467 95.6167 355.467 L115.764 355.467 L115.764 361.355 L80.1162 361.355 L80.1162 355.467 L85.6544 355.467 Q82.4397 353.367 80.8483 350.534 Q79.2568 347.669 79.2568 343.945 Q79.2568 337.802 83.0763 334.651 Q86.8638 331.5 94.2481 331.5 Z" fill="#000000" fill-rule="nonzero" fill-opacity="1" /><path clip-path="url(#clip730)" d="M81.4848 294.165 L86.9593 294.165 Q85.5907 296.648 84.9223 299.163 Q84.2221 301.645 84.2221 304.191 Q84.2221 309.889 87.8505 313.04 Q91.4472 316.191 97.972 316.191 Q104.497 316.191 108.125 313.04 Q111.722 309.889 111.722 304.191 Q111.722 301.645 111.054 299.163 Q110.353 296.648 108.985 294.165 L114.396 294.165 Q115.541 296.616 116.114 299.258 Q116.687 301.868 116.687 304.828 Q116.687 312.881 111.626 317.623 Q106.566 322.366 97.972 322.366 Q89.251 322.366 84.2539 317.591 Q79.2568 312.785 79.2568 304.446 Q79.2568 301.741 79.8297 299.163 Q80.3708 296.584 81.4848 294.165 Z" fill="#000000" fill-rule="nonzero" fill-opacity="1" /><path clip-path="url(#clip730)" d="M119.074 269.148 Q125.44 271.631 127.382 273.986 Q129.323 276.341 129.323 280.288 L129.323 284.967 L124.422 284.967 L124.422 281.53 Q124.422 279.111 123.276 277.774 Q122.13 276.437 117.865 274.814 L115.191 273.763 L80.1162 288.182 L80.1162 281.975 L107.998 270.835 L80.1162 259.695 L80.1162 253.489 L119.074 269.148 Z" fill="#000000" fill-rule="nonzero" fill-opacity="1" /><path clip-path="url(#clip732)" d="M250.092 767.171 L250.092 751.849 L278.517 751.849 L278.517 466.575 L306.942 466.575 L306.942 624.169 L335.367 624.169 L335.367 523.484 L363.792 523.484 L363.792 741.635 L392.217 741.635 L392.217 765.712 L420.642 765.712 L420.642 766.441 L449.067 766.441 L449.067 756.227 L477.491 756.227 L477.491 664.297 L505.916 664.297 L505.916 620.521 L534.341 620.521 L534.341 679.619 L562.766 679.619 L562.766 751.849 L591.191 751.849 L591.191 766.441 L619.616 766.441 L619.616 767.171 L648.041 767.171 L648.041 767.171 L676.466 767.171 L676.466 767.171 L704.891 767.171 L704.891 767.171 L733.316 767.171 L733.316 767.171 L761.741 767.171 L761.741 767.171 L790.165 767.171 L790.165 767.171 L818.59 767.171 L818.59 767.171 L847.015 767.171 L847.015 767.171 L875.44 767.171 L875.44 767.171 L903.865 767.171 L903.865 767.171 L932.29 767.171 L932.29 767.171 L903.865 767.171 L903.865 767.171 L875.44 767.171 L875.44 767.171 L847.015 767.171 L847.015 767.171 L818.59 767.171 L818.59 767.171 L790.165 767.171 L790.165 767.171 L761.741 767.171 L761.741 767.171 L733.316 767.171 L733.316 767.171 L704.891 767.171 L704.891 767.171 L676.466 767.171 L676.466 767.171 L648.041 767.171 L648.041 767.171 L619.616 767.171 L619.616 767.171 L591.191 767.171 L591.191 767.171 L562.766 767.171 L562.766 767.171 L534.341 767.171 L534.341 767.171 L505.916 767.171 L505.916 767.171 L477.491 767.171 L477.491 767.171 L449.067 767.171 L449.067 767.171 L420.642 767.171 L420.642 767.171 L392.217 767.171 L392.217 767.171 L363.792 767.171 L363.792 767.171 L335.367 767.171 L335.367 767.171 L306.942 767.171 L306.942 767.171 L278.517 767.171 L278.517 767.171 L250.092 767.171 L250.092 767.171  Z" fill="#377db8" fill-rule="evenodd" fill-opacity="0.5"/>
<polyline clip-path="url(#clip732)" style="stroke:#377db8; stroke-linecap:round; stroke-linejoin:round; stroke-width:4; stroke-opacity:0.5; fill:none" points="250.092,767.171 250.092,751.849 278.517,751.849 278.517,466.575 306.942,466.575 306.942,624.169 335.367,624.169 335.367,523.484 363.792,523.484 363.792,741.635 392.217,741.635 392.217,765.712 420.642,765.712 420.642,766.441 449.067,766.441 449.067,756.227 477.491,756.227 477.491,664.297 505.916,664.297 505.916,620.521 534.341,620.521 534.341,679.619 562.766,679.619 562.766,751.849 591.191,751.849 591.191,766.441 619.616,766.441 619.616,767.171 648.041,767.171 676.466,767.171 704.891,767.171 733.316,767.171 761.741,767.171 790.165,767.171 818.59,767.171 847.015,767.171 875.44,767.171 903.865,767.171 932.29,767.171 "/>
<path clip-path="url(#clip732)" d="M250.092 767.171 L250.092 68.2128 L278.517 68.2128 L278.517 739.446 L306.942 739.446 L306.942 764.253 L335.367 764.253 L335.367 766.441 L363.792 766.441 L363.792 763.523 L392.217 763.523 L392.217 759.145 L420.642 759.145 L420.642 756.227 L449.067 756.227 L449.067 754.768 L477.491 754.768 L477.491 743.824 L505.916 743.824 L505.916 743.094 L534.341 743.094 L534.341 729.232 L562.766 729.232 L562.766 716.829 L591.191 716.829 L591.191 719.747 L619.616 719.747 L619.616 719.747 L648.041 719.747 L648.041 732.15 L676.466 732.15 L676.466 744.553 L704.891 744.553 L704.891 756.227 L733.316 756.227 L733.316 748.931 L761.741 748.931 L761.741 758.416 L790.165 758.416 L790.165 764.982 L818.59 764.982 L818.59 767.171 L847.015 767.171 L847.015 767.171 L875.44 767.171 L875.44 766.441 L903.865 766.441 L903.865 767.171 L932.29 767.171 L932.29 767.171 L903.865 767.171 L903.865 767.171 L875.44 767.171 L875.44 767.171 L847.015 767.171 L847.015 767.171 L818.59 767.171 L818.59 767.171 L790.165 767.171 L790.165 767.171 L761.741 767.171 L761.741 767.171 L733.316 767.171 L733.316 767.171 L704.891 767.171 L704.891 767.171 L676.466 767.171 L676.466 767.171 L648.041 767.171 L648.041 767.171 L619.616 767.171 L619.616 767.171 L591.191 767.171 L591.191 767.171 L562.766 767.171 L562.766 767.171 L534.341 767.171 L534.341 767.171 L505.916 767.171 L505.916 767.171 L477.491 767.171 L477.491 767.171 L449.067 767.171 L449.067 767.171 L420.642 767.171 L420.642 767.171 L392.217 767.171 L392.217 767.171 L363.792 767.171 L363.792 767.171 L335.367 767.171 L335.367 767.171 L306.942 767.171 L306.942 767.171 L278.517 767.171 L278.517 767.171 L250.092 767.171 L250.092 767.171  Z" fill="#e31a1c" fill-rule="evenodd" fill-opacity="0.5"/>
<polyline clip-path="url(#clip732)" style="stroke:#e31a1c; stroke-linecap:round; stroke-linejoin:round; stroke-width:4; stroke-opacity:0.5; fill:none" points="250.092,767.171 250.092,68.2128 278.517,68.2128 278.517,739.446 306.942,739.446 306.942,764.253 335.367,764.253 335.367,766.441 363.792,766.441 363.792,763.523 392.217,763.523 392.217,759.145 420.642,759.145 420.642,756.227 449.067,756.227 449.067,754.768 477.491,754.768 477.491,743.824 505.916,743.824 505.916,743.094 534.341,743.094 534.341,729.232 562.766,729.232 562.766,716.829 591.191,716.829 591.191,719.747 619.616,719.747 648.041,719.747 648.041,732.15 676.466,732.15 676.466,744.553 704.891,744.553 704.891,756.227 733.316,756.227 733.316,748.931 761.741,748.931 761.741,758.416 790.165,758.416 790.165,764.982 818.59,764.982 818.59,767.171 847.015,767.171 875.44,767.171 875.44,766.441 903.865,766.441 903.865,767.171 932.29,767.171 "/>
<path clip-path="url(#clip730)" d="M755.274 227.461 L928.652 227.461 L928.652 71.9406 L755.274 71.9406  Z" fill="#ffffff" fill-rule="evenodd" fill-opacity="1"/>
<polyline clip-path="url(#clip730)" style="stroke:#000000; stroke-linecap:round; stroke-linejoin:round; stroke-width:4; stroke-opacity:1; fill:none" points="755.274,227.461 928.652,227.461 928.652,71.9406 755.274,71.9406 755.274,227.461 "/>
<path clip-path="url(#clip730)" d="M763.309 144.517 L811.518 144.517 L811.518 103.045 L763.309 103.045 L763.309 144.517  Z" fill="#377db8" fill-rule="evenodd" fill-opacity="0.5"/>
<polyline clip-path="url(#clip730)" style="stroke:#377db8; stroke-linecap:round; stroke-linejoin:round; stroke-width:4; stroke-opacity:0.5; fill:none" points="763.309,103.045 811.518,103.045 "/>
<path clip-path="url(#clip730)" d="M835.571 109.672 Q830.478 109.672 827.469 113.468 Q824.483 117.264 824.483 123.815 Q824.483 130.343 827.469 134.139 Q830.478 137.936 835.571 137.936 Q840.664 137.936 843.626 134.139 Q846.613 130.343 846.613 123.815 Q846.613 117.264 843.626 113.468 Q840.664 109.672 835.571 109.672 M842.122 140.436 L848.279 147.172 L842.631 147.172 L837.515 141.639 Q836.752 141.686 836.335 141.709 Q835.941 141.732 835.571 141.732 Q828.279 141.732 823.904 136.871 Q819.553 131.987 819.553 123.815 Q819.553 115.621 823.904 110.76 Q828.279 105.876 835.571 105.876 Q842.839 105.876 847.191 110.76 Q851.543 115.621 851.543 123.815 Q851.543 129.834 849.113 134.116 Q846.705 138.399 842.122 140.436 Z" fill="#000000" fill-rule="nonzero" fill-opacity="1" /><path clip-path="url(#clip730)" d="M872.886 109.672 Q867.793 109.672 864.784 113.468 Q861.798 117.264 861.798 123.815 Q861.798 130.343 864.784 134.139 Q867.793 137.936 872.886 137.936 Q877.978 137.936 880.941 134.139 Q883.927 130.343 883.927 123.815 Q883.927 117.264 880.941 113.468 Q877.978 109.672 872.886 109.672 M872.886 105.876 Q880.154 105.876 884.506 110.76 Q888.858 115.621 888.858 123.815 Q888.858 131.987 884.506 136.871 Q880.154 141.732 872.886 141.732 Q865.594 141.732 861.219 136.871 Q856.867 132.01 856.867 123.815 Q856.867 115.621 861.219 110.76 Q865.594 105.876 872.886 105.876 Z" fill="#000000" fill-rule="nonzero" fill-opacity="1" /><path clip-path="url(#clip730)" d="M891.381 106.501 L920.617 106.501 L920.617 110.436 L908.348 110.436 L908.348 141.061 L903.649 141.061 L903.649 110.436 L891.381 110.436 L891.381 106.501 Z" fill="#000000" fill-rule="nonzero" fill-opacity="1" /><path clip-path="url(#clip730)" d="M763.309 196.357 L811.518 196.357 L811.518 154.885 L763.309 154.885 L763.309 196.357  Z" fill="#e31a1c" fill-rule="evenodd" fill-opacity="0.5"/>
<polyline clip-path="url(#clip730)" style="stroke:#e31a1c; stroke-linecap:round; stroke-linejoin:round; stroke-width:4; stroke-opacity:0.5; fill:none" points="763.309,154.885 811.518,154.885 "/>
<path clip-path="url(#clip730)" d="M819.553 158.341 L841.404 158.341 L841.404 162.276 L824.228 162.276 L824.228 172.507 L840.687 172.507 L840.687 176.442 L824.228 176.442 L824.228 188.965 L841.821 188.965 L841.821 192.901 L819.553 192.901 L819.553 158.341 Z" fill="#000000" fill-rule="nonzero" fill-opacity="1" /><path clip-path="url(#clip730)" d="M863.534 161.512 Q858.441 161.512 855.432 165.308 Q852.446 169.104 852.446 175.655 Q852.446 182.183 855.432 185.979 Q858.441 189.776 863.534 189.776 Q868.626 189.776 871.589 185.979 Q874.575 182.183 874.575 175.655 Q874.575 169.104 871.589 165.308 Q868.626 161.512 863.534 161.512 M863.534 157.716 Q870.802 157.716 875.154 162.6 Q879.506 167.461 879.506 175.655 Q879.506 183.827 875.154 188.711 Q870.802 193.572 863.534 193.572 Q856.242 193.572 851.867 188.711 Q847.515 183.85 847.515 175.655 Q847.515 167.461 851.867 162.6 Q856.242 157.716 863.534 157.716 Z" fill="#000000" fill-rule="nonzero" fill-opacity="1" /><path clip-path="url(#clip730)" d="M882.029 158.341 L911.265 158.341 L911.265 162.276 L898.997 162.276 L898.997 192.901 L894.298 192.901 L894.298 162.276 L882.029 162.276 L882.029 158.341 Z" fill="#000000" fill-rule="nonzero" fill-opacity="1" /></svg>
