<?xml version="1.0" encoding="utf-8"?>
<svg xmlns="http://www.w3.org/2000/svg" xmlns:xlink="http://www.w3.org/1999/xlink" width="250" height="250" viewBox="0 0 1000 1000">
<defs>
  <clipPath id="clip970">
    <rect x="0" y="0" width="1000" height="1000"/>
  </clipPath>
</defs>
<path clip-path="url(#clip970)" d="M0 1000 L1000 1000 L1000 0 L0 0  Z" fill="#ffffff" fill-rule="evenodd" fill-opacity="1"/>
<defs>
  <clipPath id="clip971">
    <rect x="200" y="100" width="701" height="701"/>
  </clipPath>
</defs>
<path clip-path="url(#clip970)" d="M229.626 788.14 L952.756 788.14 L952.756 47.2441 L229.626 47.2441  Z" fill="#ffffff" fill-rule="evenodd" fill-opacity="1"/>
<defs>
  <clipPath id="clip972">
    <rect x="229" y="47" width="724" height="742"/>
  </clipPath>
</defs>
<polyline clip-path="url(#clip972)" style="stroke:#000000; stroke-linecap:round; stroke-linejoin:round; stroke-width:2; stroke-opacity:0.1; fill:none" points="250.092,788.14 250.092,47.2441 "/>
<polyline clip-path="url(#clip972)" style="stroke:#000000; stroke-linecap:round; stroke-linejoin:round; stroke-width:2; stroke-opacity:0.1; fill:none" points="474.845,788.14 474.845,47.2441 "/>
<polyline clip-path="url(#clip972)" style="stroke:#000000; stroke-linecap:round; stroke-linejoin:round; stroke-width:2; stroke-opacity:0.1; fill:none" points="699.597,788.14 699.597,47.2441 "/>
<polyline clip-path="url(#clip972)" style="stroke:#000000; stroke-linecap:round; stroke-linejoin:round; stroke-width:2; stroke-opacity:0.1; fill:none" points="924.35,788.14 924.35,47.2441 "/>
<polyline clip-path="url(#clip972)" style="stroke:#000000; stroke-linecap:round; stroke-linejoin:round; stroke-width:2; stroke-opacity:0.1; fill:none" points="229.626,767.171 952.756,767.171 "/>
<polyline clip-path="url(#clip972)" style="stroke:#000000; stroke-linecap:round; stroke-linejoin:round; stroke-width:2; stroke-opacity:0.1; fill:none" points="229.626,657.731 952.756,657.731 "/>
<polyline clip-path="url(#clip972)" style="stroke:#000000; stroke-linecap:round; stroke-linejoin:round; stroke-width:2; stroke-opacity:0.1; fill:none" points="229.626,548.291 952.756,548.291 "/>
<polyline clip-path="url(#clip972)" style="stroke:#000000; stroke-linecap:round; stroke-linejoin:round; stroke-width:2; stroke-opacity:0.1; fill:none" points="229.626,438.85 952.756,438.85 "/>
<polyline clip-path="url(#clip972)" style="stroke:#000000; stroke-linecap:round; stroke-linejoin:round; stroke-width:2; stroke-opacity:0.1; fill:none" points="229.626,329.41 952.756,329.41 "/>
<polyline clip-path="url(#clip972)" style="stroke:#000000; stroke-linecap:round; stroke-linejoin:round; stroke-width:2; stroke-opacity:0.1; fill:none" points="229.626,219.97 952.756,219.97 "/>
<polyline clip-path="url(#clip972)" style="stroke:#000000; stroke-linecap:round; stroke-linejoin:round; stroke-width:2; stroke-opacity:0.1; fill:none" points="229.626,110.53 952.756,110.53 "/>
<polyline clip-path="url(#clip970)" style="stroke:#000000; stroke-linecap:round; stroke-linejoin:round; stroke-width:4; stroke-opacity:1; fill:none" points="229.626,788.14 952.756,788.14 "/>
<polyline clip-path="url(#clip970)" style="stroke:#000000; stroke-linecap:round; stroke-linejoin:round; stroke-width:4; stroke-opacity:1; fill:none" points="250.092,788.14 250.092,769.242 "/>
<polyline clip-path="url(#clip970)" style="stroke:#000000; stroke-linecap:round; stroke-linejoin:round; stroke-width:4; stroke-opacity:1; fill:none" points="474.845,788.14 474.845,769.242 "/>
<polyline clip-path="url(#clip970)" style="stroke:#000000; stroke-linecap:round; stroke-linejoin:round; stroke-width:4; stroke-opacity:1; fill:none" points="699.597,788.14 699.597,769.242 "/>
<polyline clip-path="url(#clip970)" style="stroke:#000000; stroke-linecap:round; stroke-linejoin:round; stroke-width:4; stroke-opacity:1; fill:none" points="924.35,788.14 924.35,769.242 "/>
<path clip-path="url(#clip970)" d="M250.092 807.859 Q246.481 807.859 244.652 811.423 Q242.847 814.965 242.847 822.095 Q242.847 829.201 244.652 832.766 Q246.481 836.307 250.092 836.307 Q253.726 836.307 255.532 832.766 Q257.361 829.201 257.361 822.095 Q257.361 814.965 255.532 811.423 Q253.726 807.859 250.092 807.859 M250.092 804.155 Q255.902 804.155 258.958 808.761 Q262.037 813.345 262.037 822.095 Q262.037 830.821 258.958 835.428 Q255.902 840.011 250.092 840.011 Q244.282 840.011 241.203 835.428 Q238.148 830.821 238.148 822.095 Q238.148 813.345 241.203 808.761 Q244.282 804.155 250.092 804.155 Z" fill="#000000" fill-rule="nonzero" fill-opacity="1" /><path clip-path="url(#clip970)" d="M434.451 835.405 L442.09 835.405 L442.09 809.039 L433.78 810.706 L433.78 806.447 L442.044 804.78 L446.72 804.78 L446.72 835.405 L454.359 835.405 L454.359 839.34 L434.451 839.34 L434.451 835.405 Z" fill="#000000" fill-rule="nonzero" fill-opacity="1" /><path clip-path="url(#clip970)" d="M473.803 807.859 Q470.192 807.859 468.363 811.423 Q466.558 814.965 466.558 822.095 Q466.558 829.201 468.363 832.766 Q470.192 836.307 473.803 836.307 Q477.437 836.307 479.243 832.766 Q481.072 829.201 481.072 822.095 Q481.072 814.965 479.243 811.423 Q477.437 807.859 473.803 807.859 M473.803 804.155 Q479.613 804.155 482.669 808.761 Q485.747 813.345 485.747 822.095 Q485.747 830.821 482.669 835.428 Q479.613 840.011 473.803 840.011 Q467.993 840.011 464.914 835.428 Q461.859 830.821 461.859 822.095 Q461.859 813.345 464.914 808.761 Q467.993 804.155 473.803 804.155 Z" fill="#000000" fill-rule="nonzero" fill-opacity="1" /><path clip-path="url(#clip970)" d="M503.965 807.859 Q500.354 807.859 498.525 811.423 Q496.72 814.965 496.72 822.095 Q496.72 829.201 498.525 832.766 Q500.354 836.307 503.965 836.307 Q507.599 836.307 509.405 832.766 Q511.233 829.201 511.233 822.095 Q511.233 814.965 509.405 811.423 Q507.599 807.859 503.965 807.859 M503.965 804.155 Q509.775 804.155 512.831 808.761 Q515.909 813.345 515.909 822.095 Q515.909 830.821 512.831 835.428 Q509.775 840.011 503.965 840.011 Q498.155 840.011 495.076 835.428 Q492.021 830.821 492.021 822.095 Q492.021 813.345 495.076 808.761 Q498.155 804.155 503.965 804.155 Z" fill="#000000" fill-rule="nonzero" fill-opacity="1" /><path clip-path="url(#clip970)" d="M663.29 835.405 L679.609 835.405 L679.609 839.34 L657.665 839.34 L657.665 835.405 Q660.327 832.65 664.91 828.02 Q669.516 823.368 670.697 822.025 Q672.942 819.502 673.822 817.766 Q674.725 816.007 674.725 814.317 Q674.725 811.562 672.78 809.826 Q670.859 808.09 667.757 808.09 Q665.558 808.09 663.104 808.854 Q660.674 809.618 657.896 811.169 L657.896 806.447 Q660.72 805.312 663.174 804.734 Q665.628 804.155 667.665 804.155 Q673.035 804.155 676.229 806.84 Q679.424 809.525 679.424 814.016 Q679.424 816.146 678.614 818.067 Q677.827 819.965 675.72 822.558 Q675.141 823.229 672.04 826.446 Q668.938 829.641 663.29 835.405 Z" fill="#000000" fill-rule="nonzero" fill-opacity="1" /><path clip-path="url(#clip970)" d="M699.424 807.859 Q695.813 807.859 693.984 811.423 Q692.178 814.965 692.178 822.095 Q692.178 829.201 693.984 832.766 Q695.813 836.307 699.424 836.307 Q703.058 836.307 704.863 832.766 Q706.692 829.201 706.692 822.095 Q706.692 814.965 704.863 811.423 Q703.058 807.859 699.424 807.859 M699.424 804.155 Q705.234 804.155 708.289 808.761 Q711.368 813.345 711.368 822.095 Q711.368 830.821 708.289 835.428 Q705.234 840.011 699.424 840.011 Q693.614 840.011 690.535 835.428 Q687.479 830.821 687.479 822.095 Q687.479 813.345 690.535 808.761 Q693.614 804.155 699.424 804.155 Z" fill="#000000" fill-rule="nonzero" fill-opacity="1" /><path clip-path="url(#clip970)" d="M729.586 807.859 Q725.974 807.859 724.146 811.423 Q722.34 814.965 722.34 822.095 Q722.34 829.201 724.146 832.766 Q725.974 836.307 729.586 836.307 Q733.22 836.307 735.025 832.766 Q736.854 829.201 736.854 822.095 Q736.854 814.965 735.025 811.423 Q733.22 807.859 729.586 807.859 M729.586 804.155 Q735.396 804.155 738.451 808.761 Q741.53 813.345 741.53 822.095 Q741.53 830.821 738.451 835.428 Q735.396 840.011 729.586 840.011 Q723.775 840.011 720.697 835.428 Q717.641 830.821 717.641 822.095 Q717.641 813.345 720.697 808.761 Q723.775 804.155 729.586 804.155 Z" fill="#000000" fill-rule="nonzero" fill-opacity="1" /><path clip-path="url(#clip970)" d="M898.112 820.706 Q901.468 821.423 903.343 823.692 Q905.241 825.96 905.241 829.294 Q905.241 834.409 901.723 837.21 Q898.204 840.011 891.723 840.011 Q889.547 840.011 887.232 839.571 Q884.94 839.155 882.487 838.298 L882.487 833.784 Q884.431 834.919 886.746 835.497 Q889.061 836.076 891.584 836.076 Q895.982 836.076 898.274 834.34 Q900.588 832.604 900.588 829.294 Q900.588 826.238 898.436 824.525 Q896.306 822.789 892.487 822.789 L888.459 822.789 L888.459 818.946 L892.672 818.946 Q896.121 818.946 897.95 817.581 Q899.778 816.192 899.778 813.599 Q899.778 810.937 897.88 809.525 Q896.005 808.09 892.487 808.09 Q890.565 808.09 888.366 808.507 Q886.167 808.923 883.528 809.803 L883.528 805.636 Q886.19 804.896 888.505 804.525 Q890.843 804.155 892.903 804.155 Q898.227 804.155 901.329 806.585 Q904.431 808.993 904.431 813.113 Q904.431 815.983 902.787 817.974 Q901.144 819.942 898.112 820.706 Z" fill="#000000" fill-rule="nonzero" fill-opacity="1" /><path clip-path="url(#clip970)" d="M924.107 807.859 Q920.496 807.859 918.667 811.423 Q916.861 814.965 916.861 822.095 Q916.861 829.201 918.667 832.766 Q920.496 836.307 924.107 836.307 Q927.741 836.307 929.547 832.766 Q931.375 829.201 931.375 822.095 Q931.375 814.965 929.547 811.423 Q927.741 807.859 924.107 807.859 M924.107 804.155 Q929.917 804.155 932.972 808.761 Q936.051 813.345 936.051 822.095 Q936.051 830.821 932.972 835.428 Q929.917 840.011 924.107 840.011 Q918.297 840.011 915.218 835.428 Q912.162 830.821 912.162 822.095 Q912.162 813.345 915.218 808.761 Q918.297 804.155 924.107 804.155 Z" fill="#000000" fill-rule="nonzero" fill-opacity="1" /><path clip-path="url(#clip970)" d="M954.269 807.859 Q950.658 807.859 948.829 811.423 Q947.023 814.965 947.023 822.095 Q947.023 829.201 948.829 832.766 Q950.658 836.307 954.269 836.307 Q957.903 836.307 959.708 832.766 Q961.537 829.201 961.537 822.095 Q961.537 814.965 959.708 811.423 Q957.903 807.859 954.269 807.859 M954.269 804.155 Q960.079 804.155 963.134 808.761 Q966.213 813.345 966.213 822.095 Q966.213 830.821 963.134 835.428 Q960.079 840.011 954.269 840.011 Q948.459 840.011 945.38 835.428 Q942.324 830.821 942.324 822.095 Q942.324 813.345 945.38 808.761 Q948.459 804.155 954.269 804.155 Z" fill="#000000" fill-rule="nonzero" fill-opacity="1" /><path clip-path="url(#clip970)" d="M440.212 869.767 L440.212 887.623 L448.297 887.623 Q452.785 887.623 455.236 885.3 Q457.686 882.976 457.686 878.679 Q457.686 874.414 455.236 872.091 Q452.785 869.767 448.297 869.767 L440.212 869.767 M433.783 864.484 L448.297 864.484 Q456.286 864.484 460.36 868.112 Q464.466 871.709 464.466 878.679 Q464.466 885.713 460.36 889.31 Q456.286 892.907 448.297 892.907 L440.212 892.907 L440.212 912.004 L433.783 912.004 L433.783 864.484 Z" fill="#000000" fill-rule="nonzero" fill-opacity="1" /><path clip-path="url(#clip970)" d="M501.005 892.716 L501.005 895.58 L474.078 895.58 Q474.46 901.628 477.706 904.811 Q480.985 907.962 486.809 907.962 Q490.183 907.962 493.334 907.134 Q496.517 906.307 499.636 904.651 L499.636 910.19 Q496.485 911.526 493.175 912.227 Q489.865 912.927 486.459 912.927 Q477.929 912.927 472.932 907.962 Q467.967 902.996 467.967 894.53 Q467.967 885.777 472.678 880.653 Q477.42 875.497 485.441 875.497 Q492.634 875.497 496.804 880.143 Q501.005 884.759 501.005 892.716 M495.148 890.997 Q495.085 886.191 492.443 883.326 Q489.833 880.462 485.504 880.462 Q480.603 880.462 477.643 883.231 Q474.715 886 474.269 891.029 L495.148 890.997 Z" fill="#000000" fill-rule="nonzero" fill-opacity="1" /><path clip-path="url(#clip970)" d="M531.274 881.83 Q530.287 881.257 529.11 881.003 Q527.964 880.716 526.563 880.716 Q521.598 880.716 518.924 883.963 Q516.283 887.178 516.283 893.225 L516.283 912.004 L510.394 912.004 L510.394 876.356 L516.283 876.356 L516.283 881.894 Q518.129 878.648 521.089 877.088 Q524.049 875.497 528.282 875.497 Q528.887 875.497 529.619 875.592 Q530.351 875.656 531.242 875.815 L531.274 881.83 Z" fill="#000000" fill-rule="nonzero" fill-opacity="1" /><path clip-path="url(#clip970)" d="M543.082 906.657 L543.082 925.563 L537.194 925.563 L537.194 876.356 L543.082 876.356 L543.082 881.767 Q544.928 878.584 547.729 877.056 Q550.562 875.497 554.477 875.497 Q560.97 875.497 565.012 880.653 Q569.086 885.809 569.086 894.212 Q569.086 902.614 565.012 907.771 Q560.97 912.927 554.477 912.927 Q550.562 912.927 547.729 911.399 Q544.928 909.84 543.082 906.657 M563.007 894.212 Q563.007 887.751 560.333 884.09 Q557.692 880.398 553.045 880.398 Q548.398 880.398 545.724 884.09 Q543.082 887.751 543.082 894.212 Q543.082 900.673 545.724 904.365 Q548.398 908.025 553.045 908.025 Q557.692 908.025 560.333 904.365 Q563.007 900.673 563.007 894.212 Z" fill="#000000" fill-rule="nonzero" fill-opacity="1" /><path clip-path="url(#clip970)" d="M578.794 862.479 L584.65 862.479 L584.65 912.004 L578.794 912.004 L578.794 862.479 Z" fill="#000000" fill-rule="nonzero" fill-opacity="1" /><path clip-path="url(#clip970)" d="M627.396 892.716 L627.396 895.58 L600.469 895.58 Q600.851 901.628 604.098 904.811 Q607.376 907.962 613.201 907.962 Q616.574 907.962 619.725 907.134 Q622.908 906.307 626.027 904.651 L626.027 910.19 Q622.876 911.526 619.566 912.227 Q616.256 912.927 612.85 912.927 Q604.32 912.927 599.323 907.962 Q594.358 902.996 594.358 894.53 Q594.358 885.777 599.069 880.653 Q603.811 875.497 611.832 875.497 Q619.025 875.497 623.195 880.143 Q627.396 884.759 627.396 892.716 M621.54 890.997 Q621.476 886.191 618.834 883.326 Q616.224 880.462 611.896 880.462 Q606.994 880.462 604.034 883.231 Q601.106 886 600.66 891.029 L621.54 890.997 Z" fill="#000000" fill-rule="nonzero" fill-opacity="1" /><path clip-path="url(#clip970)" d="M665.495 876.356 L652.604 893.702 L666.163 912.004 L659.256 912.004 L648.88 897.999 L638.504 912.004 L631.597 912.004 L645.443 893.352 L632.775 876.356 L639.682 876.356 L649.135 889.055 L658.588 876.356 L665.495 876.356 Z" fill="#000000" fill-rule="nonzero" fill-opacity="1" /><path clip-path="url(#clip970)" d="M674.439 876.356 L680.295 876.356 L680.295 912.004 L674.439 912.004 L674.439 876.356 M674.439 862.479 L680.295 862.479 L680.295 869.895 L674.439 869.895 L674.439 862.479 Z" fill="#000000" fill-rule="nonzero" fill-opacity="1" /><path clip-path="url(#clip970)" d="M698.342 866.234 L698.342 876.356 L710.405 876.356 L710.405 880.907 L698.342 880.907 L698.342 900.259 Q698.342 904.62 699.519 905.861 Q700.729 907.102 704.389 907.102 L710.405 907.102 L710.405 912.004 L704.389 912.004 Q697.61 912.004 695.032 909.489 Q692.454 906.943 692.454 900.259 L692.454 880.907 L688.157 880.907 L688.157 876.356 L692.454 876.356 L692.454 866.234 L698.342 866.234 Z" fill="#000000" fill-rule="nonzero" fill-opacity="1" /><path clip-path="url(#clip970)" d="M732.939 915.314 Q730.457 921.68 728.102 923.621 Q725.746 925.563 721.799 925.563 L717.121 925.563 L717.121 920.661 L720.558 920.661 Q722.977 920.661 724.314 919.515 Q725.651 918.37 727.274 914.105 L728.324 911.431 L713.906 876.356 L720.113 876.356 L731.253 904.238 L742.393 876.356 L748.599 876.356 L732.939 915.314 Z" fill="#000000" fill-rule="nonzero" fill-opacity="1" /><polyline clip-path="url(#clip970)" style="stroke:#000000; stroke-linecap:round; stroke-linejoin:round; stroke-width:4; stroke-opacity:1; fill:none" points="229.626,788.14 229.626,47.2441 "/>
<polyline clip-path="url(#clip970)" style="stroke:#000000; stroke-linecap:round; stroke-linejoin:round; stroke-width:4; stroke-opacity:1; fill:none" points="229.626,767.171 248.524,767.171 "/>
<polyline clip-path="url(#clip970)" style="stroke:#000000; stroke-linecap:round; stroke-linejoin:round; stroke-width:4; stroke-opacity:1; fill:none" points="229.626,657.731 248.524,657.731 "/>
<polyline clip-path="url(#clip970)" style="stroke:#000000; stroke-linecap:round; stroke-linejoin:round; stroke-width:4; stroke-opacity:1; fill:none" points="229.626,548.291 248.524,548.291 "/>
<polyline clip-path="url(#clip970)" style="stroke:#000000; stroke-linecap:round; stroke-linejoin:round; stroke-width:4; stroke-opacity:1; fill:none" points="229.626,438.85 248.524,438.85 "/>
<polyline clip-path="url(#clip970)" style="stroke:#000000; stroke-linecap:round; stroke-linejoin:round; stroke-width:4; stroke-opacity:1; fill:none" points="229.626,329.41 248.524,329.41 "/>
<polyline clip-path="url(#clip970)" style="stroke:#000000; stroke-linecap:round; stroke-linejoin:round; stroke-width:4; stroke-opacity:1; fill:none" points="229.626,219.97 248.524,219.97 "/>
<polyline clip-path="url(#clip970)" style="stroke:#000000; stroke-linecap:round; stroke-linejoin:round; stroke-width:4; stroke-opacity:1; fill:none" points="229.626,110.53 248.524,110.53 "/>
<path clip-path="url(#clip970)" d="M157.451 752.97 Q153.84 752.97 152.011 756.535 Q150.205 760.076 150.205 767.206 Q150.205 774.312 152.011 777.877 Q153.84 781.419 157.451 781.419 Q161.085 781.419 162.89 777.877 Q164.719 774.312 164.719 767.206 Q164.719 760.076 162.89 756.535 Q161.085 752.97 157.451 752.97 M157.451 749.266 Q163.261 749.266 166.316 753.873 Q169.395 758.456 169.395 767.206 Q169.395 775.933 166.316 780.539 Q163.261 785.122 157.451 785.122 Q151.64 785.122 148.562 780.539 Q145.506 775.933 145.506 767.206 Q145.506 758.456 148.562 753.873 Q151.64 749.266 157.451 749.266 Z" fill="#000000" fill-rule="nonzero" fill-opacity="1" /><path clip-path="url(#clip970)" d="M177.613 778.571 L182.497 778.571 L182.497 784.451 L177.613 784.451 L177.613 778.571 Z" fill="#000000" fill-rule="nonzero" fill-opacity="1" /><path clip-path="url(#clip970)" d="M202.682 752.97 Q199.071 752.97 197.242 756.535 Q195.437 760.076 195.437 767.206 Q195.437 774.312 197.242 777.877 Q199.071 781.419 202.682 781.419 Q206.316 781.419 208.122 777.877 Q209.95 774.312 209.95 767.206 Q209.95 760.076 208.122 756.535 Q206.316 752.97 202.682 752.97 M202.682 749.266 Q208.492 749.266 211.548 753.873 Q214.626 758.456 214.626 767.206 Q214.626 775.933 211.548 780.539 Q208.492 785.122 202.682 785.122 Q196.872 785.122 193.793 780.539 Q190.738 775.933 190.738 767.206 Q190.738 758.456 193.793 753.873 Q196.872 749.266 202.682 749.266 Z" fill="#000000" fill-rule="nonzero" fill-opacity="1" /><path clip-path="url(#clip970)" d="M158.677 643.53 Q155.066 643.53 153.238 647.094 Q151.432 650.636 151.432 657.766 Q151.432 664.872 153.238 668.437 Q155.066 671.978 158.677 671.978 Q162.312 671.978 164.117 668.437 Q165.946 664.872 165.946 657.766 Q165.946 650.636 164.117 647.094 Q162.312 643.53 158.677 643.53 M158.677 639.826 Q164.488 639.826 167.543 644.432 Q170.622 649.016 170.622 657.766 Q170.622 666.492 167.543 671.099 Q164.488 675.682 158.677 675.682 Q152.867 675.682 149.789 671.099 Q146.733 666.492 146.733 657.766 Q146.733 649.016 149.789 644.432 Q152.867 639.826 158.677 639.826 Z" fill="#000000" fill-rule="nonzero" fill-opacity="1" /><path clip-path="url(#clip970)" d="M178.839 669.131 L183.724 669.131 L183.724 675.011 L178.839 675.011 L178.839 669.131 Z" fill="#000000" fill-rule="nonzero" fill-opacity="1" /><path clip-path="url(#clip970)" d="M194.719 671.076 L202.358 671.076 L202.358 644.71 L194.048 646.377 L194.048 642.118 L202.312 640.451 L206.987 640.451 L206.987 671.076 L214.626 671.076 L214.626 675.011 L194.719 675.011 L194.719 671.076 Z" fill="#000000" fill-rule="nonzero" fill-opacity="1" /><path clip-path="url(#clip970)" d="M159.048 534.089 Q155.437 534.089 153.608 537.654 Q151.803 541.196 151.803 548.325 Q151.803 555.432 153.608 558.997 Q155.437 562.538 159.048 562.538 Q162.682 562.538 164.488 558.997 Q166.316 555.432 166.316 548.325 Q166.316 541.196 164.488 537.654 Q162.682 534.089 159.048 534.089 M159.048 530.386 Q164.858 530.386 167.914 534.992 Q170.992 539.575 170.992 548.325 Q170.992 557.052 167.914 561.659 Q164.858 566.242 159.048 566.242 Q153.238 566.242 150.159 561.659 Q147.103 557.052 147.103 548.325 Q147.103 539.575 150.159 534.992 Q153.238 530.386 159.048 530.386 Z" fill="#000000" fill-rule="nonzero" fill-opacity="1" /><path clip-path="url(#clip970)" d="M179.21 559.691 L184.094 559.691 L184.094 565.571 L179.21 565.571 L179.21 559.691 Z" fill="#000000" fill-rule="nonzero" fill-opacity="1" /><path clip-path="url(#clip970)" d="M198.307 561.635 L214.626 561.635 L214.626 565.571 L192.682 565.571 L192.682 561.635 Q195.344 558.881 199.927 554.251 Q204.534 549.599 205.714 548.256 Q207.96 545.733 208.839 543.997 Q209.742 542.237 209.742 540.548 Q209.742 537.793 207.798 536.057 Q205.876 534.321 202.774 534.321 Q200.575 534.321 198.122 535.085 Q195.691 535.849 192.913 537.399 L192.913 532.677 Q195.737 531.543 198.191 530.964 Q200.645 530.386 202.682 530.386 Q208.052 530.386 211.247 533.071 Q214.441 535.756 214.441 540.247 Q214.441 542.376 213.631 544.298 Q212.844 546.196 210.737 548.788 Q210.159 549.46 207.057 552.677 Q203.955 555.872 198.307 561.635 Z" fill="#000000" fill-rule="nonzero" fill-opacity="1" /><path clip-path="url(#clip970)" d="M158.099 424.649 Q154.488 424.649 152.659 428.214 Q150.853 431.756 150.853 438.885 Q150.853 445.992 152.659 449.556 Q154.488 453.098 158.099 453.098 Q161.733 453.098 163.539 449.556 Q165.367 445.992 165.367 438.885 Q165.367 431.756 163.539 428.214 Q161.733 424.649 158.099 424.649 M158.099 420.945 Q163.909 420.945 166.964 425.552 Q170.043 430.135 170.043 438.885 Q170.043 447.612 166.964 452.218 Q163.909 456.802 158.099 456.802 Q152.289 456.802 149.21 452.218 Q146.154 447.612 146.154 438.885 Q146.154 430.135 149.21 425.552 Q152.289 420.945 158.099 420.945 Z" fill="#000000" fill-rule="nonzero" fill-opacity="1" /><path clip-path="url(#clip970)" d="M178.261 450.251 L183.145 450.251 L183.145 456.13 L178.261 456.13 L178.261 450.251 Z" fill="#000000" fill-rule="nonzero" fill-opacity="1" /><path clip-path="url(#clip970)" d="M207.497 437.496 Q210.853 438.214 212.728 440.482 Q214.626 442.751 214.626 446.084 Q214.626 451.2 211.108 454.001 Q207.589 456.802 201.108 456.802 Q198.932 456.802 196.617 456.362 Q194.325 455.945 191.872 455.089 L191.872 450.575 Q193.816 451.709 196.131 452.288 Q198.446 452.867 200.969 452.867 Q205.367 452.867 207.659 451.13 Q209.974 449.394 209.974 446.084 Q209.974 443.029 207.821 441.316 Q205.691 439.58 201.872 439.58 L197.844 439.58 L197.844 435.737 L202.057 435.737 Q205.506 435.737 207.335 434.371 Q209.163 432.982 209.163 430.39 Q209.163 427.728 207.265 426.316 Q205.39 424.881 201.872 424.881 Q199.95 424.881 197.751 425.297 Q195.552 425.714 192.913 426.594 L192.913 422.427 Q195.575 421.686 197.89 421.316 Q200.228 420.945 202.288 420.945 Q207.612 420.945 210.714 423.376 Q213.816 425.783 213.816 429.904 Q213.816 432.774 212.173 434.765 Q210.529 436.732 207.497 437.496 Z" fill="#000000" fill-rule="nonzero" fill-opacity="1" /><path clip-path="url(#clip970)" d="M156.965 315.209 Q153.353 315.209 151.525 318.774 Q149.719 322.315 149.719 329.445 Q149.719 336.551 151.525 340.116 Q153.353 343.658 156.965 343.658 Q160.599 343.658 162.404 340.116 Q164.233 336.551 164.233 329.445 Q164.233 322.315 162.404 318.774 Q160.599 315.209 156.965 315.209 M156.965 311.505 Q162.775 311.505 165.83 316.112 Q168.909 320.695 168.909 329.445 Q168.909 338.172 165.83 342.778 Q162.775 347.361 156.965 347.361 Q151.154 347.361 148.076 342.778 Q145.02 338.172 145.02 329.445 Q145.02 320.695 148.076 316.112 Q151.154 311.505 156.965 311.505 Z" fill="#000000" fill-rule="nonzero" fill-opacity="1" /><path clip-path="url(#clip970)" d="M177.126 340.811 L182.011 340.811 L182.011 346.69 L177.126 346.69 L177.126 340.811 Z" fill="#000000" fill-rule="nonzero" fill-opacity="1" /><path clip-path="url(#clip970)" d="M205.043 316.204 L193.237 334.653 L205.043 334.653 L205.043 316.204 M203.816 312.13 L209.696 312.13 L209.696 334.653 L214.626 334.653 L214.626 338.542 L209.696 338.542 L209.696 346.69 L205.043 346.69 L205.043 338.542 L189.441 338.542 L189.441 334.028 L203.816 312.13 Z" fill="#000000" fill-rule="nonzero" fill-opacity="1" /><path clip-path="url(#clip970)" d="M158.446 205.769 Q154.835 205.769 153.006 209.333 Q151.201 212.875 151.201 220.005 Q151.201 227.111 153.006 230.676 Q154.835 234.218 158.446 234.218 Q162.08 234.218 163.886 230.676 Q165.714 227.111 165.714 220.005 Q165.714 212.875 163.886 209.333 Q162.08 205.769 158.446 205.769 M158.446 202.065 Q164.256 202.065 167.312 206.671 Q170.39 211.255 170.39 220.005 Q170.39 228.731 167.312 233.338 Q164.256 237.921 158.446 237.921 Q152.636 237.921 149.557 233.338 Q146.502 228.731 146.502 220.005 Q146.502 211.255 149.557 206.671 Q152.636 202.065 158.446 202.065 Z" fill="#000000" fill-rule="nonzero" fill-opacity="1" /><path clip-path="url(#clip970)" d="M178.608 231.37 L183.492 231.37 L183.492 237.25 L178.608 237.25 L178.608 231.37 Z" fill="#000000" fill-rule="nonzero" fill-opacity="1" /><path clip-path="url(#clip970)" d="M193.724 202.69 L212.08 202.69 L212.08 206.625 L198.006 206.625 L198.006 215.097 Q199.024 214.75 200.043 214.588 Q201.062 214.403 202.08 214.403 Q207.867 214.403 211.247 217.574 Q214.626 220.745 214.626 226.162 Q214.626 231.741 211.154 234.843 Q207.682 237.921 201.362 237.921 Q199.187 237.921 196.918 237.551 Q194.673 237.181 192.265 236.44 L192.265 231.741 Q194.349 232.875 196.571 233.431 Q198.793 233.986 201.27 233.986 Q205.274 233.986 207.612 231.88 Q209.95 229.773 209.95 226.162 Q209.95 222.551 207.612 220.444 Q205.274 218.338 201.27 218.338 Q199.395 218.338 197.52 218.755 Q195.668 219.171 193.724 220.051 L193.724 202.69 Z" fill="#000000" fill-rule="nonzero" fill-opacity="1" /><path clip-path="url(#clip970)" d="M157.289 96.3284 Q153.678 96.3284 151.849 99.8932 Q150.043 103.435 150.043 110.564 Q150.043 117.671 151.849 121.236 Q153.678 124.777 157.289 124.777 Q160.923 124.777 162.728 121.236 Q164.557 117.671 164.557 110.564 Q164.557 103.435 162.728 99.8932 Q160.923 96.3284 157.289 96.3284 M157.289 92.6247 Q163.099 92.6247 166.154 97.2312 Q169.233 101.814 169.233 110.564 Q169.233 119.291 166.154 123.898 Q163.099 128.481 157.289 128.481 Q151.478 128.481 148.4 123.898 Q145.344 119.291 145.344 110.564 Q145.344 101.814 148.4 97.2312 Q151.478 92.6247 157.289 92.6247 Z" fill="#000000" fill-rule="nonzero" fill-opacity="1" /><path clip-path="url(#clip970)" d="M177.451 121.93 L182.335 121.93 L182.335 127.81 L177.451 127.81 L177.451 121.93 Z" fill="#000000" fill-rule="nonzero" fill-opacity="1" /><path clip-path="url(#clip970)" d="M203.099 108.666 Q199.95 108.666 198.099 110.819 Q196.27 112.972 196.27 116.722 Q196.27 120.449 198.099 122.625 Q199.95 124.777 203.099 124.777 Q206.247 124.777 208.075 122.625 Q209.927 120.449 209.927 116.722 Q209.927 112.972 208.075 110.819 Q206.247 108.666 203.099 108.666 M212.381 94.0136 L212.381 98.2729 Q210.622 97.4395 208.816 96.9997 Q207.034 96.5599 205.274 96.5599 Q200.645 96.5599 198.191 99.6849 Q195.761 102.81 195.413 109.129 Q196.779 107.115 198.839 106.051 Q200.899 104.963 203.376 104.963 Q208.585 104.963 211.594 108.134 Q214.626 111.282 214.626 116.722 Q214.626 122.046 211.478 125.263 Q208.33 128.481 203.099 128.481 Q197.103 128.481 193.932 123.898 Q190.761 119.291 190.761 110.564 Q190.761 102.37 194.65 97.509 Q198.538 92.6247 205.089 92.6247 Q206.849 92.6247 208.631 92.972 Q210.436 93.3192 212.381 94.0136 Z" fill="#000000" fill-rule="nonzero" fill-opacity="1" /><path clip-path="url(#clip970)" d="M68.2442 581.895 L68.2442 554.586 L73.655 554.586 L73.655 575.466 L87.6596 575.466 L87.6596 556.624 L93.0704 556.624 L93.0704 575.466 L115.764 575.466 L115.764 581.895 L68.2442 581.895 Z" fill="#000000" fill-rule="nonzero" fill-opacity="1" /><path clip-path="url(#clip970)" d="M85.5907 528.742 Q85.0178 529.728 84.7632 530.906 Q84.4767 532.052 84.4767 533.452 Q84.4767 538.418 87.7232 541.091 Q90.9379 543.733 96.9853 543.733 L115.764 543.733 L115.764 549.621 L80.1162 549.621 L80.1162 543.733 L85.6544 543.733 Q82.4079 541.887 80.8483 538.927 Q79.2568 535.967 79.2568 531.734 Q79.2568 531.129 79.3523 530.397 Q79.416 529.665 79.5751 528.774 L85.5907 528.742 Z" fill="#000000" fill-rule="nonzero" fill-opacity="1" /><path clip-path="url(#clip970)" d="M96.4761 493.539 L99.3406 493.539 L99.3406 520.466 Q105.388 520.084 108.571 516.838 Q111.722 513.56 111.722 507.735 Q111.722 504.361 110.894 501.21 Q110.067 498.027 108.412 494.908 L113.95 494.908 Q115.287 498.059 115.987 501.369 Q116.687 504.679 116.687 508.085 Q116.687 516.615 111.722 521.612 Q106.757 526.577 98.2903 526.577 Q89.5374 526.577 84.4131 521.867 Q79.2568 517.124 79.2568 509.104 Q79.2568 501.91 83.9038 497.741 Q88.5189 493.539 96.4761 493.539 M94.7573 499.396 Q89.9512 499.459 87.0866 502.101 Q84.2221 504.711 84.2221 509.04 Q84.2221 513.941 86.9912 516.902 Q89.7602 519.83 94.7892 520.275 L94.7573 499.396 Z" fill="#000000" fill-rule="nonzero" fill-opacity="1" /><path clip-path="url(#clip970)" d="M97.972 480.426 Q104.433 480.426 108.125 477.784 Q111.786 475.111 111.786 470.464 Q111.786 465.817 108.125 463.143 Q104.433 460.47 97.972 460.47 Q91.5108 460.47 87.8505 463.143 Q84.1584 465.817 84.1584 470.464 Q84.1584 475.111 87.8505 477.784 Q91.5108 480.426 97.972 480.426 M110.417 460.47 Q113.6 462.316 115.159 465.148 Q116.687 467.949 116.687 471.896 Q116.687 478.357 111.531 482.431 Q106.375 486.473 97.972 486.473 Q89.5693 486.473 84.4131 482.431 Q79.2568 478.357 79.2568 471.896 Q79.2568 467.949 80.8164 465.148 Q82.3442 462.316 85.5271 460.47 L80.1162 460.47 L80.1162 454.613 L129.323 454.613 L129.323 460.47 L110.417 460.47 Z" fill="#000000" fill-rule="nonzero" fill-opacity="1" /><path clip-path="url(#clip970)" d="M101.696 443.155 L80.1162 443.155 L80.1162 437.298 L101.473 437.298 Q106.534 437.298 109.08 435.325 Q111.595 433.352 111.595 429.405 Q111.595 424.662 108.571 421.925 Q105.547 419.156 100.327 419.156 L80.1162 419.156 L80.1162 413.3 L115.764 413.3 L115.764 419.156 L110.29 419.156 Q113.536 421.289 115.128 424.121 Q116.687 426.922 116.687 430.646 Q116.687 436.789 112.868 439.972 Q109.048 443.155 101.696 443.155 M79.2568 428.418 L79.2568 428.418 Z" fill="#000000" fill-rule="nonzero" fill-opacity="1" /><path clip-path="url(#clip970)" d="M96.4761 370.745 L99.3406 370.745 L99.3406 397.672 Q105.388 397.29 108.571 394.043 Q111.722 390.765 111.722 384.94 Q111.722 381.567 110.894 378.416 Q110.067 375.233 108.412 372.114 L113.95 372.114 Q115.287 375.265 115.987 378.575 Q116.687 381.885 116.687 385.291 Q116.687 393.821 111.722 398.818 Q106.757 403.783 98.2903 403.783 Q89.5374 403.783 84.4131 399.072 Q79.2568 394.33 79.2568 386.309 Q79.2568 379.116 83.9038 374.946 Q88.5189 370.745 96.4761 370.745 M94.7573 376.601 Q89.9512 376.665 87.0866 379.307 Q84.2221 381.917 84.2221 386.245 Q84.2221 391.147 86.9912 394.107 Q89.7602 397.035 94.7892 397.481 L94.7573 376.601 Z" fill="#000000" fill-rule="nonzero" fill-opacity="1" /><path clip-path="url(#clip970)" d="M94.2481 331.5 L115.764 331.5 L115.764 337.357 L94.439 337.357 Q89.3783 337.357 86.8638 339.33 Q84.3494 341.303 84.3494 345.25 Q84.3494 349.993 87.3731 352.73 Q90.3968 355.467 95.6167 355.467 L115.764 355.467 L115.764 361.355 L80.1162 361.355 L80.1162 355.467 L85.6544 355.467 Q82.4397 353.367 80.8483 350.534 Q79.2568 347.669 79.2568 343.945 Q79.2568 337.802 83.0763 334.651 Q86.8638 331.5 94.2481 331.5 Z" fill="#000000" fill-rule="nonzero" fill-opacity="1" /><path clip-path="url(#clip970)" d="M81.4848 294.165 L86.9593 294.165 Q85.5907 296.648 84.9223 299.163 Q84.2221 301.645 84.2221 304.191 Q84.2221 309.889 87.8505 313.04 Q91.4472 316.191 97.972 316.191 Q104.497 316.191 108.125 313.04 Q111.722 309.889 111.722 304.191 Q111.722 301.645 111.054 299.163 Q110.353 296.648 108.985 294.165 L114.396 294.165 Q115.541 296.616 116.114 299.258 Q116.687 301.868 116.687 304.828 Q116.687 312.881 111.626 317.623 Q106.566 322.366 97.972 322.366 Q89.251 322.366 84.2539 317.591 Q79.2568 312.785 79.2568 304.446 Q79.2568 301.741 79.8297 299.163 Q80.3708 296.584 81.4848 294.165 Z" fill="#000000" fill-rule="nonzero" fill-opacity="1" /><path clip-path="url(#clip970)" d="M119.074 269.148 Q125.44 271.631 127.382 273.986 Q129.323 276.341 129.323 280.288 L129.323 284.967 L124.422 284.967 L124.422 281.53 Q124.422 279.111 123.276 277.774 Q122.13 276.437 117.865 274.814 L115.191 273.763 L80.1162 288.182 L80.1162 281.975 L107.998 270.835 L80.1162 259.695 L80.1162 253.489 L119.074 269.148 Z" fill="#000000" fill-rule="nonzero" fill-opacity="1" /><path clip-path="url(#clip972)" d="M250.092 767.171 L250.092 751.849 L278.517 751.849 L278.517 466.575 L306.942 466.575 L306.942 624.169 L335.367 624.169 L335.367 523.484 L363.792 523.484 L363.792 741.635 L392.217 741.635 L392.217 765.712 L420.642 765.712 L420.642 766.441 L449.067 766.441 L449.067 756.227 L477.491 756.227 L477.491 664.297 L505.916 664.297 L505.916 620.521 L534.341 620.521 L534.341 679.619 L562.766 679.619 L562.766 751.849 L591.191 751.849 L591.191 766.441 L619.616 766.441 L619.616 767.171 L648.041 767.171 L648.041 767.171 L676.466 767.171 L676.466 767.171 L704.891 767.171 L704.891 767.171 L733.316 767.171 L733.316 767.171 L761.741 767.171 L761.741 767.171 L790.165 767.171 L790.165 767.171 L818.59 767.171 L818.59 767.171 L847.015 767.171 L847.015 767.171 L875.44 767.171 L875.44 767.171 L903.865 767.171 L903.865 767.171 L932.29 767.171 L932.29 767.171 L903.865 767.171 L903.865 767.171 L875.44 767.171 L875.44 767.171 L847.015 767.171 L847.015 767.171 L818.59 767.171 L818.59 767.171 L790.165 767.171 L790.165 767.171 L761.741 767.171 L761.741 767.171 L733.316 767.171 L733.316 767.171 L704.891 767.171 L704.891 767.171 L676.466 767.171 L676.466 767.171 L648.041 767.171 L648.041 767.171 L619.616 767.171 L619.616 767.171 L591.191 767.171 L591.191 767.171 L562.766 767.171 L562.766 767.171 L534.341 767.171 L534.341 767.171 L505.916 767.171 L505.916 767.171 L477.491 767.171 L477.491 767.171 L449.067 767.171 L449.067 767.171 L420.642 767.171 L420.642 767.171 L392.217 767.171 L392.217 767.171 L363.792 767.171 L363.792 767.171 L335.367 767.171 L335.367 767.171 L306.942 767.171 L306.942 767.171 L278.517 767.171 L278.517 767.171 L250.092 767.171 L250.092 767.171  Z" fill="#377db8" fill-rule="evenodd" fill-opacity="0.5"/>
<polyline clip-path="url(#clip972)" style="stroke:#377db8; stroke-linecap:round; stroke-linejoin:round; stroke-width:4; stroke-opacity:0.5; fill:none" points="250.092,767.171 250.092,751.849 278.517,751.849 278.517,466.575 306.942,466.575 306.942,624.169 335.367,624.169 335.367,523.484 363.792,523.484 363.792,741.635 392.217,741.635 392.217,765.712 420.642,765.712 420.642,766.441 449.067,766.441 449.067,756.227 477.491,756.227 477.491,664.297 505.916,664.297 505.916,620.521 534.341,620.521 534.341,679.619 562.766,679.619 562.766,751.849 591.191,751.849 591.191,766.441 619.616,766.441 619.616,767.171 648.041,767.171 676.466,767.171 704.891,767.171 733.316,767.171 761.741,767.171 790.165,767.171 818.59,767.171 847.015,767.171 875.44,767.171 903.865,767.171 932.29,767.171 "/>
<path clip-path="url(#clip972)" d="M250.092 767.171 L250.092 68.2128 L278.517 68.2128 L278.517 739.446 L306.942 739.446 L306.942 764.253 L335.367 764.253 L335.367 766.441 L363.792 766.441 L363.792 763.523 L392.217 763.523 L392.217 759.145 L420.642 759.145 L420.642 756.227 L449.067 756.227 L449.067 754.768 L477.491 754.768 L477.491 743.824 L505.916 743.824 L505.916 743.094 L534.341 743.094 L534.341 729.232 L562.766 729.232 L562.766 716.829 L591.191 716.829 L591.191 719.747 L619.616 719.747 L619.616 719.747 L648.041 719.747 L648.041 732.15 L676.466 732.15 L676.466 744.553 L704.891 744.553 L704.891 756.227 L733.316 756.227 L733.316 748.931 L761.741 748.931 L761.741 758.416 L790.165 758.416 L790.165 764.982 L818.59 764.982 L818.59 767.171 L847.015 767.171 L847.015 767.171 L875.44 767.171 L875.44 766.441 L903.865 766.441 L903.865 767.171 L932.29 767.171 L932.29 767.171 L903.865 767.171 L903.865 767.171 L875.44 767.171 L875.44 767.171 L847.015 767.171 L847.015 767.171 L818.59 767.171 L818.59 767.171 L790.165 767.171 L790.165 767.171 L761.741 767.171 L761.741 767.171 L733.316 767.171 L733.316 767.171 L704.891 767.171 L704.891 767.171 L676.466 767.171 L676.466 767.171 L648.041 767.171 L648.041 767.171 L619.616 767.171 L619.616 767.171 L591.191 767.171 L591.191 767.171 L562.766 767.171 L562.766 767.171 L534.341 767.171 L534.341 767.171 L505.916 767.171 L505.916 767.171 L477.491 767.171 L477.491 767.171 L449.067 767.171 L449.067 767.171 L420.642 767.171 L420.642 767.171 L392.217 767.171 L392.217 767.171 L363.792 767.171 L363.792 767.171 L335.367 767.171 L335.367 767.171 L306.942 767.171 L306.942 767.171 L278.517 767.171 L278.517 767.171 L250.092 767.171 L250.092 767.171  Z" fill="#e31a1c" fill-rule="evenodd" fill-opacity="0.5"/>
<polyline clip-path="url(#clip972)" style="stroke:#e31a1c; stroke-linecap:round; stroke-linejoin:round; stroke-width:4; stroke-opacity:0.5; fill:none" points="250.092,767.171 250.092,68.2128 278.517,68.2128 278.517,739.446 306.942,739.446 306.942,764.253 335.367,764.253 335.367,766.441 363.792,766.441 363.792,763.523 392.217,763.523 392.217,759.145 420.642,759.145 420.642,756.227 449.067,756.227 449.067,754.768 477.491,754.768 477.491,743.824 505.916,743.824 505.916,743.094 534.341,743.094 534.341,729.232 562.766,729.232 562.766,716.829 591.191,716.829 591.191,719.747 619.616,719.747 648.041,719.747 648.041,732.15 676.466,732.15 676.466,744.553 704.891,744.553 704.891,756.227 733.316,756.227 733.316,748.931 761.741,748.931 761.741,758.416 790.165,758.416 790.165,764.982 818.59,764.982 818.59,767.171 847.015,767.171 875.44,767.171 875.44,766.441 903.865,766.441 903.865,767.171 932.29,767.171 "/>
<path clip-path="url(#clip970)" d="M482.799 227.461 L928.652 227.461 L928.652 71.9406 L482.799 71.9406  Z" fill="#ffffff" fill-rule="evenodd" fill-opacity="1"/>
<polyline clip-path="url(#clip970)" style="stroke:#000000; stroke-linecap:round; stroke-linejoin:round; stroke-width:4; stroke-opacity:1; fill:none" points="482.799,227.461 928.652,227.461 928.652,71.9406 482.799,71.9406 482.799,227.461 "/>
<path clip-path="url(#clip970)" d="M490.834 144.517 L539.042 144.517 L539.042 103.045 L490.834 103.045 L490.834 144.517  Z" fill="#377db8" fill-rule="evenodd" fill-opacity="0.5"/>
<polyline clip-path="url(#clip970)" style="stroke:#377db8; stroke-linecap:round; stroke-linejoin:round; stroke-width:4; stroke-opacity:0.5; fill:none" points="490.834,103.045 539.042,103.045 "/>
<path clip-path="url(#clip970)" d="M551.753 124.556 L551.753 137.218 L559.253 137.218 Q563.026 137.218 564.832 135.667 Q566.66 134.093 566.66 130.875 Q566.66 127.635 564.832 126.107 Q563.026 124.556 559.253 124.556 L551.753 124.556 M551.753 110.343 L551.753 120.76 L558.674 120.76 Q562.1 120.76 563.767 119.487 Q565.457 118.19 565.457 115.551 Q565.457 112.936 563.767 111.639 Q562.1 110.343 558.674 110.343 L551.753 110.343 M547.077 106.501 L559.022 106.501 Q564.369 106.501 567.262 108.723 Q570.156 110.945 570.156 115.042 Q570.156 118.214 568.674 120.089 Q567.193 121.963 564.322 122.426 Q567.771 123.167 569.67 125.528 Q571.591 127.866 571.591 131.385 Q571.591 136.014 568.443 138.537 Q565.295 141.061 559.484 141.061 L547.077 141.061 L547.077 106.501 Z" fill="#000000" fill-rule="nonzero" fill-opacity="1" /><path clip-path="url(#clip970)" d="M579.415 115.135 L583.674 115.135 L583.674 141.061 L579.415 141.061 L579.415 115.135 M579.415 105.042 L583.674 105.042 L583.674 110.436 L579.415 110.436 L579.415 105.042 Z" fill="#000000" fill-rule="nonzero" fill-opacity="1" /><path clip-path="url(#clip970)" d="M609.114 115.899 L609.114 119.926 Q607.308 119.001 605.364 118.538 Q603.419 118.075 601.336 118.075 Q598.165 118.075 596.568 119.047 Q594.994 120.019 594.994 121.963 Q594.994 123.445 596.128 124.301 Q597.262 125.135 600.688 125.899 L602.146 126.223 Q606.683 127.195 608.581 128.977 Q610.503 130.737 610.503 133.908 Q610.503 137.519 607.632 139.625 Q604.785 141.732 599.785 141.732 Q597.702 141.732 595.433 141.315 Q593.188 140.922 590.688 140.112 L590.688 135.713 Q593.049 136.94 595.341 137.565 Q597.632 138.167 599.878 138.167 Q602.887 138.167 604.507 137.149 Q606.128 136.107 606.128 134.232 Q606.128 132.496 604.947 131.57 Q603.79 130.644 599.831 129.788 L598.35 129.44 Q594.392 128.607 592.632 126.894 Q590.873 125.158 590.873 122.149 Q590.873 118.491 593.466 116.501 Q596.058 114.51 600.827 114.51 Q603.188 114.51 605.271 114.857 Q607.355 115.204 609.114 115.899 Z" fill="#000000" fill-rule="nonzero" fill-opacity="1" /><path clip-path="url(#clip970)" d="M621.498 107.774 L621.498 115.135 L630.271 115.135 L630.271 118.445 L621.498 118.445 L621.498 132.519 Q621.498 135.69 622.355 136.593 Q623.234 137.496 625.896 137.496 L630.271 137.496 L630.271 141.061 L625.896 141.061 Q620.966 141.061 619.091 139.232 Q617.216 137.38 617.216 132.519 L617.216 118.445 L614.091 118.445 L614.091 115.135 L617.216 115.135 L617.216 107.774 L621.498 107.774 Z" fill="#000000" fill-rule="nonzero" fill-opacity="1" /><path clip-path="url(#clip970)" d="M645.919 118.121 Q642.493 118.121 640.503 120.806 Q638.512 123.468 638.512 128.121 Q638.512 132.774 640.479 135.459 Q642.47 138.121 645.919 138.121 Q649.322 138.121 651.313 135.436 Q653.303 132.75 653.303 128.121 Q653.303 123.514 651.313 120.829 Q649.322 118.121 645.919 118.121 M645.919 114.51 Q651.475 114.51 654.646 118.121 Q657.817 121.732 657.817 128.121 Q657.817 134.487 654.646 138.121 Q651.475 141.732 645.919 141.732 Q640.341 141.732 637.169 138.121 Q634.021 134.487 634.021 128.121 Q634.021 121.732 637.169 118.121 Q640.341 114.51 645.919 114.51 Z" fill="#000000" fill-rule="nonzero" fill-opacity="1" /><path clip-path="url(#clip970)" d="M683.535 116.13 L683.535 120.112 Q681.729 119.116 679.901 118.63 Q678.095 118.121 676.243 118.121 Q672.1 118.121 669.808 120.76 Q667.516 123.376 667.516 128.121 Q667.516 132.866 669.808 135.505 Q672.1 138.121 676.243 138.121 Q678.095 138.121 679.901 137.635 Q681.729 137.125 683.535 136.13 L683.535 140.065 Q681.752 140.899 679.831 141.315 Q677.933 141.732 675.78 141.732 Q669.924 141.732 666.475 138.051 Q663.026 134.371 663.026 128.121 Q663.026 121.778 666.498 118.144 Q669.993 114.51 676.058 114.51 Q678.026 114.51 679.901 114.927 Q681.775 115.32 683.535 116.13 Z" fill="#000000" fill-rule="nonzero" fill-opacity="1" /><path clip-path="url(#clip970)" d="M712.493 125.413 L712.493 141.061 L708.234 141.061 L708.234 125.551 Q708.234 121.871 706.799 120.042 Q705.363 118.214 702.493 118.214 Q699.044 118.214 697.053 120.413 Q695.062 122.612 695.062 126.408 L695.062 141.061 L690.78 141.061 L690.78 105.042 L695.062 105.042 L695.062 119.163 Q696.59 116.825 698.65 115.667 Q700.734 114.51 703.442 114.51 Q707.91 114.51 710.201 117.288 Q712.493 120.042 712.493 125.413 Z" fill="#000000" fill-rule="nonzero" fill-opacity="1" /><path clip-path="url(#clip970)" d="M732.771 128.028 Q727.609 128.028 725.618 129.209 Q723.627 130.389 723.627 133.237 Q723.627 135.505 725.109 136.848 Q726.613 138.167 729.183 138.167 Q732.724 138.167 734.854 135.667 Q737.007 133.144 737.007 128.977 L737.007 128.028 L732.771 128.028 M741.266 126.269 L741.266 141.061 L737.007 141.061 L737.007 137.125 Q735.548 139.487 733.372 140.621 Q731.197 141.732 728.048 141.732 Q724.067 141.732 721.706 139.51 Q719.368 137.264 719.368 133.514 Q719.368 129.139 722.285 126.917 Q725.224 124.695 731.034 124.695 L737.007 124.695 L737.007 124.278 Q737.007 121.339 735.062 119.741 Q733.141 118.121 729.646 118.121 Q727.423 118.121 725.317 118.653 Q723.21 119.186 721.266 120.251 L721.266 116.315 Q723.604 115.413 725.803 114.973 Q728.002 114.51 730.085 114.51 Q735.71 114.51 738.488 117.426 Q741.266 120.343 741.266 126.269 Z" fill="#000000" fill-rule="nonzero" fill-opacity="1" /><path clip-path="url(#clip970)" d="M766.567 115.899 L766.567 119.926 Q764.761 119.001 762.817 118.538 Q760.872 118.075 758.789 118.075 Q755.618 118.075 754.02 119.047 Q752.446 120.019 752.446 121.963 Q752.446 123.445 753.581 124.301 Q754.715 125.135 758.141 125.899 L759.599 126.223 Q764.136 127.195 766.034 128.977 Q767.956 130.737 767.956 133.908 Q767.956 137.519 765.085 139.625 Q762.238 141.732 757.238 141.732 Q755.155 141.732 752.886 141.315 Q750.641 140.922 748.141 140.112 L748.141 135.713 Q750.502 136.94 752.794 137.565 Q755.085 138.167 757.331 138.167 Q760.34 138.167 761.96 137.149 Q763.581 136.107 763.581 134.232 Q763.581 132.496 762.4 131.57 Q761.243 130.644 757.284 129.788 L755.803 129.44 Q751.845 128.607 750.085 126.894 Q748.326 125.158 748.326 122.149 Q748.326 118.491 750.919 116.501 Q753.511 114.51 758.28 114.51 Q760.641 114.51 762.724 114.857 Q764.807 115.204 766.567 115.899 Z" fill="#000000" fill-rule="nonzero" fill-opacity="1" /><path clip-path="url(#clip970)" d="M778.951 107.774 L778.951 115.135 L787.724 115.135 L787.724 118.445 L778.951 118.445 L778.951 132.519 Q778.951 135.69 779.807 136.593 Q780.687 137.496 783.349 137.496 L787.724 137.496 L787.724 141.061 L783.349 141.061 Q778.418 141.061 776.544 139.232 Q774.669 137.38 774.669 132.519 L774.669 118.445 L771.544 118.445 L771.544 115.135 L774.669 115.135 L774.669 107.774 L778.951 107.774 Z" fill="#000000" fill-rule="nonzero" fill-opacity="1" /><path clip-path="url(#clip970)" d="M793.326 115.135 L797.585 115.135 L797.585 141.061 L793.326 141.061 L793.326 115.135 M793.326 105.042 L797.585 105.042 L797.585 110.436 L793.326 110.436 L793.326 105.042 Z" fill="#000000" fill-rule="nonzero" fill-opacity="1" /><path clip-path="url(#clip970)" d="M825.154 116.13 L825.154 120.112 Q823.349 119.116 821.52 118.63 Q819.715 118.121 817.863 118.121 Q813.719 118.121 811.428 120.76 Q809.136 123.376 809.136 128.121 Q809.136 132.866 811.428 135.505 Q813.719 138.121 817.863 138.121 Q819.715 138.121 821.52 137.635 Q823.349 137.125 825.154 136.13 L825.154 140.065 Q823.372 140.899 821.451 141.315 Q819.553 141.732 817.4 141.732 Q811.543 141.732 808.094 138.051 Q804.645 134.371 804.645 128.121 Q804.645 121.778 808.117 118.144 Q811.613 114.51 817.678 114.51 Q819.645 114.51 821.52 114.927 Q823.395 115.32 825.154 116.13 Z" fill="#000000" fill-rule="nonzero" fill-opacity="1" /><path clip-path="url(#clip970)" d="M847.816 106.501 L852.492 106.501 L852.492 137.125 L869.321 137.125 L869.321 141.061 L847.816 141.061 L847.816 106.501 Z" fill="#000000" fill-rule="nonzero" fill-opacity="1" /><path clip-path="url(#clip970)" d="M878.673 137.125 L894.992 137.125 L894.992 141.061 L873.048 141.061 L873.048 137.125 Q875.71 134.371 880.293 129.741 Q884.899 125.088 886.08 123.746 Q888.325 121.223 889.205 119.487 Q890.108 117.727 890.108 116.038 Q890.108 113.283 888.163 111.547 Q886.242 109.811 883.14 109.811 Q880.941 109.811 878.487 110.575 Q876.057 111.339 873.279 112.889 L873.279 108.167 Q876.103 107.033 878.557 106.454 Q881.011 105.876 883.048 105.876 Q888.418 105.876 891.612 108.561 Q894.807 111.246 894.807 115.737 Q894.807 117.866 893.997 119.788 Q893.21 121.686 891.103 124.278 Q890.524 124.95 887.423 128.167 Q884.321 131.362 878.673 137.125 Z" fill="#000000" fill-rule="nonzero" fill-opacity="1" /><path clip-path="url(#clip970)" d="M490.834 196.357 L539.042 196.357 L539.042 154.885 L490.834 154.885 L490.834 196.357  Z" fill="#e31a1c" fill-rule="evenodd" fill-opacity="0.5"/>
<polyline clip-path="url(#clip970)" style="stroke:#e31a1c; stroke-linecap:round; stroke-linejoin:round; stroke-width:4; stroke-opacity:0.5; fill:none" points="490.834,154.885 539.042,154.885 "/>
<path clip-path="url(#clip970)" d="M551.753 176.396 L551.753 189.058 L559.253 189.058 Q563.026 189.058 564.832 187.507 Q566.66 185.933 566.66 182.715 Q566.66 179.475 564.832 177.947 Q563.026 176.396 559.253 176.396 L551.753 176.396 M551.753 162.183 L551.753 172.6 L558.674 172.6 Q562.1 172.6 563.767 171.327 Q565.457 170.03 565.457 167.391 Q565.457 164.776 563.767 163.479 Q562.1 162.183 558.674 162.183 L551.753 162.183 M547.077 158.341 L559.022 158.341 Q564.369 158.341 567.262 160.563 Q570.156 162.785 570.156 166.882 Q570.156 170.054 568.674 171.929 Q567.193 173.803 564.322 174.266 Q567.771 175.007 569.67 177.368 Q571.591 179.706 571.591 183.225 Q571.591 187.854 568.443 190.377 Q565.295 192.901 559.484 192.901 L547.077 192.901 L547.077 158.341 Z" fill="#000000" fill-rule="nonzero" fill-opacity="1" /><path clip-path="url(#clip970)" d="M579.415 166.975 L583.674 166.975 L583.674 192.901 L579.415 192.901 L579.415 166.975 M579.415 156.882 L583.674 156.882 L583.674 162.276 L579.415 162.276 L579.415 156.882 Z" fill="#000000" fill-rule="nonzero" fill-opacity="1" /><path clip-path="url(#clip970)" d="M609.114 167.739 L609.114 171.766 Q607.308 170.841 605.364 170.378 Q603.419 169.915 601.336 169.915 Q598.165 169.915 596.568 170.887 Q594.994 171.859 594.994 173.803 Q594.994 175.285 596.128 176.141 Q597.262 176.975 600.688 177.739 L602.146 178.063 Q606.683 179.035 608.581 180.817 Q610.503 182.577 610.503 185.748 Q610.503 189.359 607.632 191.465 Q604.785 193.572 599.785 193.572 Q597.702 193.572 595.433 193.155 Q593.188 192.762 590.688 191.952 L590.688 187.553 Q593.049 188.78 595.341 189.405 Q597.632 190.007 599.878 190.007 Q602.887 190.007 604.507 188.989 Q606.128 187.947 606.128 186.072 Q606.128 184.336 604.947 183.41 Q603.79 182.484 599.831 181.628 L598.35 181.28 Q594.392 180.447 592.632 178.734 Q590.873 176.998 590.873 173.989 Q590.873 170.331 593.466 168.341 Q596.058 166.35 600.827 166.35 Q603.188 166.35 605.271 166.697 Q607.355 167.044 609.114 167.739 Z" fill="#000000" fill-rule="nonzero" fill-opacity="1" /><path clip-path="url(#clip970)" d="M621.498 159.614 L621.498 166.975 L630.271 166.975 L630.271 170.285 L621.498 170.285 L621.498 184.359 Q621.498 187.53 622.355 188.433 Q623.234 189.336 625.896 189.336 L630.271 189.336 L630.271 192.901 L625.896 192.901 Q620.966 192.901 619.091 191.072 Q617.216 189.22 617.216 184.359 L617.216 170.285 L614.091 170.285 L614.091 166.975 L617.216 166.975 L617.216 159.614 L621.498 159.614 Z" fill="#000000" fill-rule="nonzero" fill-opacity="1" /><path clip-path="url(#clip970)" d="M645.919 169.961 Q642.493 169.961 640.503 172.646 Q638.512 175.308 638.512 179.961 Q638.512 184.614 640.479 187.299 Q642.47 189.961 645.919 189.961 Q649.322 189.961 651.313 187.276 Q653.303 184.59 653.303 179.961 Q653.303 175.354 651.313 172.669 Q649.322 169.961 645.919 169.961 M645.919 166.35 Q651.475 166.35 654.646 169.961 Q657.817 173.572 657.817 179.961 Q657.817 186.327 654.646 189.961 Q651.475 193.572 645.919 193.572 Q640.341 193.572 637.169 189.961 Q634.021 186.327 634.021 179.961 Q634.021 173.572 637.169 169.961 Q640.341 166.35 645.919 166.35 Z" fill="#000000" fill-rule="nonzero" fill-opacity="1" /><path clip-path="url(#clip970)" d="M683.535 167.97 L683.535 171.952 Q681.729 170.956 679.901 170.47 Q678.095 169.961 676.243 169.961 Q672.1 169.961 669.808 172.6 Q667.516 175.216 667.516 179.961 Q667.516 184.706 669.808 187.345 Q672.1 189.961 676.243 189.961 Q678.095 189.961 679.901 189.475 Q681.729 188.965 683.535 187.97 L683.535 191.905 Q681.752 192.739 679.831 193.155 Q677.933 193.572 675.78 193.572 Q669.924 193.572 666.475 189.891 Q663.026 186.211 663.026 179.961 Q663.026 173.618 666.498 169.984 Q669.993 166.35 676.058 166.35 Q678.026 166.35 679.901 166.767 Q681.775 167.16 683.535 167.97 Z" fill="#000000" fill-rule="nonzero" fill-opacity="1" /><path clip-path="url(#clip970)" d="M712.493 177.253 L712.493 192.901 L708.234 192.901 L708.234 177.391 Q708.234 173.711 706.799 171.882 Q705.363 170.054 702.493 170.054 Q699.044 170.054 697.053 172.253 Q695.062 174.452 695.062 178.248 L695.062 192.901 L690.78 192.901 L690.78 156.882 L695.062 156.882 L695.062 171.003 Q696.59 168.665 698.65 167.507 Q700.734 166.35 703.442 166.35 Q707.91 166.35 710.201 169.128 Q712.493 171.882 712.493 177.253 Z" fill="#000000" fill-rule="nonzero" fill-opacity="1" /><path clip-path="url(#clip970)" d="M732.771 179.868 Q727.609 179.868 725.618 181.049 Q723.627 182.229 723.627 185.077 Q723.627 187.345 725.109 188.688 Q726.613 190.007 729.183 190.007 Q732.724 190.007 734.854 187.507 Q737.007 184.984 737.007 180.817 L737.007 179.868 L732.771 179.868 M741.266 178.109 L741.266 192.901 L737.007 192.901 L737.007 188.965 Q735.548 191.327 733.372 192.461 Q731.197 193.572 728.048 193.572 Q724.067 193.572 721.706 191.35 Q719.368 189.104 719.368 185.354 Q719.368 180.979 722.285 178.757 Q725.224 176.535 731.034 176.535 L737.007 176.535 L737.007 176.118 Q737.007 173.179 735.062 171.581 Q733.141 169.961 729.646 169.961 Q727.423 169.961 725.317 170.493 Q723.21 171.026 721.266 172.091 L721.266 168.155 Q723.604 167.253 725.803 166.813 Q728.002 166.35 730.085 166.35 Q735.71 166.35 738.488 169.266 Q741.266 172.183 741.266 178.109 Z" fill="#000000" fill-rule="nonzero" fill-opacity="1" /><path clip-path="url(#clip970)" d="M766.567 167.739 L766.567 171.766 Q764.761 170.841 762.817 170.378 Q760.872 169.915 758.789 169.915 Q755.618 169.915 754.02 170.887 Q752.446 171.859 752.446 173.803 Q752.446 175.285 753.581 176.141 Q754.715 176.975 758.141 177.739 L759.599 178.063 Q764.136 179.035 766.034 180.817 Q767.956 182.577 767.956 185.748 Q767.956 189.359 765.085 191.465 Q762.238 193.572 757.238 193.572 Q755.155 193.572 752.886 193.155 Q750.641 192.762 748.141 191.952 L748.141 187.553 Q750.502 188.78 752.794 189.405 Q755.085 190.007 757.331 190.007 Q760.34 190.007 761.96 188.989 Q763.581 187.947 763.581 186.072 Q763.581 184.336 762.4 183.41 Q761.243 182.484 757.284 181.628 L755.803 181.28 Q751.845 180.447 750.085 178.734 Q748.326 176.998 748.326 173.989 Q748.326 170.331 750.919 168.341 Q753.511 166.35 758.28 166.35 Q760.641 166.35 762.724 166.697 Q764.807 167.044 766.567 167.739 Z" fill="#000000" fill-rule="nonzero" fill-opacity="1" /><path clip-path="url(#clip970)" d="M778.951 159.614 L778.951 166.975 L787.724 166.975 L787.724 170.285 L778.951 170.285 L778.951 184.359 Q778.951 187.53 779.807 188.433 Q780.687 189.336 783.349 189.336 L787.724 189.336 L787.724 192.901 L783.349 192.901 Q778.418 192.901 776.544 191.072 Q774.669 189.22 774.669 184.359 L774.669 170.285 L771.544 170.285 L771.544 166.975 L774.669 166.975 L774.669 159.614 L778.951 159.614 Z" fill="#000000" fill-rule="nonzero" fill-opacity="1" /><path clip-path="url(#clip970)" d="M793.326 166.975 L797.585 166.975 L797.585 192.901 L793.326 192.901 L793.326 166.975 M793.326 156.882 L797.585 156.882 L797.585 162.276 L793.326 162.276 L793.326 156.882 Z" fill="#000000" fill-rule="nonzero" fill-opacity="1" /><path clip-path="url(#clip970)" d="M825.154 167.97 L825.154 171.952 Q823.349 170.956 821.52 170.47 Q819.715 169.961 817.863 169.961 Q813.719 169.961 811.428 172.6 Q809.136 175.216 809.136 179.961 Q809.136 184.706 811.428 187.345 Q813.719 189.961 817.863 189.961 Q819.715 189.961 821.52 189.475 Q823.349 188.965 825.154 187.97 L825.154 191.905 Q823.372 192.739 821.451 193.155 Q819.553 193.572 817.4 193.572 Q811.543 193.572 808.094 189.891 Q804.645 186.211 804.645 179.961 Q804.645 173.618 808.117 169.984 Q811.613 166.35 817.678 166.35 Q819.645 166.35 821.52 166.767 Q823.395 167.16 825.154 167.97 Z" fill="#000000" fill-rule="nonzero" fill-opacity="1" /><path clip-path="url(#clip970)" d="M847.816 158.341 L869.668 158.341 L869.668 162.276 L852.492 162.276 L852.492 172.507 L868.95 172.507 L868.95 176.442 L852.492 176.442 L852.492 188.965 L870.085 188.965 L870.085 192.901 L847.816 192.901 L847.816 158.341 Z" fill="#000000" fill-rule="nonzero" fill-opacity="1" /><path clip-path="url(#clip970)" d="M899.135 177.253 L899.135 192.901 L894.876 192.901 L894.876 177.391 Q894.876 173.711 893.441 171.882 Q892.006 170.054 889.135 170.054 Q885.686 170.054 883.696 172.253 Q881.705 174.452 881.705 178.248 L881.705 192.901 L877.423 192.901 L877.423 166.975 L881.705 166.975 L881.705 171.003 Q883.233 168.665 885.293 167.507 Q887.376 166.35 890.085 166.35 Q894.552 166.35 896.844 169.128 Q899.135 171.882 899.135 177.253 Z" fill="#000000" fill-rule="nonzero" fill-opacity="1" /><path clip-path="url(#clip970)" d="M911.844 159.614 L911.844 166.975 L920.617 166.975 L920.617 170.285 L911.844 170.285 L911.844 184.359 Q911.844 187.53 912.7 188.433 Q913.58 189.336 916.242 189.336 L920.617 189.336 L920.617 192.901 L916.242 192.901 Q911.311 192.901 909.436 191.072 Q907.561 189.22 907.561 184.359 L907.561 170.285 L904.436 170.285 L904.436 166.975 L907.561 166.975 L907.561 159.614 L911.844 159.614 Z" fill="#000000" fill-rule="nonzero" fill-opacity="1" /></svg>
