<?xml version="1.0" encoding="utf-8"?>
<svg xmlns="http://www.w3.org/2000/svg" xmlns:xlink="http://www.w3.org/1999/xlink" width="250" height="250" viewBox="0 0 1000 1000">
<defs>
  <clipPath id="clip580">
    <rect x="0" y="0" width="1000" height="1000"/>
  </clipPath>
</defs>
<path clip-path="url(#clip580)" d="M0 1000 L1000 1000 L1000 0 L0 0  Z" fill="#ffffff" fill-rule="evenodd" fill-opacity="1"/>
<defs>
  <clipPath id="clip581">
    <rect x="200" y="100" width="701" height="701"/>
  </clipPath>
</defs>
<path clip-path="url(#clip580)" d="M229.626 788.14 L952.756 788.14 L952.756 47.2441 L229.626 47.2441  Z" fill="#ffffff" fill-rule="evenodd" fill-opacity="1"/>
<defs>
  <clipPath id="clip582">
    <rect x="229" y="47" width="724" height="742"/>
  </clipPath>
</defs>
<polyline clip-path="url(#clip582)" style="stroke:#000000; stroke-linecap:round; stroke-linejoin:round; stroke-width:2; stroke-opacity:0.1; fill:none" points="250.092,788.14 250.092,47.2441 "/>
<polyline clip-path="url(#clip582)" style="stroke:#000000; stroke-linecap:round; stroke-linejoin:round; stroke-width:2; stroke-opacity:0.1; fill:none" points="380.357,788.14 380.357,47.2441 "/>
<polyline clip-path="url(#clip582)" style="stroke:#000000; stroke-linecap:round; stroke-linejoin:round; stroke-width:2; stroke-opacity:0.1; fill:none" points="510.621,788.14 510.621,47.2441 "/>
<polyline clip-path="url(#clip582)" style="stroke:#000000; stroke-linecap:round; stroke-linejoin:round; stroke-width:2; stroke-opacity:0.1; fill:none" points="640.886,788.14 640.886,47.2441 "/>
<polyline clip-path="url(#clip582)" style="stroke:#000000; stroke-linecap:round; stroke-linejoin:round; stroke-width:2; stroke-opacity:0.1; fill:none" points="771.151,788.14 771.151,47.2441 "/>
<polyline clip-path="url(#clip582)" style="stroke:#000000; stroke-linecap:round; stroke-linejoin:round; stroke-width:2; stroke-opacity:0.1; fill:none" points="901.415,788.14 901.415,47.2441 "/>
<polyline clip-path="url(#clip582)" style="stroke:#000000; stroke-linecap:round; stroke-linejoin:round; stroke-width:2; stroke-opacity:0.1; fill:none" points="229.626,767.171 952.756,767.171 "/>
<polyline clip-path="url(#clip582)" style="stroke:#000000; stroke-linecap:round; stroke-linejoin:round; stroke-width:2; stroke-opacity:0.1; fill:none" points="229.626,651.322 952.756,651.322 "/>
<polyline clip-path="url(#clip582)" style="stroke:#000000; stroke-linecap:round; stroke-linejoin:round; stroke-width:2; stroke-opacity:0.1; fill:none" points="229.626,535.472 952.756,535.472 "/>
<polyline clip-path="url(#clip582)" style="stroke:#000000; stroke-linecap:round; stroke-linejoin:round; stroke-width:2; stroke-opacity:0.1; fill:none" points="229.626,419.623 952.756,419.623 "/>
<polyline clip-path="url(#clip582)" style="stroke:#000000; stroke-linecap:round; stroke-linejoin:round; stroke-width:2; stroke-opacity:0.1; fill:none" points="229.626,303.773 952.756,303.773 "/>
<polyline clip-path="url(#clip582)" style="stroke:#000000; stroke-linecap:round; stroke-linejoin:round; stroke-width:2; stroke-opacity:0.1; fill:none" points="229.626,187.924 952.756,187.924 "/>
<polyline clip-path="url(#clip582)" style="stroke:#000000; stroke-linecap:round; stroke-linejoin:round; stroke-width:2; stroke-opacity:0.1; fill:none" points="229.626,72.0745 952.756,72.0745 "/>
<polyline clip-path="url(#clip580)" style="stroke:#000000; stroke-linecap:round; stroke-linejoin:round; stroke-width:4; stroke-opacity:1; fill:none" points="229.626,788.14 952.756,788.14 "/>
<polyline clip-path="url(#clip580)" style="stroke:#000000; stroke-linecap:round; stroke-linejoin:round; stroke-width:4; stroke-opacity:1; fill:none" points="250.092,788.14 250.092,769.242 "/>
<polyline clip-path="url(#clip580)" style="stroke:#000000; stroke-linecap:round; stroke-linejoin:round; stroke-width:4; stroke-opacity:1; fill:none" points="380.357,788.14 380.357,769.242 "/>
<polyline clip-path="url(#clip580)" style="stroke:#000000; stroke-linecap:round; stroke-linejoin:round; stroke-width:4; stroke-opacity:1; fill:none" points="510.621,788.14 510.621,769.242 "/>
<polyline clip-path="url(#clip580)" style="stroke:#000000; stroke-linecap:round; stroke-linejoin:round; stroke-width:4; stroke-opacity:1; fill:none" points="640.886,788.14 640.886,769.242 "/>
<polyline clip-path="url(#clip580)" style="stroke:#000000; stroke-linecap:round; stroke-linejoin:round; stroke-width:4; stroke-opacity:1; fill:none" points="771.151,788.14 771.151,769.242 "/>
<polyline clip-path="url(#clip580)" style="stroke:#000000; stroke-linecap:round; stroke-linejoin:round; stroke-width:4; stroke-opacity:1; fill:none" points="901.415,788.14 901.415,769.242 "/>
<path clip-path="url(#clip580)" d="M250.092 807.859 Q246.481 807.859 244.652 811.423 Q242.847 814.965 242.847 822.095 Q242.847 829.201 244.652 832.766 Q246.481 836.307 250.092 836.307 Q253.726 836.307 255.532 832.766 Q257.361 829.201 257.361 822.095 Q257.361 814.965 255.532 811.423 Q253.726 807.859 250.092 807.859 M250.092 804.155 Q255.902 804.155 258.958 808.761 Q262.037 813.345 262.037 822.095 Q262.037 830.821 258.958 835.428 Q255.902 840.011 250.092 840.011 Q244.282 840.011 241.203 835.428 Q238.148 830.821 238.148 822.095 Q238.148 813.345 241.203 808.761 Q244.282 804.155 250.092 804.155 Z" fill="#000000" fill-rule="nonzero" fill-opacity="1" /><path clip-path="url(#clip580)" d="M339.964 835.405 L347.602 835.405 L347.602 809.039 L339.292 810.706 L339.292 806.447 L347.556 804.78 L352.232 804.78 L352.232 835.405 L359.871 835.405 L359.871 839.34 L339.964 839.34 L339.964 835.405 Z" fill="#000000" fill-rule="nonzero" fill-opacity="1" /><path clip-path="url(#clip580)" d="M379.315 807.859 Q375.704 807.859 373.875 811.423 Q372.07 814.965 372.07 822.095 Q372.07 829.201 373.875 832.766 Q375.704 836.307 379.315 836.307 Q382.949 836.307 384.755 832.766 Q386.584 829.201 386.584 822.095 Q386.584 814.965 384.755 811.423 Q382.949 807.859 379.315 807.859 M379.315 804.155 Q385.125 804.155 388.181 808.761 Q391.26 813.345 391.26 822.095 Q391.26 830.821 388.181 835.428 Q385.125 840.011 379.315 840.011 Q373.505 840.011 370.426 835.428 Q367.371 830.821 367.371 822.095 Q367.371 813.345 370.426 808.761 Q373.505 804.155 379.315 804.155 Z" fill="#000000" fill-rule="nonzero" fill-opacity="1" /><path clip-path="url(#clip580)" d="M409.477 807.859 Q405.866 807.859 404.037 811.423 Q402.232 814.965 402.232 822.095 Q402.232 829.201 404.037 832.766 Q405.866 836.307 409.477 836.307 Q413.111 836.307 414.917 832.766 Q416.746 829.201 416.746 822.095 Q416.746 814.965 414.917 811.423 Q413.111 807.859 409.477 807.859 M409.477 804.155 Q415.287 804.155 418.343 808.761 Q421.421 813.345 421.421 822.095 Q421.421 830.821 418.343 835.428 Q415.287 840.011 409.477 840.011 Q403.667 840.011 400.588 835.428 Q397.533 830.821 397.533 822.095 Q397.533 813.345 400.588 808.761 Q403.667 804.155 409.477 804.155 Z" fill="#000000" fill-rule="nonzero" fill-opacity="1" /><path clip-path="url(#clip580)" d="M474.314 835.405 L490.633 835.405 L490.633 839.34 L468.689 839.34 L468.689 835.405 Q471.351 832.65 475.934 828.02 Q480.541 823.368 481.721 822.025 Q483.966 819.502 484.846 817.766 Q485.749 816.007 485.749 814.317 Q485.749 811.562 483.804 809.826 Q481.883 808.09 478.781 808.09 Q476.582 808.09 474.129 808.854 Q471.698 809.618 468.92 811.169 L468.92 806.447 Q471.744 805.312 474.198 804.734 Q476.652 804.155 478.689 804.155 Q484.059 804.155 487.253 806.84 Q490.448 809.525 490.448 814.016 Q490.448 816.146 489.638 818.067 Q488.851 819.965 486.744 822.558 Q486.166 823.229 483.064 826.446 Q479.962 829.641 474.314 835.405 Z" fill="#000000" fill-rule="nonzero" fill-opacity="1" /><path clip-path="url(#clip580)" d="M510.448 807.859 Q506.837 807.859 505.008 811.423 Q503.202 814.965 503.202 822.095 Q503.202 829.201 505.008 832.766 Q506.837 836.307 510.448 836.307 Q514.082 836.307 515.888 832.766 Q517.716 829.201 517.716 822.095 Q517.716 814.965 515.888 811.423 Q514.082 807.859 510.448 807.859 M510.448 804.155 Q516.258 804.155 519.314 808.761 Q522.392 813.345 522.392 822.095 Q522.392 830.821 519.314 835.428 Q516.258 840.011 510.448 840.011 Q504.638 840.011 501.559 835.428 Q498.503 830.821 498.503 822.095 Q498.503 813.345 501.559 808.761 Q504.638 804.155 510.448 804.155 Z" fill="#000000" fill-rule="nonzero" fill-opacity="1" /><path clip-path="url(#clip580)" d="M540.61 807.859 Q536.999 807.859 535.17 811.423 Q533.364 814.965 533.364 822.095 Q533.364 829.201 535.17 832.766 Q536.999 836.307 540.61 836.307 Q544.244 836.307 546.049 832.766 Q547.878 829.201 547.878 822.095 Q547.878 814.965 546.049 811.423 Q544.244 807.859 540.61 807.859 M540.61 804.155 Q546.42 804.155 549.475 808.761 Q552.554 813.345 552.554 822.095 Q552.554 830.821 549.475 835.428 Q546.42 840.011 540.61 840.011 Q534.8 840.011 531.721 835.428 Q528.665 830.821 528.665 822.095 Q528.665 813.345 531.721 808.761 Q534.8 804.155 540.61 804.155 Z" fill="#000000" fill-rule="nonzero" fill-opacity="1" /><path clip-path="url(#clip580)" d="M614.648 820.706 Q618.004 821.423 619.879 823.692 Q621.777 825.96 621.777 829.294 Q621.777 834.409 618.259 837.21 Q614.74 840.011 608.259 840.011 Q606.083 840.011 603.768 839.571 Q601.477 839.155 599.023 838.298 L599.023 833.784 Q600.967 834.919 603.282 835.497 Q605.597 836.076 608.12 836.076 Q612.518 836.076 614.81 834.34 Q617.125 832.604 617.125 829.294 Q617.125 826.238 614.972 824.525 Q612.842 822.789 609.023 822.789 L604.995 822.789 L604.995 818.946 L609.208 818.946 Q612.657 818.946 614.486 817.581 Q616.314 816.192 616.314 813.599 Q616.314 810.937 614.416 809.525 Q612.541 808.09 609.023 808.09 Q607.102 808.09 604.902 808.507 Q602.703 808.923 600.065 809.803 L600.065 805.636 Q602.727 804.896 605.041 804.525 Q607.379 804.155 609.439 804.155 Q614.763 804.155 617.865 806.585 Q620.967 808.993 620.967 813.113 Q620.967 815.983 619.324 817.974 Q617.68 819.942 614.648 820.706 Z" fill="#000000" fill-rule="nonzero" fill-opacity="1" /><path clip-path="url(#clip580)" d="M640.643 807.859 Q637.032 807.859 635.203 811.423 Q633.398 814.965 633.398 822.095 Q633.398 829.201 635.203 832.766 Q637.032 836.307 640.643 836.307 Q644.277 836.307 646.083 832.766 Q647.911 829.201 647.911 822.095 Q647.911 814.965 646.083 811.423 Q644.277 807.859 640.643 807.859 M640.643 804.155 Q646.453 804.155 649.509 808.761 Q652.587 813.345 652.587 822.095 Q652.587 830.821 649.509 835.428 Q646.453 840.011 640.643 840.011 Q634.833 840.011 631.754 835.428 Q628.699 830.821 628.699 822.095 Q628.699 813.345 631.754 808.761 Q634.833 804.155 640.643 804.155 Z" fill="#000000" fill-rule="nonzero" fill-opacity="1" /><path clip-path="url(#clip580)" d="M670.805 807.859 Q667.194 807.859 665.365 811.423 Q663.56 814.965 663.56 822.095 Q663.56 829.201 665.365 832.766 Q667.194 836.307 670.805 836.307 Q674.439 836.307 676.245 832.766 Q678.073 829.201 678.073 822.095 Q678.073 814.965 676.245 811.423 Q674.439 807.859 670.805 807.859 M670.805 804.155 Q676.615 804.155 679.671 808.761 Q682.749 813.345 682.749 822.095 Q682.749 830.821 679.671 835.428 Q676.615 840.011 670.805 840.011 Q664.995 840.011 661.916 835.428 Q658.86 830.821 658.86 822.095 Q658.86 813.345 661.916 808.761 Q664.995 804.155 670.805 804.155 Z" fill="#000000" fill-rule="nonzero" fill-opacity="1" /><path clip-path="url(#clip580)" d="M744.241 808.854 L732.436 827.303 L744.241 827.303 L744.241 808.854 M743.014 804.78 L748.894 804.78 L748.894 827.303 L753.824 827.303 L753.824 831.192 L748.894 831.192 L748.894 839.34 L744.241 839.34 L744.241 831.192 L728.639 831.192 L728.639 826.678 L743.014 804.78 Z" fill="#000000" fill-rule="nonzero" fill-opacity="1" /><path clip-path="url(#clip580)" d="M771.556 807.859 Q767.945 807.859 766.116 811.423 Q764.31 814.965 764.31 822.095 Q764.31 829.201 766.116 832.766 Q767.945 836.307 771.556 836.307 Q775.19 836.307 776.996 832.766 Q778.824 829.201 778.824 822.095 Q778.824 814.965 776.996 811.423 Q775.19 807.859 771.556 807.859 M771.556 804.155 Q777.366 804.155 780.421 808.761 Q783.5 813.345 783.5 822.095 Q783.5 830.821 780.421 835.428 Q777.366 840.011 771.556 840.011 Q765.746 840.011 762.667 835.428 Q759.611 830.821 759.611 822.095 Q759.611 813.345 762.667 808.761 Q765.746 804.155 771.556 804.155 Z" fill="#000000" fill-rule="nonzero" fill-opacity="1" /><path clip-path="url(#clip580)" d="M801.718 807.859 Q798.107 807.859 796.278 811.423 Q794.472 814.965 794.472 822.095 Q794.472 829.201 796.278 832.766 Q798.107 836.307 801.718 836.307 Q805.352 836.307 807.157 832.766 Q808.986 829.201 808.986 822.095 Q808.986 814.965 807.157 811.423 Q805.352 807.859 801.718 807.859 M801.718 804.155 Q807.528 804.155 810.583 808.761 Q813.662 813.345 813.662 822.095 Q813.662 830.821 810.583 835.428 Q807.528 840.011 801.718 840.011 Q795.907 840.011 792.829 835.428 Q789.773 830.821 789.773 822.095 Q789.773 813.345 792.829 808.761 Q795.907 804.155 801.718 804.155 Z" fill="#000000" fill-rule="nonzero" fill-opacity="1" /><path clip-path="url(#clip580)" d="M861.034 804.78 L879.39 804.78 L879.39 808.715 L865.316 808.715 L865.316 817.187 Q866.334 816.84 867.353 816.678 Q868.371 816.493 869.39 816.493 Q875.177 816.493 878.557 819.664 Q881.936 822.835 881.936 828.252 Q881.936 833.831 878.464 836.932 Q874.992 840.011 868.672 840.011 Q866.496 840.011 864.228 839.641 Q861.983 839.27 859.575 838.53 L859.575 833.831 Q861.659 834.965 863.881 835.52 Q866.103 836.076 868.58 836.076 Q872.584 836.076 874.922 833.97 Q877.26 831.863 877.26 828.252 Q877.26 824.641 874.922 822.534 Q872.584 820.428 868.58 820.428 Q866.705 820.428 864.83 820.845 Q862.978 821.261 861.034 822.141 L861.034 804.78 Z" fill="#000000" fill-rule="nonzero" fill-opacity="1" /><path clip-path="url(#clip580)" d="M901.149 807.859 Q897.538 807.859 895.709 811.423 Q893.904 814.965 893.904 822.095 Q893.904 829.201 895.709 832.766 Q897.538 836.307 901.149 836.307 Q904.783 836.307 906.589 832.766 Q908.418 829.201 908.418 822.095 Q908.418 814.965 906.589 811.423 Q904.783 807.859 901.149 807.859 M901.149 804.155 Q906.959 804.155 910.015 808.761 Q913.093 813.345 913.093 822.095 Q913.093 830.821 910.015 835.428 Q906.959 840.011 901.149 840.011 Q895.339 840.011 892.26 835.428 Q889.205 830.821 889.205 822.095 Q889.205 813.345 892.26 808.761 Q895.339 804.155 901.149 804.155 Z" fill="#000000" fill-rule="nonzero" fill-opacity="1" /><path clip-path="url(#clip580)" d="M931.311 807.859 Q927.7 807.859 925.871 811.423 Q924.066 814.965 924.066 822.095 Q924.066 829.201 925.871 832.766 Q927.7 836.307 931.311 836.307 Q934.945 836.307 936.751 832.766 Q938.579 829.201 938.579 822.095 Q938.579 814.965 936.751 811.423 Q934.945 807.859 931.311 807.859 M931.311 804.155 Q937.121 804.155 940.177 808.761 Q943.255 813.345 943.255 822.095 Q943.255 830.821 940.177 835.428 Q937.121 840.011 931.311 840.011 Q925.501 840.011 922.422 835.428 Q919.367 830.821 919.367 822.095 Q919.367 813.345 922.422 808.761 Q925.501 804.155 931.311 804.155 Z" fill="#000000" fill-rule="nonzero" fill-opacity="1" /><path clip-path="url(#clip580)" d="M440.212 869.767 L440.212 887.623 L448.297 887.623 Q452.785 887.623 455.236 885.3 Q457.686 882.976 457.686 878.679 Q457.686 874.414 455.236 872.091 Q452.785 869.767 448.297 869.767 L440.212 869.767 M433.783 864.484 L448.297 864.484 Q456.286 864.484 460.36 868.112 Q464.466 871.709 464.466 878.679 Q464.466 885.713 460.36 889.31 Q456.286 892.907 448.297 892.907 L440.212 892.907 L440.212 912.004 L433.783 912.004 L433.783 864.484 Z" fill="#000000" fill-rule="nonzero" fill-opacity="1" /><path clip-path="url(#clip580)" d="M501.005 892.716 L501.005 895.58 L474.078 895.58 Q474.46 901.628 477.706 904.811 Q480.985 907.962 486.809 907.962 Q490.183 907.962 493.334 907.134 Q496.517 906.307 499.636 904.651 L499.636 910.19 Q496.485 911.526 493.175 912.227 Q489.865 912.927 486.459 912.927 Q477.929 912.927 472.932 907.962 Q467.967 902.996 467.967 894.53 Q467.967 885.777 472.678 880.653 Q477.42 875.497 485.441 875.497 Q492.634 875.497 496.804 880.143 Q501.005 884.759 501.005 892.716 M495.148 890.997 Q495.085 886.191 492.443 883.326 Q489.833 880.462 485.504 880.462 Q480.603 880.462 477.643 883.231 Q474.715 886 474.269 891.029 L495.148 890.997 Z" fill="#000000" fill-rule="nonzero" fill-opacity="1" /><path clip-path="url(#clip580)" d="M531.274 881.83 Q530.287 881.257 529.11 881.003 Q527.964 880.716 526.563 880.716 Q521.598 880.716 518.924 883.963 Q516.283 887.178 516.283 893.225 L516.283 912.004 L510.394 912.004 L510.394 876.356 L516.283 876.356 L516.283 881.894 Q518.129 878.648 521.089 877.088 Q524.049 875.497 528.282 875.497 Q528.887 875.497 529.619 875.592 Q530.351 875.656 531.242 875.815 L531.274 881.83 Z" fill="#000000" fill-rule="nonzero" fill-opacity="1" /><path clip-path="url(#clip580)" d="M543.082 906.657 L543.082 925.563 L537.194 925.563 L537.194 876.356 L543.082 876.356 L543.082 881.767 Q544.928 878.584 547.729 877.056 Q550.562 875.497 554.477 875.497 Q560.97 875.497 565.012 880.653 Q569.086 885.809 569.086 894.212 Q569.086 902.614 565.012 907.771 Q560.97 912.927 554.477 912.927 Q550.562 912.927 547.729 911.399 Q544.928 909.84 543.082 906.657 M563.007 894.212 Q563.007 887.751 560.333 884.09 Q557.692 880.398 553.045 880.398 Q548.398 880.398 545.724 884.09 Q543.082 887.751 543.082 894.212 Q543.082 900.673 545.724 904.365 Q548.398 908.025 553.045 908.025 Q557.692 908.025 560.333 904.365 Q563.007 900.673 563.007 894.212 Z" fill="#000000" fill-rule="nonzero" fill-opacity="1" /><path clip-path="url(#clip580)" d="M578.794 862.479 L584.65 862.479 L584.65 912.004 L578.794 912.004 L578.794 862.479 Z" fill="#000000" fill-rule="nonzero" fill-opacity="1" /><path clip-path="url(#clip580)" d="M627.396 892.716 L627.396 895.58 L600.469 895.58 Q600.851 901.628 604.098 904.811 Q607.376 907.962 613.201 907.962 Q616.574 907.962 619.725 907.134 Q622.908 906.307 626.027 904.651 L626.027 910.19 Q622.876 911.526 619.566 912.227 Q616.256 912.927 612.85 912.927 Q604.32 912.927 599.323 907.962 Q594.358 902.996 594.358 894.53 Q594.358 885.777 599.069 880.653 Q603.811 875.497 611.832 875.497 Q619.025 875.497 623.195 880.143 Q627.396 884.759 627.396 892.716 M621.54 890.997 Q621.476 886.191 618.834 883.326 Q616.224 880.462 611.896 880.462 Q606.994 880.462 604.034 883.231 Q601.106 886 600.66 891.029 L621.54 890.997 Z" fill="#000000" fill-rule="nonzero" fill-opacity="1" /><path clip-path="url(#clip580)" d="M665.495 876.356 L652.604 893.702 L666.163 912.004 L659.256 912.004 L648.88 897.999 L638.504 912.004 L631.597 912.004 L645.443 893.352 L632.775 876.356 L639.682 876.356 L649.135 889.055 L658.588 876.356 L665.495 876.356 Z" fill="#000000" fill-rule="nonzero" fill-opacity="1" /><path clip-path="url(#clip580)" d="M674.439 876.356 L680.295 876.356 L680.295 912.004 L674.439 912.004 L674.439 876.356 M674.439 862.479 L680.295 862.479 L680.295 869.895 L674.439 869.895 L674.439 862.479 Z" fill="#000000" fill-rule="nonzero" fill-opacity="1" /><path clip-path="url(#clip580)" d="M698.342 866.234 L698.342 876.356 L710.405 876.356 L710.405 880.907 L698.342 880.907 L698.342 900.259 Q698.342 904.62 699.519 905.861 Q700.729 907.102 704.389 907.102 L710.405 907.102 L710.405 912.004 L704.389 912.004 Q697.61 912.004 695.032 909.489 Q692.454 906.943 692.454 900.259 L692.454 880.907 L688.157 880.907 L688.157 876.356 L692.454 876.356 L692.454 866.234 L698.342 866.234 Z" fill="#000000" fill-rule="nonzero" fill-opacity="1" /><path clip-path="url(#clip580)" d="M732.939 915.314 Q730.457 921.68 728.102 923.621 Q725.746 925.563 721.799 925.563 L717.121 925.563 L717.121 920.661 L720.558 920.661 Q722.977 920.661 724.314 919.515 Q725.651 918.37 727.274 914.105 L728.324 911.431 L713.906 876.356 L720.113 876.356 L731.253 904.238 L742.393 876.356 L748.599 876.356 L732.939 915.314 Z" fill="#000000" fill-rule="nonzero" fill-opacity="1" /><polyline clip-path="url(#clip580)" style="stroke:#000000; stroke-linecap:round; stroke-linejoin:round; stroke-width:4; stroke-opacity:1; fill:none" points="229.626,788.14 229.626,47.2441 "/>
<polyline clip-path="url(#clip580)" style="stroke:#000000; stroke-linecap:round; stroke-linejoin:round; stroke-width:4; stroke-opacity:1; fill:none" points="229.626,767.171 248.524,767.171 "/>
<polyline clip-path="url(#clip580)" style="stroke:#000000; stroke-linecap:round; stroke-linejoin:round; stroke-width:4; stroke-opacity:1; fill:none" points="229.626,651.322 248.524,651.322 "/>
<polyline clip-path="url(#clip580)" style="stroke:#000000; stroke-linecap:round; stroke-linejoin:round; stroke-width:4; stroke-opacity:1; fill:none" points="229.626,535.472 248.524,535.472 "/>
<polyline clip-path="url(#clip580)" style="stroke:#000000; stroke-linecap:round; stroke-linejoin:round; stroke-width:4; stroke-opacity:1; fill:none" points="229.626,419.623 248.524,419.623 "/>
<polyline clip-path="url(#clip580)" style="stroke:#000000; stroke-linecap:round; stroke-linejoin:round; stroke-width:4; stroke-opacity:1; fill:none" points="229.626,303.773 248.524,303.773 "/>
<polyline clip-path="url(#clip580)" style="stroke:#000000; stroke-linecap:round; stroke-linejoin:round; stroke-width:4; stroke-opacity:1; fill:none" points="229.626,187.924 248.524,187.924 "/>
<polyline clip-path="url(#clip580)" style="stroke:#000000; stroke-linecap:round; stroke-linejoin:round; stroke-width:4; stroke-opacity:1; fill:none" points="229.626,72.0745 248.524,72.0745 "/>
<path clip-path="url(#clip580)" d="M157.451 752.97 Q153.84 752.97 152.011 756.535 Q150.205 760.076 150.205 767.206 Q150.205 774.312 152.011 777.877 Q153.84 781.419 157.451 781.419 Q161.085 781.419 162.89 777.877 Q164.719 774.312 164.719 767.206 Q164.719 760.076 162.89 756.535 Q161.085 752.97 157.451 752.97 M157.451 749.266 Q163.261 749.266 166.316 753.873 Q169.395 758.456 169.395 767.206 Q169.395 775.933 166.316 780.539 Q163.261 785.122 157.451 785.122 Q151.64 785.122 148.562 780.539 Q145.506 775.933 145.506 767.206 Q145.506 758.456 148.562 753.873 Q151.64 749.266 157.451 749.266 Z" fill="#000000" fill-rule="nonzero" fill-opacity="1" /><path clip-path="url(#clip580)" d="M177.613 778.571 L182.497 778.571 L182.497 784.451 L177.613 784.451 L177.613 778.571 Z" fill="#000000" fill-rule="nonzero" fill-opacity="1" /><path clip-path="url(#clip580)" d="M202.682 752.97 Q199.071 752.97 197.242 756.535 Q195.437 760.076 195.437 767.206 Q195.437 774.312 197.242 777.877 Q199.071 781.419 202.682 781.419 Q206.316 781.419 208.122 777.877 Q209.95 774.312 209.95 767.206 Q209.95 760.076 208.122 756.535 Q206.316 752.97 202.682 752.97 M202.682 749.266 Q208.492 749.266 211.548 753.873 Q214.626 758.456 214.626 767.206 Q214.626 775.933 211.548 780.539 Q208.492 785.122 202.682 785.122 Q196.872 785.122 193.793 780.539 Q190.738 775.933 190.738 767.206 Q190.738 758.456 193.793 753.873 Q196.872 749.266 202.682 749.266 Z" fill="#000000" fill-rule="nonzero" fill-opacity="1" /><path clip-path="url(#clip580)" d="M158.677 637.12 Q155.066 637.12 153.238 640.685 Q151.432 644.227 151.432 651.356 Q151.432 658.463 153.238 662.028 Q155.066 665.569 158.677 665.569 Q162.312 665.569 164.117 662.028 Q165.946 658.463 165.946 651.356 Q165.946 644.227 164.117 640.685 Q162.312 637.12 158.677 637.12 M158.677 633.417 Q164.488 633.417 167.543 638.023 Q170.622 642.606 170.622 651.356 Q170.622 660.083 167.543 664.69 Q164.488 669.273 158.677 669.273 Q152.867 669.273 149.789 664.69 Q146.733 660.083 146.733 651.356 Q146.733 642.606 149.789 638.023 Q152.867 633.417 158.677 633.417 Z" fill="#000000" fill-rule="nonzero" fill-opacity="1" /><path clip-path="url(#clip580)" d="M178.839 662.722 L183.724 662.722 L183.724 668.602 L178.839 668.602 L178.839 662.722 Z" fill="#000000" fill-rule="nonzero" fill-opacity="1" /><path clip-path="url(#clip580)" d="M194.719 664.666 L202.358 664.666 L202.358 638.301 L194.048 639.968 L194.048 635.708 L202.312 634.042 L206.987 634.042 L206.987 664.666 L214.626 664.666 L214.626 668.602 L194.719 668.602 L194.719 664.666 Z" fill="#000000" fill-rule="nonzero" fill-opacity="1" /><path clip-path="url(#clip580)" d="M159.048 521.271 Q155.437 521.271 153.608 524.836 Q151.803 528.377 151.803 535.507 Q151.803 542.613 153.608 546.178 Q155.437 549.72 159.048 549.72 Q162.682 549.72 164.488 546.178 Q166.316 542.613 166.316 535.507 Q166.316 528.377 164.488 524.836 Q162.682 521.271 159.048 521.271 M159.048 517.567 Q164.858 517.567 167.914 522.174 Q170.992 526.757 170.992 535.507 Q170.992 544.234 167.914 548.84 Q164.858 553.424 159.048 553.424 Q153.238 553.424 150.159 548.84 Q147.103 544.234 147.103 535.507 Q147.103 526.757 150.159 522.174 Q153.238 517.567 159.048 517.567 Z" fill="#000000" fill-rule="nonzero" fill-opacity="1" /><path clip-path="url(#clip580)" d="M179.21 546.873 L184.094 546.873 L184.094 552.752 L179.21 552.752 L179.21 546.873 Z" fill="#000000" fill-rule="nonzero" fill-opacity="1" /><path clip-path="url(#clip580)" d="M198.307 548.817 L214.626 548.817 L214.626 552.752 L192.682 552.752 L192.682 548.817 Q195.344 546.062 199.927 541.433 Q204.534 536.78 205.714 535.438 Q207.96 532.914 208.839 531.178 Q209.742 529.419 209.742 527.729 Q209.742 524.975 207.798 523.238 Q205.876 521.502 202.774 521.502 Q200.575 521.502 198.122 522.266 Q195.691 523.03 192.913 524.581 L192.913 519.859 Q195.737 518.725 198.191 518.146 Q200.645 517.567 202.682 517.567 Q208.052 517.567 211.247 520.252 Q214.441 522.938 214.441 527.428 Q214.441 529.558 213.631 531.479 Q212.844 533.377 210.737 535.97 Q210.159 536.641 207.057 539.859 Q203.955 543.053 198.307 548.817 Z" fill="#000000" fill-rule="nonzero" fill-opacity="1" /><path clip-path="url(#clip580)" d="M158.099 405.421 Q154.488 405.421 152.659 408.986 Q150.853 412.528 150.853 419.658 Q150.853 426.764 152.659 430.329 Q154.488 433.87 158.099 433.87 Q161.733 433.87 163.539 430.329 Q165.367 426.764 165.367 419.658 Q165.367 412.528 163.539 408.986 Q161.733 405.421 158.099 405.421 M158.099 401.718 Q163.909 401.718 166.964 406.324 Q170.043 410.908 170.043 419.658 Q170.043 428.384 166.964 432.991 Q163.909 437.574 158.099 437.574 Q152.289 437.574 149.21 432.991 Q146.154 428.384 146.154 419.658 Q146.154 410.908 149.21 406.324 Q152.289 401.718 158.099 401.718 Z" fill="#000000" fill-rule="nonzero" fill-opacity="1" /><path clip-path="url(#clip580)" d="M178.261 431.023 L183.145 431.023 L183.145 436.903 L178.261 436.903 L178.261 431.023 Z" fill="#000000" fill-rule="nonzero" fill-opacity="1" /><path clip-path="url(#clip580)" d="M207.497 418.269 Q210.853 418.986 212.728 421.255 Q214.626 423.523 214.626 426.857 Q214.626 431.972 211.108 434.773 Q207.589 437.574 201.108 437.574 Q198.932 437.574 196.617 437.134 Q194.325 436.718 191.872 435.861 L191.872 431.347 Q193.816 432.482 196.131 433.06 Q198.446 433.639 200.969 433.639 Q205.367 433.639 207.659 431.903 Q209.974 430.167 209.974 426.857 Q209.974 423.801 207.821 422.088 Q205.691 420.352 201.872 420.352 L197.844 420.352 L197.844 416.509 L202.057 416.509 Q205.506 416.509 207.335 415.144 Q209.163 413.755 209.163 411.162 Q209.163 408.5 207.265 407.088 Q205.39 405.653 201.872 405.653 Q199.95 405.653 197.751 406.07 Q195.552 406.486 192.913 407.366 L192.913 403.199 Q195.575 402.459 197.89 402.088 Q200.228 401.718 202.288 401.718 Q207.612 401.718 210.714 404.148 Q213.816 406.556 213.816 410.676 Q213.816 413.546 212.173 415.537 Q210.529 417.505 207.497 418.269 Z" fill="#000000" fill-rule="nonzero" fill-opacity="1" /><path clip-path="url(#clip580)" d="M156.965 289.572 Q153.353 289.572 151.525 293.137 Q149.719 296.678 149.719 303.808 Q149.719 310.915 151.525 314.479 Q153.353 318.021 156.965 318.021 Q160.599 318.021 162.404 314.479 Q164.233 310.915 164.233 303.808 Q164.233 296.678 162.404 293.137 Q160.599 289.572 156.965 289.572 M156.965 285.868 Q162.775 285.868 165.83 290.475 Q168.909 295.058 168.909 303.808 Q168.909 312.535 165.83 317.141 Q162.775 321.725 156.965 321.725 Q151.154 321.725 148.076 317.141 Q145.02 312.535 145.02 303.808 Q145.02 295.058 148.076 290.475 Q151.154 285.868 156.965 285.868 Z" fill="#000000" fill-rule="nonzero" fill-opacity="1" /><path clip-path="url(#clip580)" d="M177.126 315.174 L182.011 315.174 L182.011 321.053 L177.126 321.053 L177.126 315.174 Z" fill="#000000" fill-rule="nonzero" fill-opacity="1" /><path clip-path="url(#clip580)" d="M205.043 290.567 L193.237 309.016 L205.043 309.016 L205.043 290.567 M203.816 286.493 L209.696 286.493 L209.696 309.016 L214.626 309.016 L214.626 312.905 L209.696 312.905 L209.696 321.053 L205.043 321.053 L205.043 312.905 L189.441 312.905 L189.441 308.391 L203.816 286.493 Z" fill="#000000" fill-rule="nonzero" fill-opacity="1" /><path clip-path="url(#clip580)" d="M158.446 173.723 Q154.835 173.723 153.006 177.287 Q151.201 180.829 151.201 187.959 Q151.201 195.065 153.006 198.63 Q154.835 202.172 158.446 202.172 Q162.08 202.172 163.886 198.63 Q165.714 195.065 165.714 187.959 Q165.714 180.829 163.886 177.287 Q162.08 173.723 158.446 173.723 M158.446 170.019 Q164.256 170.019 167.312 174.625 Q170.39 179.209 170.39 187.959 Q170.39 196.685 167.312 201.292 Q164.256 205.875 158.446 205.875 Q152.636 205.875 149.557 201.292 Q146.502 196.685 146.502 187.959 Q146.502 179.209 149.557 174.625 Q152.636 170.019 158.446 170.019 Z" fill="#000000" fill-rule="nonzero" fill-opacity="1" /><path clip-path="url(#clip580)" d="M178.608 199.324 L183.492 199.324 L183.492 205.204 L178.608 205.204 L178.608 199.324 Z" fill="#000000" fill-rule="nonzero" fill-opacity="1" /><path clip-path="url(#clip580)" d="M193.724 170.644 L212.08 170.644 L212.08 174.579 L198.006 174.579 L198.006 183.051 Q199.024 182.704 200.043 182.542 Q201.062 182.357 202.08 182.357 Q207.867 182.357 211.247 185.528 Q214.626 188.699 214.626 194.116 Q214.626 199.695 211.154 202.797 Q207.682 205.875 201.362 205.875 Q199.187 205.875 196.918 205.505 Q194.673 205.134 192.265 204.394 L192.265 199.695 Q194.349 200.829 196.571 201.385 Q198.793 201.94 201.27 201.94 Q205.274 201.94 207.612 199.834 Q209.95 197.727 209.95 194.116 Q209.95 190.505 207.612 188.398 Q205.274 186.292 201.27 186.292 Q199.395 186.292 197.52 186.709 Q195.668 187.125 193.724 188.005 L193.724 170.644 Z" fill="#000000" fill-rule="nonzero" fill-opacity="1" /><path clip-path="url(#clip580)" d="M157.289 57.8732 Q153.678 57.8732 151.849 61.438 Q150.043 64.9796 150.043 72.1092 Q150.043 79.2157 151.849 82.7805 Q153.678 86.3221 157.289 86.3221 Q160.923 86.3221 162.728 82.7805 Q164.557 79.2157 164.557 72.1092 Q164.557 64.9796 162.728 61.438 Q160.923 57.8732 157.289 57.8732 M157.289 54.1695 Q163.099 54.1695 166.154 58.776 Q169.233 63.3593 169.233 72.1092 Q169.233 80.836 166.154 85.4425 Q163.099 90.0258 157.289 90.0258 Q151.478 90.0258 148.4 85.4425 Q145.344 80.836 145.344 72.1092 Q145.344 63.3593 148.4 58.776 Q151.478 54.1695 157.289 54.1695 Z" fill="#000000" fill-rule="nonzero" fill-opacity="1" /><path clip-path="url(#clip580)" d="M177.451 83.4749 L182.335 83.4749 L182.335 89.3545 L177.451 89.3545 L177.451 83.4749 Z" fill="#000000" fill-rule="nonzero" fill-opacity="1" /><path clip-path="url(#clip580)" d="M203.099 70.2111 Q199.95 70.2111 198.099 72.3638 Q196.27 74.5166 196.27 78.2666 Q196.27 81.9934 198.099 84.1693 Q199.95 86.3221 203.099 86.3221 Q206.247 86.3221 208.075 84.1693 Q209.927 81.9934 209.927 78.2666 Q209.927 74.5166 208.075 72.3638 Q206.247 70.2111 203.099 70.2111 M212.381 55.5584 L212.381 59.8176 Q210.622 58.9843 208.816 58.5445 Q207.034 58.1047 205.274 58.1047 Q200.645 58.1047 198.191 61.2296 Q195.761 64.3546 195.413 70.674 Q196.779 68.6602 198.839 67.5953 Q200.899 66.5074 203.376 66.5074 Q208.585 66.5074 211.594 69.6787 Q214.626 72.8268 214.626 78.2666 Q214.626 83.5906 211.478 86.8082 Q208.33 90.0258 203.099 90.0258 Q197.103 90.0258 193.932 85.4425 Q190.761 80.836 190.761 72.1092 Q190.761 63.9148 194.65 59.0537 Q198.538 54.1695 205.089 54.1695 Q206.849 54.1695 208.631 54.5167 Q210.436 54.8639 212.381 55.5584 Z" fill="#000000" fill-rule="nonzero" fill-opacity="1" /><path clip-path="url(#clip580)" d="M68.2442 581.895 L68.2442 554.586 L73.655 554.586 L73.655 575.466 L87.6596 575.466 L87.6596 556.624 L93.0704 556.624 L93.0704 575.466 L115.764 575.466 L115.764 581.895 L68.2442 581.895 Z" fill="#000000" fill-rule="nonzero" fill-opacity="1" /><path clip-path="url(#clip580)" d="M85.5907 528.742 Q85.0178 529.728 84.7632 530.906 Q84.4767 532.052 84.4767 533.452 Q84.4767 538.418 87.7232 541.091 Q90.9379 543.733 96.9853 543.733 L115.764 543.733 L115.764 549.621 L80.1162 549.621 L80.1162 543.733 L85.6544 543.733 Q82.4079 541.887 80.8483 538.927 Q79.2568 535.967 79.2568 531.734 Q79.2568 531.129 79.3523 530.397 Q79.416 529.665 79.5751 528.774 L85.5907 528.742 Z" fill="#000000" fill-rule="nonzero" fill-opacity="1" /><path clip-path="url(#clip580)" d="M96.4761 493.539 L99.3406 493.539 L99.3406 520.466 Q105.388 520.084 108.571 516.838 Q111.722 513.56 111.722 507.735 Q111.722 504.361 110.894 501.21 Q110.067 498.027 108.412 494.908 L113.95 494.908 Q115.287 498.059 115.987 501.369 Q116.687 504.679 116.687 508.085 Q116.687 516.615 111.722 521.612 Q106.757 526.577 98.2903 526.577 Q89.5374 526.577 84.4131 521.867 Q79.2568 517.124 79.2568 509.104 Q79.2568 501.91 83.9038 497.741 Q88.5189 493.539 96.4761 493.539 M94.7573 499.396 Q89.9512 499.459 87.0866 502.101 Q84.2221 504.711 84.2221 509.04 Q84.2221 513.941 86.9912 516.902 Q89.7602 519.83 94.7892 520.275 L94.7573 499.396 Z" fill="#000000" fill-rule="nonzero" fill-opacity="1" /><path clip-path="url(#clip580)" d="M97.972 480.426 Q104.433 480.426 108.125 477.784 Q111.786 475.111 111.786 470.464 Q111.786 465.817 108.125 463.143 Q104.433 460.47 97.972 460.47 Q91.5108 460.47 87.8505 463.143 Q84.1584 465.817 84.1584 470.464 Q84.1584 475.111 87.8505 477.784 Q91.5108 480.426 97.972 480.426 M110.417 460.47 Q113.6 462.316 115.159 465.148 Q116.687 467.949 116.687 471.896 Q116.687 478.357 111.531 482.431 Q106.375 486.473 97.972 486.473 Q89.5693 486.473 84.4131 482.431 Q79.2568 478.357 79.2568 471.896 Q79.2568 467.949 80.8164 465.148 Q82.3442 462.316 85.5271 460.47 L80.1162 460.47 L80.1162 454.613 L129.323 454.613 L129.323 460.47 L110.417 460.47 Z" fill="#000000" fill-rule="nonzero" fill-opacity="1" /><path clip-path="url(#clip580)" d="M101.696 443.155 L80.1162 443.155 L80.1162 437.298 L101.473 437.298 Q106.534 437.298 109.08 435.325 Q111.595 433.352 111.595 429.405 Q111.595 424.662 108.571 421.925 Q105.547 419.156 100.327 419.156 L80.1162 419.156 L80.1162 413.3 L115.764 413.3 L115.764 419.156 L110.29 419.156 Q113.536 421.289 115.128 424.121 Q116.687 426.922 116.687 430.646 Q116.687 436.789 112.868 439.972 Q109.048 443.155 101.696 443.155 M79.2568 428.418 L79.2568 428.418 Z" fill="#000000" fill-rule="nonzero" fill-opacity="1" /><path clip-path="url(#clip580)" d="M96.4761 370.745 L99.3406 370.745 L99.3406 397.672 Q105.388 397.29 108.571 394.043 Q111.722 390.765 111.722 384.94 Q111.722 381.567 110.894 378.416 Q110.067 375.233 108.412 372.114 L113.95 372.114 Q115.287 375.265 115.987 378.575 Q116.687 381.885 116.687 385.291 Q116.687 393.821 111.722 398.818 Q106.757 403.783 98.2903 403.783 Q89.5374 403.783 84.4131 399.072 Q79.2568 394.33 79.2568 386.309 Q79.2568 379.116 83.9038 374.946 Q88.5189 370.745 96.4761 370.745 M94.7573 376.601 Q89.9512 376.665 87.0866 379.307 Q84.2221 381.917 84.2221 386.245 Q84.2221 391.147 86.9912 394.107 Q89.7602 397.035 94.7892 397.481 L94.7573 376.601 Z" fill="#000000" fill-rule="nonzero" fill-opacity="1" /><path clip-path="url(#clip580)" d="M94.2481 331.5 L115.764 331.5 L115.764 337.357 L94.439 337.357 Q89.3783 337.357 86.8638 339.33 Q84.3494 341.303 84.3494 345.25 Q84.3494 349.993 87.3731 352.73 Q90.3968 355.467 95.6167 355.467 L115.764 355.467 L115.764 361.355 L80.1162 361.355 L80.1162 355.467 L85.6544 355.467 Q82.4397 353.367 80.8483 350.534 Q79.2568 347.669 79.2568 343.945 Q79.2568 337.802 83.0763 334.651 Q86.8638 331.5 94.2481 331.5 Z" fill="#000000" fill-rule="nonzero" fill-opacity="1" /><path clip-path="url(#clip580)" d="M81.4848 294.165 L86.9593 294.165 Q85.5907 296.648 84.9223 299.163 Q84.2221 301.645 84.2221 304.191 Q84.2221 309.889 87.8505 313.04 Q91.4472 316.191 97.972 316.191 Q104.497 316.191 108.125 313.04 Q111.722 309.889 111.722 304.191 Q111.722 301.645 111.054 299.163 Q110.353 296.648 108.985 294.165 L114.396 294.165 Q115.541 296.616 116.114 299.258 Q116.687 301.868 116.687 304.828 Q116.687 312.881 111.626 317.623 Q106.566 322.366 97.972 322.366 Q89.251 322.366 84.2539 317.591 Q79.2568 312.785 79.2568 304.446 Q79.2568 301.741 79.8297 299.163 Q80.3708 296.584 81.4848 294.165 Z" fill="#000000" fill-rule="nonzero" fill-opacity="1" /><path clip-path="url(#clip580)" d="M119.074 269.148 Q125.44 271.631 127.382 273.986 Q129.323 276.341 129.323 280.288 L129.323 284.967 L124.422 284.967 L124.422 281.53 Q124.422 279.111 123.276 277.774 Q122.13 276.437 117.865 274.814 L115.191 273.763 L80.1162 288.182 L80.1162 281.975 L107.998 270.835 L80.1162 259.695 L80.1162 253.489 L119.074 269.148 Z" fill="#000000" fill-rule="nonzero" fill-opacity="1" /><path clip-path="url(#clip582)" d="M250.092 767.171 L250.092 767.171 L278.517 767.171 L278.517 423.484 L306.942 423.484 L306.942 693.027 L335.367 693.027 L335.367 442.793 L363.792 442.793 L363.792 737.05 L392.217 737.05 L392.217 767.171 L420.642 767.171 L420.642 767.171 L449.067 767.171 L449.067 767.171 L477.491 767.171 L477.491 668.313 L505.916 668.313 L505.916 495.311 L534.341 495.311 L534.341 751.725 L562.766 751.725 L562.766 767.171 L591.191 767.171 L591.191 767.171 L619.616 767.171 L619.616 767.171 L648.041 767.171 L648.041 767.171 L676.466 767.171 L676.466 767.171 L704.891 767.171 L704.891 767.171 L733.316 767.171 L733.316 767.171 L761.741 767.171 L761.741 767.171 L790.165 767.171 L790.165 767.171 L818.59 767.171 L818.59 767.171 L847.015 767.171 L847.015 767.171 L875.44 767.171 L875.44 767.171 L903.865 767.171 L903.865 767.171 L932.29 767.171 L932.29 767.171 L903.865 767.171 L903.865 767.171 L875.44 767.171 L875.44 767.171 L847.015 767.171 L847.015 767.171 L818.59 767.171 L818.59 767.171 L790.165 767.171 L790.165 767.171 L761.741 767.171 L761.741 767.171 L733.316 767.171 L733.316 767.171 L704.891 767.171 L704.891 767.171 L676.466 767.171 L676.466 767.171 L648.041 767.171 L648.041 767.171 L619.616 767.171 L619.616 767.171 L591.191 767.171 L591.191 767.171 L562.766 767.171 L562.766 767.171 L534.341 767.171 L534.341 767.171 L505.916 767.171 L505.916 767.171 L477.491 767.171 L477.491 767.171 L449.067 767.171 L449.067 767.171 L420.642 767.171 L420.642 767.171 L392.217 767.171 L392.217 767.171 L363.792 767.171 L363.792 767.171 L335.367 767.171 L335.367 767.171 L306.942 767.171 L306.942 767.171 L278.517 767.171 L278.517 767.171 L250.092 767.171 L250.092 767.171  Z" fill="#377db8" fill-rule="evenodd" fill-opacity="0.5"/>
<polyline clip-path="url(#clip582)" style="stroke:#377db8; stroke-linecap:round; stroke-linejoin:round; stroke-width:4; stroke-opacity:0.5; fill:none" points="250.092,767.171 250.092,767.171 278.517,767.171 278.517,423.484 306.942,423.484 306.942,693.027 335.367,693.027 335.367,442.793 363.792,442.793 363.792,737.05 392.217,737.05 392.217,767.171 420.642,767.171 449.067,767.171 477.491,767.171 477.491,668.313 505.916,668.313 505.916,495.311 534.341,495.311 534.341,751.725 562.766,751.725 562.766,767.171 591.191,767.171 619.616,767.171 648.041,767.171 676.466,767.171 704.891,767.171 733.316,767.171 761.741,767.171 790.165,767.171 818.59,767.171 847.015,767.171 875.44,767.171 903.865,767.171 932.29,767.171 "/>
<path clip-path="url(#clip582)" d="M250.092 767.171 L250.092 68.2128 L278.517 68.2128 L278.517 706.157 L306.942 706.157 L306.942 757.131 L335.367 757.131 L335.367 764.854 L363.792 764.854 L363.792 767.171 L392.217 767.171 L392.217 767.171 L420.642 767.171 L420.642 767.171 L449.067 767.171 L449.067 767.171 L477.491 767.171 L477.491 767.171 L505.916 767.171 L505.916 767.171 L534.341 767.171 L534.341 764.082 L562.766 764.082 L562.766 755.586 L591.191 755.586 L591.191 716.97 L619.616 716.97 L619.616 649.005 L648.041 649.005 L648.041 643.598 L676.466 643.598 L676.466 702.295 L704.891 702.295 L704.891 752.497 L733.316 752.497 L733.316 767.171 L761.741 767.171 L761.741 767.171 L790.165 767.171 L790.165 767.171 L818.59 767.171 L818.59 767.171 L847.015 767.171 L847.015 767.171 L875.44 767.171 L875.44 767.171 L903.865 767.171 L903.865 767.171 L932.29 767.171 L932.29 767.171 L903.865 767.171 L903.865 767.171 L875.44 767.171 L875.44 767.171 L847.015 767.171 L847.015 767.171 L818.59 767.171 L818.59 767.171 L790.165 767.171 L790.165 767.171 L761.741 767.171 L761.741 767.171 L733.316 767.171 L733.316 767.171 L704.891 767.171 L704.891 767.171 L676.466 767.171 L676.466 767.171 L648.041 767.171 L648.041 767.171 L619.616 767.171 L619.616 767.171 L591.191 767.171 L591.191 767.171 L562.766 767.171 L562.766 767.171 L534.341 767.171 L534.341 767.171 L505.916 767.171 L505.916 767.171 L477.491 767.171 L477.491 767.171 L449.067 767.171 L449.067 767.171 L420.642 767.171 L420.642 767.171 L392.217 767.171 L392.217 767.171 L363.792 767.171 L363.792 767.171 L335.367 767.171 L335.367 767.171 L306.942 767.171 L306.942 767.171 L278.517 767.171 L278.517 767.171 L250.092 767.171 L250.092 767.171  Z" fill="#e31a1c" fill-rule="evenodd" fill-opacity="0.5"/>
<polyline clip-path="url(#clip582)" style="stroke:#e31a1c; stroke-linecap:round; stroke-linejoin:round; stroke-width:4; stroke-opacity:0.5; fill:none" points="250.092,767.171 250.092,68.2128 278.517,68.2128 278.517,706.157 306.942,706.157 306.942,757.131 335.367,757.131 335.367,764.854 363.792,764.854 363.792,767.171 392.217,767.171 420.642,767.171 449.067,767.171 477.491,767.171 505.916,767.171 534.341,767.171 534.341,764.082 562.766,764.082 562.766,755.586 591.191,755.586 591.191,716.97 619.616,716.97 619.616,649.005 648.041,649.005 648.041,643.598 676.466,643.598 676.466,702.295 704.891,702.295 704.891,752.497 733.316,752.497 733.316,767.171 761.741,767.171 790.165,767.171 818.59,767.171 847.015,767.171 875.44,767.171 903.865,767.171 932.29,767.171 "/>
<path clip-path="url(#clip580)" d="M482.799 227.461 L928.652 227.461 L928.652 71.9406 L482.799 71.9406  Z" fill="#ffffff" fill-rule="evenodd" fill-opacity="1"/>
<polyline clip-path="url(#clip580)" style="stroke:#000000; stroke-linecap:round; stroke-linejoin:round; stroke-width:4; stroke-opacity:1; fill:none" points="482.799,227.461 928.652,227.461 928.652,71.9406 482.799,71.9406 482.799,227.461 "/>
<path clip-path="url(#clip580)" d="M490.834 144.517 L539.042 144.517 L539.042 103.045 L490.834 103.045 L490.834 144.517  Z" fill="#377db8" fill-rule="evenodd" fill-opacity="0.5"/>
<polyline clip-path="url(#clip580)" style="stroke:#377db8; stroke-linecap:round; stroke-linejoin:round; stroke-width:4; stroke-opacity:0.5; fill:none" points="490.834,103.045 539.042,103.045 "/>
<path clip-path="url(#clip580)" d="M551.753 124.556 L551.753 137.218 L559.253 137.218 Q563.026 137.218 564.832 135.667 Q566.66 134.093 566.66 130.875 Q566.66 127.635 564.832 126.107 Q563.026 124.556 559.253 124.556 L551.753 124.556 M551.753 110.343 L551.753 120.76 L558.674 120.76 Q562.1 120.76 563.767 119.487 Q565.457 118.19 565.457 115.551 Q565.457 112.936 563.767 111.639 Q562.1 110.343 558.674 110.343 L551.753 110.343 M547.077 106.501 L559.022 106.501 Q564.369 106.501 567.262 108.723 Q570.156 110.945 570.156 115.042 Q570.156 118.214 568.674 120.089 Q567.193 121.963 564.322 122.426 Q567.771 123.167 569.67 125.528 Q571.591 127.866 571.591 131.385 Q571.591 136.014 568.443 138.537 Q565.295 141.061 559.484 141.061 L547.077 141.061 L547.077 106.501 Z" fill="#000000" fill-rule="nonzero" fill-opacity="1" /><path clip-path="url(#clip580)" d="M579.415 115.135 L583.674 115.135 L583.674 141.061 L579.415 141.061 L579.415 115.135 M579.415 105.042 L583.674 105.042 L583.674 110.436 L579.415 110.436 L579.415 105.042 Z" fill="#000000" fill-rule="nonzero" fill-opacity="1" /><path clip-path="url(#clip580)" d="M609.114 115.899 L609.114 119.926 Q607.308 119.001 605.364 118.538 Q603.419 118.075 601.336 118.075 Q598.165 118.075 596.568 119.047 Q594.994 120.019 594.994 121.963 Q594.994 123.445 596.128 124.301 Q597.262 125.135 600.688 125.899 L602.146 126.223 Q606.683 127.195 608.581 128.977 Q610.503 130.737 610.503 133.908 Q610.503 137.519 607.632 139.625 Q604.785 141.732 599.785 141.732 Q597.702 141.732 595.433 141.315 Q593.188 140.922 590.688 140.112 L590.688 135.713 Q593.049 136.94 595.341 137.565 Q597.632 138.167 599.878 138.167 Q602.887 138.167 604.507 137.149 Q606.128 136.107 606.128 134.232 Q606.128 132.496 604.947 131.57 Q603.79 130.644 599.831 129.788 L598.35 129.44 Q594.392 128.607 592.632 126.894 Q590.873 125.158 590.873 122.149 Q590.873 118.491 593.466 116.501 Q596.058 114.51 600.827 114.51 Q603.188 114.51 605.271 114.857 Q607.355 115.204 609.114 115.899 Z" fill="#000000" fill-rule="nonzero" fill-opacity="1" /><path clip-path="url(#clip580)" d="M621.498 107.774 L621.498 115.135 L630.271 115.135 L630.271 118.445 L621.498 118.445 L621.498 132.519 Q621.498 135.69 622.355 136.593 Q623.234 137.496 625.896 137.496 L630.271 137.496 L630.271 141.061 L625.896 141.061 Q620.966 141.061 619.091 139.232 Q617.216 137.38 617.216 132.519 L617.216 118.445 L614.091 118.445 L614.091 115.135 L617.216 115.135 L617.216 107.774 L621.498 107.774 Z" fill="#000000" fill-rule="nonzero" fill-opacity="1" /><path clip-path="url(#clip580)" d="M645.919 118.121 Q642.493 118.121 640.503 120.806 Q638.512 123.468 638.512 128.121 Q638.512 132.774 640.479 135.459 Q642.47 138.121 645.919 138.121 Q649.322 138.121 651.313 135.436 Q653.303 132.75 653.303 128.121 Q653.303 123.514 651.313 120.829 Q649.322 118.121 645.919 118.121 M645.919 114.51 Q651.475 114.51 654.646 118.121 Q657.817 121.732 657.817 128.121 Q657.817 134.487 654.646 138.121 Q651.475 141.732 645.919 141.732 Q640.341 141.732 637.169 138.121 Q634.021 134.487 634.021 128.121 Q634.021 121.732 637.169 118.121 Q640.341 114.51 645.919 114.51 Z" fill="#000000" fill-rule="nonzero" fill-opacity="1" /><path clip-path="url(#clip580)" d="M683.535 116.13 L683.535 120.112 Q681.729 119.116 679.901 118.63 Q678.095 118.121 676.243 118.121 Q672.1 118.121 669.808 120.76 Q667.516 123.376 667.516 128.121 Q667.516 132.866 669.808 135.505 Q672.1 138.121 676.243 138.121 Q678.095 138.121 679.901 137.635 Q681.729 137.125 683.535 136.13 L683.535 140.065 Q681.752 140.899 679.831 141.315 Q677.933 141.732 675.78 141.732 Q669.924 141.732 666.475 138.051 Q663.026 134.371 663.026 128.121 Q663.026 121.778 666.498 118.144 Q669.993 114.51 676.058 114.51 Q678.026 114.51 679.901 114.927 Q681.775 115.32 683.535 116.13 Z" fill="#000000" fill-rule="nonzero" fill-opacity="1" /><path clip-path="url(#clip580)" d="M712.493 125.413 L712.493 141.061 L708.234 141.061 L708.234 125.551 Q708.234 121.871 706.799 120.042 Q705.363 118.214 702.493 118.214 Q699.044 118.214 697.053 120.413 Q695.062 122.612 695.062 126.408 L695.062 141.061 L690.78 141.061 L690.78 105.042 L695.062 105.042 L695.062 119.163 Q696.59 116.825 698.65 115.667 Q700.734 114.51 703.442 114.51 Q707.91 114.51 710.201 117.288 Q712.493 120.042 712.493 125.413 Z" fill="#000000" fill-rule="nonzero" fill-opacity="1" /><path clip-path="url(#clip580)" d="M732.771 128.028 Q727.609 128.028 725.618 129.209 Q723.627 130.389 723.627 133.237 Q723.627 135.505 725.109 136.848 Q726.613 138.167 729.183 138.167 Q732.724 138.167 734.854 135.667 Q737.007 133.144 737.007 128.977 L737.007 128.028 L732.771 128.028 M741.266 126.269 L741.266 141.061 L737.007 141.061 L737.007 137.125 Q735.548 139.487 733.372 140.621 Q731.197 141.732 728.048 141.732 Q724.067 141.732 721.706 139.51 Q719.368 137.264 719.368 133.514 Q719.368 129.139 722.285 126.917 Q725.224 124.695 731.034 124.695 L737.007 124.695 L737.007 124.278 Q737.007 121.339 735.062 119.741 Q733.141 118.121 729.646 118.121 Q727.423 118.121 725.317 118.653 Q723.21 119.186 721.266 120.251 L721.266 116.315 Q723.604 115.413 725.803 114.973 Q728.002 114.51 730.085 114.51 Q735.71 114.51 738.488 117.426 Q741.266 120.343 741.266 126.269 Z" fill="#000000" fill-rule="nonzero" fill-opacity="1" /><path clip-path="url(#clip580)" d="M766.567 115.899 L766.567 119.926 Q764.761 119.001 762.817 118.538 Q760.872 118.075 758.789 118.075 Q755.618 118.075 754.02 119.047 Q752.446 120.019 752.446 121.963 Q752.446 123.445 753.581 124.301 Q754.715 125.135 758.141 125.899 L759.599 126.223 Q764.136 127.195 766.034 128.977 Q767.956 130.737 767.956 133.908 Q767.956 137.519 765.085 139.625 Q762.238 141.732 757.238 141.732 Q755.155 141.732 752.886 141.315 Q750.641 140.922 748.141 140.112 L748.141 135.713 Q750.502 136.94 752.794 137.565 Q755.085 138.167 757.331 138.167 Q760.34 138.167 761.96 137.149 Q763.581 136.107 763.581 134.232 Q763.581 132.496 762.4 131.57 Q761.243 130.644 757.284 129.788 L755.803 129.44 Q751.845 128.607 750.085 126.894 Q748.326 125.158 748.326 122.149 Q748.326 118.491 750.919 116.501 Q753.511 114.51 758.28 114.51 Q760.641 114.51 762.724 114.857 Q764.807 115.204 766.567 115.899 Z" fill="#000000" fill-rule="nonzero" fill-opacity="1" /><path clip-path="url(#clip580)" d="M778.951 107.774 L778.951 115.135 L787.724 115.135 L787.724 118.445 L778.951 118.445 L778.951 132.519 Q778.951 135.69 779.807 136.593 Q780.687 137.496 783.349 137.496 L787.724 137.496 L787.724 141.061 L783.349 141.061 Q778.418 141.061 776.544 139.232 Q774.669 137.38 774.669 132.519 L774.669 118.445 L771.544 118.445 L771.544 115.135 L774.669 115.135 L774.669 107.774 L778.951 107.774 Z" fill="#000000" fill-rule="nonzero" fill-opacity="1" /><path clip-path="url(#clip580)" d="M793.326 115.135 L797.585 115.135 L797.585 141.061 L793.326 141.061 L793.326 115.135 M793.326 105.042 L797.585 105.042 L797.585 110.436 L793.326 110.436 L793.326 105.042 Z" fill="#000000" fill-rule="nonzero" fill-opacity="1" /><path clip-path="url(#clip580)" d="M825.154 116.13 L825.154 120.112 Q823.349 119.116 821.52 118.63 Q819.715 118.121 817.863 118.121 Q813.719 118.121 811.428 120.76 Q809.136 123.376 809.136 128.121 Q809.136 132.866 811.428 135.505 Q813.719 138.121 817.863 138.121 Q819.715 138.121 821.52 137.635 Q823.349 137.125 825.154 136.13 L825.154 140.065 Q823.372 140.899 821.451 141.315 Q819.553 141.732 817.4 141.732 Q811.543 141.732 808.094 138.051 Q804.645 134.371 804.645 128.121 Q804.645 121.778 808.117 118.144 Q811.613 114.51 817.678 114.51 Q819.645 114.51 821.52 114.927 Q823.395 115.32 825.154 116.13 Z" fill="#000000" fill-rule="nonzero" fill-opacity="1" /><path clip-path="url(#clip580)" d="M847.816 106.501 L852.492 106.501 L852.492 137.125 L869.321 137.125 L869.321 141.061 L847.816 141.061 L847.816 106.501 Z" fill="#000000" fill-rule="nonzero" fill-opacity="1" /><path clip-path="url(#clip580)" d="M878.673 137.125 L894.992 137.125 L894.992 141.061 L873.048 141.061 L873.048 137.125 Q875.71 134.371 880.293 129.741 Q884.899 125.088 886.08 123.746 Q888.325 121.223 889.205 119.487 Q890.108 117.727 890.108 116.038 Q890.108 113.283 888.163 111.547 Q886.242 109.811 883.14 109.811 Q880.941 109.811 878.487 110.575 Q876.057 111.339 873.279 112.889 L873.279 108.167 Q876.103 107.033 878.557 106.454 Q881.011 105.876 883.048 105.876 Q888.418 105.876 891.612 108.561 Q894.807 111.246 894.807 115.737 Q894.807 117.866 893.997 119.788 Q893.21 121.686 891.103 124.278 Q890.524 124.95 887.423 128.167 Q884.321 131.362 878.673 137.125 Z" fill="#000000" fill-rule="nonzero" fill-opacity="1" /><path clip-path="url(#clip580)" d="M490.834 196.357 L539.042 196.357 L539.042 154.885 L490.834 154.885 L490.834 196.357  Z" fill="#e31a1c" fill-rule="evenodd" fill-opacity="0.5"/>
<polyline clip-path="url(#clip580)" style="stroke:#e31a1c; stroke-linecap:round; stroke-linejoin:round; stroke-width:4; stroke-opacity:0.5; fill:none" points="490.834,154.885 539.042,154.885 "/>
<path clip-path="url(#clip580)" d="M551.753 176.396 L551.753 189.058 L559.253 189.058 Q563.026 189.058 564.832 187.507 Q566.66 185.933 566.66 182.715 Q566.66 179.475 564.832 177.947 Q563.026 176.396 559.253 176.396 L551.753 176.396 M551.753 162.183 L551.753 172.6 L558.674 172.6 Q562.1 172.6 563.767 171.327 Q565.457 170.03 565.457 167.391 Q565.457 164.776 563.767 163.479 Q562.1 162.183 558.674 162.183 L551.753 162.183 M547.077 158.341 L559.022 158.341 Q564.369 158.341 567.262 160.563 Q570.156 162.785 570.156 166.882 Q570.156 170.054 568.674 171.929 Q567.193 173.803 564.322 174.266 Q567.771 175.007 569.67 177.368 Q571.591 179.706 571.591 183.225 Q571.591 187.854 568.443 190.377 Q565.295 192.901 559.484 192.901 L547.077 192.901 L547.077 158.341 Z" fill="#000000" fill-rule="nonzero" fill-opacity="1" /><path clip-path="url(#clip580)" d="M579.415 166.975 L583.674 166.975 L583.674 192.901 L579.415 192.901 L579.415 166.975 M579.415 156.882 L583.674 156.882 L583.674 162.276 L579.415 162.276 L579.415 156.882 Z" fill="#000000" fill-rule="nonzero" fill-opacity="1" /><path clip-path="url(#clip580)" d="M609.114 167.739 L609.114 171.766 Q607.308 170.841 605.364 170.378 Q603.419 169.915 601.336 169.915 Q598.165 169.915 596.568 170.887 Q594.994 171.859 594.994 173.803 Q594.994 175.285 596.128 176.141 Q597.262 176.975 600.688 177.739 L602.146 178.063 Q606.683 179.035 608.581 180.817 Q610.503 182.577 610.503 185.748 Q610.503 189.359 607.632 191.465 Q604.785 193.572 599.785 193.572 Q597.702 193.572 595.433 193.155 Q593.188 192.762 590.688 191.952 L590.688 187.553 Q593.049 188.78 595.341 189.405 Q597.632 190.007 599.878 190.007 Q602.887 190.007 604.507 188.989 Q606.128 187.947 606.128 186.072 Q606.128 184.336 604.947 183.41 Q603.79 182.484 599.831 181.628 L598.35 181.28 Q594.392 180.447 592.632 178.734 Q590.873 176.998 590.873 173.989 Q590.873 170.331 593.466 168.341 Q596.058 166.35 600.827 166.35 Q603.188 166.35 605.271 166.697 Q607.355 167.044 609.114 167.739 Z" fill="#000000" fill-rule="nonzero" fill-opacity="1" /><path clip-path="url(#clip580)" d="M621.498 159.614 L621.498 166.975 L630.271 166.975 L630.271 170.285 L621.498 170.285 L621.498 184.359 Q621.498 187.53 622.355 188.433 Q623.234 189.336 625.896 189.336 L630.271 189.336 L630.271 192.901 L625.896 192.901 Q620.966 192.901 619.091 191.072 Q617.216 189.22 617.216 184.359 L617.216 170.285 L614.091 170.285 L614.091 166.975 L617.216 166.975 L617.216 159.614 L621.498 159.614 Z" fill="#000000" fill-rule="nonzero" fill-opacity="1" /><path clip-path="url(#clip580)" d="M645.919 169.961 Q642.493 169.961 640.503 172.646 Q638.512 175.308 638.512 179.961 Q638.512 184.614 640.479 187.299 Q642.47 189.961 645.919 189.961 Q649.322 189.961 651.313 187.276 Q653.303 184.59 653.303 179.961 Q653.303 175.354 651.313 172.669 Q649.322 169.961 645.919 169.961 M645.919 166.35 Q651.475 166.35 654.646 169.961 Q657.817 173.572 657.817 179.961 Q657.817 186.327 654.646 189.961 Q651.475 193.572 645.919 193.572 Q640.341 193.572 637.169 189.961 Q634.021 186.327 634.021 179.961 Q634.021 173.572 637.169 169.961 Q640.341 166.35 645.919 166.35 Z" fill="#000000" fill-rule="nonzero" fill-opacity="1" /><path clip-path="url(#clip580)" d="M683.535 167.97 L683.535 171.952 Q681.729 170.956 679.901 170.47 Q678.095 169.961 676.243 169.961 Q672.1 169.961 669.808 172.6 Q667.516 175.216 667.516 179.961 Q667.516 184.706 669.808 187.345 Q672.1 189.961 676.243 189.961 Q678.095 189.961 679.901 189.475 Q681.729 188.965 683.535 187.97 L683.535 191.905 Q681.752 192.739 679.831 193.155 Q677.933 193.572 675.78 193.572 Q669.924 193.572 666.475 189.891 Q663.026 186.211 663.026 179.961 Q663.026 173.618 666.498 169.984 Q669.993 166.35 676.058 166.35 Q678.026 166.35 679.901 166.767 Q681.775 167.16 683.535 167.97 Z" fill="#000000" fill-rule="nonzero" fill-opacity="1" /><path clip-path="url(#clip580)" d="M712.493 177.253 L712.493 192.901 L708.234 192.901 L708.234 177.391 Q708.234 173.711 706.799 171.882 Q705.363 170.054 702.493 170.054 Q699.044 170.054 697.053 172.253 Q695.062 174.452 695.062 178.248 L695.062 192.901 L690.78 192.901 L690.78 156.882 L695.062 156.882 L695.062 171.003 Q696.59 168.665 698.65 167.507 Q700.734 166.35 703.442 166.35 Q707.91 166.35 710.201 169.128 Q712.493 171.882 712.493 177.253 Z" fill="#000000" fill-rule="nonzero" fill-opacity="1" /><path clip-path="url(#clip580)" d="M732.771 179.868 Q727.609 179.868 725.618 181.049 Q723.627 182.229 723.627 185.077 Q723.627 187.345 725.109 188.688 Q726.613 190.007 729.183 190.007 Q732.724 190.007 734.854 187.507 Q737.007 184.984 737.007 180.817 L737.007 179.868 L732.771 179.868 M741.266 178.109 L741.266 192.901 L737.007 192.901 L737.007 188.965 Q735.548 191.327 733.372 192.461 Q731.197 193.572 728.048 193.572 Q724.067 193.572 721.706 191.35 Q719.368 189.104 719.368 185.354 Q719.368 180.979 722.285 178.757 Q725.224 176.535 731.034 176.535 L737.007 176.535 L737.007 176.118 Q737.007 173.179 735.062 171.581 Q733.141 169.961 729.646 169.961 Q727.423 169.961 725.317 170.493 Q723.21 171.026 721.266 172.091 L721.266 168.155 Q723.604 167.253 725.803 166.813 Q728.002 166.35 730.085 166.35 Q735.71 166.35 738.488 169.266 Q741.266 172.183 741.266 178.109 Z" fill="#000000" fill-rule="nonzero" fill-opacity="1" /><path clip-path="url(#clip580)" d="M766.567 167.739 L766.567 171.766 Q764.761 170.841 762.817 170.378 Q760.872 169.915 758.789 169.915 Q755.618 169.915 754.02 170.887 Q752.446 171.859 752.446 173.803 Q752.446 175.285 753.581 176.141 Q754.715 176.975 758.141 177.739 L759.599 178.063 Q764.136 179.035 766.034 180.817 Q767.956 182.577 767.956 185.748 Q767.956 189.359 765.085 191.465 Q762.238 193.572 757.238 193.572 Q755.155 193.572 752.886 193.155 Q750.641 192.762 748.141 191.952 L748.141 187.553 Q750.502 188.78 752.794 189.405 Q755.085 190.007 757.331 190.007 Q760.34 190.007 761.96 188.989 Q763.581 187.947 763.581 186.072 Q763.581 184.336 762.4 183.41 Q761.243 182.484 757.284 181.628 L755.803 181.28 Q751.845 180.447 750.085 178.734 Q748.326 176.998 748.326 173.989 Q748.326 170.331 750.919 168.341 Q753.511 166.35 758.28 166.35 Q760.641 166.35 762.724 166.697 Q764.807 167.044 766.567 167.739 Z" fill="#000000" fill-rule="nonzero" fill-opacity="1" /><path clip-path="url(#clip580)" d="M778.951 159.614 L778.951 166.975 L787.724 166.975 L787.724 170.285 L778.951 170.285 L778.951 184.359 Q778.951 187.53 779.807 188.433 Q780.687 189.336 783.349 189.336 L787.724 189.336 L787.724 192.901 L783.349 192.901 Q778.418 192.901 776.544 191.072 Q774.669 189.22 774.669 184.359 L774.669 170.285 L771.544 170.285 L771.544 166.975 L774.669 166.975 L774.669 159.614 L778.951 159.614 Z" fill="#000000" fill-rule="nonzero" fill-opacity="1" /><path clip-path="url(#clip580)" d="M793.326 166.975 L797.585 166.975 L797.585 192.901 L793.326 192.901 L793.326 166.975 M793.326 156.882 L797.585 156.882 L797.585 162.276 L793.326 162.276 L793.326 156.882 Z" fill="#000000" fill-rule="nonzero" fill-opacity="1" /><path clip-path="url(#clip580)" d="M825.154 167.97 L825.154 171.952 Q823.349 170.956 821.52 170.47 Q819.715 169.961 817.863 169.961 Q813.719 169.961 811.428 172.6 Q809.136 175.216 809.136 179.961 Q809.136 184.706 811.428 187.345 Q813.719 189.961 817.863 189.961 Q819.715 189.961 821.52 189.475 Q823.349 188.965 825.154 187.97 L825.154 191.905 Q823.372 192.739 821.451 193.155 Q819.553 193.572 817.4 193.572 Q811.543 193.572 808.094 189.891 Q804.645 186.211 804.645 179.961 Q804.645 173.618 808.117 169.984 Q811.613 166.35 817.678 166.35 Q819.645 166.35 821.52 166.767 Q823.395 167.16 825.154 167.97 Z" fill="#000000" fill-rule="nonzero" fill-opacity="1" /><path clip-path="url(#clip580)" d="M847.816 158.341 L869.668 158.341 L869.668 162.276 L852.492 162.276 L852.492 172.507 L868.95 172.507 L868.95 176.442 L852.492 176.442 L852.492 188.965 L870.085 188.965 L870.085 192.901 L847.816 192.901 L847.816 158.341 Z" fill="#000000" fill-rule="nonzero" fill-opacity="1" /><path clip-path="url(#clip580)" d="M899.135 177.253 L899.135 192.901 L894.876 192.901 L894.876 177.391 Q894.876 173.711 893.441 171.882 Q892.006 170.054 889.135 170.054 Q885.686 170.054 883.696 172.253 Q881.705 174.452 881.705 178.248 L881.705 192.901 L877.423 192.901 L877.423 166.975 L881.705 166.975 L881.705 171.003 Q883.233 168.665 885.293 167.507 Q887.376 166.35 890.085 166.35 Q894.552 166.35 896.844 169.128 Q899.135 171.882 899.135 177.253 Z" fill="#000000" fill-rule="nonzero" fill-opacity="1" /><path clip-path="url(#clip580)" d="M911.844 159.614 L911.844 166.975 L920.617 166.975 L920.617 170.285 L911.844 170.285 L911.844 184.359 Q911.844 187.53 912.7 188.433 Q913.58 189.336 916.242 189.336 L920.617 189.336 L920.617 192.901 L916.242 192.901 Q911.311 192.901 909.436 191.072 Q907.561 189.22 907.561 184.359 L907.561 170.285 L904.436 170.285 L904.436 166.975 L907.561 166.975 L907.561 159.614 L911.844 159.614 Z" fill="#000000" fill-rule="nonzero" fill-opacity="1" /></svg>
