<?xml version="1.0" encoding="utf-8"?>
<svg xmlns="http://www.w3.org/2000/svg" xmlns:xlink="http://www.w3.org/1999/xlink" width="250" height="250" viewBox="0 0 1000 1000">
<defs>
  <clipPath id="clip430">
    <rect x="0" y="0" width="1000" height="1000"/>
  </clipPath>
</defs>
<path clip-path="url(#clip430)" d="M0 1000 L1000 1000 L1000 0 L0 0  Z" fill="#ffffff" fill-rule="evenodd" fill-opacity="1"/>
<defs>
  <clipPath id="clip431">
    <rect x="200" y="100" width="701" height="701"/>
  </clipPath>
</defs>
<path clip-path="url(#clip430)" d="M229.626 788.14 L952.756 788.14 L952.756 47.2441 L229.626 47.2441  Z" fill="#ffffff" fill-rule="evenodd" fill-opacity="1"/>
<defs>
  <clipPath id="clip432">
    <rect x="229" y="47" width="724" height="742"/>
  </clipPath>
</defs>
<polyline clip-path="url(#clip432)" style="stroke:#000000; stroke-linecap:round; stroke-linejoin:round; stroke-width:2; stroke-opacity:0.1; fill:none" points="250.092,788.14 250.092,47.2441 "/>
<polyline clip-path="url(#clip432)" style="stroke:#000000; stroke-linecap:round; stroke-linejoin:round; stroke-width:2; stroke-opacity:0.1; fill:none" points="388.976,788.14 388.976,47.2441 "/>
<polyline clip-path="url(#clip432)" style="stroke:#000000; stroke-linecap:round; stroke-linejoin:round; stroke-width:2; stroke-opacity:0.1; fill:none" points="527.86,788.14 527.86,47.2441 "/>
<polyline clip-path="url(#clip432)" style="stroke:#000000; stroke-linecap:round; stroke-linejoin:round; stroke-width:2; stroke-opacity:0.1; fill:none" points="666.744,788.14 666.744,47.2441 "/>
<polyline clip-path="url(#clip432)" style="stroke:#000000; stroke-linecap:round; stroke-linejoin:round; stroke-width:2; stroke-opacity:0.1; fill:none" points="805.628,788.14 805.628,47.2441 "/>
<polyline clip-path="url(#clip432)" style="stroke:#000000; stroke-linecap:round; stroke-linejoin:round; stroke-width:2; stroke-opacity:0.1; fill:none" points="944.512,788.14 944.512,47.2441 "/>
<polyline clip-path="url(#clip432)" style="stroke:#000000; stroke-linecap:round; stroke-linejoin:round; stroke-width:2; stroke-opacity:0.1; fill:none" points="229.626,767.171 952.756,767.171 "/>
<polyline clip-path="url(#clip432)" style="stroke:#000000; stroke-linecap:round; stroke-linejoin:round; stroke-width:2; stroke-opacity:0.1; fill:none" points="229.626,645.118 952.756,645.118 "/>
<polyline clip-path="url(#clip432)" style="stroke:#000000; stroke-linecap:round; stroke-linejoin:round; stroke-width:2; stroke-opacity:0.1; fill:none" points="229.626,523.065 952.756,523.065 "/>
<polyline clip-path="url(#clip432)" style="stroke:#000000; stroke-linecap:round; stroke-linejoin:round; stroke-width:2; stroke-opacity:0.1; fill:none" points="229.626,401.011 952.756,401.011 "/>
<polyline clip-path="url(#clip432)" style="stroke:#000000; stroke-linecap:round; stroke-linejoin:round; stroke-width:2; stroke-opacity:0.1; fill:none" points="229.626,278.958 952.756,278.958 "/>
<polyline clip-path="url(#clip432)" style="stroke:#000000; stroke-linecap:round; stroke-linejoin:round; stroke-width:2; stroke-opacity:0.1; fill:none" points="229.626,156.905 952.756,156.905 "/>
<polyline clip-path="url(#clip430)" style="stroke:#000000; stroke-linecap:round; stroke-linejoin:round; stroke-width:4; stroke-opacity:1; fill:none" points="229.626,788.14 952.756,788.14 "/>
<polyline clip-path="url(#clip430)" style="stroke:#000000; stroke-linecap:round; stroke-linejoin:round; stroke-width:4; stroke-opacity:1; fill:none" points="250.092,788.14 250.092,769.242 "/>
<polyline clip-path="url(#clip430)" style="stroke:#000000; stroke-linecap:round; stroke-linejoin:round; stroke-width:4; stroke-opacity:1; fill:none" points="388.976,788.14 388.976,769.242 "/>
<polyline clip-path="url(#clip430)" style="stroke:#000000; stroke-linecap:round; stroke-linejoin:round; stroke-width:4; stroke-opacity:1; fill:none" points="527.86,788.14 527.86,769.242 "/>
<polyline clip-path="url(#clip430)" style="stroke:#000000; stroke-linecap:round; stroke-linejoin:round; stroke-width:4; stroke-opacity:1; fill:none" points="666.744,788.14 666.744,769.242 "/>
<polyline clip-path="url(#clip430)" style="stroke:#000000; stroke-linecap:round; stroke-linejoin:round; stroke-width:4; stroke-opacity:1; fill:none" points="805.628,788.14 805.628,769.242 "/>
<polyline clip-path="url(#clip430)" style="stroke:#000000; stroke-linecap:round; stroke-linejoin:round; stroke-width:4; stroke-opacity:1; fill:none" points="944.512,788.14 944.512,769.242 "/>
<path clip-path="url(#clip430)" d="M250.092 807.859 Q246.481 807.859 244.652 811.423 Q242.847 814.965 242.847 822.095 Q242.847 829.201 244.652 832.766 Q246.481 836.307 250.092 836.307 Q253.726 836.307 255.532 832.766 Q257.361 829.201 257.361 822.095 Q257.361 814.965 255.532 811.423 Q253.726 807.859 250.092 807.859 M250.092 804.155 Q255.902 804.155 258.958 808.761 Q262.037 813.345 262.037 822.095 Q262.037 830.821 258.958 835.428 Q255.902 840.011 250.092 840.011 Q244.282 840.011 241.203 835.428 Q238.148 830.821 238.148 822.095 Q238.148 813.345 241.203 808.761 Q244.282 804.155 250.092 804.155 Z" fill="#000000" fill-rule="nonzero" fill-opacity="1" /><path clip-path="url(#clip430)" d="M363.675 804.78 L382.032 804.78 L382.032 808.715 L367.958 808.715 L367.958 817.187 Q368.976 816.84 369.995 816.678 Q371.013 816.493 372.032 816.493 Q377.819 816.493 381.198 819.664 Q384.578 822.835 384.578 828.252 Q384.578 833.831 381.106 836.932 Q377.634 840.011 371.314 840.011 Q369.138 840.011 366.87 839.641 Q364.624 839.27 362.217 838.53 L362.217 833.831 Q364.3 834.965 366.523 835.52 Q368.745 836.076 371.222 836.076 Q375.226 836.076 377.564 833.97 Q379.902 831.863 379.902 828.252 Q379.902 824.641 377.564 822.534 Q375.226 820.428 371.222 820.428 Q369.347 820.428 367.472 820.845 Q365.62 821.261 363.675 822.141 L363.675 804.78 Z" fill="#000000" fill-rule="nonzero" fill-opacity="1" /><path clip-path="url(#clip430)" d="M403.791 807.859 Q400.18 807.859 398.351 811.423 Q396.546 814.965 396.546 822.095 Q396.546 829.201 398.351 832.766 Q400.18 836.307 403.791 836.307 Q407.425 836.307 409.231 832.766 Q411.059 829.201 411.059 822.095 Q411.059 814.965 409.231 811.423 Q407.425 807.859 403.791 807.859 M403.791 804.155 Q409.601 804.155 412.657 808.761 Q415.735 813.345 415.735 822.095 Q415.735 830.821 412.657 835.428 Q409.601 840.011 403.791 840.011 Q397.981 840.011 394.902 835.428 Q391.847 830.821 391.847 822.095 Q391.847 813.345 394.902 808.761 Q397.981 804.155 403.791 804.155 Z" fill="#000000" fill-rule="nonzero" fill-opacity="1" /><path clip-path="url(#clip430)" d="M487.467 835.405 L495.106 835.405 L495.106 809.039 L486.796 810.706 L486.796 806.447 L495.059 804.78 L499.735 804.78 L499.735 835.405 L507.374 835.405 L507.374 839.34 L487.467 839.34 L487.467 835.405 Z" fill="#000000" fill-rule="nonzero" fill-opacity="1" /><path clip-path="url(#clip430)" d="M526.818 807.859 Q523.207 807.859 521.379 811.423 Q519.573 814.965 519.573 822.095 Q519.573 829.201 521.379 832.766 Q523.207 836.307 526.818 836.307 Q530.453 836.307 532.258 832.766 Q534.087 829.201 534.087 822.095 Q534.087 814.965 532.258 811.423 Q530.453 807.859 526.818 807.859 M526.818 804.155 Q532.629 804.155 535.684 808.761 Q538.763 813.345 538.763 822.095 Q538.763 830.821 535.684 835.428 Q532.629 840.011 526.818 840.011 Q521.008 840.011 517.93 835.428 Q514.874 830.821 514.874 822.095 Q514.874 813.345 517.93 808.761 Q521.008 804.155 526.818 804.155 Z" fill="#000000" fill-rule="nonzero" fill-opacity="1" /><path clip-path="url(#clip430)" d="M556.98 807.859 Q553.369 807.859 551.541 811.423 Q549.735 814.965 549.735 822.095 Q549.735 829.201 551.541 832.766 Q553.369 836.307 556.98 836.307 Q560.615 836.307 562.42 832.766 Q564.249 829.201 564.249 822.095 Q564.249 814.965 562.42 811.423 Q560.615 807.859 556.98 807.859 M556.98 804.155 Q562.791 804.155 565.846 808.761 Q568.925 813.345 568.925 822.095 Q568.925 830.821 565.846 835.428 Q562.791 840.011 556.98 840.011 Q551.17 840.011 548.092 835.428 Q545.036 830.821 545.036 822.095 Q545.036 813.345 548.092 808.761 Q551.17 804.155 556.98 804.155 Z" fill="#000000" fill-rule="nonzero" fill-opacity="1" /><path clip-path="url(#clip430)" d="M626.351 835.405 L633.99 835.405 L633.99 809.039 L625.68 810.706 L625.68 806.447 L633.943 804.78 L638.619 804.78 L638.619 835.405 L646.258 835.405 L646.258 839.34 L626.351 839.34 L626.351 835.405 Z" fill="#000000" fill-rule="nonzero" fill-opacity="1" /><path clip-path="url(#clip430)" d="M655.749 804.78 L674.105 804.78 L674.105 808.715 L660.031 808.715 L660.031 817.187 Q661.05 816.84 662.068 816.678 Q663.087 816.493 664.105 816.493 Q669.892 816.493 673.272 819.664 Q676.651 822.835 676.651 828.252 Q676.651 833.831 673.179 836.932 Q669.707 840.011 663.388 840.011 Q661.212 840.011 658.943 839.641 Q656.698 839.27 654.29 838.53 L654.29 833.831 Q656.374 834.965 658.596 835.52 Q660.818 836.076 663.295 836.076 Q667.3 836.076 669.638 833.97 Q671.976 831.863 671.976 828.252 Q671.976 824.641 669.638 822.534 Q667.3 820.428 663.295 820.428 Q661.42 820.428 659.545 820.845 Q657.693 821.261 655.749 822.141 L655.749 804.78 Z" fill="#000000" fill-rule="nonzero" fill-opacity="1" /><path clip-path="url(#clip430)" d="M695.864 807.859 Q692.253 807.859 690.425 811.423 Q688.619 814.965 688.619 822.095 Q688.619 829.201 690.425 832.766 Q692.253 836.307 695.864 836.307 Q699.499 836.307 701.304 832.766 Q703.133 829.201 703.133 822.095 Q703.133 814.965 701.304 811.423 Q699.499 807.859 695.864 807.859 M695.864 804.155 Q701.674 804.155 704.73 808.761 Q707.809 813.345 707.809 822.095 Q707.809 830.821 704.73 835.428 Q701.674 840.011 695.864 840.011 Q690.054 840.011 686.975 835.428 Q683.92 830.821 683.92 822.095 Q683.92 813.345 686.975 808.761 Q690.054 804.155 695.864 804.155 Z" fill="#000000" fill-rule="nonzero" fill-opacity="1" /><path clip-path="url(#clip430)" d="M769.32 835.405 L785.64 835.405 L785.64 839.34 L763.695 839.34 L763.695 835.405 Q766.357 832.65 770.941 828.02 Q775.547 823.368 776.728 822.025 Q778.973 819.502 779.853 817.766 Q780.756 816.007 780.756 814.317 Q780.756 811.562 778.811 809.826 Q776.89 808.09 773.788 808.09 Q771.589 808.09 769.135 808.854 Q766.705 809.618 763.927 811.169 L763.927 806.447 Q766.751 805.312 769.205 804.734 Q771.658 804.155 773.695 804.155 Q779.066 804.155 782.26 806.84 Q785.455 809.525 785.455 814.016 Q785.455 816.146 784.644 818.067 Q783.857 819.965 781.751 822.558 Q781.172 823.229 778.07 826.446 Q774.969 829.641 769.32 835.405 Z" fill="#000000" fill-rule="nonzero" fill-opacity="1" /><path clip-path="url(#clip430)" d="M805.454 807.859 Q801.843 807.859 800.015 811.423 Q798.209 814.965 798.209 822.095 Q798.209 829.201 800.015 832.766 Q801.843 836.307 805.454 836.307 Q809.089 836.307 810.894 832.766 Q812.723 829.201 812.723 822.095 Q812.723 814.965 810.894 811.423 Q809.089 807.859 805.454 807.859 M805.454 804.155 Q811.265 804.155 814.32 808.761 Q817.399 813.345 817.399 822.095 Q817.399 830.821 814.32 835.428 Q811.265 840.011 805.454 840.011 Q799.644 840.011 796.566 835.428 Q793.51 830.821 793.51 822.095 Q793.51 813.345 796.566 808.761 Q799.644 804.155 805.454 804.155 Z" fill="#000000" fill-rule="nonzero" fill-opacity="1" /><path clip-path="url(#clip430)" d="M835.616 807.859 Q832.005 807.859 830.177 811.423 Q828.371 814.965 828.371 822.095 Q828.371 829.201 830.177 832.766 Q832.005 836.307 835.616 836.307 Q839.251 836.307 841.056 832.766 Q842.885 829.201 842.885 822.095 Q842.885 814.965 841.056 811.423 Q839.251 807.859 835.616 807.859 M835.616 804.155 Q841.427 804.155 844.482 808.761 Q847.561 813.345 847.561 822.095 Q847.561 830.821 844.482 835.428 Q841.427 840.011 835.616 840.011 Q829.806 840.011 826.728 835.428 Q823.672 830.821 823.672 822.095 Q823.672 813.345 826.728 808.761 Q829.806 804.155 835.616 804.155 Z" fill="#000000" fill-rule="nonzero" fill-opacity="1" /><path clip-path="url(#clip430)" d="M908.204 835.405 L924.524 835.405 L924.524 839.34 L902.579 839.34 L902.579 835.405 Q905.241 832.65 909.825 828.02 Q914.431 823.368 915.612 822.025 Q917.857 819.502 918.737 817.766 Q919.64 816.007 919.64 814.317 Q919.64 811.562 917.695 809.826 Q915.774 808.09 912.672 808.09 Q910.473 808.09 908.019 808.854 Q905.589 809.618 902.811 811.169 L902.811 806.447 Q905.635 805.312 908.089 804.734 Q910.542 804.155 912.579 804.155 Q917.95 804.155 921.144 806.84 Q924.339 809.525 924.339 814.016 Q924.339 816.146 923.528 818.067 Q922.741 819.965 920.635 822.558 Q920.056 823.229 916.954 826.446 Q913.852 829.641 908.204 835.405 Z" fill="#000000" fill-rule="nonzero" fill-opacity="1" /><path clip-path="url(#clip430)" d="M934.385 804.78 L952.741 804.78 L952.741 808.715 L938.667 808.715 L938.667 817.187 Q939.686 816.84 940.704 816.678 Q941.723 816.493 942.741 816.493 Q948.528 816.493 951.908 819.664 Q955.287 822.835 955.287 828.252 Q955.287 833.831 951.815 836.932 Q948.343 840.011 942.024 840.011 Q939.848 840.011 937.579 839.641 Q935.334 839.27 932.926 838.53 L932.926 833.831 Q935.01 834.965 937.232 835.52 Q939.454 836.076 941.931 836.076 Q945.936 836.076 948.274 833.97 Q950.612 831.863 950.612 828.252 Q950.612 824.641 948.274 822.534 Q945.936 820.428 941.931 820.428 Q940.056 820.428 938.181 820.845 Q936.329 821.261 934.385 822.141 L934.385 804.78 Z" fill="#000000" fill-rule="nonzero" fill-opacity="1" /><path clip-path="url(#clip430)" d="M974.5 807.859 Q970.889 807.859 969.061 811.423 Q967.255 814.965 967.255 822.095 Q967.255 829.201 969.061 832.766 Q970.889 836.307 974.5 836.307 Q978.135 836.307 979.94 832.766 Q981.769 829.201 981.769 822.095 Q981.769 814.965 979.94 811.423 Q978.135 807.859 974.5 807.859 M974.5 804.155 Q980.31 804.155 983.366 808.761 Q986.445 813.345 986.445 822.095 Q986.445 830.821 983.366 835.428 Q980.31 840.011 974.5 840.011 Q968.69 840.011 965.611 835.428 Q962.556 830.821 962.556 822.095 Q962.556 813.345 965.611 808.761 Q968.69 804.155 974.5 804.155 Z" fill="#000000" fill-rule="nonzero" fill-opacity="1" /><path clip-path="url(#clip430)" d="M440.212 869.767 L440.212 887.623 L448.297 887.623 Q452.785 887.623 455.236 885.3 Q457.686 882.976 457.686 878.679 Q457.686 874.414 455.236 872.091 Q452.785 869.767 448.297 869.767 L440.212 869.767 M433.783 864.484 L448.297 864.484 Q456.286 864.484 460.36 868.112 Q464.466 871.709 464.466 878.679 Q464.466 885.713 460.36 889.31 Q456.286 892.907 448.297 892.907 L440.212 892.907 L440.212 912.004 L433.783 912.004 L433.783 864.484 Z" fill="#000000" fill-rule="nonzero" fill-opacity="1" /><path clip-path="url(#clip430)" d="M501.005 892.716 L501.005 895.58 L474.078 895.58 Q474.46 901.628 477.706 904.811 Q480.985 907.962 486.809 907.962 Q490.183 907.962 493.334 907.134 Q496.517 906.307 499.636 904.651 L499.636 910.19 Q496.485 911.526 493.175 912.227 Q489.865 912.927 486.459 912.927 Q477.929 912.927 472.932 907.962 Q467.967 902.996 467.967 894.53 Q467.967 885.777 472.678 880.653 Q477.42 875.497 485.441 875.497 Q492.634 875.497 496.804 880.143 Q501.005 884.759 501.005 892.716 M495.148 890.997 Q495.085 886.191 492.443 883.326 Q489.833 880.462 485.504 880.462 Q480.603 880.462 477.643 883.231 Q474.715 886 474.269 891.029 L495.148 890.997 Z" fill="#000000" fill-rule="nonzero" fill-opacity="1" /><path clip-path="url(#clip430)" d="M531.274 881.83 Q530.287 881.257 529.11 881.003 Q527.964 880.716 526.563 880.716 Q521.598 880.716 518.924 883.963 Q516.283 887.178 516.283 893.225 L516.283 912.004 L510.394 912.004 L510.394 876.356 L516.283 876.356 L516.283 881.894 Q518.129 878.648 521.089 877.088 Q524.049 875.497 528.282 875.497 Q528.887 875.497 529.619 875.592 Q530.351 875.656 531.242 875.815 L531.274 881.83 Z" fill="#000000" fill-rule="nonzero" fill-opacity="1" /><path clip-path="url(#clip430)" d="M543.082 906.657 L543.082 925.563 L537.194 925.563 L537.194 876.356 L543.082 876.356 L543.082 881.767 Q544.928 878.584 547.729 877.056 Q550.562 875.497 554.477 875.497 Q560.97 875.497 565.012 880.653 Q569.086 885.809 569.086 894.212 Q569.086 902.614 565.012 907.771 Q560.97 912.927 554.477 912.927 Q550.562 912.927 547.729 911.399 Q544.928 909.84 543.082 906.657 M563.007 894.212 Q563.007 887.751 560.333 884.09 Q557.692 880.398 553.045 880.398 Q548.398 880.398 545.724 884.09 Q543.082 887.751 543.082 894.212 Q543.082 900.673 545.724 904.365 Q548.398 908.025 553.045 908.025 Q557.692 908.025 560.333 904.365 Q563.007 900.673 563.007 894.212 Z" fill="#000000" fill-rule="nonzero" fill-opacity="1" /><path clip-path="url(#clip430)" d="M578.794 862.479 L584.65 862.479 L584.65 912.004 L578.794 912.004 L578.794 862.479 Z" fill="#000000" fill-rule="nonzero" fill-opacity="1" /><path clip-path="url(#clip430)" d="M627.396 892.716 L627.396 895.58 L600.469 895.58 Q600.851 901.628 604.098 904.811 Q607.376 907.962 613.201 907.962 Q616.574 907.962 619.725 907.134 Q622.908 906.307 626.027 904.651 L626.027 910.19 Q622.876 911.526 619.566 912.227 Q616.256 912.927 612.85 912.927 Q604.32 912.927 599.323 907.962 Q594.358 902.996 594.358 894.53 Q594.358 885.777 599.069 880.653 Q603.811 875.497 611.832 875.497 Q619.025 875.497 623.195 880.143 Q627.396 884.759 627.396 892.716 M621.54 890.997 Q621.476 886.191 618.834 883.326 Q616.224 880.462 611.896 880.462 Q606.994 880.462 604.034 883.231 Q601.106 886 600.66 891.029 L621.54 890.997 Z" fill="#000000" fill-rule="nonzero" fill-opacity="1" /><path clip-path="url(#clip430)" d="M665.495 876.356 L652.604 893.702 L666.163 912.004 L659.256 912.004 L648.88 897.999 L638.504 912.004 L631.597 912.004 L645.443 893.352 L632.775 876.356 L639.682 876.356 L649.135 889.055 L658.588 876.356 L665.495 876.356 Z" fill="#000000" fill-rule="nonzero" fill-opacity="1" /><path clip-path="url(#clip430)" d="M674.439 876.356 L680.295 876.356 L680.295 912.004 L674.439 912.004 L674.439 876.356 M674.439 862.479 L680.295 862.479 L680.295 869.895 L674.439 869.895 L674.439 862.479 Z" fill="#000000" fill-rule="nonzero" fill-opacity="1" /><path clip-path="url(#clip430)" d="M698.342 866.234 L698.342 876.356 L710.405 876.356 L710.405 880.907 L698.342 880.907 L698.342 900.259 Q698.342 904.62 699.519 905.861 Q700.729 907.102 704.389 907.102 L710.405 907.102 L710.405 912.004 L704.389 912.004 Q697.61 912.004 695.032 909.489 Q692.454 906.943 692.454 900.259 L692.454 880.907 L688.157 880.907 L688.157 876.356 L692.454 876.356 L692.454 866.234 L698.342 866.234 Z" fill="#000000" fill-rule="nonzero" fill-opacity="1" /><path clip-path="url(#clip430)" d="M732.939 915.314 Q730.457 921.68 728.102 923.621 Q725.746 925.563 721.799 925.563 L717.121 925.563 L717.121 920.661 L720.558 920.661 Q722.977 920.661 724.314 919.515 Q725.651 918.37 727.274 914.105 L728.324 911.431 L713.906 876.356 L720.113 876.356 L731.253 904.238 L742.393 876.356 L748.599 876.356 L732.939 915.314 Z" fill="#000000" fill-rule="nonzero" fill-opacity="1" /><polyline clip-path="url(#clip430)" style="stroke:#000000; stroke-linecap:round; stroke-linejoin:round; stroke-width:4; stroke-opacity:1; fill:none" points="229.626,788.14 229.626,47.2441 "/>
<polyline clip-path="url(#clip430)" style="stroke:#000000; stroke-linecap:round; stroke-linejoin:round; stroke-width:4; stroke-opacity:1; fill:none" points="229.626,767.171 248.524,767.171 "/>
<polyline clip-path="url(#clip430)" style="stroke:#000000; stroke-linecap:round; stroke-linejoin:round; stroke-width:4; stroke-opacity:1; fill:none" points="229.626,645.118 248.524,645.118 "/>
<polyline clip-path="url(#clip430)" style="stroke:#000000; stroke-linecap:round; stroke-linejoin:round; stroke-width:4; stroke-opacity:1; fill:none" points="229.626,523.065 248.524,523.065 "/>
<polyline clip-path="url(#clip430)" style="stroke:#000000; stroke-linecap:round; stroke-linejoin:round; stroke-width:4; stroke-opacity:1; fill:none" points="229.626,401.011 248.524,401.011 "/>
<polyline clip-path="url(#clip430)" style="stroke:#000000; stroke-linecap:round; stroke-linejoin:round; stroke-width:4; stroke-opacity:1; fill:none" points="229.626,278.958 248.524,278.958 "/>
<polyline clip-path="url(#clip430)" style="stroke:#000000; stroke-linecap:round; stroke-linejoin:round; stroke-width:4; stroke-opacity:1; fill:none" points="229.626,156.905 248.524,156.905 "/>
<path clip-path="url(#clip430)" d="M157.451 752.97 Q153.84 752.97 152.011 756.535 Q150.205 760.076 150.205 767.206 Q150.205 774.312 152.011 777.877 Q153.84 781.419 157.451 781.419 Q161.085 781.419 162.89 777.877 Q164.719 774.312 164.719 767.206 Q164.719 760.076 162.89 756.535 Q161.085 752.97 157.451 752.97 M157.451 749.266 Q163.261 749.266 166.316 753.873 Q169.395 758.456 169.395 767.206 Q169.395 775.933 166.316 780.539 Q163.261 785.122 157.451 785.122 Q151.64 785.122 148.562 780.539 Q145.506 775.933 145.506 767.206 Q145.506 758.456 148.562 753.873 Q151.64 749.266 157.451 749.266 Z" fill="#000000" fill-rule="nonzero" fill-opacity="1" /><path clip-path="url(#clip430)" d="M177.613 778.571 L182.497 778.571 L182.497 784.451 L177.613 784.451 L177.613 778.571 Z" fill="#000000" fill-rule="nonzero" fill-opacity="1" /><path clip-path="url(#clip430)" d="M202.682 752.97 Q199.071 752.97 197.242 756.535 Q195.437 760.076 195.437 767.206 Q195.437 774.312 197.242 777.877 Q199.071 781.419 202.682 781.419 Q206.316 781.419 208.122 777.877 Q209.95 774.312 209.95 767.206 Q209.95 760.076 208.122 756.535 Q206.316 752.97 202.682 752.97 M202.682 749.266 Q208.492 749.266 211.548 753.873 Q214.626 758.456 214.626 767.206 Q214.626 775.933 211.548 780.539 Q208.492 785.122 202.682 785.122 Q196.872 785.122 193.793 780.539 Q190.738 775.933 190.738 767.206 Q190.738 758.456 193.793 753.873 Q196.872 749.266 202.682 749.266 Z" fill="#000000" fill-rule="nonzero" fill-opacity="1" /><path clip-path="url(#clip430)" d="M158.677 630.917 Q155.066 630.917 153.238 634.481 Q151.432 638.023 151.432 645.153 Q151.432 652.259 153.238 655.824 Q155.066 659.365 158.677 659.365 Q162.312 659.365 164.117 655.824 Q165.946 652.259 165.946 645.153 Q165.946 638.023 164.117 634.481 Q162.312 630.917 158.677 630.917 M158.677 627.213 Q164.488 627.213 167.543 631.819 Q170.622 636.403 170.622 645.153 Q170.622 653.879 167.543 658.486 Q164.488 663.069 158.677 663.069 Q152.867 663.069 149.789 658.486 Q146.733 653.879 146.733 645.153 Q146.733 636.403 149.789 631.819 Q152.867 627.213 158.677 627.213 Z" fill="#000000" fill-rule="nonzero" fill-opacity="1" /><path clip-path="url(#clip430)" d="M178.839 656.518 L183.724 656.518 L183.724 662.398 L178.839 662.398 L178.839 656.518 Z" fill="#000000" fill-rule="nonzero" fill-opacity="1" /><path clip-path="url(#clip430)" d="M194.719 658.463 L202.358 658.463 L202.358 632.097 L194.048 633.764 L194.048 629.505 L202.312 627.838 L206.987 627.838 L206.987 658.463 L214.626 658.463 L214.626 662.398 L194.719 662.398 L194.719 658.463 Z" fill="#000000" fill-rule="nonzero" fill-opacity="1" /><path clip-path="url(#clip430)" d="M159.048 508.863 Q155.437 508.863 153.608 512.428 Q151.803 515.97 151.803 523.099 Q151.803 530.206 153.608 533.771 Q155.437 537.312 159.048 537.312 Q162.682 537.312 164.488 533.771 Q166.316 530.206 166.316 523.099 Q166.316 515.97 164.488 512.428 Q162.682 508.863 159.048 508.863 M159.048 505.16 Q164.858 505.16 167.914 509.766 Q170.992 514.349 170.992 523.099 Q170.992 531.826 167.914 536.433 Q164.858 541.016 159.048 541.016 Q153.238 541.016 150.159 536.433 Q147.103 531.826 147.103 523.099 Q147.103 514.349 150.159 509.766 Q153.238 505.16 159.048 505.16 Z" fill="#000000" fill-rule="nonzero" fill-opacity="1" /><path clip-path="url(#clip430)" d="M179.21 534.465 L184.094 534.465 L184.094 540.345 L179.21 540.345 L179.21 534.465 Z" fill="#000000" fill-rule="nonzero" fill-opacity="1" /><path clip-path="url(#clip430)" d="M198.307 536.409 L214.626 536.409 L214.626 540.345 L192.682 540.345 L192.682 536.409 Q195.344 533.655 199.927 529.025 Q204.534 524.372 205.714 523.03 Q207.96 520.507 208.839 518.771 Q209.742 517.011 209.742 515.322 Q209.742 512.567 207.798 510.831 Q205.876 509.095 202.774 509.095 Q200.575 509.095 198.122 509.859 Q195.691 510.623 192.913 512.173 L192.913 507.451 Q195.737 506.317 198.191 505.738 Q200.645 505.16 202.682 505.16 Q208.052 505.16 211.247 507.845 Q214.441 510.53 214.441 515.021 Q214.441 517.15 213.631 519.072 Q212.844 520.97 210.737 523.562 Q210.159 524.234 207.057 527.451 Q203.955 530.646 198.307 536.409 Z" fill="#000000" fill-rule="nonzero" fill-opacity="1" /><path clip-path="url(#clip430)" d="M158.099 386.81 Q154.488 386.81 152.659 390.375 Q150.853 393.916 150.853 401.046 Q150.853 408.153 152.659 411.717 Q154.488 415.259 158.099 415.259 Q161.733 415.259 163.539 411.717 Q165.367 408.153 165.367 401.046 Q165.367 393.916 163.539 390.375 Q161.733 386.81 158.099 386.81 M158.099 383.106 Q163.909 383.106 166.964 387.713 Q170.043 392.296 170.043 401.046 Q170.043 409.773 166.964 414.379 Q163.909 418.963 158.099 418.963 Q152.289 418.963 149.21 414.379 Q146.154 409.773 146.154 401.046 Q146.154 392.296 149.21 387.713 Q152.289 383.106 158.099 383.106 Z" fill="#000000" fill-rule="nonzero" fill-opacity="1" /><path clip-path="url(#clip430)" d="M178.261 412.412 L183.145 412.412 L183.145 418.291 L178.261 418.291 L178.261 412.412 Z" fill="#000000" fill-rule="nonzero" fill-opacity="1" /><path clip-path="url(#clip430)" d="M207.497 399.657 Q210.853 400.375 212.728 402.643 Q214.626 404.912 214.626 408.245 Q214.626 413.361 211.108 416.162 Q207.589 418.963 201.108 418.963 Q198.932 418.963 196.617 418.523 Q194.325 418.106 191.872 417.25 L191.872 412.736 Q193.816 413.87 196.131 414.449 Q198.446 415.027 200.969 415.027 Q205.367 415.027 207.659 413.291 Q209.974 411.555 209.974 408.245 Q209.974 405.19 207.821 403.477 Q205.691 401.741 201.872 401.741 L197.844 401.741 L197.844 397.898 L202.057 397.898 Q205.506 397.898 207.335 396.532 Q209.163 395.143 209.163 392.551 Q209.163 389.889 207.265 388.477 Q205.39 387.042 201.872 387.042 Q199.95 387.042 197.751 387.458 Q195.552 387.875 192.913 388.754 L192.913 384.588 Q195.575 383.847 197.89 383.477 Q200.228 383.106 202.288 383.106 Q207.612 383.106 210.714 385.537 Q213.816 387.944 213.816 392.065 Q213.816 394.935 212.173 396.926 Q210.529 398.893 207.497 399.657 Z" fill="#000000" fill-rule="nonzero" fill-opacity="1" /><path clip-path="url(#clip430)" d="M156.965 264.757 Q153.353 264.757 151.525 268.322 Q149.719 271.863 149.719 278.993 Q149.719 286.099 151.525 289.664 Q153.353 293.206 156.965 293.206 Q160.599 293.206 162.404 289.664 Q164.233 286.099 164.233 278.993 Q164.233 271.863 162.404 268.322 Q160.599 264.757 156.965 264.757 M156.965 261.053 Q162.775 261.053 165.83 265.66 Q168.909 270.243 168.909 278.993 Q168.909 287.72 165.83 292.326 Q162.775 296.909 156.965 296.909 Q151.154 296.909 148.076 292.326 Q145.02 287.72 145.02 278.993 Q145.02 270.243 148.076 265.66 Q151.154 261.053 156.965 261.053 Z" fill="#000000" fill-rule="nonzero" fill-opacity="1" /><path clip-path="url(#clip430)" d="M177.126 290.359 L182.011 290.359 L182.011 296.238 L177.126 296.238 L177.126 290.359 Z" fill="#000000" fill-rule="nonzero" fill-opacity="1" /><path clip-path="url(#clip430)" d="M205.043 265.752 L193.237 284.201 L205.043 284.201 L205.043 265.752 M203.816 261.678 L209.696 261.678 L209.696 284.201 L214.626 284.201 L214.626 288.09 L209.696 288.09 L209.696 296.238 L205.043 296.238 L205.043 288.09 L189.441 288.09 L189.441 283.576 L203.816 261.678 Z" fill="#000000" fill-rule="nonzero" fill-opacity="1" /><path clip-path="url(#clip430)" d="M158.446 142.704 Q154.835 142.704 153.006 146.268 Q151.201 149.81 151.201 156.94 Q151.201 164.046 153.006 167.611 Q154.835 171.152 158.446 171.152 Q162.08 171.152 163.886 167.611 Q165.714 164.046 165.714 156.94 Q165.714 149.81 163.886 146.268 Q162.08 142.704 158.446 142.704 M158.446 139 Q164.256 139 167.312 143.606 Q170.39 148.19 170.39 156.94 Q170.39 165.666 167.312 170.273 Q164.256 174.856 158.446 174.856 Q152.636 174.856 149.557 170.273 Q146.502 165.666 146.502 156.94 Q146.502 148.19 149.557 143.606 Q152.636 139 158.446 139 Z" fill="#000000" fill-rule="nonzero" fill-opacity="1" /><path clip-path="url(#clip430)" d="M178.608 168.305 L183.492 168.305 L183.492 174.185 L178.608 174.185 L178.608 168.305 Z" fill="#000000" fill-rule="nonzero" fill-opacity="1" /><path clip-path="url(#clip430)" d="M193.724 139.625 L212.08 139.625 L212.08 143.56 L198.006 143.56 L198.006 152.032 Q199.024 151.685 200.043 151.523 Q201.062 151.338 202.08 151.338 Q207.867 151.338 211.247 154.509 Q214.626 157.68 214.626 163.097 Q214.626 168.676 211.154 171.777 Q207.682 174.856 201.362 174.856 Q199.187 174.856 196.918 174.486 Q194.673 174.115 192.265 173.375 L192.265 168.676 Q194.349 169.81 196.571 170.365 Q198.793 170.921 201.27 170.921 Q205.274 170.921 207.612 168.815 Q209.95 166.708 209.95 163.097 Q209.95 159.486 207.612 157.379 Q205.274 155.273 201.27 155.273 Q199.395 155.273 197.52 155.69 Q195.668 156.106 193.724 156.986 L193.724 139.625 Z" fill="#000000" fill-rule="nonzero" fill-opacity="1" /><path clip-path="url(#clip430)" d="M68.2442 581.895 L68.2442 554.586 L73.655 554.586 L73.655 575.466 L87.6596 575.466 L87.6596 556.624 L93.0704 556.624 L93.0704 575.466 L115.764 575.466 L115.764 581.895 L68.2442 581.895 Z" fill="#000000" fill-rule="nonzero" fill-opacity="1" /><path clip-path="url(#clip430)" d="M85.5907 528.742 Q85.0178 529.728 84.7632 530.906 Q84.4767 532.052 84.4767 533.452 Q84.4767 538.418 87.7232 541.091 Q90.9379 543.733 96.9853 543.733 L115.764 543.733 L115.764 549.621 L80.1162 549.621 L80.1162 543.733 L85.6544 543.733 Q82.4079 541.887 80.8483 538.927 Q79.2568 535.967 79.2568 531.734 Q79.2568 531.129 79.3523 530.397 Q79.416 529.665 79.5751 528.774 L85.5907 528.742 Z" fill="#000000" fill-rule="nonzero" fill-opacity="1" /><path clip-path="url(#clip430)" d="M96.4761 493.539 L99.3406 493.539 L99.3406 520.466 Q105.388 520.084 108.571 516.838 Q111.722 513.56 111.722 507.735 Q111.722 504.361 110.894 501.21 Q110.067 498.027 108.412 494.908 L113.95 494.908 Q115.287 498.059 115.987 501.369 Q116.687 504.679 116.687 508.085 Q116.687 516.615 111.722 521.612 Q106.757 526.577 98.2903 526.577 Q89.5374 526.577 84.4131 521.867 Q79.2568 517.124 79.2568 509.104 Q79.2568 501.91 83.9038 497.741 Q88.5189 493.539 96.4761 493.539 M94.7573 499.396 Q89.9512 499.459 87.0866 502.101 Q84.2221 504.711 84.2221 509.04 Q84.2221 513.941 86.9912 516.902 Q89.7602 519.83 94.7892 520.275 L94.7573 499.396 Z" fill="#000000" fill-rule="nonzero" fill-opacity="1" /><path clip-path="url(#clip430)" d="M97.972 480.426 Q104.433 480.426 108.125 477.784 Q111.786 475.111 111.786 470.464 Q111.786 465.817 108.125 463.143 Q104.433 460.47 97.972 460.47 Q91.5108 460.47 87.8505 463.143 Q84.1584 465.817 84.1584 470.464 Q84.1584 475.111 87.8505 477.784 Q91.5108 480.426 97.972 480.426 M110.417 460.47 Q113.6 462.316 115.159 465.148 Q116.687 467.949 116.687 471.896 Q116.687 478.357 111.531 482.431 Q106.375 486.473 97.972 486.473 Q89.5693 486.473 84.4131 482.431 Q79.2568 478.357 79.2568 471.896 Q79.2568 467.949 80.8164 465.148 Q82.3442 462.316 85.5271 460.47 L80.1162 460.47 L80.1162 454.613 L129.323 454.613 L129.323 460.47 L110.417 460.47 Z" fill="#000000" fill-rule="nonzero" fill-opacity="1" /><path clip-path="url(#clip430)" d="M101.696 443.155 L80.1162 443.155 L80.1162 437.298 L101.473 437.298 Q106.534 437.298 109.08 435.325 Q111.595 433.352 111.595 429.405 Q111.595 424.662 108.571 421.925 Q105.547 419.156 100.327 419.156 L80.1162 419.156 L80.1162 413.3 L115.764 413.3 L115.764 419.156 L110.29 419.156 Q113.536 421.289 115.128 424.121 Q116.687 426.922 116.687 430.646 Q116.687 436.789 112.868 439.972 Q109.048 443.155 101.696 443.155 M79.2568 428.418 L79.2568 428.418 Z" fill="#000000" fill-rule="nonzero" fill-opacity="1" /><path clip-path="url(#clip430)" d="M96.4761 370.745 L99.3406 370.745 L99.3406 397.672 Q105.388 397.29 108.571 394.043 Q111.722 390.765 111.722 384.94 Q111.722 381.567 110.894 378.416 Q110.067 375.233 108.412 372.114 L113.95 372.114 Q115.287 375.265 115.987 378.575 Q116.687 381.885 116.687 385.291 Q116.687 393.821 111.722 398.818 Q106.757 403.783 98.2903 403.783 Q89.5374 403.783 84.4131 399.072 Q79.2568 394.33 79.2568 386.309 Q79.2568 379.116 83.9038 374.946 Q88.5189 370.745 96.4761 370.745 M94.7573 376.601 Q89.9512 376.665 87.0866 379.307 Q84.2221 381.917 84.2221 386.245 Q84.2221 391.147 86.9912 394.107 Q89.7602 397.035 94.7892 397.481 L94.7573 376.601 Z" fill="#000000" fill-rule="nonzero" fill-opacity="1" /><path clip-path="url(#clip430)" d="M94.2481 331.5 L115.764 331.5 L115.764 337.357 L94.439 337.357 Q89.3783 337.357 86.8638 339.33 Q84.3494 341.303 84.3494 345.25 Q84.3494 349.993 87.3731 352.73 Q90.3968 355.467 95.6167 355.467 L115.764 355.467 L115.764 361.355 L80.1162 361.355 L80.1162 355.467 L85.6544 355.467 Q82.4397 353.367 80.8483 350.534 Q79.2568 347.669 79.2568 343.945 Q79.2568 337.802 83.0763 334.651 Q86.8638 331.5 94.2481 331.5 Z" fill="#000000" fill-rule="nonzero" fill-opacity="1" /><path clip-path="url(#clip430)" d="M81.4848 294.165 L86.9593 294.165 Q85.5907 296.648 84.9223 299.163 Q84.2221 301.645 84.2221 304.191 Q84.2221 309.889 87.8505 313.04 Q91.4472 316.191 97.972 316.191 Q104.497 316.191 108.125 313.04 Q111.722 309.889 111.722 304.191 Q111.722 301.645 111.054 299.163 Q110.353 296.648 108.985 294.165 L114.396 294.165 Q115.541 296.616 116.114 299.258 Q116.687 301.868 116.687 304.828 Q116.687 312.881 111.626 317.623 Q106.566 322.366 97.972 322.366 Q89.251 322.366 84.2539 317.591 Q79.2568 312.785 79.2568 304.446 Q79.2568 301.741 79.8297 299.163 Q80.3708 296.584 81.4848 294.165 Z" fill="#000000" fill-rule="nonzero" fill-opacity="1" /><path clip-path="url(#clip430)" d="M119.074 269.148 Q125.44 271.631 127.382 273.986 Q129.323 276.341 129.323 280.288 L129.323 284.967 L124.422 284.967 L124.422 281.53 Q124.422 279.111 123.276 277.774 Q122.13 276.437 117.865 274.814 L115.191 273.763 L80.1162 288.182 L80.1162 281.975 L107.998 270.835 L80.1162 259.695 L80.1162 253.489 L119.074 269.148 Z" fill="#000000" fill-rule="nonzero" fill-opacity="1" /><path clip-path="url(#clip432)" d="M250.092 767.171 L250.092 750.084 L278.517 750.084 L278.517 466.106 L306.942 466.106 L306.942 575.141 L335.367 575.141 L335.367 567.817 L363.792 567.817 L363.792 684.175 L392.217 684.175 L392.217 735.437 L420.642 735.437 L420.642 737.065 L449.067 737.065 L449.067 702.076 L477.491 702.076 L477.491 666.274 L505.916 666.274 L505.916 688.243 L534.341 688.243 L534.341 704.517 L562.766 704.517 L562.766 737.065 L591.191 737.065 L591.191 754.152 L619.616 754.152 L619.616 758.221 L648.041 758.221 L648.041 762.289 L676.466 762.289 L676.466 766.357 L704.891 766.357 L704.891 766.357 L733.316 766.357 L733.316 767.171 L761.741 767.171 L761.741 767.171 L790.165 767.171 L790.165 767.171 L818.59 767.171 L818.59 767.171 L847.015 767.171 L847.015 767.171 L875.44 767.171 L875.44 767.171 L903.865 767.171 L903.865 767.171 L932.29 767.171 L932.29 767.171 L903.865 767.171 L903.865 767.171 L875.44 767.171 L875.44 767.171 L847.015 767.171 L847.015 767.171 L818.59 767.171 L818.59 767.171 L790.165 767.171 L790.165 767.171 L761.741 767.171 L761.741 767.171 L733.316 767.171 L733.316 767.171 L704.891 767.171 L704.891 767.171 L676.466 767.171 L676.466 767.171 L648.041 767.171 L648.041 767.171 L619.616 767.171 L619.616 767.171 L591.191 767.171 L591.191 767.171 L562.766 767.171 L562.766 767.171 L534.341 767.171 L534.341 767.171 L505.916 767.171 L505.916 767.171 L477.491 767.171 L477.491 767.171 L449.067 767.171 L449.067 767.171 L420.642 767.171 L420.642 767.171 L392.217 767.171 L392.217 767.171 L363.792 767.171 L363.792 767.171 L335.367 767.171 L335.367 767.171 L306.942 767.171 L306.942 767.171 L278.517 767.171 L278.517 767.171 L250.092 767.171 L250.092 767.171  Z" fill="#377db8" fill-rule="evenodd" fill-opacity="0.5"/>
<polyline clip-path="url(#clip432)" style="stroke:#377db8; stroke-linecap:round; stroke-linejoin:round; stroke-width:4; stroke-opacity:0.5; fill:none" points="250.092,767.171 250.092,750.084 278.517,750.084 278.517,466.106 306.942,466.106 306.942,575.141 335.367,575.141 335.367,567.817 363.792,567.817 363.792,684.175 392.217,684.175 392.217,735.437 420.642,735.437 420.642,737.065 449.067,737.065 449.067,702.076 477.491,702.076 477.491,666.274 505.916,666.274 505.916,688.243 534.341,688.243 534.341,704.517 562.766,704.517 562.766,737.065 591.191,737.065 591.191,754.152 619.616,754.152 619.616,758.221 648.041,758.221 648.041,762.289 676.466,762.289 676.466,766.357 704.891,766.357 733.316,766.357 733.316,767.171 761.741,767.171 790.165,767.171 818.59,767.171 847.015,767.171 875.44,767.171 903.865,767.171 932.29,767.171 "/>
<path clip-path="url(#clip432)" d="M250.092 767.171 L250.092 68.2128 L278.517 68.2128 L278.517 670.342 L306.942 670.342 L306.942 742.76 L335.367 742.76 L335.367 756.593 L363.792 756.593 L363.792 758.221 L392.217 758.221 L392.217 747.643 L420.642 747.643 L420.642 754.152 L449.067 754.152 L449.067 749.27 L477.491 749.27 L477.491 739.506 L505.916 739.506 L505.916 739.506 L534.341 739.506 L534.341 732.996 L562.766 732.996 L562.766 738.692 L591.191 738.692 L591.191 739.506 L619.616 739.506 L619.616 744.388 L648.041 744.388 L648.041 741.947 L676.466 741.947 L676.466 757.407 L704.891 757.407 L704.891 742.76 L733.316 742.76 L733.316 750.084 L761.741 750.084 L761.741 750.084 L790.165 750.084 L790.165 752.525 L818.59 752.525 L818.59 753.338 L847.015 753.338 L847.015 760.662 L875.44 760.662 L875.44 759.034 L903.865 759.034 L903.865 763.916 L932.29 763.916 L932.29 767.171 L932.29 767.171 L932.29 767.171 L903.865 767.171 L903.865 767.171 L875.44 767.171 L875.44 767.171 L847.015 767.171 L847.015 767.171 L818.59 767.171 L818.59 767.171 L790.165 767.171 L790.165 767.171 L761.741 767.171 L761.741 767.171 L733.316 767.171 L733.316 767.171 L704.891 767.171 L704.891 767.171 L676.466 767.171 L676.466 767.171 L648.041 767.171 L648.041 767.171 L619.616 767.171 L619.616 767.171 L591.191 767.171 L591.191 767.171 L562.766 767.171 L562.766 767.171 L534.341 767.171 L534.341 767.171 L505.916 767.171 L505.916 767.171 L477.491 767.171 L477.491 767.171 L449.067 767.171 L449.067 767.171 L420.642 767.171 L420.642 767.171 L392.217 767.171 L392.217 767.171 L363.792 767.171 L363.792 767.171 L335.367 767.171 L335.367 767.171 L306.942 767.171 L306.942 767.171 L278.517 767.171 L278.517 767.171 L250.092 767.171 L250.092 767.171  Z" fill="#e31a1c" fill-rule="evenodd" fill-opacity="0.5"/>
<polyline clip-path="url(#clip432)" style="stroke:#e31a1c; stroke-linecap:round; stroke-linejoin:round; stroke-width:4; stroke-opacity:0.5; fill:none" points="250.092,767.171 250.092,68.2128 278.517,68.2128 278.517,670.342 306.942,670.342 306.942,742.76 335.367,742.76 335.367,756.593 363.792,756.593 363.792,758.221 392.217,758.221 392.217,747.643 420.642,747.643 420.642,754.152 449.067,754.152 449.067,749.27 477.491,749.27 477.491,739.506 505.916,739.506 534.341,739.506 534.341,732.996 562.766,732.996 562.766,738.692 591.191,738.692 591.191,739.506 619.616,739.506 619.616,744.388 648.041,744.388 648.041,741.947 676.466,741.947 676.466,757.407 704.891,757.407 704.891,742.76 733.316,742.76 733.316,750.084 761.741,750.084 790.165,750.084 790.165,752.525 818.59,752.525 818.59,753.338 847.015,753.338 847.015,760.662 875.44,760.662 875.44,759.034 903.865,759.034 903.865,763.916 932.29,763.916 932.29,767.171 "/>
<path clip-path="url(#clip430)" d="M482.799 227.461 L928.652 227.461 L928.652 71.9406 L482.799 71.9406  Z" fill="#ffffff" fill-rule="evenodd" fill-opacity="1"/>
<polyline clip-path="url(#clip430)" style="stroke:#000000; stroke-linecap:round; stroke-linejoin:round; stroke-width:4; stroke-opacity:1; fill:none" points="482.799,227.461 928.652,227.461 928.652,71.9406 482.799,71.9406 482.799,227.461 "/>
<path clip-path="url(#clip430)" d="M490.834 144.517 L539.042 144.517 L539.042 103.045 L490.834 103.045 L490.834 144.517  Z" fill="#377db8" fill-rule="evenodd" fill-opacity="0.5"/>
<polyline clip-path="url(#clip430)" style="stroke:#377db8; stroke-linecap:round; stroke-linejoin:round; stroke-width:4; stroke-opacity:0.5; fill:none" points="490.834,103.045 539.042,103.045 "/>
<path clip-path="url(#clip430)" d="M551.753 124.556 L551.753 137.218 L559.253 137.218 Q563.026 137.218 564.832 135.667 Q566.66 134.093 566.66 130.875 Q566.66 127.635 564.832 126.107 Q563.026 124.556 559.253 124.556 L551.753 124.556 M551.753 110.343 L551.753 120.76 L558.674 120.76 Q562.1 120.76 563.767 119.487 Q565.457 118.19 565.457 115.551 Q565.457 112.936 563.767 111.639 Q562.1 110.343 558.674 110.343 L551.753 110.343 M547.077 106.501 L559.022 106.501 Q564.369 106.501 567.262 108.723 Q570.156 110.945 570.156 115.042 Q570.156 118.214 568.674 120.089 Q567.193 121.963 564.322 122.426 Q567.771 123.167 569.67 125.528 Q571.591 127.866 571.591 131.385 Q571.591 136.014 568.443 138.537 Q565.295 141.061 559.484 141.061 L547.077 141.061 L547.077 106.501 Z" fill="#000000" fill-rule="nonzero" fill-opacity="1" /><path clip-path="url(#clip430)" d="M579.415 115.135 L583.674 115.135 L583.674 141.061 L579.415 141.061 L579.415 115.135 M579.415 105.042 L583.674 105.042 L583.674 110.436 L579.415 110.436 L579.415 105.042 Z" fill="#000000" fill-rule="nonzero" fill-opacity="1" /><path clip-path="url(#clip430)" d="M609.114 115.899 L609.114 119.926 Q607.308 119.001 605.364 118.538 Q603.419 118.075 601.336 118.075 Q598.165 118.075 596.568 119.047 Q594.994 120.019 594.994 121.963 Q594.994 123.445 596.128 124.301 Q597.262 125.135 600.688 125.899 L602.146 126.223 Q606.683 127.195 608.581 128.977 Q610.503 130.737 610.503 133.908 Q610.503 137.519 607.632 139.625 Q604.785 141.732 599.785 141.732 Q597.702 141.732 595.433 141.315 Q593.188 140.922 590.688 140.112 L590.688 135.713 Q593.049 136.94 595.341 137.565 Q597.632 138.167 599.878 138.167 Q602.887 138.167 604.507 137.149 Q606.128 136.107 606.128 134.232 Q606.128 132.496 604.947 131.57 Q603.79 130.644 599.831 129.788 L598.35 129.44 Q594.392 128.607 592.632 126.894 Q590.873 125.158 590.873 122.149 Q590.873 118.491 593.466 116.501 Q596.058 114.51 600.827 114.51 Q603.188 114.51 605.271 114.857 Q607.355 115.204 609.114 115.899 Z" fill="#000000" fill-rule="nonzero" fill-opacity="1" /><path clip-path="url(#clip430)" d="M621.498 107.774 L621.498 115.135 L630.271 115.135 L630.271 118.445 L621.498 118.445 L621.498 132.519 Q621.498 135.69 622.355 136.593 Q623.234 137.496 625.896 137.496 L630.271 137.496 L630.271 141.061 L625.896 141.061 Q620.966 141.061 619.091 139.232 Q617.216 137.38 617.216 132.519 L617.216 118.445 L614.091 118.445 L614.091 115.135 L617.216 115.135 L617.216 107.774 L621.498 107.774 Z" fill="#000000" fill-rule="nonzero" fill-opacity="1" /><path clip-path="url(#clip430)" d="M645.919 118.121 Q642.493 118.121 640.503 120.806 Q638.512 123.468 638.512 128.121 Q638.512 132.774 640.479 135.459 Q642.47 138.121 645.919 138.121 Q649.322 138.121 651.313 135.436 Q653.303 132.75 653.303 128.121 Q653.303 123.514 651.313 120.829 Q649.322 118.121 645.919 118.121 M645.919 114.51 Q651.475 114.51 654.646 118.121 Q657.817 121.732 657.817 128.121 Q657.817 134.487 654.646 138.121 Q651.475 141.732 645.919 141.732 Q640.341 141.732 637.169 138.121 Q634.021 134.487 634.021 128.121 Q634.021 121.732 637.169 118.121 Q640.341 114.51 645.919 114.51 Z" fill="#000000" fill-rule="nonzero" fill-opacity="1" /><path clip-path="url(#clip430)" d="M683.535 116.13 L683.535 120.112 Q681.729 119.116 679.901 118.63 Q678.095 118.121 676.243 118.121 Q672.1 118.121 669.808 120.76 Q667.516 123.376 667.516 128.121 Q667.516 132.866 669.808 135.505 Q672.1 138.121 676.243 138.121 Q678.095 138.121 679.901 137.635 Q681.729 137.125 683.535 136.13 L683.535 140.065 Q681.752 140.899 679.831 141.315 Q677.933 141.732 675.78 141.732 Q669.924 141.732 666.475 138.051 Q663.026 134.371 663.026 128.121 Q663.026 121.778 666.498 118.144 Q669.993 114.51 676.058 114.51 Q678.026 114.51 679.901 114.927 Q681.775 115.32 683.535 116.13 Z" fill="#000000" fill-rule="nonzero" fill-opacity="1" /><path clip-path="url(#clip430)" d="M712.493 125.413 L712.493 141.061 L708.234 141.061 L708.234 125.551 Q708.234 121.871 706.799 120.042 Q705.363 118.214 702.493 118.214 Q699.044 118.214 697.053 120.413 Q695.062 122.612 695.062 126.408 L695.062 141.061 L690.78 141.061 L690.78 105.042 L695.062 105.042 L695.062 119.163 Q696.59 116.825 698.65 115.667 Q700.734 114.51 703.442 114.51 Q707.91 114.51 710.201 117.288 Q712.493 120.042 712.493 125.413 Z" fill="#000000" fill-rule="nonzero" fill-opacity="1" /><path clip-path="url(#clip430)" d="M732.771 128.028 Q727.609 128.028 725.618 129.209 Q723.627 130.389 723.627 133.237 Q723.627 135.505 725.109 136.848 Q726.613 138.167 729.183 138.167 Q732.724 138.167 734.854 135.667 Q737.007 133.144 737.007 128.977 L737.007 128.028 L732.771 128.028 M741.266 126.269 L741.266 141.061 L737.007 141.061 L737.007 137.125 Q735.548 139.487 733.372 140.621 Q731.197 141.732 728.048 141.732 Q724.067 141.732 721.706 139.51 Q719.368 137.264 719.368 133.514 Q719.368 129.139 722.285 126.917 Q725.224 124.695 731.034 124.695 L737.007 124.695 L737.007 124.278 Q737.007 121.339 735.062 119.741 Q733.141 118.121 729.646 118.121 Q727.423 118.121 725.317 118.653 Q723.21 119.186 721.266 120.251 L721.266 116.315 Q723.604 115.413 725.803 114.973 Q728.002 114.51 730.085 114.51 Q735.71 114.51 738.488 117.426 Q741.266 120.343 741.266 126.269 Z" fill="#000000" fill-rule="nonzero" fill-opacity="1" /><path clip-path="url(#clip430)" d="M766.567 115.899 L766.567 119.926 Q764.761 119.001 762.817 118.538 Q760.872 118.075 758.789 118.075 Q755.618 118.075 754.02 119.047 Q752.446 120.019 752.446 121.963 Q752.446 123.445 753.581 124.301 Q754.715 125.135 758.141 125.899 L759.599 126.223 Q764.136 127.195 766.034 128.977 Q767.956 130.737 767.956 133.908 Q767.956 137.519 765.085 139.625 Q762.238 141.732 757.238 141.732 Q755.155 141.732 752.886 141.315 Q750.641 140.922 748.141 140.112 L748.141 135.713 Q750.502 136.94 752.794 137.565 Q755.085 138.167 757.331 138.167 Q760.34 138.167 761.96 137.149 Q763.581 136.107 763.581 134.232 Q763.581 132.496 762.4 131.57 Q761.243 130.644 757.284 129.788 L755.803 129.44 Q751.845 128.607 750.085 126.894 Q748.326 125.158 748.326 122.149 Q748.326 118.491 750.919 116.501 Q753.511 114.51 758.28 114.51 Q760.641 114.51 762.724 114.857 Q764.807 115.204 766.567 115.899 Z" fill="#000000" fill-rule="nonzero" fill-opacity="1" /><path clip-path="url(#clip430)" d="M778.951 107.774 L778.951 115.135 L787.724 115.135 L787.724 118.445 L778.951 118.445 L778.951 132.519 Q778.951 135.69 779.807 136.593 Q780.687 137.496 783.349 137.496 L787.724 137.496 L787.724 141.061 L783.349 141.061 Q778.418 141.061 776.544 139.232 Q774.669 137.38 774.669 132.519 L774.669 118.445 L771.544 118.445 L771.544 115.135 L774.669 115.135 L774.669 107.774 L778.951 107.774 Z" fill="#000000" fill-rule="nonzero" fill-opacity="1" /><path clip-path="url(#clip430)" d="M793.326 115.135 L797.585 115.135 L797.585 141.061 L793.326 141.061 L793.326 115.135 M793.326 105.042 L797.585 105.042 L797.585 110.436 L793.326 110.436 L793.326 105.042 Z" fill="#000000" fill-rule="nonzero" fill-opacity="1" /><path clip-path="url(#clip430)" d="M825.154 116.13 L825.154 120.112 Q823.349 119.116 821.52 118.63 Q819.715 118.121 817.863 118.121 Q813.719 118.121 811.428 120.76 Q809.136 123.376 809.136 128.121 Q809.136 132.866 811.428 135.505 Q813.719 138.121 817.863 138.121 Q819.715 138.121 821.52 137.635 Q823.349 137.125 825.154 136.13 L825.154 140.065 Q823.372 140.899 821.451 141.315 Q819.553 141.732 817.4 141.732 Q811.543 141.732 808.094 138.051 Q804.645 134.371 804.645 128.121 Q804.645 121.778 808.117 118.144 Q811.613 114.51 817.678 114.51 Q819.645 114.51 821.52 114.927 Q823.395 115.32 825.154 116.13 Z" fill="#000000" fill-rule="nonzero" fill-opacity="1" /><path clip-path="url(#clip430)" d="M847.816 106.501 L852.492 106.501 L852.492 137.125 L869.321 137.125 L869.321 141.061 L847.816 141.061 L847.816 106.501 Z" fill="#000000" fill-rule="nonzero" fill-opacity="1" /><path clip-path="url(#clip430)" d="M878.673 137.125 L894.992 137.125 L894.992 141.061 L873.048 141.061 L873.048 137.125 Q875.71 134.371 880.293 129.741 Q884.899 125.088 886.08 123.746 Q888.325 121.223 889.205 119.487 Q890.108 117.727 890.108 116.038 Q890.108 113.283 888.163 111.547 Q886.242 109.811 883.14 109.811 Q880.941 109.811 878.487 110.575 Q876.057 111.339 873.279 112.889 L873.279 108.167 Q876.103 107.033 878.557 106.454 Q881.011 105.876 883.048 105.876 Q888.418 105.876 891.612 108.561 Q894.807 111.246 894.807 115.737 Q894.807 117.866 893.997 119.788 Q893.21 121.686 891.103 124.278 Q890.524 124.95 887.423 128.167 Q884.321 131.362 878.673 137.125 Z" fill="#000000" fill-rule="nonzero" fill-opacity="1" /><path clip-path="url(#clip430)" d="M490.834 196.357 L539.042 196.357 L539.042 154.885 L490.834 154.885 L490.834 196.357  Z" fill="#e31a1c" fill-rule="evenodd" fill-opacity="0.5"/>
<polyline clip-path="url(#clip430)" style="stroke:#e31a1c; stroke-linecap:round; stroke-linejoin:round; stroke-width:4; stroke-opacity:0.5; fill:none" points="490.834,154.885 539.042,154.885 "/>
<path clip-path="url(#clip430)" d="M551.753 176.396 L551.753 189.058 L559.253 189.058 Q563.026 189.058 564.832 187.507 Q566.66 185.933 566.66 182.715 Q566.66 179.475 564.832 177.947 Q563.026 176.396 559.253 176.396 L551.753 176.396 M551.753 162.183 L551.753 172.6 L558.674 172.6 Q562.1 172.6 563.767 171.327 Q565.457 170.03 565.457 167.391 Q565.457 164.776 563.767 163.479 Q562.1 162.183 558.674 162.183 L551.753 162.183 M547.077 158.341 L559.022 158.341 Q564.369 158.341 567.262 160.563 Q570.156 162.785 570.156 166.882 Q570.156 170.054 568.674 171.929 Q567.193 173.803 564.322 174.266 Q567.771 175.007 569.67 177.368 Q571.591 179.706 571.591 183.225 Q571.591 187.854 568.443 190.377 Q565.295 192.901 559.484 192.901 L547.077 192.901 L547.077 158.341 Z" fill="#000000" fill-rule="nonzero" fill-opacity="1" /><path clip-path="url(#clip430)" d="M579.415 166.975 L583.674 166.975 L583.674 192.901 L579.415 192.901 L579.415 166.975 M579.415 156.882 L583.674 156.882 L583.674 162.276 L579.415 162.276 L579.415 156.882 Z" fill="#000000" fill-rule="nonzero" fill-opacity="1" /><path clip-path="url(#clip430)" d="M609.114 167.739 L609.114 171.766 Q607.308 170.841 605.364 170.378 Q603.419 169.915 601.336 169.915 Q598.165 169.915 596.568 170.887 Q594.994 171.859 594.994 173.803 Q594.994 175.285 596.128 176.141 Q597.262 176.975 600.688 177.739 L602.146 178.063 Q606.683 179.035 608.581 180.817 Q610.503 182.577 610.503 185.748 Q610.503 189.359 607.632 191.465 Q604.785 193.572 599.785 193.572 Q597.702 193.572 595.433 193.155 Q593.188 192.762 590.688 191.952 L590.688 187.553 Q593.049 188.78 595.341 189.405 Q597.632 190.007 599.878 190.007 Q602.887 190.007 604.507 188.989 Q606.128 187.947 606.128 186.072 Q606.128 184.336 604.947 183.41 Q603.79 182.484 599.831 181.628 L598.35 181.28 Q594.392 180.447 592.632 178.734 Q590.873 176.998 590.873 173.989 Q590.873 170.331 593.466 168.341 Q596.058 166.35 600.827 166.35 Q603.188 166.35 605.271 166.697 Q607.355 167.044 609.114 167.739 Z" fill="#000000" fill-rule="nonzero" fill-opacity="1" /><path clip-path="url(#clip430)" d="M621.498 159.614 L621.498 166.975 L630.271 166.975 L630.271 170.285 L621.498 170.285 L621.498 184.359 Q621.498 187.53 622.355 188.433 Q623.234 189.336 625.896 189.336 L630.271 189.336 L630.271 192.901 L625.896 192.901 Q620.966 192.901 619.091 191.072 Q617.216 189.22 617.216 184.359 L617.216 170.285 L614.091 170.285 L614.091 166.975 L617.216 166.975 L617.216 159.614 L621.498 159.614 Z" fill="#000000" fill-rule="nonzero" fill-opacity="1" /><path clip-path="url(#clip430)" d="M645.919 169.961 Q642.493 169.961 640.503 172.646 Q638.512 175.308 638.512 179.961 Q638.512 184.614 640.479 187.299 Q642.47 189.961 645.919 189.961 Q649.322 189.961 651.313 187.276 Q653.303 184.59 653.303 179.961 Q653.303 175.354 651.313 172.669 Q649.322 169.961 645.919 169.961 M645.919 166.35 Q651.475 166.35 654.646 169.961 Q657.817 173.572 657.817 179.961 Q657.817 186.327 654.646 189.961 Q651.475 193.572 645.919 193.572 Q640.341 193.572 637.169 189.961 Q634.021 186.327 634.021 179.961 Q634.021 173.572 637.169 169.961 Q640.341 166.35 645.919 166.35 Z" fill="#000000" fill-rule="nonzero" fill-opacity="1" /><path clip-path="url(#clip430)" d="M683.535 167.97 L683.535 171.952 Q681.729 170.956 679.901 170.47 Q678.095 169.961 676.243 169.961 Q672.1 169.961 669.808 172.6 Q667.516 175.216 667.516 179.961 Q667.516 184.706 669.808 187.345 Q672.1 189.961 676.243 189.961 Q678.095 189.961 679.901 189.475 Q681.729 188.965 683.535 187.97 L683.535 191.905 Q681.752 192.739 679.831 193.155 Q677.933 193.572 675.78 193.572 Q669.924 193.572 666.475 189.891 Q663.026 186.211 663.026 179.961 Q663.026 173.618 666.498 169.984 Q669.993 166.35 676.058 166.35 Q678.026 166.35 679.901 166.767 Q681.775 167.16 683.535 167.97 Z" fill="#000000" fill-rule="nonzero" fill-opacity="1" /><path clip-path="url(#clip430)" d="M712.493 177.253 L712.493 192.901 L708.234 192.901 L708.234 177.391 Q708.234 173.711 706.799 171.882 Q705.363 170.054 702.493 170.054 Q699.044 170.054 697.053 172.253 Q695.062 174.452 695.062 178.248 L695.062 192.901 L690.78 192.901 L690.78 156.882 L695.062 156.882 L695.062 171.003 Q696.59 168.665 698.65 167.507 Q700.734 166.35 703.442 166.35 Q707.91 166.35 710.201 169.128 Q712.493 171.882 712.493 177.253 Z" fill="#000000" fill-rule="nonzero" fill-opacity="1" /><path clip-path="url(#clip430)" d="M732.771 179.868 Q727.609 179.868 725.618 181.049 Q723.627 182.229 723.627 185.077 Q723.627 187.345 725.109 188.688 Q726.613 190.007 729.183 190.007 Q732.724 190.007 734.854 187.507 Q737.007 184.984 737.007 180.817 L737.007 179.868 L732.771 179.868 M741.266 178.109 L741.266 192.901 L737.007 192.901 L737.007 188.965 Q735.548 191.327 733.372 192.461 Q731.197 193.572 728.048 193.572 Q724.067 193.572 721.706 191.35 Q719.368 189.104 719.368 185.354 Q719.368 180.979 722.285 178.757 Q725.224 176.535 731.034 176.535 L737.007 176.535 L737.007 176.118 Q737.007 173.179 735.062 171.581 Q733.141 169.961 729.646 169.961 Q727.423 169.961 725.317 170.493 Q723.21 171.026 721.266 172.091 L721.266 168.155 Q723.604 167.253 725.803 166.813 Q728.002 166.35 730.085 166.35 Q735.71 166.35 738.488 169.266 Q741.266 172.183 741.266 178.109 Z" fill="#000000" fill-rule="nonzero" fill-opacity="1" /><path clip-path="url(#clip430)" d="M766.567 167.739 L766.567 171.766 Q764.761 170.841 762.817 170.378 Q760.872 169.915 758.789 169.915 Q755.618 169.915 754.02 170.887 Q752.446 171.859 752.446 173.803 Q752.446 175.285 753.581 176.141 Q754.715 176.975 758.141 177.739 L759.599 178.063 Q764.136 179.035 766.034 180.817 Q767.956 182.577 767.956 185.748 Q767.956 189.359 765.085 191.465 Q762.238 193.572 757.238 193.572 Q755.155 193.572 752.886 193.155 Q750.641 192.762 748.141 191.952 L748.141 187.553 Q750.502 188.78 752.794 189.405 Q755.085 190.007 757.331 190.007 Q760.34 190.007 761.96 188.989 Q763.581 187.947 763.581 186.072 Q763.581 184.336 762.4 183.41 Q761.243 182.484 757.284 181.628 L755.803 181.28 Q751.845 180.447 750.085 178.734 Q748.326 176.998 748.326 173.989 Q748.326 170.331 750.919 168.341 Q753.511 166.35 758.28 166.35 Q760.641 166.35 762.724 166.697 Q764.807 167.044 766.567 167.739 Z" fill="#000000" fill-rule="nonzero" fill-opacity="1" /><path clip-path="url(#clip430)" d="M778.951 159.614 L778.951 166.975 L787.724 166.975 L787.724 170.285 L778.951 170.285 L778.951 184.359 Q778.951 187.53 779.807 188.433 Q780.687 189.336 783.349 189.336 L787.724 189.336 L787.724 192.901 L783.349 192.901 Q778.418 192.901 776.544 191.072 Q774.669 189.22 774.669 184.359 L774.669 170.285 L771.544 170.285 L771.544 166.975 L774.669 166.975 L774.669 159.614 L778.951 159.614 Z" fill="#000000" fill-rule="nonzero" fill-opacity="1" /><path clip-path="url(#clip430)" d="M793.326 166.975 L797.585 166.975 L797.585 192.901 L793.326 192.901 L793.326 166.975 M793.326 156.882 L797.585 156.882 L797.585 162.276 L793.326 162.276 L793.326 156.882 Z" fill="#000000" fill-rule="nonzero" fill-opacity="1" /><path clip-path="url(#clip430)" d="M825.154 167.97 L825.154 171.952 Q823.349 170.956 821.52 170.47 Q819.715 169.961 817.863 169.961 Q813.719 169.961 811.428 172.6 Q809.136 175.216 809.136 179.961 Q809.136 184.706 811.428 187.345 Q813.719 189.961 817.863 189.961 Q819.715 189.961 821.52 189.475 Q823.349 188.965 825.154 187.97 L825.154 191.905 Q823.372 192.739 821.451 193.155 Q819.553 193.572 817.4 193.572 Q811.543 193.572 808.094 189.891 Q804.645 186.211 804.645 179.961 Q804.645 173.618 808.117 169.984 Q811.613 166.35 817.678 166.35 Q819.645 166.35 821.52 166.767 Q823.395 167.16 825.154 167.97 Z" fill="#000000" fill-rule="nonzero" fill-opacity="1" /><path clip-path="url(#clip430)" d="M847.816 158.341 L869.668 158.341 L869.668 162.276 L852.492 162.276 L852.492 172.507 L868.95 172.507 L868.95 176.442 L852.492 176.442 L852.492 188.965 L870.085 188.965 L870.085 192.901 L847.816 192.901 L847.816 158.341 Z" fill="#000000" fill-rule="nonzero" fill-opacity="1" /><path clip-path="url(#clip430)" d="M899.135 177.253 L899.135 192.901 L894.876 192.901 L894.876 177.391 Q894.876 173.711 893.441 171.882 Q892.006 170.054 889.135 170.054 Q885.686 170.054 883.696 172.253 Q881.705 174.452 881.705 178.248 L881.705 192.901 L877.423 192.901 L877.423 166.975 L881.705 166.975 L881.705 171.003 Q883.233 168.665 885.293 167.507 Q887.376 166.35 890.085 166.35 Q894.552 166.35 896.844 169.128 Q899.135 171.882 899.135 177.253 Z" fill="#000000" fill-rule="nonzero" fill-opacity="1" /><path clip-path="url(#clip430)" d="M911.844 159.614 L911.844 166.975 L920.617 166.975 L920.617 170.285 L911.844 170.285 L911.844 184.359 Q911.844 187.53 912.7 188.433 Q913.58 189.336 916.242 189.336 L920.617 189.336 L920.617 192.901 L916.242 192.901 Q911.311 192.901 909.436 191.072 Q907.561 189.22 907.561 184.359 L907.561 170.285 L904.436 170.285 L904.436 166.975 L907.561 166.975 L907.561 159.614 L911.844 159.614 Z" fill="#000000" fill-rule="nonzero" fill-opacity="1" /></svg>
