<?xml version="1.0" encoding="utf-8"?>
<svg xmlns="http://www.w3.org/2000/svg" xmlns:xlink="http://www.w3.org/1999/xlink" width="250" height="250" viewBox="0 0 1000 1000">
<defs>
  <clipPath id="clip390">
    <rect x="0" y="0" width="1000" height="1000"/>
  </clipPath>
</defs>
<path clip-path="url(#clip390)" d="M0 1000 L1000 1000 L1000 0 L0 0  Z" fill="#ffffff" fill-rule="evenodd" fill-opacity="1"/>
<defs>
  <clipPath id="clip391">
    <rect x="200" y="100" width="701" height="701"/>
  </clipPath>
</defs>
<path clip-path="url(#clip390)" d="M259.302 788.14 L952.756 788.14 L952.756 47.2441 L259.302 47.2441  Z" fill="#ffffff" fill-rule="evenodd" fill-opacity="1"/>
<defs>
  <clipPath id="clip392">
    <rect x="259" y="47" width="694" height="742"/>
  </clipPath>
</defs>
<polyline clip-path="url(#clip392)" style="stroke:#000000; stroke-linecap:round; stroke-linejoin:round; stroke-width:2; stroke-opacity:0.1; fill:none" points="278.928,788.14 278.928,47.2441 "/>
<polyline clip-path="url(#clip392)" style="stroke:#000000; stroke-linecap:round; stroke-linejoin:round; stroke-width:2; stroke-opacity:0.1; fill:none" points="442.479,788.14 442.479,47.2441 "/>
<polyline clip-path="url(#clip392)" style="stroke:#000000; stroke-linecap:round; stroke-linejoin:round; stroke-width:2; stroke-opacity:0.1; fill:none" points="606.029,788.14 606.029,47.2441 "/>
<polyline clip-path="url(#clip392)" style="stroke:#000000; stroke-linecap:round; stroke-linejoin:round; stroke-width:2; stroke-opacity:0.1; fill:none" points="769.579,788.14 769.579,47.2441 "/>
<polyline clip-path="url(#clip392)" style="stroke:#000000; stroke-linecap:round; stroke-linejoin:round; stroke-width:2; stroke-opacity:0.1; fill:none" points="933.13,788.14 933.13,47.2441 "/>
<polyline clip-path="url(#clip392)" style="stroke:#000000; stroke-linecap:round; stroke-linejoin:round; stroke-width:2; stroke-opacity:0.1; fill:none" points="259.302,767.171 952.756,767.171 "/>
<polyline clip-path="url(#clip392)" style="stroke:#000000; stroke-linecap:round; stroke-linejoin:round; stroke-width:2; stroke-opacity:0.1; fill:none" points="259.302,628.121 952.756,628.121 "/>
<polyline clip-path="url(#clip392)" style="stroke:#000000; stroke-linecap:round; stroke-linejoin:round; stroke-width:2; stroke-opacity:0.1; fill:none" points="259.302,489.071 952.756,489.071 "/>
<polyline clip-path="url(#clip392)" style="stroke:#000000; stroke-linecap:round; stroke-linejoin:round; stroke-width:2; stroke-opacity:0.1; fill:none" points="259.302,350.021 952.756,350.021 "/>
<polyline clip-path="url(#clip392)" style="stroke:#000000; stroke-linecap:round; stroke-linejoin:round; stroke-width:2; stroke-opacity:0.1; fill:none" points="259.302,210.971 952.756,210.971 "/>
<polyline clip-path="url(#clip392)" style="stroke:#000000; stroke-linecap:round; stroke-linejoin:round; stroke-width:2; stroke-opacity:0.1; fill:none" points="259.302,71.9208 952.756,71.9208 "/>
<polyline clip-path="url(#clip390)" style="stroke:#000000; stroke-linecap:round; stroke-linejoin:round; stroke-width:4; stroke-opacity:1; fill:none" points="259.302,788.14 952.756,788.14 "/>
<polyline clip-path="url(#clip390)" style="stroke:#000000; stroke-linecap:round; stroke-linejoin:round; stroke-width:4; stroke-opacity:1; fill:none" points="278.928,788.14 278.928,769.242 "/>
<polyline clip-path="url(#clip390)" style="stroke:#000000; stroke-linecap:round; stroke-linejoin:round; stroke-width:4; stroke-opacity:1; fill:none" points="442.479,788.14 442.479,769.242 "/>
<polyline clip-path="url(#clip390)" style="stroke:#000000; stroke-linecap:round; stroke-linejoin:round; stroke-width:4; stroke-opacity:1; fill:none" points="606.029,788.14 606.029,769.242 "/>
<polyline clip-path="url(#clip390)" style="stroke:#000000; stroke-linecap:round; stroke-linejoin:round; stroke-width:4; stroke-opacity:1; fill:none" points="769.579,788.14 769.579,769.242 "/>
<polyline clip-path="url(#clip390)" style="stroke:#000000; stroke-linecap:round; stroke-linejoin:round; stroke-width:4; stroke-opacity:1; fill:none" points="933.13,788.14 933.13,769.242 "/>
<path clip-path="url(#clip390)" d="M256.312 807.859 Q252.701 807.859 250.873 811.423 Q249.067 814.965 249.067 822.095 Q249.067 829.201 250.873 832.766 Q252.701 836.307 256.312 836.307 Q259.947 836.307 261.752 832.766 Q263.581 829.201 263.581 822.095 Q263.581 814.965 261.752 811.423 Q259.947 807.859 256.312 807.859 M256.312 804.155 Q262.123 804.155 265.178 808.761 Q268.257 813.345 268.257 822.095 Q268.257 830.821 265.178 835.428 Q262.123 840.011 256.312 840.011 Q250.502 840.011 247.424 835.428 Q244.368 830.821 244.368 822.095 Q244.368 813.345 247.424 808.761 Q250.502 804.155 256.312 804.155 Z" fill="#000000" fill-rule="nonzero" fill-opacity="1" /><path clip-path="url(#clip390)" d="M276.474 833.46 L281.359 833.46 L281.359 839.34 L276.474 839.34 L276.474 833.46 Z" fill="#000000" fill-rule="nonzero" fill-opacity="1" /><path clip-path="url(#clip390)" d="M301.544 807.859 Q297.933 807.859 296.104 811.423 Q294.298 814.965 294.298 822.095 Q294.298 829.201 296.104 832.766 Q297.933 836.307 301.544 836.307 Q305.178 836.307 306.983 832.766 Q308.812 829.201 308.812 822.095 Q308.812 814.965 306.983 811.423 Q305.178 807.859 301.544 807.859 M301.544 804.155 Q307.354 804.155 310.409 808.761 Q313.488 813.345 313.488 822.095 Q313.488 830.821 310.409 835.428 Q307.354 840.011 301.544 840.011 Q295.734 840.011 292.655 835.428 Q289.599 830.821 289.599 822.095 Q289.599 813.345 292.655 808.761 Q295.734 804.155 301.544 804.155 Z" fill="#000000" fill-rule="nonzero" fill-opacity="1" /><path clip-path="url(#clip390)" d="M420.361 807.859 Q416.749 807.859 414.921 811.423 Q413.115 814.965 413.115 822.095 Q413.115 829.201 414.921 832.766 Q416.749 836.307 420.361 836.307 Q423.995 836.307 425.8 832.766 Q427.629 829.201 427.629 822.095 Q427.629 814.965 425.8 811.423 Q423.995 807.859 420.361 807.859 M420.361 804.155 Q426.171 804.155 429.226 808.761 Q432.305 813.345 432.305 822.095 Q432.305 830.821 429.226 835.428 Q426.171 840.011 420.361 840.011 Q414.55 840.011 411.472 835.428 Q408.416 830.821 408.416 822.095 Q408.416 813.345 411.472 808.761 Q414.55 804.155 420.361 804.155 Z" fill="#000000" fill-rule="nonzero" fill-opacity="1" /><path clip-path="url(#clip390)" d="M440.523 833.46 L445.407 833.46 L445.407 839.34 L440.523 839.34 L440.523 833.46 Z" fill="#000000" fill-rule="nonzero" fill-opacity="1" /><path clip-path="url(#clip390)" d="M455.638 804.78 L473.995 804.78 L473.995 808.715 L459.921 808.715 L459.921 817.187 Q460.939 816.84 461.958 816.678 Q462.976 816.493 463.995 816.493 Q469.782 816.493 473.161 819.664 Q476.541 822.835 476.541 828.252 Q476.541 833.831 473.069 836.932 Q469.596 840.011 463.277 840.011 Q461.101 840.011 458.833 839.641 Q456.587 839.27 454.18 838.53 L454.18 833.831 Q456.263 834.965 458.485 835.52 Q460.708 836.076 463.184 836.076 Q467.189 836.076 469.527 833.97 Q471.865 831.863 471.865 828.252 Q471.865 824.641 469.527 822.534 Q467.189 820.428 463.184 820.428 Q461.309 820.428 459.434 820.845 Q457.583 821.261 455.638 822.141 L455.638 804.78 Z" fill="#000000" fill-rule="nonzero" fill-opacity="1" /><path clip-path="url(#clip390)" d="M573.182 835.405 L580.821 835.405 L580.821 809.039 L572.511 810.706 L572.511 806.447 L580.774 804.78 L585.45 804.78 L585.45 835.405 L593.089 835.405 L593.089 839.34 L573.182 839.34 L573.182 835.405 Z" fill="#000000" fill-rule="nonzero" fill-opacity="1" /><path clip-path="url(#clip390)" d="M602.534 833.46 L607.418 833.46 L607.418 839.34 L602.534 839.34 L602.534 833.46 Z" fill="#000000" fill-rule="nonzero" fill-opacity="1" /><path clip-path="url(#clip390)" d="M627.603 807.859 Q623.992 807.859 622.163 811.423 Q620.358 814.965 620.358 822.095 Q620.358 829.201 622.163 832.766 Q623.992 836.307 627.603 836.307 Q631.237 836.307 633.043 832.766 Q634.871 829.201 634.871 822.095 Q634.871 814.965 633.043 811.423 Q631.237 807.859 627.603 807.859 M627.603 804.155 Q633.413 804.155 636.469 808.761 Q639.547 813.345 639.547 822.095 Q639.547 830.821 636.469 835.428 Q633.413 840.011 627.603 840.011 Q621.793 840.011 618.714 835.428 Q615.659 830.821 615.659 822.095 Q615.659 813.345 618.714 808.761 Q621.793 804.155 627.603 804.155 Z" fill="#000000" fill-rule="nonzero" fill-opacity="1" /><path clip-path="url(#clip390)" d="M737.23 835.405 L744.869 835.405 L744.869 809.039 L736.559 810.706 L736.559 806.447 L744.823 804.78 L749.498 804.78 L749.498 835.405 L757.137 835.405 L757.137 839.34 L737.23 839.34 L737.23 835.405 Z" fill="#000000" fill-rule="nonzero" fill-opacity="1" /><path clip-path="url(#clip390)" d="M766.582 833.46 L771.466 833.46 L771.466 839.34 L766.582 839.34 L766.582 833.46 Z" fill="#000000" fill-rule="nonzero" fill-opacity="1" /><path clip-path="url(#clip390)" d="M781.697 804.78 L800.054 804.78 L800.054 808.715 L785.98 808.715 L785.98 817.187 Q786.998 816.84 788.017 816.678 Q789.035 816.493 790.054 816.493 Q795.841 816.493 799.22 819.664 Q802.6 822.835 802.6 828.252 Q802.6 833.831 799.128 836.932 Q795.656 840.011 789.336 840.011 Q787.16 840.011 784.892 839.641 Q782.646 839.27 780.239 838.53 L780.239 833.831 Q782.322 834.965 784.545 835.52 Q786.767 836.076 789.244 836.076 Q793.248 836.076 795.586 833.97 Q797.924 831.863 797.924 828.252 Q797.924 824.641 795.586 822.534 Q793.248 820.428 789.244 820.428 Q787.369 820.428 785.494 820.845 Q783.642 821.261 781.697 822.141 L781.697 804.78 Z" fill="#000000" fill-rule="nonzero" fill-opacity="1" /><path clip-path="url(#clip390)" d="M904.368 835.405 L920.688 835.405 L920.688 839.34 L898.743 839.34 L898.743 835.405 Q901.405 832.65 905.989 828.02 Q910.595 823.368 911.776 822.025 Q914.021 819.502 914.901 817.766 Q915.804 816.007 915.804 814.317 Q915.804 811.562 913.859 809.826 Q911.938 808.09 908.836 808.09 Q906.637 808.09 904.183 808.854 Q901.753 809.618 898.975 811.169 L898.975 806.447 Q901.799 805.312 904.253 804.734 Q906.706 804.155 908.743 804.155 Q914.114 804.155 917.308 806.84 Q920.503 809.525 920.503 814.016 Q920.503 816.146 919.692 818.067 Q918.905 819.965 916.799 822.558 Q916.22 823.229 913.118 826.446 Q910.017 829.641 904.368 835.405 Z" fill="#000000" fill-rule="nonzero" fill-opacity="1" /><path clip-path="url(#clip390)" d="M930.503 833.46 L935.387 833.46 L935.387 839.34 L930.503 839.34 L930.503 833.46 Z" fill="#000000" fill-rule="nonzero" fill-opacity="1" /><path clip-path="url(#clip390)" d="M955.572 807.859 Q951.961 807.859 950.132 811.423 Q948.327 814.965 948.327 822.095 Q948.327 829.201 950.132 832.766 Q951.961 836.307 955.572 836.307 Q959.206 836.307 961.012 832.766 Q962.84 829.201 962.84 822.095 Q962.84 814.965 961.012 811.423 Q959.206 807.859 955.572 807.859 M955.572 804.155 Q961.382 804.155 964.438 808.761 Q967.516 813.345 967.516 822.095 Q967.516 830.821 964.438 835.428 Q961.382 840.011 955.572 840.011 Q949.762 840.011 946.683 835.428 Q943.627 830.821 943.627 822.095 Q943.627 813.345 946.683 808.761 Q949.762 804.155 955.572 804.155 Z" fill="#000000" fill-rule="nonzero" fill-opacity="1" /><path clip-path="url(#clip390)" d="M619.627 905.789 Q619.627 906.401 618.918 906.466 L617.469 906.466 Q615.988 906.466 615.343 906.24 Q614.699 906.015 613.959 904.984 Q613.508 904.34 612.38 901.345 Q611.285 898.318 609.675 893.744 Q608.097 889.171 607.034 886.466 L591.157 905.21 Q590.062 906.594 588.967 906.594 Q588.162 906.594 587.582 906.047 Q587.002 905.499 587.002 904.662 Q587.002 904.05 587.228 903.696 Q587.485 903.342 588.162 902.633 L606.39 884.566 L599.981 866.627 Q598.757 863.31 598.049 862.472 Q597.373 861.635 595.698 861.345 Q595.086 861.184 595.086 860.669 Q595.086 859.96 596.278 859.96 Q602.654 859.96 604.329 864.63 L617.791 902.15 Q618.532 904.308 619.305 905.21 Q619.627 905.628 619.627 905.789 Z" fill="#000000" fill-rule="nonzero" fill-opacity="1" /><polyline clip-path="url(#clip390)" style="stroke:#000000; stroke-linecap:round; stroke-linejoin:round; stroke-width:4; stroke-opacity:1; fill:none" points="259.302,788.14 259.302,47.2441 "/>
<polyline clip-path="url(#clip390)" style="stroke:#000000; stroke-linecap:round; stroke-linejoin:round; stroke-width:4; stroke-opacity:1; fill:none" points="259.302,767.171 278.2,767.171 "/>
<polyline clip-path="url(#clip390)" style="stroke:#000000; stroke-linecap:round; stroke-linejoin:round; stroke-width:4; stroke-opacity:1; fill:none" points="259.302,628.121 278.2,628.121 "/>
<polyline clip-path="url(#clip390)" style="stroke:#000000; stroke-linecap:round; stroke-linejoin:round; stroke-width:4; stroke-opacity:1; fill:none" points="259.302,489.071 278.2,489.071 "/>
<polyline clip-path="url(#clip390)" style="stroke:#000000; stroke-linecap:round; stroke-linejoin:round; stroke-width:4; stroke-opacity:1; fill:none" points="259.302,350.021 278.2,350.021 "/>
<polyline clip-path="url(#clip390)" style="stroke:#000000; stroke-linecap:round; stroke-linejoin:round; stroke-width:4; stroke-opacity:1; fill:none" points="259.302,210.971 278.2,210.971 "/>
<polyline clip-path="url(#clip390)" style="stroke:#000000; stroke-linecap:round; stroke-linejoin:round; stroke-width:4; stroke-opacity:1; fill:none" points="259.302,71.9208 278.2,71.9208 "/>
<path clip-path="url(#clip390)" d="M156.965 752.97 Q153.353 752.97 151.525 756.535 Q149.719 760.076 149.719 767.206 Q149.719 774.312 151.525 777.877 Q153.353 781.419 156.965 781.419 Q160.599 781.419 162.404 777.877 Q164.233 774.312 164.233 767.206 Q164.233 760.076 162.404 756.535 Q160.599 752.97 156.965 752.97 M156.965 749.266 Q162.775 749.266 165.83 753.873 Q168.909 758.456 168.909 767.206 Q168.909 775.933 165.83 780.539 Q162.775 785.122 156.965 785.122 Q151.154 785.122 148.076 780.539 Q145.02 775.933 145.02 767.206 Q145.02 758.456 148.076 753.873 Q151.154 749.266 156.965 749.266 Z" fill="#000000" fill-rule="nonzero" fill-opacity="1" /><path clip-path="url(#clip390)" d="M177.126 778.571 L182.011 778.571 L182.011 784.451 L177.126 784.451 L177.126 778.571 Z" fill="#000000" fill-rule="nonzero" fill-opacity="1" /><path clip-path="url(#clip390)" d="M202.196 752.97 Q198.585 752.97 196.756 756.535 Q194.95 760.076 194.95 767.206 Q194.95 774.312 196.756 777.877 Q198.585 781.419 202.196 781.419 Q205.83 781.419 207.636 777.877 Q209.464 774.312 209.464 767.206 Q209.464 760.076 207.636 756.535 Q205.83 752.97 202.196 752.97 M202.196 749.266 Q208.006 749.266 211.061 753.873 Q214.14 758.456 214.14 767.206 Q214.14 775.933 211.061 780.539 Q208.006 785.122 202.196 785.122 Q196.386 785.122 193.307 780.539 Q190.251 775.933 190.251 767.206 Q190.251 758.456 193.307 753.873 Q196.386 749.266 202.196 749.266 Z" fill="#000000" fill-rule="nonzero" fill-opacity="1" /><path clip-path="url(#clip390)" d="M232.358 752.97 Q228.747 752.97 226.918 756.535 Q225.112 760.076 225.112 767.206 Q225.112 774.312 226.918 777.877 Q228.747 781.419 232.358 781.419 Q235.992 781.419 237.797 777.877 Q239.626 774.312 239.626 767.206 Q239.626 760.076 237.797 756.535 Q235.992 752.97 232.358 752.97 M232.358 749.266 Q238.168 749.266 241.223 753.873 Q244.302 758.456 244.302 767.206 Q244.302 775.933 241.223 780.539 Q238.168 785.122 232.358 785.122 Q226.547 785.122 223.469 780.539 Q220.413 775.933 220.413 767.206 Q220.413 758.456 223.469 753.873 Q226.547 749.266 232.358 749.266 Z" fill="#000000" fill-rule="nonzero" fill-opacity="1" /><path clip-path="url(#clip390)" d="M157.96 613.92 Q154.349 613.92 152.52 617.485 Q150.715 621.026 150.715 628.156 Q150.715 635.262 152.52 638.827 Q154.349 642.369 157.96 642.369 Q161.594 642.369 163.4 638.827 Q165.228 635.262 165.228 628.156 Q165.228 621.026 163.4 617.485 Q161.594 613.92 157.96 613.92 M157.96 610.216 Q163.77 610.216 166.826 614.823 Q169.904 619.406 169.904 628.156 Q169.904 636.883 166.826 641.489 Q163.77 646.072 157.96 646.072 Q152.15 646.072 149.071 641.489 Q146.016 636.883 146.016 628.156 Q146.016 619.406 149.071 614.823 Q152.15 610.216 157.96 610.216 Z" fill="#000000" fill-rule="nonzero" fill-opacity="1" /><path clip-path="url(#clip390)" d="M178.122 639.521 L183.006 639.521 L183.006 645.401 L178.122 645.401 L178.122 639.521 Z" fill="#000000" fill-rule="nonzero" fill-opacity="1" /><path clip-path="url(#clip390)" d="M203.191 613.92 Q199.58 613.92 197.751 617.485 Q195.946 621.026 195.946 628.156 Q195.946 635.262 197.751 638.827 Q199.58 642.369 203.191 642.369 Q206.825 642.369 208.631 638.827 Q210.46 635.262 210.46 628.156 Q210.46 621.026 208.631 617.485 Q206.825 613.92 203.191 613.92 M203.191 610.216 Q209.001 610.216 212.057 614.823 Q215.136 619.406 215.136 628.156 Q215.136 636.883 212.057 641.489 Q209.001 646.072 203.191 646.072 Q197.381 646.072 194.302 641.489 Q191.247 636.883 191.247 628.156 Q191.247 619.406 194.302 614.823 Q197.381 610.216 203.191 610.216 Z" fill="#000000" fill-rule="nonzero" fill-opacity="1" /><path clip-path="url(#clip390)" d="M223.399 610.841 L241.756 610.841 L241.756 614.776 L227.682 614.776 L227.682 623.248 Q228.7 622.901 229.719 622.739 Q230.737 622.554 231.756 622.554 Q237.543 622.554 240.922 625.725 Q244.302 628.897 244.302 634.313 Q244.302 639.892 240.83 642.994 Q237.358 646.072 231.038 646.072 Q228.862 646.072 226.594 645.702 Q224.348 645.332 221.941 644.591 L221.941 639.892 Q224.024 641.026 226.247 641.582 Q228.469 642.137 230.946 642.137 Q234.95 642.137 237.288 640.031 Q239.626 637.924 239.626 634.313 Q239.626 630.702 237.288 628.596 Q234.95 626.489 230.946 626.489 Q229.071 626.489 227.196 626.906 Q225.344 627.322 223.399 628.202 L223.399 610.841 Z" fill="#000000" fill-rule="nonzero" fill-opacity="1" /><path clip-path="url(#clip390)" d="M156.965 474.87 Q153.353 474.87 151.525 478.434 Q149.719 481.976 149.719 489.106 Q149.719 496.212 151.525 499.777 Q153.353 503.319 156.965 503.319 Q160.599 503.319 162.404 499.777 Q164.233 496.212 164.233 489.106 Q164.233 481.976 162.404 478.434 Q160.599 474.87 156.965 474.87 M156.965 471.166 Q162.775 471.166 165.83 475.772 Q168.909 480.356 168.909 489.106 Q168.909 497.833 165.83 502.439 Q162.775 507.022 156.965 507.022 Q151.154 507.022 148.076 502.439 Q145.02 497.833 145.02 489.106 Q145.02 480.356 148.076 475.772 Q151.154 471.166 156.965 471.166 Z" fill="#000000" fill-rule="nonzero" fill-opacity="1" /><path clip-path="url(#clip390)" d="M177.126 500.471 L182.011 500.471 L182.011 506.351 L177.126 506.351 L177.126 500.471 Z" fill="#000000" fill-rule="nonzero" fill-opacity="1" /><path clip-path="url(#clip390)" d="M193.006 502.416 L200.645 502.416 L200.645 476.05 L192.335 477.717 L192.335 473.458 L200.599 471.791 L205.274 471.791 L205.274 502.416 L212.913 502.416 L212.913 506.351 L193.006 506.351 L193.006 502.416 Z" fill="#000000" fill-rule="nonzero" fill-opacity="1" /><path clip-path="url(#clip390)" d="M232.358 474.87 Q228.747 474.87 226.918 478.434 Q225.112 481.976 225.112 489.106 Q225.112 496.212 226.918 499.777 Q228.747 503.319 232.358 503.319 Q235.992 503.319 237.797 499.777 Q239.626 496.212 239.626 489.106 Q239.626 481.976 237.797 478.434 Q235.992 474.87 232.358 474.87 M232.358 471.166 Q238.168 471.166 241.223 475.772 Q244.302 480.356 244.302 489.106 Q244.302 497.833 241.223 502.439 Q238.168 507.022 232.358 507.022 Q226.547 507.022 223.469 502.439 Q220.413 497.833 220.413 489.106 Q220.413 480.356 223.469 475.772 Q226.547 471.166 232.358 471.166 Z" fill="#000000" fill-rule="nonzero" fill-opacity="1" /><path clip-path="url(#clip390)" d="M157.96 335.82 Q154.349 335.82 152.52 339.384 Q150.715 342.926 150.715 350.056 Q150.715 357.162 152.52 360.727 Q154.349 364.269 157.96 364.269 Q161.594 364.269 163.4 360.727 Q165.228 357.162 165.228 350.056 Q165.228 342.926 163.4 339.384 Q161.594 335.82 157.96 335.82 M157.96 332.116 Q163.77 332.116 166.826 336.722 Q169.904 341.306 169.904 350.056 Q169.904 358.782 166.826 363.389 Q163.77 367.972 157.96 367.972 Q152.15 367.972 149.071 363.389 Q146.016 358.782 146.016 350.056 Q146.016 341.306 149.071 336.722 Q152.15 332.116 157.96 332.116 Z" fill="#000000" fill-rule="nonzero" fill-opacity="1" /><path clip-path="url(#clip390)" d="M178.122 361.421 L183.006 361.421 L183.006 367.301 L178.122 367.301 L178.122 361.421 Z" fill="#000000" fill-rule="nonzero" fill-opacity="1" /><path clip-path="url(#clip390)" d="M194.001 363.366 L201.64 363.366 L201.64 337 L193.33 338.667 L193.33 334.408 L201.594 332.741 L206.27 332.741 L206.27 363.366 L213.909 363.366 L213.909 367.301 L194.001 367.301 L194.001 363.366 Z" fill="#000000" fill-rule="nonzero" fill-opacity="1" /><path clip-path="url(#clip390)" d="M223.399 332.741 L241.756 332.741 L241.756 336.676 L227.682 336.676 L227.682 345.148 Q228.7 344.801 229.719 344.639 Q230.737 344.454 231.756 344.454 Q237.543 344.454 240.922 347.625 Q244.302 350.796 244.302 356.213 Q244.302 361.792 240.83 364.894 Q237.358 367.972 231.038 367.972 Q228.862 367.972 226.594 367.602 Q224.348 367.231 221.941 366.491 L221.941 361.792 Q224.024 362.926 226.247 363.482 Q228.469 364.037 230.946 364.037 Q234.95 364.037 237.288 361.931 Q239.626 359.824 239.626 356.213 Q239.626 352.602 237.288 350.495 Q234.95 348.389 230.946 348.389 Q229.071 348.389 227.196 348.806 Q225.344 349.222 223.399 350.102 L223.399 332.741 Z" fill="#000000" fill-rule="nonzero" fill-opacity="1" /><path clip-path="url(#clip390)" d="M156.965 196.77 Q153.353 196.77 151.525 200.334 Q149.719 203.876 149.719 211.006 Q149.719 218.112 151.525 221.677 Q153.353 225.219 156.965 225.219 Q160.599 225.219 162.404 221.677 Q164.233 218.112 164.233 211.006 Q164.233 203.876 162.404 200.334 Q160.599 196.77 156.965 196.77 M156.965 193.066 Q162.775 193.066 165.83 197.672 Q168.909 202.256 168.909 211.006 Q168.909 219.732 165.83 224.339 Q162.775 228.922 156.965 228.922 Q151.154 228.922 148.076 224.339 Q145.02 219.732 145.02 211.006 Q145.02 202.256 148.076 197.672 Q151.154 193.066 156.965 193.066 Z" fill="#000000" fill-rule="nonzero" fill-opacity="1" /><path clip-path="url(#clip390)" d="M177.126 222.371 L182.011 222.371 L182.011 228.251 L177.126 228.251 L177.126 222.371 Z" fill="#000000" fill-rule="nonzero" fill-opacity="1" /><path clip-path="url(#clip390)" d="M196.224 224.316 L212.543 224.316 L212.543 228.251 L190.599 228.251 L190.599 224.316 Q193.261 221.561 197.844 216.932 Q202.45 212.279 203.631 210.936 Q205.876 208.413 206.756 206.677 Q207.659 204.918 207.659 203.228 Q207.659 200.473 205.714 198.737 Q203.793 197.001 200.691 197.001 Q198.492 197.001 196.038 197.765 Q193.608 198.529 190.83 200.08 L190.83 195.358 Q193.654 194.223 196.108 193.645 Q198.562 193.066 200.599 193.066 Q205.969 193.066 209.163 195.751 Q212.358 198.436 212.358 202.927 Q212.358 205.057 211.548 206.978 Q210.761 208.876 208.654 211.469 Q208.075 212.14 204.974 215.357 Q201.872 218.552 196.224 224.316 Z" fill="#000000" fill-rule="nonzero" fill-opacity="1" /><path clip-path="url(#clip390)" d="M232.358 196.77 Q228.747 196.77 226.918 200.334 Q225.112 203.876 225.112 211.006 Q225.112 218.112 226.918 221.677 Q228.747 225.219 232.358 225.219 Q235.992 225.219 237.797 221.677 Q239.626 218.112 239.626 211.006 Q239.626 203.876 237.797 200.334 Q235.992 196.77 232.358 196.77 M232.358 193.066 Q238.168 193.066 241.223 197.672 Q244.302 202.256 244.302 211.006 Q244.302 219.732 241.223 224.339 Q238.168 228.922 232.358 228.922 Q226.547 228.922 223.469 224.339 Q220.413 219.732 220.413 211.006 Q220.413 202.256 223.469 197.672 Q226.547 193.066 232.358 193.066 Z" fill="#000000" fill-rule="nonzero" fill-opacity="1" /><path clip-path="url(#clip390)" d="M157.96 57.7195 Q154.349 57.7195 152.52 61.2843 Q150.715 64.826 150.715 71.9556 Q150.715 79.062 152.52 82.6268 Q154.349 86.1685 157.96 86.1685 Q161.594 86.1685 163.4 82.6268 Q165.228 79.062 165.228 71.9556 Q165.228 64.826 163.4 61.2843 Q161.594 57.7195 157.96 57.7195 M157.96 54.0158 Q163.77 54.0158 166.826 58.6223 Q169.904 63.2056 169.904 71.9556 Q169.904 80.6824 166.826 85.2888 Q163.77 89.8721 157.96 89.8721 Q152.15 89.8721 149.071 85.2888 Q146.016 80.6824 146.016 71.9556 Q146.016 63.2056 149.071 58.6223 Q152.15 54.0158 157.96 54.0158 Z" fill="#000000" fill-rule="nonzero" fill-opacity="1" /><path clip-path="url(#clip390)" d="M178.122 83.3212 L183.006 83.3212 L183.006 89.2008 L178.122 89.2008 L178.122 83.3212 Z" fill="#000000" fill-rule="nonzero" fill-opacity="1" /><path clip-path="url(#clip390)" d="M197.219 85.2657 L213.538 85.2657 L213.538 89.2008 L191.594 89.2008 L191.594 85.2657 Q194.256 82.5111 198.839 77.8815 Q203.446 73.2287 204.626 71.8861 Q206.872 69.363 207.751 67.6269 Q208.654 65.8676 208.654 64.1778 Q208.654 61.4232 206.71 59.6871 Q204.788 57.951 201.687 57.951 Q199.487 57.951 197.034 58.7149 Q194.603 59.4788 191.825 61.0297 L191.825 56.3075 Q194.65 55.1732 197.103 54.5945 Q199.557 54.0158 201.594 54.0158 Q206.964 54.0158 210.159 56.701 Q213.353 59.3862 213.353 63.8769 Q213.353 66.0065 212.543 67.9278 Q211.756 69.8259 209.649 72.4185 Q209.071 73.0898 205.969 76.3074 Q202.867 79.5018 197.219 85.2657 Z" fill="#000000" fill-rule="nonzero" fill-opacity="1" /><path clip-path="url(#clip390)" d="M223.399 54.6408 L241.756 54.6408 L241.756 58.576 L227.682 58.576 L227.682 67.0482 Q228.7 66.701 229.719 66.5389 Q230.737 66.3537 231.756 66.3537 Q237.543 66.3537 240.922 69.525 Q244.302 72.6963 244.302 78.1129 Q244.302 83.6916 240.83 86.7934 Q237.358 89.8721 231.038 89.8721 Q228.862 89.8721 226.594 89.5018 Q224.348 89.1314 221.941 88.3907 L221.941 83.6916 Q224.024 84.8259 226.247 85.3814 Q228.469 85.937 230.946 85.937 Q234.95 85.937 237.288 83.8305 Q239.626 81.724 239.626 78.1129 Q239.626 74.5018 237.288 72.3954 Q234.95 70.2889 230.946 70.2889 Q229.071 70.2889 227.196 70.7056 Q225.344 71.1222 223.399 72.0019 L223.399 54.6408 Z" fill="#000000" fill-rule="nonzero" fill-opacity="1" /><path clip-path="url(#clip390)" d="M68.2442 581.895 L68.2442 554.586 L73.655 554.586 L73.655 575.466 L87.6596 575.466 L87.6596 556.624 L93.0704 556.624 L93.0704 575.466 L115.764 575.466 L115.764 581.895 L68.2442 581.895 Z" fill="#000000" fill-rule="nonzero" fill-opacity="1" /><path clip-path="url(#clip390)" d="M85.5907 528.742 Q85.0178 529.728 84.7632 530.906 Q84.4767 532.052 84.4767 533.452 Q84.4767 538.418 87.7232 541.091 Q90.9379 543.733 96.9853 543.733 L115.764 543.733 L115.764 549.621 L80.1162 549.621 L80.1162 543.733 L85.6544 543.733 Q82.4079 541.887 80.8483 538.927 Q79.2568 535.967 79.2568 531.734 Q79.2568 531.129 79.3523 530.397 Q79.416 529.665 79.5751 528.774 L85.5907 528.742 Z" fill="#000000" fill-rule="nonzero" fill-opacity="1" /><path clip-path="url(#clip390)" d="M96.4761 493.539 L99.3406 493.539 L99.3406 520.466 Q105.388 520.084 108.571 516.838 Q111.722 513.56 111.722 507.735 Q111.722 504.361 110.894 501.21 Q110.067 498.027 108.412 494.908 L113.95 494.908 Q115.287 498.059 115.987 501.369 Q116.687 504.679 116.687 508.085 Q116.687 516.615 111.722 521.612 Q106.757 526.577 98.2903 526.577 Q89.5374 526.577 84.4131 521.867 Q79.2568 517.124 79.2568 509.104 Q79.2568 501.91 83.9038 497.741 Q88.5189 493.539 96.4761 493.539 M94.7573 499.396 Q89.9512 499.459 87.0866 502.101 Q84.2221 504.711 84.2221 509.04 Q84.2221 513.941 86.9912 516.902 Q89.7602 519.83 94.7892 520.275 L94.7573 499.396 Z" fill="#000000" fill-rule="nonzero" fill-opacity="1" /><path clip-path="url(#clip390)" d="M97.972 480.426 Q104.433 480.426 108.125 477.784 Q111.786 475.111 111.786 470.464 Q111.786 465.817 108.125 463.143 Q104.433 460.47 97.972 460.47 Q91.5108 460.47 87.8505 463.143 Q84.1584 465.817 84.1584 470.464 Q84.1584 475.111 87.8505 477.784 Q91.5108 480.426 97.972 480.426 M110.417 460.47 Q113.6 462.316 115.159 465.148 Q116.687 467.949 116.687 471.896 Q116.687 478.357 111.531 482.431 Q106.375 486.473 97.972 486.473 Q89.5693 486.473 84.4131 482.431 Q79.2568 478.357 79.2568 471.896 Q79.2568 467.949 80.8164 465.148 Q82.3442 462.316 85.5271 460.47 L80.1162 460.47 L80.1162 454.613 L129.323 454.613 L129.323 460.47 L110.417 460.47 Z" fill="#000000" fill-rule="nonzero" fill-opacity="1" /><path clip-path="url(#clip390)" d="M101.696 443.155 L80.1162 443.155 L80.1162 437.298 L101.473 437.298 Q106.534 437.298 109.08 435.325 Q111.595 433.352 111.595 429.405 Q111.595 424.662 108.571 421.925 Q105.547 419.156 100.327 419.156 L80.1162 419.156 L80.1162 413.3 L115.764 413.3 L115.764 419.156 L110.29 419.156 Q113.536 421.289 115.128 424.121 Q116.687 426.922 116.687 430.646 Q116.687 436.789 112.868 439.972 Q109.048 443.155 101.696 443.155 M79.2568 428.418 L79.2568 428.418 Z" fill="#000000" fill-rule="nonzero" fill-opacity="1" /><path clip-path="url(#clip390)" d="M96.4761 370.745 L99.3406 370.745 L99.3406 397.672 Q105.388 397.29 108.571 394.043 Q111.722 390.765 111.722 384.94 Q111.722 381.567 110.894 378.416 Q110.067 375.233 108.412 372.114 L113.95 372.114 Q115.287 375.265 115.987 378.575 Q116.687 381.885 116.687 385.291 Q116.687 393.821 111.722 398.818 Q106.757 403.783 98.2903 403.783 Q89.5374 403.783 84.4131 399.072 Q79.2568 394.33 79.2568 386.309 Q79.2568 379.116 83.9038 374.946 Q88.5189 370.745 96.4761 370.745 M94.7573 376.601 Q89.9512 376.665 87.0866 379.307 Q84.2221 381.917 84.2221 386.245 Q84.2221 391.147 86.9912 394.107 Q89.7602 397.035 94.7892 397.481 L94.7573 376.601 Z" fill="#000000" fill-rule="nonzero" fill-opacity="1" /><path clip-path="url(#clip390)" d="M94.2481 331.5 L115.764 331.5 L115.764 337.357 L94.439 337.357 Q89.3783 337.357 86.8638 339.33 Q84.3494 341.303 84.3494 345.25 Q84.3494 349.993 87.3731 352.73 Q90.3968 355.467 95.6167 355.467 L115.764 355.467 L115.764 361.355 L80.1162 361.355 L80.1162 355.467 L85.6544 355.467 Q82.4397 353.367 80.8483 350.534 Q79.2568 347.669 79.2568 343.945 Q79.2568 337.802 83.0763 334.651 Q86.8638 331.5 94.2481 331.5 Z" fill="#000000" fill-rule="nonzero" fill-opacity="1" /><path clip-path="url(#clip390)" d="M81.4848 294.165 L86.9593 294.165 Q85.5907 296.648 84.9223 299.163 Q84.2221 301.645 84.2221 304.191 Q84.2221 309.889 87.8505 313.04 Q91.4472 316.191 97.972 316.191 Q104.497 316.191 108.125 313.04 Q111.722 309.889 111.722 304.191 Q111.722 301.645 111.054 299.163 Q110.353 296.648 108.985 294.165 L114.396 294.165 Q115.541 296.616 116.114 299.258 Q116.687 301.868 116.687 304.828 Q116.687 312.881 111.626 317.623 Q106.566 322.366 97.972 322.366 Q89.251 322.366 84.2539 317.591 Q79.2568 312.785 79.2568 304.446 Q79.2568 301.741 79.8297 299.163 Q80.3708 296.584 81.4848 294.165 Z" fill="#000000" fill-rule="nonzero" fill-opacity="1" /><path clip-path="url(#clip390)" d="M119.074 269.148 Q125.44 271.631 127.382 273.986 Q129.323 276.341 129.323 280.288 L129.323 284.967 L124.422 284.967 L124.422 281.53 Q124.422 279.111 123.276 277.774 Q122.13 276.437 117.865 274.814 L115.191 273.763 L80.1162 288.182 L80.1162 281.975 L107.998 270.835 L80.1162 259.695 L80.1162 253.489 L119.074 269.148 Z" fill="#000000" fill-rule="nonzero" fill-opacity="1" /><path clip-path="url(#clip392)" d="M278.928 767.171 L278.928 763.463 L306.186 763.463 L306.186 765.317 L333.445 765.317 L333.445 767.171 L360.703 767.171 L360.703 767.171 L387.962 767.171 L387.962 767.171 L415.22 767.171 L415.22 744.923 L442.479 744.923 L442.479 722.675 L469.737 722.675 L469.737 681.887 L496.995 681.887 L496.995 631.829 L524.254 631.829 L524.254 576.209 L551.512 576.209 L551.512 509.465 L578.771 509.465 L578.771 294.401 L606.029 294.401 L606.029 68.2128 L633.287 68.2128 L633.287 351.875 L660.546 351.875 L660.546 528.005 L687.804 528.005 L687.804 641.099 L715.063 641.099 L715.063 696.719 L742.321 696.719 L742.321 750.485 L769.579 750.485 L769.579 767.171 L796.838 767.171 L796.838 767.171 L824.096 767.171 L824.096 767.171 L851.355 767.171 L851.355 767.171 L878.613 767.171 L878.613 767.171 L905.871 767.171 L905.871 767.171 L933.13 767.171 L933.13 767.171 L905.871 767.171 L905.871 767.171 L878.613 767.171 L878.613 767.171 L851.355 767.171 L851.355 767.171 L824.096 767.171 L824.096 767.171 L796.838 767.171 L796.838 767.171 L769.579 767.171 L769.579 767.171 L742.321 767.171 L742.321 767.171 L715.063 767.171 L715.063 767.171 L687.804 767.171 L687.804 767.171 L660.546 767.171 L660.546 767.171 L633.287 767.171 L633.287 767.171 L606.029 767.171 L606.029 767.171 L578.771 767.171 L578.771 767.171 L551.512 767.171 L551.512 767.171 L524.254 767.171 L524.254 767.171 L496.995 767.171 L496.995 767.171 L469.737 767.171 L469.737 767.171 L442.479 767.171 L442.479 767.171 L415.22 767.171 L415.22 767.171 L387.962 767.171 L387.962 767.171 L360.703 767.171 L360.703 767.171 L333.445 767.171 L333.445 767.171 L306.186 767.171 L306.186 767.171 L278.928 767.171 L278.928 767.171  Z" fill="#377db8" fill-rule="evenodd" fill-opacity="0.5"/>
<polyline clip-path="url(#clip392)" style="stroke:#377db8; stroke-linecap:round; stroke-linejoin:round; stroke-width:4; stroke-opacity:0.5; fill:none" points="278.928,767.171 278.928,763.463 306.186,763.463 306.186,765.317 333.445,765.317 333.445,767.171 360.703,767.171 387.962,767.171 415.22,767.171 415.22,744.923 442.479,744.923 442.479,722.675 469.737,722.675 469.737,681.887 496.995,681.887 496.995,631.829 524.254,631.829 524.254,576.209 551.512,576.209 551.512,509.465 578.771,509.465 578.771,294.401 606.029,294.401 606.029,68.2128 633.287,68.2128 633.287,351.875 660.546,351.875 660.546,528.005 687.804,528.005 687.804,641.099 715.063,641.099 715.063,696.719 742.321,696.719 742.321,750.485 769.579,750.485 769.579,767.171 796.838,767.171 824.096,767.171 851.355,767.171 878.613,767.171 905.871,767.171 933.13,767.171 "/>
<path clip-path="url(#clip392)" d="M278.928 767.171 L278.928 585.479 L306.186 585.479 L306.186 650.369 L333.445 650.369 L333.445 648.515 L360.703 648.515 L360.703 676.325 L387.962 676.325 L387.962 689.303 L415.22 689.303 L415.22 698.573 L442.479 698.573 L442.479 709.697 L469.737 709.697 L469.737 709.697 L496.995 709.697 L496.995 691.157 L524.254 691.157 L524.254 676.325 L551.512 676.325 L551.512 622.559 L578.771 622.559 L578.771 529.859 L606.029 529.859 L606.029 444.575 L633.287 444.575 L633.287 542.837 L660.546 542.837 L660.546 672.617 L687.804 672.617 L687.804 717.113 L715.063 717.113 L715.063 715.259 L742.321 715.259 L742.321 704.135 L769.579 704.135 L769.579 693.011 L796.838 693.011 L796.838 687.449 L824.096 687.449 L824.096 663.347 L851.355 663.347 L851.355 652.223 L878.613 652.223 L878.613 655.931 L905.871 655.931 L905.871 596.603 L933.13 596.603 L933.13 767.171 L933.13 767.171 L933.13 767.171 L905.871 767.171 L905.871 767.171 L878.613 767.171 L878.613 767.171 L851.355 767.171 L851.355 767.171 L824.096 767.171 L824.096 767.171 L796.838 767.171 L796.838 767.171 L769.579 767.171 L769.579 767.171 L742.321 767.171 L742.321 767.171 L715.063 767.171 L715.063 767.171 L687.804 767.171 L687.804 767.171 L660.546 767.171 L660.546 767.171 L633.287 767.171 L633.287 767.171 L606.029 767.171 L606.029 767.171 L578.771 767.171 L578.771 767.171 L551.512 767.171 L551.512 767.171 L524.254 767.171 L524.254 767.171 L496.995 767.171 L496.995 767.171 L469.737 767.171 L469.737 767.171 L442.479 767.171 L442.479 767.171 L415.22 767.171 L415.22 767.171 L387.962 767.171 L387.962 767.171 L360.703 767.171 L360.703 767.171 L333.445 767.171 L333.445 767.171 L306.186 767.171 L306.186 767.171 L278.928 767.171 L278.928 767.171  Z" fill="#e31a1c" fill-rule="evenodd" fill-opacity="0.5"/>
<polyline clip-path="url(#clip392)" style="stroke:#e31a1c; stroke-linecap:round; stroke-linejoin:round; stroke-width:4; stroke-opacity:0.5; fill:none" points="278.928,767.171 278.928,585.479 306.186,585.479 306.186,650.369 333.445,650.369 333.445,648.515 360.703,648.515 360.703,676.325 387.962,676.325 387.962,689.303 415.22,689.303 415.22,698.573 442.479,698.573 442.479,709.697 469.737,709.697 496.995,709.697 496.995,691.157 524.254,691.157 524.254,676.325 551.512,676.325 551.512,622.559 578.771,622.559 578.771,529.859 606.029,529.859 606.029,444.575 633.287,444.575 633.287,542.837 660.546,542.837 660.546,672.617 687.804,672.617 687.804,717.113 715.063,717.113 715.063,715.259 742.321,715.259 742.321,704.135 769.579,704.135 769.579,693.011 796.838,693.011 796.838,687.449 824.096,687.449 824.096,663.347 851.355,663.347 851.355,652.223 878.613,652.223 878.613,655.931 905.871,655.931 905.871,596.603 933.13,596.603 933.13,767.171 "/>
<polyline clip-path="url(#clip392)" style="stroke:#000000; stroke-linecap:round; stroke-linejoin:round; stroke-width:4; stroke-opacity:1; fill:none" stroke-dasharray="16, 10" points="524.254,1529.04 524.254,-693.652 "/>
</svg>
