<?xml version="1.0" encoding="utf-8"?>
<svg xmlns="http://www.w3.org/2000/svg" xmlns:xlink="http://www.w3.org/1999/xlink" width="500" height="250" viewBox="0 0 2000 1000">
<defs>
  <clipPath id="clip810">
    <rect x="0" y="0" width="2000" height="1000"/>
  </clipPath>
</defs>
<path clip-path="url(#clip810)" d="M0 1000 L2000 1000 L2000 0 L0 0  Z" fill="#ffffff" fill-rule="evenodd" fill-opacity="1"/>
<defs>
  <clipPath id="clip811">
    <rect x="400" y="0" width="1401" height="1000"/>
  </clipPath>
</defs>
<path clip-path="url(#clip810)" d="M233.662 849.7 L1350 849.7 L1350 47.2441 L233.662 47.2441  Z" fill="#ffffff" fill-rule="evenodd" fill-opacity="1"/>
<defs>
  <clipPath id="clip812">
    <rect x="233" y="47" width="1117" height="803"/>
  </clipPath>
</defs>
<polyline clip-path="url(#clip812)" style="stroke:#000000; stroke-linecap:round; stroke-linejoin:round; stroke-width:2; stroke-opacity:0.1; fill:none" points="243.764,849.7 243.764,47.2441 "/>
<polyline clip-path="url(#clip812)" style="stroke:#000000; stroke-linecap:round; stroke-linejoin:round; stroke-width:2; stroke-opacity:0.1; fill:none" points="458.693,849.7 458.693,47.2441 "/>
<polyline clip-path="url(#clip812)" style="stroke:#000000; stroke-linecap:round; stroke-linejoin:round; stroke-width:2; stroke-opacity:0.1; fill:none" points="673.622,849.7 673.622,47.2441 "/>
<polyline clip-path="url(#clip812)" style="stroke:#000000; stroke-linecap:round; stroke-linejoin:round; stroke-width:2; stroke-opacity:0.1; fill:none" points="888.551,849.7 888.551,47.2441 "/>
<polyline clip-path="url(#clip812)" style="stroke:#000000; stroke-linecap:round; stroke-linejoin:round; stroke-width:2; stroke-opacity:0.1; fill:none" points="1103.48,849.7 1103.48,47.2441 "/>
<polyline clip-path="url(#clip812)" style="stroke:#000000; stroke-linecap:round; stroke-linejoin:round; stroke-width:2; stroke-opacity:0.1; fill:none" points="1318.41,849.7 1318.41,47.2441 "/>
<polyline clip-path="url(#clip812)" style="stroke:#000000; stroke-linecap:round; stroke-linejoin:round; stroke-width:2; stroke-opacity:0.1; fill:none" points="233.662,747.809 1350,747.809 "/>
<polyline clip-path="url(#clip812)" style="stroke:#000000; stroke-linecap:round; stroke-linejoin:round; stroke-width:2; stroke-opacity:0.1; fill:none" points="233.662,576.854 1350,576.854 "/>
<polyline clip-path="url(#clip812)" style="stroke:#000000; stroke-linecap:round; stroke-linejoin:round; stroke-width:2; stroke-opacity:0.1; fill:none" points="233.662,405.9 1350,405.9 "/>
<polyline clip-path="url(#clip812)" style="stroke:#000000; stroke-linecap:round; stroke-linejoin:round; stroke-width:2; stroke-opacity:0.1; fill:none" points="233.662,234.945 1350,234.945 "/>
<polyline clip-path="url(#clip812)" style="stroke:#000000; stroke-linecap:round; stroke-linejoin:round; stroke-width:2; stroke-opacity:0.1; fill:none" points="233.662,63.9908 1350,63.9908 "/>
<polyline clip-path="url(#clip810)" style="stroke:#000000; stroke-linecap:round; stroke-linejoin:round; stroke-width:4; stroke-opacity:1; fill:none" points="233.662,849.7 1350,849.7 "/>
<polyline clip-path="url(#clip810)" style="stroke:#000000; stroke-linecap:round; stroke-linejoin:round; stroke-width:4; stroke-opacity:1; fill:none" points="243.764,849.7 243.764,830.802 "/>
<polyline clip-path="url(#clip810)" style="stroke:#000000; stroke-linecap:round; stroke-linejoin:round; stroke-width:4; stroke-opacity:1; fill:none" points="458.693,849.7 458.693,830.802 "/>
<polyline clip-path="url(#clip810)" style="stroke:#000000; stroke-linecap:round; stroke-linejoin:round; stroke-width:4; stroke-opacity:1; fill:none" points="673.622,849.7 673.622,830.802 "/>
<polyline clip-path="url(#clip810)" style="stroke:#000000; stroke-linecap:round; stroke-linejoin:round; stroke-width:4; stroke-opacity:1; fill:none" points="888.551,849.7 888.551,830.802 "/>
<polyline clip-path="url(#clip810)" style="stroke:#000000; stroke-linecap:round; stroke-linejoin:round; stroke-width:4; stroke-opacity:1; fill:none" points="1103.48,849.7 1103.48,830.802 "/>
<polyline clip-path="url(#clip810)" style="stroke:#000000; stroke-linecap:round; stroke-linejoin:round; stroke-width:4; stroke-opacity:1; fill:none" points="1318.41,849.7 1318.41,830.802 "/>
<path clip-path="url(#clip810)" d="M243.764 877.419 Q240.153 877.419 238.324 880.983 Q236.518 884.525 236.518 891.655 Q236.518 898.761 238.324 902.326 Q240.153 905.867 243.764 905.867 Q247.398 905.867 249.203 902.326 Q251.032 898.761 251.032 891.655 Q251.032 884.525 249.203 880.983 Q247.398 877.419 243.764 877.419 M243.764 873.715 Q249.574 873.715 252.629 878.321 Q255.708 882.905 255.708 891.655 Q255.708 900.381 252.629 904.988 Q249.574 909.571 243.764 909.571 Q237.954 909.571 234.875 904.988 Q231.819 900.381 231.819 891.655 Q231.819 882.905 234.875 878.321 Q237.954 873.715 243.764 873.715 Z" fill="#000000" fill-rule="nonzero" fill-opacity="1" /><path clip-path="url(#clip810)" d="M433.392 874.34 L451.748 874.34 L451.748 878.275 L437.674 878.275 L437.674 886.747 Q438.693 886.4 439.711 886.238 Q440.73 886.053 441.748 886.053 Q447.535 886.053 450.915 889.224 Q454.295 892.395 454.295 897.812 Q454.295 903.391 450.822 906.492 Q447.35 909.571 441.031 909.571 Q438.855 909.571 436.586 909.201 Q434.341 908.83 431.934 908.09 L431.934 903.391 Q434.017 904.525 436.239 905.08 Q438.461 905.636 440.938 905.636 Q444.943 905.636 447.281 903.53 Q449.619 901.423 449.619 897.812 Q449.619 894.201 447.281 892.094 Q444.943 889.988 440.938 889.988 Q439.063 889.988 437.188 890.405 Q435.336 890.821 433.392 891.701 L433.392 874.34 Z" fill="#000000" fill-rule="nonzero" fill-opacity="1" /><path clip-path="url(#clip810)" d="M473.508 877.419 Q469.896 877.419 468.068 880.983 Q466.262 884.525 466.262 891.655 Q466.262 898.761 468.068 902.326 Q469.896 905.867 473.508 905.867 Q477.142 905.867 478.947 902.326 Q480.776 898.761 480.776 891.655 Q480.776 884.525 478.947 880.983 Q477.142 877.419 473.508 877.419 M473.508 873.715 Q479.318 873.715 482.373 878.321 Q485.452 882.905 485.452 891.655 Q485.452 900.381 482.373 904.988 Q479.318 909.571 473.508 909.571 Q467.697 909.571 464.619 904.988 Q461.563 900.381 461.563 891.655 Q461.563 882.905 464.619 878.321 Q467.697 873.715 473.508 873.715 Z" fill="#000000" fill-rule="nonzero" fill-opacity="1" /><path clip-path="url(#clip810)" d="M633.229 904.965 L640.867 904.965 L640.867 878.599 L632.557 880.266 L632.557 876.007 L640.821 874.34 L645.497 874.34 L645.497 904.965 L653.136 904.965 L653.136 908.9 L633.229 908.9 L633.229 904.965 Z" fill="#000000" fill-rule="nonzero" fill-opacity="1" /><path clip-path="url(#clip810)" d="M672.58 877.419 Q668.969 877.419 667.14 880.983 Q665.335 884.525 665.335 891.655 Q665.335 898.761 667.14 902.326 Q668.969 905.867 672.58 905.867 Q676.214 905.867 678.02 902.326 Q679.849 898.761 679.849 891.655 Q679.849 884.525 678.02 880.983 Q676.214 877.419 672.58 877.419 M672.58 873.715 Q678.39 873.715 681.446 878.321 Q684.525 882.905 684.525 891.655 Q684.525 900.381 681.446 904.988 Q678.39 909.571 672.58 909.571 Q666.77 909.571 663.691 904.988 Q660.636 900.381 660.636 891.655 Q660.636 882.905 663.691 878.321 Q666.77 873.715 672.58 873.715 Z" fill="#000000" fill-rule="nonzero" fill-opacity="1" /><path clip-path="url(#clip810)" d="M702.742 877.419 Q699.131 877.419 697.302 880.983 Q695.497 884.525 695.497 891.655 Q695.497 898.761 697.302 902.326 Q699.131 905.867 702.742 905.867 Q706.376 905.867 708.182 902.326 Q710.011 898.761 710.011 891.655 Q710.011 884.525 708.182 880.983 Q706.376 877.419 702.742 877.419 M702.742 873.715 Q708.552 873.715 711.608 878.321 Q714.686 882.905 714.686 891.655 Q714.686 900.381 711.608 904.988 Q708.552 909.571 702.742 909.571 Q696.932 909.571 693.853 904.988 Q690.798 900.381 690.798 891.655 Q690.798 882.905 693.853 878.321 Q696.932 873.715 702.742 873.715 Z" fill="#000000" fill-rule="nonzero" fill-opacity="1" /><path clip-path="url(#clip810)" d="M848.158 904.965 L855.797 904.965 L855.797 878.599 L847.486 880.266 L847.486 876.007 L855.75 874.34 L860.426 874.34 L860.426 904.965 L868.065 904.965 L868.065 908.9 L848.158 908.9 L848.158 904.965 Z" fill="#000000" fill-rule="nonzero" fill-opacity="1" /><path clip-path="url(#clip810)" d="M877.556 874.34 L895.912 874.34 L895.912 878.275 L881.838 878.275 L881.838 886.747 Q882.857 886.4 883.875 886.238 Q884.894 886.053 885.912 886.053 Q891.699 886.053 895.079 889.224 Q898.458 892.395 898.458 897.812 Q898.458 903.391 894.986 906.492 Q891.514 909.571 885.195 909.571 Q883.019 909.571 880.75 909.201 Q878.505 908.83 876.097 908.09 L876.097 903.391 Q878.181 904.525 880.403 905.08 Q882.625 905.636 885.102 905.636 Q889.107 905.636 891.444 903.53 Q893.782 901.423 893.782 897.812 Q893.782 894.201 891.444 892.094 Q889.107 889.988 885.102 889.988 Q883.227 889.988 881.352 890.405 Q879.5 890.821 877.556 891.701 L877.556 874.34 Z" fill="#000000" fill-rule="nonzero" fill-opacity="1" /><path clip-path="url(#clip810)" d="M917.671 877.419 Q914.06 877.419 912.231 880.983 Q910.426 884.525 910.426 891.655 Q910.426 898.761 912.231 902.326 Q914.06 905.867 917.671 905.867 Q921.305 905.867 923.111 902.326 Q924.94 898.761 924.94 891.655 Q924.94 884.525 923.111 880.983 Q921.305 877.419 917.671 877.419 M917.671 873.715 Q923.481 873.715 926.537 878.321 Q929.616 882.905 929.616 891.655 Q929.616 900.381 926.537 904.988 Q923.481 909.571 917.671 909.571 Q911.861 909.571 908.782 904.988 Q905.727 900.381 905.727 891.655 Q905.727 882.905 908.782 878.321 Q911.861 873.715 917.671 873.715 Z" fill="#000000" fill-rule="nonzero" fill-opacity="1" /><path clip-path="url(#clip810)" d="M1067.17 904.965 L1083.49 904.965 L1083.49 908.9 L1061.55 908.9 L1061.55 904.965 Q1064.21 902.21 1068.79 897.58 Q1073.4 892.928 1074.58 891.585 Q1076.83 889.062 1077.7 887.326 Q1078.61 885.567 1078.61 883.877 Q1078.61 881.122 1076.66 879.386 Q1074.74 877.65 1071.64 877.65 Q1069.44 877.65 1066.99 878.414 Q1064.56 879.178 1061.78 880.729 L1061.78 876.007 Q1064.6 874.872 1067.06 874.294 Q1069.51 873.715 1071.55 873.715 Q1076.92 873.715 1080.11 876.4 Q1083.31 879.085 1083.31 883.576 Q1083.31 885.706 1082.5 887.627 Q1081.71 889.525 1079.6 892.118 Q1079.02 892.789 1075.92 896.006 Q1072.82 899.201 1067.17 904.965 Z" fill="#000000" fill-rule="nonzero" fill-opacity="1" /><path clip-path="url(#clip810)" d="M1103.31 877.419 Q1099.7 877.419 1097.87 880.983 Q1096.06 884.525 1096.06 891.655 Q1096.06 898.761 1097.87 902.326 Q1099.7 905.867 1103.31 905.867 Q1106.94 905.867 1108.75 902.326 Q1110.57 898.761 1110.57 891.655 Q1110.57 884.525 1108.75 880.983 Q1106.94 877.419 1103.31 877.419 M1103.31 873.715 Q1109.12 873.715 1112.17 878.321 Q1115.25 882.905 1115.25 891.655 Q1115.25 900.381 1112.17 904.988 Q1109.12 909.571 1103.31 909.571 Q1097.5 909.571 1094.42 904.988 Q1091.36 900.381 1091.36 891.655 Q1091.36 882.905 1094.42 878.321 Q1097.5 873.715 1103.31 873.715 Z" fill="#000000" fill-rule="nonzero" fill-opacity="1" /><path clip-path="url(#clip810)" d="M1133.47 877.419 Q1129.86 877.419 1128.03 880.983 Q1126.22 884.525 1126.22 891.655 Q1126.22 898.761 1128.03 902.326 Q1129.86 905.867 1133.47 905.867 Q1137.1 905.867 1138.91 902.326 Q1140.74 898.761 1140.74 891.655 Q1140.74 884.525 1138.91 880.983 Q1137.1 877.419 1133.47 877.419 M1133.47 873.715 Q1139.28 873.715 1142.33 878.321 Q1145.41 882.905 1145.41 891.655 Q1145.41 900.381 1142.33 904.988 Q1139.28 909.571 1133.47 909.571 Q1127.66 909.571 1124.58 904.988 Q1121.52 900.381 1121.52 891.655 Q1121.52 882.905 1124.58 878.321 Q1127.66 873.715 1133.47 873.715 Z" fill="#000000" fill-rule="nonzero" fill-opacity="1" /><path clip-path="url(#clip810)" d="M1282.1 904.965 L1298.42 904.965 L1298.42 908.9 L1276.48 908.9 L1276.48 904.965 Q1279.14 902.21 1283.72 897.58 Q1288.33 892.928 1289.51 891.585 Q1291.75 889.062 1292.63 887.326 Q1293.54 885.567 1293.54 883.877 Q1293.54 881.122 1291.59 879.386 Q1289.67 877.65 1286.57 877.65 Q1284.37 877.65 1281.92 878.414 Q1279.49 879.178 1276.71 880.729 L1276.71 876.007 Q1279.53 874.872 1281.99 874.294 Q1284.44 873.715 1286.48 873.715 Q1291.85 873.715 1295.04 876.4 Q1298.24 879.085 1298.24 883.576 Q1298.24 885.706 1297.43 887.627 Q1296.64 889.525 1294.53 892.118 Q1293.95 892.789 1290.85 896.006 Q1287.75 899.201 1282.1 904.965 Z" fill="#000000" fill-rule="nonzero" fill-opacity="1" /><path clip-path="url(#clip810)" d="M1308.28 874.34 L1326.64 874.34 L1326.64 878.275 L1312.56 878.275 L1312.56 886.747 Q1313.58 886.4 1314.6 886.238 Q1315.62 886.053 1316.64 886.053 Q1322.43 886.053 1325.8 889.224 Q1329.18 892.395 1329.18 897.812 Q1329.18 903.391 1325.71 906.492 Q1322.24 909.571 1315.92 909.571 Q1313.74 909.571 1311.48 909.201 Q1309.23 908.83 1306.82 908.09 L1306.82 903.391 Q1308.91 904.525 1311.13 905.08 Q1313.35 905.636 1315.83 905.636 Q1319.83 905.636 1322.17 903.53 Q1324.51 901.423 1324.51 897.812 Q1324.51 894.201 1322.17 892.094 Q1319.83 889.988 1315.83 889.988 Q1313.95 889.988 1312.08 890.405 Q1310.23 890.821 1308.28 891.701 L1308.28 874.34 Z" fill="#000000" fill-rule="nonzero" fill-opacity="1" /><path clip-path="url(#clip810)" d="M1348.4 877.419 Q1344.79 877.419 1342.96 880.983 Q1341.15 884.525 1341.15 891.655 Q1341.15 898.761 1342.96 902.326 Q1344.79 905.867 1348.4 905.867 Q1352.03 905.867 1353.84 902.326 Q1355.67 898.761 1355.67 891.655 Q1355.67 884.525 1353.84 880.983 Q1352.03 877.419 1348.4 877.419 M1348.4 873.715 Q1354.21 873.715 1357.26 878.321 Q1360.34 882.905 1360.34 891.655 Q1360.34 900.381 1357.26 904.988 Q1354.21 909.571 1348.4 909.571 Q1342.59 909.571 1339.51 904.988 Q1336.45 900.381 1336.45 891.655 Q1336.45 882.905 1339.51 878.321 Q1342.59 873.715 1348.4 873.715 Z" fill="#000000" fill-rule="nonzero" fill-opacity="1" /><path clip-path="url(#clip810)" d="M526.622 946.327 L526.622 964.183 L534.706 964.183 Q539.194 964.183 541.645 961.86 Q544.095 959.536 544.095 955.239 Q544.095 950.974 541.645 948.651 Q539.194 946.327 534.706 946.327 L526.622 946.327 M520.192 941.044 L534.706 941.044 Q542.695 941.044 546.769 944.672 Q550.875 948.269 550.875 955.239 Q550.875 962.273 546.769 965.87 Q542.695 969.467 534.706 969.467 L526.622 969.467 L526.622 988.564 L520.192 988.564 L520.192 941.044 Z" fill="#000000" fill-rule="nonzero" fill-opacity="1" /><path clip-path="url(#clip810)" d="M595.085 944.704 L595.085 951.484 Q591.838 948.46 588.146 946.964 Q584.486 945.468 580.348 945.468 Q572.2 945.468 567.871 950.465 Q563.543 955.43 563.543 964.852 Q563.543 974.241 567.871 979.238 Q572.2 984.203 580.348 984.203 Q584.486 984.203 588.146 982.707 Q591.838 981.211 595.085 978.188 L595.085 984.904 Q591.711 987.195 587.923 988.341 Q584.168 989.487 579.966 989.487 Q569.176 989.487 562.97 982.898 Q556.763 976.278 556.763 964.852 Q556.763 953.393 562.97 946.805 Q569.176 940.184 579.966 940.184 Q584.231 940.184 587.987 941.33 Q591.775 942.444 595.085 944.704 Z" fill="#000000" fill-rule="nonzero" fill-opacity="1" /><path clip-path="url(#clip810)" d="M620.898 947.378 L612.177 971.026 L629.651 971.026 L620.898 947.378 M617.269 941.044 L624.558 941.044 L642.668 988.564 L635.984 988.564 L631.656 976.374 L610.235 976.374 L605.907 988.564 L599.127 988.564 L617.269 941.044 Z" fill="#000000" fill-rule="nonzero" fill-opacity="1" /><path clip-path="url(#clip810)" d="M695.727 954.285 L695.727 959.759 Q693.244 958.39 690.73 957.722 Q688.247 957.022 685.701 957.022 Q680.003 957.022 676.852 960.65 Q673.701 964.247 673.701 970.772 Q673.701 977.297 676.852 980.925 Q680.003 984.522 685.701 984.522 Q688.247 984.522 690.73 983.853 Q693.244 983.153 695.727 981.784 L695.727 987.195 Q693.276 988.341 690.634 988.914 Q688.024 989.487 685.064 989.487 Q677.011 989.487 672.269 984.426 Q667.527 979.365 667.527 970.772 Q667.527 962.051 672.301 957.054 Q677.107 952.057 685.446 952.057 Q688.151 952.057 690.73 952.629 Q693.308 953.171 695.727 954.285 Z" fill="#000000" fill-rule="nonzero" fill-opacity="1" /><path clip-path="url(#clip810)" d="M719.725 957.022 Q715.015 957.022 712.277 960.714 Q709.54 964.374 709.54 970.772 Q709.54 977.169 712.246 980.861 Q714.983 984.522 719.725 984.522 Q724.404 984.522 727.141 980.83 Q729.879 977.137 729.879 970.772 Q729.879 964.438 727.141 960.746 Q724.404 957.022 719.725 957.022 M719.725 952.057 Q727.364 952.057 731.725 957.022 Q736.085 961.987 736.085 970.772 Q736.085 979.525 731.725 984.522 Q727.364 989.487 719.725 989.487 Q712.055 989.487 707.694 984.522 Q703.365 979.525 703.365 970.772 Q703.365 961.987 707.694 957.022 Q712.055 952.057 719.725 952.057 Z" fill="#000000" fill-rule="nonzero" fill-opacity="1" /><path clip-path="url(#clip810)" d="M773.547 959.759 Q775.744 955.812 778.799 953.934 Q781.855 952.057 785.992 952.057 Q791.562 952.057 794.586 955.971 Q797.61 959.855 797.61 967.048 L797.61 988.564 L791.721 988.564 L791.721 967.239 Q791.721 962.114 789.907 959.632 Q788.093 957.149 784.369 957.149 Q779.818 957.149 777.176 960.173 Q774.534 963.197 774.534 968.416 L774.534 988.564 L768.646 988.564 L768.646 967.239 Q768.646 962.083 766.832 959.632 Q765.017 957.149 761.23 957.149 Q756.742 957.149 754.1 960.205 Q751.458 963.228 751.458 968.416 L751.458 988.564 L745.57 988.564 L745.57 952.916 L751.458 952.916 L751.458 958.454 Q753.464 955.176 756.264 953.616 Q759.065 952.057 762.917 952.057 Q766.8 952.057 769.505 954.03 Q772.242 956.003 773.547 959.759 Z" fill="#000000" fill-rule="nonzero" fill-opacity="1" /><path clip-path="url(#clip810)" d="M814.956 983.217 L814.956 1002.12 L809.068 1002.12 L809.068 952.916 L814.956 952.916 L814.956 958.327 Q816.802 955.144 819.603 953.616 Q822.436 952.057 826.351 952.057 Q832.844 952.057 836.886 957.213 Q840.96 962.369 840.96 970.772 Q840.96 979.174 836.886 984.331 Q832.844 989.487 826.351 989.487 Q822.436 989.487 819.603 987.959 Q816.802 986.4 814.956 983.217 M834.881 970.772 Q834.881 964.311 832.207 960.65 Q829.566 956.958 824.919 956.958 Q820.272 956.958 817.598 960.65 Q814.956 964.311 814.956 970.772 Q814.956 977.233 817.598 980.925 Q820.272 984.585 824.919 984.585 Q829.566 984.585 832.207 980.925 Q834.881 977.233 834.881 970.772 Z" fill="#000000" fill-rule="nonzero" fill-opacity="1" /><path clip-path="url(#clip810)" d="M864.482 957.022 Q859.771 957.022 857.034 960.714 Q854.296 964.374 854.296 970.772 Q854.296 977.169 857.002 980.861 Q859.739 984.522 864.482 984.522 Q869.16 984.522 871.898 980.83 Q874.635 977.137 874.635 970.772 Q874.635 964.438 871.898 960.746 Q869.16 957.022 864.482 957.022 M864.482 952.057 Q872.12 952.057 876.481 957.022 Q880.841 961.987 880.841 970.772 Q880.841 979.525 876.481 984.522 Q872.12 989.487 864.482 989.487 Q856.811 989.487 852.45 984.522 Q848.122 979.525 848.122 970.772 Q848.122 961.987 852.45 957.022 Q856.811 952.057 864.482 952.057 Z" fill="#000000" fill-rule="nonzero" fill-opacity="1" /><path clip-path="url(#clip810)" d="M920.181 967.048 L920.181 988.564 L914.325 988.564 L914.325 967.239 Q914.325 962.178 912.352 959.664 Q910.378 957.149 906.432 957.149 Q901.689 957.149 898.952 960.173 Q896.215 963.197 896.215 968.416 L896.215 988.564 L890.326 988.564 L890.326 952.916 L896.215 952.916 L896.215 958.454 Q898.315 955.239 901.148 953.648 Q904.013 952.057 907.736 952.057 Q913.879 952.057 917.03 955.876 Q920.181 959.664 920.181 967.048 Z" fill="#000000" fill-rule="nonzero" fill-opacity="1" /><path clip-path="url(#clip810)" d="M962.354 969.276 L962.354 972.14 L935.427 972.14 Q935.809 978.188 939.056 981.371 Q942.334 984.522 948.159 984.522 Q951.533 984.522 954.684 983.694 Q957.866 982.867 960.986 981.211 L960.986 986.75 Q957.835 988.086 954.524 988.787 Q951.214 989.487 947.809 989.487 Q939.279 989.487 934.281 984.522 Q929.316 979.556 929.316 971.09 Q929.316 962.337 934.027 957.213 Q938.769 952.057 946.79 952.057 Q953.983 952.057 958.153 956.703 Q962.354 961.319 962.354 969.276 M956.498 967.557 Q956.434 962.751 953.792 959.886 Q951.182 957.022 946.854 957.022 Q941.952 957.022 938.992 959.791 Q936.064 962.56 935.618 967.589 L956.498 967.557 Z" fill="#000000" fill-rule="nonzero" fill-opacity="1" /><path clip-path="url(#clip810)" d="M1001.6 967.048 L1001.6 988.564 L995.742 988.564 L995.742 967.239 Q995.742 962.178 993.769 959.664 Q991.796 957.149 987.849 957.149 Q983.106 957.149 980.369 960.173 Q977.632 963.197 977.632 968.416 L977.632 988.564 L971.744 988.564 L971.744 952.916 L977.632 952.916 L977.632 958.454 Q979.733 955.239 982.565 953.648 Q985.43 952.057 989.154 952.057 Q995.297 952.057 998.448 955.876 Q1001.6 959.664 1001.6 967.048 Z" fill="#000000" fill-rule="nonzero" fill-opacity="1" /><path clip-path="url(#clip810)" d="M1019.07 942.794 L1019.07 952.916 L1031.14 952.916 L1031.14 957.467 L1019.07 957.467 L1019.07 976.819 Q1019.07 981.18 1020.25 982.421 Q1021.46 983.662 1025.12 983.662 L1031.14 983.662 L1031.14 988.564 L1025.12 988.564 Q1018.34 988.564 1015.76 986.049 Q1013.18 983.503 1013.18 976.819 L1013.18 957.467 L1008.89 957.467 L1008.89 952.916 L1013.18 952.916 L1013.18 942.794 L1019.07 942.794 Z" fill="#000000" fill-rule="nonzero" fill-opacity="1" /><path clip-path="url(#clip810)" d="M1061.56 953.966 L1061.56 959.504 Q1059.08 958.231 1056.41 957.595 Q1053.73 956.958 1050.87 956.958 Q1046.51 956.958 1044.31 958.295 Q1042.15 959.632 1042.15 962.305 Q1042.15 964.342 1043.71 965.52 Q1045.27 966.666 1049.98 967.716 L1051.98 968.162 Q1058.22 969.499 1060.83 971.949 Q1063.47 974.368 1063.47 978.729 Q1063.47 983.694 1059.53 986.59 Q1055.61 989.487 1048.74 989.487 Q1045.87 989.487 1042.75 988.914 Q1039.67 988.373 1036.23 987.259 L1036.23 981.211 Q1039.47 982.898 1042.63 983.758 Q1045.78 984.585 1048.86 984.585 Q1053 984.585 1055.23 983.185 Q1057.46 981.753 1057.46 979.174 Q1057.46 976.787 1055.83 975.514 Q1054.24 974.241 1048.8 973.063 L1046.76 972.586 Q1041.32 971.44 1038.9 969.085 Q1036.48 966.698 1036.48 962.56 Q1036.48 957.531 1040.05 954.794 Q1043.61 952.057 1050.17 952.057 Q1053.42 952.057 1056.28 952.534 Q1059.14 953.011 1061.56 953.966 Z" fill="#000000" fill-rule="nonzero" fill-opacity="1" /><polyline clip-path="url(#clip810)" style="stroke:#000000; stroke-linecap:round; stroke-linejoin:round; stroke-width:4; stroke-opacity:1; fill:none" points="233.662,849.7 233.662,47.2441 "/>
<polyline clip-path="url(#clip810)" style="stroke:#000000; stroke-linecap:round; stroke-linejoin:round; stroke-width:4; stroke-opacity:1; fill:none" points="233.662,747.809 245.934,747.809 "/>
<polyline clip-path="url(#clip810)" style="stroke:#000000; stroke-linecap:round; stroke-linejoin:round; stroke-width:4; stroke-opacity:1; fill:none" points="233.662,576.854 245.934,576.854 "/>
<polyline clip-path="url(#clip810)" style="stroke:#000000; stroke-linecap:round; stroke-linejoin:round; stroke-width:4; stroke-opacity:1; fill:none" points="233.662,405.9 245.934,405.9 "/>
<polyline clip-path="url(#clip810)" style="stroke:#000000; stroke-linecap:round; stroke-linejoin:round; stroke-width:4; stroke-opacity:1; fill:none" points="233.662,234.945 245.934,234.945 "/>
<polyline clip-path="url(#clip810)" style="stroke:#000000; stroke-linecap:round; stroke-linejoin:round; stroke-width:4; stroke-opacity:1; fill:none" points="233.662,63.9908 245.934,63.9908 "/>
<path clip-path="url(#clip810)" d="M116.325 733.608 Q112.713 733.608 110.885 737.172 Q109.079 740.714 109.079 747.844 Q109.079 754.95 110.885 758.515 Q112.713 762.057 116.325 762.057 Q119.959 762.057 121.764 758.515 Q123.593 754.95 123.593 747.844 Q123.593 740.714 121.764 737.172 Q119.959 733.608 116.325 733.608 M116.325 729.904 Q122.135 729.904 125.19 734.51 Q128.269 739.094 128.269 747.844 Q128.269 756.57 125.19 761.177 Q122.135 765.76 116.325 765.76 Q110.514 765.76 107.436 761.177 Q104.38 756.57 104.38 747.844 Q104.38 739.094 107.436 734.51 Q110.514 729.904 116.325 729.904 Z" fill="#000000" fill-rule="nonzero" fill-opacity="1" /><path clip-path="url(#clip810)" d="M136.486 759.209 L141.371 759.209 L141.371 765.089 L136.486 765.089 L136.486 759.209 Z" fill="#000000" fill-rule="nonzero" fill-opacity="1" /><path clip-path="url(#clip810)" d="M161.556 733.608 Q157.945 733.608 156.116 737.172 Q154.31 740.714 154.31 747.844 Q154.31 754.95 156.116 758.515 Q157.945 762.057 161.556 762.057 Q165.19 762.057 166.996 758.515 Q168.824 754.95 168.824 747.844 Q168.824 740.714 166.996 737.172 Q165.19 733.608 161.556 733.608 M161.556 729.904 Q167.366 729.904 170.421 734.51 Q173.5 739.094 173.5 747.844 Q173.5 756.57 170.421 761.177 Q167.366 765.76 161.556 765.76 Q155.746 765.76 152.667 761.177 Q149.611 756.57 149.611 747.844 Q149.611 739.094 152.667 734.51 Q155.746 729.904 161.556 729.904 Z" fill="#000000" fill-rule="nonzero" fill-opacity="1" /><path clip-path="url(#clip810)" d="M191.718 733.608 Q188.107 733.608 186.278 737.172 Q184.472 740.714 184.472 747.844 Q184.472 754.95 186.278 758.515 Q188.107 762.057 191.718 762.057 Q195.352 762.057 197.157 758.515 Q198.986 754.95 198.986 747.844 Q198.986 740.714 197.157 737.172 Q195.352 733.608 191.718 733.608 M191.718 729.904 Q197.528 729.904 200.583 734.51 Q203.662 739.094 203.662 747.844 Q203.662 756.57 200.583 761.177 Q197.528 765.76 191.718 765.76 Q185.907 765.76 182.829 761.177 Q179.773 756.57 179.773 747.844 Q179.773 739.094 182.829 734.51 Q185.907 729.904 191.718 729.904 Z" fill="#000000" fill-rule="nonzero" fill-opacity="1" /><path clip-path="url(#clip810)" d="M117.32 562.653 Q113.709 562.653 111.88 566.218 Q110.075 569.76 110.075 576.889 Q110.075 583.996 111.88 587.56 Q113.709 591.102 117.32 591.102 Q120.954 591.102 122.76 587.56 Q124.588 583.996 124.588 576.889 Q124.588 569.76 122.76 566.218 Q120.954 562.653 117.32 562.653 M117.32 558.949 Q123.13 558.949 126.186 563.556 Q129.264 568.139 129.264 576.889 Q129.264 585.616 126.186 590.222 Q123.13 594.806 117.32 594.806 Q111.51 594.806 108.431 590.222 Q105.376 585.616 105.376 576.889 Q105.376 568.139 108.431 563.556 Q111.51 558.949 117.32 558.949 Z" fill="#000000" fill-rule="nonzero" fill-opacity="1" /><path clip-path="url(#clip810)" d="M137.482 588.255 L142.366 588.255 L142.366 594.134 L137.482 594.134 L137.482 588.255 Z" fill="#000000" fill-rule="nonzero" fill-opacity="1" /><path clip-path="url(#clip810)" d="M156.579 590.199 L172.898 590.199 L172.898 594.134 L150.954 594.134 L150.954 590.199 Q153.616 587.445 158.199 582.815 Q162.806 578.162 163.986 576.82 Q166.232 574.297 167.111 572.56 Q168.014 570.801 168.014 569.111 Q168.014 566.357 166.07 564.621 Q164.148 562.885 161.047 562.885 Q158.847 562.885 156.394 563.648 Q153.963 564.412 151.185 565.963 L151.185 561.241 Q154.01 560.107 156.463 559.528 Q158.917 558.949 160.954 558.949 Q166.324 558.949 169.519 561.635 Q172.713 564.32 172.713 568.81 Q172.713 570.94 171.903 572.861 Q171.116 574.76 169.009 577.352 Q168.431 578.023 165.329 581.241 Q162.227 584.435 156.579 590.199 Z" fill="#000000" fill-rule="nonzero" fill-opacity="1" /><path clip-path="url(#clip810)" d="M182.759 559.574 L201.116 559.574 L201.116 563.51 L187.042 563.51 L187.042 571.982 Q188.06 571.635 189.079 571.472 Q190.097 571.287 191.116 571.287 Q196.903 571.287 200.282 574.459 Q203.662 577.63 203.662 583.047 Q203.662 588.625 200.19 591.727 Q196.718 594.806 190.398 594.806 Q188.222 594.806 185.954 594.435 Q183.708 594.065 181.301 593.324 L181.301 588.625 Q183.384 589.759 185.607 590.315 Q187.829 590.871 190.306 590.871 Q194.31 590.871 196.648 588.764 Q198.986 586.658 198.986 583.047 Q198.986 579.435 196.648 577.329 Q194.31 575.222 190.306 575.222 Q188.431 575.222 186.556 575.639 Q184.704 576.056 182.759 576.935 L182.759 559.574 Z" fill="#000000" fill-rule="nonzero" fill-opacity="1" /><path clip-path="url(#clip810)" d="M116.325 391.699 Q112.713 391.699 110.885 395.263 Q109.079 398.805 109.079 405.935 Q109.079 413.041 110.885 416.606 Q112.713 420.147 116.325 420.147 Q119.959 420.147 121.764 416.606 Q123.593 413.041 123.593 405.935 Q123.593 398.805 121.764 395.263 Q119.959 391.699 116.325 391.699 M116.325 387.995 Q122.135 387.995 125.19 392.601 Q128.269 397.185 128.269 405.935 Q128.269 414.661 125.19 419.268 Q122.135 423.851 116.325 423.851 Q110.514 423.851 107.436 419.268 Q104.38 414.661 104.38 405.935 Q104.38 397.185 107.436 392.601 Q110.514 387.995 116.325 387.995 Z" fill="#000000" fill-rule="nonzero" fill-opacity="1" /><path clip-path="url(#clip810)" d="M136.486 417.3 L141.371 417.3 L141.371 423.18 L136.486 423.18 L136.486 417.3 Z" fill="#000000" fill-rule="nonzero" fill-opacity="1" /><path clip-path="url(#clip810)" d="M151.602 388.62 L169.959 388.62 L169.959 392.555 L155.885 392.555 L155.885 401.027 Q156.903 400.68 157.922 400.518 Q158.94 400.333 159.959 400.333 Q165.746 400.333 169.125 403.504 Q172.505 406.675 172.505 412.092 Q172.505 417.671 169.033 420.772 Q165.56 423.851 159.241 423.851 Q157.065 423.851 154.797 423.481 Q152.551 423.11 150.144 422.37 L150.144 417.671 Q152.227 418.805 154.449 419.36 Q156.672 419.916 159.148 419.916 Q163.153 419.916 165.491 417.81 Q167.829 415.703 167.829 412.092 Q167.829 408.481 165.491 406.374 Q163.153 404.268 159.148 404.268 Q157.273 404.268 155.398 404.685 Q153.547 405.101 151.602 405.981 L151.602 388.62 Z" fill="#000000" fill-rule="nonzero" fill-opacity="1" /><path clip-path="url(#clip810)" d="M191.718 391.699 Q188.107 391.699 186.278 395.263 Q184.472 398.805 184.472 405.935 Q184.472 413.041 186.278 416.606 Q188.107 420.147 191.718 420.147 Q195.352 420.147 197.157 416.606 Q198.986 413.041 198.986 405.935 Q198.986 398.805 197.157 395.263 Q195.352 391.699 191.718 391.699 M191.718 387.995 Q197.528 387.995 200.583 392.601 Q203.662 397.185 203.662 405.935 Q203.662 414.661 200.583 419.268 Q197.528 423.851 191.718 423.851 Q185.907 423.851 182.829 419.268 Q179.773 414.661 179.773 405.935 Q179.773 397.185 182.829 392.601 Q185.907 387.995 191.718 387.995 Z" fill="#000000" fill-rule="nonzero" fill-opacity="1" /><path clip-path="url(#clip810)" d="M117.32 220.744 Q113.709 220.744 111.88 224.309 Q110.075 227.85 110.075 234.98 Q110.075 242.086 111.88 245.651 Q113.709 249.193 117.32 249.193 Q120.954 249.193 122.76 245.651 Q124.588 242.086 124.588 234.98 Q124.588 227.85 122.76 224.309 Q120.954 220.744 117.32 220.744 M117.32 217.04 Q123.13 217.04 126.186 221.647 Q129.264 226.23 129.264 234.98 Q129.264 243.707 126.186 248.313 Q123.13 252.897 117.32 252.897 Q111.51 252.897 108.431 248.313 Q105.376 243.707 105.376 234.98 Q105.376 226.23 108.431 221.647 Q111.51 217.04 117.32 217.04 Z" fill="#000000" fill-rule="nonzero" fill-opacity="1" /><path clip-path="url(#clip810)" d="M137.482 246.346 L142.366 246.346 L142.366 252.225 L137.482 252.225 L137.482 246.346 Z" fill="#000000" fill-rule="nonzero" fill-opacity="1" /><path clip-path="url(#clip810)" d="M151.371 217.665 L173.593 217.665 L173.593 219.656 L161.047 252.225 L156.162 252.225 L167.968 221.6 L151.371 221.6 L151.371 217.665 Z" fill="#000000" fill-rule="nonzero" fill-opacity="1" /><path clip-path="url(#clip810)" d="M182.759 217.665 L201.116 217.665 L201.116 221.6 L187.042 221.6 L187.042 230.073 Q188.06 229.725 189.079 229.563 Q190.097 229.378 191.116 229.378 Q196.903 229.378 200.282 232.549 Q203.662 235.721 203.662 241.137 Q203.662 246.716 200.19 249.818 Q196.718 252.897 190.398 252.897 Q188.222 252.897 185.954 252.526 Q183.708 252.156 181.301 251.415 L181.301 246.716 Q183.384 247.85 185.607 248.406 Q187.829 248.961 190.306 248.961 Q194.31 248.961 196.648 246.855 Q198.986 244.749 198.986 241.137 Q198.986 237.526 196.648 235.42 Q194.31 233.313 190.306 233.313 Q188.431 233.313 186.556 233.73 Q184.704 234.147 182.759 235.026 L182.759 217.665 Z" fill="#000000" fill-rule="nonzero" fill-opacity="1" /><path clip-path="url(#clip810)" d="M107.135 77.3356 L114.774 77.3356 L114.774 50.97 L106.463 52.6367 L106.463 48.3774 L114.727 46.7108 L119.403 46.7108 L119.403 77.3356 L127.042 77.3356 L127.042 81.2708 L107.135 81.2708 L107.135 77.3356 Z" fill="#000000" fill-rule="nonzero" fill-opacity="1" /><path clip-path="url(#clip810)" d="M136.486 75.3912 L141.371 75.3912 L141.371 81.2708 L136.486 81.2708 L136.486 75.3912 Z" fill="#000000" fill-rule="nonzero" fill-opacity="1" /><path clip-path="url(#clip810)" d="M161.556 49.7895 Q157.945 49.7895 156.116 53.3543 Q154.31 56.8959 154.31 64.0255 Q154.31 71.1319 156.116 74.6967 Q157.945 78.2384 161.556 78.2384 Q165.19 78.2384 166.996 74.6967 Q168.824 71.1319 168.824 64.0255 Q168.824 56.8959 166.996 53.3543 Q165.19 49.7895 161.556 49.7895 M161.556 46.0858 Q167.366 46.0858 170.421 50.6922 Q173.5 55.2755 173.5 64.0255 Q173.5 72.7523 170.421 77.3588 Q167.366 81.9421 161.556 81.9421 Q155.746 81.9421 152.667 77.3588 Q149.611 72.7523 149.611 64.0255 Q149.611 55.2755 152.667 50.6922 Q155.746 46.0858 161.556 46.0858 Z" fill="#000000" fill-rule="nonzero" fill-opacity="1" /><path clip-path="url(#clip810)" d="M191.718 49.7895 Q188.107 49.7895 186.278 53.3543 Q184.472 56.8959 184.472 64.0255 Q184.472 71.1319 186.278 74.6967 Q188.107 78.2384 191.718 78.2384 Q195.352 78.2384 197.157 74.6967 Q198.986 71.1319 198.986 64.0255 Q198.986 56.8959 197.157 53.3543 Q195.352 49.7895 191.718 49.7895 M191.718 46.0858 Q197.528 46.0858 200.583 50.6922 Q203.662 55.2755 203.662 64.0255 Q203.662 72.7523 200.583 77.3588 Q197.528 81.9421 191.718 81.9421 Q185.907 81.9421 182.829 77.3588 Q179.773 72.7523 179.773 64.0255 Q179.773 55.2755 182.829 50.6922 Q185.907 46.0858 191.718 46.0858 Z" fill="#000000" fill-rule="nonzero" fill-opacity="1" /><path clip-path="url(#clip810)" d="M12.6042 504.188 L12.6042 495.53 L52.358 474.46 L12.6042 474.46 L12.6042 468.222 L60.1242 468.222 L60.1242 476.879 L20.3703 497.949 L60.1242 497.949 L60.1242 504.188 L12.6042 504.188 Z" fill="#000000" fill-rule="nonzero" fill-opacity="1" /><path clip-path="url(#clip810)" d="M12.6042 455.427 L12.6042 445.846 L44.9419 433.719 L12.6042 421.529 L12.6042 411.949 L60.1242 411.949 L60.1242 418.219 L18.397 418.219 L50.9894 430.473 L50.9894 436.934 L18.397 449.188 L60.1242 449.188 L60.1242 455.427 L12.6042 455.427 Z" fill="#000000" fill-rule="nonzero" fill-opacity="1" /><path clip-path="url(#clip810)" d="M12.6042 399.185 L12.6042 392.756 L60.1242 392.756 L60.1242 399.185 L12.6042 399.185 Z" fill="#000000" fill-rule="nonzero" fill-opacity="1" /><path clip-path="url(#clip812)" d="M265.257 161.462 L286.75 122.106 L308.242 104.705 L329.735 95.6053 L351.228 89.0198 L372.721 85.8268 L394.214 82.4584 L415.707 82.8636 L437.2 79.6529 L458.693 80.5615 L480.186 79.3247 L501.679 79.3258 L523.172 78.1246 L544.664 78.7643 L566.157 80.7401 L587.65 79.8498 L609.143 79.5602 L630.636 79.4271 L652.129 80.3365 L673.622 81.013 L695.115 79.4599 L716.608 81.4474 L738.101 82.2407 L759.594 83.0645 L781.086 85.484 L802.579 84.8686 L824.072 86.0481 L845.565 86.1574 L867.058 87.3766 L888.551 88.3668 L910.044 88.5165 L931.537 88.3177 L953.03 91.1058 L974.523 90.1052 L996.016 91.0663 L1017.51 90.1182 L1039 90.8636 L1060.49 90.4822 L1081.99 92.0862 L1103.48 91.4513 L1124.97 91.4748 L1146.47 91.2914 L1167.96 92.2726 L1189.45 92.4496 L1210.94 93.9751 L1232.44 93.0707 L1253.93 93.8892 L1275.42 93.3706 L1296.92 93.7361 L1318.41 93.7361 L1318.41 83.4568 L1296.92 83.4568 L1275.42 83.3824 L1253.93 83.9775 L1232.44 83.6959 L1210.94 83.3456 L1189.45 83.5579 L1167.96 82.2891 L1146.47 82.1834 L1124.97 83.147 L1103.48 82.111 L1081.99 81.6445 L1060.49 80.1551 L1039 80.4497 L1017.51 79.1264 L996.016 79.6017 L974.523 78.3566 L953.03 76.73 L931.537 74.4954 L910.044 75.804 L888.551 75.2026 L867.058 73.9746 L845.565 73.5439 L824.072 74.1025 L802.579 73.1371 L781.086 74.2125 L759.594 74.6308 L738.101 73.5913 L716.608 72.7544 L695.115 73.6037 L673.622 70.3706 L652.129 70.769 L630.636 70.6136 L609.143 72.9766 L587.65 71.4347 L566.157 69.9551 L544.664 70.6838 L523.172 71.365 L501.679 70.6839 L480.186 71.3047 L458.693 70.8307 L437.2 70.0596 L415.707 72.1779 L394.214 74.8291 L372.721 76.9576 L351.228 79.6209 L329.735 84.2135 L308.242 92.2162 L286.75 107.346 L265.257 137.301  Z" fill="#377db8" fill-rule="evenodd" fill-opacity="0.1"/>
<polyline clip-path="url(#clip812)" style="stroke:#377db8; stroke-linecap:round; stroke-linejoin:round; stroke-width:4; stroke-opacity:1; fill:none" points="265.257,149.381 286.75,114.726 308.242,98.4608 329.735,89.9094 351.228,84.3203 372.721,81.3922 394.214,78.6438 415.707,77.5207 437.2,74.8563 458.693,75.6961 480.186,75.3147 501.679,75.0048 523.172,74.7448 544.664,74.724 566.157,75.3476 587.65,75.6422 609.143,76.2684 630.636,75.0203 652.129,75.5528 673.622,75.6918 695.115,76.5318 716.608,77.1009 738.101,77.916 759.594,78.8477 781.086,79.8482 802.579,79.0029 824.072,80.0753 845.565,79.8506 867.058,80.6756 888.551,81.7847 910.044,82.1602 931.537,81.4065 953.03,83.9179 974.523,84.2309 996.016,85.334 1017.51,84.6223 1039,85.6567 1060.49,85.3186 1081.99,86.8653 1103.48,86.7811 1124.97,87.3109 1146.47,86.7374 1167.96,87.2808 1189.45,88.0038 1210.94,88.6603 1232.44,88.3833 1253.93,88.9333 1275.42,88.3765 1296.92,88.5964 1318.41,88.5964 "/>
<circle clip-path="url(#clip812)" cx="265.257" cy="149.381" r="14.4" fill="#377db8" fill-rule="evenodd" fill-opacity="1" stroke="none"/>
<circle clip-path="url(#clip812)" cx="286.75" cy="114.726" r="14.4" fill="#377db8" fill-rule="evenodd" fill-opacity="1" stroke="none"/>
<circle clip-path="url(#clip812)" cx="308.242" cy="98.4608" r="14.4" fill="#377db8" fill-rule="evenodd" fill-opacity="1" stroke="none"/>
<circle clip-path="url(#clip812)" cx="329.735" cy="89.9094" r="14.4" fill="#377db8" fill-rule="evenodd" fill-opacity="1" stroke="none"/>
<circle clip-path="url(#clip812)" cx="351.228" cy="84.3203" r="14.4" fill="#377db8" fill-rule="evenodd" fill-opacity="1" stroke="none"/>
<circle clip-path="url(#clip812)" cx="372.721" cy="81.3922" r="14.4" fill="#377db8" fill-rule="evenodd" fill-opacity="1" stroke="none"/>
<circle clip-path="url(#clip812)" cx="394.214" cy="78.6438" r="14.4" fill="#377db8" fill-rule="evenodd" fill-opacity="1" stroke="none"/>
<circle clip-path="url(#clip812)" cx="415.707" cy="77.5207" r="14.4" fill="#377db8" fill-rule="evenodd" fill-opacity="1" stroke="none"/>
<circle clip-path="url(#clip812)" cx="437.2" cy="74.8563" r="14.4" fill="#377db8" fill-rule="evenodd" fill-opacity="1" stroke="none"/>
<circle clip-path="url(#clip812)" cx="458.693" cy="75.6961" r="14.4" fill="#377db8" fill-rule="evenodd" fill-opacity="1" stroke="none"/>
<circle clip-path="url(#clip812)" cx="480.186" cy="75.3147" r="14.4" fill="#377db8" fill-rule="evenodd" fill-opacity="1" stroke="none"/>
<circle clip-path="url(#clip812)" cx="501.679" cy="75.0048" r="14.4" fill="#377db8" fill-rule="evenodd" fill-opacity="1" stroke="none"/>
<circle clip-path="url(#clip812)" cx="523.172" cy="74.7448" r="14.4" fill="#377db8" fill-rule="evenodd" fill-opacity="1" stroke="none"/>
<circle clip-path="url(#clip812)" cx="544.664" cy="74.724" r="14.4" fill="#377db8" fill-rule="evenodd" fill-opacity="1" stroke="none"/>
<circle clip-path="url(#clip812)" cx="566.157" cy="75.3476" r="14.4" fill="#377db8" fill-rule="evenodd" fill-opacity="1" stroke="none"/>
<circle clip-path="url(#clip812)" cx="587.65" cy="75.6422" r="14.4" fill="#377db8" fill-rule="evenodd" fill-opacity="1" stroke="none"/>
<circle clip-path="url(#clip812)" cx="609.143" cy="76.2684" r="14.4" fill="#377db8" fill-rule="evenodd" fill-opacity="1" stroke="none"/>
<circle clip-path="url(#clip812)" cx="630.636" cy="75.0203" r="14.4" fill="#377db8" fill-rule="evenodd" fill-opacity="1" stroke="none"/>
<circle clip-path="url(#clip812)" cx="652.129" cy="75.5528" r="14.4" fill="#377db8" fill-rule="evenodd" fill-opacity="1" stroke="none"/>
<circle clip-path="url(#clip812)" cx="673.622" cy="75.6918" r="14.4" fill="#377db8" fill-rule="evenodd" fill-opacity="1" stroke="none"/>
<circle clip-path="url(#clip812)" cx="695.115" cy="76.5318" r="14.4" fill="#377db8" fill-rule="evenodd" fill-opacity="1" stroke="none"/>
<circle clip-path="url(#clip812)" cx="716.608" cy="77.1009" r="14.4" fill="#377db8" fill-rule="evenodd" fill-opacity="1" stroke="none"/>
<circle clip-path="url(#clip812)" cx="738.101" cy="77.916" r="14.4" fill="#377db8" fill-rule="evenodd" fill-opacity="1" stroke="none"/>
<circle clip-path="url(#clip812)" cx="759.594" cy="78.8477" r="14.4" fill="#377db8" fill-rule="evenodd" fill-opacity="1" stroke="none"/>
<circle clip-path="url(#clip812)" cx="781.086" cy="79.8482" r="14.4" fill="#377db8" fill-rule="evenodd" fill-opacity="1" stroke="none"/>
<circle clip-path="url(#clip812)" cx="802.579" cy="79.0029" r="14.4" fill="#377db8" fill-rule="evenodd" fill-opacity="1" stroke="none"/>
<circle clip-path="url(#clip812)" cx="824.072" cy="80.0753" r="14.4" fill="#377db8" fill-rule="evenodd" fill-opacity="1" stroke="none"/>
<circle clip-path="url(#clip812)" cx="845.565" cy="79.8506" r="14.4" fill="#377db8" fill-rule="evenodd" fill-opacity="1" stroke="none"/>
<circle clip-path="url(#clip812)" cx="867.058" cy="80.6756" r="14.4" fill="#377db8" fill-rule="evenodd" fill-opacity="1" stroke="none"/>
<circle clip-path="url(#clip812)" cx="888.551" cy="81.7847" r="14.4" fill="#377db8" fill-rule="evenodd" fill-opacity="1" stroke="none"/>
<circle clip-path="url(#clip812)" cx="910.044" cy="82.1602" r="14.4" fill="#377db8" fill-rule="evenodd" fill-opacity="1" stroke="none"/>
<circle clip-path="url(#clip812)" cx="931.537" cy="81.4065" r="14.4" fill="#377db8" fill-rule="evenodd" fill-opacity="1" stroke="none"/>
<circle clip-path="url(#clip812)" cx="953.03" cy="83.9179" r="14.4" fill="#377db8" fill-rule="evenodd" fill-opacity="1" stroke="none"/>
<circle clip-path="url(#clip812)" cx="974.523" cy="84.2309" r="14.4" fill="#377db8" fill-rule="evenodd" fill-opacity="1" stroke="none"/>
<circle clip-path="url(#clip812)" cx="996.016" cy="85.334" r="14.4" fill="#377db8" fill-rule="evenodd" fill-opacity="1" stroke="none"/>
<circle clip-path="url(#clip812)" cx="1017.51" cy="84.6223" r="14.4" fill="#377db8" fill-rule="evenodd" fill-opacity="1" stroke="none"/>
<circle clip-path="url(#clip812)" cx="1039" cy="85.6567" r="14.4" fill="#377db8" fill-rule="evenodd" fill-opacity="1" stroke="none"/>
<circle clip-path="url(#clip812)" cx="1060.49" cy="85.3186" r="14.4" fill="#377db8" fill-rule="evenodd" fill-opacity="1" stroke="none"/>
<circle clip-path="url(#clip812)" cx="1081.99" cy="86.8653" r="14.4" fill="#377db8" fill-rule="evenodd" fill-opacity="1" stroke="none"/>
<circle clip-path="url(#clip812)" cx="1103.48" cy="86.7811" r="14.4" fill="#377db8" fill-rule="evenodd" fill-opacity="1" stroke="none"/>
<circle clip-path="url(#clip812)" cx="1124.97" cy="87.3109" r="14.4" fill="#377db8" fill-rule="evenodd" fill-opacity="1" stroke="none"/>
<circle clip-path="url(#clip812)" cx="1146.47" cy="86.7374" r="14.4" fill="#377db8" fill-rule="evenodd" fill-opacity="1" stroke="none"/>
<circle clip-path="url(#clip812)" cx="1167.96" cy="87.2808" r="14.4" fill="#377db8" fill-rule="evenodd" fill-opacity="1" stroke="none"/>
<circle clip-path="url(#clip812)" cx="1189.45" cy="88.0038" r="14.4" fill="#377db8" fill-rule="evenodd" fill-opacity="1" stroke="none"/>
<circle clip-path="url(#clip812)" cx="1210.94" cy="88.6603" r="14.4" fill="#377db8" fill-rule="evenodd" fill-opacity="1" stroke="none"/>
<circle clip-path="url(#clip812)" cx="1232.44" cy="88.3833" r="14.4" fill="#377db8" fill-rule="evenodd" fill-opacity="1" stroke="none"/>
<circle clip-path="url(#clip812)" cx="1253.93" cy="88.9333" r="14.4" fill="#377db8" fill-rule="evenodd" fill-opacity="1" stroke="none"/>
<circle clip-path="url(#clip812)" cx="1275.42" cy="88.3765" r="14.4" fill="#377db8" fill-rule="evenodd" fill-opacity="1" stroke="none"/>
<circle clip-path="url(#clip812)" cx="1296.92" cy="88.5964" r="14.4" fill="#377db8" fill-rule="evenodd" fill-opacity="1" stroke="none"/>
<circle clip-path="url(#clip812)" cx="1318.41" cy="88.5964" r="14.4" fill="#377db8" fill-rule="evenodd" fill-opacity="1" stroke="none"/>
<path clip-path="url(#clip812)" d="M265.257 407.35 L286.75 503.474 L308.242 493.969 L329.735 578.323 L351.228 646.587 L372.721 706.496 L394.214 756.241 L415.707 756.51 L437.2 826.989 L458.693 706.352 L480.186 756.571 L501.679 705.869 L523.172 756.361 L544.664 705.445 L566.157 756.409 L587.65 570.88 L609.143 643.744 L630.636 474.571 L652.129 473.029 L673.622 473.561 L695.115 569.264 L716.608 286.212 L738.101 289.906 L759.594 474.105 L781.086 291.927 L802.579 291.582 L824.072 291.326 L845.565 293.337 L867.058 296.73 L888.551 294.228 L910.044 295.1 L931.537 306.501 L953.03 310.437 L974.523 313.079 L996.016 314.529 L1017.51 316.183 L1039 317.442 L1060.49 316.13 L1081.99 317.49 L1103.48 318.726 L1124.97 320.646 L1146.47 321.624 L1167.96 314.106 L1189.45 284.734 L1210.94 284.715 L1232.44 286.134 L1253.93 250.341 L1275.42 224.043 L1296.92 249.849 L1318.41 249.904 L1318.41 143.72 L1296.92 143.602 L1275.42 139.628 L1253.93 143.927 L1232.44 159.033 L1210.94 160.347 L1189.45 161.502 L1167.96 179.037 L1146.47 223.623 L1124.97 222.869 L1103.48 222.797 L1081.99 222.646 L1060.49 221.581 L1039 223.196 L1017.51 224.575 L996.016 226.057 L974.523 226.319 L953.03 230.953 L931.537 232.485 L910.044 279.666 L888.551 279.731 L867.058 278.47 L845.565 279.589 L824.072 279.854 L802.579 274.94 L781.086 276.936 L759.594 181.027 L738.101 276.098 L716.608 277.299 L695.115 179.035 L673.622 179.686 L652.129 180.881 L630.636 182.139 L609.143 195.874 L587.65 183.973 L566.157 268.895 L544.664 225.796 L523.172 272.256 L501.679 231.137 L480.186 276.715 L458.693 237.373 L437.2 390.243 L415.707 278.46 L394.214 280.352 L372.721 242.621 L351.228 211.163 L329.735 208.038 L308.242 221.968 L286.75 241.812 L265.257 287.494  Z" fill="#e31a1c" fill-rule="evenodd" fill-opacity="0.1"/>
<polyline clip-path="url(#clip812)" style="stroke:#e31a1c; stroke-linecap:round; stroke-linejoin:round; stroke-width:4; stroke-opacity:1; fill:none" points="265.257,347.422 286.75,372.643 308.242,357.968 329.735,393.181 351.228,428.875 372.721,474.559 394.214,518.297 415.707,517.485 437.2,608.616 458.693,471.863 480.186,516.643 501.679,468.503 523.172,514.309 544.664,465.621 566.157,512.652 587.65,377.427 609.143,419.809 630.636,328.355 652.129,326.955 673.622,326.624 695.115,374.15 716.608,281.755 738.101,283.002 759.594,327.566 781.086,284.432 802.579,283.261 824.072,285.59 845.565,286.463 867.058,287.6 888.551,286.979 910.044,287.383 931.537,269.493 953.03,270.695 974.523,269.699 996.016,270.293 1017.51,270.379 1039,270.319 1060.49,268.856 1081.99,270.068 1103.48,270.761 1124.97,271.757 1146.47,272.623 1167.96,246.571 1189.45,223.118 1210.94,222.531 1232.44,222.584 1253.93,197.134 1275.42,181.835 1296.92,196.725 1318.41,196.812 "/>
<circle clip-path="url(#clip812)" cx="265.257" cy="347.422" r="14.4" fill="#e31a1c" fill-rule="evenodd" fill-opacity="1" stroke="none"/>
<circle clip-path="url(#clip812)" cx="286.75" cy="372.643" r="14.4" fill="#e31a1c" fill-rule="evenodd" fill-opacity="1" stroke="none"/>
<circle clip-path="url(#clip812)" cx="308.242" cy="357.968" r="14.4" fill="#e31a1c" fill-rule="evenodd" fill-opacity="1" stroke="none"/>
<circle clip-path="url(#clip812)" cx="329.735" cy="393.181" r="14.4" fill="#e31a1c" fill-rule="evenodd" fill-opacity="1" stroke="none"/>
<circle clip-path="url(#clip812)" cx="351.228" cy="428.875" r="14.4" fill="#e31a1c" fill-rule="evenodd" fill-opacity="1" stroke="none"/>
<circle clip-path="url(#clip812)" cx="372.721" cy="474.559" r="14.4" fill="#e31a1c" fill-rule="evenodd" fill-opacity="1" stroke="none"/>
<circle clip-path="url(#clip812)" cx="394.214" cy="518.297" r="14.4" fill="#e31a1c" fill-rule="evenodd" fill-opacity="1" stroke="none"/>
<circle clip-path="url(#clip812)" cx="415.707" cy="517.485" r="14.4" fill="#e31a1c" fill-rule="evenodd" fill-opacity="1" stroke="none"/>
<circle clip-path="url(#clip812)" cx="437.2" cy="608.616" r="14.4" fill="#e31a1c" fill-rule="evenodd" fill-opacity="1" stroke="none"/>
<circle clip-path="url(#clip812)" cx="458.693" cy="471.863" r="14.4" fill="#e31a1c" fill-rule="evenodd" fill-opacity="1" stroke="none"/>
<circle clip-path="url(#clip812)" cx="480.186" cy="516.643" r="14.4" fill="#e31a1c" fill-rule="evenodd" fill-opacity="1" stroke="none"/>
<circle clip-path="url(#clip812)" cx="501.679" cy="468.503" r="14.4" fill="#e31a1c" fill-rule="evenodd" fill-opacity="1" stroke="none"/>
<circle clip-path="url(#clip812)" cx="523.172" cy="514.309" r="14.4" fill="#e31a1c" fill-rule="evenodd" fill-opacity="1" stroke="none"/>
<circle clip-path="url(#clip812)" cx="544.664" cy="465.621" r="14.4" fill="#e31a1c" fill-rule="evenodd" fill-opacity="1" stroke="none"/>
<circle clip-path="url(#clip812)" cx="566.157" cy="512.652" r="14.4" fill="#e31a1c" fill-rule="evenodd" fill-opacity="1" stroke="none"/>
<circle clip-path="url(#clip812)" cx="587.65" cy="377.427" r="14.4" fill="#e31a1c" fill-rule="evenodd" fill-opacity="1" stroke="none"/>
<circle clip-path="url(#clip812)" cx="609.143" cy="419.809" r="14.4" fill="#e31a1c" fill-rule="evenodd" fill-opacity="1" stroke="none"/>
<circle clip-path="url(#clip812)" cx="630.636" cy="328.355" r="14.4" fill="#e31a1c" fill-rule="evenodd" fill-opacity="1" stroke="none"/>
<circle clip-path="url(#clip812)" cx="652.129" cy="326.955" r="14.4" fill="#e31a1c" fill-rule="evenodd" fill-opacity="1" stroke="none"/>
<circle clip-path="url(#clip812)" cx="673.622" cy="326.624" r="14.4" fill="#e31a1c" fill-rule="evenodd" fill-opacity="1" stroke="none"/>
<circle clip-path="url(#clip812)" cx="695.115" cy="374.15" r="14.4" fill="#e31a1c" fill-rule="evenodd" fill-opacity="1" stroke="none"/>
<circle clip-path="url(#clip812)" cx="716.608" cy="281.755" r="14.4" fill="#e31a1c" fill-rule="evenodd" fill-opacity="1" stroke="none"/>
<circle clip-path="url(#clip812)" cx="738.101" cy="283.002" r="14.4" fill="#e31a1c" fill-rule="evenodd" fill-opacity="1" stroke="none"/>
<circle clip-path="url(#clip812)" cx="759.594" cy="327.566" r="14.4" fill="#e31a1c" fill-rule="evenodd" fill-opacity="1" stroke="none"/>
<circle clip-path="url(#clip812)" cx="781.086" cy="284.432" r="14.4" fill="#e31a1c" fill-rule="evenodd" fill-opacity="1" stroke="none"/>
<circle clip-path="url(#clip812)" cx="802.579" cy="283.261" r="14.4" fill="#e31a1c" fill-rule="evenodd" fill-opacity="1" stroke="none"/>
<circle clip-path="url(#clip812)" cx="824.072" cy="285.59" r="14.4" fill="#e31a1c" fill-rule="evenodd" fill-opacity="1" stroke="none"/>
<circle clip-path="url(#clip812)" cx="845.565" cy="286.463" r="14.4" fill="#e31a1c" fill-rule="evenodd" fill-opacity="1" stroke="none"/>
<circle clip-path="url(#clip812)" cx="867.058" cy="287.6" r="14.4" fill="#e31a1c" fill-rule="evenodd" fill-opacity="1" stroke="none"/>
<circle clip-path="url(#clip812)" cx="888.551" cy="286.979" r="14.4" fill="#e31a1c" fill-rule="evenodd" fill-opacity="1" stroke="none"/>
<circle clip-path="url(#clip812)" cx="910.044" cy="287.383" r="14.4" fill="#e31a1c" fill-rule="evenodd" fill-opacity="1" stroke="none"/>
<circle clip-path="url(#clip812)" cx="931.537" cy="269.493" r="14.4" fill="#e31a1c" fill-rule="evenodd" fill-opacity="1" stroke="none"/>
<circle clip-path="url(#clip812)" cx="953.03" cy="270.695" r="14.4" fill="#e31a1c" fill-rule="evenodd" fill-opacity="1" stroke="none"/>
<circle clip-path="url(#clip812)" cx="974.523" cy="269.699" r="14.4" fill="#e31a1c" fill-rule="evenodd" fill-opacity="1" stroke="none"/>
<circle clip-path="url(#clip812)" cx="996.016" cy="270.293" r="14.4" fill="#e31a1c" fill-rule="evenodd" fill-opacity="1" stroke="none"/>
<circle clip-path="url(#clip812)" cx="1017.51" cy="270.379" r="14.4" fill="#e31a1c" fill-rule="evenodd" fill-opacity="1" stroke="none"/>
<circle clip-path="url(#clip812)" cx="1039" cy="270.319" r="14.4" fill="#e31a1c" fill-rule="evenodd" fill-opacity="1" stroke="none"/>
<circle clip-path="url(#clip812)" cx="1060.49" cy="268.856" r="14.4" fill="#e31a1c" fill-rule="evenodd" fill-opacity="1" stroke="none"/>
<circle clip-path="url(#clip812)" cx="1081.99" cy="270.068" r="14.4" fill="#e31a1c" fill-rule="evenodd" fill-opacity="1" stroke="none"/>
<circle clip-path="url(#clip812)" cx="1103.48" cy="270.761" r="14.4" fill="#e31a1c" fill-rule="evenodd" fill-opacity="1" stroke="none"/>
<circle clip-path="url(#clip812)" cx="1124.97" cy="271.757" r="14.4" fill="#e31a1c" fill-rule="evenodd" fill-opacity="1" stroke="none"/>
<circle clip-path="url(#clip812)" cx="1146.47" cy="272.623" r="14.4" fill="#e31a1c" fill-rule="evenodd" fill-opacity="1" stroke="none"/>
<circle clip-path="url(#clip812)" cx="1167.96" cy="246.571" r="14.4" fill="#e31a1c" fill-rule="evenodd" fill-opacity="1" stroke="none"/>
<circle clip-path="url(#clip812)" cx="1189.45" cy="223.118" r="14.4" fill="#e31a1c" fill-rule="evenodd" fill-opacity="1" stroke="none"/>
<circle clip-path="url(#clip812)" cx="1210.94" cy="222.531" r="14.4" fill="#e31a1c" fill-rule="evenodd" fill-opacity="1" stroke="none"/>
<circle clip-path="url(#clip812)" cx="1232.44" cy="222.584" r="14.4" fill="#e31a1c" fill-rule="evenodd" fill-opacity="1" stroke="none"/>
<circle clip-path="url(#clip812)" cx="1253.93" cy="197.134" r="14.4" fill="#e31a1c" fill-rule="evenodd" fill-opacity="1" stroke="none"/>
<circle clip-path="url(#clip812)" cx="1275.42" cy="181.835" r="14.4" fill="#e31a1c" fill-rule="evenodd" fill-opacity="1" stroke="none"/>
<circle clip-path="url(#clip812)" cx="1296.92" cy="196.725" r="14.4" fill="#e31a1c" fill-rule="evenodd" fill-opacity="1" stroke="none"/>
<circle clip-path="url(#clip812)" cx="1318.41" cy="196.812" r="14.4" fill="#e31a1c" fill-rule="evenodd" fill-opacity="1" stroke="none"/>
<path clip-path="url(#clip812)" d="M265.257 197.002 L286.75 261.062 L308.242 378.099 L329.735 486.11 L351.228 572.924 L372.721 599.445 L394.214 624.412 L415.707 650.274 L437.2 663.805 L458.693 676.279 L480.186 682.376 L501.679 687.564 L523.172 691.269 L544.664 691.874 L566.157 692.157 L587.65 688.437 L609.143 688.296 L630.636 686.156 L652.129 683.417 L673.622 682.86 L695.115 677.685 L716.608 677.29 L738.101 672.069 L759.594 666.377 L781.086 666.735 L802.579 661.572 L824.072 661.225 L845.565 658.805 L867.058 658.399 L888.551 649.109 L910.044 654.936 L931.537 649.047 L953.03 649.88 L974.523 648.338 L996.016 648.113 L1017.51 643.552 L1039 644.8 L1060.49 644.214 L1081.99 644.932 L1103.48 645.897 L1124.97 642.368 L1146.47 647.688 L1167.96 648.342 L1189.45 643.268 L1210.94 639.504 L1232.44 642.087 L1253.93 641.432 L1275.42 642.34 L1296.92 641.48 L1318.41 642.732 L1318.41 619.188 L1296.92 621.269 L1275.42 625.844 L1253.93 627.651 L1232.44 626.183 L1210.94 626.314 L1189.45 621.233 L1167.96 619.369 L1146.47 619.765 L1124.97 620.116 L1103.48 622.026 L1081.99 617.353 L1060.49 618.201 L1039 618.422 L1017.51 620.77 L996.016 622.939 L974.523 620.957 L953.03 619.239 L931.537 624.601 L910.044 625.489 L888.551 629.757 L867.058 630.943 L845.565 630.246 L824.072 634.328 L802.579 640.832 L781.086 640.878 L759.594 643.701 L738.101 648.963 L716.608 650.532 L695.115 659.622 L673.622 665.866 L652.129 665.515 L630.636 668.764 L609.143 670.953 L587.65 675.738 L566.157 674.388 L544.664 677.797 L523.172 677.769 L501.679 674.021 L480.186 670.718 L458.693 662.576 L437.2 649.56 L415.707 631.397 L394.214 605.213 L372.721 568.235 L351.228 532.186 L329.735 458.947 L308.242 360.287 L286.75 243.042 L265.257 171.924  Z" fill="#974ea2" fill-rule="evenodd" fill-opacity="0.1"/>
<polyline clip-path="url(#clip812)" style="stroke:#974ea2; stroke-linecap:round; stroke-linejoin:round; stroke-width:4; stroke-opacity:1; fill:none" points="265.257,184.463 286.75,252.052 308.242,369.193 329.735,472.528 351.228,552.555 372.721,583.84 394.214,614.812 415.707,640.836 437.2,656.682 458.693,669.428 480.186,676.547 501.679,680.793 523.172,684.519 544.664,684.836 566.157,683.273 587.65,682.088 609.143,679.625 630.636,677.46 652.129,674.466 673.622,674.363 695.115,668.654 716.608,663.911 738.101,660.516 759.594,655.039 781.086,653.806 802.579,651.202 824.072,647.777 845.565,644.526 867.058,644.671 888.551,639.433 910.044,640.213 931.537,636.824 953.03,634.56 974.523,634.647 996.016,635.526 1017.51,632.161 1039,631.611 1060.49,631.208 1081.99,631.143 1103.48,633.962 1124.97,631.242 1146.47,633.726 1167.96,633.856 1189.45,632.25 1210.94,632.909 1232.44,634.135 1253.93,634.542 1275.42,634.092 1296.92,631.375 1318.41,630.96 "/>
<circle clip-path="url(#clip812)" cx="265.257" cy="184.463" r="14.4" fill="#974ea2" fill-rule="evenodd" fill-opacity="1" stroke="none"/>
<circle clip-path="url(#clip812)" cx="286.75" cy="252.052" r="14.4" fill="#974ea2" fill-rule="evenodd" fill-opacity="1" stroke="none"/>
<circle clip-path="url(#clip812)" cx="308.242" cy="369.193" r="14.4" fill="#974ea2" fill-rule="evenodd" fill-opacity="1" stroke="none"/>
<circle clip-path="url(#clip812)" cx="329.735" cy="472.528" r="14.4" fill="#974ea2" fill-rule="evenodd" fill-opacity="1" stroke="none"/>
<circle clip-path="url(#clip812)" cx="351.228" cy="552.555" r="14.4" fill="#974ea2" fill-rule="evenodd" fill-opacity="1" stroke="none"/>
<circle clip-path="url(#clip812)" cx="372.721" cy="583.84" r="14.4" fill="#974ea2" fill-rule="evenodd" fill-opacity="1" stroke="none"/>
<circle clip-path="url(#clip812)" cx="394.214" cy="614.812" r="14.4" fill="#974ea2" fill-rule="evenodd" fill-opacity="1" stroke="none"/>
<circle clip-path="url(#clip812)" cx="415.707" cy="640.836" r="14.4" fill="#974ea2" fill-rule="evenodd" fill-opacity="1" stroke="none"/>
<circle clip-path="url(#clip812)" cx="437.2" cy="656.682" r="14.4" fill="#974ea2" fill-rule="evenodd" fill-opacity="1" stroke="none"/>
<circle clip-path="url(#clip812)" cx="458.693" cy="669.428" r="14.4" fill="#974ea2" fill-rule="evenodd" fill-opacity="1" stroke="none"/>
<circle clip-path="url(#clip812)" cx="480.186" cy="676.547" r="14.4" fill="#974ea2" fill-rule="evenodd" fill-opacity="1" stroke="none"/>
<circle clip-path="url(#clip812)" cx="501.679" cy="680.793" r="14.4" fill="#974ea2" fill-rule="evenodd" fill-opacity="1" stroke="none"/>
<circle clip-path="url(#clip812)" cx="523.172" cy="684.519" r="14.4" fill="#974ea2" fill-rule="evenodd" fill-opacity="1" stroke="none"/>
<circle clip-path="url(#clip812)" cx="544.664" cy="684.836" r="14.4" fill="#974ea2" fill-rule="evenodd" fill-opacity="1" stroke="none"/>
<circle clip-path="url(#clip812)" cx="566.157" cy="683.273" r="14.4" fill="#974ea2" fill-rule="evenodd" fill-opacity="1" stroke="none"/>
<circle clip-path="url(#clip812)" cx="587.65" cy="682.088" r="14.4" fill="#974ea2" fill-rule="evenodd" fill-opacity="1" stroke="none"/>
<circle clip-path="url(#clip812)" cx="609.143" cy="679.625" r="14.4" fill="#974ea2" fill-rule="evenodd" fill-opacity="1" stroke="none"/>
<circle clip-path="url(#clip812)" cx="630.636" cy="677.46" r="14.4" fill="#974ea2" fill-rule="evenodd" fill-opacity="1" stroke="none"/>
<circle clip-path="url(#clip812)" cx="652.129" cy="674.466" r="14.4" fill="#974ea2" fill-rule="evenodd" fill-opacity="1" stroke="none"/>
<circle clip-path="url(#clip812)" cx="673.622" cy="674.363" r="14.4" fill="#974ea2" fill-rule="evenodd" fill-opacity="1" stroke="none"/>
<circle clip-path="url(#clip812)" cx="695.115" cy="668.654" r="14.4" fill="#974ea2" fill-rule="evenodd" fill-opacity="1" stroke="none"/>
<circle clip-path="url(#clip812)" cx="716.608" cy="663.911" r="14.4" fill="#974ea2" fill-rule="evenodd" fill-opacity="1" stroke="none"/>
<circle clip-path="url(#clip812)" cx="738.101" cy="660.516" r="14.4" fill="#974ea2" fill-rule="evenodd" fill-opacity="1" stroke="none"/>
<circle clip-path="url(#clip812)" cx="759.594" cy="655.039" r="14.4" fill="#974ea2" fill-rule="evenodd" fill-opacity="1" stroke="none"/>
<circle clip-path="url(#clip812)" cx="781.086" cy="653.806" r="14.4" fill="#974ea2" fill-rule="evenodd" fill-opacity="1" stroke="none"/>
<circle clip-path="url(#clip812)" cx="802.579" cy="651.202" r="14.4" fill="#974ea2" fill-rule="evenodd" fill-opacity="1" stroke="none"/>
<circle clip-path="url(#clip812)" cx="824.072" cy="647.777" r="14.4" fill="#974ea2" fill-rule="evenodd" fill-opacity="1" stroke="none"/>
<circle clip-path="url(#clip812)" cx="845.565" cy="644.526" r="14.4" fill="#974ea2" fill-rule="evenodd" fill-opacity="1" stroke="none"/>
<circle clip-path="url(#clip812)" cx="867.058" cy="644.671" r="14.4" fill="#974ea2" fill-rule="evenodd" fill-opacity="1" stroke="none"/>
<circle clip-path="url(#clip812)" cx="888.551" cy="639.433" r="14.4" fill="#974ea2" fill-rule="evenodd" fill-opacity="1" stroke="none"/>
<circle clip-path="url(#clip812)" cx="910.044" cy="640.213" r="14.4" fill="#974ea2" fill-rule="evenodd" fill-opacity="1" stroke="none"/>
<circle clip-path="url(#clip812)" cx="931.537" cy="636.824" r="14.4" fill="#974ea2" fill-rule="evenodd" fill-opacity="1" stroke="none"/>
<circle clip-path="url(#clip812)" cx="953.03" cy="634.56" r="14.4" fill="#974ea2" fill-rule="evenodd" fill-opacity="1" stroke="none"/>
<circle clip-path="url(#clip812)" cx="974.523" cy="634.647" r="14.4" fill="#974ea2" fill-rule="evenodd" fill-opacity="1" stroke="none"/>
<circle clip-path="url(#clip812)" cx="996.016" cy="635.526" r="14.4" fill="#974ea2" fill-rule="evenodd" fill-opacity="1" stroke="none"/>
<circle clip-path="url(#clip812)" cx="1017.51" cy="632.161" r="14.4" fill="#974ea2" fill-rule="evenodd" fill-opacity="1" stroke="none"/>
<circle clip-path="url(#clip812)" cx="1039" cy="631.611" r="14.4" fill="#974ea2" fill-rule="evenodd" fill-opacity="1" stroke="none"/>
<circle clip-path="url(#clip812)" cx="1060.49" cy="631.208" r="14.4" fill="#974ea2" fill-rule="evenodd" fill-opacity="1" stroke="none"/>
<circle clip-path="url(#clip812)" cx="1081.99" cy="631.143" r="14.4" fill="#974ea2" fill-rule="evenodd" fill-opacity="1" stroke="none"/>
<circle clip-path="url(#clip812)" cx="1103.48" cy="633.962" r="14.4" fill="#974ea2" fill-rule="evenodd" fill-opacity="1" stroke="none"/>
<circle clip-path="url(#clip812)" cx="1124.97" cy="631.242" r="14.4" fill="#974ea2" fill-rule="evenodd" fill-opacity="1" stroke="none"/>
<circle clip-path="url(#clip812)" cx="1146.47" cy="633.726" r="14.4" fill="#974ea2" fill-rule="evenodd" fill-opacity="1" stroke="none"/>
<circle clip-path="url(#clip812)" cx="1167.96" cy="633.856" r="14.4" fill="#974ea2" fill-rule="evenodd" fill-opacity="1" stroke="none"/>
<circle clip-path="url(#clip812)" cx="1189.45" cy="632.25" r="14.4" fill="#974ea2" fill-rule="evenodd" fill-opacity="1" stroke="none"/>
<circle clip-path="url(#clip812)" cx="1210.94" cy="632.909" r="14.4" fill="#974ea2" fill-rule="evenodd" fill-opacity="1" stroke="none"/>
<circle clip-path="url(#clip812)" cx="1232.44" cy="634.135" r="14.4" fill="#974ea2" fill-rule="evenodd" fill-opacity="1" stroke="none"/>
<circle clip-path="url(#clip812)" cx="1253.93" cy="634.542" r="14.4" fill="#974ea2" fill-rule="evenodd" fill-opacity="1" stroke="none"/>
<circle clip-path="url(#clip812)" cx="1275.42" cy="634.092" r="14.4" fill="#974ea2" fill-rule="evenodd" fill-opacity="1" stroke="none"/>
<circle clip-path="url(#clip812)" cx="1296.92" cy="631.375" r="14.4" fill="#974ea2" fill-rule="evenodd" fill-opacity="1" stroke="none"/>
<circle clip-path="url(#clip812)" cx="1318.41" cy="630.96" r="14.4" fill="#974ea2" fill-rule="evenodd" fill-opacity="1" stroke="none"/>
<path clip-path="url(#clip810)" d="M1407.31 281.353 L1952.76 281.353 L1952.76 73.9926 L1407.31 73.9926  Z" fill="#ffffff" fill-rule="evenodd" fill-opacity="1"/>
<polyline clip-path="url(#clip810)" style="stroke:#000000; stroke-linecap:round; stroke-linejoin:round; stroke-width:4; stroke-opacity:1; fill:none" points="1407.31,281.353 1952.76,281.353 1952.76,73.9926 1407.31,73.9926 1407.31,281.353 "/>
<polyline clip-path="url(#clip810)" style="stroke:#377db8; stroke-linecap:round; stroke-linejoin:round; stroke-width:4; stroke-opacity:1; fill:none" points="1426.41,125.833 1541.01,125.833 "/>
<circle clip-path="url(#clip810)" cx="1483.71" cy="125.833" r="15.9175" fill="#377db8" fill-rule="evenodd" fill-opacity="1" stroke="none"/>
<path clip-path="url(#clip810)" d="M1564.79 126.608 L1564.79 139.27 L1572.29 139.27 Q1576.06 139.27 1577.87 137.719 Q1579.7 136.145 1579.7 132.927 Q1579.7 129.687 1577.87 128.159 Q1576.06 126.608 1572.29 126.608 L1564.79 126.608 M1564.79 112.395 L1564.79 122.812 L1571.71 122.812 Q1575.14 122.812 1576.8 121.539 Q1578.49 120.242 1578.49 117.603 Q1578.49 114.988 1576.8 113.691 Q1575.14 112.395 1571.71 112.395 L1564.79 112.395 M1560.12 108.553 L1572.06 108.553 Q1577.41 108.553 1580.3 110.775 Q1583.19 112.997 1583.19 117.094 Q1583.19 120.266 1581.71 122.141 Q1580.23 124.015 1577.36 124.478 Q1580.81 125.219 1582.71 127.58 Q1584.63 129.918 1584.63 133.437 Q1584.63 138.066 1581.48 140.589 Q1578.33 143.113 1572.52 143.113 L1560.12 143.113 L1560.12 108.553 Z" fill="#000000" fill-rule="nonzero" fill-opacity="1" /><path clip-path="url(#clip810)" d="M1592.45 117.187 L1596.71 117.187 L1596.71 143.113 L1592.45 143.113 L1592.45 117.187 M1592.45 107.094 L1596.71 107.094 L1596.71 112.488 L1592.45 112.488 L1592.45 107.094 Z" fill="#000000" fill-rule="nonzero" fill-opacity="1" /><path clip-path="url(#clip810)" d="M1622.15 117.951 L1622.15 121.978 Q1620.35 121.053 1618.4 120.59 Q1616.46 120.127 1614.37 120.127 Q1611.2 120.127 1609.61 121.099 Q1608.03 122.071 1608.03 124.015 Q1608.03 125.497 1609.17 126.353 Q1610.3 127.187 1613.73 127.951 L1615.18 128.275 Q1619.72 129.247 1621.62 131.029 Q1623.54 132.789 1623.54 135.96 Q1623.54 139.571 1620.67 141.677 Q1617.82 143.784 1612.82 143.784 Q1610.74 143.784 1608.47 143.367 Q1606.23 142.974 1603.73 142.164 L1603.73 137.765 Q1606.09 138.992 1608.38 139.617 Q1610.67 140.219 1612.92 140.219 Q1615.93 140.219 1617.55 139.201 Q1619.17 138.159 1619.17 136.284 Q1619.17 134.548 1617.99 133.622 Q1616.83 132.696 1612.87 131.84 L1611.39 131.492 Q1607.43 130.659 1605.67 128.946 Q1603.91 127.21 1603.91 124.201 Q1603.91 120.543 1606.5 118.553 Q1609.1 116.562 1613.86 116.562 Q1616.23 116.562 1618.31 116.909 Q1620.39 117.256 1622.15 117.951 Z" fill="#000000" fill-rule="nonzero" fill-opacity="1" /><path clip-path="url(#clip810)" d="M1634.54 109.826 L1634.54 117.187 L1643.31 117.187 L1643.31 120.497 L1634.54 120.497 L1634.54 134.571 Q1634.54 137.742 1635.39 138.645 Q1636.27 139.548 1638.93 139.548 L1643.31 139.548 L1643.31 143.113 L1638.93 143.113 Q1634 143.113 1632.13 141.284 Q1630.25 139.432 1630.25 134.571 L1630.25 120.497 L1627.13 120.497 L1627.13 117.187 L1630.25 117.187 L1630.25 109.826 L1634.54 109.826 Z" fill="#000000" fill-rule="nonzero" fill-opacity="1" /><path clip-path="url(#clip810)" d="M1658.96 120.173 Q1655.53 120.173 1653.54 122.858 Q1651.55 125.52 1651.55 130.173 Q1651.55 134.826 1653.52 137.511 Q1655.51 140.173 1658.96 140.173 Q1662.36 140.173 1664.35 137.488 Q1666.34 134.802 1666.34 130.173 Q1666.34 125.566 1664.35 122.881 Q1662.36 120.173 1658.96 120.173 M1658.96 116.562 Q1664.51 116.562 1667.68 120.173 Q1670.86 123.784 1670.86 130.173 Q1670.86 136.539 1667.68 140.173 Q1664.51 143.784 1658.96 143.784 Q1653.38 143.784 1650.21 140.173 Q1647.06 136.539 1647.06 130.173 Q1647.06 123.784 1650.21 120.173 Q1653.38 116.562 1658.96 116.562 Z" fill="#000000" fill-rule="nonzero" fill-opacity="1" /><path clip-path="url(#clip810)" d="M1696.57 118.182 L1696.57 122.164 Q1694.77 121.168 1692.94 120.682 Q1691.13 120.173 1689.28 120.173 Q1685.14 120.173 1682.85 122.812 Q1680.55 125.428 1680.55 130.173 Q1680.55 134.918 1682.85 137.557 Q1685.14 140.173 1689.28 140.173 Q1691.13 140.173 1692.94 139.687 Q1694.77 139.177 1696.57 138.182 L1696.57 142.117 Q1694.79 142.951 1692.87 143.367 Q1690.97 143.784 1688.82 143.784 Q1682.96 143.784 1679.51 140.103 Q1676.06 136.423 1676.06 130.173 Q1676.06 123.83 1679.54 120.196 Q1683.03 116.562 1689.1 116.562 Q1691.06 116.562 1692.94 116.979 Q1694.81 117.372 1696.57 118.182 Z" fill="#000000" fill-rule="nonzero" fill-opacity="1" /><path clip-path="url(#clip810)" d="M1725.53 127.465 L1725.53 143.113 L1721.27 143.113 L1721.27 127.603 Q1721.27 123.923 1719.84 122.094 Q1718.4 120.266 1715.53 120.266 Q1712.08 120.266 1710.09 122.465 Q1708.1 124.664 1708.1 128.46 L1708.1 143.113 L1703.82 143.113 L1703.82 107.094 L1708.1 107.094 L1708.1 121.215 Q1709.63 118.877 1711.69 117.719 Q1713.77 116.562 1716.48 116.562 Q1720.95 116.562 1723.24 119.34 Q1725.53 122.094 1725.53 127.465 Z" fill="#000000" fill-rule="nonzero" fill-opacity="1" /><path clip-path="url(#clip810)" d="M1745.81 130.08 Q1740.65 130.08 1738.66 131.261 Q1736.67 132.441 1736.67 135.289 Q1736.67 137.557 1738.15 138.9 Q1739.65 140.219 1742.22 140.219 Q1745.76 140.219 1747.89 137.719 Q1750.04 135.196 1750.04 131.029 L1750.04 130.08 L1745.81 130.08 M1754.3 128.321 L1754.3 143.113 L1750.04 143.113 L1750.04 139.177 Q1748.59 141.539 1746.41 142.673 Q1744.23 143.784 1741.09 143.784 Q1737.1 143.784 1734.74 141.562 Q1732.41 139.316 1732.41 135.566 Q1732.41 131.191 1735.32 128.969 Q1738.26 126.747 1744.07 126.747 L1750.04 126.747 L1750.04 126.33 Q1750.04 123.391 1748.1 121.793 Q1746.18 120.173 1742.68 120.173 Q1740.46 120.173 1738.35 120.705 Q1736.25 121.238 1734.3 122.303 L1734.3 118.367 Q1736.64 117.465 1738.84 117.025 Q1741.04 116.562 1743.12 116.562 Q1748.75 116.562 1751.53 119.478 Q1754.3 122.395 1754.3 128.321 Z" fill="#000000" fill-rule="nonzero" fill-opacity="1" /><path clip-path="url(#clip810)" d="M1779.6 117.951 L1779.6 121.978 Q1777.8 121.053 1775.85 120.59 Q1773.91 120.127 1771.83 120.127 Q1768.66 120.127 1767.06 121.099 Q1765.48 122.071 1765.48 124.015 Q1765.48 125.497 1766.62 126.353 Q1767.75 127.187 1771.18 127.951 L1772.64 128.275 Q1777.17 129.247 1779.07 131.029 Q1780.99 132.789 1780.99 135.96 Q1780.99 139.571 1778.12 141.677 Q1775.28 143.784 1770.28 143.784 Q1768.19 143.784 1765.92 143.367 Q1763.68 142.974 1761.18 142.164 L1761.18 137.765 Q1763.54 138.992 1765.83 139.617 Q1768.12 140.219 1770.37 140.219 Q1773.38 140.219 1775 139.201 Q1776.62 138.159 1776.62 136.284 Q1776.62 134.548 1775.44 133.622 Q1774.28 132.696 1770.32 131.84 L1768.84 131.492 Q1764.88 130.659 1763.12 128.946 Q1761.36 127.21 1761.36 124.201 Q1761.36 120.543 1763.96 118.553 Q1766.55 116.562 1771.32 116.562 Q1773.68 116.562 1775.76 116.909 Q1777.85 117.256 1779.6 117.951 Z" fill="#000000" fill-rule="nonzero" fill-opacity="1" /><path clip-path="url(#clip810)" d="M1791.99 109.826 L1791.99 117.187 L1800.76 117.187 L1800.76 120.497 L1791.99 120.497 L1791.99 134.571 Q1791.99 137.742 1792.85 138.645 Q1793.73 139.548 1796.39 139.548 L1800.76 139.548 L1800.76 143.113 L1796.39 143.113 Q1791.46 143.113 1789.58 141.284 Q1787.71 139.432 1787.71 134.571 L1787.71 120.497 L1784.58 120.497 L1784.58 117.187 L1787.71 117.187 L1787.71 109.826 L1791.99 109.826 Z" fill="#000000" fill-rule="nonzero" fill-opacity="1" /><path clip-path="url(#clip810)" d="M1806.36 117.187 L1810.62 117.187 L1810.62 143.113 L1806.36 143.113 L1806.36 117.187 M1806.36 107.094 L1810.62 107.094 L1810.62 112.488 L1806.36 112.488 L1806.36 107.094 Z" fill="#000000" fill-rule="nonzero" fill-opacity="1" /><path clip-path="url(#clip810)" d="M1838.19 118.182 L1838.19 122.164 Q1836.39 121.168 1834.56 120.682 Q1832.75 120.173 1830.9 120.173 Q1826.76 120.173 1824.47 122.812 Q1822.17 125.428 1822.17 130.173 Q1822.17 134.918 1824.47 137.557 Q1826.76 140.173 1830.9 140.173 Q1832.75 140.173 1834.56 139.687 Q1836.39 139.177 1838.19 138.182 L1838.19 142.117 Q1836.41 142.951 1834.49 143.367 Q1832.59 143.784 1830.44 143.784 Q1824.58 143.784 1821.13 140.103 Q1817.68 136.423 1817.68 130.173 Q1817.68 123.83 1821.16 120.196 Q1824.65 116.562 1830.72 116.562 Q1832.68 116.562 1834.56 116.979 Q1836.43 117.372 1838.19 118.182 Z" fill="#000000" fill-rule="nonzero" fill-opacity="1" /><path clip-path="url(#clip810)" d="M1860.85 108.553 L1865.53 108.553 L1865.53 139.177 L1882.36 139.177 L1882.36 143.113 L1860.85 143.113 L1860.85 108.553 Z" fill="#000000" fill-rule="nonzero" fill-opacity="1" /><path clip-path="url(#clip810)" d="M1891.71 139.177 L1908.03 139.177 L1908.03 143.113 L1886.09 143.113 L1886.09 139.177 Q1888.75 136.423 1893.33 131.793 Q1897.94 127.14 1899.12 125.798 Q1901.36 123.275 1902.24 121.539 Q1903.15 119.779 1903.15 118.09 Q1903.15 115.335 1901.2 113.599 Q1899.28 111.863 1896.18 111.863 Q1893.98 111.863 1891.53 112.627 Q1889.09 113.391 1886.32 114.941 L1886.32 110.219 Q1889.14 109.085 1891.59 108.506 Q1894.05 107.928 1896.09 107.928 Q1901.46 107.928 1904.65 110.613 Q1907.84 113.298 1907.84 117.789 Q1907.84 119.918 1907.03 121.84 Q1906.25 123.738 1904.14 126.33 Q1903.56 127.002 1900.46 130.219 Q1897.36 133.414 1891.71 139.177 Z" fill="#000000" fill-rule="nonzero" fill-opacity="1" /><polyline clip-path="url(#clip810)" style="stroke:#e31a1c; stroke-linecap:round; stroke-linejoin:round; stroke-width:4; stroke-opacity:1; fill:none" points="1426.41,177.673 1541.01,177.673 "/>
<circle clip-path="url(#clip810)" cx="1483.71" cy="177.673" r="15.9175" fill="#e31a1c" fill-rule="evenodd" fill-opacity="1" stroke="none"/>
<path clip-path="url(#clip810)" d="M1564.79 178.448 L1564.79 191.11 L1572.29 191.11 Q1576.06 191.11 1577.87 189.559 Q1579.7 187.985 1579.7 184.767 Q1579.7 181.527 1577.87 179.999 Q1576.06 178.448 1572.29 178.448 L1564.79 178.448 M1564.79 164.235 L1564.79 174.652 L1571.71 174.652 Q1575.14 174.652 1576.8 173.379 Q1578.49 172.082 1578.49 169.443 Q1578.49 166.828 1576.8 165.531 Q1575.14 164.235 1571.71 164.235 L1564.79 164.235 M1560.12 160.393 L1572.06 160.393 Q1577.41 160.393 1580.3 162.615 Q1583.19 164.837 1583.19 168.934 Q1583.19 172.106 1581.71 173.981 Q1580.23 175.855 1577.36 176.318 Q1580.81 177.059 1582.71 179.42 Q1584.63 181.758 1584.63 185.277 Q1584.63 189.906 1581.48 192.429 Q1578.33 194.953 1572.52 194.953 L1560.12 194.953 L1560.12 160.393 Z" fill="#000000" fill-rule="nonzero" fill-opacity="1" /><path clip-path="url(#clip810)" d="M1592.45 169.027 L1596.71 169.027 L1596.71 194.953 L1592.45 194.953 L1592.45 169.027 M1592.45 158.934 L1596.71 158.934 L1596.71 164.328 L1592.45 164.328 L1592.45 158.934 Z" fill="#000000" fill-rule="nonzero" fill-opacity="1" /><path clip-path="url(#clip810)" d="M1622.15 169.791 L1622.15 173.818 Q1620.35 172.893 1618.4 172.43 Q1616.46 171.967 1614.37 171.967 Q1611.2 171.967 1609.61 172.939 Q1608.03 173.911 1608.03 175.855 Q1608.03 177.337 1609.17 178.193 Q1610.3 179.027 1613.73 179.791 L1615.18 180.115 Q1619.72 181.087 1621.62 182.869 Q1623.54 184.629 1623.54 187.8 Q1623.54 191.411 1620.67 193.517 Q1617.82 195.624 1612.82 195.624 Q1610.74 195.624 1608.47 195.207 Q1606.23 194.814 1603.73 194.004 L1603.73 189.605 Q1606.09 190.832 1608.38 191.457 Q1610.67 192.059 1612.92 192.059 Q1615.93 192.059 1617.55 191.041 Q1619.17 189.999 1619.17 188.124 Q1619.17 186.388 1617.99 185.462 Q1616.83 184.536 1612.87 183.68 L1611.39 183.332 Q1607.43 182.499 1605.67 180.786 Q1603.91 179.05 1603.91 176.041 Q1603.91 172.383 1606.5 170.393 Q1609.1 168.402 1613.86 168.402 Q1616.23 168.402 1618.31 168.749 Q1620.39 169.096 1622.15 169.791 Z" fill="#000000" fill-rule="nonzero" fill-opacity="1" /><path clip-path="url(#clip810)" d="M1634.54 161.666 L1634.54 169.027 L1643.31 169.027 L1643.31 172.337 L1634.54 172.337 L1634.54 186.411 Q1634.54 189.582 1635.39 190.485 Q1636.27 191.388 1638.93 191.388 L1643.31 191.388 L1643.31 194.953 L1638.93 194.953 Q1634 194.953 1632.13 193.124 Q1630.25 191.272 1630.25 186.411 L1630.25 172.337 L1627.13 172.337 L1627.13 169.027 L1630.25 169.027 L1630.25 161.666 L1634.54 161.666 Z" fill="#000000" fill-rule="nonzero" fill-opacity="1" /><path clip-path="url(#clip810)" d="M1658.96 172.013 Q1655.53 172.013 1653.54 174.698 Q1651.55 177.36 1651.55 182.013 Q1651.55 186.666 1653.52 189.351 Q1655.51 192.013 1658.96 192.013 Q1662.36 192.013 1664.35 189.328 Q1666.34 186.642 1666.34 182.013 Q1666.34 177.406 1664.35 174.721 Q1662.36 172.013 1658.96 172.013 M1658.96 168.402 Q1664.51 168.402 1667.68 172.013 Q1670.86 175.624 1670.86 182.013 Q1670.86 188.379 1667.68 192.013 Q1664.51 195.624 1658.96 195.624 Q1653.38 195.624 1650.21 192.013 Q1647.06 188.379 1647.06 182.013 Q1647.06 175.624 1650.21 172.013 Q1653.38 168.402 1658.96 168.402 Z" fill="#000000" fill-rule="nonzero" fill-opacity="1" /><path clip-path="url(#clip810)" d="M1696.57 170.022 L1696.57 174.004 Q1694.77 173.008 1692.94 172.522 Q1691.13 172.013 1689.28 172.013 Q1685.14 172.013 1682.85 174.652 Q1680.55 177.268 1680.55 182.013 Q1680.55 186.758 1682.85 189.397 Q1685.14 192.013 1689.28 192.013 Q1691.13 192.013 1692.94 191.527 Q1694.77 191.017 1696.57 190.022 L1696.57 193.957 Q1694.79 194.791 1692.87 195.207 Q1690.97 195.624 1688.82 195.624 Q1682.96 195.624 1679.51 191.943 Q1676.06 188.263 1676.06 182.013 Q1676.06 175.67 1679.54 172.036 Q1683.03 168.402 1689.1 168.402 Q1691.06 168.402 1692.94 168.819 Q1694.81 169.212 1696.57 170.022 Z" fill="#000000" fill-rule="nonzero" fill-opacity="1" /><path clip-path="url(#clip810)" d="M1725.53 179.305 L1725.53 194.953 L1721.27 194.953 L1721.27 179.443 Q1721.27 175.763 1719.84 173.934 Q1718.4 172.106 1715.53 172.106 Q1712.08 172.106 1710.09 174.305 Q1708.1 176.504 1708.1 180.3 L1708.1 194.953 L1703.82 194.953 L1703.82 158.934 L1708.1 158.934 L1708.1 173.055 Q1709.63 170.717 1711.69 169.559 Q1713.77 168.402 1716.48 168.402 Q1720.95 168.402 1723.24 171.18 Q1725.53 173.934 1725.53 179.305 Z" fill="#000000" fill-rule="nonzero" fill-opacity="1" /><path clip-path="url(#clip810)" d="M1745.81 181.92 Q1740.65 181.92 1738.66 183.101 Q1736.67 184.281 1736.67 187.129 Q1736.67 189.397 1738.15 190.74 Q1739.65 192.059 1742.22 192.059 Q1745.76 192.059 1747.89 189.559 Q1750.04 187.036 1750.04 182.869 L1750.04 181.92 L1745.81 181.92 M1754.3 180.161 L1754.3 194.953 L1750.04 194.953 L1750.04 191.017 Q1748.59 193.379 1746.41 194.513 Q1744.23 195.624 1741.09 195.624 Q1737.1 195.624 1734.74 193.402 Q1732.41 191.156 1732.41 187.406 Q1732.41 183.031 1735.32 180.809 Q1738.26 178.587 1744.07 178.587 L1750.04 178.587 L1750.04 178.17 Q1750.04 175.231 1748.1 173.633 Q1746.18 172.013 1742.68 172.013 Q1740.46 172.013 1738.35 172.545 Q1736.25 173.078 1734.3 174.143 L1734.3 170.207 Q1736.64 169.305 1738.84 168.865 Q1741.04 168.402 1743.12 168.402 Q1748.75 168.402 1751.53 171.318 Q1754.3 174.235 1754.3 180.161 Z" fill="#000000" fill-rule="nonzero" fill-opacity="1" /><path clip-path="url(#clip810)" d="M1779.6 169.791 L1779.6 173.818 Q1777.8 172.893 1775.85 172.43 Q1773.91 171.967 1771.83 171.967 Q1768.66 171.967 1767.06 172.939 Q1765.48 173.911 1765.48 175.855 Q1765.48 177.337 1766.62 178.193 Q1767.75 179.027 1771.18 179.791 L1772.64 180.115 Q1777.17 181.087 1779.07 182.869 Q1780.99 184.629 1780.99 187.8 Q1780.99 191.411 1778.12 193.517 Q1775.28 195.624 1770.28 195.624 Q1768.19 195.624 1765.92 195.207 Q1763.68 194.814 1761.18 194.004 L1761.18 189.605 Q1763.54 190.832 1765.83 191.457 Q1768.12 192.059 1770.37 192.059 Q1773.38 192.059 1775 191.041 Q1776.62 189.999 1776.62 188.124 Q1776.62 186.388 1775.44 185.462 Q1774.28 184.536 1770.32 183.68 L1768.84 183.332 Q1764.88 182.499 1763.12 180.786 Q1761.36 179.05 1761.36 176.041 Q1761.36 172.383 1763.96 170.393 Q1766.55 168.402 1771.32 168.402 Q1773.68 168.402 1775.76 168.749 Q1777.85 169.096 1779.6 169.791 Z" fill="#000000" fill-rule="nonzero" fill-opacity="1" /><path clip-path="url(#clip810)" d="M1791.99 161.666 L1791.99 169.027 L1800.76 169.027 L1800.76 172.337 L1791.99 172.337 L1791.99 186.411 Q1791.99 189.582 1792.85 190.485 Q1793.73 191.388 1796.39 191.388 L1800.76 191.388 L1800.76 194.953 L1796.39 194.953 Q1791.46 194.953 1789.58 193.124 Q1787.71 191.272 1787.71 186.411 L1787.71 172.337 L1784.58 172.337 L1784.58 169.027 L1787.71 169.027 L1787.71 161.666 L1791.99 161.666 Z" fill="#000000" fill-rule="nonzero" fill-opacity="1" /><path clip-path="url(#clip810)" d="M1806.36 169.027 L1810.62 169.027 L1810.62 194.953 L1806.36 194.953 L1806.36 169.027 M1806.36 158.934 L1810.62 158.934 L1810.62 164.328 L1806.36 164.328 L1806.36 158.934 Z" fill="#000000" fill-rule="nonzero" fill-opacity="1" /><path clip-path="url(#clip810)" d="M1838.19 170.022 L1838.19 174.004 Q1836.39 173.008 1834.56 172.522 Q1832.75 172.013 1830.9 172.013 Q1826.76 172.013 1824.47 174.652 Q1822.17 177.268 1822.17 182.013 Q1822.17 186.758 1824.47 189.397 Q1826.76 192.013 1830.9 192.013 Q1832.75 192.013 1834.56 191.527 Q1836.39 191.017 1838.19 190.022 L1838.19 193.957 Q1836.41 194.791 1834.49 195.207 Q1832.59 195.624 1830.44 195.624 Q1824.58 195.624 1821.13 191.943 Q1817.68 188.263 1817.68 182.013 Q1817.68 175.67 1821.16 172.036 Q1824.65 168.402 1830.72 168.402 Q1832.68 168.402 1834.56 168.819 Q1836.43 169.212 1838.19 170.022 Z" fill="#000000" fill-rule="nonzero" fill-opacity="1" /><path clip-path="url(#clip810)" d="M1860.85 160.393 L1882.71 160.393 L1882.71 164.328 L1865.53 164.328 L1865.53 174.559 L1881.99 174.559 L1881.99 178.494 L1865.53 178.494 L1865.53 191.017 L1883.12 191.017 L1883.12 194.953 L1860.85 194.953 L1860.85 160.393 Z" fill="#000000" fill-rule="nonzero" fill-opacity="1" /><path clip-path="url(#clip810)" d="M1912.17 179.305 L1912.17 194.953 L1907.91 194.953 L1907.91 179.443 Q1907.91 175.763 1906.48 173.934 Q1905.04 172.106 1902.17 172.106 Q1898.72 172.106 1896.73 174.305 Q1894.74 176.504 1894.74 180.3 L1894.74 194.953 L1890.46 194.953 L1890.46 169.027 L1894.74 169.027 L1894.74 173.055 Q1896.27 170.717 1898.33 169.559 Q1900.41 168.402 1903.12 168.402 Q1907.59 168.402 1909.88 171.18 Q1912.17 173.934 1912.17 179.305 Z" fill="#000000" fill-rule="nonzero" fill-opacity="1" /><path clip-path="url(#clip810)" d="M1924.88 161.666 L1924.88 169.027 L1933.65 169.027 L1933.65 172.337 L1924.88 172.337 L1924.88 186.411 Q1924.88 189.582 1925.74 190.485 Q1926.62 191.388 1929.28 191.388 L1933.65 191.388 L1933.65 194.953 L1929.28 194.953 Q1924.35 194.953 1922.47 193.124 Q1920.6 191.272 1920.6 186.411 L1920.6 172.337 L1917.47 172.337 L1917.47 169.027 L1920.6 169.027 L1920.6 161.666 L1924.88 161.666 Z" fill="#000000" fill-rule="nonzero" fill-opacity="1" /><polyline clip-path="url(#clip810)" style="stroke:#974ea2; stroke-linecap:round; stroke-linejoin:round; stroke-width:4; stroke-opacity:1; fill:none" points="1426.41,229.513 1541.01,229.513 "/>
<circle clip-path="url(#clip810)" cx="1483.71" cy="229.513" r="15.9175" fill="#974ea2" fill-rule="evenodd" fill-opacity="1" stroke="none"/>
<path clip-path="url(#clip810)" d="M1581.83 227.554 Q1581.83 228.889 1581.01 229.686 Q1580.21 230.482 1579.2 230.482 Q1578.31 230.482 1577.85 229.967 Q1577.38 229.451 1577.38 228.796 Q1577.38 228.515 1577.49 228.163 Q1577.61 227.788 1577.87 227.343 Q1578.15 226.898 1578.74 226.571 Q1579.32 226.243 1580.12 226.196 Q1579.95 226.032 1579.91 226.008 Q1579.56 225.727 1578.9 225.634 Q1578.81 225.587 1578.48 225.587 Q1576.86 225.587 1575.22 226.781 Q1573.61 227.952 1571.62 230.178 Q1569.11 232.777 1567.49 233.738 Q1574.59 234.675 1574.59 238.774 Q1574.59 239.453 1574.4 240.273 Q1574.03 241.819 1574.03 242.943 Q1574.03 245.191 1575.55 245.191 Q1577.03 245.191 1577.96 243.692 Q1578.92 242.193 1579.72 239.265 Q1579.84 238.727 1579.95 238.563 Q1580.07 238.399 1580.4 238.399 Q1580.98 238.399 1580.98 238.867 Q1580.45 241.608 1579.25 243.716 Q1577.73 246.269 1575.46 246.269 Q1573.56 246.269 1572.29 244.957 Q1571.05 243.622 1571.05 241.514 Q1571.05 240.999 1571.24 239.828 Q1571.38 239.359 1571.38 238.82 Q1571.38 237.72 1570.77 236.9 Q1570.16 236.057 1569.18 235.635 Q1568.2 235.213 1567.38 235.026 Q1566.58 234.815 1565.81 234.745 Q1563.46 244.653 1563.14 245.262 Q1562.93 245.683 1562.46 245.964 Q1561.99 246.269 1561.5 246.269 Q1561.03 246.269 1560.56 245.941 Q1560.12 245.636 1560.12 244.91 Q1560.12 244.536 1560.3 243.856 L1567.26 216.218 L1567.4 215.281 Q1567.4 215 1567.28 214.859 Q1567.19 214.695 1566.63 214.578 Q1566.09 214.461 1565.01 214.461 Q1564.57 214.461 1564.35 214.438 Q1564.17 214.414 1564 214.297 Q1563.84 214.157 1563.84 213.876 Q1563.84 213.477 1564 213.267 Q1564.19 213.032 1564.33 212.985 Q1564.47 212.939 1564.75 212.915 Q1565.15 212.892 1566.49 212.775 Q1567.82 212.634 1568.97 212.54 Q1570.12 212.447 1570.61 212.447 Q1570.89 212.447 1571.03 212.587 Q1571.19 212.704 1571.22 212.845 L1571.24 212.962 L1566.25 233.199 Q1568.31 232.379 1571.57 228.749 Q1575.34 224.533 1578.57 224.533 Q1580.09 224.533 1580.96 225.47 Q1581.83 226.383 1581.83 227.554 Z" fill="#000000" fill-rule="nonzero" fill-opacity="1" /><path clip-path="url(#clip810)" d="M1584.87 230.846 L1597.35 230.846 L1597.35 234.642 L1584.87 234.642 L1584.87 230.846 Z" fill="#000000" fill-rule="nonzero" fill-opacity="1" /><path clip-path="url(#clip810)" d="M1604.31 211.17 L1610.61 211.17 L1625.93 240.082 L1625.93 211.17 L1630.47 211.17 L1630.47 245.73 L1624.17 245.73 L1608.85 216.818 L1608.85 245.73 L1604.31 245.73 L1604.31 211.17 Z" fill="#000000" fill-rule="nonzero" fill-opacity="1" /><path clip-path="url(#clip810)" d="M1639.78 211.17 L1646.07 211.17 L1661.4 240.082 L1661.4 211.17 L1665.93 211.17 L1665.93 245.73 L1659.64 245.73 L1644.31 216.818 L1644.31 245.73 L1639.78 245.73 L1639.78 211.17 Z" fill="#000000" fill-rule="nonzero" fill-opacity="1" /></svg>
