<?xml version="1.0" encoding="utf-8"?>
<svg xmlns="http://www.w3.org/2000/svg" xmlns:xlink="http://www.w3.org/1999/xlink" width="500" height="250" viewBox="0 0 2000 1000">
<defs>
  <clipPath id="clip890">
    <rect x="0" y="0" width="2000" height="1000"/>
  </clipPath>
</defs>
<path clip-path="url(#clip890)" d="M0 1000 L2000 1000 L2000 0 L0 0  Z" fill="#ffffff" fill-rule="evenodd" fill-opacity="1"/>
<defs>
  <clipPath id="clip891">
    <rect x="400" y="0" width="1401" height="1000"/>
  </clipPath>
</defs>
<path clip-path="url(#clip890)" d="M203.986 849.7 L1346.05 849.7 L1346.05 47.2441 L203.986 47.2441  Z" fill="#ffffff" fill-rule="evenodd" fill-opacity="1"/>
<defs>
  <clipPath id="clip892">
    <rect x="203" y="47" width="1143" height="803"/>
  </clipPath>
</defs>
<polyline clip-path="url(#clip892)" style="stroke:#000000; stroke-linecap:round; stroke-linejoin:round; stroke-width:2; stroke-opacity:0.1; fill:none" points="214.321,849.7 214.321,47.2441 "/>
<polyline clip-path="url(#clip892)" style="stroke:#000000; stroke-linecap:round; stroke-linejoin:round; stroke-width:2; stroke-opacity:0.1; fill:none" points="434.201,849.7 434.201,47.2441 "/>
<polyline clip-path="url(#clip892)" style="stroke:#000000; stroke-linecap:round; stroke-linejoin:round; stroke-width:2; stroke-opacity:0.1; fill:none" points="654.082,849.7 654.082,47.2441 "/>
<polyline clip-path="url(#clip892)" style="stroke:#000000; stroke-linecap:round; stroke-linejoin:round; stroke-width:2; stroke-opacity:0.1; fill:none" points="873.963,849.7 873.963,47.2441 "/>
<polyline clip-path="url(#clip892)" style="stroke:#000000; stroke-linecap:round; stroke-linejoin:round; stroke-width:2; stroke-opacity:0.1; fill:none" points="1093.84,849.7 1093.84,47.2441 "/>
<polyline clip-path="url(#clip892)" style="stroke:#000000; stroke-linecap:round; stroke-linejoin:round; stroke-width:2; stroke-opacity:0.1; fill:none" points="1313.72,849.7 1313.72,47.2441 "/>
<polyline clip-path="url(#clip892)" style="stroke:#000000; stroke-linecap:round; stroke-linejoin:round; stroke-width:2; stroke-opacity:0.1; fill:none" points="203.986,736.099 1346.05,736.099 "/>
<polyline clip-path="url(#clip892)" style="stroke:#000000; stroke-linecap:round; stroke-linejoin:round; stroke-width:2; stroke-opacity:0.1; fill:none" points="203.986,551.834 1346.05,551.834 "/>
<polyline clip-path="url(#clip892)" style="stroke:#000000; stroke-linecap:round; stroke-linejoin:round; stroke-width:2; stroke-opacity:0.1; fill:none" points="203.986,367.569 1346.05,367.569 "/>
<polyline clip-path="url(#clip892)" style="stroke:#000000; stroke-linecap:round; stroke-linejoin:round; stroke-width:2; stroke-opacity:0.1; fill:none" points="203.986,183.304 1346.05,183.304 "/>
<polyline clip-path="url(#clip890)" style="stroke:#000000; stroke-linecap:round; stroke-linejoin:round; stroke-width:4; stroke-opacity:1; fill:none" points="203.986,849.7 1346.05,849.7 "/>
<polyline clip-path="url(#clip890)" style="stroke:#000000; stroke-linecap:round; stroke-linejoin:round; stroke-width:4; stroke-opacity:1; fill:none" points="214.321,849.7 214.321,830.802 "/>
<polyline clip-path="url(#clip890)" style="stroke:#000000; stroke-linecap:round; stroke-linejoin:round; stroke-width:4; stroke-opacity:1; fill:none" points="434.201,849.7 434.201,830.802 "/>
<polyline clip-path="url(#clip890)" style="stroke:#000000; stroke-linecap:round; stroke-linejoin:round; stroke-width:4; stroke-opacity:1; fill:none" points="654.082,849.7 654.082,830.802 "/>
<polyline clip-path="url(#clip890)" style="stroke:#000000; stroke-linecap:round; stroke-linejoin:round; stroke-width:4; stroke-opacity:1; fill:none" points="873.963,849.7 873.963,830.802 "/>
<polyline clip-path="url(#clip890)" style="stroke:#000000; stroke-linecap:round; stroke-linejoin:round; stroke-width:4; stroke-opacity:1; fill:none" points="1093.84,849.7 1093.84,830.802 "/>
<polyline clip-path="url(#clip890)" style="stroke:#000000; stroke-linecap:round; stroke-linejoin:round; stroke-width:4; stroke-opacity:1; fill:none" points="1313.72,849.7 1313.72,830.802 "/>
<path clip-path="url(#clip890)" d="M214.321 877.419 Q210.71 877.419 208.881 880.983 Q207.075 884.525 207.075 891.655 Q207.075 898.761 208.881 902.326 Q210.71 905.867 214.321 905.867 Q217.955 905.867 219.76 902.326 Q221.589 898.761 221.589 891.655 Q221.589 884.525 219.76 880.983 Q217.955 877.419 214.321 877.419 M214.321 873.715 Q220.131 873.715 223.186 878.321 Q226.265 882.905 226.265 891.655 Q226.265 900.381 223.186 904.988 Q220.131 909.571 214.321 909.571 Q208.511 909.571 205.432 904.988 Q202.376 900.381 202.376 891.655 Q202.376 882.905 205.432 878.321 Q208.511 873.715 214.321 873.715 Z" fill="#000000" fill-rule="nonzero" fill-opacity="1" /><path clip-path="url(#clip890)" d="M408.901 874.34 L427.257 874.34 L427.257 878.275 L413.183 878.275 L413.183 886.747 Q414.202 886.4 415.22 886.238 Q416.239 886.053 417.257 886.053 Q423.044 886.053 426.424 889.224 Q429.803 892.395 429.803 897.812 Q429.803 903.391 426.331 906.492 Q422.859 909.571 416.539 909.571 Q414.364 909.571 412.095 909.201 Q409.85 908.83 407.442 908.09 L407.442 903.391 Q409.526 904.525 411.748 905.08 Q413.97 905.636 416.447 905.636 Q420.451 905.636 422.789 903.53 Q425.127 901.423 425.127 897.812 Q425.127 894.201 422.789 892.094 Q420.451 889.988 416.447 889.988 Q414.572 889.988 412.697 890.405 Q410.845 890.821 408.901 891.701 L408.901 874.34 Z" fill="#000000" fill-rule="nonzero" fill-opacity="1" /><path clip-path="url(#clip890)" d="M449.016 877.419 Q445.405 877.419 443.576 880.983 Q441.771 884.525 441.771 891.655 Q441.771 898.761 443.576 902.326 Q445.405 905.867 449.016 905.867 Q452.65 905.867 454.456 902.326 Q456.285 898.761 456.285 891.655 Q456.285 884.525 454.456 880.983 Q452.65 877.419 449.016 877.419 M449.016 873.715 Q454.826 873.715 457.882 878.321 Q460.961 882.905 460.961 891.655 Q460.961 900.381 457.882 904.988 Q454.826 909.571 449.016 909.571 Q443.206 909.571 440.127 904.988 Q437.072 900.381 437.072 891.655 Q437.072 882.905 440.127 878.321 Q443.206 873.715 449.016 873.715 Z" fill="#000000" fill-rule="nonzero" fill-opacity="1" /><path clip-path="url(#clip890)" d="M613.689 904.965 L621.328 904.965 L621.328 878.599 L613.018 880.266 L613.018 876.007 L621.281 874.34 L625.957 874.34 L625.957 904.965 L633.596 904.965 L633.596 908.9 L613.689 908.9 L613.689 904.965 Z" fill="#000000" fill-rule="nonzero" fill-opacity="1" /><path clip-path="url(#clip890)" d="M653.041 877.419 Q649.429 877.419 647.601 880.983 Q645.795 884.525 645.795 891.655 Q645.795 898.761 647.601 902.326 Q649.429 905.867 653.041 905.867 Q656.675 905.867 658.48 902.326 Q660.309 898.761 660.309 891.655 Q660.309 884.525 658.48 880.983 Q656.675 877.419 653.041 877.419 M653.041 873.715 Q658.851 873.715 661.906 878.321 Q664.985 882.905 664.985 891.655 Q664.985 900.381 661.906 904.988 Q658.851 909.571 653.041 909.571 Q647.23 909.571 644.152 904.988 Q641.096 900.381 641.096 891.655 Q641.096 882.905 644.152 878.321 Q647.23 873.715 653.041 873.715 Z" fill="#000000" fill-rule="nonzero" fill-opacity="1" /><path clip-path="url(#clip890)" d="M683.202 877.419 Q679.591 877.419 677.763 880.983 Q675.957 884.525 675.957 891.655 Q675.957 898.761 677.763 902.326 Q679.591 905.867 683.202 905.867 Q686.837 905.867 688.642 902.326 Q690.471 898.761 690.471 891.655 Q690.471 884.525 688.642 880.983 Q686.837 877.419 683.202 877.419 M683.202 873.715 Q689.013 873.715 692.068 878.321 Q695.147 882.905 695.147 891.655 Q695.147 900.381 692.068 904.988 Q689.013 909.571 683.202 909.571 Q677.392 909.571 674.314 904.988 Q671.258 900.381 671.258 891.655 Q671.258 882.905 674.314 878.321 Q677.392 873.715 683.202 873.715 Z" fill="#000000" fill-rule="nonzero" fill-opacity="1" /><path clip-path="url(#clip890)" d="M833.57 904.965 L841.209 904.965 L841.209 878.599 L832.898 880.266 L832.898 876.007 L841.162 874.34 L845.838 874.34 L845.838 904.965 L853.477 904.965 L853.477 908.9 L833.57 908.9 L833.57 904.965 Z" fill="#000000" fill-rule="nonzero" fill-opacity="1" /><path clip-path="url(#clip890)" d="M862.968 874.34 L881.324 874.34 L881.324 878.275 L867.25 878.275 L867.25 886.747 Q868.269 886.4 869.287 886.238 Q870.306 886.053 871.324 886.053 Q877.111 886.053 880.491 889.224 Q883.87 892.395 883.87 897.812 Q883.87 903.391 880.398 906.492 Q876.926 909.571 870.606 909.571 Q868.431 909.571 866.162 909.201 Q863.917 908.83 861.509 908.09 L861.509 903.391 Q863.593 904.525 865.815 905.08 Q868.037 905.636 870.514 905.636 Q874.519 905.636 876.856 903.53 Q879.194 901.423 879.194 897.812 Q879.194 894.201 876.856 892.094 Q874.519 889.988 870.514 889.988 Q868.639 889.988 866.764 890.405 Q864.912 890.821 862.968 891.701 L862.968 874.34 Z" fill="#000000" fill-rule="nonzero" fill-opacity="1" /><path clip-path="url(#clip890)" d="M903.083 877.419 Q899.472 877.419 897.643 880.983 Q895.838 884.525 895.838 891.655 Q895.838 898.761 897.643 902.326 Q899.472 905.867 903.083 905.867 Q906.717 905.867 908.523 902.326 Q910.352 898.761 910.352 891.655 Q910.352 884.525 908.523 880.983 Q906.717 877.419 903.083 877.419 M903.083 873.715 Q908.893 873.715 911.949 878.321 Q915.028 882.905 915.028 891.655 Q915.028 900.381 911.949 904.988 Q908.893 909.571 903.083 909.571 Q897.273 909.571 894.194 904.988 Q891.139 900.381 891.139 891.655 Q891.139 882.905 894.194 878.321 Q897.273 873.715 903.083 873.715 Z" fill="#000000" fill-rule="nonzero" fill-opacity="1" /><path clip-path="url(#clip890)" d="M1057.54 904.965 L1073.86 904.965 L1073.86 908.9 L1051.91 908.9 L1051.91 904.965 Q1054.57 902.21 1059.16 897.58 Q1063.76 892.928 1064.94 891.585 Q1067.19 889.062 1068.07 887.326 Q1068.97 885.567 1068.97 883.877 Q1068.97 881.122 1067.03 879.386 Q1065.11 877.65 1062 877.65 Q1059.8 877.65 1057.35 878.414 Q1054.92 879.178 1052.14 880.729 L1052.14 876.007 Q1054.97 874.872 1057.42 874.294 Q1059.87 873.715 1061.91 873.715 Q1067.28 873.715 1070.48 876.4 Q1073.67 879.085 1073.67 883.576 Q1073.67 885.706 1072.86 887.627 Q1072.07 889.525 1069.97 892.118 Q1069.39 892.789 1066.29 896.006 Q1063.18 899.201 1057.54 904.965 Z" fill="#000000" fill-rule="nonzero" fill-opacity="1" /><path clip-path="url(#clip890)" d="M1093.67 877.419 Q1090.06 877.419 1088.23 880.983 Q1086.42 884.525 1086.42 891.655 Q1086.42 898.761 1088.23 902.326 Q1090.06 905.867 1093.67 905.867 Q1097.3 905.867 1099.11 902.326 Q1100.94 898.761 1100.94 891.655 Q1100.94 884.525 1099.11 880.983 Q1097.3 877.419 1093.67 877.419 M1093.67 873.715 Q1099.48 873.715 1102.54 878.321 Q1105.61 882.905 1105.61 891.655 Q1105.61 900.381 1102.54 904.988 Q1099.48 909.571 1093.67 909.571 Q1087.86 909.571 1084.78 904.988 Q1081.73 900.381 1081.73 891.655 Q1081.73 882.905 1084.78 878.321 Q1087.86 873.715 1093.67 873.715 Z" fill="#000000" fill-rule="nonzero" fill-opacity="1" /><path clip-path="url(#clip890)" d="M1123.83 877.419 Q1120.22 877.419 1118.39 880.983 Q1116.59 884.525 1116.59 891.655 Q1116.59 898.761 1118.39 902.326 Q1120.22 905.867 1123.83 905.867 Q1127.47 905.867 1129.27 902.326 Q1131.1 898.761 1131.1 891.655 Q1131.1 884.525 1129.27 880.983 Q1127.47 877.419 1123.83 877.419 M1123.83 873.715 Q1129.64 873.715 1132.7 878.321 Q1135.78 882.905 1135.78 891.655 Q1135.78 900.381 1132.7 904.988 Q1129.64 909.571 1123.83 909.571 Q1118.02 909.571 1114.94 904.988 Q1111.89 900.381 1111.89 891.655 Q1111.89 882.905 1114.94 878.321 Q1118.02 873.715 1123.83 873.715 Z" fill="#000000" fill-rule="nonzero" fill-opacity="1" /><path clip-path="url(#clip890)" d="M1277.42 904.965 L1293.74 904.965 L1293.74 908.9 L1271.79 908.9 L1271.79 904.965 Q1274.45 902.21 1279.04 897.58 Q1283.64 892.928 1284.82 891.585 Q1287.07 889.062 1287.95 887.326 Q1288.85 885.567 1288.85 883.877 Q1288.85 881.122 1286.91 879.386 Q1284.99 877.65 1281.88 877.65 Q1279.69 877.65 1277.23 878.414 Q1274.8 879.178 1272.02 880.729 L1272.02 876.007 Q1274.85 874.872 1277.3 874.294 Q1279.75 873.715 1281.79 873.715 Q1287.16 873.715 1290.36 876.4 Q1293.55 879.085 1293.55 883.576 Q1293.55 885.706 1292.74 887.627 Q1291.95 889.525 1289.85 892.118 Q1289.27 892.789 1286.17 896.006 Q1283.06 899.201 1277.42 904.965 Z" fill="#000000" fill-rule="nonzero" fill-opacity="1" /><path clip-path="url(#clip890)" d="M1303.6 874.34 L1321.95 874.34 L1321.95 878.275 L1307.88 878.275 L1307.88 886.747 Q1308.9 886.4 1309.92 886.238 Q1310.94 886.053 1311.95 886.053 Q1317.74 886.053 1321.12 889.224 Q1324.5 892.395 1324.5 897.812 Q1324.5 903.391 1321.03 906.492 Q1317.56 909.571 1311.24 909.571 Q1309.06 909.571 1306.79 909.201 Q1304.55 908.83 1302.14 908.09 L1302.14 903.391 Q1304.22 904.525 1306.44 905.08 Q1308.67 905.636 1311.14 905.636 Q1315.15 905.636 1317.49 903.53 Q1319.82 901.423 1319.82 897.812 Q1319.82 894.201 1317.49 892.094 Q1315.15 889.988 1311.14 889.988 Q1309.27 889.988 1307.39 890.405 Q1305.54 890.821 1303.6 891.701 L1303.6 874.34 Z" fill="#000000" fill-rule="nonzero" fill-opacity="1" /><path clip-path="url(#clip890)" d="M1343.71 877.419 Q1340.1 877.419 1338.27 880.983 Q1336.47 884.525 1336.47 891.655 Q1336.47 898.761 1338.27 902.326 Q1340.1 905.867 1343.71 905.867 Q1347.35 905.867 1349.15 902.326 Q1350.98 898.761 1350.98 891.655 Q1350.98 884.525 1349.15 880.983 Q1347.35 877.419 1343.71 877.419 M1343.71 873.715 Q1349.52 873.715 1352.58 878.321 Q1355.66 882.905 1355.66 891.655 Q1355.66 900.381 1352.58 904.988 Q1349.52 909.571 1343.71 909.571 Q1337.9 909.571 1334.82 904.988 Q1331.77 900.381 1331.77 891.655 Q1331.77 882.905 1334.82 878.321 Q1337.9 873.715 1343.71 873.715 Z" fill="#000000" fill-rule="nonzero" fill-opacity="1" /><path clip-path="url(#clip890)" d="M509.805 946.327 L509.805 964.183 L517.89 964.183 Q522.378 964.183 524.828 961.86 Q527.279 959.536 527.279 955.239 Q527.279 950.974 524.828 948.651 Q522.378 946.327 517.89 946.327 L509.805 946.327 M503.376 941.044 L517.89 941.044 Q525.879 941.044 529.953 944.672 Q534.059 948.269 534.059 955.239 Q534.059 962.273 529.953 965.87 Q525.879 969.467 517.89 969.467 L509.805 969.467 L509.805 988.564 L503.376 988.564 L503.376 941.044 Z" fill="#000000" fill-rule="nonzero" fill-opacity="1" /><path clip-path="url(#clip890)" d="M578.269 944.704 L578.269 951.484 Q575.022 948.46 571.33 946.964 Q567.67 945.468 563.532 945.468 Q555.384 945.468 551.055 950.465 Q546.726 955.43 546.726 964.852 Q546.726 974.241 551.055 979.238 Q555.384 984.203 563.532 984.203 Q567.67 984.203 571.33 982.707 Q575.022 981.211 578.269 978.188 L578.269 984.904 Q574.895 987.195 571.107 988.341 Q567.351 989.487 563.15 989.487 Q552.36 989.487 546.154 982.898 Q539.947 976.278 539.947 964.852 Q539.947 953.393 546.154 946.805 Q552.36 940.184 563.15 940.184 Q567.415 940.184 571.171 941.33 Q574.958 942.444 578.269 944.704 Z" fill="#000000" fill-rule="nonzero" fill-opacity="1" /><path clip-path="url(#clip890)" d="M604.081 947.378 L595.36 971.026 L612.834 971.026 L604.081 947.378 M600.453 941.044 L607.742 941.044 L625.852 988.564 L619.168 988.564 L614.84 976.374 L593.419 976.374 L589.09 988.564 L582.311 988.564 L600.453 941.044 Z" fill="#000000" fill-rule="nonzero" fill-opacity="1" /><path clip-path="url(#clip890)" d="M678.91 954.285 L678.91 959.759 Q676.428 958.39 673.913 957.722 Q671.431 957.022 668.884 957.022 Q663.187 957.022 660.036 960.65 Q656.885 964.247 656.885 970.772 Q656.885 977.297 660.036 980.925 Q663.187 984.522 668.884 984.522 Q671.431 984.522 673.913 983.853 Q676.428 983.153 678.91 981.784 L678.91 987.195 Q676.46 988.341 673.818 988.914 Q671.208 989.487 668.248 989.487 Q660.195 989.487 655.453 984.426 Q650.71 979.365 650.71 970.772 Q650.71 962.051 655.485 957.054 Q660.291 952.057 668.63 952.057 Q671.335 952.057 673.913 952.629 Q676.491 953.171 678.91 954.285 Z" fill="#000000" fill-rule="nonzero" fill-opacity="1" /><path clip-path="url(#clip890)" d="M702.909 957.022 Q698.198 957.022 695.461 960.714 Q692.724 964.374 692.724 970.772 Q692.724 977.169 695.429 980.861 Q698.167 984.522 702.909 984.522 Q707.588 984.522 710.325 980.83 Q713.062 977.137 713.062 970.772 Q713.062 964.438 710.325 960.746 Q707.588 957.022 702.909 957.022 M702.909 952.057 Q710.548 952.057 714.908 957.022 Q719.269 961.987 719.269 970.772 Q719.269 979.525 714.908 984.522 Q710.548 989.487 702.909 989.487 Q695.238 989.487 690.878 984.522 Q686.549 979.525 686.549 970.772 Q686.549 961.987 690.878 957.022 Q695.238 952.057 702.909 952.057 Z" fill="#000000" fill-rule="nonzero" fill-opacity="1" /><path clip-path="url(#clip890)" d="M756.731 959.759 Q758.927 955.812 761.983 953.934 Q765.038 952.057 769.176 952.057 Q774.746 952.057 777.77 955.971 Q780.793 959.855 780.793 967.048 L780.793 988.564 L774.905 988.564 L774.905 967.239 Q774.905 962.114 773.091 959.632 Q771.277 957.149 767.553 957.149 Q763.001 957.149 760.36 960.173 Q757.718 963.197 757.718 968.416 L757.718 988.564 L751.83 988.564 L751.83 967.239 Q751.83 962.083 750.015 959.632 Q748.201 957.149 744.413 957.149 Q739.926 957.149 737.284 960.205 Q734.642 963.228 734.642 968.416 L734.642 988.564 L728.754 988.564 L728.754 952.916 L734.642 952.916 L734.642 958.454 Q736.647 955.176 739.448 953.616 Q742.249 952.057 746.1 952.057 Q749.983 952.057 752.689 954.03 Q755.426 956.003 756.731 959.759 Z" fill="#000000" fill-rule="nonzero" fill-opacity="1" /><path clip-path="url(#clip890)" d="M798.14 983.217 L798.14 1002.12 L792.252 1002.12 L792.252 952.916 L798.14 952.916 L798.14 958.327 Q799.986 955.144 802.787 953.616 Q805.62 952.057 809.535 952.057 Q816.028 952.057 820.07 957.213 Q824.144 962.369 824.144 970.772 Q824.144 979.174 820.07 984.331 Q816.028 989.487 809.535 989.487 Q805.62 989.487 802.787 987.959 Q799.986 986.4 798.14 983.217 M818.065 970.772 Q818.065 964.311 815.391 960.65 Q812.749 956.958 808.102 956.958 Q803.455 956.958 800.782 960.65 Q798.14 964.311 798.14 970.772 Q798.14 977.233 800.782 980.925 Q803.455 984.585 808.102 984.585 Q812.749 984.585 815.391 980.925 Q818.065 977.233 818.065 970.772 Z" fill="#000000" fill-rule="nonzero" fill-opacity="1" /><path clip-path="url(#clip890)" d="M847.665 957.022 Q842.955 957.022 840.217 960.714 Q837.48 964.374 837.48 970.772 Q837.48 977.169 840.186 980.861 Q842.923 984.522 847.665 984.522 Q852.344 984.522 855.081 980.83 Q857.819 977.137 857.819 970.772 Q857.819 964.438 855.081 960.746 Q852.344 957.022 847.665 957.022 M847.665 952.057 Q855.304 952.057 859.665 957.022 Q864.025 961.987 864.025 970.772 Q864.025 979.525 859.665 984.522 Q855.304 989.487 847.665 989.487 Q839.995 989.487 835.634 984.522 Q831.305 979.525 831.305 970.772 Q831.305 961.987 835.634 957.022 Q839.995 952.057 847.665 952.057 Z" fill="#000000" fill-rule="nonzero" fill-opacity="1" /><path clip-path="url(#clip890)" d="M903.365 967.048 L903.365 988.564 L897.509 988.564 L897.509 967.239 Q897.509 962.178 895.535 959.664 Q893.562 957.149 889.615 957.149 Q884.873 957.149 882.136 960.173 Q879.398 963.197 879.398 968.416 L879.398 988.564 L873.51 988.564 L873.51 952.916 L879.398 952.916 L879.398 958.454 Q881.499 955.239 884.332 953.648 Q887.196 952.057 890.92 952.057 Q897.063 952.057 900.214 955.876 Q903.365 959.664 903.365 967.048 Z" fill="#000000" fill-rule="nonzero" fill-opacity="1" /><path clip-path="url(#clip890)" d="M945.538 969.276 L945.538 972.14 L918.611 972.14 Q918.993 978.188 922.239 981.371 Q925.518 984.522 931.342 984.522 Q934.716 984.522 937.867 983.694 Q941.05 982.867 944.169 981.211 L944.169 986.75 Q941.018 988.086 937.708 988.787 Q934.398 989.487 930.992 989.487 Q922.462 989.487 917.465 984.522 Q912.5 979.556 912.5 971.09 Q912.5 962.337 917.211 957.213 Q921.953 952.057 929.974 952.057 Q937.167 952.057 941.337 956.703 Q945.538 961.319 945.538 969.276 M939.682 967.557 Q939.618 962.751 936.976 959.886 Q934.366 957.022 930.037 957.022 Q925.136 957.022 922.176 959.791 Q919.248 962.56 918.802 967.589 L939.682 967.557 Z" fill="#000000" fill-rule="nonzero" fill-opacity="1" /><path clip-path="url(#clip890)" d="M984.783 967.048 L984.783 988.564 L978.926 988.564 L978.926 967.239 Q978.926 962.178 976.953 959.664 Q974.979 957.149 971.033 957.149 Q966.29 957.149 963.553 960.173 Q960.816 963.197 960.816 968.416 L960.816 988.564 L954.927 988.564 L954.927 952.916 L960.816 952.916 L960.816 958.454 Q962.916 955.239 965.749 953.648 Q968.614 952.057 972.338 952.057 Q978.481 952.057 981.632 955.876 Q984.783 959.664 984.783 967.048 Z" fill="#000000" fill-rule="nonzero" fill-opacity="1" /><path clip-path="url(#clip890)" d="M1002.26 942.794 L1002.26 952.916 L1014.32 952.916 L1014.32 957.467 L1002.26 957.467 L1002.26 976.819 Q1002.26 981.18 1003.43 982.421 Q1004.64 983.662 1008.3 983.662 L1014.32 983.662 L1014.32 988.564 L1008.3 988.564 Q1001.52 988.564 998.946 986.049 Q996.368 983.503 996.368 976.819 L996.368 957.467 L992.071 957.467 L992.071 952.916 L996.368 952.916 L996.368 942.794 L1002.26 942.794 Z" fill="#000000" fill-rule="nonzero" fill-opacity="1" /><path clip-path="url(#clip890)" d="M1044.75 953.966 L1044.75 959.504 Q1042.26 958.231 1039.59 957.595 Q1036.92 956.958 1034.05 956.958 Q1029.69 956.958 1027.5 958.295 Q1025.33 959.632 1025.33 962.305 Q1025.33 964.342 1026.89 965.52 Q1028.45 966.666 1033.16 967.716 L1035.17 968.162 Q1041.41 969.499 1044.02 971.949 Q1046.66 974.368 1046.66 978.729 Q1046.66 983.694 1042.71 986.59 Q1038.8 989.487 1031.92 989.487 Q1029.06 989.487 1025.94 988.914 Q1022.85 988.373 1019.41 987.259 L1019.41 981.211 Q1022.66 982.898 1025.81 983.758 Q1028.96 984.585 1032.05 984.585 Q1036.19 984.585 1038.41 983.185 Q1040.64 981.753 1040.64 979.174 Q1040.64 976.787 1039.02 975.514 Q1037.43 974.241 1031.98 973.063 L1029.95 972.586 Q1024.5 971.44 1022.09 969.085 Q1019.67 966.698 1019.67 962.56 Q1019.67 957.531 1023.23 954.794 Q1026.8 952.057 1033.35 952.057 Q1036.6 952.057 1039.46 952.534 Q1042.33 953.011 1044.75 953.966 Z" fill="#000000" fill-rule="nonzero" fill-opacity="1" /><polyline clip-path="url(#clip890)" style="stroke:#000000; stroke-linecap:round; stroke-linejoin:round; stroke-width:4; stroke-opacity:1; fill:none" points="203.986,849.7 203.986,47.2441 "/>
<polyline clip-path="url(#clip890)" style="stroke:#000000; stroke-linecap:round; stroke-linejoin:round; stroke-width:4; stroke-opacity:1; fill:none" points="203.986,736.099 216.328,736.099 "/>
<polyline clip-path="url(#clip890)" style="stroke:#000000; stroke-linecap:round; stroke-linejoin:round; stroke-width:4; stroke-opacity:1; fill:none" points="203.986,551.834 216.328,551.834 "/>
<polyline clip-path="url(#clip890)" style="stroke:#000000; stroke-linecap:round; stroke-linejoin:round; stroke-width:4; stroke-opacity:1; fill:none" points="203.986,367.569 216.328,367.569 "/>
<polyline clip-path="url(#clip890)" style="stroke:#000000; stroke-linecap:round; stroke-linejoin:round; stroke-width:4; stroke-opacity:1; fill:none" points="203.986,183.304 216.328,183.304 "/>
<path clip-path="url(#clip890)" d="M118.408 721.898 Q114.797 721.898 112.968 725.462 Q111.163 729.004 111.163 736.134 Q111.163 743.24 112.968 746.805 Q114.797 750.347 118.408 750.347 Q122.042 750.347 123.848 746.805 Q125.676 743.24 125.676 736.134 Q125.676 729.004 123.848 725.462 Q122.042 721.898 118.408 721.898 M118.408 718.194 Q124.218 718.194 127.274 722.8 Q130.352 727.384 130.352 736.134 Q130.352 744.86 127.274 749.467 Q124.218 754.05 118.408 754.05 Q112.598 754.05 109.519 749.467 Q106.463 744.86 106.463 736.134 Q106.463 727.384 109.519 722.8 Q112.598 718.194 118.408 718.194 Z" fill="#000000" fill-rule="nonzero" fill-opacity="1" /><path clip-path="url(#clip890)" d="M138.57 747.499 L143.454 747.499 L143.454 753.379 L138.57 753.379 L138.57 747.499 Z" fill="#000000" fill-rule="nonzero" fill-opacity="1" /><path clip-path="url(#clip890)" d="M157.667 749.444 L173.986 749.444 L173.986 753.379 L152.042 753.379 L152.042 749.444 Q154.704 746.689 159.287 742.06 Q163.894 737.407 165.074 736.064 Q167.32 733.541 168.199 731.805 Q169.102 730.046 169.102 728.356 Q169.102 725.601 167.158 723.865 Q165.236 722.129 162.134 722.129 Q159.935 722.129 157.482 722.893 Q155.051 723.657 152.273 725.208 L152.273 720.486 Q155.097 719.351 157.551 718.773 Q160.005 718.194 162.042 718.194 Q167.412 718.194 170.607 720.879 Q173.801 723.564 173.801 728.055 Q173.801 730.185 172.991 732.106 Q172.204 734.004 170.097 736.597 Q169.519 737.268 166.417 740.485 Q163.315 743.68 157.667 749.444 Z" fill="#000000" fill-rule="nonzero" fill-opacity="1" /><path clip-path="url(#clip890)" d="M116.325 537.633 Q112.713 537.633 110.885 541.197 Q109.079 544.739 109.079 551.869 Q109.079 558.975 110.885 562.54 Q112.713 566.081 116.325 566.081 Q119.959 566.081 121.764 562.54 Q123.593 558.975 123.593 551.869 Q123.593 544.739 121.764 541.197 Q119.959 537.633 116.325 537.633 M116.325 533.929 Q122.135 533.929 125.19 538.535 Q128.269 543.119 128.269 551.869 Q128.269 560.595 125.19 565.202 Q122.135 569.785 116.325 569.785 Q110.514 569.785 107.436 565.202 Q104.38 560.595 104.38 551.869 Q104.38 543.119 107.436 538.535 Q110.514 533.929 116.325 533.929 Z" fill="#000000" fill-rule="nonzero" fill-opacity="1" /><path clip-path="url(#clip890)" d="M136.486 563.234 L141.371 563.234 L141.371 569.114 L136.486 569.114 L136.486 563.234 Z" fill="#000000" fill-rule="nonzero" fill-opacity="1" /><path clip-path="url(#clip890)" d="M164.403 538.628 L152.597 557.077 L164.403 557.077 L164.403 538.628 M163.176 534.554 L169.056 534.554 L169.056 557.077 L173.986 557.077 L173.986 560.966 L169.056 560.966 L169.056 569.114 L164.403 569.114 L164.403 560.966 L148.801 560.966 L148.801 556.452 L163.176 534.554 Z" fill="#000000" fill-rule="nonzero" fill-opacity="1" /><path clip-path="url(#clip890)" d="M116.649 353.367 Q113.038 353.367 111.209 356.932 Q109.403 360.474 109.403 367.603 Q109.403 374.71 111.209 378.275 Q113.038 381.816 116.649 381.816 Q120.283 381.816 122.088 378.275 Q123.917 374.71 123.917 367.603 Q123.917 360.474 122.088 356.932 Q120.283 353.367 116.649 353.367 M116.649 349.664 Q122.459 349.664 125.514 354.27 Q128.593 358.854 128.593 367.603 Q128.593 376.33 125.514 380.937 Q122.459 385.52 116.649 385.52 Q110.838 385.52 107.76 380.937 Q104.704 376.33 104.704 367.603 Q104.704 358.854 107.76 354.27 Q110.838 349.664 116.649 349.664 Z" fill="#000000" fill-rule="nonzero" fill-opacity="1" /><path clip-path="url(#clip890)" d="M136.811 378.969 L141.695 378.969 L141.695 384.849 L136.811 384.849 L136.811 378.969 Z" fill="#000000" fill-rule="nonzero" fill-opacity="1" /><path clip-path="url(#clip890)" d="M162.459 365.705 Q159.31 365.705 157.459 367.858 Q155.63 370.011 155.63 373.761 Q155.63 377.488 157.459 379.664 Q159.31 381.816 162.459 381.816 Q165.607 381.816 167.435 379.664 Q169.287 377.488 169.287 373.761 Q169.287 370.011 167.435 367.858 Q165.607 365.705 162.459 365.705 M171.741 351.053 L171.741 355.312 Q169.982 354.479 168.176 354.039 Q166.394 353.599 164.634 353.599 Q160.005 353.599 157.551 356.724 Q155.121 359.849 154.773 366.168 Q156.139 364.154 158.199 363.09 Q160.259 362.002 162.736 362.002 Q167.945 362.002 170.954 365.173 Q173.986 368.321 173.986 373.761 Q173.986 379.085 170.838 382.302 Q167.69 385.52 162.459 385.52 Q156.463 385.52 153.292 380.937 Q150.121 376.33 150.121 367.603 Q150.121 359.409 154.01 354.548 Q157.898 349.664 164.449 349.664 Q166.209 349.664 167.991 350.011 Q169.796 350.358 171.741 351.053 Z" fill="#000000" fill-rule="nonzero" fill-opacity="1" /><path clip-path="url(#clip890)" d="M116.903 169.102 Q113.292 169.102 111.463 172.667 Q109.658 176.209 109.658 183.338 Q109.658 190.445 111.463 194.01 Q113.292 197.551 116.903 197.551 Q120.537 197.551 122.343 194.01 Q124.172 190.445 124.172 183.338 Q124.172 176.209 122.343 172.667 Q120.537 169.102 116.903 169.102 M116.903 165.399 Q122.713 165.399 125.769 170.005 Q128.848 174.588 128.848 183.338 Q128.848 192.065 125.769 196.672 Q122.713 201.255 116.903 201.255 Q111.093 201.255 108.014 196.672 Q104.959 192.065 104.959 183.338 Q104.959 174.588 108.014 170.005 Q111.093 165.399 116.903 165.399 Z" fill="#000000" fill-rule="nonzero" fill-opacity="1" /><path clip-path="url(#clip890)" d="M137.065 194.704 L141.949 194.704 L141.949 200.584 L137.065 200.584 L137.065 194.704 Z" fill="#000000" fill-rule="nonzero" fill-opacity="1" /><path clip-path="url(#clip890)" d="M162.134 184.172 Q158.801 184.172 156.88 185.954 Q154.982 187.737 154.982 190.862 Q154.982 193.986 156.88 195.769 Q158.801 197.551 162.134 197.551 Q165.468 197.551 167.389 195.769 Q169.31 193.963 169.31 190.862 Q169.31 187.737 167.389 185.954 Q165.491 184.172 162.134 184.172 M157.459 182.181 Q154.449 181.44 152.76 179.38 Q151.093 177.32 151.093 174.357 Q151.093 170.213 154.033 167.806 Q156.996 165.399 162.134 165.399 Q167.296 165.399 170.236 167.806 Q173.176 170.213 173.176 174.357 Q173.176 177.32 171.486 179.38 Q169.82 181.44 166.834 182.181 Q170.213 182.968 172.088 185.26 Q173.986 187.551 173.986 190.862 Q173.986 195.885 170.908 198.57 Q167.852 201.255 162.134 201.255 Q156.417 201.255 153.338 198.57 Q150.283 195.885 150.283 190.862 Q150.283 187.551 152.181 185.26 Q154.079 182.968 157.459 182.181 M155.746 174.797 Q155.746 177.482 157.412 178.987 Q159.102 180.491 162.134 180.491 Q165.144 180.491 166.834 178.987 Q168.546 177.482 168.546 174.797 Q168.546 172.112 166.834 170.607 Q165.144 169.102 162.134 169.102 Q159.102 169.102 157.412 170.607 Q155.746 172.112 155.746 174.797 Z" fill="#000000" fill-rule="nonzero" fill-opacity="1" /><path clip-path="url(#clip890)" d="M14.3547 520.691 L24.4762 520.691 L24.4762 508.628 L29.0277 508.628 L29.0277 520.691 L48.3794 520.691 Q52.7399 520.691 53.9813 519.513 Q55.2226 518.304 55.2226 514.643 L55.2226 508.628 L60.1242 508.628 L60.1242 514.643 Q60.1242 521.423 57.6097 524.001 Q55.0634 526.579 48.3794 526.579 L29.0277 526.579 L29.0277 530.876 L24.4762 530.876 L24.4762 526.579 L14.3547 526.579 L14.3547 520.691 Z" fill="#000000" fill-rule="nonzero" fill-opacity="1" /><path clip-path="url(#clip890)" d="M38.6081 471.293 L60.1242 471.293 L60.1242 477.149 L38.799 477.149 Q33.7383 477.149 31.2238 479.123 Q28.7094 481.096 28.7094 485.043 Q28.7094 489.785 31.7331 492.523 Q34.7568 495.26 39.9767 495.26 L60.1242 495.26 L60.1242 501.148 L10.599 501.148 L10.599 495.26 L30.0144 495.26 Q26.7997 493.159 25.2083 490.326 Q23.6168 487.462 23.6168 483.738 Q23.6168 477.595 27.4363 474.444 Q31.2238 471.293 38.6081 471.293 Z" fill="#000000" fill-rule="nonzero" fill-opacity="1" /><path clip-path="url(#clip890)" d="M40.8361 429.12 L43.7006 429.12 L43.7006 456.047 Q49.7481 455.665 52.9309 452.419 Q56.0819 449.14 56.0819 443.316 Q56.0819 439.942 55.2544 436.791 Q54.4269 433.608 52.7718 430.489 L58.3099 430.489 Q59.6467 433.64 60.347 436.95 Q61.0472 440.26 61.0472 443.666 Q61.0472 452.196 56.0819 457.193 Q51.1167 462.158 42.6503 462.158 Q33.8974 462.158 28.7731 457.448 Q23.6168 452.705 23.6168 444.684 Q23.6168 437.491 28.2638 433.322 Q32.8789 429.12 40.8361 429.12 M39.1173 434.977 Q34.3112 435.04 31.4466 437.682 Q28.5821 440.292 28.5821 444.621 Q28.5821 449.522 31.3512 452.482 Q34.1202 455.411 39.1492 455.856 L39.1173 434.977 Z" fill="#000000" fill-rule="nonzero" fill-opacity="1" /><path clip-path="url(#clip890)" d="M14.3547 413.715 L24.4762 413.715 L24.4762 401.652 L29.0277 401.652 L29.0277 413.715 L48.3794 413.715 Q52.7399 413.715 53.9813 412.538 Q55.2226 411.328 55.2226 407.668 L55.2226 401.652 L60.1242 401.652 L60.1242 407.668 Q60.1242 414.447 57.6097 417.025 Q55.0634 419.603 48.3794 419.603 L29.0277 419.603 L29.0277 423.9 L24.4762 423.9 L24.4762 419.603 L14.3547 419.603 L14.3547 413.715 Z" fill="#000000" fill-rule="nonzero" fill-opacity="1" /><path clip-path="url(#clip890)" d="M42.2047 377.749 Q42.2047 384.847 43.8279 387.584 Q45.4512 390.321 49.3661 390.321 Q52.4853 390.321 54.3314 388.284 Q56.1456 386.215 56.1456 382.682 Q56.1456 377.813 52.7081 374.884 Q49.2388 371.924 43.5097 371.924 L42.2047 371.924 L42.2047 377.749 M39.7857 366.068 L60.1242 366.068 L60.1242 371.924 L54.7133 371.924 Q57.9598 373.93 59.5194 376.921 Q61.0472 379.913 61.0472 384.242 Q61.0472 389.716 57.9916 392.963 Q54.9043 396.178 49.7481 396.178 Q43.7325 396.178 40.6769 392.167 Q37.6214 388.125 37.6214 380.136 L37.6214 371.924 L37.0485 371.924 Q33.0062 371.924 30.8101 374.598 Q28.5821 377.24 28.5821 382.046 Q28.5821 385.101 29.3141 387.998 Q30.0462 390.894 31.5103 393.568 L26.0995 393.568 Q24.8581 390.353 24.2534 387.329 Q23.6168 384.306 23.6168 381.441 Q23.6168 373.707 27.6272 369.887 Q31.6376 366.068 39.7857 366.068 Z" fill="#000000" fill-rule="nonzero" fill-opacity="1" /><path clip-path="url(#clip892)" d="M236.309 765.276 L258.297 801.466 L280.285 815.74 L302.273 821.302 L324.261 825.462 L346.249 826.989 L368.237 826.412 L390.225 825.798 L412.213 824.505 L434.201 822.836 L456.19 821.221 L478.178 820.095 L500.166 817.923 L522.154 815.766 L544.142 814.179 L566.13 812.013 L588.118 809.467 L610.106 808.15 L632.094 806.94 L654.082 805.199 L676.07 803.483 L698.058 802.158 L720.046 800.663 L742.034 799.14 L764.023 797.816 L786.011 796.558 L807.999 794.914 L829.987 793.675 L851.975 792.327 L873.963 790.909 L895.951 789.324 L917.939 788.322 L939.927 786.941 L961.915 785.705 L983.903 784.763 L1005.89 783.924 L1027.88 783.327 L1049.87 782.586 L1071.86 781.632 L1093.84 780.95 L1115.83 780.137 L1137.82 779.485 L1159.81 778.907 L1181.8 778.409 L1203.78 777.849 L1225.77 777.321 L1247.76 776.792 L1269.75 776.326 L1291.74 776.077 L1313.72 776.077 L1313.72 769.001 L1291.74 769.001 L1269.75 769.134 L1247.76 769.57 L1225.77 770.082 L1203.78 770.793 L1181.8 771.248 L1159.81 771.782 L1137.82 772.38 L1115.83 773.169 L1093.84 773.987 L1071.86 774.826 L1049.87 775.515 L1027.88 776.553 L1005.89 777.676 L983.903 778.851 L961.915 780.271 L939.927 781.315 L917.939 782.484 L895.951 783.855 L873.963 784.859 L851.975 785.959 L829.987 787.316 L807.999 788.391 L786.011 789.895 L764.023 791.616 L742.034 793.342 L720.046 794.994 L698.058 796.485 L676.07 798.936 L654.082 800.609 L632.094 802.379 L610.106 804.034 L588.118 805.861 L566.13 807.701 L544.142 808.99 L522.154 810.933 L500.166 812.245 L478.178 813.801 L456.19 815.111 L434.201 816.367 L412.213 818.429 L390.225 818.878 L368.237 818.987 L346.249 819.058 L324.261 817.421 L302.273 815.473 L280.285 804.458 L258.297 787.626 L236.309 741.551  Z" fill="#377db8" fill-rule="evenodd" fill-opacity="0.1"/>
<polyline clip-path="url(#clip892)" style="stroke:#377db8; stroke-linecap:round; stroke-linejoin:round; stroke-width:4; stroke-opacity:1; fill:none" points="236.309,753.414 258.297,794.546 280.285,810.099 302.273,818.388 324.261,821.442 346.249,823.023 368.237,822.7 390.225,822.338 412.213,821.467 434.201,819.602 456.19,818.166 478.178,816.948 500.166,815.084 522.154,813.349 544.142,811.584 566.13,809.857 588.118,807.664 610.106,806.092 632.094,804.659 654.082,802.904 676.07,801.209 698.058,799.322 720.046,797.828 742.034,796.241 764.023,794.716 786.011,793.227 807.999,791.653 829.987,790.495 851.975,789.143 873.963,787.884 895.951,786.589 917.939,785.403 939.927,784.128 961.915,782.988 983.903,781.807 1005.89,780.8 1027.88,779.94 1049.87,779.05 1071.86,778.229 1093.84,777.468 1115.83,776.653 1137.82,775.932 1159.81,775.344 1181.8,774.829 1203.78,774.321 1225.77,773.701 1247.76,773.181 1269.75,772.73 1291.74,772.539 1313.72,772.539 "/>
<circle clip-path="url(#clip892)" cx="236.309" cy="753.414" r="14.4" fill="#377db8" fill-rule="evenodd" fill-opacity="1" stroke="none"/>
<circle clip-path="url(#clip892)" cx="258.297" cy="794.546" r="14.4" fill="#377db8" fill-rule="evenodd" fill-opacity="1" stroke="none"/>
<circle clip-path="url(#clip892)" cx="280.285" cy="810.099" r="14.4" fill="#377db8" fill-rule="evenodd" fill-opacity="1" stroke="none"/>
<circle clip-path="url(#clip892)" cx="302.273" cy="818.388" r="14.4" fill="#377db8" fill-rule="evenodd" fill-opacity="1" stroke="none"/>
<circle clip-path="url(#clip892)" cx="324.261" cy="821.442" r="14.4" fill="#377db8" fill-rule="evenodd" fill-opacity="1" stroke="none"/>
<circle clip-path="url(#clip892)" cx="346.249" cy="823.023" r="14.4" fill="#377db8" fill-rule="evenodd" fill-opacity="1" stroke="none"/>
<circle clip-path="url(#clip892)" cx="368.237" cy="822.7" r="14.4" fill="#377db8" fill-rule="evenodd" fill-opacity="1" stroke="none"/>
<circle clip-path="url(#clip892)" cx="390.225" cy="822.338" r="14.4" fill="#377db8" fill-rule="evenodd" fill-opacity="1" stroke="none"/>
<circle clip-path="url(#clip892)" cx="412.213" cy="821.467" r="14.4" fill="#377db8" fill-rule="evenodd" fill-opacity="1" stroke="none"/>
<circle clip-path="url(#clip892)" cx="434.201" cy="819.602" r="14.4" fill="#377db8" fill-rule="evenodd" fill-opacity="1" stroke="none"/>
<circle clip-path="url(#clip892)" cx="456.19" cy="818.166" r="14.4" fill="#377db8" fill-rule="evenodd" fill-opacity="1" stroke="none"/>
<circle clip-path="url(#clip892)" cx="478.178" cy="816.948" r="14.4" fill="#377db8" fill-rule="evenodd" fill-opacity="1" stroke="none"/>
<circle clip-path="url(#clip892)" cx="500.166" cy="815.084" r="14.4" fill="#377db8" fill-rule="evenodd" fill-opacity="1" stroke="none"/>
<circle clip-path="url(#clip892)" cx="522.154" cy="813.349" r="14.4" fill="#377db8" fill-rule="evenodd" fill-opacity="1" stroke="none"/>
<circle clip-path="url(#clip892)" cx="544.142" cy="811.584" r="14.4" fill="#377db8" fill-rule="evenodd" fill-opacity="1" stroke="none"/>
<circle clip-path="url(#clip892)" cx="566.13" cy="809.857" r="14.4" fill="#377db8" fill-rule="evenodd" fill-opacity="1" stroke="none"/>
<circle clip-path="url(#clip892)" cx="588.118" cy="807.664" r="14.4" fill="#377db8" fill-rule="evenodd" fill-opacity="1" stroke="none"/>
<circle clip-path="url(#clip892)" cx="610.106" cy="806.092" r="14.4" fill="#377db8" fill-rule="evenodd" fill-opacity="1" stroke="none"/>
<circle clip-path="url(#clip892)" cx="632.094" cy="804.659" r="14.4" fill="#377db8" fill-rule="evenodd" fill-opacity="1" stroke="none"/>
<circle clip-path="url(#clip892)" cx="654.082" cy="802.904" r="14.4" fill="#377db8" fill-rule="evenodd" fill-opacity="1" stroke="none"/>
<circle clip-path="url(#clip892)" cx="676.07" cy="801.209" r="14.4" fill="#377db8" fill-rule="evenodd" fill-opacity="1" stroke="none"/>
<circle clip-path="url(#clip892)" cx="698.058" cy="799.322" r="14.4" fill="#377db8" fill-rule="evenodd" fill-opacity="1" stroke="none"/>
<circle clip-path="url(#clip892)" cx="720.046" cy="797.828" r="14.4" fill="#377db8" fill-rule="evenodd" fill-opacity="1" stroke="none"/>
<circle clip-path="url(#clip892)" cx="742.034" cy="796.241" r="14.4" fill="#377db8" fill-rule="evenodd" fill-opacity="1" stroke="none"/>
<circle clip-path="url(#clip892)" cx="764.023" cy="794.716" r="14.4" fill="#377db8" fill-rule="evenodd" fill-opacity="1" stroke="none"/>
<circle clip-path="url(#clip892)" cx="786.011" cy="793.227" r="14.4" fill="#377db8" fill-rule="evenodd" fill-opacity="1" stroke="none"/>
<circle clip-path="url(#clip892)" cx="807.999" cy="791.653" r="14.4" fill="#377db8" fill-rule="evenodd" fill-opacity="1" stroke="none"/>
<circle clip-path="url(#clip892)" cx="829.987" cy="790.495" r="14.4" fill="#377db8" fill-rule="evenodd" fill-opacity="1" stroke="none"/>
<circle clip-path="url(#clip892)" cx="851.975" cy="789.143" r="14.4" fill="#377db8" fill-rule="evenodd" fill-opacity="1" stroke="none"/>
<circle clip-path="url(#clip892)" cx="873.963" cy="787.884" r="14.4" fill="#377db8" fill-rule="evenodd" fill-opacity="1" stroke="none"/>
<circle clip-path="url(#clip892)" cx="895.951" cy="786.589" r="14.4" fill="#377db8" fill-rule="evenodd" fill-opacity="1" stroke="none"/>
<circle clip-path="url(#clip892)" cx="917.939" cy="785.403" r="14.4" fill="#377db8" fill-rule="evenodd" fill-opacity="1" stroke="none"/>
<circle clip-path="url(#clip892)" cx="939.927" cy="784.128" r="14.4" fill="#377db8" fill-rule="evenodd" fill-opacity="1" stroke="none"/>
<circle clip-path="url(#clip892)" cx="961.915" cy="782.988" r="14.4" fill="#377db8" fill-rule="evenodd" fill-opacity="1" stroke="none"/>
<circle clip-path="url(#clip892)" cx="983.903" cy="781.807" r="14.4" fill="#377db8" fill-rule="evenodd" fill-opacity="1" stroke="none"/>
<circle clip-path="url(#clip892)" cx="1005.89" cy="780.8" r="14.4" fill="#377db8" fill-rule="evenodd" fill-opacity="1" stroke="none"/>
<circle clip-path="url(#clip892)" cx="1027.88" cy="779.94" r="14.4" fill="#377db8" fill-rule="evenodd" fill-opacity="1" stroke="none"/>
<circle clip-path="url(#clip892)" cx="1049.87" cy="779.05" r="14.4" fill="#377db8" fill-rule="evenodd" fill-opacity="1" stroke="none"/>
<circle clip-path="url(#clip892)" cx="1071.86" cy="778.229" r="14.4" fill="#377db8" fill-rule="evenodd" fill-opacity="1" stroke="none"/>
<circle clip-path="url(#clip892)" cx="1093.84" cy="777.468" r="14.4" fill="#377db8" fill-rule="evenodd" fill-opacity="1" stroke="none"/>
<circle clip-path="url(#clip892)" cx="1115.83" cy="776.653" r="14.4" fill="#377db8" fill-rule="evenodd" fill-opacity="1" stroke="none"/>
<circle clip-path="url(#clip892)" cx="1137.82" cy="775.932" r="14.4" fill="#377db8" fill-rule="evenodd" fill-opacity="1" stroke="none"/>
<circle clip-path="url(#clip892)" cx="1159.81" cy="775.344" r="14.4" fill="#377db8" fill-rule="evenodd" fill-opacity="1" stroke="none"/>
<circle clip-path="url(#clip892)" cx="1181.8" cy="774.829" r="14.4" fill="#377db8" fill-rule="evenodd" fill-opacity="1" stroke="none"/>
<circle clip-path="url(#clip892)" cx="1203.78" cy="774.321" r="14.4" fill="#377db8" fill-rule="evenodd" fill-opacity="1" stroke="none"/>
<circle clip-path="url(#clip892)" cx="1225.77" cy="773.701" r="14.4" fill="#377db8" fill-rule="evenodd" fill-opacity="1" stroke="none"/>
<circle clip-path="url(#clip892)" cx="1247.76" cy="773.181" r="14.4" fill="#377db8" fill-rule="evenodd" fill-opacity="1" stroke="none"/>
<circle clip-path="url(#clip892)" cx="1269.75" cy="772.73" r="14.4" fill="#377db8" fill-rule="evenodd" fill-opacity="1" stroke="none"/>
<circle clip-path="url(#clip892)" cx="1291.74" cy="772.539" r="14.4" fill="#377db8" fill-rule="evenodd" fill-opacity="1" stroke="none"/>
<circle clip-path="url(#clip892)" cx="1313.72" cy="772.539" r="14.4" fill="#377db8" fill-rule="evenodd" fill-opacity="1" stroke="none"/>
<path clip-path="url(#clip892)" d="M236.309 709.619 L258.297 364.448 L280.285 355.632 L302.273 353.99 L324.261 358.41 L346.249 361.461 L368.237 361.229 L390.225 351.347 L412.213 351.382 L434.201 348.665 L456.19 344.537 L478.178 346.451 L500.166 345.376 L522.154 350.688 L544.142 344.82 L566.13 346.786 L588.118 346.454 L610.106 347.442 L632.094 344.985 L654.082 346.723 L676.07 351.001 L698.058 354.328 L720.046 359.046 L742.034 363.062 L764.023 364.404 L786.011 380.521 L807.999 390.115 L829.987 404.481 L851.975 455.69 L873.963 478.949 L895.951 512.329 L917.939 552.18 L939.927 591.122 L961.915 613.554 L983.903 637.241 L1005.89 629.775 L1027.88 630.95 L1049.87 624.122 L1071.86 623.069 L1093.84 623.98 L1115.83 624.992 L1137.82 625.631 L1159.81 626.967 L1181.8 627.313 L1203.78 627.978 L1225.77 628.216 L1247.76 628.432 L1269.75 628.237 L1291.74 628.363 L1313.72 628.363 L1313.72 607.219 L1291.74 607.219 L1269.75 607.364 L1247.76 605.986 L1225.77 604.1 L1203.78 603.006 L1181.8 601.806 L1159.81 600.046 L1137.82 600.043 L1115.83 597.28 L1093.84 592.543 L1071.86 588.992 L1049.87 582.307 L1027.88 562.04 L1005.89 519.638 L983.903 476.518 L961.915 439.816 L939.927 400.686 L917.939 381.31 L895.951 347.697 L873.963 333.552 L851.975 335.395 L829.987 347.755 L807.999 354.877 L786.011 353.587 L764.023 349.044 L742.034 347.796 L720.046 346.825 L698.058 341.839 L676.07 334.73 L654.082 334.066 L632.094 334.479 L610.106 330.441 L588.118 333.411 L566.13 335.069 L544.142 331.436 L522.154 325.487 L500.166 326.948 L478.178 323.015 L456.19 325.242 L434.201 309.794 L412.213 311.233 L390.225 303.558 L368.237 304.429 L346.249 312.821 L324.261 341.95 L302.273 345.354 L280.285 341.021 L258.297 346.82 L236.309 680.147  Z" fill="#e31a1c" fill-rule="evenodd" fill-opacity="0.1"/>
<polyline clip-path="url(#clip892)" style="stroke:#e31a1c; stroke-linecap:round; stroke-linejoin:round; stroke-width:4; stroke-opacity:1; fill:none" points="236.309,694.883 258.297,355.634 280.285,348.327 302.273,349.672 324.261,350.18 346.249,337.141 368.237,332.829 390.225,327.453 412.213,331.308 434.201,329.23 456.19,334.889 478.178,334.733 500.166,336.162 522.154,338.088 544.142,338.128 566.13,340.927 588.118,339.932 610.106,338.941 632.094,339.732 654.082,340.394 676.07,342.865 698.058,348.083 720.046,352.936 742.034,355.429 764.023,356.724 786.011,367.054 807.999,372.496 829.987,376.118 851.975,395.542 873.963,406.251 895.951,430.013 917.939,466.745 939.927,495.904 961.915,526.685 983.903,556.88 1005.89,574.706 1027.88,596.495 1049.87,603.214 1071.86,606.031 1093.84,608.261 1115.83,611.136 1137.82,612.837 1159.81,613.506 1181.8,614.56 1203.78,615.492 1225.77,616.158 1247.76,617.209 1269.75,617.801 1291.74,617.791 1313.72,617.791 "/>
<circle clip-path="url(#clip892)" cx="236.309" cy="694.883" r="14.4" fill="#e31a1c" fill-rule="evenodd" fill-opacity="1" stroke="none"/>
<circle clip-path="url(#clip892)" cx="258.297" cy="355.634" r="14.4" fill="#e31a1c" fill-rule="evenodd" fill-opacity="1" stroke="none"/>
<circle clip-path="url(#clip892)" cx="280.285" cy="348.327" r="14.4" fill="#e31a1c" fill-rule="evenodd" fill-opacity="1" stroke="none"/>
<circle clip-path="url(#clip892)" cx="302.273" cy="349.672" r="14.4" fill="#e31a1c" fill-rule="evenodd" fill-opacity="1" stroke="none"/>
<circle clip-path="url(#clip892)" cx="324.261" cy="350.18" r="14.4" fill="#e31a1c" fill-rule="evenodd" fill-opacity="1" stroke="none"/>
<circle clip-path="url(#clip892)" cx="346.249" cy="337.141" r="14.4" fill="#e31a1c" fill-rule="evenodd" fill-opacity="1" stroke="none"/>
<circle clip-path="url(#clip892)" cx="368.237" cy="332.829" r="14.4" fill="#e31a1c" fill-rule="evenodd" fill-opacity="1" stroke="none"/>
<circle clip-path="url(#clip892)" cx="390.225" cy="327.453" r="14.4" fill="#e31a1c" fill-rule="evenodd" fill-opacity="1" stroke="none"/>
<circle clip-path="url(#clip892)" cx="412.213" cy="331.308" r="14.4" fill="#e31a1c" fill-rule="evenodd" fill-opacity="1" stroke="none"/>
<circle clip-path="url(#clip892)" cx="434.201" cy="329.23" r="14.4" fill="#e31a1c" fill-rule="evenodd" fill-opacity="1" stroke="none"/>
<circle clip-path="url(#clip892)" cx="456.19" cy="334.889" r="14.4" fill="#e31a1c" fill-rule="evenodd" fill-opacity="1" stroke="none"/>
<circle clip-path="url(#clip892)" cx="478.178" cy="334.733" r="14.4" fill="#e31a1c" fill-rule="evenodd" fill-opacity="1" stroke="none"/>
<circle clip-path="url(#clip892)" cx="500.166" cy="336.162" r="14.4" fill="#e31a1c" fill-rule="evenodd" fill-opacity="1" stroke="none"/>
<circle clip-path="url(#clip892)" cx="522.154" cy="338.088" r="14.4" fill="#e31a1c" fill-rule="evenodd" fill-opacity="1" stroke="none"/>
<circle clip-path="url(#clip892)" cx="544.142" cy="338.128" r="14.4" fill="#e31a1c" fill-rule="evenodd" fill-opacity="1" stroke="none"/>
<circle clip-path="url(#clip892)" cx="566.13" cy="340.927" r="14.4" fill="#e31a1c" fill-rule="evenodd" fill-opacity="1" stroke="none"/>
<circle clip-path="url(#clip892)" cx="588.118" cy="339.932" r="14.4" fill="#e31a1c" fill-rule="evenodd" fill-opacity="1" stroke="none"/>
<circle clip-path="url(#clip892)" cx="610.106" cy="338.941" r="14.4" fill="#e31a1c" fill-rule="evenodd" fill-opacity="1" stroke="none"/>
<circle clip-path="url(#clip892)" cx="632.094" cy="339.732" r="14.4" fill="#e31a1c" fill-rule="evenodd" fill-opacity="1" stroke="none"/>
<circle clip-path="url(#clip892)" cx="654.082" cy="340.394" r="14.4" fill="#e31a1c" fill-rule="evenodd" fill-opacity="1" stroke="none"/>
<circle clip-path="url(#clip892)" cx="676.07" cy="342.865" r="14.4" fill="#e31a1c" fill-rule="evenodd" fill-opacity="1" stroke="none"/>
<circle clip-path="url(#clip892)" cx="698.058" cy="348.083" r="14.4" fill="#e31a1c" fill-rule="evenodd" fill-opacity="1" stroke="none"/>
<circle clip-path="url(#clip892)" cx="720.046" cy="352.936" r="14.4" fill="#e31a1c" fill-rule="evenodd" fill-opacity="1" stroke="none"/>
<circle clip-path="url(#clip892)" cx="742.034" cy="355.429" r="14.4" fill="#e31a1c" fill-rule="evenodd" fill-opacity="1" stroke="none"/>
<circle clip-path="url(#clip892)" cx="764.023" cy="356.724" r="14.4" fill="#e31a1c" fill-rule="evenodd" fill-opacity="1" stroke="none"/>
<circle clip-path="url(#clip892)" cx="786.011" cy="367.054" r="14.4" fill="#e31a1c" fill-rule="evenodd" fill-opacity="1" stroke="none"/>
<circle clip-path="url(#clip892)" cx="807.999" cy="372.496" r="14.4" fill="#e31a1c" fill-rule="evenodd" fill-opacity="1" stroke="none"/>
<circle clip-path="url(#clip892)" cx="829.987" cy="376.118" r="14.4" fill="#e31a1c" fill-rule="evenodd" fill-opacity="1" stroke="none"/>
<circle clip-path="url(#clip892)" cx="851.975" cy="395.542" r="14.4" fill="#e31a1c" fill-rule="evenodd" fill-opacity="1" stroke="none"/>
<circle clip-path="url(#clip892)" cx="873.963" cy="406.251" r="14.4" fill="#e31a1c" fill-rule="evenodd" fill-opacity="1" stroke="none"/>
<circle clip-path="url(#clip892)" cx="895.951" cy="430.013" r="14.4" fill="#e31a1c" fill-rule="evenodd" fill-opacity="1" stroke="none"/>
<circle clip-path="url(#clip892)" cx="917.939" cy="466.745" r="14.4" fill="#e31a1c" fill-rule="evenodd" fill-opacity="1" stroke="none"/>
<circle clip-path="url(#clip892)" cx="939.927" cy="495.904" r="14.4" fill="#e31a1c" fill-rule="evenodd" fill-opacity="1" stroke="none"/>
<circle clip-path="url(#clip892)" cx="961.915" cy="526.685" r="14.4" fill="#e31a1c" fill-rule="evenodd" fill-opacity="1" stroke="none"/>
<circle clip-path="url(#clip892)" cx="983.903" cy="556.88" r="14.4" fill="#e31a1c" fill-rule="evenodd" fill-opacity="1" stroke="none"/>
<circle clip-path="url(#clip892)" cx="1005.89" cy="574.706" r="14.4" fill="#e31a1c" fill-rule="evenodd" fill-opacity="1" stroke="none"/>
<circle clip-path="url(#clip892)" cx="1027.88" cy="596.495" r="14.4" fill="#e31a1c" fill-rule="evenodd" fill-opacity="1" stroke="none"/>
<circle clip-path="url(#clip892)" cx="1049.87" cy="603.214" r="14.4" fill="#e31a1c" fill-rule="evenodd" fill-opacity="1" stroke="none"/>
<circle clip-path="url(#clip892)" cx="1071.86" cy="606.031" r="14.4" fill="#e31a1c" fill-rule="evenodd" fill-opacity="1" stroke="none"/>
<circle clip-path="url(#clip892)" cx="1093.84" cy="608.261" r="14.4" fill="#e31a1c" fill-rule="evenodd" fill-opacity="1" stroke="none"/>
<circle clip-path="url(#clip892)" cx="1115.83" cy="611.136" r="14.4" fill="#e31a1c" fill-rule="evenodd" fill-opacity="1" stroke="none"/>
<circle clip-path="url(#clip892)" cx="1137.82" cy="612.837" r="14.4" fill="#e31a1c" fill-rule="evenodd" fill-opacity="1" stroke="none"/>
<circle clip-path="url(#clip892)" cx="1159.81" cy="613.506" r="14.4" fill="#e31a1c" fill-rule="evenodd" fill-opacity="1" stroke="none"/>
<circle clip-path="url(#clip892)" cx="1181.8" cy="614.56" r="14.4" fill="#e31a1c" fill-rule="evenodd" fill-opacity="1" stroke="none"/>
<circle clip-path="url(#clip892)" cx="1203.78" cy="615.492" r="14.4" fill="#e31a1c" fill-rule="evenodd" fill-opacity="1" stroke="none"/>
<circle clip-path="url(#clip892)" cx="1225.77" cy="616.158" r="14.4" fill="#e31a1c" fill-rule="evenodd" fill-opacity="1" stroke="none"/>
<circle clip-path="url(#clip892)" cx="1247.76" cy="617.209" r="14.4" fill="#e31a1c" fill-rule="evenodd" fill-opacity="1" stroke="none"/>
<circle clip-path="url(#clip892)" cx="1269.75" cy="617.801" r="14.4" fill="#e31a1c" fill-rule="evenodd" fill-opacity="1" stroke="none"/>
<circle clip-path="url(#clip892)" cx="1291.74" cy="617.791" r="14.4" fill="#e31a1c" fill-rule="evenodd" fill-opacity="1" stroke="none"/>
<circle clip-path="url(#clip892)" cx="1313.72" cy="617.791" r="14.4" fill="#e31a1c" fill-rule="evenodd" fill-opacity="1" stroke="none"/>
<path clip-path="url(#clip892)" d="M236.309 652.484 L258.297 572.625 L280.285 480.854 L302.273 403.064 L324.261 335.212 L346.249 280.038 L368.237 242.571 L390.225 211.27 L412.213 187.271 L434.201 163.727 L456.19 148.377 L478.178 132.265 L500.166 119.093 L522.154 111.048 L544.142 103.203 L566.13 96.6528 L588.118 91.5841 L610.106 91.4343 L632.094 90.0557 L654.082 88.9538 L676.07 87.8116 L698.058 88.1121 L720.046 87.8246 L742.034 84.7039 L764.023 86.8844 L786.011 87.4279 L807.999 87.8375 L829.987 87.9586 L851.975 88.0837 L873.963 87.5471 L895.951 89.2641 L917.939 88.2039 L939.927 88.9902 L961.915 88.4815 L983.903 86.6381 L1005.89 88.3497 L1027.88 86.1639 L1049.87 88.347 L1071.86 86.0422 L1093.84 84.4554 L1115.83 85.2618 L1137.82 85.5583 L1159.81 85.1943 L1181.8 83.3901 L1203.78 83.1636 L1225.77 82.4957 L1247.76 81.18 L1269.75 80.2575 L1291.74 81.2572 L1313.72 81.2572 L1313.72 70.6863 L1291.74 70.6863 L1269.75 70.8709 L1247.76 71.367 L1225.77 72.9989 L1203.78 74.386 L1181.8 73.0111 L1159.81 71.732 L1137.82 69.9551 L1115.83 70.9507 L1093.84 72.7459 L1071.86 74.016 L1049.87 75.7584 L1027.88 76.5016 L1005.89 76.4377 L983.903 73.8328 L961.915 75.3289 L939.927 76.875 L917.939 74.838 L895.951 76.2174 L873.963 80.0569 L851.975 76.6229 L829.987 73.5544 L807.999 73.8075 L786.011 76.5921 L764.023 75.2208 L742.034 76.2489 L720.046 74.0083 L698.058 74.6739 L676.07 74.5147 L654.082 74.6703 L632.094 77.4175 L610.106 77.5869 L588.118 80.2668 L566.13 80.3487 L544.142 82.9794 L522.154 87.5221 L500.166 98.6711 L478.178 110.888 L456.19 125.006 L434.201 135.896 L412.213 153.198 L390.225 180.681 L368.237 210.002 L346.249 245.393 L324.261 303.035 L302.273 386.845 L280.285 468.494 L258.297 563.051 L236.309 641.493  Z" fill="#974ea2" fill-rule="evenodd" fill-opacity="0.1"/>
<polyline clip-path="url(#clip892)" style="stroke:#974ea2; stroke-linecap:round; stroke-linejoin:round; stroke-width:4; stroke-opacity:1; fill:none" points="236.309,646.989 258.297,567.838 280.285,474.674 302.273,394.955 324.261,319.124 346.249,262.716 368.237,226.286 390.225,195.976 412.213,170.235 434.201,149.812 456.19,136.691 478.178,121.577 500.166,108.882 522.154,99.2852 544.142,93.0914 566.13,88.5008 588.118,85.9254 610.106,84.5106 632.094,83.7366 654.082,81.812 676.07,81.1632 698.058,81.393 720.046,80.9165 742.034,80.4764 764.023,81.0526 786.011,82.01 807.999,80.8225 829.987,80.7565 851.975,82.3533 873.963,83.802 895.951,82.7407 917.939,81.521 939.927,82.9326 961.915,81.9052 983.903,80.2355 1005.89,82.3937 1027.88,81.3328 1049.87,82.0527 1071.86,80.0291 1093.84,78.6007 1115.83,78.1063 1137.82,77.7567 1159.81,78.4632 1181.8,78.2006 1203.78,78.7748 1225.77,77.7473 1247.76,76.2735 1269.75,75.5642 1291.74,75.9717 1313.72,75.9717 "/>
<circle clip-path="url(#clip892)" cx="236.309" cy="646.989" r="14.4" fill="#974ea2" fill-rule="evenodd" fill-opacity="1" stroke="none"/>
<circle clip-path="url(#clip892)" cx="258.297" cy="567.838" r="14.4" fill="#974ea2" fill-rule="evenodd" fill-opacity="1" stroke="none"/>
<circle clip-path="url(#clip892)" cx="280.285" cy="474.674" r="14.4" fill="#974ea2" fill-rule="evenodd" fill-opacity="1" stroke="none"/>
<circle clip-path="url(#clip892)" cx="302.273" cy="394.955" r="14.4" fill="#974ea2" fill-rule="evenodd" fill-opacity="1" stroke="none"/>
<circle clip-path="url(#clip892)" cx="324.261" cy="319.124" r="14.4" fill="#974ea2" fill-rule="evenodd" fill-opacity="1" stroke="none"/>
<circle clip-path="url(#clip892)" cx="346.249" cy="262.716" r="14.4" fill="#974ea2" fill-rule="evenodd" fill-opacity="1" stroke="none"/>
<circle clip-path="url(#clip892)" cx="368.237" cy="226.286" r="14.4" fill="#974ea2" fill-rule="evenodd" fill-opacity="1" stroke="none"/>
<circle clip-path="url(#clip892)" cx="390.225" cy="195.976" r="14.4" fill="#974ea2" fill-rule="evenodd" fill-opacity="1" stroke="none"/>
<circle clip-path="url(#clip892)" cx="412.213" cy="170.235" r="14.4" fill="#974ea2" fill-rule="evenodd" fill-opacity="1" stroke="none"/>
<circle clip-path="url(#clip892)" cx="434.201" cy="149.812" r="14.4" fill="#974ea2" fill-rule="evenodd" fill-opacity="1" stroke="none"/>
<circle clip-path="url(#clip892)" cx="456.19" cy="136.691" r="14.4" fill="#974ea2" fill-rule="evenodd" fill-opacity="1" stroke="none"/>
<circle clip-path="url(#clip892)" cx="478.178" cy="121.577" r="14.4" fill="#974ea2" fill-rule="evenodd" fill-opacity="1" stroke="none"/>
<circle clip-path="url(#clip892)" cx="500.166" cy="108.882" r="14.4" fill="#974ea2" fill-rule="evenodd" fill-opacity="1" stroke="none"/>
<circle clip-path="url(#clip892)" cx="522.154" cy="99.2852" r="14.4" fill="#974ea2" fill-rule="evenodd" fill-opacity="1" stroke="none"/>
<circle clip-path="url(#clip892)" cx="544.142" cy="93.0914" r="14.4" fill="#974ea2" fill-rule="evenodd" fill-opacity="1" stroke="none"/>
<circle clip-path="url(#clip892)" cx="566.13" cy="88.5008" r="14.4" fill="#974ea2" fill-rule="evenodd" fill-opacity="1" stroke="none"/>
<circle clip-path="url(#clip892)" cx="588.118" cy="85.9254" r="14.4" fill="#974ea2" fill-rule="evenodd" fill-opacity="1" stroke="none"/>
<circle clip-path="url(#clip892)" cx="610.106" cy="84.5106" r="14.4" fill="#974ea2" fill-rule="evenodd" fill-opacity="1" stroke="none"/>
<circle clip-path="url(#clip892)" cx="632.094" cy="83.7366" r="14.4" fill="#974ea2" fill-rule="evenodd" fill-opacity="1" stroke="none"/>
<circle clip-path="url(#clip892)" cx="654.082" cy="81.812" r="14.4" fill="#974ea2" fill-rule="evenodd" fill-opacity="1" stroke="none"/>
<circle clip-path="url(#clip892)" cx="676.07" cy="81.1632" r="14.4" fill="#974ea2" fill-rule="evenodd" fill-opacity="1" stroke="none"/>
<circle clip-path="url(#clip892)" cx="698.058" cy="81.393" r="14.4" fill="#974ea2" fill-rule="evenodd" fill-opacity="1" stroke="none"/>
<circle clip-path="url(#clip892)" cx="720.046" cy="80.9165" r="14.4" fill="#974ea2" fill-rule="evenodd" fill-opacity="1" stroke="none"/>
<circle clip-path="url(#clip892)" cx="742.034" cy="80.4764" r="14.4" fill="#974ea2" fill-rule="evenodd" fill-opacity="1" stroke="none"/>
<circle clip-path="url(#clip892)" cx="764.023" cy="81.0526" r="14.4" fill="#974ea2" fill-rule="evenodd" fill-opacity="1" stroke="none"/>
<circle clip-path="url(#clip892)" cx="786.011" cy="82.01" r="14.4" fill="#974ea2" fill-rule="evenodd" fill-opacity="1" stroke="none"/>
<circle clip-path="url(#clip892)" cx="807.999" cy="80.8225" r="14.4" fill="#974ea2" fill-rule="evenodd" fill-opacity="1" stroke="none"/>
<circle clip-path="url(#clip892)" cx="829.987" cy="80.7565" r="14.4" fill="#974ea2" fill-rule="evenodd" fill-opacity="1" stroke="none"/>
<circle clip-path="url(#clip892)" cx="851.975" cy="82.3533" r="14.4" fill="#974ea2" fill-rule="evenodd" fill-opacity="1" stroke="none"/>
<circle clip-path="url(#clip892)" cx="873.963" cy="83.802" r="14.4" fill="#974ea2" fill-rule="evenodd" fill-opacity="1" stroke="none"/>
<circle clip-path="url(#clip892)" cx="895.951" cy="82.7407" r="14.4" fill="#974ea2" fill-rule="evenodd" fill-opacity="1" stroke="none"/>
<circle clip-path="url(#clip892)" cx="917.939" cy="81.521" r="14.4" fill="#974ea2" fill-rule="evenodd" fill-opacity="1" stroke="none"/>
<circle clip-path="url(#clip892)" cx="939.927" cy="82.9326" r="14.4" fill="#974ea2" fill-rule="evenodd" fill-opacity="1" stroke="none"/>
<circle clip-path="url(#clip892)" cx="961.915" cy="81.9052" r="14.4" fill="#974ea2" fill-rule="evenodd" fill-opacity="1" stroke="none"/>
<circle clip-path="url(#clip892)" cx="983.903" cy="80.2355" r="14.4" fill="#974ea2" fill-rule="evenodd" fill-opacity="1" stroke="none"/>
<circle clip-path="url(#clip892)" cx="1005.89" cy="82.3937" r="14.4" fill="#974ea2" fill-rule="evenodd" fill-opacity="1" stroke="none"/>
<circle clip-path="url(#clip892)" cx="1027.88" cy="81.3328" r="14.4" fill="#974ea2" fill-rule="evenodd" fill-opacity="1" stroke="none"/>
<circle clip-path="url(#clip892)" cx="1049.87" cy="82.0527" r="14.4" fill="#974ea2" fill-rule="evenodd" fill-opacity="1" stroke="none"/>
<circle clip-path="url(#clip892)" cx="1071.86" cy="80.0291" r="14.4" fill="#974ea2" fill-rule="evenodd" fill-opacity="1" stroke="none"/>
<circle clip-path="url(#clip892)" cx="1093.84" cy="78.6007" r="14.4" fill="#974ea2" fill-rule="evenodd" fill-opacity="1" stroke="none"/>
<circle clip-path="url(#clip892)" cx="1115.83" cy="78.1063" r="14.4" fill="#974ea2" fill-rule="evenodd" fill-opacity="1" stroke="none"/>
<circle clip-path="url(#clip892)" cx="1137.82" cy="77.7567" r="14.4" fill="#974ea2" fill-rule="evenodd" fill-opacity="1" stroke="none"/>
<circle clip-path="url(#clip892)" cx="1159.81" cy="78.4632" r="14.4" fill="#974ea2" fill-rule="evenodd" fill-opacity="1" stroke="none"/>
<circle clip-path="url(#clip892)" cx="1181.8" cy="78.2006" r="14.4" fill="#974ea2" fill-rule="evenodd" fill-opacity="1" stroke="none"/>
<circle clip-path="url(#clip892)" cx="1203.78" cy="78.7748" r="14.4" fill="#974ea2" fill-rule="evenodd" fill-opacity="1" stroke="none"/>
<circle clip-path="url(#clip892)" cx="1225.77" cy="77.7473" r="14.4" fill="#974ea2" fill-rule="evenodd" fill-opacity="1" stroke="none"/>
<circle clip-path="url(#clip892)" cx="1247.76" cy="76.2735" r="14.4" fill="#974ea2" fill-rule="evenodd" fill-opacity="1" stroke="none"/>
<circle clip-path="url(#clip892)" cx="1269.75" cy="75.5642" r="14.4" fill="#974ea2" fill-rule="evenodd" fill-opacity="1" stroke="none"/>
<circle clip-path="url(#clip892)" cx="1291.74" cy="75.9717" r="14.4" fill="#974ea2" fill-rule="evenodd" fill-opacity="1" stroke="none"/>
<circle clip-path="url(#clip892)" cx="1313.72" cy="75.9717" r="14.4" fill="#974ea2" fill-rule="evenodd" fill-opacity="1" stroke="none"/>
<path clip-path="url(#clip890)" d="M1404.34 281.353 L1952.76 281.353 L1952.76 73.9926 L1404.34 73.9926  Z" fill="#ffffff" fill-rule="evenodd" fill-opacity="1"/>
<polyline clip-path="url(#clip890)" style="stroke:#000000; stroke-linecap:round; stroke-linejoin:round; stroke-width:4; stroke-opacity:1; fill:none" points="1404.34,281.353 1952.76,281.353 1952.76,73.9926 1404.34,73.9926 1404.34,281.353 "/>
<polyline clip-path="url(#clip890)" style="stroke:#377db8; stroke-linecap:round; stroke-linejoin:round; stroke-width:4; stroke-opacity:1; fill:none" points="1423.77,125.833 1540.35,125.833 "/>
<circle clip-path="url(#clip890)" cx="1482.06" cy="125.833" r="16.1923" fill="#377db8" fill-rule="evenodd" fill-opacity="1" stroke="none"/>
<path clip-path="url(#clip890)" d="M1564.46 126.608 L1564.46 139.27 L1571.96 139.27 Q1575.73 139.27 1577.54 137.719 Q1579.37 136.145 1579.37 132.927 Q1579.37 129.687 1577.54 128.159 Q1575.73 126.608 1571.96 126.608 L1564.46 126.608 M1564.46 112.395 L1564.46 122.812 L1571.38 122.812 Q1574.81 122.812 1576.48 121.539 Q1578.16 120.242 1578.16 117.603 Q1578.16 114.988 1576.48 113.691 Q1574.81 112.395 1571.38 112.395 L1564.46 112.395 M1559.79 108.553 L1571.73 108.553 Q1577.08 108.553 1579.97 110.775 Q1582.86 112.997 1582.86 117.094 Q1582.86 120.266 1581.38 122.141 Q1579.9 124.015 1577.03 124.478 Q1580.48 125.219 1582.38 127.58 Q1584.3 129.918 1584.3 133.437 Q1584.3 138.066 1581.15 140.589 Q1578 143.113 1572.19 143.113 L1559.79 143.113 L1559.79 108.553 Z" fill="#000000" fill-rule="nonzero" fill-opacity="1" /><path clip-path="url(#clip890)" d="M1592.12 117.187 L1596.38 117.187 L1596.38 143.113 L1592.12 143.113 L1592.12 117.187 M1592.12 107.094 L1596.38 107.094 L1596.38 112.488 L1592.12 112.488 L1592.12 107.094 Z" fill="#000000" fill-rule="nonzero" fill-opacity="1" /><path clip-path="url(#clip890)" d="M1621.82 117.951 L1621.82 121.978 Q1620.02 121.053 1618.07 120.59 Q1616.13 120.127 1614.04 120.127 Q1610.87 120.127 1609.28 121.099 Q1607.7 122.071 1607.7 124.015 Q1607.7 125.497 1608.84 126.353 Q1609.97 127.187 1613.4 127.951 L1614.85 128.275 Q1619.39 129.247 1621.29 131.029 Q1623.21 132.789 1623.21 135.96 Q1623.21 139.571 1620.34 141.677 Q1617.49 143.784 1612.49 143.784 Q1610.41 143.784 1608.14 143.367 Q1605.9 142.974 1603.4 142.164 L1603.4 137.765 Q1605.76 138.992 1608.05 139.617 Q1610.34 140.219 1612.59 140.219 Q1615.6 140.219 1617.22 139.201 Q1618.84 138.159 1618.84 136.284 Q1618.84 134.548 1617.66 133.622 Q1616.5 132.696 1612.54 131.84 L1611.06 131.492 Q1607.1 130.659 1605.34 128.946 Q1603.58 127.21 1603.58 124.201 Q1603.58 120.543 1606.17 118.553 Q1608.77 116.562 1613.54 116.562 Q1615.9 116.562 1617.98 116.909 Q1620.06 117.256 1621.82 117.951 Z" fill="#000000" fill-rule="nonzero" fill-opacity="1" /><path clip-path="url(#clip890)" d="M1634.21 109.826 L1634.21 117.187 L1642.98 117.187 L1642.98 120.497 L1634.21 120.497 L1634.21 134.571 Q1634.21 137.742 1635.06 138.645 Q1635.94 139.548 1638.6 139.548 L1642.98 139.548 L1642.98 143.113 L1638.6 143.113 Q1633.67 143.113 1631.8 141.284 Q1629.92 139.432 1629.92 134.571 L1629.92 120.497 L1626.8 120.497 L1626.8 117.187 L1629.92 117.187 L1629.92 109.826 L1634.21 109.826 Z" fill="#000000" fill-rule="nonzero" fill-opacity="1" /><path clip-path="url(#clip890)" d="M1658.63 120.173 Q1655.2 120.173 1653.21 122.858 Q1651.22 125.52 1651.22 130.173 Q1651.22 134.826 1653.19 137.511 Q1655.18 140.173 1658.63 140.173 Q1662.03 140.173 1664.02 137.488 Q1666.01 134.802 1666.01 130.173 Q1666.01 125.566 1664.02 122.881 Q1662.03 120.173 1658.63 120.173 M1658.63 116.562 Q1664.18 116.562 1667.35 120.173 Q1670.53 123.784 1670.53 130.173 Q1670.53 136.539 1667.35 140.173 Q1664.18 143.784 1658.63 143.784 Q1653.05 143.784 1649.88 140.173 Q1646.73 136.539 1646.73 130.173 Q1646.73 123.784 1649.88 120.173 Q1653.05 116.562 1658.63 116.562 Z" fill="#000000" fill-rule="nonzero" fill-opacity="1" /><path clip-path="url(#clip890)" d="M1696.24 118.182 L1696.24 122.164 Q1694.44 121.168 1692.61 120.682 Q1690.8 120.173 1688.95 120.173 Q1684.81 120.173 1682.52 122.812 Q1680.22 125.428 1680.22 130.173 Q1680.22 134.918 1682.52 137.557 Q1684.81 140.173 1688.95 140.173 Q1690.8 140.173 1692.61 139.687 Q1694.44 139.177 1696.24 138.182 L1696.24 142.117 Q1694.46 142.951 1692.54 143.367 Q1690.64 143.784 1688.49 143.784 Q1682.63 143.784 1679.18 140.103 Q1675.73 136.423 1675.73 130.173 Q1675.73 123.83 1679.21 120.196 Q1682.7 116.562 1688.77 116.562 Q1690.73 116.562 1692.61 116.979 Q1694.48 117.372 1696.24 118.182 Z" fill="#000000" fill-rule="nonzero" fill-opacity="1" /><path clip-path="url(#clip890)" d="M1725.2 127.465 L1725.2 143.113 L1720.94 143.113 L1720.94 127.603 Q1720.94 123.923 1719.51 122.094 Q1718.07 120.266 1715.2 120.266 Q1711.75 120.266 1709.76 122.465 Q1707.77 124.664 1707.77 128.46 L1707.77 143.113 L1703.49 143.113 L1703.49 107.094 L1707.77 107.094 L1707.77 121.215 Q1709.3 118.877 1711.36 117.719 Q1713.44 116.562 1716.15 116.562 Q1720.62 116.562 1722.91 119.34 Q1725.2 122.094 1725.2 127.465 Z" fill="#000000" fill-rule="nonzero" fill-opacity="1" /><path clip-path="url(#clip890)" d="M1745.48 130.08 Q1740.32 130.08 1738.33 131.261 Q1736.34 132.441 1736.34 135.289 Q1736.34 137.557 1737.82 138.9 Q1739.32 140.219 1741.89 140.219 Q1745.43 140.219 1747.56 137.719 Q1749.72 135.196 1749.72 131.029 L1749.72 130.08 L1745.48 130.08 M1753.97 128.321 L1753.97 143.113 L1749.72 143.113 L1749.72 139.177 Q1748.26 141.539 1746.08 142.673 Q1743.9 143.784 1740.76 143.784 Q1736.78 143.784 1734.41 141.562 Q1732.08 139.316 1732.08 135.566 Q1732.08 131.191 1734.99 128.969 Q1737.93 126.747 1743.74 126.747 L1749.72 126.747 L1749.72 126.33 Q1749.72 123.391 1747.77 121.793 Q1745.85 120.173 1742.35 120.173 Q1740.13 120.173 1738.03 120.705 Q1735.92 121.238 1733.97 122.303 L1733.97 118.367 Q1736.31 117.465 1738.51 117.025 Q1740.71 116.562 1742.79 116.562 Q1748.42 116.562 1751.2 119.478 Q1753.97 122.395 1753.97 128.321 Z" fill="#000000" fill-rule="nonzero" fill-opacity="1" /><path clip-path="url(#clip890)" d="M1779.28 117.951 L1779.28 121.978 Q1777.47 121.053 1775.53 120.59 Q1773.58 120.127 1771.5 120.127 Q1768.33 120.127 1766.73 121.099 Q1765.15 122.071 1765.15 124.015 Q1765.15 125.497 1766.29 126.353 Q1767.42 127.187 1770.85 127.951 L1772.31 128.275 Q1776.84 129.247 1778.74 131.029 Q1780.66 132.789 1780.66 135.96 Q1780.66 139.571 1777.79 141.677 Q1774.95 143.784 1769.95 143.784 Q1767.86 143.784 1765.59 143.367 Q1763.35 142.974 1760.85 142.164 L1760.85 137.765 Q1763.21 138.992 1765.5 139.617 Q1767.79 140.219 1770.04 140.219 Q1773.05 140.219 1774.67 139.201 Q1776.29 138.159 1776.29 136.284 Q1776.29 134.548 1775.11 133.622 Q1773.95 132.696 1769.99 131.84 L1768.51 131.492 Q1764.55 130.659 1762.79 128.946 Q1761.03 127.21 1761.03 124.201 Q1761.03 120.543 1763.63 118.553 Q1766.22 116.562 1770.99 116.562 Q1773.35 116.562 1775.43 116.909 Q1777.52 117.256 1779.28 117.951 Z" fill="#000000" fill-rule="nonzero" fill-opacity="1" /><path clip-path="url(#clip890)" d="M1791.66 109.826 L1791.66 117.187 L1800.43 117.187 L1800.43 120.497 L1791.66 120.497 L1791.66 134.571 Q1791.66 137.742 1792.52 138.645 Q1793.4 139.548 1796.06 139.548 L1800.43 139.548 L1800.43 143.113 L1796.06 143.113 Q1791.13 143.113 1789.25 141.284 Q1787.38 139.432 1787.38 134.571 L1787.38 120.497 L1784.25 120.497 L1784.25 117.187 L1787.38 117.187 L1787.38 109.826 L1791.66 109.826 Z" fill="#000000" fill-rule="nonzero" fill-opacity="1" /><path clip-path="url(#clip890)" d="M1806.03 117.187 L1810.29 117.187 L1810.29 143.113 L1806.03 143.113 L1806.03 117.187 M1806.03 107.094 L1810.29 107.094 L1810.29 112.488 L1806.03 112.488 L1806.03 107.094 Z" fill="#000000" fill-rule="nonzero" fill-opacity="1" /><path clip-path="url(#clip890)" d="M1837.86 118.182 L1837.86 122.164 Q1836.06 121.168 1834.23 120.682 Q1832.42 120.173 1830.57 120.173 Q1826.43 120.173 1824.14 122.812 Q1821.84 125.428 1821.84 130.173 Q1821.84 134.918 1824.14 137.557 Q1826.43 140.173 1830.57 140.173 Q1832.42 140.173 1834.23 139.687 Q1836.06 139.177 1837.86 138.182 L1837.86 142.117 Q1836.08 142.951 1834.16 143.367 Q1832.26 143.784 1830.11 143.784 Q1824.25 143.784 1820.8 140.103 Q1817.35 136.423 1817.35 130.173 Q1817.35 123.83 1820.83 120.196 Q1824.32 116.562 1830.39 116.562 Q1832.35 116.562 1834.23 116.979 Q1836.1 117.372 1837.86 118.182 Z" fill="#000000" fill-rule="nonzero" fill-opacity="1" /><path clip-path="url(#clip890)" d="M1860.52 108.553 L1865.2 108.553 L1865.2 139.177 L1882.03 139.177 L1882.03 143.113 L1860.52 143.113 L1860.52 108.553 Z" fill="#000000" fill-rule="nonzero" fill-opacity="1" /><path clip-path="url(#clip890)" d="M1891.38 139.177 L1907.7 139.177 L1907.7 143.113 L1885.76 143.113 L1885.76 139.177 Q1888.42 136.423 1893 131.793 Q1897.61 127.14 1898.79 125.798 Q1901.03 123.275 1901.91 121.539 Q1902.82 119.779 1902.82 118.09 Q1902.82 115.335 1900.87 113.599 Q1898.95 111.863 1895.85 111.863 Q1893.65 111.863 1891.2 112.627 Q1888.77 113.391 1885.99 114.941 L1885.99 110.219 Q1888.81 109.085 1891.27 108.506 Q1893.72 107.928 1895.76 107.928 Q1901.13 107.928 1904.32 110.613 Q1907.52 113.298 1907.52 117.789 Q1907.52 119.918 1906.7 121.84 Q1905.92 123.738 1903.81 126.33 Q1903.23 127.002 1900.13 130.219 Q1897.03 133.414 1891.38 139.177 Z" fill="#000000" fill-rule="nonzero" fill-opacity="1" /><polyline clip-path="url(#clip890)" style="stroke:#e31a1c; stroke-linecap:round; stroke-linejoin:round; stroke-width:4; stroke-opacity:1; fill:none" points="1423.77,177.673 1540.35,177.673 "/>
<circle clip-path="url(#clip890)" cx="1482.06" cy="177.673" r="16.1923" fill="#e31a1c" fill-rule="evenodd" fill-opacity="1" stroke="none"/>
<path clip-path="url(#clip890)" d="M1564.46 178.448 L1564.46 191.11 L1571.96 191.11 Q1575.73 191.11 1577.54 189.559 Q1579.37 187.985 1579.37 184.767 Q1579.37 181.527 1577.54 179.999 Q1575.73 178.448 1571.96 178.448 L1564.46 178.448 M1564.46 164.235 L1564.46 174.652 L1571.38 174.652 Q1574.81 174.652 1576.48 173.379 Q1578.16 172.082 1578.16 169.443 Q1578.16 166.828 1576.48 165.531 Q1574.81 164.235 1571.38 164.235 L1564.46 164.235 M1559.79 160.393 L1571.73 160.393 Q1577.08 160.393 1579.97 162.615 Q1582.86 164.837 1582.86 168.934 Q1582.86 172.106 1581.38 173.981 Q1579.9 175.855 1577.03 176.318 Q1580.48 177.059 1582.38 179.42 Q1584.3 181.758 1584.3 185.277 Q1584.3 189.906 1581.15 192.429 Q1578 194.953 1572.19 194.953 L1559.79 194.953 L1559.79 160.393 Z" fill="#000000" fill-rule="nonzero" fill-opacity="1" /><path clip-path="url(#clip890)" d="M1592.12 169.027 L1596.38 169.027 L1596.38 194.953 L1592.12 194.953 L1592.12 169.027 M1592.12 158.934 L1596.38 158.934 L1596.38 164.328 L1592.12 164.328 L1592.12 158.934 Z" fill="#000000" fill-rule="nonzero" fill-opacity="1" /><path clip-path="url(#clip890)" d="M1621.82 169.791 L1621.82 173.818 Q1620.02 172.893 1618.07 172.43 Q1616.13 171.967 1614.04 171.967 Q1610.87 171.967 1609.28 172.939 Q1607.7 173.911 1607.7 175.855 Q1607.7 177.337 1608.84 178.193 Q1609.97 179.027 1613.4 179.791 L1614.85 180.115 Q1619.39 181.087 1621.29 182.869 Q1623.21 184.629 1623.21 187.8 Q1623.21 191.411 1620.34 193.517 Q1617.49 195.624 1612.49 195.624 Q1610.41 195.624 1608.14 195.207 Q1605.9 194.814 1603.4 194.004 L1603.4 189.605 Q1605.76 190.832 1608.05 191.457 Q1610.34 192.059 1612.59 192.059 Q1615.6 192.059 1617.22 191.041 Q1618.84 189.999 1618.84 188.124 Q1618.84 186.388 1617.66 185.462 Q1616.5 184.536 1612.54 183.68 L1611.06 183.332 Q1607.1 182.499 1605.34 180.786 Q1603.58 179.05 1603.58 176.041 Q1603.58 172.383 1606.17 170.393 Q1608.77 168.402 1613.54 168.402 Q1615.9 168.402 1617.98 168.749 Q1620.06 169.096 1621.82 169.791 Z" fill="#000000" fill-rule="nonzero" fill-opacity="1" /><path clip-path="url(#clip890)" d="M1634.21 161.666 L1634.21 169.027 L1642.98 169.027 L1642.98 172.337 L1634.21 172.337 L1634.21 186.411 Q1634.21 189.582 1635.06 190.485 Q1635.94 191.388 1638.6 191.388 L1642.98 191.388 L1642.98 194.953 L1638.6 194.953 Q1633.67 194.953 1631.8 193.124 Q1629.92 191.272 1629.92 186.411 L1629.92 172.337 L1626.8 172.337 L1626.8 169.027 L1629.92 169.027 L1629.92 161.666 L1634.21 161.666 Z" fill="#000000" fill-rule="nonzero" fill-opacity="1" /><path clip-path="url(#clip890)" d="M1658.63 172.013 Q1655.2 172.013 1653.21 174.698 Q1651.22 177.36 1651.22 182.013 Q1651.22 186.666 1653.19 189.351 Q1655.18 192.013 1658.63 192.013 Q1662.03 192.013 1664.02 189.328 Q1666.01 186.642 1666.01 182.013 Q1666.01 177.406 1664.02 174.721 Q1662.03 172.013 1658.63 172.013 M1658.63 168.402 Q1664.18 168.402 1667.35 172.013 Q1670.53 175.624 1670.53 182.013 Q1670.53 188.379 1667.35 192.013 Q1664.18 195.624 1658.63 195.624 Q1653.05 195.624 1649.88 192.013 Q1646.73 188.379 1646.73 182.013 Q1646.73 175.624 1649.88 172.013 Q1653.05 168.402 1658.63 168.402 Z" fill="#000000" fill-rule="nonzero" fill-opacity="1" /><path clip-path="url(#clip890)" d="M1696.24 170.022 L1696.24 174.004 Q1694.44 173.008 1692.61 172.522 Q1690.8 172.013 1688.95 172.013 Q1684.81 172.013 1682.52 174.652 Q1680.22 177.268 1680.22 182.013 Q1680.22 186.758 1682.52 189.397 Q1684.81 192.013 1688.95 192.013 Q1690.8 192.013 1692.61 191.527 Q1694.44 191.017 1696.24 190.022 L1696.24 193.957 Q1694.46 194.791 1692.54 195.207 Q1690.64 195.624 1688.49 195.624 Q1682.63 195.624 1679.18 191.943 Q1675.73 188.263 1675.73 182.013 Q1675.73 175.67 1679.21 172.036 Q1682.7 168.402 1688.77 168.402 Q1690.73 168.402 1692.61 168.819 Q1694.48 169.212 1696.24 170.022 Z" fill="#000000" fill-rule="nonzero" fill-opacity="1" /><path clip-path="url(#clip890)" d="M1725.2 179.305 L1725.2 194.953 L1720.94 194.953 L1720.94 179.443 Q1720.94 175.763 1719.51 173.934 Q1718.07 172.106 1715.2 172.106 Q1711.75 172.106 1709.76 174.305 Q1707.77 176.504 1707.77 180.3 L1707.77 194.953 L1703.49 194.953 L1703.49 158.934 L1707.77 158.934 L1707.77 173.055 Q1709.3 170.717 1711.36 169.559 Q1713.44 168.402 1716.15 168.402 Q1720.62 168.402 1722.91 171.18 Q1725.2 173.934 1725.2 179.305 Z" fill="#000000" fill-rule="nonzero" fill-opacity="1" /><path clip-path="url(#clip890)" d="M1745.48 181.92 Q1740.32 181.92 1738.33 183.101 Q1736.34 184.281 1736.34 187.129 Q1736.34 189.397 1737.82 190.74 Q1739.32 192.059 1741.89 192.059 Q1745.43 192.059 1747.56 189.559 Q1749.72 187.036 1749.72 182.869 L1749.72 181.92 L1745.48 181.92 M1753.97 180.161 L1753.97 194.953 L1749.72 194.953 L1749.72 191.017 Q1748.26 193.379 1746.08 194.513 Q1743.9 195.624 1740.76 195.624 Q1736.78 195.624 1734.41 193.402 Q1732.08 191.156 1732.08 187.406 Q1732.08 183.031 1734.99 180.809 Q1737.93 178.587 1743.74 178.587 L1749.72 178.587 L1749.72 178.17 Q1749.72 175.231 1747.77 173.633 Q1745.85 172.013 1742.35 172.013 Q1740.13 172.013 1738.03 172.545 Q1735.92 173.078 1733.97 174.143 L1733.97 170.207 Q1736.31 169.305 1738.51 168.865 Q1740.71 168.402 1742.79 168.402 Q1748.42 168.402 1751.2 171.318 Q1753.97 174.235 1753.97 180.161 Z" fill="#000000" fill-rule="nonzero" fill-opacity="1" /><path clip-path="url(#clip890)" d="M1779.28 169.791 L1779.28 173.818 Q1777.47 172.893 1775.53 172.43 Q1773.58 171.967 1771.5 171.967 Q1768.33 171.967 1766.73 172.939 Q1765.15 173.911 1765.15 175.855 Q1765.15 177.337 1766.29 178.193 Q1767.42 179.027 1770.85 179.791 L1772.31 180.115 Q1776.84 181.087 1778.74 182.869 Q1780.66 184.629 1780.66 187.8 Q1780.66 191.411 1777.79 193.517 Q1774.95 195.624 1769.95 195.624 Q1767.86 195.624 1765.59 195.207 Q1763.35 194.814 1760.85 194.004 L1760.85 189.605 Q1763.21 190.832 1765.5 191.457 Q1767.79 192.059 1770.04 192.059 Q1773.05 192.059 1774.67 191.041 Q1776.29 189.999 1776.29 188.124 Q1776.29 186.388 1775.11 185.462 Q1773.95 184.536 1769.99 183.68 L1768.51 183.332 Q1764.55 182.499 1762.79 180.786 Q1761.03 179.05 1761.03 176.041 Q1761.03 172.383 1763.63 170.393 Q1766.22 168.402 1770.99 168.402 Q1773.35 168.402 1775.43 168.749 Q1777.52 169.096 1779.28 169.791 Z" fill="#000000" fill-rule="nonzero" fill-opacity="1" /><path clip-path="url(#clip890)" d="M1791.66 161.666 L1791.66 169.027 L1800.43 169.027 L1800.43 172.337 L1791.66 172.337 L1791.66 186.411 Q1791.66 189.582 1792.52 190.485 Q1793.4 191.388 1796.06 191.388 L1800.43 191.388 L1800.43 194.953 L1796.06 194.953 Q1791.13 194.953 1789.25 193.124 Q1787.38 191.272 1787.38 186.411 L1787.38 172.337 L1784.25 172.337 L1784.25 169.027 L1787.38 169.027 L1787.38 161.666 L1791.66 161.666 Z" fill="#000000" fill-rule="nonzero" fill-opacity="1" /><path clip-path="url(#clip890)" d="M1806.03 169.027 L1810.29 169.027 L1810.29 194.953 L1806.03 194.953 L1806.03 169.027 M1806.03 158.934 L1810.29 158.934 L1810.29 164.328 L1806.03 164.328 L1806.03 158.934 Z" fill="#000000" fill-rule="nonzero" fill-opacity="1" /><path clip-path="url(#clip890)" d="M1837.86 170.022 L1837.86 174.004 Q1836.06 173.008 1834.23 172.522 Q1832.42 172.013 1830.57 172.013 Q1826.43 172.013 1824.14 174.652 Q1821.84 177.268 1821.84 182.013 Q1821.84 186.758 1824.14 189.397 Q1826.43 192.013 1830.57 192.013 Q1832.42 192.013 1834.23 191.527 Q1836.06 191.017 1837.86 190.022 L1837.86 193.957 Q1836.08 194.791 1834.16 195.207 Q1832.26 195.624 1830.11 195.624 Q1824.25 195.624 1820.8 191.943 Q1817.35 188.263 1817.35 182.013 Q1817.35 175.67 1820.83 172.036 Q1824.32 168.402 1830.39 168.402 Q1832.35 168.402 1834.23 168.819 Q1836.1 169.212 1837.86 170.022 Z" fill="#000000" fill-rule="nonzero" fill-opacity="1" /><path clip-path="url(#clip890)" d="M1860.52 160.393 L1882.38 160.393 L1882.38 164.328 L1865.2 164.328 L1865.2 174.559 L1881.66 174.559 L1881.66 178.494 L1865.2 178.494 L1865.2 191.017 L1882.79 191.017 L1882.79 194.953 L1860.52 194.953 L1860.52 160.393 Z" fill="#000000" fill-rule="nonzero" fill-opacity="1" /><path clip-path="url(#clip890)" d="M1911.84 179.305 L1911.84 194.953 L1907.58 194.953 L1907.58 179.443 Q1907.58 175.763 1906.15 173.934 Q1904.71 172.106 1901.84 172.106 Q1898.39 172.106 1896.4 174.305 Q1894.41 176.504 1894.41 180.3 L1894.41 194.953 L1890.13 194.953 L1890.13 169.027 L1894.41 169.027 L1894.41 173.055 Q1895.94 170.717 1898 169.559 Q1900.08 168.402 1902.79 168.402 Q1907.26 168.402 1909.55 171.18 Q1911.84 173.934 1911.84 179.305 Z" fill="#000000" fill-rule="nonzero" fill-opacity="1" /><path clip-path="url(#clip890)" d="M1924.55 161.666 L1924.55 169.027 L1933.33 169.027 L1933.33 172.337 L1924.55 172.337 L1924.55 186.411 Q1924.55 189.582 1925.41 190.485 Q1926.29 191.388 1928.95 191.388 L1933.33 191.388 L1933.33 194.953 L1928.95 194.953 Q1924.02 194.953 1922.14 193.124 Q1920.27 191.272 1920.27 186.411 L1920.27 172.337 L1917.14 172.337 L1917.14 169.027 L1920.27 169.027 L1920.27 161.666 L1924.55 161.666 Z" fill="#000000" fill-rule="nonzero" fill-opacity="1" /><polyline clip-path="url(#clip890)" style="stroke:#974ea2; stroke-linecap:round; stroke-linejoin:round; stroke-width:4; stroke-opacity:1; fill:none" points="1423.77,229.513 1540.35,229.513 "/>
<circle clip-path="url(#clip890)" cx="1482.06" cy="229.513" r="16.1923" fill="#974ea2" fill-rule="evenodd" fill-opacity="1" stroke="none"/>
<path clip-path="url(#clip890)" d="M1581.5 227.554 Q1581.5 228.889 1580.68 229.686 Q1579.88 230.482 1578.87 230.482 Q1577.98 230.482 1577.52 229.967 Q1577.05 229.451 1577.05 228.796 Q1577.05 228.515 1577.16 228.163 Q1577.28 227.788 1577.54 227.343 Q1577.82 226.898 1578.41 226.571 Q1578.99 226.243 1579.79 226.196 Q1579.62 226.032 1579.58 226.008 Q1579.23 225.727 1578.57 225.634 Q1578.48 225.587 1578.15 225.587 Q1576.53 225.587 1574.89 226.781 Q1573.28 227.952 1571.29 230.178 Q1568.78 232.777 1567.16 233.738 Q1574.26 234.675 1574.26 238.774 Q1574.26 239.453 1574.07 240.273 Q1573.7 241.819 1573.7 242.943 Q1573.7 245.191 1575.22 245.191 Q1576.7 245.191 1577.63 243.692 Q1578.59 242.193 1579.39 239.265 Q1579.51 238.727 1579.62 238.563 Q1579.74 238.399 1580.07 238.399 Q1580.65 238.399 1580.65 238.867 Q1580.12 241.608 1578.92 243.716 Q1577.4 246.269 1575.13 246.269 Q1573.23 246.269 1571.97 244.957 Q1570.72 243.622 1570.72 241.514 Q1570.72 240.999 1570.91 239.828 Q1571.05 239.359 1571.05 238.82 Q1571.05 237.72 1570.44 236.9 Q1569.83 236.057 1568.85 235.635 Q1567.87 235.213 1567.05 235.026 Q1566.25 234.815 1565.48 234.745 Q1563.13 244.653 1562.81 245.262 Q1562.6 245.683 1562.13 245.964 Q1561.66 246.269 1561.17 246.269 Q1560.7 246.269 1560.23 245.941 Q1559.79 245.636 1559.79 244.91 Q1559.79 244.536 1559.97 243.856 L1566.93 216.218 L1567.07 215.281 Q1567.07 215 1566.95 214.859 Q1566.86 214.695 1566.3 214.578 Q1565.76 214.461 1564.68 214.461 Q1564.24 214.461 1564.02 214.438 Q1563.84 214.414 1563.67 214.297 Q1563.51 214.157 1563.51 213.876 Q1563.51 213.477 1563.67 213.267 Q1563.86 213.032 1564 212.985 Q1564.14 212.939 1564.42 212.915 Q1564.82 212.892 1566.16 212.775 Q1567.49 212.634 1568.64 212.54 Q1569.79 212.447 1570.28 212.447 Q1570.56 212.447 1570.7 212.587 Q1570.86 212.704 1570.89 212.845 L1570.91 212.962 L1565.92 233.199 Q1567.98 232.379 1571.24 228.749 Q1575.01 224.533 1578.24 224.533 Q1579.76 224.533 1580.63 225.47 Q1581.5 226.383 1581.5 227.554 Z" fill="#000000" fill-rule="nonzero" fill-opacity="1" /><path clip-path="url(#clip890)" d="M1584.54 230.846 L1597.02 230.846 L1597.02 234.642 L1584.54 234.642 L1584.54 230.846 Z" fill="#000000" fill-rule="nonzero" fill-opacity="1" /><path clip-path="url(#clip890)" d="M1603.98 211.17 L1610.28 211.17 L1625.6 240.082 L1625.6 211.17 L1630.14 211.17 L1630.14 245.73 L1623.84 245.73 L1608.52 216.818 L1608.52 245.73 L1603.98 245.73 L1603.98 211.17 Z" fill="#000000" fill-rule="nonzero" fill-opacity="1" /><path clip-path="url(#clip890)" d="M1639.45 211.17 L1645.74 211.17 L1661.07 240.082 L1661.07 211.17 L1665.6 211.17 L1665.6 245.73 L1659.31 245.73 L1643.98 216.818 L1643.98 245.73 L1639.45 245.73 L1639.45 211.17 Z" fill="#000000" fill-rule="nonzero" fill-opacity="1" /></svg>
