<?xml version="1.0" encoding="utf-8"?>
<svg xmlns="http://www.w3.org/2000/svg" xmlns:xlink="http://www.w3.org/1999/xlink" width="300" height="250" viewBox="0 0 1200 1000">
<defs>
  <clipPath id="clip810">
    <rect x="0" y="0" width="1200" height="1000"/>
  </clipPath>
</defs>
<path clip-path="url(#clip810)" d="M0 1000 L1200 1000 L1200 0 L0 0  Z" fill="#ffffff" fill-rule="evenodd" fill-opacity="1"/>
<defs>
  <clipPath id="clip811">
    <rect x="240" y="0" width="841" height="841"/>
  </clipPath>
</defs>
<defs>
  <clipPath id="clip812">
    <rect x="131" y="437" width="569" height="458"/>
  </clipPath>
</defs>
<path clip-path="url(#clip810)" d="M235.494 777.558 L1137.01 777.558 L1137.01 62.9921 L235.494 62.9921  Z" fill="#ffffff" fill-rule="evenodd" fill-opacity="1"/>
<defs>
  <clipPath id="clip813">
    <rect x="235" y="62" width="903" height="716"/>
  </clipPath>
</defs>
<polyline clip-path="url(#clip813)" style="stroke:#000000; stroke-linecap:round; stroke-linejoin:round; stroke-width:2; stroke-opacity:0.1; fill:none" points="261.009,777.558 261.009,62.9921 "/>
<polyline clip-path="url(#clip813)" style="stroke:#000000; stroke-linecap:round; stroke-linejoin:round; stroke-width:2; stroke-opacity:0.1; fill:none" points="473.63,777.558 473.63,62.9921 "/>
<polyline clip-path="url(#clip813)" style="stroke:#000000; stroke-linecap:round; stroke-linejoin:round; stroke-width:2; stroke-opacity:0.1; fill:none" points="686.251,777.558 686.251,62.9921 "/>
<polyline clip-path="url(#clip813)" style="stroke:#000000; stroke-linecap:round; stroke-linejoin:round; stroke-width:2; stroke-opacity:0.1; fill:none" points="898.872,777.558 898.872,62.9921 "/>
<polyline clip-path="url(#clip813)" style="stroke:#000000; stroke-linecap:round; stroke-linejoin:round; stroke-width:2; stroke-opacity:0.1; fill:none" points="1111.49,777.558 1111.49,62.9921 "/>
<polyline clip-path="url(#clip810)" style="stroke:#000000; stroke-linecap:round; stroke-linejoin:round; stroke-width:4; stroke-opacity:1; fill:none" points="235.494,777.558 1137.01,777.558 "/>
<polyline clip-path="url(#clip810)" style="stroke:#000000; stroke-linecap:round; stroke-linejoin:round; stroke-width:4; stroke-opacity:1; fill:none" points="261.009,777.558 261.009,758.66 "/>
<polyline clip-path="url(#clip810)" style="stroke:#000000; stroke-linecap:round; stroke-linejoin:round; stroke-width:4; stroke-opacity:1; fill:none" points="473.63,777.558 473.63,758.66 "/>
<polyline clip-path="url(#clip810)" style="stroke:#000000; stroke-linecap:round; stroke-linejoin:round; stroke-width:4; stroke-opacity:1; fill:none" points="686.251,777.558 686.251,758.66 "/>
<polyline clip-path="url(#clip810)" style="stroke:#000000; stroke-linecap:round; stroke-linejoin:round; stroke-width:4; stroke-opacity:1; fill:none" points="898.872,777.558 898.872,758.66 "/>
<polyline clip-path="url(#clip810)" style="stroke:#000000; stroke-linecap:round; stroke-linejoin:round; stroke-width:4; stroke-opacity:1; fill:none" points="1111.49,777.558 1111.49,758.66 "/>
<path clip-path="url(#clip810)" d="M211.275 842.083 L218.913 842.083 L218.913 815.717 L210.603 817.384 L210.603 813.124 L218.867 811.458 L223.543 811.458 L223.543 842.083 L231.182 842.083 L231.182 846.018 L211.275 846.018 L211.275 842.083 Z" fill="#000000" fill-rule="nonzero" fill-opacity="1" /><path clip-path="url(#clip810)" d="M250.626 814.536 Q247.015 814.536 245.186 818.101 Q243.381 821.643 243.381 828.773 Q243.381 835.879 245.186 839.444 Q247.015 842.985 250.626 842.985 Q254.26 842.985 256.066 839.444 Q257.895 835.879 257.895 828.773 Q257.895 821.643 256.066 818.101 Q254.26 814.536 250.626 814.536 M250.626 810.833 Q256.436 810.833 259.492 815.439 Q262.571 820.023 262.571 828.773 Q262.571 837.499 259.492 842.106 Q256.436 846.689 250.626 846.689 Q244.816 846.689 241.737 842.106 Q238.682 837.499 238.682 828.773 Q238.682 820.023 241.737 815.439 Q244.816 810.833 250.626 810.833 Z" fill="#000000" fill-rule="nonzero" fill-opacity="1" /><path clip-path="url(#clip810)" d="M262.571 804.934 L286.682 804.934 L286.682 808.131 L262.571 808.131 L262.571 804.934 Z" fill="#000000" fill-rule="nonzero" fill-opacity="1" /><path clip-path="url(#clip810)" d="M298.155 815.41 L311.414 815.41 L311.414 818.607 L293.585 818.607 L293.585 815.41 Q295.748 813.172 299.471 809.41 Q303.214 805.63 304.173 804.539 Q305.998 802.489 306.712 801.079 Q307.446 799.649 307.446 798.276 Q307.446 796.038 305.866 794.628 Q304.305 793.217 301.785 793.217 Q299.998 793.217 298.004 793.838 Q296.03 794.458 293.773 795.718 L293.773 791.882 Q296.067 790.96 298.061 790.49 Q300.054 790.02 301.71 790.02 Q306.073 790.02 308.668 792.201 Q311.264 794.383 311.264 798.032 Q311.264 799.762 310.606 801.323 Q309.966 802.865 308.255 804.972 Q307.784 805.517 305.264 808.131 Q302.744 810.727 298.155 815.41 Z" fill="#000000" fill-rule="nonzero" fill-opacity="1" /><path clip-path="url(#clip810)" d="M423.745 842.083 L431.384 842.083 L431.384 815.717 L423.074 817.384 L423.074 813.124 L431.338 811.458 L436.014 811.458 L436.014 842.083 L443.653 842.083 L443.653 846.018 L423.745 846.018 L423.745 842.083 Z" fill="#000000" fill-rule="nonzero" fill-opacity="1" /><path clip-path="url(#clip810)" d="M463.097 814.536 Q459.486 814.536 457.657 818.101 Q455.852 821.643 455.852 828.773 Q455.852 835.879 457.657 839.444 Q459.486 842.985 463.097 842.985 Q466.731 842.985 468.537 839.444 Q470.365 835.879 470.365 828.773 Q470.365 821.643 468.537 818.101 Q466.731 814.536 463.097 814.536 M463.097 810.833 Q468.907 810.833 471.963 815.439 Q475.041 820.023 475.041 828.773 Q475.041 837.499 471.963 842.106 Q468.907 846.689 463.097 846.689 Q457.287 846.689 454.208 842.106 Q451.153 837.499 451.153 828.773 Q451.153 820.023 454.208 815.439 Q457.287 810.833 463.097 810.833 Z" fill="#000000" fill-rule="nonzero" fill-opacity="1" /><path clip-path="url(#clip810)" d="M475.041 804.934 L499.153 804.934 L499.153 808.131 L475.041 808.131 L475.041 804.934 Z" fill="#000000" fill-rule="nonzero" fill-opacity="1" /><path clip-path="url(#clip810)" d="M508.011 815.41 L514.218 815.41 L514.218 793.988 L507.466 795.342 L507.466 791.882 L514.18 790.527 L517.979 790.527 L517.979 815.41 L524.186 815.41 L524.186 818.607 L508.011 818.607 L508.011 815.41 Z" fill="#000000" fill-rule="nonzero" fill-opacity="1" /><path clip-path="url(#clip810)" d="M651.234 842.083 L658.873 842.083 L658.873 815.717 L650.563 817.384 L650.563 813.124 L658.826 811.458 L663.502 811.458 L663.502 842.083 L671.141 842.083 L671.141 846.018 L651.234 846.018 L651.234 842.083 Z" fill="#000000" fill-rule="nonzero" fill-opacity="1" /><path clip-path="url(#clip810)" d="M690.586 814.536 Q686.974 814.536 685.146 818.101 Q683.34 821.643 683.34 828.773 Q683.34 835.879 685.146 839.444 Q686.974 842.985 690.586 842.985 Q694.22 842.985 696.025 839.444 Q697.854 835.879 697.854 828.773 Q697.854 821.643 696.025 818.101 Q694.22 814.536 690.586 814.536 M690.586 810.833 Q696.396 810.833 699.451 815.439 Q702.53 820.023 702.53 828.773 Q702.53 837.499 699.451 842.106 Q696.396 846.689 690.586 846.689 Q684.775 846.689 681.697 842.106 Q678.641 837.499 678.641 828.773 Q678.641 820.023 681.697 815.439 Q684.775 810.833 690.586 810.833 Z" fill="#000000" fill-rule="nonzero" fill-opacity="1" /><path clip-path="url(#clip810)" d="M712.235 793.029 Q709.301 793.029 707.815 795.925 Q706.348 798.803 706.348 804.596 Q706.348 810.37 707.815 813.266 Q709.301 816.144 712.235 816.144 Q715.188 816.144 716.655 813.266 Q718.14 810.37 718.14 804.596 Q718.14 798.803 716.655 795.925 Q715.188 793.029 712.235 793.029 M712.235 790.02 Q716.955 790.02 719.438 793.762 Q721.94 797.486 721.94 804.596 Q721.94 811.686 719.438 815.429 Q716.955 819.153 712.235 819.153 Q707.514 819.153 705.013 815.429 Q702.53 811.686 702.53 804.596 Q702.53 797.486 705.013 793.762 Q707.514 790.02 712.235 790.02 Z" fill="#000000" fill-rule="nonzero" fill-opacity="1" /><path clip-path="url(#clip810)" d="M865.2 842.083 L872.839 842.083 L872.839 815.717 L864.529 817.384 L864.529 813.124 L872.792 811.458 L877.468 811.458 L877.468 842.083 L885.107 842.083 L885.107 846.018 L865.2 846.018 L865.2 842.083 Z" fill="#000000" fill-rule="nonzero" fill-opacity="1" /><path clip-path="url(#clip810)" d="M904.551 814.536 Q900.94 814.536 899.112 818.101 Q897.306 821.643 897.306 828.773 Q897.306 835.879 899.112 839.444 Q900.94 842.985 904.551 842.985 Q908.186 842.985 909.991 839.444 Q911.82 835.879 911.82 828.773 Q911.82 821.643 909.991 818.101 Q908.186 814.536 904.551 814.536 M904.551 810.833 Q910.362 810.833 913.417 815.439 Q916.496 820.023 916.496 828.773 Q916.496 837.499 913.417 842.106 Q910.362 846.689 904.551 846.689 Q898.741 846.689 895.663 842.106 Q892.607 837.499 892.607 828.773 Q892.607 820.023 895.663 815.439 Q898.741 810.833 904.551 810.833 Z" fill="#000000" fill-rule="nonzero" fill-opacity="1" /><path clip-path="url(#clip810)" d="M917.041 815.41 L923.248 815.41 L923.248 793.988 L916.496 795.342 L916.496 791.882 L923.21 790.527 L927.009 790.527 L927.009 815.41 L933.216 815.41 L933.216 818.607 L917.041 818.607 L917.041 815.41 Z" fill="#000000" fill-rule="nonzero" fill-opacity="1" /><path clip-path="url(#clip810)" d="M1077.27 842.083 L1084.9 842.083 L1084.9 815.717 L1076.59 817.384 L1076.59 813.124 L1084.86 811.458 L1089.53 811.458 L1089.53 842.083 L1097.17 842.083 L1097.17 846.018 L1077.27 846.018 L1077.27 842.083 Z" fill="#000000" fill-rule="nonzero" fill-opacity="1" /><path clip-path="url(#clip810)" d="M1116.62 814.536 Q1113.01 814.536 1111.18 818.101 Q1109.37 821.643 1109.37 828.773 Q1109.37 835.879 1111.18 839.444 Q1113.01 842.985 1116.62 842.985 Q1120.25 842.985 1122.06 839.444 Q1123.89 835.879 1123.89 828.773 Q1123.89 821.643 1122.06 818.101 Q1120.25 814.536 1116.62 814.536 M1116.62 810.833 Q1122.43 810.833 1125.48 815.439 Q1128.56 820.023 1128.56 828.773 Q1128.56 837.499 1125.48 842.106 Q1122.43 846.689 1116.62 846.689 Q1110.81 846.689 1107.73 842.106 Q1104.67 837.499 1104.67 828.773 Q1104.67 820.023 1107.73 815.439 Q1110.81 810.833 1116.62 810.833 Z" fill="#000000" fill-rule="nonzero" fill-opacity="1" /><path clip-path="url(#clip810)" d="M1133.13 815.41 L1146.39 815.41 L1146.39 818.607 L1128.56 818.607 L1128.56 815.41 Q1130.73 813.172 1134.45 809.41 Q1138.19 805.63 1139.15 804.539 Q1140.98 802.489 1141.69 801.079 Q1142.42 799.649 1142.42 798.276 Q1142.42 796.038 1140.84 794.628 Q1139.28 793.217 1136.76 793.217 Q1134.98 793.217 1132.98 793.838 Q1131.01 794.458 1128.75 795.718 L1128.75 791.882 Q1131.04 790.96 1133.04 790.49 Q1135.03 790.02 1136.69 790.02 Q1141.05 790.02 1143.65 792.201 Q1146.24 794.383 1146.24 798.032 Q1146.24 799.762 1145.58 801.323 Q1144.94 802.865 1143.23 804.972 Q1142.76 805.517 1140.24 808.131 Q1137.72 810.727 1133.13 815.41 Z" fill="#000000" fill-rule="nonzero" fill-opacity="1" /><path clip-path="url(#clip810)" d="M697.638 882.298 Q697.638 882.974 697.058 883.522 Q696.51 884.069 695.834 884.069 Q695.448 884.069 694.514 883.425 Q691.84 881.557 688.459 881.557 Q685.432 881.557 682.63 882.298 Q679.828 883.038 677.928 884.552 Q676.06 886.034 676.06 887.966 Q676.06 890.381 678.7 891.798 Q681.438 890.542 684.82 890.542 Q685.915 890.542 686.655 890.607 Q687.428 890.671 688.169 890.832 Q688.91 890.993 689.264 891.38 Q689.65 891.734 689.65 892.314 Q689.65 894.375 684.304 894.375 Q680.826 894.375 678.636 893.441 Q675.834 894.826 674.288 897.048 Q672.742 899.27 672.742 901.17 Q672.742 902.813 673.644 904.004 Q674.578 905.196 676.092 905.776 Q677.638 906.355 679.151 906.613 Q680.697 906.839 682.404 906.839 Q685.206 906.839 687.171 906.484 Q689.167 906.098 690.262 905.389 Q691.39 904.681 691.84 904.198 Q692.324 903.682 692.807 902.877 Q693.097 902.426 693.483 902.426 Q693.773 902.426 693.966 902.62 Q694.192 902.781 694.192 903.07 Q694.192 903.425 693.741 904.165 Q693.322 904.906 692.291 905.905 Q691.293 906.871 689.908 907.773 Q688.555 908.642 686.398 909.254 Q684.24 909.866 681.792 909.866 Q676.8 909.866 673.902 907.418 Q671.036 904.971 671.036 901.557 Q671.036 899.174 672.614 896.726 Q674.224 894.246 677.058 892.668 Q674.417 890.703 674.417 887.966 Q674.417 885.518 676.478 883.328 Q678.572 881.138 681.953 879.85 Q685.367 878.53 689.103 878.53 Q691.196 878.53 693.258 879.238 Q695.319 879.914 696.478 880.784 Q697.638 881.654 697.638 882.298 M687.944 892.378 Q686.527 891.992 684.82 891.992 Q682.501 891.992 680.794 892.571 Q682.179 892.926 684.304 892.926 Q686.076 892.926 686.591 892.829 Q687.138 892.732 687.944 892.378 Z" fill="#000000" fill-rule="nonzero" fill-opacity="1" /><polyline clip-path="url(#clip813)" style="stroke:#000000; stroke-linecap:round; stroke-linejoin:round; stroke-width:2; stroke-opacity:0.1; fill:none" points="235.494,777.558 1137.01,777.558 "/>
<polyline clip-path="url(#clip813)" style="stroke:#000000; stroke-linecap:round; stroke-linejoin:round; stroke-width:2; stroke-opacity:0.1; fill:none" points="235.494,634.645 1137.01,634.645 "/>
<polyline clip-path="url(#clip813)" style="stroke:#000000; stroke-linecap:round; stroke-linejoin:round; stroke-width:2; stroke-opacity:0.1; fill:none" points="235.494,491.732 1137.01,491.732 "/>
<polyline clip-path="url(#clip813)" style="stroke:#000000; stroke-linecap:round; stroke-linejoin:round; stroke-width:2; stroke-opacity:0.1; fill:none" points="235.494,348.818 1137.01,348.818 "/>
<polyline clip-path="url(#clip813)" style="stroke:#000000; stroke-linecap:round; stroke-linejoin:round; stroke-width:2; stroke-opacity:0.1; fill:none" points="235.494,205.905 1137.01,205.905 "/>
<polyline clip-path="url(#clip813)" style="stroke:#000000; stroke-linecap:round; stroke-linejoin:round; stroke-width:2; stroke-opacity:0.1; fill:none" points="235.494,62.9921 1137.01,62.9921 "/>
<polyline clip-path="url(#clip810)" style="stroke:#000000; stroke-linecap:round; stroke-linejoin:round; stroke-width:4; stroke-opacity:1; fill:none" points="235.494,777.558 235.494,62.9921 "/>
<polyline clip-path="url(#clip810)" style="stroke:#000000; stroke-linecap:round; stroke-linejoin:round; stroke-width:4; stroke-opacity:1; fill:none" points="235.494,777.558 254.392,777.558 "/>
<polyline clip-path="url(#clip810)" style="stroke:#000000; stroke-linecap:round; stroke-linejoin:round; stroke-width:4; stroke-opacity:1; fill:none" points="235.494,634.645 254.392,634.645 "/>
<polyline clip-path="url(#clip810)" style="stroke:#000000; stroke-linecap:round; stroke-linejoin:round; stroke-width:4; stroke-opacity:1; fill:none" points="235.494,491.732 254.392,491.732 "/>
<polyline clip-path="url(#clip810)" style="stroke:#000000; stroke-linecap:round; stroke-linejoin:round; stroke-width:4; stroke-opacity:1; fill:none" points="235.494,348.818 254.392,348.818 "/>
<polyline clip-path="url(#clip810)" style="stroke:#000000; stroke-linecap:round; stroke-linejoin:round; stroke-width:4; stroke-opacity:1; fill:none" points="235.494,205.905 254.392,205.905 "/>
<polyline clip-path="url(#clip810)" style="stroke:#000000; stroke-linecap:round; stroke-linejoin:round; stroke-width:4; stroke-opacity:1; fill:none" points="235.494,62.9921 254.392,62.9921 "/>
<path clip-path="url(#clip810)" d="M160.319 763.356 Q156.708 763.356 154.879 766.921 Q153.073 770.463 153.073 777.593 Q153.073 784.699 154.879 788.264 Q156.708 791.805 160.319 791.805 Q163.953 791.805 165.758 788.264 Q167.587 784.699 167.587 777.593 Q167.587 770.463 165.758 766.921 Q163.953 763.356 160.319 763.356 M160.319 759.653 Q166.129 759.653 169.184 764.259 Q172.263 768.843 172.263 777.593 Q172.263 786.319 169.184 790.926 Q166.129 795.509 160.319 795.509 Q154.509 795.509 151.43 790.926 Q148.374 786.319 148.374 777.593 Q148.374 768.843 151.43 764.259 Q154.509 759.653 160.319 759.653 Z" fill="#000000" fill-rule="nonzero" fill-opacity="1" /><path clip-path="url(#clip810)" d="M180.481 788.958 L185.365 788.958 L185.365 794.838 L180.481 794.838 L180.481 788.958 Z" fill="#000000" fill-rule="nonzero" fill-opacity="1" /><path clip-path="url(#clip810)" d="M205.55 763.356 Q201.939 763.356 200.11 766.921 Q198.305 770.463 198.305 777.593 Q198.305 784.699 200.11 788.264 Q201.939 791.805 205.55 791.805 Q209.184 791.805 210.99 788.264 Q212.818 784.699 212.818 777.593 Q212.818 770.463 210.99 766.921 Q209.184 763.356 205.55 763.356 M205.55 759.653 Q211.36 759.653 214.416 764.259 Q217.494 768.843 217.494 777.593 Q217.494 786.319 214.416 790.926 Q211.36 795.509 205.55 795.509 Q199.74 795.509 196.661 790.926 Q193.606 786.319 193.606 777.593 Q193.606 768.843 196.661 764.259 Q199.74 759.653 205.55 759.653 Z" fill="#000000" fill-rule="nonzero" fill-opacity="1" /><path clip-path="url(#clip810)" d="M161.916 620.443 Q158.305 620.443 156.476 624.008 Q154.671 627.55 154.671 634.679 Q154.671 641.786 156.476 645.351 Q158.305 648.892 161.916 648.892 Q165.55 648.892 167.356 645.351 Q169.184 641.786 169.184 634.679 Q169.184 627.55 167.356 624.008 Q165.55 620.443 161.916 620.443 M161.916 616.74 Q167.726 616.74 170.782 621.346 Q173.86 625.929 173.86 634.679 Q173.86 643.406 170.782 648.013 Q167.726 652.596 161.916 652.596 Q156.106 652.596 153.027 648.013 Q149.972 643.406 149.972 634.679 Q149.972 625.929 153.027 621.346 Q156.106 616.74 161.916 616.74 Z" fill="#000000" fill-rule="nonzero" fill-opacity="1" /><path clip-path="url(#clip810)" d="M182.078 646.045 L186.962 646.045 L186.962 651.925 L182.078 651.925 L182.078 646.045 Z" fill="#000000" fill-rule="nonzero" fill-opacity="1" /><path clip-path="url(#clip810)" d="M201.175 647.99 L217.494 647.99 L217.494 651.925 L195.55 651.925 L195.55 647.99 Q198.212 645.235 202.795 640.605 Q207.402 635.953 208.582 634.61 Q210.828 632.087 211.707 630.351 Q212.61 628.591 212.61 626.902 Q212.61 624.147 210.666 622.411 Q208.744 620.675 205.643 620.675 Q203.443 620.675 200.99 621.439 Q198.559 622.203 195.781 623.754 L195.781 619.031 Q198.606 617.897 201.059 617.318 Q203.513 616.74 205.55 616.74 Q210.92 616.74 214.115 619.425 Q217.309 622.11 217.309 626.601 Q217.309 628.73 216.499 630.652 Q215.712 632.55 213.605 635.142 Q213.027 635.814 209.925 639.031 Q206.823 642.226 201.175 647.99 Z" fill="#000000" fill-rule="nonzero" fill-opacity="1" /><path clip-path="url(#clip810)" d="M159.833 477.53 Q156.221 477.53 154.393 481.095 Q152.587 484.637 152.587 491.766 Q152.587 498.873 154.393 502.437 Q156.221 505.979 159.833 505.979 Q163.467 505.979 165.272 502.437 Q167.101 498.873 167.101 491.766 Q167.101 484.637 165.272 481.095 Q163.467 477.53 159.833 477.53 M159.833 473.827 Q165.643 473.827 168.698 478.433 Q171.777 483.016 171.777 491.766 Q171.777 500.493 168.698 505.1 Q165.643 509.683 159.833 509.683 Q154.022 509.683 150.944 505.1 Q147.888 500.493 147.888 491.766 Q147.888 483.016 150.944 478.433 Q154.022 473.827 159.833 473.827 Z" fill="#000000" fill-rule="nonzero" fill-opacity="1" /><path clip-path="url(#clip810)" d="M179.994 503.132 L184.879 503.132 L184.879 509.012 L179.994 509.012 L179.994 503.132 Z" fill="#000000" fill-rule="nonzero" fill-opacity="1" /><path clip-path="url(#clip810)" d="M207.911 478.526 L196.106 496.975 L207.911 496.975 L207.911 478.526 M206.684 474.452 L212.564 474.452 L212.564 496.975 L217.494 496.975 L217.494 500.863 L212.564 500.863 L212.564 509.012 L207.911 509.012 L207.911 500.863 L192.309 500.863 L192.309 496.35 L206.684 474.452 Z" fill="#000000" fill-rule="nonzero" fill-opacity="1" /><path clip-path="url(#clip810)" d="M160.157 334.617 Q156.546 334.617 154.717 338.182 Q152.911 341.724 152.911 348.853 Q152.911 355.96 154.717 359.524 Q156.546 363.066 160.157 363.066 Q163.791 363.066 165.596 359.524 Q167.425 355.96 167.425 348.853 Q167.425 341.724 165.596 338.182 Q163.791 334.617 160.157 334.617 M160.157 330.913 Q165.967 330.913 169.022 335.52 Q172.101 340.103 172.101 348.853 Q172.101 357.58 169.022 362.186 Q165.967 366.77 160.157 366.77 Q154.346 366.77 151.268 362.186 Q148.212 357.58 148.212 348.853 Q148.212 340.103 151.268 335.52 Q154.346 330.913 160.157 330.913 Z" fill="#000000" fill-rule="nonzero" fill-opacity="1" /><path clip-path="url(#clip810)" d="M180.319 360.219 L185.203 360.219 L185.203 366.098 L180.319 366.098 L180.319 360.219 Z" fill="#000000" fill-rule="nonzero" fill-opacity="1" /><path clip-path="url(#clip810)" d="M205.967 346.955 Q202.818 346.955 200.967 349.108 Q199.138 351.261 199.138 355.01 Q199.138 358.737 200.967 360.913 Q202.818 363.066 205.967 363.066 Q209.115 363.066 210.943 360.913 Q212.795 358.737 212.795 355.01 Q212.795 351.261 210.943 349.108 Q209.115 346.955 205.967 346.955 M215.249 332.302 L215.249 336.562 Q213.49 335.728 211.684 335.288 Q209.902 334.849 208.142 334.849 Q203.513 334.849 201.059 337.974 Q198.629 341.099 198.281 347.418 Q199.647 345.404 201.707 344.339 Q203.768 343.251 206.244 343.251 Q211.453 343.251 214.462 346.423 Q217.494 349.571 217.494 355.01 Q217.494 360.335 214.346 363.552 Q211.198 366.77 205.967 366.77 Q199.971 366.77 196.8 362.186 Q193.629 357.58 193.629 348.853 Q193.629 340.659 197.518 335.798 Q201.406 330.913 207.957 330.913 Q209.717 330.913 211.499 331.261 Q213.305 331.608 215.249 332.302 Z" fill="#000000" fill-rule="nonzero" fill-opacity="1" /><path clip-path="url(#clip810)" d="M160.411 191.704 Q156.8 191.704 154.971 195.269 Q153.166 198.81 153.166 205.94 Q153.166 213.046 154.971 216.611 Q156.8 220.153 160.411 220.153 Q164.046 220.153 165.851 216.611 Q167.68 213.046 167.68 205.94 Q167.68 198.81 165.851 195.269 Q164.046 191.704 160.411 191.704 M160.411 188 Q166.221 188 169.277 192.607 Q172.356 197.19 172.356 205.94 Q172.356 214.667 169.277 219.273 Q166.221 223.857 160.411 223.857 Q154.601 223.857 151.522 219.273 Q148.467 214.667 148.467 205.94 Q148.467 197.19 151.522 192.607 Q154.601 188 160.411 188 Z" fill="#000000" fill-rule="nonzero" fill-opacity="1" /><path clip-path="url(#clip810)" d="M180.573 217.306 L185.457 217.306 L185.457 223.185 L180.573 223.185 L180.573 217.306 Z" fill="#000000" fill-rule="nonzero" fill-opacity="1" /><path clip-path="url(#clip810)" d="M205.643 206.773 Q202.309 206.773 200.388 208.556 Q198.49 210.338 198.49 213.463 Q198.49 216.588 200.388 218.37 Q202.309 220.153 205.643 220.153 Q208.976 220.153 210.897 218.37 Q212.818 216.565 212.818 213.463 Q212.818 210.338 210.897 208.556 Q208.999 206.773 205.643 206.773 M200.967 204.783 Q197.957 204.042 196.268 201.982 Q194.601 199.921 194.601 196.959 Q194.601 192.815 197.541 190.408 Q200.504 188 205.643 188 Q210.805 188 213.744 190.408 Q216.684 192.815 216.684 196.959 Q216.684 199.921 214.994 201.982 Q213.328 204.042 210.342 204.783 Q213.721 205.57 215.596 207.861 Q217.494 210.153 217.494 213.463 Q217.494 218.486 214.416 221.171 Q211.36 223.857 205.643 223.857 Q199.925 223.857 196.846 221.171 Q193.791 218.486 193.791 213.463 Q193.791 210.153 195.689 207.861 Q197.587 205.57 200.967 204.783 M199.254 197.398 Q199.254 200.084 200.92 201.588 Q202.61 203.093 205.643 203.093 Q208.652 203.093 210.342 201.588 Q212.055 200.084 212.055 197.398 Q212.055 194.713 210.342 193.209 Q208.652 191.704 205.643 191.704 Q202.61 191.704 200.92 193.209 Q199.254 194.713 199.254 197.398 Z" fill="#000000" fill-rule="nonzero" fill-opacity="1" /><path clip-path="url(#clip810)" d="M151.129 76.337 L158.768 76.337 L158.768 49.9714 L150.458 51.638 L150.458 47.3788 L158.721 45.7121 L163.397 45.7121 L163.397 76.337 L171.036 76.337 L171.036 80.2721 L151.129 80.2721 L151.129 76.337 Z" fill="#000000" fill-rule="nonzero" fill-opacity="1" /><path clip-path="url(#clip810)" d="M180.481 74.3925 L185.365 74.3925 L185.365 80.2721 L180.481 80.2721 L180.481 74.3925 Z" fill="#000000" fill-rule="nonzero" fill-opacity="1" /><path clip-path="url(#clip810)" d="M205.55 48.7908 Q201.939 48.7908 200.11 52.3556 Q198.305 55.8973 198.305 63.0268 Q198.305 70.1333 200.11 73.6981 Q201.939 77.2397 205.55 77.2397 Q209.184 77.2397 210.99 73.6981 Q212.818 70.1333 212.818 63.0268 Q212.818 55.8973 210.99 52.3556 Q209.184 48.7908 205.55 48.7908 M205.55 45.0871 Q211.36 45.0871 214.416 49.6936 Q217.494 54.2769 217.494 63.0268 Q217.494 71.7537 214.416 76.3601 Q211.36 80.9434 205.55 80.9434 Q199.74 80.9434 196.661 76.3601 Q193.606 71.7537 193.606 63.0268 Q193.606 54.2769 196.661 49.6936 Q199.74 45.0871 205.55 45.0871 Z" fill="#000000" fill-rule="nonzero" fill-opacity="1" /><path clip-path="url(#clip810)" d="M68.1122 475.991 L68.1122 467.333 L107.866 446.263 L68.1122 446.263 L68.1122 440.025 L115.632 440.025 L115.632 448.682 L75.8784 469.752 L115.632 469.752 L115.632 475.991 L68.1122 475.991 Z" fill="#000000" fill-rule="nonzero" fill-opacity="1" /><path clip-path="url(#clip810)" d="M68.1122 427.23 L68.1122 417.649 L100.45 405.522 L68.1122 393.332 L68.1122 383.752 L115.632 383.752 L115.632 390.022 L73.905 390.022 L106.497 402.276 L106.497 408.737 L73.905 420.991 L115.632 420.991 L115.632 427.23 L68.1122 427.23 Z" fill="#000000" fill-rule="nonzero" fill-opacity="1" /><path clip-path="url(#clip810)" d="M68.1122 370.988 L68.1122 364.559 L115.632 364.559 L115.632 370.988 L68.1122 370.988 Z" fill="#000000" fill-rule="nonzero" fill-opacity="1" /><polyline clip-path="url(#clip813)" style="stroke:#e31a1c; stroke-linecap:round; stroke-linejoin:round; stroke-width:4; stroke-opacity:1; fill:none" points="261.009,718.338 278.366,716.904 295.722,721.438 313.079,742.525 330.436,723.936 347.793,747.246 365.15,755.764 382.507,761.487 399.863,763.041 417.22,759.573 434.577,766.558 451.934,766.558 469.291,770.148 486.648,256.984 504.004,256.984 521.361,279.759 538.718,272.99 556.075,235.293 573.432,228.005 590.789,205.686 608.145,180.302 625.502,165.279 642.859,159.418 660.216,152.12 677.573,145.99 694.929,139.508 712.286,128.97 729.643,121.58 747,122.652 764.357,119.994 781.714,119.994 799.07,119.994 816.427,119.994 833.784,127.758 851.141,122.652 868.498,138.106 885.855,141.103 903.211,149.055 920.568,151 937.925,157.84 955.282,164.271 972.639,173.946 989.996,181.529 1007.35,193.479 1024.71,199.342 1042.07,221.343 1059.42,246.299 1076.78,258.417 1094.14,270.621 1111.49,286.872 "/>
<circle clip-path="url(#clip813)" cx="261.009" cy="718.338" r="9" fill="#e31a1c" fill-rule="evenodd" fill-opacity="1" stroke="none"/>
<circle clip-path="url(#clip813)" cx="278.366" cy="716.904" r="9" fill="#e31a1c" fill-rule="evenodd" fill-opacity="1" stroke="none"/>
<circle clip-path="url(#clip813)" cx="295.722" cy="721.438" r="9" fill="#e31a1c" fill-rule="evenodd" fill-opacity="1" stroke="none"/>
<circle clip-path="url(#clip813)" cx="313.079" cy="742.525" r="9" fill="#e31a1c" fill-rule="evenodd" fill-opacity="1" stroke="none"/>
<circle clip-path="url(#clip813)" cx="330.436" cy="723.936" r="9" fill="#e31a1c" fill-rule="evenodd" fill-opacity="1" stroke="none"/>
<circle clip-path="url(#clip813)" cx="347.793" cy="747.246" r="9" fill="#e31a1c" fill-rule="evenodd" fill-opacity="1" stroke="none"/>
<circle clip-path="url(#clip813)" cx="365.15" cy="755.764" r="9" fill="#e31a1c" fill-rule="evenodd" fill-opacity="1" stroke="none"/>
<circle clip-path="url(#clip813)" cx="382.507" cy="761.487" r="9" fill="#e31a1c" fill-rule="evenodd" fill-opacity="1" stroke="none"/>
<circle clip-path="url(#clip813)" cx="399.863" cy="763.041" r="9" fill="#e31a1c" fill-rule="evenodd" fill-opacity="1" stroke="none"/>
<circle clip-path="url(#clip813)" cx="417.22" cy="759.573" r="9" fill="#e31a1c" fill-rule="evenodd" fill-opacity="1" stroke="none"/>
<circle clip-path="url(#clip813)" cx="434.577" cy="766.558" r="9" fill="#e31a1c" fill-rule="evenodd" fill-opacity="1" stroke="none"/>
<circle clip-path="url(#clip813)" cx="451.934" cy="766.558" r="9" fill="#e31a1c" fill-rule="evenodd" fill-opacity="1" stroke="none"/>
<circle clip-path="url(#clip813)" cx="469.291" cy="770.148" r="9" fill="#e31a1c" fill-rule="evenodd" fill-opacity="1" stroke="none"/>
<circle clip-path="url(#clip813)" cx="486.648" cy="256.984" r="9" fill="#e31a1c" fill-rule="evenodd" fill-opacity="1" stroke="none"/>
<circle clip-path="url(#clip813)" cx="504.004" cy="256.984" r="9" fill="#e31a1c" fill-rule="evenodd" fill-opacity="1" stroke="none"/>
<circle clip-path="url(#clip813)" cx="521.361" cy="279.759" r="9" fill="#e31a1c" fill-rule="evenodd" fill-opacity="1" stroke="none"/>
<circle clip-path="url(#clip813)" cx="538.718" cy="272.99" r="9" fill="#e31a1c" fill-rule="evenodd" fill-opacity="1" stroke="none"/>
<circle clip-path="url(#clip813)" cx="556.075" cy="235.293" r="9" fill="#e31a1c" fill-rule="evenodd" fill-opacity="1" stroke="none"/>
<circle clip-path="url(#clip813)" cx="573.432" cy="228.005" r="9" fill="#e31a1c" fill-rule="evenodd" fill-opacity="1" stroke="none"/>
<circle clip-path="url(#clip813)" cx="590.789" cy="205.686" r="9" fill="#e31a1c" fill-rule="evenodd" fill-opacity="1" stroke="none"/>
<circle clip-path="url(#clip813)" cx="608.145" cy="180.302" r="9" fill="#e31a1c" fill-rule="evenodd" fill-opacity="1" stroke="none"/>
<circle clip-path="url(#clip813)" cx="625.502" cy="165.279" r="9" fill="#e31a1c" fill-rule="evenodd" fill-opacity="1" stroke="none"/>
<circle clip-path="url(#clip813)" cx="642.859" cy="159.418" r="9" fill="#e31a1c" fill-rule="evenodd" fill-opacity="1" stroke="none"/>
<circle clip-path="url(#clip813)" cx="660.216" cy="152.12" r="9" fill="#e31a1c" fill-rule="evenodd" fill-opacity="1" stroke="none"/>
<circle clip-path="url(#clip813)" cx="677.573" cy="145.99" r="9" fill="#e31a1c" fill-rule="evenodd" fill-opacity="1" stroke="none"/>
<circle clip-path="url(#clip813)" cx="694.929" cy="139.508" r="9" fill="#e31a1c" fill-rule="evenodd" fill-opacity="1" stroke="none"/>
<circle clip-path="url(#clip813)" cx="712.286" cy="128.97" r="9" fill="#e31a1c" fill-rule="evenodd" fill-opacity="1" stroke="none"/>
<circle clip-path="url(#clip813)" cx="729.643" cy="121.58" r="9" fill="#e31a1c" fill-rule="evenodd" fill-opacity="1" stroke="none"/>
<circle clip-path="url(#clip813)" cx="747" cy="122.652" r="9" fill="#e31a1c" fill-rule="evenodd" fill-opacity="1" stroke="none"/>
<circle clip-path="url(#clip813)" cx="764.357" cy="119.994" r="9" fill="#e31a1c" fill-rule="evenodd" fill-opacity="1" stroke="none"/>
<circle clip-path="url(#clip813)" cx="781.714" cy="119.994" r="9" fill="#e31a1c" fill-rule="evenodd" fill-opacity="1" stroke="none"/>
<circle clip-path="url(#clip813)" cx="799.07" cy="119.994" r="9" fill="#e31a1c" fill-rule="evenodd" fill-opacity="1" stroke="none"/>
<circle clip-path="url(#clip813)" cx="816.427" cy="119.994" r="9" fill="#e31a1c" fill-rule="evenodd" fill-opacity="1" stroke="none"/>
<circle clip-path="url(#clip813)" cx="833.784" cy="127.758" r="9" fill="#e31a1c" fill-rule="evenodd" fill-opacity="1" stroke="none"/>
<circle clip-path="url(#clip813)" cx="851.141" cy="122.652" r="9" fill="#e31a1c" fill-rule="evenodd" fill-opacity="1" stroke="none"/>
<circle clip-path="url(#clip813)" cx="868.498" cy="138.106" r="9" fill="#e31a1c" fill-rule="evenodd" fill-opacity="1" stroke="none"/>
<circle clip-path="url(#clip813)" cx="885.855" cy="141.103" r="9" fill="#e31a1c" fill-rule="evenodd" fill-opacity="1" stroke="none"/>
<circle clip-path="url(#clip813)" cx="903.211" cy="149.055" r="9" fill="#e31a1c" fill-rule="evenodd" fill-opacity="1" stroke="none"/>
<circle clip-path="url(#clip813)" cx="920.568" cy="151" r="9" fill="#e31a1c" fill-rule="evenodd" fill-opacity="1" stroke="none"/>
<circle clip-path="url(#clip813)" cx="937.925" cy="157.84" r="9" fill="#e31a1c" fill-rule="evenodd" fill-opacity="1" stroke="none"/>
<circle clip-path="url(#clip813)" cx="955.282" cy="164.271" r="9" fill="#e31a1c" fill-rule="evenodd" fill-opacity="1" stroke="none"/>
<circle clip-path="url(#clip813)" cx="972.639" cy="173.946" r="9" fill="#e31a1c" fill-rule="evenodd" fill-opacity="1" stroke="none"/>
<circle clip-path="url(#clip813)" cx="989.996" cy="181.529" r="9" fill="#e31a1c" fill-rule="evenodd" fill-opacity="1" stroke="none"/>
<circle clip-path="url(#clip813)" cx="1007.35" cy="193.479" r="9" fill="#e31a1c" fill-rule="evenodd" fill-opacity="1" stroke="none"/>
<circle clip-path="url(#clip813)" cx="1024.71" cy="199.342" r="9" fill="#e31a1c" fill-rule="evenodd" fill-opacity="1" stroke="none"/>
<circle clip-path="url(#clip813)" cx="1042.07" cy="221.343" r="9" fill="#e31a1c" fill-rule="evenodd" fill-opacity="1" stroke="none"/>
<circle clip-path="url(#clip813)" cx="1059.42" cy="246.299" r="9" fill="#e31a1c" fill-rule="evenodd" fill-opacity="1" stroke="none"/>
<circle clip-path="url(#clip813)" cx="1076.78" cy="258.417" r="9" fill="#e31a1c" fill-rule="evenodd" fill-opacity="1" stroke="none"/>
<circle clip-path="url(#clip813)" cx="1094.14" cy="270.621" r="9" fill="#e31a1c" fill-rule="evenodd" fill-opacity="1" stroke="none"/>
<circle clip-path="url(#clip813)" cx="1111.49" cy="286.872" r="9" fill="#e31a1c" fill-rule="evenodd" fill-opacity="1" stroke="none"/>
<polyline clip-path="url(#clip813)" style="stroke:#377db8; stroke-linecap:round; stroke-linejoin:round; stroke-width:4; stroke-opacity:1; fill:none" points="261.009,770.148 278.366,770.148 295.722,770.148 313.079,770.148 330.436,770.148 347.793,770.148 365.15,763.024 382.507,770.148 399.863,761.275 417.22,759.538 434.577,390.295 451.934,373.225 469.291,367.275 486.648,392.03 504.004,273.765 521.361,286.831 538.718,285.804 556.075,275.552 573.432,276.946 590.789,285.721 608.145,299.974 625.502,295.637 642.859,296.997 660.216,306.852 677.573,310.229 694.929,310.229 712.286,315.327 729.643,315.327 747,317.157 764.357,317.157 781.714,318.96 799.07,318.96 816.427,321.695 833.784,325.328 851.141,325.328 868.498,325.328 885.855,325.328 903.211,325.328 920.568,325.328 937.925,326.653 955.282,325.328 972.639,325.328 989.996,326.653 1007.35,325.328 1024.71,326.653 1042.07,326.653 1059.42,326.653 1076.78,326.653 1094.14,326.653 1111.49,326.653 "/>
<circle clip-path="url(#clip813)" cx="261.009" cy="770.148" r="9" fill="#377db8" fill-rule="evenodd" fill-opacity="1" stroke="none"/>
<circle clip-path="url(#clip813)" cx="278.366" cy="770.148" r="9" fill="#377db8" fill-rule="evenodd" fill-opacity="1" stroke="none"/>
<circle clip-path="url(#clip813)" cx="295.722" cy="770.148" r="9" fill="#377db8" fill-rule="evenodd" fill-opacity="1" stroke="none"/>
<circle clip-path="url(#clip813)" cx="313.079" cy="770.148" r="9" fill="#377db8" fill-rule="evenodd" fill-opacity="1" stroke="none"/>
<circle clip-path="url(#clip813)" cx="330.436" cy="770.148" r="9" fill="#377db8" fill-rule="evenodd" fill-opacity="1" stroke="none"/>
<circle clip-path="url(#clip813)" cx="347.793" cy="770.148" r="9" fill="#377db8" fill-rule="evenodd" fill-opacity="1" stroke="none"/>
<circle clip-path="url(#clip813)" cx="365.15" cy="763.024" r="9" fill="#377db8" fill-rule="evenodd" fill-opacity="1" stroke="none"/>
<circle clip-path="url(#clip813)" cx="382.507" cy="770.148" r="9" fill="#377db8" fill-rule="evenodd" fill-opacity="1" stroke="none"/>
<circle clip-path="url(#clip813)" cx="399.863" cy="761.275" r="9" fill="#377db8" fill-rule="evenodd" fill-opacity="1" stroke="none"/>
<circle clip-path="url(#clip813)" cx="417.22" cy="759.538" r="9" fill="#377db8" fill-rule="evenodd" fill-opacity="1" stroke="none"/>
<circle clip-path="url(#clip813)" cx="434.577" cy="390.295" r="9" fill="#377db8" fill-rule="evenodd" fill-opacity="1" stroke="none"/>
<circle clip-path="url(#clip813)" cx="451.934" cy="373.225" r="9" fill="#377db8" fill-rule="evenodd" fill-opacity="1" stroke="none"/>
<circle clip-path="url(#clip813)" cx="469.291" cy="367.275" r="9" fill="#377db8" fill-rule="evenodd" fill-opacity="1" stroke="none"/>
<circle clip-path="url(#clip813)" cx="486.648" cy="392.03" r="9" fill="#377db8" fill-rule="evenodd" fill-opacity="1" stroke="none"/>
<circle clip-path="url(#clip813)" cx="504.004" cy="273.765" r="9" fill="#377db8" fill-rule="evenodd" fill-opacity="1" stroke="none"/>
<circle clip-path="url(#clip813)" cx="521.361" cy="286.831" r="9" fill="#377db8" fill-rule="evenodd" fill-opacity="1" stroke="none"/>
<circle clip-path="url(#clip813)" cx="538.718" cy="285.804" r="9" fill="#377db8" fill-rule="evenodd" fill-opacity="1" stroke="none"/>
<circle clip-path="url(#clip813)" cx="556.075" cy="275.552" r="9" fill="#377db8" fill-rule="evenodd" fill-opacity="1" stroke="none"/>
<circle clip-path="url(#clip813)" cx="573.432" cy="276.946" r="9" fill="#377db8" fill-rule="evenodd" fill-opacity="1" stroke="none"/>
<circle clip-path="url(#clip813)" cx="590.789" cy="285.721" r="9" fill="#377db8" fill-rule="evenodd" fill-opacity="1" stroke="none"/>
<circle clip-path="url(#clip813)" cx="608.145" cy="299.974" r="9" fill="#377db8" fill-rule="evenodd" fill-opacity="1" stroke="none"/>
<circle clip-path="url(#clip813)" cx="625.502" cy="295.637" r="9" fill="#377db8" fill-rule="evenodd" fill-opacity="1" stroke="none"/>
<circle clip-path="url(#clip813)" cx="642.859" cy="296.997" r="9" fill="#377db8" fill-rule="evenodd" fill-opacity="1" stroke="none"/>
<circle clip-path="url(#clip813)" cx="660.216" cy="306.852" r="9" fill="#377db8" fill-rule="evenodd" fill-opacity="1" stroke="none"/>
<circle clip-path="url(#clip813)" cx="677.573" cy="310.229" r="9" fill="#377db8" fill-rule="evenodd" fill-opacity="1" stroke="none"/>
<circle clip-path="url(#clip813)" cx="694.929" cy="310.229" r="9" fill="#377db8" fill-rule="evenodd" fill-opacity="1" stroke="none"/>
<circle clip-path="url(#clip813)" cx="712.286" cy="315.327" r="9" fill="#377db8" fill-rule="evenodd" fill-opacity="1" stroke="none"/>
<circle clip-path="url(#clip813)" cx="729.643" cy="315.327" r="9" fill="#377db8" fill-rule="evenodd" fill-opacity="1" stroke="none"/>
<circle clip-path="url(#clip813)" cx="747" cy="317.157" r="9" fill="#377db8" fill-rule="evenodd" fill-opacity="1" stroke="none"/>
<circle clip-path="url(#clip813)" cx="764.357" cy="317.157" r="9" fill="#377db8" fill-rule="evenodd" fill-opacity="1" stroke="none"/>
<circle clip-path="url(#clip813)" cx="781.714" cy="318.96" r="9" fill="#377db8" fill-rule="evenodd" fill-opacity="1" stroke="none"/>
<circle clip-path="url(#clip813)" cx="799.07" cy="318.96" r="9" fill="#377db8" fill-rule="evenodd" fill-opacity="1" stroke="none"/>
<circle clip-path="url(#clip813)" cx="816.427" cy="321.695" r="9" fill="#377db8" fill-rule="evenodd" fill-opacity="1" stroke="none"/>
<circle clip-path="url(#clip813)" cx="833.784" cy="325.328" r="9" fill="#377db8" fill-rule="evenodd" fill-opacity="1" stroke="none"/>
<circle clip-path="url(#clip813)" cx="851.141" cy="325.328" r="9" fill="#377db8" fill-rule="evenodd" fill-opacity="1" stroke="none"/>
<circle clip-path="url(#clip813)" cx="868.498" cy="325.328" r="9" fill="#377db8" fill-rule="evenodd" fill-opacity="1" stroke="none"/>
<circle clip-path="url(#clip813)" cx="885.855" cy="325.328" r="9" fill="#377db8" fill-rule="evenodd" fill-opacity="1" stroke="none"/>
<circle clip-path="url(#clip813)" cx="903.211" cy="325.328" r="9" fill="#377db8" fill-rule="evenodd" fill-opacity="1" stroke="none"/>
<circle clip-path="url(#clip813)" cx="920.568" cy="325.328" r="9" fill="#377db8" fill-rule="evenodd" fill-opacity="1" stroke="none"/>
<circle clip-path="url(#clip813)" cx="937.925" cy="326.653" r="9" fill="#377db8" fill-rule="evenodd" fill-opacity="1" stroke="none"/>
<circle clip-path="url(#clip813)" cx="955.282" cy="325.328" r="9" fill="#377db8" fill-rule="evenodd" fill-opacity="1" stroke="none"/>
<circle clip-path="url(#clip813)" cx="972.639" cy="325.328" r="9" fill="#377db8" fill-rule="evenodd" fill-opacity="1" stroke="none"/>
<circle clip-path="url(#clip813)" cx="989.996" cy="326.653" r="9" fill="#377db8" fill-rule="evenodd" fill-opacity="1" stroke="none"/>
<circle clip-path="url(#clip813)" cx="1007.35" cy="325.328" r="9" fill="#377db8" fill-rule="evenodd" fill-opacity="1" stroke="none"/>
<circle clip-path="url(#clip813)" cx="1024.71" cy="326.653" r="9" fill="#377db8" fill-rule="evenodd" fill-opacity="1" stroke="none"/>
<circle clip-path="url(#clip813)" cx="1042.07" cy="326.653" r="9" fill="#377db8" fill-rule="evenodd" fill-opacity="1" stroke="none"/>
<circle clip-path="url(#clip813)" cx="1059.42" cy="326.653" r="9" fill="#377db8" fill-rule="evenodd" fill-opacity="1" stroke="none"/>
<circle clip-path="url(#clip813)" cx="1076.78" cy="326.653" r="9" fill="#377db8" fill-rule="evenodd" fill-opacity="1" stroke="none"/>
<circle clip-path="url(#clip813)" cx="1094.14" cy="326.653" r="9" fill="#377db8" fill-rule="evenodd" fill-opacity="1" stroke="none"/>
<circle clip-path="url(#clip813)" cx="1111.49" cy="326.653" r="9" fill="#377db8" fill-rule="evenodd" fill-opacity="1" stroke="none"/>
<polyline clip-path="url(#clip813)" style="stroke:#ff7e00; stroke-linecap:round; stroke-linejoin:round; stroke-width:4; stroke-opacity:1; fill:none" points="261.009,773.807 278.366,773.807 295.722,771.966 313.079,776.091 330.436,777.22 347.793,777.051 365.15,777.236 382.507,777.373 399.863,776.932 417.22,776.618 434.577,776.557 451.934,776.584 469.291,777.039 486.648,776.803 504.004,777.082 521.361,771.988 538.718,768.218 556.075,765.09 573.432,759.172 590.789,759.107 608.145,759.411 625.502,759.875 642.859,760.28 660.216,758.053 677.573,757.496 694.929,756.664 712.286,753.758 729.643,754.482 747,752.267 764.357,753.029 781.714,753.03 799.07,751.633 816.427,751.612 833.784,751.653 851.141,751.653 868.498,751.653 885.855,751.789 903.211,751.849 920.568,751.819 937.925,751.268 955.282,751.268 972.639,751.268 989.996,751.22 1007.35,751.22 1024.71,751.22 1042.07,748.764 1059.42,751.322 1076.78,748.764 1094.14,748.764 1111.49,749.851 "/>
<circle clip-path="url(#clip813)" cx="261.009" cy="773.807" r="9" fill="#ff7e00" fill-rule="evenodd" fill-opacity="1" stroke="none"/>
<circle clip-path="url(#clip813)" cx="278.366" cy="773.807" r="9" fill="#ff7e00" fill-rule="evenodd" fill-opacity="1" stroke="none"/>
<circle clip-path="url(#clip813)" cx="295.722" cy="771.966" r="9" fill="#ff7e00" fill-rule="evenodd" fill-opacity="1" stroke="none"/>
<circle clip-path="url(#clip813)" cx="313.079" cy="776.091" r="9" fill="#ff7e00" fill-rule="evenodd" fill-opacity="1" stroke="none"/>
<circle clip-path="url(#clip813)" cx="330.436" cy="777.22" r="9" fill="#ff7e00" fill-rule="evenodd" fill-opacity="1" stroke="none"/>
<circle clip-path="url(#clip813)" cx="347.793" cy="777.051" r="9" fill="#ff7e00" fill-rule="evenodd" fill-opacity="1" stroke="none"/>
<circle clip-path="url(#clip813)" cx="365.15" cy="777.236" r="9" fill="#ff7e00" fill-rule="evenodd" fill-opacity="1" stroke="none"/>
<circle clip-path="url(#clip813)" cx="382.507" cy="777.373" r="9" fill="#ff7e00" fill-rule="evenodd" fill-opacity="1" stroke="none"/>
<circle clip-path="url(#clip813)" cx="399.863" cy="776.932" r="9" fill="#ff7e00" fill-rule="evenodd" fill-opacity="1" stroke="none"/>
<circle clip-path="url(#clip813)" cx="417.22" cy="776.618" r="9" fill="#ff7e00" fill-rule="evenodd" fill-opacity="1" stroke="none"/>
<circle clip-path="url(#clip813)" cx="434.577" cy="776.557" r="9" fill="#ff7e00" fill-rule="evenodd" fill-opacity="1" stroke="none"/>
<circle clip-path="url(#clip813)" cx="451.934" cy="776.584" r="9" fill="#ff7e00" fill-rule="evenodd" fill-opacity="1" stroke="none"/>
<circle clip-path="url(#clip813)" cx="469.291" cy="777.039" r="9" fill="#ff7e00" fill-rule="evenodd" fill-opacity="1" stroke="none"/>
<circle clip-path="url(#clip813)" cx="486.648" cy="776.803" r="9" fill="#ff7e00" fill-rule="evenodd" fill-opacity="1" stroke="none"/>
<circle clip-path="url(#clip813)" cx="504.004" cy="777.082" r="9" fill="#ff7e00" fill-rule="evenodd" fill-opacity="1" stroke="none"/>
<circle clip-path="url(#clip813)" cx="521.361" cy="771.988" r="9" fill="#ff7e00" fill-rule="evenodd" fill-opacity="1" stroke="none"/>
<circle clip-path="url(#clip813)" cx="538.718" cy="768.218" r="9" fill="#ff7e00" fill-rule="evenodd" fill-opacity="1" stroke="none"/>
<circle clip-path="url(#clip813)" cx="556.075" cy="765.09" r="9" fill="#ff7e00" fill-rule="evenodd" fill-opacity="1" stroke="none"/>
<circle clip-path="url(#clip813)" cx="573.432" cy="759.172" r="9" fill="#ff7e00" fill-rule="evenodd" fill-opacity="1" stroke="none"/>
<circle clip-path="url(#clip813)" cx="590.789" cy="759.107" r="9" fill="#ff7e00" fill-rule="evenodd" fill-opacity="1" stroke="none"/>
<circle clip-path="url(#clip813)" cx="608.145" cy="759.411" r="9" fill="#ff7e00" fill-rule="evenodd" fill-opacity="1" stroke="none"/>
<circle clip-path="url(#clip813)" cx="625.502" cy="759.875" r="9" fill="#ff7e00" fill-rule="evenodd" fill-opacity="1" stroke="none"/>
<circle clip-path="url(#clip813)" cx="642.859" cy="760.28" r="9" fill="#ff7e00" fill-rule="evenodd" fill-opacity="1" stroke="none"/>
<circle clip-path="url(#clip813)" cx="660.216" cy="758.053" r="9" fill="#ff7e00" fill-rule="evenodd" fill-opacity="1" stroke="none"/>
<circle clip-path="url(#clip813)" cx="677.573" cy="757.496" r="9" fill="#ff7e00" fill-rule="evenodd" fill-opacity="1" stroke="none"/>
<circle clip-path="url(#clip813)" cx="694.929" cy="756.664" r="9" fill="#ff7e00" fill-rule="evenodd" fill-opacity="1" stroke="none"/>
<circle clip-path="url(#clip813)" cx="712.286" cy="753.758" r="9" fill="#ff7e00" fill-rule="evenodd" fill-opacity="1" stroke="none"/>
<circle clip-path="url(#clip813)" cx="729.643" cy="754.482" r="9" fill="#ff7e00" fill-rule="evenodd" fill-opacity="1" stroke="none"/>
<circle clip-path="url(#clip813)" cx="747" cy="752.267" r="9" fill="#ff7e00" fill-rule="evenodd" fill-opacity="1" stroke="none"/>
<circle clip-path="url(#clip813)" cx="764.357" cy="753.029" r="9" fill="#ff7e00" fill-rule="evenodd" fill-opacity="1" stroke="none"/>
<circle clip-path="url(#clip813)" cx="781.714" cy="753.03" r="9" fill="#ff7e00" fill-rule="evenodd" fill-opacity="1" stroke="none"/>
<circle clip-path="url(#clip813)" cx="799.07" cy="751.633" r="9" fill="#ff7e00" fill-rule="evenodd" fill-opacity="1" stroke="none"/>
<circle clip-path="url(#clip813)" cx="816.427" cy="751.612" r="9" fill="#ff7e00" fill-rule="evenodd" fill-opacity="1" stroke="none"/>
<circle clip-path="url(#clip813)" cx="833.784" cy="751.653" r="9" fill="#ff7e00" fill-rule="evenodd" fill-opacity="1" stroke="none"/>
<circle clip-path="url(#clip813)" cx="851.141" cy="751.653" r="9" fill="#ff7e00" fill-rule="evenodd" fill-opacity="1" stroke="none"/>
<circle clip-path="url(#clip813)" cx="868.498" cy="751.653" r="9" fill="#ff7e00" fill-rule="evenodd" fill-opacity="1" stroke="none"/>
<circle clip-path="url(#clip813)" cx="885.855" cy="751.789" r="9" fill="#ff7e00" fill-rule="evenodd" fill-opacity="1" stroke="none"/>
<circle clip-path="url(#clip813)" cx="903.211" cy="751.849" r="9" fill="#ff7e00" fill-rule="evenodd" fill-opacity="1" stroke="none"/>
<circle clip-path="url(#clip813)" cx="920.568" cy="751.819" r="9" fill="#ff7e00" fill-rule="evenodd" fill-opacity="1" stroke="none"/>
<circle clip-path="url(#clip813)" cx="937.925" cy="751.268" r="9" fill="#ff7e00" fill-rule="evenodd" fill-opacity="1" stroke="none"/>
<circle clip-path="url(#clip813)" cx="955.282" cy="751.268" r="9" fill="#ff7e00" fill-rule="evenodd" fill-opacity="1" stroke="none"/>
<circle clip-path="url(#clip813)" cx="972.639" cy="751.268" r="9" fill="#ff7e00" fill-rule="evenodd" fill-opacity="1" stroke="none"/>
<circle clip-path="url(#clip813)" cx="989.996" cy="751.22" r="9" fill="#ff7e00" fill-rule="evenodd" fill-opacity="1" stroke="none"/>
<circle clip-path="url(#clip813)" cx="1007.35" cy="751.22" r="9" fill="#ff7e00" fill-rule="evenodd" fill-opacity="1" stroke="none"/>
<circle clip-path="url(#clip813)" cx="1024.71" cy="751.22" r="9" fill="#ff7e00" fill-rule="evenodd" fill-opacity="1" stroke="none"/>
<circle clip-path="url(#clip813)" cx="1042.07" cy="748.764" r="9" fill="#ff7e00" fill-rule="evenodd" fill-opacity="1" stroke="none"/>
<circle clip-path="url(#clip813)" cx="1059.42" cy="751.322" r="9" fill="#ff7e00" fill-rule="evenodd" fill-opacity="1" stroke="none"/>
<circle clip-path="url(#clip813)" cx="1076.78" cy="748.764" r="9" fill="#ff7e00" fill-rule="evenodd" fill-opacity="1" stroke="none"/>
<circle clip-path="url(#clip813)" cx="1094.14" cy="748.764" r="9" fill="#ff7e00" fill-rule="evenodd" fill-opacity="1" stroke="none"/>
<circle clip-path="url(#clip813)" cx="1111.49" cy="749.851" r="9" fill="#ff7e00" fill-rule="evenodd" fill-opacity="1" stroke="none"/>
<path clip-path="url(#clip810)" d="M515.965 718.708 L1141.04 718.708 L1141.04 511.348 L515.965 511.348  Z" fill="#ffffff" fill-rule="evenodd" fill-opacity="1"/>
<polyline clip-path="url(#clip810)" style="stroke:#000000; stroke-linecap:round; stroke-linejoin:round; stroke-width:4; stroke-opacity:1; fill:none" points="515.965,718.708 1141.04,718.708 1141.04,511.348 515.965,511.348 515.965,718.708 "/>
<polyline clip-path="url(#clip810)" style="stroke:#e31a1c; stroke-linecap:round; stroke-linejoin:round; stroke-width:4; stroke-opacity:1; fill:none" points="525.982,563.188 586.083,563.188 "/>
<circle clip-path="url(#clip810)" cx="556.032" cy="563.188" r="8.34735" fill="#e31a1c" fill-rule="evenodd" fill-opacity="1" stroke="none"/>
<path clip-path="url(#clip810)" d="M600.776 563.964 L600.776 576.626 L608.276 576.626 Q612.049 576.626 613.854 575.075 Q615.683 573.501 615.683 570.283 Q615.683 567.042 613.854 565.514 Q612.049 563.964 608.276 563.964 L600.776 563.964 M600.776 549.751 L600.776 560.167 L607.697 560.167 Q611.123 560.167 612.789 558.894 Q614.479 557.598 614.479 554.959 Q614.479 552.343 612.789 551.047 Q611.123 549.751 607.697 549.751 L600.776 549.751 M596.1 545.908 L608.044 545.908 Q613.391 545.908 616.285 548.13 Q619.178 550.353 619.178 554.45 Q619.178 557.621 617.697 559.496 Q616.215 561.371 613.345 561.834 Q616.794 562.575 618.692 564.936 Q620.613 567.274 620.613 570.792 Q620.613 575.422 617.465 577.945 Q614.317 580.468 608.507 580.468 L596.1 580.468 L596.1 545.908 Z" fill="#000000" fill-rule="nonzero" fill-opacity="1" /><path clip-path="url(#clip810)" d="M628.438 554.542 L632.697 554.542 L632.697 580.468 L628.438 580.468 L628.438 554.542 M628.438 544.45 L632.697 544.45 L632.697 549.843 L628.438 549.843 L628.438 544.45 Z" fill="#000000" fill-rule="nonzero" fill-opacity="1" /><path clip-path="url(#clip810)" d="M658.136 555.306 L658.136 559.334 Q656.331 558.408 654.386 557.945 Q652.442 557.482 650.359 557.482 Q647.187 557.482 645.59 558.454 Q644.016 559.427 644.016 561.371 Q644.016 562.852 645.15 563.709 Q646.285 564.542 649.711 565.306 L651.169 565.63 Q655.706 566.602 657.604 568.385 Q659.525 570.144 659.525 573.315 Q659.525 576.926 656.655 579.033 Q653.808 581.139 648.808 581.139 Q646.724 581.139 644.456 580.723 Q642.211 580.329 639.711 579.519 L639.711 575.121 Q642.072 576.348 644.363 576.973 Q646.655 577.575 648.9 577.575 Q651.91 577.575 653.53 576.556 Q655.15 575.514 655.15 573.639 Q655.15 571.903 653.97 570.977 Q652.812 570.051 648.854 569.195 L647.373 568.848 Q643.414 568.014 641.655 566.302 Q639.896 564.565 639.896 561.556 Q639.896 557.899 642.488 555.908 Q645.081 553.917 649.849 553.917 Q652.211 553.917 654.294 554.265 Q656.377 554.612 658.136 555.306 Z" fill="#000000" fill-rule="nonzero" fill-opacity="1" /><path clip-path="url(#clip810)" d="M670.521 547.181 L670.521 554.542 L679.294 554.542 L679.294 557.852 L670.521 557.852 L670.521 571.926 Q670.521 575.098 671.377 576.001 Q672.257 576.903 674.919 576.903 L679.294 576.903 L679.294 580.468 L674.919 580.468 Q669.988 580.468 668.113 578.639 Q666.238 576.788 666.238 571.926 L666.238 557.852 L663.113 557.852 L663.113 554.542 L666.238 554.542 L666.238 547.181 L670.521 547.181 Z" fill="#000000" fill-rule="nonzero" fill-opacity="1" /><path clip-path="url(#clip810)" d="M694.942 557.528 Q691.516 557.528 689.525 560.214 Q687.534 562.876 687.534 567.528 Q687.534 572.181 689.502 574.866 Q691.493 577.528 694.942 577.528 Q698.345 577.528 700.335 574.843 Q702.326 572.158 702.326 567.528 Q702.326 562.922 700.335 560.237 Q698.345 557.528 694.942 557.528 M694.942 553.917 Q700.497 553.917 703.669 557.528 Q706.84 561.14 706.84 567.528 Q706.84 573.894 703.669 577.528 Q700.497 581.139 694.942 581.139 Q689.363 581.139 686.192 577.528 Q683.044 573.894 683.044 567.528 Q683.044 561.14 686.192 557.528 Q689.363 553.917 694.942 553.917 Z" fill="#000000" fill-rule="nonzero" fill-opacity="1" /><path clip-path="url(#clip810)" d="M732.557 555.538 L732.557 559.519 Q730.752 558.524 728.923 558.038 Q727.118 557.528 725.266 557.528 Q721.122 557.528 718.831 560.167 Q716.539 562.783 716.539 567.528 Q716.539 572.274 718.831 574.913 Q721.122 577.528 725.266 577.528 Q727.118 577.528 728.923 577.042 Q730.752 576.533 732.557 575.538 L732.557 579.473 Q730.775 580.306 728.854 580.723 Q726.956 581.139 724.803 581.139 Q718.946 581.139 715.497 577.459 Q712.048 573.778 712.048 567.528 Q712.048 561.186 715.52 557.552 Q719.016 553.917 725.081 553.917 Q727.048 553.917 728.923 554.334 Q730.798 554.728 732.557 555.538 Z" fill="#000000" fill-rule="nonzero" fill-opacity="1" /><path clip-path="url(#clip810)" d="M761.516 564.82 L761.516 580.468 L757.256 580.468 L757.256 564.959 Q757.256 561.278 755.821 559.45 Q754.386 557.621 751.516 557.621 Q748.067 557.621 746.076 559.82 Q744.085 562.019 744.085 565.815 L744.085 580.468 L739.803 580.468 L739.803 544.45 L744.085 544.45 L744.085 558.57 Q745.613 556.232 747.673 555.075 Q749.756 553.917 752.465 553.917 Q756.932 553.917 759.224 556.695 Q761.516 559.45 761.516 564.82 Z" fill="#000000" fill-rule="nonzero" fill-opacity="1" /><path clip-path="url(#clip810)" d="M781.793 567.436 Q776.631 567.436 774.64 568.616 Q772.65 569.797 772.65 572.644 Q772.65 574.913 774.131 576.255 Q775.636 577.575 778.205 577.575 Q781.747 577.575 783.876 575.075 Q786.029 572.551 786.029 568.385 L786.029 567.436 L781.793 567.436 M790.289 565.677 L790.289 580.468 L786.029 580.468 L786.029 576.533 Q784.571 578.894 782.395 580.028 Q780.219 581.139 777.071 581.139 Q773.09 581.139 770.728 578.917 Q768.39 576.672 768.39 572.922 Q768.39 568.547 771.307 566.325 Q774.247 564.102 780.057 564.102 L786.029 564.102 L786.029 563.686 Q786.029 560.746 784.085 559.149 Q782.164 557.528 778.668 557.528 Q776.446 557.528 774.34 558.061 Q772.233 558.593 770.289 559.658 L770.289 555.723 Q772.627 554.82 774.826 554.38 Q777.025 553.917 779.108 553.917 Q784.733 553.917 787.511 556.834 Q790.289 559.751 790.289 565.677 Z" fill="#000000" fill-rule="nonzero" fill-opacity="1" /><path clip-path="url(#clip810)" d="M815.589 555.306 L815.589 559.334 Q813.784 558.408 811.839 557.945 Q809.895 557.482 807.812 557.482 Q804.64 557.482 803.043 558.454 Q801.469 559.427 801.469 561.371 Q801.469 562.852 802.603 563.709 Q803.738 564.542 807.163 565.306 L808.622 565.63 Q813.159 566.602 815.057 568.385 Q816.978 570.144 816.978 573.315 Q816.978 576.926 814.108 579.033 Q811.261 581.139 806.261 581.139 Q804.177 581.139 801.909 580.723 Q799.663 580.329 797.163 579.519 L797.163 575.121 Q799.525 576.348 801.816 576.973 Q804.108 577.575 806.353 577.575 Q809.362 577.575 810.983 576.556 Q812.603 575.514 812.603 573.639 Q812.603 571.903 811.423 570.977 Q810.265 570.051 806.307 569.195 L804.825 568.848 Q800.867 568.014 799.108 566.302 Q797.349 564.565 797.349 561.556 Q797.349 557.899 799.941 555.908 Q802.534 553.917 807.302 553.917 Q809.663 553.917 811.747 554.265 Q813.83 554.612 815.589 555.306 Z" fill="#000000" fill-rule="nonzero" fill-opacity="1" /><path clip-path="url(#clip810)" d="M827.973 547.181 L827.973 554.542 L836.747 554.542 L836.747 557.852 L827.973 557.852 L827.973 571.926 Q827.973 575.098 828.83 576.001 Q829.71 576.903 832.372 576.903 L836.747 576.903 L836.747 580.468 L832.372 580.468 Q827.441 580.468 825.566 578.639 Q823.691 576.788 823.691 571.926 L823.691 557.852 L820.566 557.852 L820.566 554.542 L823.691 554.542 L823.691 547.181 L827.973 547.181 Z" fill="#000000" fill-rule="nonzero" fill-opacity="1" /><path clip-path="url(#clip810)" d="M842.348 554.542 L846.608 554.542 L846.608 580.468 L842.348 580.468 L842.348 554.542 M842.348 544.45 L846.608 544.45 L846.608 549.843 L842.348 549.843 L842.348 544.45 Z" fill="#000000" fill-rule="nonzero" fill-opacity="1" /><path clip-path="url(#clip810)" d="M874.177 555.538 L874.177 559.519 Q872.371 558.524 870.543 558.038 Q868.737 557.528 866.885 557.528 Q862.742 557.528 860.45 560.167 Q858.159 562.783 858.159 567.528 Q858.159 572.274 860.45 574.913 Q862.742 577.528 866.885 577.528 Q868.737 577.528 870.543 577.042 Q872.371 576.533 874.177 575.538 L874.177 579.473 Q872.395 580.306 870.473 580.723 Q868.575 581.139 866.422 581.139 Q860.566 581.139 857.117 577.459 Q853.668 573.778 853.668 567.528 Q853.668 561.186 857.14 557.552 Q860.635 553.917 866.7 553.917 Q868.668 553.917 870.543 554.334 Q872.418 554.728 874.177 555.538 Z" fill="#000000" fill-rule="nonzero" fill-opacity="1" /><path clip-path="url(#clip810)" d="M896.839 545.908 L901.515 545.908 L901.515 576.533 L918.343 576.533 L918.343 580.468 L896.839 580.468 L896.839 545.908 Z" fill="#000000" fill-rule="nonzero" fill-opacity="1" /><path clip-path="url(#clip810)" d="M927.695 576.533 L944.015 576.533 L944.015 580.468 L922.07 580.468 L922.07 576.533 Q924.732 573.778 929.316 569.149 Q933.922 564.496 935.103 563.153 Q937.348 560.63 938.228 558.894 Q939.13 557.135 939.13 555.445 Q939.13 552.69 937.186 550.954 Q935.265 549.218 932.163 549.218 Q929.964 549.218 927.51 549.982 Q925.079 550.746 922.302 552.297 L922.302 547.575 Q925.126 546.441 927.579 545.862 Q930.033 545.283 932.07 545.283 Q937.44 545.283 940.635 547.968 Q943.829 550.653 943.829 555.144 Q943.829 557.274 943.019 559.195 Q942.232 561.093 940.126 563.686 Q939.547 564.357 936.445 567.575 Q933.343 570.769 927.695 576.533 Z" fill="#000000" fill-rule="nonzero" fill-opacity="1" /><path clip-path="url(#clip810)" d="M978.528 544.496 Q975.426 549.82 973.922 555.028 Q972.417 560.237 972.417 565.584 Q972.417 570.931 973.922 576.186 Q975.45 581.417 978.528 586.718 L974.825 586.718 Q971.352 581.278 969.616 576.024 Q967.903 570.769 967.903 565.584 Q967.903 560.422 969.616 555.19 Q971.329 549.959 974.825 544.496 L978.528 544.496 Z" fill="#000000" fill-rule="nonzero" fill-opacity="1" /><path clip-path="url(#clip810)" d="M1001 549.079 Q995.912 549.079 992.903 552.876 Q989.917 556.672 989.917 563.223 Q989.917 569.751 992.903 573.547 Q995.912 577.343 1001 577.343 Q1006.1 577.343 1009.06 573.547 Q1012.05 569.751 1012.05 563.223 Q1012.05 556.672 1009.06 552.876 Q1006.1 549.079 1001 549.079 M1007.56 579.843 L1013.71 586.579 L1008.07 586.579 L1002.95 581.047 Q1002.19 581.093 1001.77 581.116 Q1001.38 581.139 1001 581.139 Q993.713 581.139 989.338 576.278 Q984.987 571.394 984.987 563.223 Q984.987 555.028 989.338 550.167 Q993.713 545.283 1001 545.283 Q1008.27 545.283 1012.63 550.167 Q1016.98 555.028 1016.98 563.223 Q1016.98 569.241 1014.55 573.524 Q1012.14 577.806 1007.56 579.843 Z" fill="#000000" fill-rule="nonzero" fill-opacity="1" /><path clip-path="url(#clip810)" d="M1038.32 549.079 Q1033.23 549.079 1030.22 552.876 Q1027.23 556.672 1027.23 563.223 Q1027.23 569.751 1030.22 573.547 Q1033.23 577.343 1038.32 577.343 Q1043.41 577.343 1046.38 573.547 Q1049.36 569.751 1049.36 563.223 Q1049.36 556.672 1046.38 552.876 Q1043.41 549.079 1038.32 549.079 M1038.32 545.283 Q1045.59 545.283 1049.94 550.167 Q1054.29 555.028 1054.29 563.223 Q1054.29 571.394 1049.94 576.278 Q1045.59 581.139 1038.32 581.139 Q1031.03 581.139 1026.65 576.278 Q1022.3 571.417 1022.3 563.223 Q1022.3 555.028 1026.65 550.167 Q1031.03 545.283 1038.32 545.283 Z" fill="#000000" fill-rule="nonzero" fill-opacity="1" /><path clip-path="url(#clip810)" d="M1056.81 545.908 L1086.05 545.908 L1086.05 549.843 L1073.78 549.843 L1073.78 580.468 L1069.08 580.468 L1069.08 549.843 L1056.81 549.843 L1056.81 545.908 Z" fill="#000000" fill-rule="nonzero" fill-opacity="1" /><path clip-path="url(#clip810)" d="M1089.71 544.496 L1093.41 544.496 Q1096.88 549.959 1098.6 555.19 Q1100.33 560.422 1100.33 565.584 Q1100.33 570.769 1098.6 576.024 Q1096.88 581.278 1093.41 586.718 L1089.71 586.718 Q1092.79 581.417 1094.29 576.186 Q1095.82 570.931 1095.82 565.584 Q1095.82 560.237 1094.29 555.028 Q1092.79 549.82 1089.71 544.496 Z" fill="#000000" fill-rule="nonzero" fill-opacity="1" /><polyline clip-path="url(#clip810)" style="stroke:#377db8; stroke-linecap:round; stroke-linejoin:round; stroke-width:4; stroke-opacity:1; fill:none" points="525.982,615.028 586.083,615.028 "/>
<circle clip-path="url(#clip810)" cx="556.032" cy="615.028" r="8.34735" fill="#377db8" fill-rule="evenodd" fill-opacity="1" stroke="none"/>
<path clip-path="url(#clip810)" d="M600.776 615.804 L600.776 628.466 L608.276 628.466 Q612.049 628.466 613.854 626.915 Q615.683 625.341 615.683 622.123 Q615.683 618.882 613.854 617.354 Q612.049 615.804 608.276 615.804 L600.776 615.804 M600.776 601.591 L600.776 612.007 L607.697 612.007 Q611.123 612.007 612.789 610.734 Q614.479 609.438 614.479 606.799 Q614.479 604.183 612.789 602.887 Q611.123 601.591 607.697 601.591 L600.776 601.591 M596.1 597.748 L608.044 597.748 Q613.391 597.748 616.285 599.97 Q619.178 602.193 619.178 606.29 Q619.178 609.461 617.697 611.336 Q616.215 613.211 613.345 613.674 Q616.794 614.415 618.692 616.776 Q620.613 619.114 620.613 622.632 Q620.613 627.262 617.465 629.785 Q614.317 632.308 608.507 632.308 L596.1 632.308 L596.1 597.748 Z" fill="#000000" fill-rule="nonzero" fill-opacity="1" /><path clip-path="url(#clip810)" d="M628.438 606.382 L632.697 606.382 L632.697 632.308 L628.438 632.308 L628.438 606.382 M628.438 596.29 L632.697 596.29 L632.697 601.683 L628.438 601.683 L628.438 596.29 Z" fill="#000000" fill-rule="nonzero" fill-opacity="1" /><path clip-path="url(#clip810)" d="M658.136 607.146 L658.136 611.174 Q656.331 610.248 654.386 609.785 Q652.442 609.322 650.359 609.322 Q647.187 609.322 645.59 610.294 Q644.016 611.267 644.016 613.211 Q644.016 614.692 645.15 615.549 Q646.285 616.382 649.711 617.146 L651.169 617.47 Q655.706 618.442 657.604 620.225 Q659.525 621.984 659.525 625.155 Q659.525 628.766 656.655 630.873 Q653.808 632.979 648.808 632.979 Q646.724 632.979 644.456 632.563 Q642.211 632.169 639.711 631.359 L639.711 626.961 Q642.072 628.188 644.363 628.813 Q646.655 629.415 648.9 629.415 Q651.91 629.415 653.53 628.396 Q655.15 627.354 655.15 625.479 Q655.15 623.743 653.97 622.817 Q652.812 621.891 648.854 621.035 L647.373 620.688 Q643.414 619.854 641.655 618.142 Q639.896 616.405 639.896 613.396 Q639.896 609.739 642.488 607.748 Q645.081 605.757 649.849 605.757 Q652.211 605.757 654.294 606.105 Q656.377 606.452 658.136 607.146 Z" fill="#000000" fill-rule="nonzero" fill-opacity="1" /><path clip-path="url(#clip810)" d="M670.521 599.021 L670.521 606.382 L679.294 606.382 L679.294 609.692 L670.521 609.692 L670.521 623.766 Q670.521 626.938 671.377 627.841 Q672.257 628.743 674.919 628.743 L679.294 628.743 L679.294 632.308 L674.919 632.308 Q669.988 632.308 668.113 630.479 Q666.238 628.628 666.238 623.766 L666.238 609.692 L663.113 609.692 L663.113 606.382 L666.238 606.382 L666.238 599.021 L670.521 599.021 Z" fill="#000000" fill-rule="nonzero" fill-opacity="1" /><path clip-path="url(#clip810)" d="M694.942 609.368 Q691.516 609.368 689.525 612.054 Q687.534 614.716 687.534 619.368 Q687.534 624.021 689.502 626.706 Q691.493 629.368 694.942 629.368 Q698.345 629.368 700.335 626.683 Q702.326 623.998 702.326 619.368 Q702.326 614.762 700.335 612.077 Q698.345 609.368 694.942 609.368 M694.942 605.757 Q700.497 605.757 703.669 609.368 Q706.84 612.98 706.84 619.368 Q706.84 625.734 703.669 629.368 Q700.497 632.979 694.942 632.979 Q689.363 632.979 686.192 629.368 Q683.044 625.734 683.044 619.368 Q683.044 612.98 686.192 609.368 Q689.363 605.757 694.942 605.757 Z" fill="#000000" fill-rule="nonzero" fill-opacity="1" /><path clip-path="url(#clip810)" d="M732.557 607.378 L732.557 611.359 Q730.752 610.364 728.923 609.878 Q727.118 609.368 725.266 609.368 Q721.122 609.368 718.831 612.007 Q716.539 614.623 716.539 619.368 Q716.539 624.114 718.831 626.753 Q721.122 629.368 725.266 629.368 Q727.118 629.368 728.923 628.882 Q730.752 628.373 732.557 627.378 L732.557 631.313 Q730.775 632.146 728.854 632.563 Q726.956 632.979 724.803 632.979 Q718.946 632.979 715.497 629.299 Q712.048 625.618 712.048 619.368 Q712.048 613.026 715.52 609.392 Q719.016 605.757 725.081 605.757 Q727.048 605.757 728.923 606.174 Q730.798 606.568 732.557 607.378 Z" fill="#000000" fill-rule="nonzero" fill-opacity="1" /><path clip-path="url(#clip810)" d="M761.516 616.66 L761.516 632.308 L757.256 632.308 L757.256 616.799 Q757.256 613.118 755.821 611.29 Q754.386 609.461 751.516 609.461 Q748.067 609.461 746.076 611.66 Q744.085 613.859 744.085 617.655 L744.085 632.308 L739.803 632.308 L739.803 596.29 L744.085 596.29 L744.085 610.41 Q745.613 608.072 747.673 606.915 Q749.756 605.757 752.465 605.757 Q756.932 605.757 759.224 608.535 Q761.516 611.29 761.516 616.66 Z" fill="#000000" fill-rule="nonzero" fill-opacity="1" /><path clip-path="url(#clip810)" d="M781.793 619.276 Q776.631 619.276 774.64 620.456 Q772.65 621.637 772.65 624.484 Q772.65 626.753 774.131 628.095 Q775.636 629.415 778.205 629.415 Q781.747 629.415 783.876 626.915 Q786.029 624.391 786.029 620.225 L786.029 619.276 L781.793 619.276 M790.289 617.517 L790.289 632.308 L786.029 632.308 L786.029 628.373 Q784.571 630.734 782.395 631.868 Q780.219 632.979 777.071 632.979 Q773.09 632.979 770.728 630.757 Q768.39 628.512 768.39 624.762 Q768.39 620.387 771.307 618.165 Q774.247 615.942 780.057 615.942 L786.029 615.942 L786.029 615.526 Q786.029 612.586 784.085 610.989 Q782.164 609.368 778.668 609.368 Q776.446 609.368 774.34 609.901 Q772.233 610.433 770.289 611.498 L770.289 607.563 Q772.627 606.66 774.826 606.22 Q777.025 605.757 779.108 605.757 Q784.733 605.757 787.511 608.674 Q790.289 611.591 790.289 617.517 Z" fill="#000000" fill-rule="nonzero" fill-opacity="1" /><path clip-path="url(#clip810)" d="M815.589 607.146 L815.589 611.174 Q813.784 610.248 811.839 609.785 Q809.895 609.322 807.812 609.322 Q804.64 609.322 803.043 610.294 Q801.469 611.267 801.469 613.211 Q801.469 614.692 802.603 615.549 Q803.738 616.382 807.163 617.146 L808.622 617.47 Q813.159 618.442 815.057 620.225 Q816.978 621.984 816.978 625.155 Q816.978 628.766 814.108 630.873 Q811.261 632.979 806.261 632.979 Q804.177 632.979 801.909 632.563 Q799.663 632.169 797.163 631.359 L797.163 626.961 Q799.525 628.188 801.816 628.813 Q804.108 629.415 806.353 629.415 Q809.362 629.415 810.983 628.396 Q812.603 627.354 812.603 625.479 Q812.603 623.743 811.423 622.817 Q810.265 621.891 806.307 621.035 L804.825 620.688 Q800.867 619.854 799.108 618.142 Q797.349 616.405 797.349 613.396 Q797.349 609.739 799.941 607.748 Q802.534 605.757 807.302 605.757 Q809.663 605.757 811.747 606.105 Q813.83 606.452 815.589 607.146 Z" fill="#000000" fill-rule="nonzero" fill-opacity="1" /><path clip-path="url(#clip810)" d="M827.973 599.021 L827.973 606.382 L836.747 606.382 L836.747 609.692 L827.973 609.692 L827.973 623.766 Q827.973 626.938 828.83 627.841 Q829.71 628.743 832.372 628.743 L836.747 628.743 L836.747 632.308 L832.372 632.308 Q827.441 632.308 825.566 630.479 Q823.691 628.628 823.691 623.766 L823.691 609.692 L820.566 609.692 L820.566 606.382 L823.691 606.382 L823.691 599.021 L827.973 599.021 Z" fill="#000000" fill-rule="nonzero" fill-opacity="1" /><path clip-path="url(#clip810)" d="M842.348 606.382 L846.608 606.382 L846.608 632.308 L842.348 632.308 L842.348 606.382 M842.348 596.29 L846.608 596.29 L846.608 601.683 L842.348 601.683 L842.348 596.29 Z" fill="#000000" fill-rule="nonzero" fill-opacity="1" /><path clip-path="url(#clip810)" d="M874.177 607.378 L874.177 611.359 Q872.371 610.364 870.543 609.878 Q868.737 609.368 866.885 609.368 Q862.742 609.368 860.45 612.007 Q858.159 614.623 858.159 619.368 Q858.159 624.114 860.45 626.753 Q862.742 629.368 866.885 629.368 Q868.737 629.368 870.543 628.882 Q872.371 628.373 874.177 627.378 L874.177 631.313 Q872.395 632.146 870.473 632.563 Q868.575 632.979 866.422 632.979 Q860.566 632.979 857.117 629.299 Q853.668 625.618 853.668 619.368 Q853.668 613.026 857.14 609.392 Q860.635 605.757 866.7 605.757 Q868.668 605.757 870.543 606.174 Q872.418 606.568 874.177 607.378 Z" fill="#000000" fill-rule="nonzero" fill-opacity="1" /><path clip-path="url(#clip810)" d="M896.839 597.748 L918.691 597.748 L918.691 601.683 L901.515 601.683 L901.515 611.915 L917.973 611.915 L917.973 615.85 L901.515 615.85 L901.515 628.373 L919.107 628.373 L919.107 632.308 L896.839 632.308 L896.839 597.748 Z" fill="#000000" fill-rule="nonzero" fill-opacity="1" /><path clip-path="url(#clip810)" d="M948.158 616.66 L948.158 632.308 L943.899 632.308 L943.899 616.799 Q943.899 613.118 942.464 611.29 Q941.028 609.461 938.158 609.461 Q934.709 609.461 932.718 611.66 Q930.728 613.859 930.728 617.655 L930.728 632.308 L926.445 632.308 L926.445 606.382 L930.728 606.382 L930.728 610.41 Q932.255 608.072 934.316 606.915 Q936.399 605.757 939.107 605.757 Q943.575 605.757 945.866 608.535 Q948.158 611.29 948.158 616.66 Z" fill="#000000" fill-rule="nonzero" fill-opacity="1" /><path clip-path="url(#clip810)" d="M960.866 599.021 L960.866 606.382 L969.639 606.382 L969.639 609.692 L960.866 609.692 L960.866 623.766 Q960.866 626.938 961.723 627.841 Q962.602 628.743 965.264 628.743 L969.639 628.743 L969.639 632.308 L965.264 632.308 Q960.334 632.308 958.459 630.479 Q956.584 628.628 956.584 623.766 L956.584 609.692 L953.459 609.692 L953.459 606.382 L956.584 606.382 L956.584 599.021 L960.866 599.021 Z" fill="#000000" fill-rule="nonzero" fill-opacity="1" /><path clip-path="url(#clip810)" d="M1000.54 596.336 Q997.44 601.66 995.936 606.868 Q994.431 612.077 994.431 617.424 Q994.431 622.771 995.936 628.026 Q997.463 633.257 1000.54 638.558 L996.838 638.558 Q993.366 633.118 991.63 627.864 Q989.917 622.609 989.917 617.424 Q989.917 612.262 991.63 607.03 Q993.343 601.799 996.838 596.336 L1000.54 596.336 Z" fill="#000000" fill-rule="nonzero" fill-opacity="1" /><path clip-path="url(#clip810)" d="M1008.99 597.748 L1030.84 597.748 L1030.84 601.683 L1013.67 601.683 L1013.67 611.915 L1030.13 611.915 L1030.13 615.85 L1013.67 615.85 L1013.67 628.373 L1031.26 628.373 L1031.26 632.308 L1008.99 632.308 L1008.99 597.748 Z" fill="#000000" fill-rule="nonzero" fill-opacity="1" /><path clip-path="url(#clip810)" d="M1052.97 600.919 Q1047.88 600.919 1044.87 604.716 Q1041.88 608.512 1041.88 615.063 Q1041.88 621.591 1044.87 625.387 Q1047.88 629.183 1052.97 629.183 Q1058.06 629.183 1061.03 625.387 Q1064.01 621.591 1064.01 615.063 Q1064.01 608.512 1061.03 604.716 Q1058.06 600.919 1052.97 600.919 M1052.97 597.123 Q1060.24 597.123 1064.59 602.007 Q1068.94 606.868 1068.94 615.063 Q1068.94 623.234 1064.59 628.118 Q1060.24 632.979 1052.97 632.979 Q1045.68 632.979 1041.31 628.118 Q1036.95 623.257 1036.95 615.063 Q1036.95 606.868 1041.31 602.007 Q1045.68 597.123 1052.97 597.123 Z" fill="#000000" fill-rule="nonzero" fill-opacity="1" /><path clip-path="url(#clip810)" d="M1071.47 597.748 L1100.7 597.748 L1100.7 601.683 L1088.44 601.683 L1088.44 632.308 L1083.74 632.308 L1083.74 601.683 L1071.47 601.683 L1071.47 597.748 Z" fill="#000000" fill-rule="nonzero" fill-opacity="1" /><path clip-path="url(#clip810)" d="M1104.36 596.336 L1108.06 596.336 Q1111.54 601.799 1113.25 607.03 Q1114.99 612.262 1114.99 617.424 Q1114.99 622.609 1113.25 627.864 Q1111.54 633.118 1108.06 638.558 L1104.36 638.558 Q1107.44 633.257 1108.94 628.026 Q1110.47 622.771 1110.47 617.424 Q1110.47 612.077 1108.94 606.868 Q1107.44 601.66 1104.36 596.336 Z" fill="#000000" fill-rule="nonzero" fill-opacity="1" /><polyline clip-path="url(#clip810)" style="stroke:#ff7e00; stroke-linecap:round; stroke-linejoin:round; stroke-width:4; stroke-opacity:1; fill:none" points="525.982,666.868 586.083,666.868 "/>
<circle clip-path="url(#clip810)" cx="556.032" cy="666.868" r="8.34735" fill="#ff7e00" fill-rule="evenodd" fill-opacity="1" stroke="none"/>
<path clip-path="url(#clip810)" d="M596.1 648.13 L600.382 648.13 L600.382 669.403 L613.09 658.222 L618.53 658.222 L604.78 670.352 L619.109 684.148 L613.553 684.148 L600.382 671.486 L600.382 684.148 L596.1 684.148 L596.1 648.13 Z" fill="#000000" fill-rule="nonzero" fill-opacity="1" /><path clip-path="url(#clip810)" d="M623.901 649.588 L630.197 649.588 L645.521 678.5 L645.521 649.588 L650.058 649.588 L650.058 684.148 L643.762 684.148 L628.438 655.236 L628.438 684.148 L623.901 684.148 L623.901 649.588 Z" fill="#000000" fill-rule="nonzero" fill-opacity="1" /><path clip-path="url(#clip810)" d="M659.363 649.588 L665.66 649.588 L680.984 678.5 L680.984 649.588 L685.521 649.588 L685.521 684.148 L679.224 684.148 L663.9 655.236 L663.9 684.148 L659.363 684.148 L659.363 649.588 Z" fill="#000000" fill-rule="nonzero" fill-opacity="1" /><path clip-path="url(#clip810)" d="M711.979 654.426 L711.979 667.319 L724.872 667.319 L724.872 671.255 L711.979 671.255 L711.979 684.148 L708.09 684.148 L708.09 671.255 L695.196 671.255 L695.196 667.319 L708.09 667.319 L708.09 654.426 L711.979 654.426 Z" fill="#000000" fill-rule="nonzero" fill-opacity="1" /><path clip-path="url(#clip810)" d="M758.113 679.218 L758.113 669.935 L750.474 669.935 L750.474 666.093 L762.742 666.093 L762.742 680.931 Q760.034 682.852 756.77 683.847 Q753.506 684.819 749.803 684.819 Q741.701 684.819 737.117 680.097 Q732.557 675.352 732.557 666.903 Q732.557 658.431 737.117 653.708 Q741.701 648.963 749.803 648.963 Q753.182 648.963 756.215 649.796 Q759.27 650.63 761.84 652.25 L761.84 657.227 Q759.247 655.028 756.33 653.917 Q753.414 652.806 750.196 652.806 Q743.854 652.806 740.659 656.347 Q737.488 659.889 737.488 666.903 Q737.488 673.894 740.659 677.435 Q743.854 680.977 750.196 680.977 Q752.673 680.977 754.617 680.56 Q756.562 680.12 758.113 679.218 Z" fill="#000000" fill-rule="nonzero" fill-opacity="1" /><path clip-path="url(#clip810)" d="M782.881 671.116 Q777.719 671.116 775.728 672.296 Q773.738 673.477 773.738 676.324 Q773.738 678.593 775.219 679.935 Q776.724 681.255 779.293 681.255 Q782.835 681.255 784.964 678.755 Q787.117 676.231 787.117 672.065 L787.117 671.116 L782.881 671.116 M791.376 669.357 L791.376 684.148 L787.117 684.148 L787.117 680.213 Q785.659 682.574 783.483 683.708 Q781.307 684.819 778.159 684.819 Q774.177 684.819 771.816 682.597 Q769.478 680.352 769.478 676.602 Q769.478 672.227 772.395 670.005 Q775.335 667.782 781.145 667.782 L787.117 667.782 L787.117 667.366 Q787.117 664.426 785.173 662.829 Q783.252 661.208 779.756 661.208 Q777.534 661.208 775.427 661.741 Q773.321 662.273 771.377 663.338 L771.377 659.403 Q773.715 658.5 775.914 658.06 Q778.113 657.597 780.196 657.597 Q785.821 657.597 788.599 660.514 Q791.376 663.431 791.376 669.357 Z" fill="#000000" fill-rule="nonzero" fill-opacity="1" /><path clip-path="url(#clip810)" d="M799.71 673.917 L799.71 658.222 L803.969 658.222 L803.969 673.755 Q803.969 677.435 805.404 679.287 Q806.839 681.116 809.71 681.116 Q813.159 681.116 815.149 678.917 Q817.163 676.718 817.163 672.921 L817.163 658.222 L821.423 658.222 L821.423 684.148 L817.163 684.148 L817.163 680.167 Q815.612 682.528 813.552 683.685 Q811.515 684.819 808.807 684.819 Q804.339 684.819 802.025 682.042 Q799.71 679.264 799.71 673.917 M810.427 657.597 L810.427 657.597 Z" fill="#000000" fill-rule="nonzero" fill-opacity="1" /><path clip-path="url(#clip810)" d="M846.723 658.986 L846.723 663.014 Q844.918 662.088 842.973 661.625 Q841.029 661.162 838.946 661.162 Q835.774 661.162 834.177 662.134 Q832.603 663.107 832.603 665.051 Q832.603 666.532 833.737 667.389 Q834.872 668.222 838.298 668.986 L839.756 669.31 Q844.293 670.282 846.191 672.065 Q848.112 673.824 848.112 676.995 Q848.112 680.606 845.242 682.713 Q842.395 684.819 837.395 684.819 Q835.311 684.819 833.043 684.403 Q830.798 684.009 828.298 683.199 L828.298 678.801 Q830.659 680.028 832.95 680.653 Q835.242 681.255 837.487 681.255 Q840.497 681.255 842.117 680.236 Q843.737 679.194 843.737 677.319 Q843.737 675.583 842.557 674.657 Q841.399 673.731 837.441 672.875 L835.96 672.528 Q832.001 671.694 830.242 669.982 Q828.483 668.245 828.483 665.236 Q828.483 661.579 831.075 659.588 Q833.668 657.597 838.436 657.597 Q840.797 657.597 842.881 657.945 Q844.964 658.292 846.723 658.986 Z" fill="#000000" fill-rule="nonzero" fill-opacity="1" /><path clip-path="url(#clip810)" d="M871.422 658.986 L871.422 663.014 Q869.617 662.088 867.672 661.625 Q865.728 661.162 863.645 661.162 Q860.473 661.162 858.876 662.134 Q857.302 663.107 857.302 665.051 Q857.302 666.532 858.436 667.389 Q859.571 668.222 862.996 668.986 L864.455 669.31 Q868.992 670.282 870.89 672.065 Q872.811 673.824 872.811 676.995 Q872.811 680.606 869.941 682.713 Q867.094 684.819 862.094 684.819 Q860.01 684.819 857.742 684.403 Q855.496 684.009 852.996 683.199 L852.996 678.801 Q855.358 680.028 857.649 680.653 Q859.941 681.255 862.186 681.255 Q865.196 681.255 866.816 680.236 Q868.436 679.194 868.436 677.319 Q868.436 675.583 867.256 674.657 Q866.098 673.731 862.14 672.875 L860.658 672.528 Q856.7 671.694 854.941 669.982 Q853.182 668.245 853.182 665.236 Q853.182 661.579 855.774 659.588 Q858.367 657.597 863.135 657.597 Q865.496 657.597 867.58 657.945 Q869.663 658.292 871.422 658.986 Z" fill="#000000" fill-rule="nonzero" fill-opacity="1" /><path clip-path="url(#clip810)" d="M879.594 658.222 L883.853 658.222 L883.853 684.148 L879.594 684.148 L879.594 658.222 M879.594 648.13 L883.853 648.13 L883.853 653.523 L879.594 653.523 L879.594 648.13 Z" fill="#000000" fill-rule="nonzero" fill-opacity="1" /><path clip-path="url(#clip810)" d="M904.547 671.116 Q899.385 671.116 897.394 672.296 Q895.404 673.477 895.404 676.324 Q895.404 678.593 896.885 679.935 Q898.39 681.255 900.959 681.255 Q904.501 681.255 906.63 678.755 Q908.783 676.231 908.783 672.065 L908.783 671.116 L904.547 671.116 M913.042 669.357 L913.042 684.148 L908.783 684.148 L908.783 680.213 Q907.325 682.574 905.149 683.708 Q902.973 684.819 899.825 684.819 Q895.843 684.819 893.482 682.597 Q891.144 680.352 891.144 676.602 Q891.144 672.227 894.061 670.005 Q897.001 667.782 902.811 667.782 L908.783 667.782 L908.783 667.366 Q908.783 664.426 906.839 662.829 Q904.918 661.208 901.422 661.208 Q899.2 661.208 897.093 661.741 Q894.987 662.273 893.043 663.338 L893.043 659.403 Q895.381 658.5 897.58 658.06 Q899.779 657.597 901.862 657.597 Q907.487 657.597 910.265 660.514 Q913.042 663.431 913.042 669.357 Z" fill="#000000" fill-rule="nonzero" fill-opacity="1" /><path clip-path="url(#clip810)" d="M943.366 668.5 L943.366 684.148 L939.107 684.148 L939.107 668.639 Q939.107 664.958 937.672 663.13 Q936.237 661.301 933.366 661.301 Q929.917 661.301 927.927 663.5 Q925.936 665.699 925.936 669.495 L925.936 684.148 L921.654 684.148 L921.654 658.222 L925.936 658.222 L925.936 662.25 Q927.464 659.912 929.524 658.755 Q931.607 657.597 934.316 657.597 Q938.783 657.597 941.075 660.375 Q943.366 663.13 943.366 668.5 Z" fill="#000000" fill-rule="nonzero" fill-opacity="1" /><path clip-path="url(#clip810)" d="M952.95 678.269 L957.834 678.269 L957.834 682.25 L954.038 689.657 L951.052 689.657 L952.95 682.25 L952.95 678.269 Z" fill="#000000" fill-rule="nonzero" fill-opacity="1" /><path clip-path="url(#clip810)" d="M981.838 648.13 L986.121 648.13 L986.121 669.403 L998.829 658.222 L1004.27 658.222 L990.519 670.352 L1004.85 684.148 L999.292 684.148 L986.121 671.486 L986.121 684.148 L981.838 684.148 L981.838 648.13 Z" fill="#000000" fill-rule="nonzero" fill-opacity="1" /><path clip-path="url(#clip810)" d="M1025.08 662.62 L1054.75 662.62 L1054.75 666.509 L1025.08 666.509 L1025.08 662.62 M1025.08 672.065 L1054.75 672.065 L1054.75 676 L1025.08 676 L1025.08 672.065 Z" fill="#000000" fill-rule="nonzero" fill-opacity="1" /><path clip-path="url(#clip810)" d="M1083.94 680.213 L1100.26 680.213 L1100.26 684.148 L1078.32 684.148 L1078.32 680.213 Q1080.98 677.458 1085.56 672.829 Q1090.17 668.176 1091.35 666.833 Q1093.6 664.31 1094.48 662.574 Q1095.38 660.815 1095.38 659.125 Q1095.38 656.37 1093.44 654.634 Q1091.51 652.898 1088.41 652.898 Q1086.21 652.898 1083.76 653.662 Q1081.33 654.426 1078.55 655.977 L1078.55 651.255 Q1081.37 650.121 1083.83 649.542 Q1086.28 648.963 1088.32 648.963 Q1093.69 648.963 1096.88 651.648 Q1100.08 654.333 1100.08 658.824 Q1100.08 660.954 1099.27 662.875 Q1098.48 664.773 1096.37 667.366 Q1095.8 668.037 1092.69 671.255 Q1089.59 674.449 1083.94 680.213 Z" fill="#000000" fill-rule="nonzero" fill-opacity="1" /><path clip-path="url(#clip810)" d="M1110.12 649.588 L1128.48 649.588 L1128.48 653.523 L1114.41 653.523 L1114.41 661.995 Q1115.43 661.648 1116.44 661.486 Q1117.46 661.301 1118.48 661.301 Q1124.27 661.301 1127.65 664.472 Q1131.03 667.644 1131.03 673.06 Q1131.03 678.639 1127.56 681.741 Q1124.08 684.819 1117.76 684.819 Q1115.59 684.819 1113.32 684.449 Q1111.07 684.079 1108.67 683.338 L1108.67 678.639 Q1110.75 679.773 1112.97 680.329 Q1115.19 680.884 1117.67 680.884 Q1121.68 680.884 1124.01 678.778 Q1126.35 676.671 1126.35 673.06 Q1126.35 669.449 1124.01 667.343 Q1121.68 665.236 1117.67 665.236 Q1115.8 665.236 1113.92 665.653 Q1112.07 666.069 1110.12 666.949 L1110.12 649.588 Z" fill="#000000" fill-rule="nonzero" fill-opacity="1" /></svg>
