<?xml version="1.0" encoding="utf-8"?>
<svg xmlns="http://www.w3.org/2000/svg" xmlns:xlink="http://www.w3.org/1999/xlink" width="250" height="250" viewBox="0 0 1000 1000">
<defs>
  <clipPath id="clip560">
    <rect x="0" y="0" width="1000" height="1000"/>
  </clipPath>
</defs>
<path clip-path="url(#clip560)" d="M0 1000 L1000 1000 L1000 0 L0 0  Z" fill="#ffffff" fill-rule="evenodd" fill-opacity="1"/>
<defs>
  <clipPath id="clip561">
    <rect x="200" y="100" width="701" height="701"/>
  </clipPath>
</defs>
<path clip-path="url(#clip560)" d="M259.302 788.14 L952.756 788.14 L952.756 47.2441 L259.302 47.2441  Z" fill="#ffffff" fill-rule="evenodd" fill-opacity="1"/>
<defs>
  <clipPath id="clip562">
    <rect x="259" y="47" width="694" height="742"/>
  </clipPath>
</defs>
<polyline clip-path="url(#clip562)" style="stroke:#000000; stroke-linecap:round; stroke-linejoin:round; stroke-width:2; stroke-opacity:0.1; fill:none" points="278.928,788.14 278.928,47.2441 "/>
<polyline clip-path="url(#clip562)" style="stroke:#000000; stroke-linecap:round; stroke-linejoin:round; stroke-width:2; stroke-opacity:0.1; fill:none" points="442.479,788.14 442.479,47.2441 "/>
<polyline clip-path="url(#clip562)" style="stroke:#000000; stroke-linecap:round; stroke-linejoin:round; stroke-width:2; stroke-opacity:0.1; fill:none" points="606.029,788.14 606.029,47.2441 "/>
<polyline clip-path="url(#clip562)" style="stroke:#000000; stroke-linecap:round; stroke-linejoin:round; stroke-width:2; stroke-opacity:0.1; fill:none" points="769.579,788.14 769.579,47.2441 "/>
<polyline clip-path="url(#clip562)" style="stroke:#000000; stroke-linecap:round; stroke-linejoin:round; stroke-width:2; stroke-opacity:0.1; fill:none" points="933.13,788.14 933.13,47.2441 "/>
<polyline clip-path="url(#clip562)" style="stroke:#000000; stroke-linecap:round; stroke-linejoin:round; stroke-width:2; stroke-opacity:0.1; fill:none" points="259.302,767.171 952.756,767.171 "/>
<polyline clip-path="url(#clip562)" style="stroke:#000000; stroke-linecap:round; stroke-linejoin:round; stroke-width:2; stroke-opacity:0.1; fill:none" points="259.302,552.767 952.756,552.767 "/>
<polyline clip-path="url(#clip562)" style="stroke:#000000; stroke-linecap:round; stroke-linejoin:round; stroke-width:2; stroke-opacity:0.1; fill:none" points="259.302,338.362 952.756,338.362 "/>
<polyline clip-path="url(#clip562)" style="stroke:#000000; stroke-linecap:round; stroke-linejoin:round; stroke-width:2; stroke-opacity:0.1; fill:none" points="259.302,123.958 952.756,123.958 "/>
<polyline clip-path="url(#clip560)" style="stroke:#000000; stroke-linecap:round; stroke-linejoin:round; stroke-width:4; stroke-opacity:1; fill:none" points="259.302,788.14 952.756,788.14 "/>
<polyline clip-path="url(#clip560)" style="stroke:#000000; stroke-linecap:round; stroke-linejoin:round; stroke-width:4; stroke-opacity:1; fill:none" points="278.928,788.14 278.928,769.242 "/>
<polyline clip-path="url(#clip560)" style="stroke:#000000; stroke-linecap:round; stroke-linejoin:round; stroke-width:4; stroke-opacity:1; fill:none" points="442.479,788.14 442.479,769.242 "/>
<polyline clip-path="url(#clip560)" style="stroke:#000000; stroke-linecap:round; stroke-linejoin:round; stroke-width:4; stroke-opacity:1; fill:none" points="606.029,788.14 606.029,769.242 "/>
<polyline clip-path="url(#clip560)" style="stroke:#000000; stroke-linecap:round; stroke-linejoin:round; stroke-width:4; stroke-opacity:1; fill:none" points="769.579,788.14 769.579,769.242 "/>
<polyline clip-path="url(#clip560)" style="stroke:#000000; stroke-linecap:round; stroke-linejoin:round; stroke-width:4; stroke-opacity:1; fill:none" points="933.13,788.14 933.13,769.242 "/>
<path clip-path="url(#clip560)" d="M256.312 807.859 Q252.701 807.859 250.873 811.423 Q249.067 814.965 249.067 822.095 Q249.067 829.201 250.873 832.766 Q252.701 836.307 256.312 836.307 Q259.947 836.307 261.752 832.766 Q263.581 829.201 263.581 822.095 Q263.581 814.965 261.752 811.423 Q259.947 807.859 256.312 807.859 M256.312 804.155 Q262.123 804.155 265.178 808.761 Q268.257 813.345 268.257 822.095 Q268.257 830.821 265.178 835.428 Q262.123 840.011 256.312 840.011 Q250.502 840.011 247.424 835.428 Q244.368 830.821 244.368 822.095 Q244.368 813.345 247.424 808.761 Q250.502 804.155 256.312 804.155 Z" fill="#000000" fill-rule="nonzero" fill-opacity="1" /><path clip-path="url(#clip560)" d="M276.474 833.46 L281.359 833.46 L281.359 839.34 L276.474 839.34 L276.474 833.46 Z" fill="#000000" fill-rule="nonzero" fill-opacity="1" /><path clip-path="url(#clip560)" d="M301.544 807.859 Q297.933 807.859 296.104 811.423 Q294.298 814.965 294.298 822.095 Q294.298 829.201 296.104 832.766 Q297.933 836.307 301.544 836.307 Q305.178 836.307 306.983 832.766 Q308.812 829.201 308.812 822.095 Q308.812 814.965 306.983 811.423 Q305.178 807.859 301.544 807.859 M301.544 804.155 Q307.354 804.155 310.409 808.761 Q313.488 813.345 313.488 822.095 Q313.488 830.821 310.409 835.428 Q307.354 840.011 301.544 840.011 Q295.734 840.011 292.655 835.428 Q289.599 830.821 289.599 822.095 Q289.599 813.345 292.655 808.761 Q295.734 804.155 301.544 804.155 Z" fill="#000000" fill-rule="nonzero" fill-opacity="1" /><path clip-path="url(#clip560)" d="M420.361 807.859 Q416.749 807.859 414.921 811.423 Q413.115 814.965 413.115 822.095 Q413.115 829.201 414.921 832.766 Q416.749 836.307 420.361 836.307 Q423.995 836.307 425.8 832.766 Q427.629 829.201 427.629 822.095 Q427.629 814.965 425.8 811.423 Q423.995 807.859 420.361 807.859 M420.361 804.155 Q426.171 804.155 429.226 808.761 Q432.305 813.345 432.305 822.095 Q432.305 830.821 429.226 835.428 Q426.171 840.011 420.361 840.011 Q414.55 840.011 411.472 835.428 Q408.416 830.821 408.416 822.095 Q408.416 813.345 411.472 808.761 Q414.55 804.155 420.361 804.155 Z" fill="#000000" fill-rule="nonzero" fill-opacity="1" /><path clip-path="url(#clip560)" d="M440.523 833.46 L445.407 833.46 L445.407 839.34 L440.523 839.34 L440.523 833.46 Z" fill="#000000" fill-rule="nonzero" fill-opacity="1" /><path clip-path="url(#clip560)" d="M455.638 804.78 L473.995 804.78 L473.995 808.715 L459.921 808.715 L459.921 817.187 Q460.939 816.84 461.958 816.678 Q462.976 816.493 463.995 816.493 Q469.782 816.493 473.161 819.664 Q476.541 822.835 476.541 828.252 Q476.541 833.831 473.069 836.932 Q469.596 840.011 463.277 840.011 Q461.101 840.011 458.833 839.641 Q456.587 839.27 454.18 838.53 L454.18 833.831 Q456.263 834.965 458.485 835.52 Q460.708 836.076 463.184 836.076 Q467.189 836.076 469.527 833.97 Q471.865 831.863 471.865 828.252 Q471.865 824.641 469.527 822.534 Q467.189 820.428 463.184 820.428 Q461.309 820.428 459.434 820.845 Q457.583 821.261 455.638 822.141 L455.638 804.78 Z" fill="#000000" fill-rule="nonzero" fill-opacity="1" /><path clip-path="url(#clip560)" d="M573.182 835.405 L580.821 835.405 L580.821 809.039 L572.511 810.706 L572.511 806.447 L580.774 804.78 L585.45 804.78 L585.45 835.405 L593.089 835.405 L593.089 839.34 L573.182 839.34 L573.182 835.405 Z" fill="#000000" fill-rule="nonzero" fill-opacity="1" /><path clip-path="url(#clip560)" d="M602.534 833.46 L607.418 833.46 L607.418 839.34 L602.534 839.34 L602.534 833.46 Z" fill="#000000" fill-rule="nonzero" fill-opacity="1" /><path clip-path="url(#clip560)" d="M627.603 807.859 Q623.992 807.859 622.163 811.423 Q620.358 814.965 620.358 822.095 Q620.358 829.201 622.163 832.766 Q623.992 836.307 627.603 836.307 Q631.237 836.307 633.043 832.766 Q634.871 829.201 634.871 822.095 Q634.871 814.965 633.043 811.423 Q631.237 807.859 627.603 807.859 M627.603 804.155 Q633.413 804.155 636.469 808.761 Q639.547 813.345 639.547 822.095 Q639.547 830.821 636.469 835.428 Q633.413 840.011 627.603 840.011 Q621.793 840.011 618.714 835.428 Q615.659 830.821 615.659 822.095 Q615.659 813.345 618.714 808.761 Q621.793 804.155 627.603 804.155 Z" fill="#000000" fill-rule="nonzero" fill-opacity="1" /><path clip-path="url(#clip560)" d="M737.23 835.405 L744.869 835.405 L744.869 809.039 L736.559 810.706 L736.559 806.447 L744.823 804.78 L749.498 804.78 L749.498 835.405 L757.137 835.405 L757.137 839.34 L737.23 839.34 L737.23 835.405 Z" fill="#000000" fill-rule="nonzero" fill-opacity="1" /><path clip-path="url(#clip560)" d="M766.582 833.46 L771.466 833.46 L771.466 839.34 L766.582 839.34 L766.582 833.46 Z" fill="#000000" fill-rule="nonzero" fill-opacity="1" /><path clip-path="url(#clip560)" d="M781.697 804.78 L800.054 804.78 L800.054 808.715 L785.98 808.715 L785.98 817.187 Q786.998 816.84 788.017 816.678 Q789.035 816.493 790.054 816.493 Q795.841 816.493 799.22 819.664 Q802.6 822.835 802.6 828.252 Q802.6 833.831 799.128 836.932 Q795.656 840.011 789.336 840.011 Q787.16 840.011 784.892 839.641 Q782.646 839.27 780.239 838.53 L780.239 833.831 Q782.322 834.965 784.545 835.52 Q786.767 836.076 789.244 836.076 Q793.248 836.076 795.586 833.97 Q797.924 831.863 797.924 828.252 Q797.924 824.641 795.586 822.534 Q793.248 820.428 789.244 820.428 Q787.369 820.428 785.494 820.845 Q783.642 821.261 781.697 822.141 L781.697 804.78 Z" fill="#000000" fill-rule="nonzero" fill-opacity="1" /><path clip-path="url(#clip560)" d="M904.368 835.405 L920.688 835.405 L920.688 839.34 L898.743 839.34 L898.743 835.405 Q901.405 832.65 905.989 828.02 Q910.595 823.368 911.776 822.025 Q914.021 819.502 914.901 817.766 Q915.804 816.007 915.804 814.317 Q915.804 811.562 913.859 809.826 Q911.938 808.09 908.836 808.09 Q906.637 808.09 904.183 808.854 Q901.753 809.618 898.975 811.169 L898.975 806.447 Q901.799 805.312 904.253 804.734 Q906.706 804.155 908.743 804.155 Q914.114 804.155 917.308 806.84 Q920.503 809.525 920.503 814.016 Q920.503 816.146 919.692 818.067 Q918.905 819.965 916.799 822.558 Q916.22 823.229 913.118 826.446 Q910.017 829.641 904.368 835.405 Z" fill="#000000" fill-rule="nonzero" fill-opacity="1" /><path clip-path="url(#clip560)" d="M930.503 833.46 L935.387 833.46 L935.387 839.34 L930.503 839.34 L930.503 833.46 Z" fill="#000000" fill-rule="nonzero" fill-opacity="1" /><path clip-path="url(#clip560)" d="M955.572 807.859 Q951.961 807.859 950.132 811.423 Q948.327 814.965 948.327 822.095 Q948.327 829.201 950.132 832.766 Q951.961 836.307 955.572 836.307 Q959.206 836.307 961.012 832.766 Q962.84 829.201 962.84 822.095 Q962.84 814.965 961.012 811.423 Q959.206 807.859 955.572 807.859 M955.572 804.155 Q961.382 804.155 964.438 808.761 Q967.516 813.345 967.516 822.095 Q967.516 830.821 964.438 835.428 Q961.382 840.011 955.572 840.011 Q949.762 840.011 946.683 835.428 Q943.627 830.821 943.627 822.095 Q943.627 813.345 946.683 808.761 Q949.762 804.155 955.572 804.155 Z" fill="#000000" fill-rule="nonzero" fill-opacity="1" /><path clip-path="url(#clip560)" d="M619.627 905.789 Q619.627 906.401 618.918 906.466 L617.469 906.466 Q615.988 906.466 615.343 906.24 Q614.699 906.015 613.959 904.984 Q613.508 904.34 612.38 901.345 Q611.285 898.318 609.675 893.744 Q608.097 889.171 607.034 886.466 L591.157 905.21 Q590.062 906.594 588.967 906.594 Q588.162 906.594 587.582 906.047 Q587.002 905.499 587.002 904.662 Q587.002 904.05 587.228 903.696 Q587.485 903.342 588.162 902.633 L606.39 884.566 L599.981 866.627 Q598.757 863.31 598.049 862.472 Q597.373 861.635 595.698 861.345 Q595.086 861.184 595.086 860.669 Q595.086 859.96 596.278 859.96 Q602.654 859.96 604.329 864.63 L617.791 902.15 Q618.532 904.308 619.305 905.21 Q619.627 905.628 619.627 905.789 Z" fill="#000000" fill-rule="nonzero" fill-opacity="1" /><polyline clip-path="url(#clip560)" style="stroke:#000000; stroke-linecap:round; stroke-linejoin:round; stroke-width:4; stroke-opacity:1; fill:none" points="259.302,788.14 259.302,47.2441 "/>
<polyline clip-path="url(#clip560)" style="stroke:#000000; stroke-linecap:round; stroke-linejoin:round; stroke-width:4; stroke-opacity:1; fill:none" points="259.302,767.171 278.2,767.171 "/>
<polyline clip-path="url(#clip560)" style="stroke:#000000; stroke-linecap:round; stroke-linejoin:round; stroke-width:4; stroke-opacity:1; fill:none" points="259.302,552.767 278.2,552.767 "/>
<polyline clip-path="url(#clip560)" style="stroke:#000000; stroke-linecap:round; stroke-linejoin:round; stroke-width:4; stroke-opacity:1; fill:none" points="259.302,338.362 278.2,338.362 "/>
<polyline clip-path="url(#clip560)" style="stroke:#000000; stroke-linecap:round; stroke-linejoin:round; stroke-width:4; stroke-opacity:1; fill:none" points="259.302,123.958 278.2,123.958 "/>
<path clip-path="url(#clip560)" d="M156.965 752.97 Q153.353 752.97 151.525 756.535 Q149.719 760.076 149.719 767.206 Q149.719 774.312 151.525 777.877 Q153.353 781.419 156.965 781.419 Q160.599 781.419 162.404 777.877 Q164.233 774.312 164.233 767.206 Q164.233 760.076 162.404 756.535 Q160.599 752.97 156.965 752.97 M156.965 749.266 Q162.775 749.266 165.83 753.873 Q168.909 758.456 168.909 767.206 Q168.909 775.933 165.83 780.539 Q162.775 785.122 156.965 785.122 Q151.154 785.122 148.076 780.539 Q145.02 775.933 145.02 767.206 Q145.02 758.456 148.076 753.873 Q151.154 749.266 156.965 749.266 Z" fill="#000000" fill-rule="nonzero" fill-opacity="1" /><path clip-path="url(#clip560)" d="M177.126 778.571 L182.011 778.571 L182.011 784.451 L177.126 784.451 L177.126 778.571 Z" fill="#000000" fill-rule="nonzero" fill-opacity="1" /><path clip-path="url(#clip560)" d="M202.196 752.97 Q198.585 752.97 196.756 756.535 Q194.95 760.076 194.95 767.206 Q194.95 774.312 196.756 777.877 Q198.585 781.419 202.196 781.419 Q205.83 781.419 207.636 777.877 Q209.464 774.312 209.464 767.206 Q209.464 760.076 207.636 756.535 Q205.83 752.97 202.196 752.97 M202.196 749.266 Q208.006 749.266 211.061 753.873 Q214.14 758.456 214.14 767.206 Q214.14 775.933 211.061 780.539 Q208.006 785.122 202.196 785.122 Q196.386 785.122 193.307 780.539 Q190.251 775.933 190.251 767.206 Q190.251 758.456 193.307 753.873 Q196.386 749.266 202.196 749.266 Z" fill="#000000" fill-rule="nonzero" fill-opacity="1" /><path clip-path="url(#clip560)" d="M232.358 752.97 Q228.747 752.97 226.918 756.535 Q225.112 760.076 225.112 767.206 Q225.112 774.312 226.918 777.877 Q228.747 781.419 232.358 781.419 Q235.992 781.419 237.797 777.877 Q239.626 774.312 239.626 767.206 Q239.626 760.076 237.797 756.535 Q235.992 752.97 232.358 752.97 M232.358 749.266 Q238.168 749.266 241.223 753.873 Q244.302 758.456 244.302 767.206 Q244.302 775.933 241.223 780.539 Q238.168 785.122 232.358 785.122 Q226.547 785.122 223.469 780.539 Q220.413 775.933 220.413 767.206 Q220.413 758.456 223.469 753.873 Q226.547 749.266 232.358 749.266 Z" fill="#000000" fill-rule="nonzero" fill-opacity="1" /><path clip-path="url(#clip560)" d="M157.96 538.565 Q154.349 538.565 152.52 542.13 Q150.715 545.672 150.715 552.801 Q150.715 559.908 152.52 563.473 Q154.349 567.014 157.96 567.014 Q161.594 567.014 163.4 563.473 Q165.228 559.908 165.228 552.801 Q165.228 545.672 163.4 542.13 Q161.594 538.565 157.96 538.565 M157.96 534.862 Q163.77 534.862 166.826 539.468 Q169.904 544.051 169.904 552.801 Q169.904 561.528 166.826 566.135 Q163.77 570.718 157.96 570.718 Q152.15 570.718 149.071 566.135 Q146.016 561.528 146.016 552.801 Q146.016 544.051 149.071 539.468 Q152.15 534.862 157.96 534.862 Z" fill="#000000" fill-rule="nonzero" fill-opacity="1" /><path clip-path="url(#clip560)" d="M178.122 564.167 L183.006 564.167 L183.006 570.047 L178.122 570.047 L178.122 564.167 Z" fill="#000000" fill-rule="nonzero" fill-opacity="1" /><path clip-path="url(#clip560)" d="M203.191 538.565 Q199.58 538.565 197.751 542.13 Q195.946 545.672 195.946 552.801 Q195.946 559.908 197.751 563.473 Q199.58 567.014 203.191 567.014 Q206.825 567.014 208.631 563.473 Q210.46 559.908 210.46 552.801 Q210.46 545.672 208.631 542.13 Q206.825 538.565 203.191 538.565 M203.191 534.862 Q209.001 534.862 212.057 539.468 Q215.136 544.051 215.136 552.801 Q215.136 561.528 212.057 566.135 Q209.001 570.718 203.191 570.718 Q197.381 570.718 194.302 566.135 Q191.247 561.528 191.247 552.801 Q191.247 544.051 194.302 539.468 Q197.381 534.862 203.191 534.862 Z" fill="#000000" fill-rule="nonzero" fill-opacity="1" /><path clip-path="url(#clip560)" d="M223.399 535.487 L241.756 535.487 L241.756 539.422 L227.682 539.422 L227.682 547.894 Q228.7 547.547 229.719 547.385 Q230.737 547.2 231.756 547.2 Q237.543 547.2 240.922 550.371 Q244.302 553.542 244.302 558.959 Q244.302 564.537 240.83 567.639 Q237.358 570.718 231.038 570.718 Q228.862 570.718 226.594 570.348 Q224.348 569.977 221.941 569.237 L221.941 564.537 Q224.024 565.672 226.247 566.227 Q228.469 566.783 230.946 566.783 Q234.95 566.783 237.288 564.676 Q239.626 562.57 239.626 558.959 Q239.626 555.348 237.288 553.241 Q234.95 551.135 230.946 551.135 Q229.071 551.135 227.196 551.551 Q225.344 551.968 223.399 552.848 L223.399 535.487 Z" fill="#000000" fill-rule="nonzero" fill-opacity="1" /><path clip-path="url(#clip560)" d="M156.965 324.161 Q153.353 324.161 151.525 327.726 Q149.719 331.267 149.719 338.397 Q149.719 345.504 151.525 349.068 Q153.353 352.61 156.965 352.61 Q160.599 352.61 162.404 349.068 Q164.233 345.504 164.233 338.397 Q164.233 331.267 162.404 327.726 Q160.599 324.161 156.965 324.161 M156.965 320.457 Q162.775 320.457 165.83 325.064 Q168.909 329.647 168.909 338.397 Q168.909 347.124 165.83 351.73 Q162.775 356.314 156.965 356.314 Q151.154 356.314 148.076 351.73 Q145.02 347.124 145.02 338.397 Q145.02 329.647 148.076 325.064 Q151.154 320.457 156.965 320.457 Z" fill="#000000" fill-rule="nonzero" fill-opacity="1" /><path clip-path="url(#clip560)" d="M177.126 349.763 L182.011 349.763 L182.011 355.642 L177.126 355.642 L177.126 349.763 Z" fill="#000000" fill-rule="nonzero" fill-opacity="1" /><path clip-path="url(#clip560)" d="M193.006 351.707 L200.645 351.707 L200.645 325.342 L192.335 327.008 L192.335 322.749 L200.599 321.082 L205.274 321.082 L205.274 351.707 L212.913 351.707 L212.913 355.642 L193.006 355.642 L193.006 351.707 Z" fill="#000000" fill-rule="nonzero" fill-opacity="1" /><path clip-path="url(#clip560)" d="M232.358 324.161 Q228.747 324.161 226.918 327.726 Q225.112 331.267 225.112 338.397 Q225.112 345.504 226.918 349.068 Q228.747 352.61 232.358 352.61 Q235.992 352.61 237.797 349.068 Q239.626 345.504 239.626 338.397 Q239.626 331.267 237.797 327.726 Q235.992 324.161 232.358 324.161 M232.358 320.457 Q238.168 320.457 241.223 325.064 Q244.302 329.647 244.302 338.397 Q244.302 347.124 241.223 351.73 Q238.168 356.314 232.358 356.314 Q226.547 356.314 223.469 351.73 Q220.413 347.124 220.413 338.397 Q220.413 329.647 223.469 325.064 Q226.547 320.457 232.358 320.457 Z" fill="#000000" fill-rule="nonzero" fill-opacity="1" /><path clip-path="url(#clip560)" d="M157.96 109.757 Q154.349 109.757 152.52 113.321 Q150.715 116.863 150.715 123.993 Q150.715 131.099 152.52 134.664 Q154.349 138.206 157.96 138.206 Q161.594 138.206 163.4 134.664 Q165.228 131.099 165.228 123.993 Q165.228 116.863 163.4 113.321 Q161.594 109.757 157.96 109.757 M157.96 106.053 Q163.77 106.053 166.826 110.659 Q169.904 115.243 169.904 123.993 Q169.904 132.72 166.826 137.326 Q163.77 141.909 157.96 141.909 Q152.15 141.909 149.071 137.326 Q146.016 132.72 146.016 123.993 Q146.016 115.243 149.071 110.659 Q152.15 106.053 157.96 106.053 Z" fill="#000000" fill-rule="nonzero" fill-opacity="1" /><path clip-path="url(#clip560)" d="M178.122 135.358 L183.006 135.358 L183.006 141.238 L178.122 141.238 L178.122 135.358 Z" fill="#000000" fill-rule="nonzero" fill-opacity="1" /><path clip-path="url(#clip560)" d="M194.001 137.303 L201.64 137.303 L201.64 110.937 L193.33 112.604 L193.33 108.345 L201.594 106.678 L206.27 106.678 L206.27 137.303 L213.909 137.303 L213.909 141.238 L194.001 141.238 L194.001 137.303 Z" fill="#000000" fill-rule="nonzero" fill-opacity="1" /><path clip-path="url(#clip560)" d="M223.399 106.678 L241.756 106.678 L241.756 110.613 L227.682 110.613 L227.682 119.085 Q228.7 118.738 229.719 118.576 Q230.737 118.391 231.756 118.391 Q237.543 118.391 240.922 121.562 Q244.302 124.733 244.302 130.15 Q244.302 135.729 240.83 138.831 Q237.358 141.909 231.038 141.909 Q228.862 141.909 226.594 141.539 Q224.348 141.169 221.941 140.428 L221.941 135.729 Q224.024 136.863 226.247 137.419 Q228.469 137.974 230.946 137.974 Q234.95 137.974 237.288 135.868 Q239.626 133.761 239.626 130.15 Q239.626 126.539 237.288 124.433 Q234.95 122.326 230.946 122.326 Q229.071 122.326 227.196 122.743 Q225.344 123.159 223.399 124.039 L223.399 106.678 Z" fill="#000000" fill-rule="nonzero" fill-opacity="1" /><path clip-path="url(#clip560)" d="M68.2442 581.895 L68.2442 554.586 L73.655 554.586 L73.655 575.466 L87.6596 575.466 L87.6596 556.624 L93.0704 556.624 L93.0704 575.466 L115.764 575.466 L115.764 581.895 L68.2442 581.895 Z" fill="#000000" fill-rule="nonzero" fill-opacity="1" /><path clip-path="url(#clip560)" d="M85.5907 528.742 Q85.0178 529.728 84.7632 530.906 Q84.4767 532.052 84.4767 533.452 Q84.4767 538.418 87.7232 541.091 Q90.9379 543.733 96.9853 543.733 L115.764 543.733 L115.764 549.621 L80.1162 549.621 L80.1162 543.733 L85.6544 543.733 Q82.4079 541.887 80.8483 538.927 Q79.2568 535.967 79.2568 531.734 Q79.2568 531.129 79.3523 530.397 Q79.416 529.665 79.5751 528.774 L85.5907 528.742 Z" fill="#000000" fill-rule="nonzero" fill-opacity="1" /><path clip-path="url(#clip560)" d="M96.4761 493.539 L99.3406 493.539 L99.3406 520.466 Q105.388 520.084 108.571 516.838 Q111.722 513.56 111.722 507.735 Q111.722 504.361 110.894 501.21 Q110.067 498.027 108.412 494.908 L113.95 494.908 Q115.287 498.059 115.987 501.369 Q116.687 504.679 116.687 508.085 Q116.687 516.615 111.722 521.612 Q106.757 526.577 98.2903 526.577 Q89.5374 526.577 84.4131 521.867 Q79.2568 517.124 79.2568 509.104 Q79.2568 501.91 83.9038 497.741 Q88.5189 493.539 96.4761 493.539 M94.7573 499.396 Q89.9512 499.459 87.0866 502.101 Q84.2221 504.711 84.2221 509.04 Q84.2221 513.941 86.9912 516.902 Q89.7602 519.83 94.7892 520.275 L94.7573 499.396 Z" fill="#000000" fill-rule="nonzero" fill-opacity="1" /><path clip-path="url(#clip560)" d="M97.972 480.426 Q104.433 480.426 108.125 477.784 Q111.786 475.111 111.786 470.464 Q111.786 465.817 108.125 463.143 Q104.433 460.47 97.972 460.47 Q91.5108 460.47 87.8505 463.143 Q84.1584 465.817 84.1584 470.464 Q84.1584 475.111 87.8505 477.784 Q91.5108 480.426 97.972 480.426 M110.417 460.47 Q113.6 462.316 115.159 465.148 Q116.687 467.949 116.687 471.896 Q116.687 478.357 111.531 482.431 Q106.375 486.473 97.972 486.473 Q89.5693 486.473 84.4131 482.431 Q79.2568 478.357 79.2568 471.896 Q79.2568 467.949 80.8164 465.148 Q82.3442 462.316 85.5271 460.47 L80.1162 460.47 L80.1162 454.613 L129.323 454.613 L129.323 460.47 L110.417 460.47 Z" fill="#000000" fill-rule="nonzero" fill-opacity="1" /><path clip-path="url(#clip560)" d="M101.696 443.155 L80.1162 443.155 L80.1162 437.298 L101.473 437.298 Q106.534 437.298 109.08 435.325 Q111.595 433.352 111.595 429.405 Q111.595 424.662 108.571 421.925 Q105.547 419.156 100.327 419.156 L80.1162 419.156 L80.1162 413.3 L115.764 413.3 L115.764 419.156 L110.29 419.156 Q113.536 421.289 115.128 424.121 Q116.687 426.922 116.687 430.646 Q116.687 436.789 112.868 439.972 Q109.048 443.155 101.696 443.155 M79.2568 428.418 L79.2568 428.418 Z" fill="#000000" fill-rule="nonzero" fill-opacity="1" /><path clip-path="url(#clip560)" d="M96.4761 370.745 L99.3406 370.745 L99.3406 397.672 Q105.388 397.29 108.571 394.043 Q111.722 390.765 111.722 384.94 Q111.722 381.567 110.894 378.416 Q110.067 375.233 108.412 372.114 L113.95 372.114 Q115.287 375.265 115.987 378.575 Q116.687 381.885 116.687 385.291 Q116.687 393.821 111.722 398.818 Q106.757 403.783 98.2903 403.783 Q89.5374 403.783 84.4131 399.072 Q79.2568 394.33 79.2568 386.309 Q79.2568 379.116 83.9038 374.946 Q88.5189 370.745 96.4761 370.745 M94.7573 376.601 Q89.9512 376.665 87.0866 379.307 Q84.2221 381.917 84.2221 386.245 Q84.2221 391.147 86.9912 394.107 Q89.7602 397.035 94.7892 397.481 L94.7573 376.601 Z" fill="#000000" fill-rule="nonzero" fill-opacity="1" /><path clip-path="url(#clip560)" d="M94.2481 331.5 L115.764 331.5 L115.764 337.357 L94.439 337.357 Q89.3783 337.357 86.8638 339.33 Q84.3494 341.303 84.3494 345.25 Q84.3494 349.993 87.3731 352.73 Q90.3968 355.467 95.6167 355.467 L115.764 355.467 L115.764 361.355 L80.1162 361.355 L80.1162 355.467 L85.6544 355.467 Q82.4397 353.367 80.8483 350.534 Q79.2568 347.669 79.2568 343.945 Q79.2568 337.802 83.0763 334.651 Q86.8638 331.5 94.2481 331.5 Z" fill="#000000" fill-rule="nonzero" fill-opacity="1" /><path clip-path="url(#clip560)" d="M81.4848 294.165 L86.9593 294.165 Q85.5907 296.648 84.9223 299.163 Q84.2221 301.645 84.2221 304.191 Q84.2221 309.889 87.8505 313.04 Q91.4472 316.191 97.972 316.191 Q104.497 316.191 108.125 313.04 Q111.722 309.889 111.722 304.191 Q111.722 301.645 111.054 299.163 Q110.353 296.648 108.985 294.165 L114.396 294.165 Q115.541 296.616 116.114 299.258 Q116.687 301.868 116.687 304.828 Q116.687 312.881 111.626 317.623 Q106.566 322.366 97.972 322.366 Q89.251 322.366 84.2539 317.591 Q79.2568 312.785 79.2568 304.446 Q79.2568 301.741 79.8297 299.163 Q80.3708 296.584 81.4848 294.165 Z" fill="#000000" fill-rule="nonzero" fill-opacity="1" /><path clip-path="url(#clip560)" d="M119.074 269.148 Q125.44 271.631 127.382 273.986 Q129.323 276.341 129.323 280.288 L129.323 284.967 L124.422 284.967 L124.422 281.53 Q124.422 279.111 123.276 277.774 Q122.13 276.437 117.865 274.814 L115.191 273.763 L80.1162 288.182 L80.1162 281.975 L107.998 270.835 L80.1162 259.695 L80.1162 253.489 L119.074 269.148 Z" fill="#000000" fill-rule="nonzero" fill-opacity="1" /><path clip-path="url(#clip562)" d="M278.928 767.171 L278.928 737.154 L306.186 737.154 L306.186 728.578 L333.445 728.578 L333.445 702.85 L360.703 702.85 L360.703 672.833 L387.962 672.833 L387.962 659.969 L415.22 659.969 L415.22 655.681 L442.479 655.681 L442.479 638.528 L469.737 638.528 L469.737 621.376 L496.995 621.376 L496.995 599.936 L524.254 599.936 L524.254 561.343 L551.512 561.343 L551.512 518.462 L578.771 518.462 L578.771 449.853 L606.029 449.853 L606.029 342.65 L633.287 342.65 L633.287 68.2128 L660.546 68.2128 L660.546 196.855 L687.804 196.855 L687.804 316.922 L715.063 316.922 L715.063 475.581 L742.321 475.581 L742.321 629.952 L769.579 629.952 L769.579 715.714 L796.838 715.714 L796.838 767.171 L824.096 767.171 L824.096 762.883 L851.355 762.883 L851.355 767.171 L878.613 767.171 L878.613 767.171 L905.871 767.171 L905.871 767.171 L933.13 767.171 L933.13 767.171 L905.871 767.171 L905.871 767.171 L878.613 767.171 L878.613 767.171 L851.355 767.171 L851.355 767.171 L824.096 767.171 L824.096 767.171 L796.838 767.171 L796.838 767.171 L769.579 767.171 L769.579 767.171 L742.321 767.171 L742.321 767.171 L715.063 767.171 L715.063 767.171 L687.804 767.171 L687.804 767.171 L660.546 767.171 L660.546 767.171 L633.287 767.171 L633.287 767.171 L606.029 767.171 L606.029 767.171 L578.771 767.171 L578.771 767.171 L551.512 767.171 L551.512 767.171 L524.254 767.171 L524.254 767.171 L496.995 767.171 L496.995 767.171 L469.737 767.171 L469.737 767.171 L442.479 767.171 L442.479 767.171 L415.22 767.171 L415.22 767.171 L387.962 767.171 L387.962 767.171 L360.703 767.171 L360.703 767.171 L333.445 767.171 L333.445 767.171 L306.186 767.171 L306.186 767.171 L278.928 767.171 L278.928 767.171  Z" fill="#377db8" fill-rule="evenodd" fill-opacity="0.5"/>
<polyline clip-path="url(#clip562)" style="stroke:#377db8; stroke-linecap:round; stroke-linejoin:round; stroke-width:4; stroke-opacity:0.5; fill:none" points="278.928,767.171 278.928,737.154 306.186,737.154 306.186,728.578 333.445,728.578 333.445,702.85 360.703,702.85 360.703,672.833 387.962,672.833 387.962,659.969 415.22,659.969 415.22,655.681 442.479,655.681 442.479,638.528 469.737,638.528 469.737,621.376 496.995,621.376 496.995,599.936 524.254,599.936 524.254,561.343 551.512,561.343 551.512,518.462 578.771,518.462 578.771,449.853 606.029,449.853 606.029,342.65 633.287,342.65 633.287,68.2128 660.546,68.2128 660.546,196.855 687.804,196.855 687.804,316.922 715.063,316.922 715.063,475.581 742.321,475.581 742.321,629.952 769.579,629.952 769.579,715.714 796.838,715.714 796.838,767.171 824.096,767.171 824.096,762.883 851.355,762.883 851.355,767.171 878.613,767.171 905.871,767.171 933.13,767.171 "/>
<path clip-path="url(#clip562)" d="M278.928 767.171 L278.928 664.257 L306.186 664.257 L306.186 612.8 L333.445 612.8 L333.445 621.376 L360.703 621.376 L360.703 599.936 L387.962 599.936 L387.962 604.224 L415.22 604.224 L415.22 617.088 L442.479 617.088 L442.479 617.088 L469.737 617.088 L469.737 617.088 L496.995 617.088 L496.995 621.376 L524.254 621.376 L524.254 612.8 L551.512 612.8 L551.512 591.36 L578.771 591.36 L578.771 552.767 L606.029 552.767 L606.029 467.005 L633.287 467.005 L633.287 376.955 L660.546 376.955 L660.546 458.429 L687.804 458.429 L687.804 557.055 L715.063 557.055 L715.063 548.479 L742.321 548.479 L742.321 535.614 L769.579 535.614 L769.579 552.767 L796.838 552.767 L796.838 599.936 L824.096 599.936 L824.096 608.512 L851.355 608.512 L851.355 664.257 L878.613 664.257 L878.613 702.85 L905.871 702.85 L905.871 724.29 L933.13 724.29 L933.13 767.171 L933.13 767.171 L933.13 767.171 L905.871 767.171 L905.871 767.171 L878.613 767.171 L878.613 767.171 L851.355 767.171 L851.355 767.171 L824.096 767.171 L824.096 767.171 L796.838 767.171 L796.838 767.171 L769.579 767.171 L769.579 767.171 L742.321 767.171 L742.321 767.171 L715.063 767.171 L715.063 767.171 L687.804 767.171 L687.804 767.171 L660.546 767.171 L660.546 767.171 L633.287 767.171 L633.287 767.171 L606.029 767.171 L606.029 767.171 L578.771 767.171 L578.771 767.171 L551.512 767.171 L551.512 767.171 L524.254 767.171 L524.254 767.171 L496.995 767.171 L496.995 767.171 L469.737 767.171 L469.737 767.171 L442.479 767.171 L442.479 767.171 L415.22 767.171 L415.22 767.171 L387.962 767.171 L387.962 767.171 L360.703 767.171 L360.703 767.171 L333.445 767.171 L333.445 767.171 L306.186 767.171 L306.186 767.171 L278.928 767.171 L278.928 767.171  Z" fill="#e31a1c" fill-rule="evenodd" fill-opacity="0.5"/>
<polyline clip-path="url(#clip562)" style="stroke:#e31a1c; stroke-linecap:round; stroke-linejoin:round; stroke-width:4; stroke-opacity:0.5; fill:none" points="278.928,767.171 278.928,664.257 306.186,664.257 306.186,612.8 333.445,612.8 333.445,621.376 360.703,621.376 360.703,599.936 387.962,599.936 387.962,604.224 415.22,604.224 415.22,617.088 442.479,617.088 469.737,617.088 496.995,617.088 496.995,621.376 524.254,621.376 524.254,612.8 551.512,612.8 551.512,591.36 578.771,591.36 578.771,552.767 606.029,552.767 606.029,467.005 633.287,467.005 633.287,376.955 660.546,376.955 660.546,458.429 687.804,458.429 687.804,557.055 715.063,557.055 715.063,548.479 742.321,548.479 742.321,535.614 769.579,535.614 769.579,552.767 796.838,552.767 796.838,599.936 824.096,599.936 824.096,608.512 851.355,608.512 851.355,664.257 878.613,664.257 878.613,702.85 905.871,702.85 905.871,724.29 933.13,724.29 933.13,767.171 "/>
<polyline clip-path="url(#clip562)" style="stroke:#000000; stroke-linecap:round; stroke-linejoin:round; stroke-width:4; stroke-opacity:1; fill:none" stroke-dasharray="16, 10" points="311.638,1529.04 311.638,-693.652 "/>
</svg>
