<?xml version="1.0" encoding="utf-8"?>
<svg xmlns="http://www.w3.org/2000/svg" xmlns:xlink="http://www.w3.org/1999/xlink" width="300" height="250" viewBox="0 0 1200 1000">
<defs>
  <clipPath id="clip190">
    <rect x="0" y="0" width="1200" height="1000"/>
  </clipPath>
</defs>
<path clip-path="url(#clip190)" d="M0 1000 L1200 1000 L1200 0 L0 0  Z" fill="#ffffff" fill-rule="evenodd" fill-opacity="1"/>
<defs>
  <clipPath id="clip191">
    <rect x="240" y="0" width="841" height="841"/>
  </clipPath>
</defs>
<path clip-path="url(#clip190)" d="M313.506 793.306 L1152.76 793.306 L1152.76 47.2441 L313.506 47.2441  Z" fill="#ffffff" fill-rule="evenodd" fill-opacity="1"/>
<defs>
  <clipPath id="clip192">
    <rect x="313" y="47" width="840" height="747"/>
  </clipPath>
</defs>
<polyline clip-path="url(#clip192)" style="stroke:#000000; stroke-linecap:round; stroke-linejoin:round; stroke-width:2; stroke-opacity:0.1; fill:none" points="540.41,793.306 540.41,47.2441 "/>
<polyline clip-path="url(#clip192)" style="stroke:#000000; stroke-linecap:round; stroke-linejoin:round; stroke-width:2; stroke-opacity:0.1; fill:none" points="908.104,793.306 908.104,47.2441 "/>
<polyline clip-path="url(#clip192)" style="stroke:#000000; stroke-linecap:round; stroke-linejoin:round; stroke-width:2; stroke-opacity:0.1; fill:none" points="313.506,592.804 1152.76,592.804 "/>
<polyline clip-path="url(#clip192)" style="stroke:#000000; stroke-linecap:round; stroke-linejoin:round; stroke-width:2; stroke-opacity:0.1; fill:none" points="313.506,340.88 1152.76,340.88 "/>
<polyline clip-path="url(#clip192)" style="stroke:#000000; stroke-linecap:round; stroke-linejoin:round; stroke-width:2; stroke-opacity:0.1; fill:none" points="313.506,88.9554 1152.76,88.9554 "/>
<polyline clip-path="url(#clip190)" style="stroke:#000000; stroke-linecap:round; stroke-linejoin:round; stroke-width:4; stroke-opacity:1; fill:none" points="313.506,793.306 1152.76,793.306 "/>
<polyline clip-path="url(#clip190)" style="stroke:#000000; stroke-linecap:round; stroke-linejoin:round; stroke-width:4; stroke-opacity:1; fill:none" points="540.41,793.306 540.41,774.408 "/>
<polyline clip-path="url(#clip190)" style="stroke:#000000; stroke-linecap:round; stroke-linejoin:round; stroke-width:4; stroke-opacity:1; fill:none" points="908.104,793.306 908.104,774.408 "/>
<path clip-path="url(#clip190)" d="M506.738 857.831 L514.377 857.831 L514.377 831.465 L506.066 833.132 L506.066 828.873 L514.33 827.206 L519.006 827.206 L519.006 857.831 L526.645 857.831 L526.645 861.766 L506.738 861.766 L506.738 857.831 Z" fill="#000000" fill-rule="nonzero" fill-opacity="1" /><path clip-path="url(#clip190)" d="M546.089 830.285 Q542.478 830.285 540.65 833.849 Q538.844 837.391 538.844 844.521 Q538.844 851.627 540.65 855.192 Q542.478 858.733 546.089 858.733 Q549.724 858.733 551.529 855.192 Q553.358 851.627 553.358 844.521 Q553.358 837.391 551.529 833.849 Q549.724 830.285 546.089 830.285 M546.089 826.581 Q551.9 826.581 554.955 831.187 Q558.034 835.771 558.034 844.521 Q558.034 853.247 554.955 857.854 Q551.9 862.437 546.089 862.437 Q540.279 862.437 537.201 857.854 Q534.145 853.247 534.145 844.521 Q534.145 835.771 537.201 831.187 Q540.279 826.581 546.089 826.581 Z" fill="#000000" fill-rule="nonzero" fill-opacity="1" /><path clip-path="url(#clip190)" d="M558.579 831.158 L564.786 831.158 L564.786 809.736 L558.034 811.09 L558.034 807.63 L564.748 806.275 L568.547 806.275 L568.547 831.158 L574.754 831.158 L574.754 834.355 L558.579 834.355 L558.579 831.158 Z" fill="#000000" fill-rule="nonzero" fill-opacity="1" /><path clip-path="url(#clip190)" d="M873.877 857.831 L881.516 857.831 L881.516 831.465 L873.206 833.132 L873.206 828.873 L881.47 827.206 L886.146 827.206 L886.146 857.831 L893.784 857.831 L893.784 861.766 L873.877 861.766 L873.877 857.831 Z" fill="#000000" fill-rule="nonzero" fill-opacity="1" /><path clip-path="url(#clip190)" d="M913.229 830.285 Q909.618 830.285 907.789 833.849 Q905.983 837.391 905.983 844.521 Q905.983 851.627 907.789 855.192 Q909.618 858.733 913.229 858.733 Q916.863 858.733 918.669 855.192 Q920.497 851.627 920.497 844.521 Q920.497 837.391 918.669 833.849 Q916.863 830.285 913.229 830.285 M913.229 826.581 Q919.039 826.581 922.094 831.187 Q925.173 835.771 925.173 844.521 Q925.173 853.247 922.094 857.854 Q919.039 862.437 913.229 862.437 Q907.419 862.437 904.34 857.854 Q901.284 853.247 901.284 844.521 Q901.284 835.771 904.34 831.187 Q907.419 826.581 913.229 826.581 Z" fill="#000000" fill-rule="nonzero" fill-opacity="1" /><path clip-path="url(#clip190)" d="M929.743 831.158 L943.003 831.158 L943.003 834.355 L925.173 834.355 L925.173 831.158 Q927.336 828.92 931.06 825.158 Q934.803 821.378 935.762 820.287 Q937.586 818.237 938.301 816.827 Q939.035 815.397 939.035 814.024 Q939.035 811.786 937.455 810.376 Q935.894 808.965 933.373 808.965 Q931.587 808.965 929.593 809.586 Q927.618 810.206 925.361 811.466 L925.361 807.63 Q927.656 806.708 929.649 806.238 Q931.643 805.768 933.298 805.768 Q937.662 805.768 940.257 807.949 Q942.852 810.131 942.852 813.78 Q942.852 815.51 942.194 817.071 Q941.555 818.613 939.843 820.72 Q939.373 821.265 936.853 823.88 Q934.333 826.475 929.743 831.158 Z" fill="#000000" fill-rule="nonzero" fill-opacity="1" /><path clip-path="url(#clip190)" d="M582.152 896.358 L582.152 914.214 L590.237 914.214 Q594.725 914.214 597.175 911.891 Q599.626 909.567 599.626 905.27 Q599.626 901.005 597.175 898.682 Q594.725 896.358 590.237 896.358 L582.152 896.358 M575.723 891.075 L590.237 891.075 Q598.226 891.075 602.3 894.703 Q606.406 898.3 606.406 905.27 Q606.406 912.304 602.3 915.901 Q598.226 919.498 590.237 919.498 L582.152 919.498 L582.152 938.595 L575.723 938.595 L575.723 891.075 Z" fill="#000000" fill-rule="nonzero" fill-opacity="1" /><path clip-path="url(#clip190)" d="M642.945 919.307 L642.945 922.171 L616.018 922.171 Q616.4 928.219 619.646 931.401 Q622.925 934.552 628.749 934.552 Q632.123 934.552 635.274 933.725 Q638.457 932.897 641.576 931.242 L641.576 936.78 Q638.425 938.117 635.115 938.817 Q631.805 939.518 628.399 939.518 Q619.869 939.518 614.872 934.552 Q609.907 929.587 609.907 921.121 Q609.907 912.368 614.617 907.244 Q619.36 902.087 627.381 902.087 Q634.574 902.087 638.743 906.734 Q642.945 911.349 642.945 919.307 M637.088 917.588 Q637.025 912.782 634.383 909.917 Q631.773 907.053 627.444 907.053 Q622.543 907.053 619.583 909.822 Q616.654 912.591 616.209 917.62 L637.088 917.588 Z" fill="#000000" fill-rule="nonzero" fill-opacity="1" /><path clip-path="url(#clip190)" d="M673.214 908.421 Q672.227 907.848 671.049 907.594 Q669.904 907.307 668.503 907.307 Q663.538 907.307 660.864 910.554 Q658.222 913.768 658.222 919.816 L658.222 938.595 L652.334 938.595 L652.334 902.947 L658.222 902.947 L658.222 908.485 Q660.069 905.238 663.029 903.679 Q665.989 902.087 670.222 902.087 Q670.827 902.087 671.559 902.183 Q672.291 902.246 673.182 902.406 L673.214 908.421 Z" fill="#000000" fill-rule="nonzero" fill-opacity="1" /><path clip-path="url(#clip190)" d="M685.022 933.247 L685.022 952.154 L679.134 952.154 L679.134 902.947 L685.022 902.947 L685.022 908.358 Q686.868 905.175 689.669 903.647 Q692.502 902.087 696.417 902.087 Q702.91 902.087 706.952 907.244 Q711.026 912.4 711.026 920.802 Q711.026 929.205 706.952 934.361 Q702.91 939.518 696.417 939.518 Q692.502 939.518 689.669 937.99 Q686.868 936.43 685.022 933.247 M704.947 920.802 Q704.947 914.341 702.273 910.681 Q699.631 906.989 694.984 906.989 Q690.337 906.989 687.664 910.681 Q685.022 914.341 685.022 920.802 Q685.022 927.264 687.664 930.956 Q690.337 934.616 694.984 934.616 Q699.631 934.616 702.273 930.956 Q704.947 927.264 704.947 920.802 Z" fill="#000000" fill-rule="nonzero" fill-opacity="1" /><path clip-path="url(#clip190)" d="M720.734 889.069 L726.59 889.069 L726.59 938.595 L720.734 938.595 L720.734 889.069 Z" fill="#000000" fill-rule="nonzero" fill-opacity="1" /><path clip-path="url(#clip190)" d="M769.336 919.307 L769.336 922.171 L742.409 922.171 Q742.791 928.219 746.037 931.401 Q749.316 934.552 755.14 934.552 Q758.514 934.552 761.665 933.725 Q764.848 932.897 767.967 931.242 L767.967 936.78 Q764.816 938.117 761.506 938.817 Q758.196 939.518 754.79 939.518 Q746.26 939.518 741.263 934.552 Q736.298 929.587 736.298 921.121 Q736.298 912.368 741.008 907.244 Q745.751 902.087 753.772 902.087 Q760.965 902.087 765.134 906.734 Q769.336 911.349 769.336 919.307 M763.479 917.588 Q763.416 912.782 760.774 909.917 Q758.164 907.053 753.835 907.053 Q748.934 907.053 745.974 909.822 Q743.045 912.591 742.6 917.62 L763.479 917.588 Z" fill="#000000" fill-rule="nonzero" fill-opacity="1" /><path clip-path="url(#clip190)" d="M807.435 902.947 L794.544 920.293 L808.103 938.595 L801.196 938.595 L790.82 924.59 L780.444 938.595 L773.537 938.595 L787.383 919.943 L774.715 902.947 L781.622 902.947 L791.075 915.646 L800.528 902.947 L807.435 902.947 Z" fill="#000000" fill-rule="nonzero" fill-opacity="1" /><path clip-path="url(#clip190)" d="M816.378 902.947 L822.235 902.947 L822.235 938.595 L816.378 938.595 L816.378 902.947 M816.378 889.069 L822.235 889.069 L822.235 896.485 L816.378 896.485 L816.378 889.069 Z" fill="#000000" fill-rule="nonzero" fill-opacity="1" /><path clip-path="url(#clip190)" d="M840.282 892.825 L840.282 902.947 L852.345 902.947 L852.345 907.498 L840.282 907.498 L840.282 926.85 Q840.282 931.21 841.459 932.452 Q842.669 933.693 846.329 933.693 L852.345 933.693 L852.345 938.595 L846.329 938.595 Q839.55 938.595 836.971 936.08 Q834.393 933.534 834.393 926.85 L834.393 907.498 L830.097 907.498 L830.097 902.947 L834.393 902.947 L834.393 892.825 L840.282 892.825 Z" fill="#000000" fill-rule="nonzero" fill-opacity="1" /><path clip-path="url(#clip190)" d="M874.879 941.905 Q872.397 948.271 870.041 950.212 Q867.686 952.154 863.739 952.154 L859.06 952.154 L859.06 947.252 L862.498 947.252 Q864.917 947.252 866.254 946.106 Q867.591 944.96 869.214 940.695 L870.264 938.022 L855.846 902.947 L862.052 902.947 L873.192 930.828 L884.332 902.947 L890.539 902.947 L874.879 941.905 Z" fill="#000000" fill-rule="nonzero" fill-opacity="1" /><polyline clip-path="url(#clip190)" style="stroke:#000000; stroke-linecap:round; stroke-linejoin:round; stroke-width:4; stroke-opacity:1; fill:none" points="313.506,793.306 313.506,47.2441 "/>
<polyline clip-path="url(#clip190)" style="stroke:#000000; stroke-linecap:round; stroke-linejoin:round; stroke-width:4; stroke-opacity:1; fill:none" points="313.506,592.804 332.404,592.804 "/>
<polyline clip-path="url(#clip190)" style="stroke:#000000; stroke-linecap:round; stroke-linejoin:round; stroke-width:4; stroke-opacity:1; fill:none" points="313.506,340.88 332.404,340.88 "/>
<polyline clip-path="url(#clip190)" style="stroke:#000000; stroke-linecap:round; stroke-linejoin:round; stroke-width:4; stroke-opacity:1; fill:none" points="313.506,88.9554 332.404,88.9554 "/>
<path clip-path="url(#clip190)" d="M132.811 612.597 L140.45 612.597 L140.45 586.231 L132.14 587.898 L132.14 583.638 L140.404 581.972 L145.08 581.972 L145.08 612.597 L152.719 612.597 L152.719 616.532 L132.811 616.532 L132.811 612.597 Z" fill="#000000" fill-rule="nonzero" fill-opacity="1" /><path clip-path="url(#clip190)" d="M172.163 585.051 Q168.552 585.051 166.723 588.615 Q164.918 592.157 164.918 599.287 Q164.918 606.393 166.723 609.958 Q168.552 613.499 172.163 613.499 Q175.797 613.499 177.603 609.958 Q179.432 606.393 179.432 599.287 Q179.432 592.157 177.603 588.615 Q175.797 585.051 172.163 585.051 M172.163 581.347 Q177.973 581.347 181.029 585.953 Q184.107 590.537 184.107 599.287 Q184.107 608.013 181.029 612.62 Q177.973 617.203 172.163 617.203 Q166.353 617.203 163.274 612.62 Q160.219 608.013 160.219 599.287 Q160.219 590.537 163.274 585.953 Q166.353 581.347 172.163 581.347 Z" fill="#000000" fill-rule="nonzero" fill-opacity="1" /><path clip-path="url(#clip190)" d="M184.107 575.448 L208.219 575.448 L208.219 578.646 L184.107 578.646 L184.107 575.448 Z" fill="#000000" fill-rule="nonzero" fill-opacity="1" /><path clip-path="url(#clip190)" d="M224.544 563.543 Q221.61 563.543 220.124 566.439 Q218.657 569.317 218.657 575.11 Q218.657 580.884 220.124 583.78 Q221.61 586.658 224.544 586.658 Q227.497 586.658 228.964 583.78 Q230.45 580.884 230.45 575.11 Q230.45 569.317 228.964 566.439 Q227.497 563.543 224.544 563.543 M224.544 560.534 Q229.265 560.534 231.748 564.276 Q234.249 568 234.249 575.11 Q234.249 582.2 231.748 585.943 Q229.265 589.667 224.544 589.667 Q219.823 589.667 217.322 585.943 Q214.839 582.2 214.839 575.11 Q214.839 568 217.322 564.276 Q219.823 560.534 224.544 560.534 Z" fill="#000000" fill-rule="nonzero" fill-opacity="1" /><path clip-path="url(#clip190)" d="M240.926 584.344 L244.894 584.344 L244.894 589.121 L240.926 589.121 L240.926 584.344 Z" fill="#000000" fill-rule="nonzero" fill-opacity="1" /><path clip-path="url(#clip190)" d="M253.207 561.041 L268.122 561.041 L268.122 564.239 L256.687 564.239 L256.687 571.122 Q257.514 570.84 258.342 570.709 Q259.169 570.558 259.997 570.558 Q264.699 570.558 267.445 573.135 Q270.191 575.711 270.191 580.113 Q270.191 584.645 267.369 587.165 Q264.548 589.667 259.414 589.667 Q257.646 589.667 255.803 589.366 Q253.978 589.065 252.022 588.463 L252.022 584.645 Q253.715 585.567 255.521 586.018 Q257.326 586.47 259.339 586.47 Q262.592 586.47 264.492 584.758 Q266.391 583.047 266.391 580.113 Q266.391 577.179 264.492 575.467 Q262.592 573.755 259.339 573.755 Q257.815 573.755 256.292 574.094 Q254.787 574.433 253.207 575.147 L253.207 561.041 Z" fill="#000000" fill-rule="nonzero" fill-opacity="1" /><path clip-path="url(#clip190)" d="M285.801 563.543 Q282.867 563.543 281.381 566.439 Q279.914 569.317 279.914 575.11 Q279.914 580.884 281.381 583.78 Q282.867 586.658 285.801 586.658 Q288.754 586.658 290.221 583.78 Q291.707 580.884 291.707 575.11 Q291.707 569.317 290.221 566.439 Q288.754 563.543 285.801 563.543 M285.801 560.534 Q290.522 560.534 293.004 564.276 Q295.506 568 295.506 575.11 Q295.506 582.2 293.004 585.943 Q290.522 589.667 285.801 589.667 Q281.08 589.667 278.579 585.943 Q276.096 582.2 276.096 575.11 Q276.096 568 278.579 564.276 Q281.08 560.534 285.801 560.534 Z" fill="#000000" fill-rule="nonzero" fill-opacity="1" /><path clip-path="url(#clip190)" d="M133.62 360.672 L141.259 360.672 L141.259 334.307 L132.949 335.973 L132.949 331.714 L141.213 330.047 L145.889 330.047 L145.889 360.672 L153.527 360.672 L153.527 364.607 L133.62 364.607 L133.62 360.672 Z" fill="#000000" fill-rule="nonzero" fill-opacity="1" /><path clip-path="url(#clip190)" d="M172.972 333.126 Q169.361 333.126 167.532 336.691 Q165.726 340.233 165.726 347.362 Q165.726 354.469 167.532 358.033 Q169.361 361.575 172.972 361.575 Q176.606 361.575 178.412 358.033 Q180.24 354.469 180.24 347.362 Q180.24 340.233 178.412 336.691 Q176.606 333.126 172.972 333.126 M172.972 329.422 Q178.782 329.422 181.838 334.029 Q184.916 338.612 184.916 347.362 Q184.916 356.089 181.838 360.695 Q178.782 365.279 172.972 365.279 Q167.162 365.279 164.083 360.695 Q161.027 356.089 161.027 347.362 Q161.027 338.612 164.083 334.029 Q167.162 329.422 172.972 329.422 Z" fill="#000000" fill-rule="nonzero" fill-opacity="1" /><path clip-path="url(#clip190)" d="M184.916 323.524 L209.028 323.524 L209.028 326.721 L184.916 326.721 L184.916 323.524 Z" fill="#000000" fill-rule="nonzero" fill-opacity="1" /><path clip-path="url(#clip190)" d="M225.353 311.618 Q222.419 311.618 220.933 314.515 Q219.466 317.392 219.466 323.185 Q219.466 328.959 220.933 331.856 Q222.419 334.733 225.353 334.733 Q228.306 334.733 229.773 331.856 Q231.259 328.959 231.259 323.185 Q231.259 317.392 229.773 314.515 Q228.306 311.618 225.353 311.618 M225.353 308.609 Q230.074 308.609 232.556 312.352 Q235.058 316.076 235.058 323.185 Q235.058 330.276 232.556 334.019 Q230.074 337.742 225.353 337.742 Q220.632 337.742 218.131 334.019 Q215.648 330.276 215.648 323.185 Q215.648 316.076 218.131 312.352 Q220.632 308.609 225.353 308.609 Z" fill="#000000" fill-rule="nonzero" fill-opacity="1" /><path clip-path="url(#clip190)" d="M241.734 332.42 L245.703 332.42 L245.703 337.197 L241.734 337.197 L241.734 332.42 Z" fill="#000000" fill-rule="nonzero" fill-opacity="1" /><path clip-path="url(#clip190)" d="M257.251 334 L270.51 334 L270.51 337.197 L252.681 337.197 L252.681 334 Q254.843 331.762 258.567 328 Q262.31 324.22 263.269 323.129 Q265.094 321.079 265.808 319.668 Q266.542 318.239 266.542 316.866 Q266.542 314.628 264.962 313.217 Q263.401 311.807 260.881 311.807 Q259.094 311.807 257.1 312.427 Q255.126 313.048 252.869 314.308 L252.869 310.471 Q255.163 309.55 257.157 309.079 Q259.15 308.609 260.806 308.609 Q265.169 308.609 267.764 310.791 Q270.36 312.973 270.36 316.621 Q270.36 318.352 269.702 319.913 Q269.062 321.455 267.351 323.561 Q266.88 324.107 264.36 326.721 Q261.84 329.317 257.251 334 Z" fill="#000000" fill-rule="nonzero" fill-opacity="1" /><path clip-path="url(#clip190)" d="M278.522 309.117 L293.437 309.117 L293.437 312.314 L282.002 312.314 L282.002 319.198 Q282.829 318.916 283.657 318.784 Q284.485 318.634 285.312 318.634 Q290.014 318.634 292.76 321.21 Q295.506 323.787 295.506 328.188 Q295.506 332.721 292.685 335.241 Q289.864 337.742 284.729 337.742 Q282.961 337.742 281.118 337.442 Q279.294 337.141 277.338 336.539 L277.338 332.721 Q279.03 333.642 280.836 334.094 Q282.641 334.545 284.654 334.545 Q287.908 334.545 289.807 332.834 Q291.707 331.122 291.707 328.188 Q291.707 325.254 289.807 323.543 Q287.908 321.831 284.654 321.831 Q283.13 321.831 281.607 322.17 Q280.102 322.508 278.522 323.223 L278.522 309.117 Z" fill="#000000" fill-rule="nonzero" fill-opacity="1" /><path clip-path="url(#clip190)" d="M163.543 108.748 L171.182 108.748 L171.182 82.3822 L162.872 84.0489 L162.872 79.7897 L171.136 78.123 L175.812 78.123 L175.812 108.748 L183.451 108.748 L183.451 112.683 L163.543 112.683 L163.543 108.748 Z" fill="#000000" fill-rule="nonzero" fill-opacity="1" /><path clip-path="url(#clip190)" d="M202.895 81.2017 Q199.284 81.2017 197.455 84.7665 Q195.65 88.3081 195.65 95.4377 Q195.65 102.544 197.455 106.109 Q199.284 109.651 202.895 109.651 Q206.529 109.651 208.335 106.109 Q210.163 102.544 210.163 95.4377 Q210.163 88.3081 208.335 84.7665 Q206.529 81.2017 202.895 81.2017 M202.895 77.498 Q208.705 77.498 211.761 82.1045 Q214.839 86.6878 214.839 95.4377 Q214.839 104.165 211.761 108.771 Q208.705 113.354 202.895 113.354 Q197.085 113.354 194.006 108.771 Q190.951 104.165 190.951 95.4377 Q190.951 86.6878 194.006 82.1045 Q197.085 77.498 202.895 77.498 Z" fill="#000000" fill-rule="nonzero" fill-opacity="1" /><path clip-path="url(#clip190)" d="M224.544 59.694 Q221.61 59.694 220.124 62.5904 Q218.657 65.468 218.657 71.2608 Q218.657 77.0348 220.124 79.9312 Q221.61 82.8088 224.544 82.8088 Q227.497 82.8088 228.964 79.9312 Q230.45 77.0348 230.45 71.2608 Q230.45 65.468 228.964 62.5904 Q227.497 59.694 224.544 59.694 M224.544 56.6848 Q229.265 56.6848 231.748 60.4275 Q234.249 64.1515 234.249 71.2608 Q234.249 78.3513 231.748 82.0941 Q229.265 85.818 224.544 85.818 Q219.823 85.818 217.322 82.0941 Q214.839 78.3513 214.839 71.2608 Q214.839 64.1515 217.322 60.4275 Q219.823 56.6848 224.544 56.6848 Z" fill="#000000" fill-rule="nonzero" fill-opacity="1" /><path clip-path="url(#clip190)" d="M240.926 80.4954 L244.894 80.4954 L244.894 85.2726 L240.926 85.2726 L240.926 80.4954 Z" fill="#000000" fill-rule="nonzero" fill-opacity="1" /><path clip-path="url(#clip190)" d="M261.295 59.694 Q258.361 59.694 256.875 62.5904 Q255.408 65.468 255.408 71.2608 Q255.408 77.0348 256.875 79.9312 Q258.361 82.8088 261.295 82.8088 Q264.247 82.8088 265.714 79.9312 Q267.2 77.0348 267.2 71.2608 Q267.2 65.468 265.714 62.5904 Q264.247 59.694 261.295 59.694 M261.295 56.6848 Q266.015 56.6848 268.498 60.4275 Q270.999 64.1515 270.999 71.2608 Q270.999 78.3513 268.498 82.0941 Q266.015 85.818 261.295 85.818 Q256.574 85.818 254.072 82.0941 Q251.59 78.3513 251.59 71.2608 Q251.59 64.1515 254.072 60.4275 Q256.574 56.6848 261.295 56.6848 Z" fill="#000000" fill-rule="nonzero" fill-opacity="1" /><path clip-path="url(#clip190)" d="M285.801 59.694 Q282.867 59.694 281.381 62.5904 Q279.914 65.468 279.914 71.2608 Q279.914 77.0348 281.381 79.9312 Q282.867 82.8088 285.801 82.8088 Q288.754 82.8088 290.221 79.9312 Q291.707 77.0348 291.707 71.2608 Q291.707 65.468 290.221 62.5904 Q288.754 59.694 285.801 59.694 M285.801 56.6848 Q290.522 56.6848 293.004 60.4275 Q295.506 64.1515 295.506 71.2608 Q295.506 78.3513 293.004 82.0941 Q290.522 85.818 285.801 85.818 Q281.08 85.818 278.579 82.0941 Q276.096 78.3513 276.096 71.2608 Q276.096 64.1515 278.579 60.4275 Q281.08 56.6848 285.801 56.6848 Z" fill="#000000" fill-rule="nonzero" fill-opacity="1" /><path clip-path="url(#clip190)" d="M117.129 446.066 Q117.677 446.066 118.063 446.453 Q118.45 446.839 118.45 447.387 Q118.45 448.321 117.58 448.643 L85.9217 460.913 Q85.7928 460.977 85.4708 460.977 Q85.1487 460.977 85.0199 460.913 L53.3615 448.643 Q52.492 448.321 52.492 447.387 Q52.492 446.839 52.8785 446.453 Q53.2649 446.066 53.8124 446.066 Q54.1345 446.066 54.2633 446.131 L85.4708 458.272 L116.678 446.131 Q116.807 446.066 117.129 446.066 Z" fill="#000000" fill-rule="nonzero" fill-opacity="1" /><path clip-path="url(#clip190)" d="M68.9814 408.34 Q74.392 408.34 80.4789 410.079 Q86.5336 411.786 91.4289 414.491 Q96.292 417.197 99.5125 420.739 Q102.701 424.282 102.701 427.664 Q102.701 429.821 101.509 431.432 Q100.285 433.01 98.2565 433.879 Q96.1953 434.749 93.9409 435.168 Q91.6543 435.586 89.1745 435.586 Q85.4708 435.586 81.4451 434.781 Q77.3871 433.976 73.7156 432.623 Q70.012 431.271 66.6626 429.371 Q63.2809 427.47 60.8333 425.377 Q58.3535 423.251 56.9042 420.868 Q55.4549 418.485 55.4549 416.263 Q55.4549 414.652 56.1635 413.364 Q56.8398 412.044 58.0314 411.206 Q59.1908 410.369 60.5757 409.789 Q61.9605 409.177 63.5708 408.888 Q65.1489 408.598 66.4693 408.469 Q67.7576 408.34 68.9814 408.34 M64.8912 412.688 Q63.2487 412.688 62.0249 412.817 Q60.7689 412.946 59.5129 413.3 Q58.2568 413.654 57.5805 414.427 Q56.9042 415.168 56.9042 416.327 Q56.9042 419.709 63.8284 423.509 Q65.9862 424.733 68.917 425.828 Q71.8477 426.923 73.2326 427.309 Q74.6174 427.696 78.0312 428.598 L78.0312 414.813 Q69.239 412.688 64.8912 412.688 M80.1246 415.393 L80.1246 429.113 Q88.1761 431.238 93.2002 431.238 Q97.5802 431.238 99.4159 430.337 Q101.219 429.403 101.219 427.664 Q101.219 425.667 99.2227 423.799 Q97.1937 421.931 93.5223 420.031 Q88.7558 417.519 80.1246 415.393 Z" fill="#000000" fill-rule="nonzero" fill-opacity="1" /><path clip-path="url(#clip190)" d="M85.0199 390.149 Q85.1487 390.085 85.4708 390.085 Q85.7928 390.085 85.9217 390.149 L117.58 402.419 Q118.45 402.741 118.45 403.643 Q118.45 404.191 118.063 404.577 Q117.677 404.964 117.129 404.964 Q116.807 404.964 116.678 404.899 L85.4708 392.79 L54.2633 404.899 Q54.1345 404.964 53.8124 404.964 Q53.2649 404.964 52.8785 404.577 Q52.492 404.191 52.492 403.643 Q52.492 402.741 53.3615 402.419 L85.0199 390.149 Z" fill="#000000" fill-rule="nonzero" fill-opacity="1" /><circle clip-path="url(#clip192)" cx="364.482" cy="276.489" r="14.4" fill="#e31a1c" fill-rule="evenodd" fill-opacity="1" stroke="none"/>
<circle clip-path="url(#clip192)" cx="382.935" cy="295.523" r="14.4" fill="#e31a1c" fill-rule="evenodd" fill-opacity="1" stroke="none"/>
<circle clip-path="url(#clip192)" cx="403.501" cy="370.12" r="14.4" fill="#e31a1c" fill-rule="evenodd" fill-opacity="1" stroke="none"/>
<circle clip-path="url(#clip192)" cx="428.197" cy="419.406" r="14.4" fill="#e31a1c" fill-rule="evenodd" fill-opacity="1" stroke="none"/>
<circle clip-path="url(#clip192)" cx="455.482" cy="459.494" r="14.4" fill="#e31a1c" fill-rule="evenodd" fill-opacity="1" stroke="none"/>
<circle clip-path="url(#clip192)" cx="482.754" cy="494.658" r="14.4" fill="#e31a1c" fill-rule="evenodd" fill-opacity="1" stroke="none"/>
<circle clip-path="url(#clip192)" cx="511.666" cy="508.637" r="14.4" fill="#e31a1c" fill-rule="evenodd" fill-opacity="1" stroke="none"/>
<circle clip-path="url(#clip192)" cx="542.903" cy="517.519" r="14.4" fill="#e31a1c" fill-rule="evenodd" fill-opacity="1" stroke="none"/>
<circle clip-path="url(#clip192)" cx="574.389" cy="554.199" r="14.4" fill="#e31a1c" fill-rule="evenodd" fill-opacity="1" stroke="none"/>
<circle clip-path="url(#clip192)" cx="605.953" cy="573.551" r="14.4" fill="#e31a1c" fill-rule="evenodd" fill-opacity="1" stroke="none"/>
<circle clip-path="url(#clip192)" cx="638.335" cy="566.674" r="14.4" fill="#e31a1c" fill-rule="evenodd" fill-opacity="1" stroke="none"/>
<circle clip-path="url(#clip192)" cx="837.587" cy="651.882" r="14.4" fill="#e31a1c" fill-rule="evenodd" fill-opacity="1" stroke="none"/>
<circle clip-path="url(#clip192)" cx="1100.82" cy="564.609" r="14.4" fill="#e31a1c" fill-rule="evenodd" fill-opacity="1" stroke="none"/>
<circle clip-path="url(#clip192)" cx="872.523" cy="677.764" r="14.4" fill="#e31a1c" fill-rule="evenodd" fill-opacity="1" stroke="none"/>
<circle clip-path="url(#clip192)" cx="907.623" cy="690.91" r="14.4" fill="#e31a1c" fill-rule="evenodd" fill-opacity="1" stroke="none"/>
<circle clip-path="url(#clip192)" cx="670.634" cy="575.382" r="14.4" fill="#e31a1c" fill-rule="evenodd" fill-opacity="1" stroke="none"/>
<circle clip-path="url(#clip192)" cx="943.217" cy="739.508" r="14.4" fill="#e31a1c" fill-rule="evenodd" fill-opacity="1" stroke="none"/>
<circle clip-path="url(#clip192)" cx="703.077" cy="591.081" r="14.4" fill="#e31a1c" fill-rule="evenodd" fill-opacity="1" stroke="none"/>
<circle clip-path="url(#clip192)" cx="978.567" cy="753.905" r="14.4" fill="#e31a1c" fill-rule="evenodd" fill-opacity="1" stroke="none"/>
<circle clip-path="url(#clip192)" cx="735.732" cy="607.23" r="14.4" fill="#e31a1c" fill-rule="evenodd" fill-opacity="1" stroke="none"/>
<circle clip-path="url(#clip192)" cx="1013.25" cy="734.891" r="14.4" fill="#e31a1c" fill-rule="evenodd" fill-opacity="1" stroke="none"/>
<circle clip-path="url(#clip192)" cx="769.398" cy="630.701" r="14.4" fill="#e31a1c" fill-rule="evenodd" fill-opacity="1" stroke="none"/>
<circle clip-path="url(#clip192)" cx="1046.76" cy="685.162" r="14.4" fill="#e31a1c" fill-rule="evenodd" fill-opacity="1" stroke="none"/>
<circle clip-path="url(#clip192)" cx="803.258" cy="638.713" r="14.4" fill="#e31a1c" fill-rule="evenodd" fill-opacity="1" stroke="none"/>
<circle clip-path="url(#clip192)" cx="1077.34" cy="598.661" r="14.4" fill="#e31a1c" fill-rule="evenodd" fill-opacity="1" stroke="none"/>
<circle clip-path="url(#clip192)" cx="337.258" cy="216.438" r="14.4" fill="#377db8" fill-rule="evenodd" fill-opacity="1" stroke="none"/>
<circle clip-path="url(#clip192)" cx="363.097" cy="235.424" r="14.4" fill="#377db8" fill-rule="evenodd" fill-opacity="1" stroke="none"/>
<circle clip-path="url(#clip192)" cx="394.683" cy="262.033" r="14.4" fill="#377db8" fill-rule="evenodd" fill-opacity="1" stroke="none"/>
<circle clip-path="url(#clip192)" cx="434.454" cy="286.189" r="14.4" fill="#377db8" fill-rule="evenodd" fill-opacity="1" stroke="none"/>
<circle clip-path="url(#clip192)" cx="485.368" cy="321.385" r="14.4" fill="#377db8" fill-rule="evenodd" fill-opacity="1" stroke="none"/>
<circle clip-path="url(#clip192)" cx="550.08" cy="343.905" r="14.4" fill="#377db8" fill-rule="evenodd" fill-opacity="1" stroke="none"/>
<circle clip-path="url(#clip192)" cx="629.405" cy="361.274" r="14.4" fill="#377db8" fill-rule="evenodd" fill-opacity="1" stroke="none"/>
<circle clip-path="url(#clip192)" cx="721.003" cy="387.495" r="14.4" fill="#377db8" fill-rule="evenodd" fill-opacity="1" stroke="none"/>
<circle clip-path="url(#clip192)" cx="818.315" cy="423.448" r="14.4" fill="#377db8" fill-rule="evenodd" fill-opacity="1" stroke="none"/>
<circle clip-path="url(#clip192)" cx="910.643" cy="473.382" r="14.4" fill="#377db8" fill-rule="evenodd" fill-opacity="1" stroke="none"/>
<circle clip-path="url(#clip192)" cx="987.215" cy="531.472" r="14.4" fill="#377db8" fill-rule="evenodd" fill-opacity="1" stroke="none"/>
<circle clip-path="url(#clip192)" cx="1042.8" cy="585.953" r="14.4" fill="#377db8" fill-rule="evenodd" fill-opacity="1" stroke="none"/>
<circle clip-path="url(#clip192)" cx="1078.79" cy="621.498" r="14.4" fill="#377db8" fill-rule="evenodd" fill-opacity="1" stroke="none"/>
<circle clip-path="url(#clip192)" cx="1100.35" cy="638.872" r="14.4" fill="#377db8" fill-rule="evenodd" fill-opacity="1" stroke="none"/>
<circle clip-path="url(#clip192)" cx="1112.73" cy="647.254" r="14.4" fill="#377db8" fill-rule="evenodd" fill-opacity="1" stroke="none"/>
<circle clip-path="url(#clip192)" cx="1119.75" cy="640.847" r="14.4" fill="#377db8" fill-rule="evenodd" fill-opacity="1" stroke="none"/>
<circle clip-path="url(#clip192)" cx="1123.72" cy="626.736" r="14.4" fill="#377db8" fill-rule="evenodd" fill-opacity="1" stroke="none"/>
<circle clip-path="url(#clip192)" cx="1125.98" cy="614.812" r="14.4" fill="#377db8" fill-rule="evenodd" fill-opacity="1" stroke="none"/>
<circle clip-path="url(#clip192)" cx="1127.28" cy="614.452" r="14.4" fill="#377db8" fill-rule="evenodd" fill-opacity="1" stroke="none"/>
<circle clip-path="url(#clip192)" cx="1128.03" cy="611.234" r="14.4" fill="#377db8" fill-rule="evenodd" fill-opacity="1" stroke="none"/>
<circle clip-path="url(#clip192)" cx="1128.46" cy="604.299" r="14.4" fill="#377db8" fill-rule="evenodd" fill-opacity="1" stroke="none"/>
<circle clip-path="url(#clip192)" cx="1128.72" cy="596.953" r="14.4" fill="#377db8" fill-rule="evenodd" fill-opacity="1" stroke="none"/>
<circle clip-path="url(#clip192)" cx="1128.86" cy="590.407" r="14.4" fill="#377db8" fill-rule="evenodd" fill-opacity="1" stroke="none"/>
<circle clip-path="url(#clip192)" cx="1128.95" cy="584.944" r="14.4" fill="#377db8" fill-rule="evenodd" fill-opacity="1" stroke="none"/>
<circle clip-path="url(#clip192)" cx="1129" cy="580.524" r="14.4" fill="#377db8" fill-rule="evenodd" fill-opacity="1" stroke="none"/>
<path clip-path="url(#clip192)" d="M1113.71 478.514 L1093.71 518.514 L1133.71 518.514 L1113.71 478.514 Z" fill="#4dae49" fill-rule="evenodd" fill-opacity="1" stroke="#000000" stroke-opacity="1" stroke-width="10"/>
<path clip-path="url(#clip190)" d="M521.97 279.473 L1124.78 279.473 L1124.78 72.1128 L521.97 72.1128  Z" fill="#ffffff" fill-rule="evenodd" fill-opacity="1"/>
<polyline clip-path="url(#clip190)" style="stroke:#000000; stroke-linecap:round; stroke-linejoin:round; stroke-width:4; stroke-opacity:1; fill:none" points="521.97,279.473 1124.78,279.473 1124.78,72.1128 521.97,72.1128 521.97,279.473 "/>
<circle clip-path="url(#clip190)" cx="559.27" cy="123.953" r="23.04" fill="#e31a1c" fill-rule="evenodd" fill-opacity="1" stroke="none"/>
<path clip-path="url(#clip190)" d="M601.246 124.728 L601.246 137.39 L608.746 137.39 Q612.519 137.39 614.324 135.839 Q616.153 134.265 616.153 131.048 Q616.153 127.807 614.324 126.279 Q612.519 124.728 608.746 124.728 L601.246 124.728 M601.246 110.515 L601.246 120.932 L608.167 120.932 Q611.593 120.932 613.26 119.659 Q614.949 118.363 614.949 115.724 Q614.949 113.108 613.26 111.812 Q611.593 110.515 608.167 110.515 L601.246 110.515 M596.57 106.673 L608.514 106.673 Q613.861 106.673 616.755 108.895 Q619.648 111.117 619.648 115.214 Q619.648 118.386 618.167 120.261 Q616.685 122.136 613.815 122.599 Q617.264 123.339 619.162 125.7 Q621.084 128.038 621.084 131.557 Q621.084 136.187 617.935 138.71 Q614.787 141.233 608.977 141.233 L596.57 141.233 L596.57 106.673 Z" fill="#000000" fill-rule="nonzero" fill-opacity="1" /><path clip-path="url(#clip190)" d="M628.908 115.307 L633.167 115.307 L633.167 141.233 L628.908 141.233 L628.908 115.307 M628.908 105.214 L633.167 105.214 L633.167 110.608 L628.908 110.608 L628.908 105.214 Z" fill="#000000" fill-rule="nonzero" fill-opacity="1" /><path clip-path="url(#clip190)" d="M658.607 116.071 L658.607 120.099 Q656.801 119.173 654.857 118.71 Q652.912 118.247 650.829 118.247 Q647.657 118.247 646.06 119.219 Q644.486 120.191 644.486 122.136 Q644.486 123.617 645.62 124.474 Q646.755 125.307 650.181 126.071 L651.639 126.395 Q656.176 127.367 658.074 129.15 Q659.995 130.909 659.995 134.08 Q659.995 137.691 657.125 139.798 Q654.278 141.904 649.278 141.904 Q647.195 141.904 644.926 141.487 Q642.681 141.094 640.181 140.284 L640.181 135.886 Q642.542 137.112 644.833 137.737 Q647.125 138.339 649.37 138.339 Q652.38 138.339 654 137.321 Q655.62 136.279 655.62 134.404 Q655.62 132.668 654.44 131.742 Q653.282 130.816 649.324 129.96 L647.843 129.613 Q643.884 128.779 642.125 127.066 Q640.366 125.33 640.366 122.321 Q640.366 118.663 642.958 116.673 Q645.551 114.682 650.32 114.682 Q652.681 114.682 654.764 115.029 Q656.847 115.376 658.607 116.071 Z" fill="#000000" fill-rule="nonzero" fill-opacity="1" /><path clip-path="url(#clip190)" d="M670.991 107.946 L670.991 115.307 L679.764 115.307 L679.764 118.617 L670.991 118.617 L670.991 132.691 Q670.991 135.862 671.847 136.765 Q672.727 137.668 675.389 137.668 L679.764 137.668 L679.764 141.233 L675.389 141.233 Q670.458 141.233 668.583 139.404 Q666.708 137.552 666.708 132.691 L666.708 118.617 L663.583 118.617 L663.583 115.307 L666.708 115.307 L666.708 107.946 L670.991 107.946 Z" fill="#000000" fill-rule="nonzero" fill-opacity="1" /><path clip-path="url(#clip190)" d="M695.412 118.293 Q691.986 118.293 689.995 120.978 Q688.004 123.64 688.004 128.293 Q688.004 132.946 689.972 135.631 Q691.963 138.293 695.412 138.293 Q698.815 138.293 700.805 135.608 Q702.796 132.923 702.796 128.293 Q702.796 123.687 700.805 121.001 Q698.815 118.293 695.412 118.293 M695.412 114.682 Q700.967 114.682 704.139 118.293 Q707.31 121.904 707.31 128.293 Q707.31 134.659 704.139 138.293 Q700.967 141.904 695.412 141.904 Q689.833 141.904 686.662 138.293 Q683.514 134.659 683.514 128.293 Q683.514 121.904 686.662 118.293 Q689.833 114.682 695.412 114.682 Z" fill="#000000" fill-rule="nonzero" fill-opacity="1" /><path clip-path="url(#clip190)" d="M733.027 116.302 L733.027 120.284 Q731.222 119.288 729.393 118.802 Q727.588 118.293 725.736 118.293 Q721.592 118.293 719.301 120.932 Q717.009 123.548 717.009 128.293 Q717.009 133.038 719.301 135.677 Q721.592 138.293 725.736 138.293 Q727.588 138.293 729.393 137.807 Q731.222 137.298 733.027 136.302 L733.027 140.237 Q731.245 141.071 729.324 141.487 Q727.426 141.904 725.273 141.904 Q719.416 141.904 715.967 138.224 Q712.518 134.543 712.518 128.293 Q712.518 121.951 715.99 118.316 Q719.486 114.682 725.551 114.682 Q727.518 114.682 729.393 115.099 Q731.268 115.492 733.027 116.302 Z" fill="#000000" fill-rule="nonzero" fill-opacity="1" /><path clip-path="url(#clip190)" d="M761.986 125.585 L761.986 141.233 L757.726 141.233 L757.726 125.724 Q757.726 122.043 756.291 120.214 Q754.856 118.386 751.986 118.386 Q748.537 118.386 746.546 120.585 Q744.555 122.784 744.555 126.58 L744.555 141.233 L740.273 141.233 L740.273 105.214 L744.555 105.214 L744.555 119.335 Q746.083 116.997 748.143 115.839 Q750.226 114.682 752.935 114.682 Q757.402 114.682 759.694 117.46 Q761.986 120.214 761.986 125.585 Z" fill="#000000" fill-rule="nonzero" fill-opacity="1" /><path clip-path="url(#clip190)" d="M782.263 128.2 Q777.101 128.2 775.111 129.381 Q773.12 130.562 773.12 133.409 Q773.12 135.677 774.601 137.02 Q776.106 138.339 778.675 138.339 Q782.217 138.339 784.347 135.839 Q786.499 133.316 786.499 129.15 L786.499 128.2 L782.263 128.2 M790.759 126.441 L790.759 141.233 L786.499 141.233 L786.499 137.298 Q785.041 139.659 782.865 140.793 Q780.689 141.904 777.541 141.904 Q773.56 141.904 771.198 139.682 Q768.861 137.437 768.861 133.687 Q768.861 129.312 771.777 127.089 Q774.717 124.867 780.527 124.867 L786.499 124.867 L786.499 124.451 Q786.499 121.511 784.555 119.913 Q782.634 118.293 779.138 118.293 Q776.916 118.293 774.81 118.826 Q772.703 119.358 770.759 120.423 L770.759 116.488 Q773.097 115.585 775.296 115.145 Q777.495 114.682 779.578 114.682 Q785.203 114.682 787.981 117.599 Q790.759 120.515 790.759 126.441 Z" fill="#000000" fill-rule="nonzero" fill-opacity="1" /><path clip-path="url(#clip190)" d="M816.059 116.071 L816.059 120.099 Q814.254 119.173 812.309 118.71 Q810.365 118.247 808.282 118.247 Q805.11 118.247 803.513 119.219 Q801.939 120.191 801.939 122.136 Q801.939 123.617 803.073 124.474 Q804.208 125.307 807.633 126.071 L809.092 126.395 Q813.629 127.367 815.527 129.15 Q817.448 130.909 817.448 134.08 Q817.448 137.691 814.578 139.798 Q811.731 141.904 806.731 141.904 Q804.647 141.904 802.379 141.487 Q800.134 141.094 797.634 140.284 L797.634 135.886 Q799.995 137.112 802.286 137.737 Q804.578 138.339 806.823 138.339 Q809.833 138.339 811.453 137.321 Q813.073 136.279 813.073 134.404 Q813.073 132.668 811.893 131.742 Q810.735 130.816 806.777 129.96 L805.296 129.613 Q801.337 128.779 799.578 127.066 Q797.819 125.33 797.819 122.321 Q797.819 118.663 800.411 116.673 Q803.004 114.682 807.772 114.682 Q810.133 114.682 812.217 115.029 Q814.3 115.376 816.059 116.071 Z" fill="#000000" fill-rule="nonzero" fill-opacity="1" /><path clip-path="url(#clip190)" d="M828.444 107.946 L828.444 115.307 L837.217 115.307 L837.217 118.617 L828.444 118.617 L828.444 132.691 Q828.444 135.862 829.3 136.765 Q830.18 137.668 832.842 137.668 L837.217 137.668 L837.217 141.233 L832.842 141.233 Q827.911 141.233 826.036 139.404 Q824.161 137.552 824.161 132.691 L824.161 118.617 L821.036 118.617 L821.036 115.307 L824.161 115.307 L824.161 107.946 L828.444 107.946 Z" fill="#000000" fill-rule="nonzero" fill-opacity="1" /><path clip-path="url(#clip190)" d="M842.818 115.307 L847.078 115.307 L847.078 141.233 L842.818 141.233 L842.818 115.307 M842.818 105.214 L847.078 105.214 L847.078 110.608 L842.818 110.608 L842.818 105.214 Z" fill="#000000" fill-rule="nonzero" fill-opacity="1" /><path clip-path="url(#clip190)" d="M874.647 116.302 L874.647 120.284 Q872.841 119.288 871.013 118.802 Q869.207 118.293 867.355 118.293 Q863.212 118.293 860.92 120.932 Q858.629 123.548 858.629 128.293 Q858.629 133.038 860.92 135.677 Q863.212 138.293 867.355 138.293 Q869.207 138.293 871.013 137.807 Q872.841 137.298 874.647 136.302 L874.647 140.237 Q872.865 141.071 870.943 141.487 Q869.045 141.904 866.892 141.904 Q861.036 141.904 857.587 138.224 Q854.138 134.543 854.138 128.293 Q854.138 121.951 857.61 118.316 Q861.105 114.682 867.17 114.682 Q869.138 114.682 871.013 115.099 Q872.888 115.492 874.647 116.302 Z" fill="#000000" fill-rule="nonzero" fill-opacity="1" /><path clip-path="url(#clip190)" d="M897.309 106.673 L901.985 106.673 L901.985 137.298 L918.813 137.298 L918.813 141.233 L897.309 141.233 L897.309 106.673 Z" fill="#000000" fill-rule="nonzero" fill-opacity="1" /><path clip-path="url(#clip190)" d="M928.165 137.298 L944.485 137.298 L944.485 141.233 L922.54 141.233 L922.54 137.298 Q925.202 134.543 929.786 129.913 Q934.392 125.261 935.573 123.918 Q937.818 121.395 938.698 119.659 Q939.6 117.9 939.6 116.21 Q939.6 113.455 937.656 111.719 Q935.735 109.983 932.633 109.983 Q930.434 109.983 927.98 110.747 Q925.55 111.511 922.772 113.062 L922.772 108.339 Q925.596 107.205 928.05 106.627 Q930.503 106.048 932.54 106.048 Q937.911 106.048 941.105 108.733 Q944.299 111.418 944.299 115.909 Q944.299 118.038 943.489 119.96 Q942.702 121.858 940.596 124.451 Q940.017 125.122 936.915 128.339 Q933.813 131.534 928.165 137.298 Z" fill="#000000" fill-rule="nonzero" fill-opacity="1" /><path clip-path="url(#clip190)" d="M978.998 105.261 Q975.896 110.585 974.392 115.793 Q972.887 121.001 972.887 126.349 Q972.887 131.696 974.392 136.95 Q975.92 142.182 978.998 147.483 L975.295 147.483 Q971.822 142.043 970.086 136.788 Q968.373 131.534 968.373 126.349 Q968.373 121.187 970.086 115.955 Q971.799 110.724 975.295 105.261 L978.998 105.261 Z" fill="#000000" fill-rule="nonzero" fill-opacity="1" /><path clip-path="url(#clip190)" d="M1001.48 109.844 Q996.382 109.844 993.373 113.64 Q990.387 117.437 990.387 123.988 Q990.387 130.515 993.373 134.312 Q996.382 138.108 1001.48 138.108 Q1006.57 138.108 1009.53 134.312 Q1012.52 130.515 1012.52 123.988 Q1012.52 117.437 1009.53 113.64 Q1006.57 109.844 1001.48 109.844 M1008.03 140.608 L1014.18 147.344 L1008.54 147.344 L1003.42 141.812 Q1002.66 141.858 1002.24 141.881 Q1001.85 141.904 1001.48 141.904 Q994.183 141.904 989.808 137.043 Q985.457 132.159 985.457 123.988 Q985.457 115.793 989.808 110.932 Q994.183 106.048 1001.48 106.048 Q1008.74 106.048 1013.1 110.932 Q1017.45 115.793 1017.45 123.988 Q1017.45 130.006 1015.02 134.288 Q1012.61 138.571 1008.03 140.608 Z" fill="#000000" fill-rule="nonzero" fill-opacity="1" /><path clip-path="url(#clip190)" d="M1038.79 109.844 Q1033.7 109.844 1030.69 113.64 Q1027.7 117.437 1027.7 123.988 Q1027.7 130.515 1030.69 134.312 Q1033.7 138.108 1038.79 138.108 Q1043.88 138.108 1046.85 134.312 Q1049.83 130.515 1049.83 123.988 Q1049.83 117.437 1046.85 113.64 Q1043.88 109.844 1038.79 109.844 M1038.79 106.048 Q1046.06 106.048 1050.41 110.932 Q1054.76 115.793 1054.76 123.988 Q1054.76 132.159 1050.41 137.043 Q1046.06 141.904 1038.79 141.904 Q1031.5 141.904 1027.12 137.043 Q1022.77 132.182 1022.77 123.988 Q1022.77 115.793 1027.12 110.932 Q1031.5 106.048 1038.79 106.048 Z" fill="#000000" fill-rule="nonzero" fill-opacity="1" /><path clip-path="url(#clip190)" d="M1057.28 106.673 L1086.52 106.673 L1086.52 110.608 L1074.25 110.608 L1074.25 141.233 L1069.55 141.233 L1069.55 110.608 L1057.28 110.608 L1057.28 106.673 Z" fill="#000000" fill-rule="nonzero" fill-opacity="1" /><path clip-path="url(#clip190)" d="M1090.18 105.261 L1093.88 105.261 Q1097.35 110.724 1099.07 115.955 Q1100.8 121.187 1100.8 126.349 Q1100.8 131.534 1099.07 136.788 Q1097.35 142.043 1093.88 147.483 L1090.18 147.483 Q1093.26 142.182 1094.76 136.95 Q1096.29 131.696 1096.29 126.349 Q1096.29 121.001 1094.76 115.793 Q1093.26 110.585 1090.18 105.261 Z" fill="#000000" fill-rule="nonzero" fill-opacity="1" /><circle clip-path="url(#clip190)" cx="559.27" cy="175.793" r="23.04" fill="#377db8" fill-rule="evenodd" fill-opacity="1" stroke="none"/>
<path clip-path="url(#clip190)" d="M601.246 176.568 L601.246 189.23 L608.746 189.23 Q612.519 189.23 614.324 187.679 Q616.153 186.105 616.153 182.888 Q616.153 179.647 614.324 178.119 Q612.519 176.568 608.746 176.568 L601.246 176.568 M601.246 162.355 L601.246 172.772 L608.167 172.772 Q611.593 172.772 613.26 171.499 Q614.949 170.203 614.949 167.564 Q614.949 164.948 613.26 163.652 Q611.593 162.355 608.167 162.355 L601.246 162.355 M596.57 158.513 L608.514 158.513 Q613.861 158.513 616.755 160.735 Q619.648 162.957 619.648 167.054 Q619.648 170.226 618.167 172.101 Q616.685 173.976 613.815 174.439 Q617.264 175.179 619.162 177.54 Q621.084 179.878 621.084 183.397 Q621.084 188.027 617.935 190.55 Q614.787 193.073 608.977 193.073 L596.57 193.073 L596.57 158.513 Z" fill="#000000" fill-rule="nonzero" fill-opacity="1" /><path clip-path="url(#clip190)" d="M628.908 167.147 L633.167 167.147 L633.167 193.073 L628.908 193.073 L628.908 167.147 M628.908 157.054 L633.167 157.054 L633.167 162.448 L628.908 162.448 L628.908 157.054 Z" fill="#000000" fill-rule="nonzero" fill-opacity="1" /><path clip-path="url(#clip190)" d="M658.607 167.911 L658.607 171.939 Q656.801 171.013 654.857 170.55 Q652.912 170.087 650.829 170.087 Q647.657 170.087 646.06 171.059 Q644.486 172.031 644.486 173.976 Q644.486 175.457 645.62 176.314 Q646.755 177.147 650.181 177.911 L651.639 178.235 Q656.176 179.207 658.074 180.99 Q659.995 182.749 659.995 185.92 Q659.995 189.531 657.125 191.638 Q654.278 193.744 649.278 193.744 Q647.195 193.744 644.926 193.327 Q642.681 192.934 640.181 192.124 L640.181 187.726 Q642.542 188.952 644.833 189.577 Q647.125 190.179 649.37 190.179 Q652.38 190.179 654 189.161 Q655.62 188.119 655.62 186.244 Q655.62 184.508 654.44 183.582 Q653.282 182.656 649.324 181.8 L647.843 181.453 Q643.884 180.619 642.125 178.906 Q640.366 177.17 640.366 174.161 Q640.366 170.503 642.958 168.513 Q645.551 166.522 650.32 166.522 Q652.681 166.522 654.764 166.869 Q656.847 167.216 658.607 167.911 Z" fill="#000000" fill-rule="nonzero" fill-opacity="1" /><path clip-path="url(#clip190)" d="M670.991 159.786 L670.991 167.147 L679.764 167.147 L679.764 170.457 L670.991 170.457 L670.991 184.531 Q670.991 187.702 671.847 188.605 Q672.727 189.508 675.389 189.508 L679.764 189.508 L679.764 193.073 L675.389 193.073 Q670.458 193.073 668.583 191.244 Q666.708 189.392 666.708 184.531 L666.708 170.457 L663.583 170.457 L663.583 167.147 L666.708 167.147 L666.708 159.786 L670.991 159.786 Z" fill="#000000" fill-rule="nonzero" fill-opacity="1" /><path clip-path="url(#clip190)" d="M695.412 170.133 Q691.986 170.133 689.995 172.818 Q688.004 175.48 688.004 180.133 Q688.004 184.786 689.972 187.471 Q691.963 190.133 695.412 190.133 Q698.815 190.133 700.805 187.448 Q702.796 184.763 702.796 180.133 Q702.796 175.527 700.805 172.841 Q698.815 170.133 695.412 170.133 M695.412 166.522 Q700.967 166.522 704.139 170.133 Q707.31 173.744 707.31 180.133 Q707.31 186.499 704.139 190.133 Q700.967 193.744 695.412 193.744 Q689.833 193.744 686.662 190.133 Q683.514 186.499 683.514 180.133 Q683.514 173.744 686.662 170.133 Q689.833 166.522 695.412 166.522 Z" fill="#000000" fill-rule="nonzero" fill-opacity="1" /><path clip-path="url(#clip190)" d="M733.027 168.142 L733.027 172.124 Q731.222 171.128 729.393 170.642 Q727.588 170.133 725.736 170.133 Q721.592 170.133 719.301 172.772 Q717.009 175.388 717.009 180.133 Q717.009 184.878 719.301 187.517 Q721.592 190.133 725.736 190.133 Q727.588 190.133 729.393 189.647 Q731.222 189.138 733.027 188.142 L733.027 192.077 Q731.245 192.911 729.324 193.327 Q727.426 193.744 725.273 193.744 Q719.416 193.744 715.967 190.064 Q712.518 186.383 712.518 180.133 Q712.518 173.791 715.99 170.156 Q719.486 166.522 725.551 166.522 Q727.518 166.522 729.393 166.939 Q731.268 167.332 733.027 168.142 Z" fill="#000000" fill-rule="nonzero" fill-opacity="1" /><path clip-path="url(#clip190)" d="M761.986 177.425 L761.986 193.073 L757.726 193.073 L757.726 177.564 Q757.726 173.883 756.291 172.054 Q754.856 170.226 751.986 170.226 Q748.537 170.226 746.546 172.425 Q744.555 174.624 744.555 178.42 L744.555 193.073 L740.273 193.073 L740.273 157.054 L744.555 157.054 L744.555 171.175 Q746.083 168.837 748.143 167.679 Q750.226 166.522 752.935 166.522 Q757.402 166.522 759.694 169.3 Q761.986 172.054 761.986 177.425 Z" fill="#000000" fill-rule="nonzero" fill-opacity="1" /><path clip-path="url(#clip190)" d="M782.263 180.04 Q777.101 180.04 775.111 181.221 Q773.12 182.402 773.12 185.249 Q773.12 187.517 774.601 188.86 Q776.106 190.179 778.675 190.179 Q782.217 190.179 784.347 187.679 Q786.499 185.156 786.499 180.99 L786.499 180.04 L782.263 180.04 M790.759 178.281 L790.759 193.073 L786.499 193.073 L786.499 189.138 Q785.041 191.499 782.865 192.633 Q780.689 193.744 777.541 193.744 Q773.56 193.744 771.198 191.522 Q768.861 189.277 768.861 185.527 Q768.861 181.152 771.777 178.929 Q774.717 176.707 780.527 176.707 L786.499 176.707 L786.499 176.291 Q786.499 173.351 784.555 171.753 Q782.634 170.133 779.138 170.133 Q776.916 170.133 774.81 170.666 Q772.703 171.198 770.759 172.263 L770.759 168.328 Q773.097 167.425 775.296 166.985 Q777.495 166.522 779.578 166.522 Q785.203 166.522 787.981 169.439 Q790.759 172.355 790.759 178.281 Z" fill="#000000" fill-rule="nonzero" fill-opacity="1" /><path clip-path="url(#clip190)" d="M816.059 167.911 L816.059 171.939 Q814.254 171.013 812.309 170.55 Q810.365 170.087 808.282 170.087 Q805.11 170.087 803.513 171.059 Q801.939 172.031 801.939 173.976 Q801.939 175.457 803.073 176.314 Q804.208 177.147 807.633 177.911 L809.092 178.235 Q813.629 179.207 815.527 180.99 Q817.448 182.749 817.448 185.92 Q817.448 189.531 814.578 191.638 Q811.731 193.744 806.731 193.744 Q804.647 193.744 802.379 193.327 Q800.134 192.934 797.634 192.124 L797.634 187.726 Q799.995 188.952 802.286 189.577 Q804.578 190.179 806.823 190.179 Q809.833 190.179 811.453 189.161 Q813.073 188.119 813.073 186.244 Q813.073 184.508 811.893 183.582 Q810.735 182.656 806.777 181.8 L805.296 181.453 Q801.337 180.619 799.578 178.906 Q797.819 177.17 797.819 174.161 Q797.819 170.503 800.411 168.513 Q803.004 166.522 807.772 166.522 Q810.133 166.522 812.217 166.869 Q814.3 167.216 816.059 167.911 Z" fill="#000000" fill-rule="nonzero" fill-opacity="1" /><path clip-path="url(#clip190)" d="M828.444 159.786 L828.444 167.147 L837.217 167.147 L837.217 170.457 L828.444 170.457 L828.444 184.531 Q828.444 187.702 829.3 188.605 Q830.18 189.508 832.842 189.508 L837.217 189.508 L837.217 193.073 L832.842 193.073 Q827.911 193.073 826.036 191.244 Q824.161 189.392 824.161 184.531 L824.161 170.457 L821.036 170.457 L821.036 167.147 L824.161 167.147 L824.161 159.786 L828.444 159.786 Z" fill="#000000" fill-rule="nonzero" fill-opacity="1" /><path clip-path="url(#clip190)" d="M842.818 167.147 L847.078 167.147 L847.078 193.073 L842.818 193.073 L842.818 167.147 M842.818 157.054 L847.078 157.054 L847.078 162.448 L842.818 162.448 L842.818 157.054 Z" fill="#000000" fill-rule="nonzero" fill-opacity="1" /><path clip-path="url(#clip190)" d="M874.647 168.142 L874.647 172.124 Q872.841 171.128 871.013 170.642 Q869.207 170.133 867.355 170.133 Q863.212 170.133 860.92 172.772 Q858.629 175.388 858.629 180.133 Q858.629 184.878 860.92 187.517 Q863.212 190.133 867.355 190.133 Q869.207 190.133 871.013 189.647 Q872.841 189.138 874.647 188.142 L874.647 192.077 Q872.865 192.911 870.943 193.327 Q869.045 193.744 866.892 193.744 Q861.036 193.744 857.587 190.064 Q854.138 186.383 854.138 180.133 Q854.138 173.791 857.61 170.156 Q861.105 166.522 867.17 166.522 Q869.138 166.522 871.013 166.939 Q872.888 167.332 874.647 168.142 Z" fill="#000000" fill-rule="nonzero" fill-opacity="1" /><path clip-path="url(#clip190)" d="M897.309 158.513 L919.161 158.513 L919.161 162.448 L901.985 162.448 L901.985 172.679 L918.443 172.679 L918.443 176.615 L901.985 176.615 L901.985 189.138 L919.577 189.138 L919.577 193.073 L897.309 193.073 L897.309 158.513 Z" fill="#000000" fill-rule="nonzero" fill-opacity="1" /><path clip-path="url(#clip190)" d="M948.628 177.425 L948.628 193.073 L944.369 193.073 L944.369 177.564 Q944.369 173.883 942.934 172.054 Q941.499 170.226 938.628 170.226 Q935.179 170.226 933.188 172.425 Q931.198 174.624 931.198 178.42 L931.198 193.073 L926.915 193.073 L926.915 167.147 L931.198 167.147 L931.198 171.175 Q932.725 168.837 934.786 167.679 Q936.869 166.522 939.577 166.522 Q944.045 166.522 946.336 169.3 Q948.628 172.054 948.628 177.425 Z" fill="#000000" fill-rule="nonzero" fill-opacity="1" /><path clip-path="url(#clip190)" d="M961.336 159.786 L961.336 167.147 L970.109 167.147 L970.109 170.457 L961.336 170.457 L961.336 184.531 Q961.336 187.702 962.193 188.605 Q963.072 189.508 965.734 189.508 L970.109 189.508 L970.109 193.073 L965.734 193.073 Q960.804 193.073 958.929 191.244 Q957.054 189.392 957.054 184.531 L957.054 170.457 L953.929 170.457 L953.929 167.147 L957.054 167.147 L957.054 159.786 L961.336 159.786 Z" fill="#000000" fill-rule="nonzero" fill-opacity="1" /><path clip-path="url(#clip190)" d="M1001.01 157.101 Q997.91 162.425 996.406 167.633 Q994.901 172.841 994.901 178.189 Q994.901 183.536 996.406 188.79 Q997.933 194.022 1001.01 199.323 L997.308 199.323 Q993.836 193.883 992.1 188.628 Q990.387 183.374 990.387 178.189 Q990.387 173.027 992.1 167.795 Q993.813 162.564 997.308 157.101 L1001.01 157.101 Z" fill="#000000" fill-rule="nonzero" fill-opacity="1" /><path clip-path="url(#clip190)" d="M1009.46 158.513 L1031.31 158.513 L1031.31 162.448 L1014.14 162.448 L1014.14 172.679 L1030.6 172.679 L1030.6 176.615 L1014.14 176.615 L1014.14 189.138 L1031.73 189.138 L1031.73 193.073 L1009.46 193.073 L1009.46 158.513 Z" fill="#000000" fill-rule="nonzero" fill-opacity="1" /><path clip-path="url(#clip190)" d="M1053.44 161.684 Q1048.35 161.684 1045.34 165.48 Q1042.35 169.277 1042.35 175.828 Q1042.35 182.355 1045.34 186.152 Q1048.35 189.948 1053.44 189.948 Q1058.53 189.948 1061.5 186.152 Q1064.48 182.355 1064.48 175.828 Q1064.48 169.277 1061.5 165.48 Q1058.53 161.684 1053.44 161.684 M1053.44 157.888 Q1060.71 157.888 1065.06 162.772 Q1069.41 167.633 1069.41 175.828 Q1069.41 183.999 1065.06 188.883 Q1060.71 193.744 1053.44 193.744 Q1046.15 193.744 1041.78 188.883 Q1037.42 184.022 1037.42 175.828 Q1037.42 167.633 1041.78 162.772 Q1046.15 157.888 1053.44 157.888 Z" fill="#000000" fill-rule="nonzero" fill-opacity="1" /><path clip-path="url(#clip190)" d="M1071.94 158.513 L1101.17 158.513 L1101.17 162.448 L1088.91 162.448 L1088.91 193.073 L1084.21 193.073 L1084.21 162.448 L1071.94 162.448 L1071.94 158.513 Z" fill="#000000" fill-rule="nonzero" fill-opacity="1" /><path clip-path="url(#clip190)" d="M1104.83 157.101 L1108.53 157.101 Q1112.01 162.564 1113.72 167.795 Q1115.46 173.027 1115.46 178.189 Q1115.46 183.374 1113.72 188.628 Q1112.01 193.883 1108.53 199.323 L1104.83 199.323 Q1107.91 194.022 1109.41 188.79 Q1110.94 183.536 1110.94 178.189 Q1110.94 172.841 1109.41 167.633 Q1107.91 162.425 1104.83 157.101 Z" fill="#000000" fill-rule="nonzero" fill-opacity="1" /><path clip-path="url(#clip190)" d="M559.27 210.566 L542.203 244.699 L576.336 244.699 L559.27 210.566 Z" fill="#4dae49" fill-rule="evenodd" fill-opacity="1" stroke="#000000" stroke-opacity="1" stroke-width="8.53333"/>
<path clip-path="url(#clip190)" d="M612.959 228.709 Q614.463 229.218 615.875 230.885 Q617.31 232.552 618.746 235.468 L623.491 244.913 L618.468 244.913 L614.047 236.047 Q612.334 232.575 610.713 231.441 Q609.116 230.306 606.338 230.306 L601.246 230.306 L601.246 244.913 L596.57 244.913 L596.57 210.353 L607.125 210.353 Q613.051 210.353 615.968 212.83 Q618.884 215.306 618.884 220.306 Q618.884 223.57 617.357 225.723 Q615.852 227.876 612.959 228.709 M601.246 214.195 L601.246 226.464 L607.125 226.464 Q610.505 226.464 612.218 224.913 Q613.954 223.339 613.954 220.306 Q613.954 217.274 612.218 215.746 Q610.505 214.195 607.125 214.195 L601.246 214.195 Z" fill="#000000" fill-rule="nonzero" fill-opacity="1" /><path clip-path="url(#clip190)" d="M624.509 210.353 L629.232 210.353 L636.5 239.566 L643.745 210.353 L649 210.353 L656.269 239.566 L663.514 210.353 L668.259 210.353 L659.579 244.913 L653.699 244.913 L646.407 214.913 L639.046 244.913 L633.167 244.913 L624.509 210.353 Z" fill="#000000" fill-rule="nonzero" fill-opacity="1" /><path clip-path="url(#clip190)" d="M710.898 229.265 L710.898 244.913 L706.639 244.913 L706.639 229.404 Q706.639 225.723 705.203 223.894 Q703.768 222.066 700.898 222.066 Q697.449 222.066 695.458 224.265 Q693.467 226.464 693.467 230.26 L693.467 244.913 L689.185 244.913 L689.185 218.987 L693.467 218.987 L693.467 223.015 Q694.995 220.677 697.055 219.519 Q699.139 218.362 701.847 218.362 Q706.315 218.362 708.606 221.14 Q710.898 223.894 710.898 229.265 Z" fill="#000000" fill-rule="nonzero" fill-opacity="1" /><path clip-path="url(#clip190)" d="M729.439 221.973 Q726.014 221.973 724.023 224.658 Q722.032 227.32 722.032 231.973 Q722.032 236.626 724 239.311 Q725.99 241.973 729.439 241.973 Q732.842 241.973 734.833 239.288 Q736.824 236.603 736.824 231.973 Q736.824 227.367 734.833 224.681 Q732.842 221.973 729.439 221.973 M729.439 218.362 Q734.995 218.362 738.166 221.973 Q741.338 225.584 741.338 231.973 Q741.338 238.339 738.166 241.973 Q734.995 245.584 729.439 245.584 Q723.861 245.584 720.69 241.973 Q717.541 238.339 717.541 231.973 Q717.541 225.584 720.69 221.973 Q723.861 218.362 729.439 218.362 Z" fill="#000000" fill-rule="nonzero" fill-opacity="1" /><path clip-path="url(#clip190)" d="M763.421 222.968 Q762.703 222.552 761.847 222.367 Q761.013 222.158 759.995 222.158 Q756.384 222.158 754.439 224.519 Q752.518 226.857 752.518 231.255 L752.518 244.913 L748.236 244.913 L748.236 218.987 L752.518 218.987 L752.518 223.015 Q753.861 220.654 756.013 219.519 Q758.166 218.362 761.245 218.362 Q761.685 218.362 762.217 218.431 Q762.749 218.478 763.398 218.594 L763.421 222.968 Z" fill="#000000" fill-rule="nonzero" fill-opacity="1" /><path clip-path="url(#clip190)" d="M787.24 223.964 Q788.837 221.094 791.059 219.728 Q793.282 218.362 796.291 218.362 Q800.342 218.362 802.541 221.209 Q804.74 224.033 804.74 229.265 L804.74 244.913 L800.458 244.913 L800.458 229.404 Q800.458 225.677 799.138 223.871 Q797.819 222.066 795.11 222.066 Q791.8 222.066 789.879 224.265 Q787.958 226.464 787.958 230.26 L787.958 244.913 L783.675 244.913 L783.675 229.404 Q783.675 225.654 782.356 223.871 Q781.036 222.066 778.282 222.066 Q775.018 222.066 773.097 224.288 Q771.175 226.487 771.175 230.26 L771.175 244.913 L766.893 244.913 L766.893 218.987 L771.175 218.987 L771.175 223.015 Q772.634 220.631 774.671 219.496 Q776.708 218.362 779.509 218.362 Q782.333 218.362 784.3 219.797 Q786.291 221.232 787.24 223.964 Z" fill="#000000" fill-rule="nonzero" fill-opacity="1" /><path clip-path="url(#clip190)" d="M825.018 231.88 Q819.856 231.88 817.865 233.061 Q815.874 234.242 815.874 237.089 Q815.874 239.357 817.356 240.7 Q818.86 242.019 821.43 242.019 Q824.971 242.019 827.101 239.519 Q829.254 236.996 829.254 232.83 L829.254 231.88 L825.018 231.88 M833.513 230.121 L833.513 244.913 L829.254 244.913 L829.254 240.978 Q827.795 243.339 825.619 244.473 Q823.444 245.584 820.295 245.584 Q816.314 245.584 813.953 243.362 Q811.615 241.117 811.615 237.367 Q811.615 232.992 814.532 230.769 Q817.471 228.547 823.282 228.547 L829.254 228.547 L829.254 228.131 Q829.254 225.191 827.309 223.593 Q825.388 221.973 821.893 221.973 Q819.67 221.973 817.564 222.506 Q815.458 223.038 813.513 224.103 L813.513 220.168 Q815.851 219.265 818.05 218.825 Q820.249 218.362 822.332 218.362 Q827.957 218.362 830.735 221.279 Q833.513 224.195 833.513 230.121 Z" fill="#000000" fill-rule="nonzero" fill-opacity="1" /><path clip-path="url(#clip190)" d="M842.286 208.894 L846.545 208.894 L846.545 244.913 L842.286 244.913 L842.286 208.894 Z" fill="#000000" fill-rule="nonzero" fill-opacity="1" /><path clip-path="url(#clip190)" d="M855.457 218.987 L859.717 218.987 L859.717 244.913 L855.457 244.913 L855.457 218.987 M855.457 208.894 L859.717 208.894 L859.717 214.288 L855.457 214.288 L855.457 208.894 Z" fill="#000000" fill-rule="nonzero" fill-opacity="1" /><path clip-path="url(#clip190)" d="M866.777 218.987 L887.008 218.987 L887.008 222.876 L870.99 241.51 L887.008 241.51 L887.008 244.913 L866.198 244.913 L866.198 241.024 L882.216 222.39 L866.777 222.39 L866.777 218.987 Z" fill="#000000" fill-rule="nonzero" fill-opacity="1" /><path clip-path="url(#clip190)" d="M905.295 231.88 Q900.133 231.88 898.142 233.061 Q896.152 234.242 896.152 237.089 Q896.152 239.357 897.633 240.7 Q899.138 242.019 901.707 242.019 Q905.249 242.019 907.378 239.519 Q909.531 236.996 909.531 232.83 L909.531 231.88 L905.295 231.88 M913.79 230.121 L913.79 244.913 L909.531 244.913 L909.531 240.978 Q908.073 243.339 905.897 244.473 Q903.721 245.584 900.573 245.584 Q896.591 245.584 894.23 243.362 Q891.892 241.117 891.892 237.367 Q891.892 232.992 894.809 230.769 Q897.749 228.547 903.559 228.547 L909.531 228.547 L909.531 228.131 Q909.531 225.191 907.587 223.593 Q905.665 221.973 902.17 221.973 Q899.948 221.973 897.841 222.506 Q895.735 223.038 893.79 224.103 L893.79 220.168 Q896.128 219.265 898.327 218.825 Q900.527 218.362 902.61 218.362 Q908.235 218.362 911.013 221.279 Q913.79 224.195 913.79 230.121 Z" fill="#000000" fill-rule="nonzero" fill-opacity="1" /><path clip-path="url(#clip190)" d="M926.776 211.626 L926.776 218.987 L935.549 218.987 L935.549 222.297 L926.776 222.297 L926.776 236.371 Q926.776 239.542 927.633 240.445 Q928.512 241.348 931.174 241.348 L935.549 241.348 L935.549 244.913 L931.174 244.913 Q926.244 244.913 924.369 243.084 Q922.494 241.232 922.494 236.371 L922.494 222.297 L919.369 222.297 L919.369 218.987 L922.494 218.987 L922.494 211.626 L926.776 211.626 Z" fill="#000000" fill-rule="nonzero" fill-opacity="1" /><path clip-path="url(#clip190)" d="M941.151 218.987 L945.411 218.987 L945.411 244.913 L941.151 244.913 L941.151 218.987 M941.151 208.894 L945.411 208.894 L945.411 214.288 L941.151 214.288 L941.151 208.894 Z" fill="#000000" fill-rule="nonzero" fill-opacity="1" /><path clip-path="url(#clip190)" d="M964.369 221.973 Q960.943 221.973 958.952 224.658 Q956.961 227.32 956.961 231.973 Q956.961 236.626 958.929 239.311 Q960.92 241.973 964.369 241.973 Q967.772 241.973 969.762 239.288 Q971.753 236.603 971.753 231.973 Q971.753 227.367 969.762 224.681 Q967.772 221.973 964.369 221.973 M964.369 218.362 Q969.924 218.362 973.096 221.973 Q976.267 225.584 976.267 231.973 Q976.267 238.339 973.096 241.973 Q969.924 245.584 964.369 245.584 Q958.79 245.584 955.619 241.973 Q952.471 238.339 952.471 231.973 Q952.471 225.584 955.619 221.973 Q958.79 218.362 964.369 218.362 Z" fill="#000000" fill-rule="nonzero" fill-opacity="1" /><path clip-path="url(#clip190)" d="M1004.88 229.265 L1004.88 244.913 L1000.62 244.913 L1000.62 229.404 Q1000.62 225.723 999.183 223.894 Q997.748 222.066 994.878 222.066 Q991.429 222.066 989.438 224.265 Q987.447 226.464 987.447 230.26 L987.447 244.913 L983.165 244.913 L983.165 218.987 L987.447 218.987 L987.447 223.015 Q988.975 220.677 991.035 219.519 Q993.119 218.362 995.827 218.362 Q1000.29 218.362 1002.59 221.14 Q1004.88 223.894 1004.88 229.265 Z" fill="#000000" fill-rule="nonzero" fill-opacity="1" /></svg>
