<?xml version="1.0" encoding="utf-8"?>
<svg xmlns="http://www.w3.org/2000/svg" xmlns:xlink="http://www.w3.org/1999/xlink" width="250" height="250" viewBox="0 0 1000 1000">
<defs>
  <clipPath id="clip940">
    <rect x="0" y="0" width="1000" height="1000"/>
  </clipPath>
</defs>
<path clip-path="url(#clip940)" d="M0 1000 L1000 1000 L1000 0 L0 0  Z" fill="#ffffff" fill-rule="evenodd" fill-opacity="1"/>
<defs>
  <clipPath id="clip941">
    <rect x="200" y="100" width="701" height="701"/>
  </clipPath>
</defs>
<path clip-path="url(#clip940)" d="M259.302 788.14 L952.756 788.14 L952.756 47.2441 L259.302 47.2441  Z" fill="#ffffff" fill-rule="evenodd" fill-opacity="1"/>
<defs>
  <clipPath id="clip942">
    <rect x="259" y="47" width="694" height="742"/>
  </clipPath>
</defs>
<polyline clip-path="url(#clip942)" style="stroke:#000000; stroke-linecap:round; stroke-linejoin:round; stroke-width:2; stroke-opacity:0.1; fill:none" points="278.928,788.14 278.928,47.2441 "/>
<polyline clip-path="url(#clip942)" style="stroke:#000000; stroke-linecap:round; stroke-linejoin:round; stroke-width:2; stroke-opacity:0.1; fill:none" points="379.342,788.14 379.342,47.2441 "/>
<polyline clip-path="url(#clip942)" style="stroke:#000000; stroke-linecap:round; stroke-linejoin:round; stroke-width:2; stroke-opacity:0.1; fill:none" points="479.755,788.14 479.755,47.2441 "/>
<polyline clip-path="url(#clip942)" style="stroke:#000000; stroke-linecap:round; stroke-linejoin:round; stroke-width:2; stroke-opacity:0.1; fill:none" points="580.168,788.14 580.168,47.2441 "/>
<polyline clip-path="url(#clip942)" style="stroke:#000000; stroke-linecap:round; stroke-linejoin:round; stroke-width:2; stroke-opacity:0.1; fill:none" points="680.582,788.14 680.582,47.2441 "/>
<polyline clip-path="url(#clip942)" style="stroke:#000000; stroke-linecap:round; stroke-linejoin:round; stroke-width:2; stroke-opacity:0.1; fill:none" points="780.995,788.14 780.995,47.2441 "/>
<polyline clip-path="url(#clip942)" style="stroke:#000000; stroke-linecap:round; stroke-linejoin:round; stroke-width:2; stroke-opacity:0.1; fill:none" points="881.409,788.14 881.409,47.2441 "/>
<polyline clip-path="url(#clip942)" style="stroke:#000000; stroke-linecap:round; stroke-linejoin:round; stroke-width:2; stroke-opacity:0.1; fill:none" points="259.302,767.171 952.756,767.171 "/>
<polyline clip-path="url(#clip942)" style="stroke:#000000; stroke-linecap:round; stroke-linejoin:round; stroke-width:2; stroke-opacity:0.1; fill:none" points="259.302,619.712 952.756,619.712 "/>
<polyline clip-path="url(#clip942)" style="stroke:#000000; stroke-linecap:round; stroke-linejoin:round; stroke-width:2; stroke-opacity:0.1; fill:none" points="259.302,472.252 952.756,472.252 "/>
<polyline clip-path="url(#clip942)" style="stroke:#000000; stroke-linecap:round; stroke-linejoin:round; stroke-width:2; stroke-opacity:0.1; fill:none" points="259.302,324.792 952.756,324.792 "/>
<polyline clip-path="url(#clip942)" style="stroke:#000000; stroke-linecap:round; stroke-linejoin:round; stroke-width:2; stroke-opacity:0.1; fill:none" points="259.302,177.333 952.756,177.333 "/>
<polyline clip-path="url(#clip940)" style="stroke:#000000; stroke-linecap:round; stroke-linejoin:round; stroke-width:4; stroke-opacity:1; fill:none" points="259.302,788.14 952.756,788.14 "/>
<polyline clip-path="url(#clip940)" style="stroke:#000000; stroke-linecap:round; stroke-linejoin:round; stroke-width:4; stroke-opacity:1; fill:none" points="278.928,788.14 278.928,769.242 "/>
<polyline clip-path="url(#clip940)" style="stroke:#000000; stroke-linecap:round; stroke-linejoin:round; stroke-width:4; stroke-opacity:1; fill:none" points="379.342,788.14 379.342,769.242 "/>
<polyline clip-path="url(#clip940)" style="stroke:#000000; stroke-linecap:round; stroke-linejoin:round; stroke-width:4; stroke-opacity:1; fill:none" points="479.755,788.14 479.755,769.242 "/>
<polyline clip-path="url(#clip940)" style="stroke:#000000; stroke-linecap:round; stroke-linejoin:round; stroke-width:4; stroke-opacity:1; fill:none" points="580.168,788.14 580.168,769.242 "/>
<polyline clip-path="url(#clip940)" style="stroke:#000000; stroke-linecap:round; stroke-linejoin:round; stroke-width:4; stroke-opacity:1; fill:none" points="680.582,788.14 680.582,769.242 "/>
<polyline clip-path="url(#clip940)" style="stroke:#000000; stroke-linecap:round; stroke-linejoin:round; stroke-width:4; stroke-opacity:1; fill:none" points="780.995,788.14 780.995,769.242 "/>
<polyline clip-path="url(#clip940)" style="stroke:#000000; stroke-linecap:round; stroke-linejoin:round; stroke-width:4; stroke-opacity:1; fill:none" points="881.409,788.14 881.409,769.242 "/>
<path clip-path="url(#clip940)" d="M278.928 807.859 Q275.317 807.859 273.488 811.423 Q271.683 814.965 271.683 822.095 Q271.683 829.201 273.488 832.766 Q275.317 836.307 278.928 836.307 Q282.562 836.307 284.368 832.766 Q286.197 829.201 286.197 822.095 Q286.197 814.965 284.368 811.423 Q282.562 807.859 278.928 807.859 M278.928 804.155 Q284.738 804.155 287.794 808.761 Q290.872 813.345 290.872 822.095 Q290.872 830.821 287.794 835.428 Q284.738 840.011 278.928 840.011 Q273.118 840.011 270.039 835.428 Q266.984 830.821 266.984 822.095 Q266.984 813.345 270.039 808.761 Q273.118 804.155 278.928 804.155 Z" fill="#000000" fill-rule="nonzero" fill-opacity="1" /><path clip-path="url(#clip940)" d="M354.029 835.405 L361.668 835.405 L361.668 809.039 L353.358 810.706 L353.358 806.447 L361.622 804.78 L366.298 804.78 L366.298 835.405 L373.936 835.405 L373.936 839.34 L354.029 839.34 L354.029 835.405 Z" fill="#000000" fill-rule="nonzero" fill-opacity="1" /><path clip-path="url(#clip940)" d="M393.381 807.859 Q389.77 807.859 387.941 811.423 Q386.135 814.965 386.135 822.095 Q386.135 829.201 387.941 832.766 Q389.77 836.307 393.381 836.307 Q397.015 836.307 398.821 832.766 Q400.649 829.201 400.649 822.095 Q400.649 814.965 398.821 811.423 Q397.015 807.859 393.381 807.859 M393.381 804.155 Q399.191 804.155 402.247 808.761 Q405.325 813.345 405.325 822.095 Q405.325 830.821 402.247 835.428 Q399.191 840.011 393.381 840.011 Q387.571 840.011 384.492 835.428 Q381.436 830.821 381.436 822.095 Q381.436 813.345 384.492 808.761 Q387.571 804.155 393.381 804.155 Z" fill="#000000" fill-rule="nonzero" fill-opacity="1" /><path clip-path="url(#clip940)" d="M458.528 835.405 L474.848 835.405 L474.848 839.34 L452.903 839.34 L452.903 835.405 Q455.565 832.65 460.149 828.02 Q464.755 823.368 465.936 822.025 Q468.181 819.502 469.061 817.766 Q469.963 816.007 469.963 814.317 Q469.963 811.562 468.019 809.826 Q466.098 808.09 462.996 808.09 Q460.797 808.09 458.343 808.854 Q455.913 809.618 453.135 811.169 L453.135 806.447 Q455.959 805.312 458.413 804.734 Q460.866 804.155 462.903 804.155 Q468.274 804.155 471.468 806.84 Q474.662 809.525 474.662 814.016 Q474.662 816.146 473.852 818.067 Q473.065 819.965 470.959 822.558 Q470.38 823.229 467.278 826.446 Q464.176 829.641 458.528 835.405 Z" fill="#000000" fill-rule="nonzero" fill-opacity="1" /><path clip-path="url(#clip940)" d="M494.662 807.859 Q491.051 807.859 489.223 811.423 Q487.417 814.965 487.417 822.095 Q487.417 829.201 489.223 832.766 Q491.051 836.307 494.662 836.307 Q498.297 836.307 500.102 832.766 Q501.931 829.201 501.931 822.095 Q501.931 814.965 500.102 811.423 Q498.297 807.859 494.662 807.859 M494.662 804.155 Q500.472 804.155 503.528 808.761 Q506.607 813.345 506.607 822.095 Q506.607 830.821 503.528 835.428 Q500.472 840.011 494.662 840.011 Q488.852 840.011 485.773 835.428 Q482.718 830.821 482.718 822.095 Q482.718 813.345 485.773 808.761 Q488.852 804.155 494.662 804.155 Z" fill="#000000" fill-rule="nonzero" fill-opacity="1" /><path clip-path="url(#clip940)" d="M569.011 820.706 Q572.368 821.423 574.243 823.692 Q576.141 825.96 576.141 829.294 Q576.141 834.409 572.622 837.21 Q569.104 840.011 562.622 840.011 Q560.446 840.011 558.132 839.571 Q555.84 839.155 553.386 838.298 L553.386 833.784 Q555.331 834.919 557.645 835.497 Q559.96 836.076 562.483 836.076 Q566.881 836.076 569.173 834.34 Q571.488 832.604 571.488 829.294 Q571.488 826.238 569.335 824.525 Q567.206 822.789 563.386 822.789 L559.358 822.789 L559.358 818.946 L563.571 818.946 Q567.02 818.946 568.849 817.581 Q570.678 816.192 570.678 813.599 Q570.678 810.937 568.78 809.525 Q566.905 808.09 563.386 808.09 Q561.465 808.09 559.266 808.507 Q557.067 808.923 554.428 809.803 L554.428 805.636 Q557.09 804.896 559.405 804.525 Q561.743 804.155 563.803 804.155 Q569.127 804.155 572.229 806.585 Q575.331 808.993 575.331 813.113 Q575.331 815.983 573.687 817.974 Q572.043 819.942 569.011 820.706 Z" fill="#000000" fill-rule="nonzero" fill-opacity="1" /><path clip-path="url(#clip940)" d="M595.006 807.859 Q591.395 807.859 589.567 811.423 Q587.761 814.965 587.761 822.095 Q587.761 829.201 589.567 832.766 Q591.395 836.307 595.006 836.307 Q598.641 836.307 600.446 832.766 Q602.275 829.201 602.275 822.095 Q602.275 814.965 600.446 811.423 Q598.641 807.859 595.006 807.859 M595.006 804.155 Q600.816 804.155 603.872 808.761 Q606.951 813.345 606.951 822.095 Q606.951 830.821 603.872 835.428 Q600.816 840.011 595.006 840.011 Q589.196 840.011 586.117 835.428 Q583.062 830.821 583.062 822.095 Q583.062 813.345 586.117 808.761 Q589.196 804.155 595.006 804.155 Z" fill="#000000" fill-rule="nonzero" fill-opacity="1" /><path clip-path="url(#clip940)" d="M668.753 808.854 L656.948 827.303 L668.753 827.303 L668.753 808.854 M667.526 804.78 L673.406 804.78 L673.406 827.303 L678.337 827.303 L678.337 831.192 L673.406 831.192 L673.406 839.34 L668.753 839.34 L668.753 831.192 L653.151 831.192 L653.151 826.678 L667.526 804.78 Z" fill="#000000" fill-rule="nonzero" fill-opacity="1" /><path clip-path="url(#clip940)" d="M696.068 807.859 Q692.457 807.859 690.628 811.423 Q688.823 814.965 688.823 822.095 Q688.823 829.201 690.628 832.766 Q692.457 836.307 696.068 836.307 Q699.702 836.307 701.508 832.766 Q703.336 829.201 703.336 822.095 Q703.336 814.965 701.508 811.423 Q699.702 807.859 696.068 807.859 M696.068 804.155 Q701.878 804.155 704.934 808.761 Q708.012 813.345 708.012 822.095 Q708.012 830.821 704.934 835.428 Q701.878 840.011 696.068 840.011 Q690.258 840.011 687.179 835.428 Q684.124 830.821 684.124 822.095 Q684.124 813.345 687.179 808.761 Q690.258 804.155 696.068 804.155 Z" fill="#000000" fill-rule="nonzero" fill-opacity="1" /><path clip-path="url(#clip940)" d="M755.695 804.78 L774.051 804.78 L774.051 808.715 L759.977 808.715 L759.977 817.187 Q760.995 816.84 762.014 816.678 Q763.032 816.493 764.051 816.493 Q769.838 816.493 773.218 819.664 Q776.597 822.835 776.597 828.252 Q776.597 833.831 773.125 836.932 Q769.653 840.011 763.333 840.011 Q761.157 840.011 758.889 839.641 Q756.644 839.27 754.236 838.53 L754.236 833.831 Q756.32 834.965 758.542 835.52 Q760.764 836.076 763.241 836.076 Q767.245 836.076 769.583 833.97 Q771.921 831.863 771.921 828.252 Q771.921 824.641 769.583 822.534 Q767.245 820.428 763.241 820.428 Q761.366 820.428 759.491 820.845 Q757.639 821.261 755.695 822.141 L755.695 804.78 Z" fill="#000000" fill-rule="nonzero" fill-opacity="1" /><path clip-path="url(#clip940)" d="M795.81 807.859 Q792.199 807.859 790.37 811.423 Q788.565 814.965 788.565 822.095 Q788.565 829.201 790.37 832.766 Q792.199 836.307 795.81 836.307 Q799.444 836.307 801.25 832.766 Q803.079 829.201 803.079 822.095 Q803.079 814.965 801.25 811.423 Q799.444 807.859 795.81 807.859 M795.81 804.155 Q801.62 804.155 804.676 808.761 Q807.754 813.345 807.754 822.095 Q807.754 830.821 804.676 835.428 Q801.62 840.011 795.81 840.011 Q790 840.011 786.921 835.428 Q783.866 830.821 783.866 822.095 Q783.866 813.345 786.921 808.761 Q790 804.155 795.81 804.155 Z" fill="#000000" fill-rule="nonzero" fill-opacity="1" /><path clip-path="url(#clip940)" d="M866.814 820.196 Q863.666 820.196 861.814 822.349 Q859.985 824.502 859.985 828.252 Q859.985 831.979 861.814 834.155 Q863.666 836.307 866.814 836.307 Q869.962 836.307 871.791 834.155 Q873.643 831.979 873.643 828.252 Q873.643 824.502 871.791 822.349 Q869.962 820.196 866.814 820.196 M876.096 805.544 L876.096 809.803 Q874.337 808.97 872.532 808.53 Q870.749 808.09 868.99 808.09 Q864.36 808.09 861.907 811.215 Q859.476 814.34 859.129 820.659 Q860.495 818.646 862.555 817.581 Q864.615 816.493 867.092 816.493 Q872.3 816.493 875.309 819.664 Q878.342 822.812 878.342 828.252 Q878.342 833.576 875.194 836.794 Q872.045 840.011 866.814 840.011 Q860.819 840.011 857.647 835.428 Q854.476 830.821 854.476 822.095 Q854.476 813.9 858.365 809.039 Q862.254 804.155 868.805 804.155 Q870.564 804.155 872.346 804.502 Q874.152 804.849 876.096 805.544 Z" fill="#000000" fill-rule="nonzero" fill-opacity="1" /><path clip-path="url(#clip940)" d="M896.397 807.859 Q892.786 807.859 890.957 811.423 Q889.152 814.965 889.152 822.095 Q889.152 829.201 890.957 832.766 Q892.786 836.307 896.397 836.307 Q900.031 836.307 901.837 832.766 Q903.666 829.201 903.666 822.095 Q903.666 814.965 901.837 811.423 Q900.031 807.859 896.397 807.859 M896.397 804.155 Q902.207 804.155 905.263 808.761 Q908.342 813.345 908.342 822.095 Q908.342 830.821 905.263 835.428 Q902.207 840.011 896.397 840.011 Q890.587 840.011 887.508 835.428 Q884.453 830.821 884.453 822.095 Q884.453 813.345 887.508 808.761 Q890.587 804.155 896.397 804.155 Z" fill="#000000" fill-rule="nonzero" fill-opacity="1" /><path clip-path="url(#clip940)" d="M455.05 869.767 L455.05 887.623 L463.135 887.623 Q467.623 887.623 470.073 885.3 Q472.524 882.976 472.524 878.679 Q472.524 874.414 470.073 872.091 Q467.623 869.767 463.135 869.767 L455.05 869.767 M448.621 864.484 L463.135 864.484 Q471.124 864.484 475.198 868.112 Q479.304 871.709 479.304 878.679 Q479.304 885.713 475.198 889.31 Q471.124 892.907 463.135 892.907 L455.05 892.907 L455.05 912.004 L448.621 912.004 L448.621 864.484 Z" fill="#000000" fill-rule="nonzero" fill-opacity="1" /><path clip-path="url(#clip940)" d="M515.843 892.716 L515.843 895.58 L488.916 895.58 Q489.298 901.628 492.544 904.811 Q495.823 907.962 501.647 907.962 Q505.021 907.962 508.172 907.134 Q511.355 906.307 514.474 904.651 L514.474 910.19 Q511.323 911.526 508.013 912.227 Q504.703 912.927 501.297 912.927 Q492.767 912.927 487.77 907.962 Q482.805 902.996 482.805 894.53 Q482.805 885.777 487.515 880.653 Q492.258 875.497 500.279 875.497 Q507.472 875.497 511.641 880.143 Q515.843 884.759 515.843 892.716 M509.986 890.997 Q509.923 886.191 507.281 883.326 Q504.671 880.462 500.342 880.462 Q495.441 880.462 492.481 883.231 Q489.552 886 489.107 891.029 L509.986 890.997 Z" fill="#000000" fill-rule="nonzero" fill-opacity="1" /><path clip-path="url(#clip940)" d="M546.112 881.83 Q545.125 881.257 543.947 881.003 Q542.802 880.716 541.401 880.716 Q536.436 880.716 533.762 883.963 Q531.121 887.178 531.121 893.225 L531.121 912.004 L525.232 912.004 L525.232 876.356 L531.121 876.356 L531.121 881.894 Q532.967 878.648 535.927 877.088 Q538.887 875.497 543.12 875.497 Q543.725 875.497 544.457 875.592 Q545.189 875.656 546.08 875.815 L546.112 881.83 Z" fill="#000000" fill-rule="nonzero" fill-opacity="1" /><path clip-path="url(#clip940)" d="M557.92 906.657 L557.92 925.563 L552.032 925.563 L552.032 876.356 L557.92 876.356 L557.92 881.767 Q559.766 878.584 562.567 877.056 Q565.4 875.497 569.315 875.497 Q575.808 875.497 579.85 880.653 Q583.924 885.809 583.924 894.212 Q583.924 902.614 579.85 907.771 Q575.808 912.927 569.315 912.927 Q565.4 912.927 562.567 911.399 Q559.766 909.84 557.92 906.657 M577.845 894.212 Q577.845 887.751 575.171 884.09 Q572.529 880.398 567.882 880.398 Q563.236 880.398 560.562 884.09 Q557.92 887.751 557.92 894.212 Q557.92 900.673 560.562 904.365 Q563.236 908.025 567.882 908.025 Q572.529 908.025 575.171 904.365 Q577.845 900.673 577.845 894.212 Z" fill="#000000" fill-rule="nonzero" fill-opacity="1" /><path clip-path="url(#clip940)" d="M593.632 862.479 L599.488 862.479 L599.488 912.004 L593.632 912.004 L593.632 862.479 Z" fill="#000000" fill-rule="nonzero" fill-opacity="1" /><path clip-path="url(#clip940)" d="M642.234 892.716 L642.234 895.58 L615.307 895.58 Q615.689 901.628 618.935 904.811 Q622.214 907.962 628.038 907.962 Q631.412 907.962 634.563 907.134 Q637.746 906.307 640.865 904.651 L640.865 910.19 Q637.714 911.526 634.404 912.227 Q631.094 912.927 627.688 912.927 Q619.158 912.927 614.161 907.962 Q609.196 902.996 609.196 894.53 Q609.196 885.777 613.907 880.653 Q618.649 875.497 626.67 875.497 Q633.863 875.497 638.033 880.143 Q642.234 884.759 642.234 892.716 M636.377 890.997 Q636.314 886.191 633.672 883.326 Q631.062 880.462 626.733 880.462 Q621.832 880.462 618.872 883.231 Q615.944 886 615.498 891.029 L636.377 890.997 Z" fill="#000000" fill-rule="nonzero" fill-opacity="1" /><path clip-path="url(#clip940)" d="M680.333 876.356 L667.442 893.702 L681.001 912.004 L674.094 912.004 L663.718 897.999 L653.342 912.004 L646.435 912.004 L660.281 893.352 L647.613 876.356 L654.52 876.356 L663.973 889.055 L673.426 876.356 L680.333 876.356 Z" fill="#000000" fill-rule="nonzero" fill-opacity="1" /><path clip-path="url(#clip940)" d="M689.276 876.356 L695.133 876.356 L695.133 912.004 L689.276 912.004 L689.276 876.356 M689.276 862.479 L695.133 862.479 L695.133 869.895 L689.276 869.895 L689.276 862.479 Z" fill="#000000" fill-rule="nonzero" fill-opacity="1" /><path clip-path="url(#clip940)" d="M713.18 866.234 L713.18 876.356 L725.243 876.356 L725.243 880.907 L713.18 880.907 L713.18 900.259 Q713.18 904.62 714.357 905.861 Q715.567 907.102 719.227 907.102 L725.243 907.102 L725.243 912.004 L719.227 912.004 Q712.448 912.004 709.87 909.489 Q707.291 906.943 707.291 900.259 L707.291 880.907 L702.995 880.907 L702.995 876.356 L707.291 876.356 L707.291 866.234 L713.18 866.234 Z" fill="#000000" fill-rule="nonzero" fill-opacity="1" /><path clip-path="url(#clip940)" d="M747.777 915.314 Q745.295 921.68 742.939 923.621 Q740.584 925.563 736.637 925.563 L731.959 925.563 L731.959 920.661 L735.396 920.661 Q737.815 920.661 739.152 919.515 Q740.489 918.37 742.112 914.105 L743.162 911.431 L728.744 876.356 L734.95 876.356 L746.09 904.238 L757.23 876.356 L763.437 876.356 L747.777 915.314 Z" fill="#000000" fill-rule="nonzero" fill-opacity="1" /><polyline clip-path="url(#clip940)" style="stroke:#000000; stroke-linecap:round; stroke-linejoin:round; stroke-width:4; stroke-opacity:1; fill:none" points="259.302,788.14 259.302,47.2441 "/>
<polyline clip-path="url(#clip940)" style="stroke:#000000; stroke-linecap:round; stroke-linejoin:round; stroke-width:4; stroke-opacity:1; fill:none" points="259.302,767.171 278.2,767.171 "/>
<polyline clip-path="url(#clip940)" style="stroke:#000000; stroke-linecap:round; stroke-linejoin:round; stroke-width:4; stroke-opacity:1; fill:none" points="259.302,619.712 278.2,619.712 "/>
<polyline clip-path="url(#clip940)" style="stroke:#000000; stroke-linecap:round; stroke-linejoin:round; stroke-width:4; stroke-opacity:1; fill:none" points="259.302,472.252 278.2,472.252 "/>
<polyline clip-path="url(#clip940)" style="stroke:#000000; stroke-linecap:round; stroke-linejoin:round; stroke-width:4; stroke-opacity:1; fill:none" points="259.302,324.792 278.2,324.792 "/>
<polyline clip-path="url(#clip940)" style="stroke:#000000; stroke-linecap:round; stroke-linejoin:round; stroke-width:4; stroke-opacity:1; fill:none" points="259.302,177.333 278.2,177.333 "/>
<path clip-path="url(#clip940)" d="M156.965 752.97 Q153.353 752.97 151.525 756.535 Q149.719 760.076 149.719 767.206 Q149.719 774.312 151.525 777.877 Q153.353 781.419 156.965 781.419 Q160.599 781.419 162.404 777.877 Q164.233 774.312 164.233 767.206 Q164.233 760.076 162.404 756.535 Q160.599 752.97 156.965 752.97 M156.965 749.266 Q162.775 749.266 165.83 753.873 Q168.909 758.456 168.909 767.206 Q168.909 775.933 165.83 780.539 Q162.775 785.122 156.965 785.122 Q151.154 785.122 148.076 780.539 Q145.02 775.933 145.02 767.206 Q145.02 758.456 148.076 753.873 Q151.154 749.266 156.965 749.266 Z" fill="#000000" fill-rule="nonzero" fill-opacity="1" /><path clip-path="url(#clip940)" d="M177.126 778.571 L182.011 778.571 L182.011 784.451 L177.126 784.451 L177.126 778.571 Z" fill="#000000" fill-rule="nonzero" fill-opacity="1" /><path clip-path="url(#clip940)" d="M202.196 752.97 Q198.585 752.97 196.756 756.535 Q194.95 760.076 194.95 767.206 Q194.95 774.312 196.756 777.877 Q198.585 781.419 202.196 781.419 Q205.83 781.419 207.636 777.877 Q209.464 774.312 209.464 767.206 Q209.464 760.076 207.636 756.535 Q205.83 752.97 202.196 752.97 M202.196 749.266 Q208.006 749.266 211.061 753.873 Q214.14 758.456 214.14 767.206 Q214.14 775.933 211.061 780.539 Q208.006 785.122 202.196 785.122 Q196.386 785.122 193.307 780.539 Q190.251 775.933 190.251 767.206 Q190.251 758.456 193.307 753.873 Q196.386 749.266 202.196 749.266 Z" fill="#000000" fill-rule="nonzero" fill-opacity="1" /><path clip-path="url(#clip940)" d="M232.358 752.97 Q228.747 752.97 226.918 756.535 Q225.112 760.076 225.112 767.206 Q225.112 774.312 226.918 777.877 Q228.747 781.419 232.358 781.419 Q235.992 781.419 237.797 777.877 Q239.626 774.312 239.626 767.206 Q239.626 760.076 237.797 756.535 Q235.992 752.97 232.358 752.97 M232.358 749.266 Q238.168 749.266 241.223 753.873 Q244.302 758.456 244.302 767.206 Q244.302 775.933 241.223 780.539 Q238.168 785.122 232.358 785.122 Q226.547 785.122 223.469 780.539 Q220.413 775.933 220.413 767.206 Q220.413 758.456 223.469 753.873 Q226.547 749.266 232.358 749.266 Z" fill="#000000" fill-rule="nonzero" fill-opacity="1" /><path clip-path="url(#clip940)" d="M157.96 605.51 Q154.349 605.51 152.52 609.075 Q150.715 612.617 150.715 619.746 Q150.715 626.853 152.52 630.418 Q154.349 633.959 157.96 633.959 Q161.594 633.959 163.4 630.418 Q165.228 626.853 165.228 619.746 Q165.228 612.617 163.4 609.075 Q161.594 605.51 157.96 605.51 M157.96 601.807 Q163.77 601.807 166.826 606.413 Q169.904 610.996 169.904 619.746 Q169.904 628.473 166.826 633.08 Q163.77 637.663 157.96 637.663 Q152.15 637.663 149.071 633.08 Q146.016 628.473 146.016 619.746 Q146.016 610.996 149.071 606.413 Q152.15 601.807 157.96 601.807 Z" fill="#000000" fill-rule="nonzero" fill-opacity="1" /><path clip-path="url(#clip940)" d="M178.122 631.112 L183.006 631.112 L183.006 636.992 L178.122 636.992 L178.122 631.112 Z" fill="#000000" fill-rule="nonzero" fill-opacity="1" /><path clip-path="url(#clip940)" d="M203.191 605.51 Q199.58 605.51 197.751 609.075 Q195.946 612.617 195.946 619.746 Q195.946 626.853 197.751 630.418 Q199.58 633.959 203.191 633.959 Q206.825 633.959 208.631 630.418 Q210.46 626.853 210.46 619.746 Q210.46 612.617 208.631 609.075 Q206.825 605.51 203.191 605.51 M203.191 601.807 Q209.001 601.807 212.057 606.413 Q215.136 610.996 215.136 619.746 Q215.136 628.473 212.057 633.08 Q209.001 637.663 203.191 637.663 Q197.381 637.663 194.302 633.08 Q191.247 628.473 191.247 619.746 Q191.247 610.996 194.302 606.413 Q197.381 601.807 203.191 601.807 Z" fill="#000000" fill-rule="nonzero" fill-opacity="1" /><path clip-path="url(#clip940)" d="M223.399 602.432 L241.756 602.432 L241.756 606.367 L227.682 606.367 L227.682 614.839 Q228.7 614.492 229.719 614.33 Q230.737 614.144 231.756 614.144 Q237.543 614.144 240.922 617.316 Q244.302 620.487 244.302 625.904 Q244.302 631.482 240.83 634.584 Q237.358 637.663 231.038 637.663 Q228.862 637.663 226.594 637.292 Q224.348 636.922 221.941 636.181 L221.941 631.482 Q224.024 632.617 226.247 633.172 Q228.469 633.728 230.946 633.728 Q234.95 633.728 237.288 631.621 Q239.626 629.515 239.626 625.904 Q239.626 622.293 237.288 620.186 Q234.95 618.08 230.946 618.08 Q229.071 618.08 227.196 618.496 Q225.344 618.913 223.399 619.793 L223.399 602.432 Z" fill="#000000" fill-rule="nonzero" fill-opacity="1" /><path clip-path="url(#clip940)" d="M156.965 458.051 Q153.353 458.051 151.525 461.615 Q149.719 465.157 149.719 472.287 Q149.719 479.393 151.525 482.958 Q153.353 486.5 156.965 486.5 Q160.599 486.5 162.404 482.958 Q164.233 479.393 164.233 472.287 Q164.233 465.157 162.404 461.615 Q160.599 458.051 156.965 458.051 M156.965 454.347 Q162.775 454.347 165.83 458.953 Q168.909 463.537 168.909 472.287 Q168.909 481.014 165.83 485.62 Q162.775 490.203 156.965 490.203 Q151.154 490.203 148.076 485.62 Q145.02 481.014 145.02 472.287 Q145.02 463.537 148.076 458.953 Q151.154 454.347 156.965 454.347 Z" fill="#000000" fill-rule="nonzero" fill-opacity="1" /><path clip-path="url(#clip940)" d="M177.126 483.652 L182.011 483.652 L182.011 489.532 L177.126 489.532 L177.126 483.652 Z" fill="#000000" fill-rule="nonzero" fill-opacity="1" /><path clip-path="url(#clip940)" d="M193.006 485.597 L200.645 485.597 L200.645 459.231 L192.335 460.898 L192.335 456.639 L200.599 454.972 L205.274 454.972 L205.274 485.597 L212.913 485.597 L212.913 489.532 L193.006 489.532 L193.006 485.597 Z" fill="#000000" fill-rule="nonzero" fill-opacity="1" /><path clip-path="url(#clip940)" d="M232.358 458.051 Q228.747 458.051 226.918 461.615 Q225.112 465.157 225.112 472.287 Q225.112 479.393 226.918 482.958 Q228.747 486.5 232.358 486.5 Q235.992 486.5 237.797 482.958 Q239.626 479.393 239.626 472.287 Q239.626 465.157 237.797 461.615 Q235.992 458.051 232.358 458.051 M232.358 454.347 Q238.168 454.347 241.223 458.953 Q244.302 463.537 244.302 472.287 Q244.302 481.014 241.223 485.62 Q238.168 490.203 232.358 490.203 Q226.547 490.203 223.469 485.62 Q220.413 481.014 220.413 472.287 Q220.413 463.537 223.469 458.953 Q226.547 454.347 232.358 454.347 Z" fill="#000000" fill-rule="nonzero" fill-opacity="1" /><path clip-path="url(#clip940)" d="M157.96 310.591 Q154.349 310.591 152.52 314.156 Q150.715 317.698 150.715 324.827 Q150.715 331.934 152.52 335.498 Q154.349 339.04 157.96 339.04 Q161.594 339.04 163.4 335.498 Q165.228 331.934 165.228 324.827 Q165.228 317.698 163.4 314.156 Q161.594 310.591 157.96 310.591 M157.96 306.887 Q163.77 306.887 166.826 311.494 Q169.904 316.077 169.904 324.827 Q169.904 333.554 166.826 338.16 Q163.77 342.744 157.96 342.744 Q152.15 342.744 149.071 338.16 Q146.016 333.554 146.016 324.827 Q146.016 316.077 149.071 311.494 Q152.15 306.887 157.96 306.887 Z" fill="#000000" fill-rule="nonzero" fill-opacity="1" /><path clip-path="url(#clip940)" d="M178.122 336.193 L183.006 336.193 L183.006 342.072 L178.122 342.072 L178.122 336.193 Z" fill="#000000" fill-rule="nonzero" fill-opacity="1" /><path clip-path="url(#clip940)" d="M194.001 338.137 L201.64 338.137 L201.64 311.772 L193.33 313.438 L193.33 309.179 L201.594 307.512 L206.27 307.512 L206.27 338.137 L213.909 338.137 L213.909 342.072 L194.001 342.072 L194.001 338.137 Z" fill="#000000" fill-rule="nonzero" fill-opacity="1" /><path clip-path="url(#clip940)" d="M223.399 307.512 L241.756 307.512 L241.756 311.448 L227.682 311.448 L227.682 319.92 Q228.7 319.573 229.719 319.411 Q230.737 319.225 231.756 319.225 Q237.543 319.225 240.922 322.397 Q244.302 325.568 244.302 330.985 Q244.302 336.563 240.83 339.665 Q237.358 342.744 231.038 342.744 Q228.862 342.744 226.594 342.373 Q224.348 342.003 221.941 341.262 L221.941 336.563 Q224.024 337.697 226.247 338.253 Q228.469 338.809 230.946 338.809 Q234.95 338.809 237.288 336.702 Q239.626 334.596 239.626 330.985 Q239.626 327.373 237.288 325.267 Q234.95 323.161 230.946 323.161 Q229.071 323.161 227.196 323.577 Q225.344 323.994 223.399 324.873 L223.399 307.512 Z" fill="#000000" fill-rule="nonzero" fill-opacity="1" /><path clip-path="url(#clip940)" d="M156.965 163.132 Q153.353 163.132 151.525 166.696 Q149.719 170.238 149.719 177.368 Q149.719 184.474 151.525 188.039 Q153.353 191.581 156.965 191.581 Q160.599 191.581 162.404 188.039 Q164.233 184.474 164.233 177.368 Q164.233 170.238 162.404 166.696 Q160.599 163.132 156.965 163.132 M156.965 159.428 Q162.775 159.428 165.83 164.034 Q168.909 168.618 168.909 177.368 Q168.909 186.094 165.83 190.701 Q162.775 195.284 156.965 195.284 Q151.154 195.284 148.076 190.701 Q145.02 186.094 145.02 177.368 Q145.02 168.618 148.076 164.034 Q151.154 159.428 156.965 159.428 Z" fill="#000000" fill-rule="nonzero" fill-opacity="1" /><path clip-path="url(#clip940)" d="M177.126 188.733 L182.011 188.733 L182.011 194.613 L177.126 194.613 L177.126 188.733 Z" fill="#000000" fill-rule="nonzero" fill-opacity="1" /><path clip-path="url(#clip940)" d="M196.224 190.678 L212.543 190.678 L212.543 194.613 L190.599 194.613 L190.599 190.678 Q193.261 187.923 197.844 183.294 Q202.45 178.641 203.631 177.298 Q205.876 174.775 206.756 173.039 Q207.659 171.28 207.659 169.59 Q207.659 166.835 205.714 165.099 Q203.793 163.363 200.691 163.363 Q198.492 163.363 196.038 164.127 Q193.608 164.891 190.83 166.442 L190.83 161.72 Q193.654 160.585 196.108 160.007 Q198.562 159.428 200.599 159.428 Q205.969 159.428 209.163 162.113 Q212.358 164.798 212.358 169.289 Q212.358 171.419 211.548 173.34 Q210.761 175.238 208.654 177.831 Q208.075 178.502 204.974 181.719 Q201.872 184.914 196.224 190.678 Z" fill="#000000" fill-rule="nonzero" fill-opacity="1" /><path clip-path="url(#clip940)" d="M232.358 163.132 Q228.747 163.132 226.918 166.696 Q225.112 170.238 225.112 177.368 Q225.112 184.474 226.918 188.039 Q228.747 191.581 232.358 191.581 Q235.992 191.581 237.797 188.039 Q239.626 184.474 239.626 177.368 Q239.626 170.238 237.797 166.696 Q235.992 163.132 232.358 163.132 M232.358 159.428 Q238.168 159.428 241.223 164.034 Q244.302 168.618 244.302 177.368 Q244.302 186.094 241.223 190.701 Q238.168 195.284 232.358 195.284 Q226.547 195.284 223.469 190.701 Q220.413 186.094 220.413 177.368 Q220.413 168.618 223.469 164.034 Q226.547 159.428 232.358 159.428 Z" fill="#000000" fill-rule="nonzero" fill-opacity="1" /><path clip-path="url(#clip940)" d="M68.2442 581.895 L68.2442 554.586 L73.655 554.586 L73.655 575.466 L87.6596 575.466 L87.6596 556.624 L93.0704 556.624 L93.0704 575.466 L115.764 575.466 L115.764 581.895 L68.2442 581.895 Z" fill="#000000" fill-rule="nonzero" fill-opacity="1" /><path clip-path="url(#clip940)" d="M85.5907 528.742 Q85.0178 529.728 84.7632 530.906 Q84.4767 532.052 84.4767 533.452 Q84.4767 538.418 87.7232 541.091 Q90.9379 543.733 96.9853 543.733 L115.764 543.733 L115.764 549.621 L80.1162 549.621 L80.1162 543.733 L85.6544 543.733 Q82.4079 541.887 80.8483 538.927 Q79.2568 535.967 79.2568 531.734 Q79.2568 531.129 79.3523 530.397 Q79.416 529.665 79.5751 528.774 L85.5907 528.742 Z" fill="#000000" fill-rule="nonzero" fill-opacity="1" /><path clip-path="url(#clip940)" d="M96.4761 493.539 L99.3406 493.539 L99.3406 520.466 Q105.388 520.084 108.571 516.838 Q111.722 513.56 111.722 507.735 Q111.722 504.361 110.894 501.21 Q110.067 498.027 108.412 494.908 L113.95 494.908 Q115.287 498.059 115.987 501.369 Q116.687 504.679 116.687 508.085 Q116.687 516.615 111.722 521.612 Q106.757 526.577 98.2903 526.577 Q89.5374 526.577 84.4131 521.867 Q79.2568 517.124 79.2568 509.104 Q79.2568 501.91 83.9038 497.741 Q88.5189 493.539 96.4761 493.539 M94.7573 499.396 Q89.9512 499.459 87.0866 502.101 Q84.2221 504.711 84.2221 509.04 Q84.2221 513.941 86.9912 516.902 Q89.7602 519.83 94.7892 520.275 L94.7573 499.396 Z" fill="#000000" fill-rule="nonzero" fill-opacity="1" /><path clip-path="url(#clip940)" d="M97.972 480.426 Q104.433 480.426 108.125 477.784 Q111.786 475.111 111.786 470.464 Q111.786 465.817 108.125 463.143 Q104.433 460.47 97.972 460.47 Q91.5108 460.47 87.8505 463.143 Q84.1584 465.817 84.1584 470.464 Q84.1584 475.111 87.8505 477.784 Q91.5108 480.426 97.972 480.426 M110.417 460.47 Q113.6 462.316 115.159 465.148 Q116.687 467.949 116.687 471.896 Q116.687 478.357 111.531 482.431 Q106.375 486.473 97.972 486.473 Q89.5693 486.473 84.4131 482.431 Q79.2568 478.357 79.2568 471.896 Q79.2568 467.949 80.8164 465.148 Q82.3442 462.316 85.5271 460.47 L80.1162 460.47 L80.1162 454.613 L129.323 454.613 L129.323 460.47 L110.417 460.47 Z" fill="#000000" fill-rule="nonzero" fill-opacity="1" /><path clip-path="url(#clip940)" d="M101.696 443.155 L80.1162 443.155 L80.1162 437.298 L101.473 437.298 Q106.534 437.298 109.08 435.325 Q111.595 433.352 111.595 429.405 Q111.595 424.662 108.571 421.925 Q105.547 419.156 100.327 419.156 L80.1162 419.156 L80.1162 413.3 L115.764 413.3 L115.764 419.156 L110.29 419.156 Q113.536 421.289 115.128 424.121 Q116.687 426.922 116.687 430.646 Q116.687 436.789 112.868 439.972 Q109.048 443.155 101.696 443.155 M79.2568 428.418 L79.2568 428.418 Z" fill="#000000" fill-rule="nonzero" fill-opacity="1" /><path clip-path="url(#clip940)" d="M96.4761 370.745 L99.3406 370.745 L99.3406 397.672 Q105.388 397.29 108.571 394.043 Q111.722 390.765 111.722 384.94 Q111.722 381.567 110.894 378.416 Q110.067 375.233 108.412 372.114 L113.95 372.114 Q115.287 375.265 115.987 378.575 Q116.687 381.885 116.687 385.291 Q116.687 393.821 111.722 398.818 Q106.757 403.783 98.2903 403.783 Q89.5374 403.783 84.4131 399.072 Q79.2568 394.33 79.2568 386.309 Q79.2568 379.116 83.9038 374.946 Q88.5189 370.745 96.4761 370.745 M94.7573 376.601 Q89.9512 376.665 87.0866 379.307 Q84.2221 381.917 84.2221 386.245 Q84.2221 391.147 86.9912 394.107 Q89.7602 397.035 94.7892 397.481 L94.7573 376.601 Z" fill="#000000" fill-rule="nonzero" fill-opacity="1" /><path clip-path="url(#clip940)" d="M94.2481 331.5 L115.764 331.5 L115.764 337.357 L94.439 337.357 Q89.3783 337.357 86.8638 339.33 Q84.3494 341.303 84.3494 345.25 Q84.3494 349.993 87.3731 352.73 Q90.3968 355.467 95.6167 355.467 L115.764 355.467 L115.764 361.355 L80.1162 361.355 L80.1162 355.467 L85.6544 355.467 Q82.4397 353.367 80.8483 350.534 Q79.2568 347.669 79.2568 343.945 Q79.2568 337.802 83.0763 334.651 Q86.8638 331.5 94.2481 331.5 Z" fill="#000000" fill-rule="nonzero" fill-opacity="1" /><path clip-path="url(#clip940)" d="M81.4848 294.165 L86.9593 294.165 Q85.5907 296.648 84.9223 299.163 Q84.2221 301.645 84.2221 304.191 Q84.2221 309.889 87.8505 313.04 Q91.4472 316.191 97.972 316.191 Q104.497 316.191 108.125 313.04 Q111.722 309.889 111.722 304.191 Q111.722 301.645 111.054 299.163 Q110.353 296.648 108.985 294.165 L114.396 294.165 Q115.541 296.616 116.114 299.258 Q116.687 301.868 116.687 304.828 Q116.687 312.881 111.626 317.623 Q106.566 322.366 97.972 322.366 Q89.251 322.366 84.2539 317.591 Q79.2568 312.785 79.2568 304.446 Q79.2568 301.741 79.8297 299.163 Q80.3708 296.584 81.4848 294.165 Z" fill="#000000" fill-rule="nonzero" fill-opacity="1" /><path clip-path="url(#clip940)" d="M119.074 269.148 Q125.44 271.631 127.382 273.986 Q129.323 276.341 129.323 280.288 L129.323 284.967 L124.422 284.967 L124.422 281.53 Q124.422 279.111 123.276 277.774 Q122.13 276.437 117.865 274.814 L115.191 273.763 L80.1162 288.182 L80.1162 281.975 L107.998 270.835 L80.1162 259.695 L80.1162 253.489 L119.074 269.148 Z" fill="#000000" fill-rule="nonzero" fill-opacity="1" /><path clip-path="url(#clip942)" d="M278.928 767.171 L278.928 767.171 L306.186 767.171 L306.186 717.035 L333.445 717.035 L333.445 377.878 L360.703 377.878 L360.703 68.2128 L387.962 68.2128 L387.962 127.197 L415.22 127.197 L415.22 277.605 L442.479 277.605 L442.479 478.15 L469.737 478.15 L469.737 554.829 L496.995 554.829 L496.995 640.356 L524.254 640.356 L524.254 719.984 L551.512 719.984 L551.512 761.273 L578.771 761.273 L578.771 767.171 L606.029 767.171 L606.029 767.171 L633.287 767.171 L633.287 767.171 L660.546 767.171 L660.546 767.171 L687.804 767.171 L687.804 767.171 L715.063 767.171 L715.063 767.171 L742.321 767.171 L742.321 767.171 L769.579 767.171 L769.579 767.171 L796.838 767.171 L796.838 767.171 L824.096 767.171 L824.096 767.171 L851.355 767.171 L851.355 767.171 L878.613 767.171 L878.613 767.171 L905.871 767.171 L905.871 767.171 L933.13 767.171 L933.13 767.171 L905.871 767.171 L905.871 767.171 L878.613 767.171 L878.613 767.171 L851.355 767.171 L851.355 767.171 L824.096 767.171 L824.096 767.171 L796.838 767.171 L796.838 767.171 L769.579 767.171 L769.579 767.171 L742.321 767.171 L742.321 767.171 L715.063 767.171 L715.063 767.171 L687.804 767.171 L687.804 767.171 L660.546 767.171 L660.546 767.171 L633.287 767.171 L633.287 767.171 L606.029 767.171 L606.029 767.171 L578.771 767.171 L578.771 767.171 L551.512 767.171 L551.512 767.171 L524.254 767.171 L524.254 767.171 L496.995 767.171 L496.995 767.171 L469.737 767.171 L469.737 767.171 L442.479 767.171 L442.479 767.171 L415.22 767.171 L415.22 767.171 L387.962 767.171 L387.962 767.171 L360.703 767.171 L360.703 767.171 L333.445 767.171 L333.445 767.171 L306.186 767.171 L306.186 767.171 L278.928 767.171 L278.928 767.171  Z" fill="#377db8" fill-rule="evenodd" fill-opacity="0.5"/>
<polyline clip-path="url(#clip942)" style="stroke:#377db8; stroke-linecap:round; stroke-linejoin:round; stroke-width:4; stroke-opacity:0.5; fill:none" points="278.928,767.171 278.928,767.171 306.186,767.171 306.186,717.035 333.445,717.035 333.445,377.878 360.703,377.878 360.703,68.2128 387.962,68.2128 387.962,127.197 415.22,127.197 415.22,277.605 442.479,277.605 442.479,478.15 469.737,478.15 469.737,554.829 496.995,554.829 496.995,640.356 524.254,640.356 524.254,719.984 551.512,719.984 551.512,761.273 578.771,761.273 578.771,767.171 606.029,767.171 633.287,767.171 660.546,767.171 687.804,767.171 715.063,767.171 742.321,767.171 769.579,767.171 796.838,767.171 824.096,767.171 851.355,767.171 878.613,767.171 905.871,767.171 933.13,767.171 "/>
<path clip-path="url(#clip942)" d="M278.928 767.171 L278.928 481.1 L306.186 481.1 L306.186 156.689 L333.445 156.689 L333.445 310.046 L360.703 310.046 L360.703 428.014 L387.962 428.014 L387.962 560.728 L415.22 560.728 L415.22 587.27 L442.479 587.27 L442.479 634.458 L469.737 634.458 L469.737 661 L496.995 661 L496.995 681.645 L524.254 681.645 L524.254 663.949 L551.512 663.949 L551.512 702.289 L578.771 702.289 L578.771 681.645 L606.029 681.645 L606.029 696.391 L633.287 696.391 L633.287 717.035 L660.546 717.035 L660.546 731.781 L687.804 731.781 L687.804 737.679 L715.063 737.679 L715.063 728.832 L742.321 728.832 L742.321 740.628 L769.579 740.628 L769.579 746.527 L796.838 746.527 L796.838 758.324 L824.096 758.324 L824.096 764.222 L851.355 764.222 L851.355 767.171 L878.613 767.171 L878.613 764.222 L905.871 764.222 L905.871 764.222 L933.13 764.222 L933.13 767.171 L933.13 767.171 L933.13 767.171 L905.871 767.171 L905.871 767.171 L878.613 767.171 L878.613 767.171 L851.355 767.171 L851.355 767.171 L824.096 767.171 L824.096 767.171 L796.838 767.171 L796.838 767.171 L769.579 767.171 L769.579 767.171 L742.321 767.171 L742.321 767.171 L715.063 767.171 L715.063 767.171 L687.804 767.171 L687.804 767.171 L660.546 767.171 L660.546 767.171 L633.287 767.171 L633.287 767.171 L606.029 767.171 L606.029 767.171 L578.771 767.171 L578.771 767.171 L551.512 767.171 L551.512 767.171 L524.254 767.171 L524.254 767.171 L496.995 767.171 L496.995 767.171 L469.737 767.171 L469.737 767.171 L442.479 767.171 L442.479 767.171 L415.22 767.171 L415.22 767.171 L387.962 767.171 L387.962 767.171 L360.703 767.171 L360.703 767.171 L333.445 767.171 L333.445 767.171 L306.186 767.171 L306.186 767.171 L278.928 767.171 L278.928 767.171  Z" fill="#e31a1c" fill-rule="evenodd" fill-opacity="0.5"/>
<polyline clip-path="url(#clip942)" style="stroke:#e31a1c; stroke-linecap:round; stroke-linejoin:round; stroke-width:4; stroke-opacity:0.5; fill:none" points="278.928,767.171 278.928,481.1 306.186,481.1 306.186,156.689 333.445,156.689 333.445,310.046 360.703,310.046 360.703,428.014 387.962,428.014 387.962,560.728 415.22,560.728 415.22,587.27 442.479,587.27 442.479,634.458 469.737,634.458 469.737,661 496.995,661 496.995,681.645 524.254,681.645 524.254,663.949 551.512,663.949 551.512,702.289 578.771,702.289 578.771,681.645 606.029,681.645 606.029,696.391 633.287,696.391 633.287,717.035 660.546,717.035 660.546,731.781 687.804,731.781 687.804,737.679 715.063,737.679 715.063,728.832 742.321,728.832 742.321,740.628 769.579,740.628 769.579,746.527 796.838,746.527 796.838,758.324 824.096,758.324 824.096,764.222 851.355,764.222 851.355,767.171 878.613,767.171 878.613,764.222 905.871,764.222 933.13,764.222 933.13,767.171 "/>
<path clip-path="url(#clip940)" d="M486.756 227.461 L929.641 227.461 L929.641 71.9406 L486.756 71.9406  Z" fill="#ffffff" fill-rule="evenodd" fill-opacity="1"/>
<polyline clip-path="url(#clip940)" style="stroke:#000000; stroke-linecap:round; stroke-linejoin:round; stroke-width:4; stroke-opacity:1; fill:none" points="486.756,227.461 929.641,227.461 929.641,71.9406 486.756,71.9406 486.756,227.461 "/>
<path clip-path="url(#clip940)" d="M494.461 144.517 L540.691 144.517 L540.691 103.045 L494.461 103.045 L494.461 144.517  Z" fill="#377db8" fill-rule="evenodd" fill-opacity="0.5"/>
<polyline clip-path="url(#clip940)" style="stroke:#377db8; stroke-linecap:round; stroke-linejoin:round; stroke-width:4; stroke-opacity:0.5; fill:none" points="494.461,103.045 540.691,103.045 "/>
<path clip-path="url(#clip940)" d="M553.072 124.556 L553.072 137.218 L560.572 137.218 Q564.345 137.218 566.151 135.667 Q567.979 134.093 567.979 130.875 Q567.979 127.635 566.151 126.107 Q564.345 124.556 560.572 124.556 L553.072 124.556 M553.072 110.343 L553.072 120.76 L559.993 120.76 Q563.419 120.76 565.086 119.487 Q566.776 118.19 566.776 115.551 Q566.776 112.936 565.086 111.639 Q563.419 110.343 559.993 110.343 L553.072 110.343 M548.396 106.501 L560.34 106.501 Q565.688 106.501 568.581 108.723 Q571.475 110.945 571.475 115.042 Q571.475 118.214 569.993 120.089 Q568.512 121.963 565.641 122.426 Q569.09 123.167 570.989 125.528 Q572.91 127.866 572.91 131.385 Q572.91 136.014 569.762 138.537 Q566.614 141.061 560.803 141.061 L548.396 141.061 L548.396 106.501 Z" fill="#000000" fill-rule="nonzero" fill-opacity="1" /><path clip-path="url(#clip940)" d="M580.734 115.135 L584.993 115.135 L584.993 141.061 L580.734 141.061 L580.734 115.135 M580.734 105.042 L584.993 105.042 L584.993 110.436 L580.734 110.436 L580.734 105.042 Z" fill="#000000" fill-rule="nonzero" fill-opacity="1" /><path clip-path="url(#clip940)" d="M610.433 115.899 L610.433 119.926 Q608.627 119.001 606.683 118.538 Q604.738 118.075 602.655 118.075 Q599.484 118.075 597.887 119.047 Q596.312 120.019 596.312 121.963 Q596.312 123.445 597.447 124.301 Q598.581 125.135 602.007 125.899 L603.465 126.223 Q608.002 127.195 609.9 128.977 Q611.822 130.737 611.822 133.908 Q611.822 137.519 608.951 139.625 Q606.104 141.732 601.104 141.732 Q599.021 141.732 596.752 141.315 Q594.507 140.922 592.007 140.112 L592.007 135.713 Q594.368 136.94 596.66 137.565 Q598.951 138.167 601.197 138.167 Q604.206 138.167 605.826 137.149 Q607.447 136.107 607.447 134.232 Q607.447 132.496 606.266 131.57 Q605.109 130.644 601.15 129.788 L599.669 129.44 Q595.711 128.607 593.951 126.894 Q592.192 125.158 592.192 122.149 Q592.192 118.491 594.785 116.501 Q597.377 114.51 602.146 114.51 Q604.507 114.51 606.59 114.857 Q608.674 115.204 610.433 115.899 Z" fill="#000000" fill-rule="nonzero" fill-opacity="1" /><path clip-path="url(#clip940)" d="M622.817 107.774 L622.817 115.135 L631.59 115.135 L631.59 118.445 L622.817 118.445 L622.817 132.519 Q622.817 135.69 623.673 136.593 Q624.553 137.496 627.215 137.496 L631.59 137.496 L631.59 141.061 L627.215 141.061 Q622.285 141.061 620.41 139.232 Q618.535 137.38 618.535 132.519 L618.535 118.445 L615.41 118.445 L615.41 115.135 L618.535 115.135 L618.535 107.774 L622.817 107.774 Z" fill="#000000" fill-rule="nonzero" fill-opacity="1" /><path clip-path="url(#clip940)" d="M647.238 118.121 Q643.812 118.121 641.821 120.806 Q639.831 123.468 639.831 128.121 Q639.831 132.774 641.798 135.459 Q643.789 138.121 647.238 138.121 Q650.641 138.121 652.632 135.436 Q654.622 132.75 654.622 128.121 Q654.622 123.514 652.632 120.829 Q650.641 118.121 647.238 118.121 M647.238 114.51 Q652.794 114.51 655.965 118.121 Q659.136 121.732 659.136 128.121 Q659.136 134.487 655.965 138.121 Q652.794 141.732 647.238 141.732 Q641.659 141.732 638.488 138.121 Q635.34 134.487 635.34 128.121 Q635.34 121.732 638.488 118.121 Q641.659 114.51 647.238 114.51 Z" fill="#000000" fill-rule="nonzero" fill-opacity="1" /><path clip-path="url(#clip940)" d="M684.854 116.13 L684.854 120.112 Q683.048 119.116 681.219 118.63 Q679.414 118.121 677.562 118.121 Q673.419 118.121 671.127 120.76 Q668.835 123.376 668.835 128.121 Q668.835 132.866 671.127 135.505 Q673.419 138.121 677.562 138.121 Q679.414 138.121 681.219 137.635 Q683.048 137.125 684.854 136.13 L684.854 140.065 Q683.071 140.899 681.15 141.315 Q679.252 141.732 677.099 141.732 Q671.243 141.732 667.794 138.051 Q664.345 134.371 664.345 128.121 Q664.345 121.778 667.817 118.144 Q671.312 114.51 677.377 114.51 Q679.344 114.51 681.219 114.927 Q683.094 115.32 684.854 116.13 Z" fill="#000000" fill-rule="nonzero" fill-opacity="1" /><path clip-path="url(#clip940)" d="M713.812 125.413 L713.812 141.061 L709.553 141.061 L709.553 125.551 Q709.553 121.871 708.117 120.042 Q706.682 118.214 703.812 118.214 Q700.363 118.214 698.372 120.413 Q696.381 122.612 696.381 126.408 L696.381 141.061 L692.099 141.061 L692.099 105.042 L696.381 105.042 L696.381 119.163 Q697.909 116.825 699.969 115.667 Q702.053 114.51 704.761 114.51 Q709.229 114.51 711.52 117.288 Q713.812 120.042 713.812 125.413 Z" fill="#000000" fill-rule="nonzero" fill-opacity="1" /><path clip-path="url(#clip940)" d="M734.09 128.028 Q728.928 128.028 726.937 129.209 Q724.946 130.389 724.946 133.237 Q724.946 135.505 726.428 136.848 Q727.932 138.167 730.502 138.167 Q734.043 138.167 736.173 135.667 Q738.326 133.144 738.326 128.977 L738.326 128.028 L734.09 128.028 M742.585 126.269 L742.585 141.061 L738.326 141.061 L738.326 137.125 Q736.867 139.487 734.691 140.621 Q732.515 141.732 729.367 141.732 Q725.386 141.732 723.025 139.51 Q720.687 137.264 720.687 133.514 Q720.687 129.139 723.603 126.917 Q726.543 124.695 732.353 124.695 L738.326 124.695 L738.326 124.278 Q738.326 121.339 736.381 119.741 Q734.46 118.121 730.965 118.121 Q728.742 118.121 726.636 118.653 Q724.529 119.186 722.585 120.251 L722.585 116.315 Q724.923 115.413 727.122 114.973 Q729.321 114.51 731.404 114.51 Q737.029 114.51 739.807 117.426 Q742.585 120.343 742.585 126.269 Z" fill="#000000" fill-rule="nonzero" fill-opacity="1" /><path clip-path="url(#clip940)" d="M767.886 115.899 L767.886 119.926 Q766.08 119.001 764.136 118.538 Q762.191 118.075 760.108 118.075 Q756.937 118.075 755.339 119.047 Q753.765 120.019 753.765 121.963 Q753.765 123.445 754.9 124.301 Q756.034 125.135 759.46 125.899 L760.918 126.223 Q765.455 127.195 767.353 128.977 Q769.275 130.737 769.275 133.908 Q769.275 137.519 766.404 139.625 Q763.557 141.732 758.557 141.732 Q756.474 141.732 754.205 141.315 Q751.96 140.922 749.46 140.112 L749.46 135.713 Q751.821 136.94 754.113 137.565 Q756.404 138.167 758.65 138.167 Q761.659 138.167 763.279 137.149 Q764.9 136.107 764.9 134.232 Q764.9 132.496 763.719 131.57 Q762.562 130.644 758.603 129.788 L757.122 129.44 Q753.163 128.607 751.404 126.894 Q749.645 125.158 749.645 122.149 Q749.645 118.491 752.238 116.501 Q754.83 114.51 759.599 114.51 Q761.96 114.51 764.043 114.857 Q766.126 115.204 767.886 115.899 Z" fill="#000000" fill-rule="nonzero" fill-opacity="1" /><path clip-path="url(#clip940)" d="M780.27 107.774 L780.27 115.135 L789.043 115.135 L789.043 118.445 L780.27 118.445 L780.27 132.519 Q780.27 135.69 781.126 136.593 Q782.006 137.496 784.668 137.496 L789.043 137.496 L789.043 141.061 L784.668 141.061 Q779.737 141.061 777.862 139.232 Q775.987 137.38 775.987 132.519 L775.987 118.445 L772.862 118.445 L772.862 115.135 L775.987 115.135 L775.987 107.774 L780.27 107.774 Z" fill="#000000" fill-rule="nonzero" fill-opacity="1" /><path clip-path="url(#clip940)" d="M794.645 115.135 L798.904 115.135 L798.904 141.061 L794.645 141.061 L794.645 115.135 M794.645 105.042 L798.904 105.042 L798.904 110.436 L794.645 110.436 L794.645 105.042 Z" fill="#000000" fill-rule="nonzero" fill-opacity="1" /><path clip-path="url(#clip940)" d="M826.473 116.13 L826.473 120.112 Q824.668 119.116 822.839 118.63 Q821.033 118.121 819.182 118.121 Q815.038 118.121 812.747 120.76 Q810.455 123.376 810.455 128.121 Q810.455 132.866 812.747 135.505 Q815.038 138.121 819.182 138.121 Q821.033 138.121 822.839 137.635 Q824.668 137.125 826.473 136.13 L826.473 140.065 Q824.691 140.899 822.77 141.315 Q820.871 141.732 818.719 141.732 Q812.862 141.732 809.413 138.051 Q805.964 134.371 805.964 128.121 Q805.964 121.778 809.436 118.144 Q812.932 114.51 818.996 114.51 Q820.964 114.51 822.839 114.927 Q824.714 115.32 826.473 116.13 Z" fill="#000000" fill-rule="nonzero" fill-opacity="1" /><path clip-path="url(#clip940)" d="M849.135 106.501 L853.811 106.501 L853.811 137.125 L870.64 137.125 L870.64 141.061 L849.135 141.061 L849.135 106.501 Z" fill="#000000" fill-rule="nonzero" fill-opacity="1" /><path clip-path="url(#clip940)" d="M879.992 137.125 L896.311 137.125 L896.311 141.061 L874.367 141.061 L874.367 137.125 Q877.029 134.371 881.612 129.741 Q886.218 125.088 887.399 123.746 Q889.644 121.223 890.524 119.487 Q891.427 117.727 891.427 116.038 Q891.427 113.283 889.482 111.547 Q887.561 109.811 884.459 109.811 Q882.26 109.811 879.806 110.575 Q877.376 111.339 874.598 112.889 L874.598 108.167 Q877.422 107.033 879.876 106.454 Q882.329 105.876 884.366 105.876 Q889.737 105.876 892.931 108.561 Q896.126 111.246 896.126 115.737 Q896.126 117.866 895.316 119.788 Q894.528 121.686 892.422 124.278 Q891.843 124.95 888.741 128.167 Q885.64 131.362 879.992 137.125 Z" fill="#000000" fill-rule="nonzero" fill-opacity="1" /><path clip-path="url(#clip940)" d="M494.461 196.357 L540.691 196.357 L540.691 154.885 L494.461 154.885 L494.461 196.357  Z" fill="#e31a1c" fill-rule="evenodd" fill-opacity="0.5"/>
<polyline clip-path="url(#clip940)" style="stroke:#e31a1c; stroke-linecap:round; stroke-linejoin:round; stroke-width:4; stroke-opacity:0.5; fill:none" points="494.461,154.885 540.691,154.885 "/>
<path clip-path="url(#clip940)" d="M553.072 176.396 L553.072 189.058 L560.572 189.058 Q564.345 189.058 566.151 187.507 Q567.979 185.933 567.979 182.715 Q567.979 179.475 566.151 177.947 Q564.345 176.396 560.572 176.396 L553.072 176.396 M553.072 162.183 L553.072 172.6 L559.993 172.6 Q563.419 172.6 565.086 171.327 Q566.776 170.03 566.776 167.391 Q566.776 164.776 565.086 163.479 Q563.419 162.183 559.993 162.183 L553.072 162.183 M548.396 158.341 L560.34 158.341 Q565.688 158.341 568.581 160.563 Q571.475 162.785 571.475 166.882 Q571.475 170.054 569.993 171.929 Q568.512 173.803 565.641 174.266 Q569.09 175.007 570.989 177.368 Q572.91 179.706 572.91 183.225 Q572.91 187.854 569.762 190.377 Q566.614 192.901 560.803 192.901 L548.396 192.901 L548.396 158.341 Z" fill="#000000" fill-rule="nonzero" fill-opacity="1" /><path clip-path="url(#clip940)" d="M580.734 166.975 L584.993 166.975 L584.993 192.901 L580.734 192.901 L580.734 166.975 M580.734 156.882 L584.993 156.882 L584.993 162.276 L580.734 162.276 L580.734 156.882 Z" fill="#000000" fill-rule="nonzero" fill-opacity="1" /><path clip-path="url(#clip940)" d="M610.433 167.739 L610.433 171.766 Q608.627 170.841 606.683 170.378 Q604.738 169.915 602.655 169.915 Q599.484 169.915 597.887 170.887 Q596.312 171.859 596.312 173.803 Q596.312 175.285 597.447 176.141 Q598.581 176.975 602.007 177.739 L603.465 178.063 Q608.002 179.035 609.9 180.817 Q611.822 182.577 611.822 185.748 Q611.822 189.359 608.951 191.465 Q606.104 193.572 601.104 193.572 Q599.021 193.572 596.752 193.155 Q594.507 192.762 592.007 191.952 L592.007 187.553 Q594.368 188.78 596.66 189.405 Q598.951 190.007 601.197 190.007 Q604.206 190.007 605.826 188.989 Q607.447 187.947 607.447 186.072 Q607.447 184.336 606.266 183.41 Q605.109 182.484 601.15 181.628 L599.669 181.28 Q595.711 180.447 593.951 178.734 Q592.192 176.998 592.192 173.989 Q592.192 170.331 594.785 168.341 Q597.377 166.35 602.146 166.35 Q604.507 166.35 606.59 166.697 Q608.674 167.044 610.433 167.739 Z" fill="#000000" fill-rule="nonzero" fill-opacity="1" /><path clip-path="url(#clip940)" d="M622.817 159.614 L622.817 166.975 L631.59 166.975 L631.59 170.285 L622.817 170.285 L622.817 184.359 Q622.817 187.53 623.673 188.433 Q624.553 189.336 627.215 189.336 L631.59 189.336 L631.59 192.901 L627.215 192.901 Q622.285 192.901 620.41 191.072 Q618.535 189.22 618.535 184.359 L618.535 170.285 L615.41 170.285 L615.41 166.975 L618.535 166.975 L618.535 159.614 L622.817 159.614 Z" fill="#000000" fill-rule="nonzero" fill-opacity="1" /><path clip-path="url(#clip940)" d="M647.238 169.961 Q643.812 169.961 641.821 172.646 Q639.831 175.308 639.831 179.961 Q639.831 184.614 641.798 187.299 Q643.789 189.961 647.238 189.961 Q650.641 189.961 652.632 187.276 Q654.622 184.59 654.622 179.961 Q654.622 175.354 652.632 172.669 Q650.641 169.961 647.238 169.961 M647.238 166.35 Q652.794 166.35 655.965 169.961 Q659.136 173.572 659.136 179.961 Q659.136 186.327 655.965 189.961 Q652.794 193.572 647.238 193.572 Q641.659 193.572 638.488 189.961 Q635.34 186.327 635.34 179.961 Q635.34 173.572 638.488 169.961 Q641.659 166.35 647.238 166.35 Z" fill="#000000" fill-rule="nonzero" fill-opacity="1" /><path clip-path="url(#clip940)" d="M684.854 167.97 L684.854 171.952 Q683.048 170.956 681.219 170.47 Q679.414 169.961 677.562 169.961 Q673.419 169.961 671.127 172.6 Q668.835 175.216 668.835 179.961 Q668.835 184.706 671.127 187.345 Q673.419 189.961 677.562 189.961 Q679.414 189.961 681.219 189.475 Q683.048 188.965 684.854 187.97 L684.854 191.905 Q683.071 192.739 681.15 193.155 Q679.252 193.572 677.099 193.572 Q671.243 193.572 667.794 189.891 Q664.345 186.211 664.345 179.961 Q664.345 173.618 667.817 169.984 Q671.312 166.35 677.377 166.35 Q679.344 166.35 681.219 166.767 Q683.094 167.16 684.854 167.97 Z" fill="#000000" fill-rule="nonzero" fill-opacity="1" /><path clip-path="url(#clip940)" d="M713.812 177.253 L713.812 192.901 L709.553 192.901 L709.553 177.391 Q709.553 173.711 708.117 171.882 Q706.682 170.054 703.812 170.054 Q700.363 170.054 698.372 172.253 Q696.381 174.452 696.381 178.248 L696.381 192.901 L692.099 192.901 L692.099 156.882 L696.381 156.882 L696.381 171.003 Q697.909 168.665 699.969 167.507 Q702.053 166.35 704.761 166.35 Q709.229 166.35 711.52 169.128 Q713.812 171.882 713.812 177.253 Z" fill="#000000" fill-rule="nonzero" fill-opacity="1" /><path clip-path="url(#clip940)" d="M734.09 179.868 Q728.928 179.868 726.937 181.049 Q724.946 182.229 724.946 185.077 Q724.946 187.345 726.428 188.688 Q727.932 190.007 730.502 190.007 Q734.043 190.007 736.173 187.507 Q738.326 184.984 738.326 180.817 L738.326 179.868 L734.09 179.868 M742.585 178.109 L742.585 192.901 L738.326 192.901 L738.326 188.965 Q736.867 191.327 734.691 192.461 Q732.515 193.572 729.367 193.572 Q725.386 193.572 723.025 191.35 Q720.687 189.104 720.687 185.354 Q720.687 180.979 723.603 178.757 Q726.543 176.535 732.353 176.535 L738.326 176.535 L738.326 176.118 Q738.326 173.179 736.381 171.581 Q734.46 169.961 730.965 169.961 Q728.742 169.961 726.636 170.493 Q724.529 171.026 722.585 172.091 L722.585 168.155 Q724.923 167.253 727.122 166.813 Q729.321 166.35 731.404 166.35 Q737.029 166.35 739.807 169.266 Q742.585 172.183 742.585 178.109 Z" fill="#000000" fill-rule="nonzero" fill-opacity="1" /><path clip-path="url(#clip940)" d="M767.886 167.739 L767.886 171.766 Q766.08 170.841 764.136 170.378 Q762.191 169.915 760.108 169.915 Q756.937 169.915 755.339 170.887 Q753.765 171.859 753.765 173.803 Q753.765 175.285 754.9 176.141 Q756.034 176.975 759.46 177.739 L760.918 178.063 Q765.455 179.035 767.353 180.817 Q769.275 182.577 769.275 185.748 Q769.275 189.359 766.404 191.465 Q763.557 193.572 758.557 193.572 Q756.474 193.572 754.205 193.155 Q751.96 192.762 749.46 191.952 L749.46 187.553 Q751.821 188.78 754.113 189.405 Q756.404 190.007 758.65 190.007 Q761.659 190.007 763.279 188.989 Q764.9 187.947 764.9 186.072 Q764.9 184.336 763.719 183.41 Q762.562 182.484 758.603 181.628 L757.122 181.28 Q753.163 180.447 751.404 178.734 Q749.645 176.998 749.645 173.989 Q749.645 170.331 752.238 168.341 Q754.83 166.35 759.599 166.35 Q761.96 166.35 764.043 166.697 Q766.126 167.044 767.886 167.739 Z" fill="#000000" fill-rule="nonzero" fill-opacity="1" /><path clip-path="url(#clip940)" d="M780.27 159.614 L780.27 166.975 L789.043 166.975 L789.043 170.285 L780.27 170.285 L780.27 184.359 Q780.27 187.53 781.126 188.433 Q782.006 189.336 784.668 189.336 L789.043 189.336 L789.043 192.901 L784.668 192.901 Q779.737 192.901 777.862 191.072 Q775.987 189.22 775.987 184.359 L775.987 170.285 L772.862 170.285 L772.862 166.975 L775.987 166.975 L775.987 159.614 L780.27 159.614 Z" fill="#000000" fill-rule="nonzero" fill-opacity="1" /><path clip-path="url(#clip940)" d="M794.645 166.975 L798.904 166.975 L798.904 192.901 L794.645 192.901 L794.645 166.975 M794.645 156.882 L798.904 156.882 L798.904 162.276 L794.645 162.276 L794.645 156.882 Z" fill="#000000" fill-rule="nonzero" fill-opacity="1" /><path clip-path="url(#clip940)" d="M826.473 167.97 L826.473 171.952 Q824.668 170.956 822.839 170.47 Q821.033 169.961 819.182 169.961 Q815.038 169.961 812.747 172.6 Q810.455 175.216 810.455 179.961 Q810.455 184.706 812.747 187.345 Q815.038 189.961 819.182 189.961 Q821.033 189.961 822.839 189.475 Q824.668 188.965 826.473 187.97 L826.473 191.905 Q824.691 192.739 822.77 193.155 Q820.871 193.572 818.719 193.572 Q812.862 193.572 809.413 189.891 Q805.964 186.211 805.964 179.961 Q805.964 173.618 809.436 169.984 Q812.932 166.35 818.996 166.35 Q820.964 166.35 822.839 166.767 Q824.714 167.16 826.473 167.97 Z" fill="#000000" fill-rule="nonzero" fill-opacity="1" /><path clip-path="url(#clip940)" d="M849.135 158.341 L870.987 158.341 L870.987 162.276 L853.811 162.276 L853.811 172.507 L870.269 172.507 L870.269 176.442 L853.811 176.442 L853.811 188.965 L871.404 188.965 L871.404 192.901 L849.135 192.901 L849.135 158.341 Z" fill="#000000" fill-rule="nonzero" fill-opacity="1" /><path clip-path="url(#clip940)" d="M900.454 177.253 L900.454 192.901 L896.195 192.901 L896.195 177.391 Q896.195 173.711 894.76 171.882 Q893.325 170.054 890.454 170.054 Q887.005 170.054 885.015 172.253 Q883.024 174.452 883.024 178.248 L883.024 192.901 L878.742 192.901 L878.742 166.975 L883.024 166.975 L883.024 171.003 Q884.552 168.665 886.612 167.507 Q888.695 166.35 891.403 166.35 Q895.871 166.35 898.163 169.128 Q900.454 171.882 900.454 177.253 Z" fill="#000000" fill-rule="nonzero" fill-opacity="1" /><path clip-path="url(#clip940)" d="M913.163 159.614 L913.163 166.975 L921.936 166.975 L921.936 170.285 L913.163 170.285 L913.163 184.359 Q913.163 187.53 914.019 188.433 Q914.899 189.336 917.561 189.336 L921.936 189.336 L921.936 192.901 L917.561 192.901 Q912.63 192.901 910.755 191.072 Q908.88 189.22 908.88 184.359 L908.88 170.285 L905.755 170.285 L905.755 166.975 L908.88 166.975 L908.88 159.614 L913.163 159.614 Z" fill="#000000" fill-rule="nonzero" fill-opacity="1" /></svg>
