<?xml version="1.0" encoding="utf-8"?>
<svg xmlns="http://www.w3.org/2000/svg" xmlns:xlink="http://www.w3.org/1999/xlink" width="250" height="250" viewBox="0 0 1000 1000">
<defs>
  <clipPath id="clip490">
    <rect x="0" y="0" width="1000" height="1000"/>
  </clipPath>
</defs>
<path clip-path="url(#clip490)" d="M0 1000 L1000 1000 L1000 0 L0 0  Z" fill="#ffffff" fill-rule="evenodd" fill-opacity="1"/>
<defs>
  <clipPath id="clip491">
    <rect x="200" y="100" width="701" height="701"/>
  </clipPath>
</defs>
<path clip-path="url(#clip490)" d="M229.626 788.14 L952.756 788.14 L952.756 47.2441 L229.626 47.2441  Z" fill="#ffffff" fill-rule="evenodd" fill-opacity="1"/>
<defs>
  <clipPath id="clip492">
    <rect x="229" y="47" width="724" height="742"/>
  </clipPath>
</defs>
<polyline clip-path="url(#clip492)" style="stroke:#000000; stroke-linecap:round; stroke-linejoin:round; stroke-width:2; stroke-opacity:0.1; fill:none" points="250.092,788.14 250.092,47.2441 "/>
<polyline clip-path="url(#clip492)" style="stroke:#000000; stroke-linecap:round; stroke-linejoin:round; stroke-width:2; stroke-opacity:0.1; fill:none" points="380.801,788.14 380.801,47.2441 "/>
<polyline clip-path="url(#clip492)" style="stroke:#000000; stroke-linecap:round; stroke-linejoin:round; stroke-width:2; stroke-opacity:0.1; fill:none" points="511.51,788.14 511.51,47.2441 "/>
<polyline clip-path="url(#clip492)" style="stroke:#000000; stroke-linecap:round; stroke-linejoin:round; stroke-width:2; stroke-opacity:0.1; fill:none" points="642.218,788.14 642.218,47.2441 "/>
<polyline clip-path="url(#clip492)" style="stroke:#000000; stroke-linecap:round; stroke-linejoin:round; stroke-width:2; stroke-opacity:0.1; fill:none" points="772.927,788.14 772.927,47.2441 "/>
<polyline clip-path="url(#clip492)" style="stroke:#000000; stroke-linecap:round; stroke-linejoin:round; stroke-width:2; stroke-opacity:0.1; fill:none" points="903.636,788.14 903.636,47.2441 "/>
<polyline clip-path="url(#clip490)" style="stroke:#000000; stroke-linecap:round; stroke-linejoin:round; stroke-width:4; stroke-opacity:1; fill:none" points="229.626,788.14 952.756,788.14 "/>
<polyline clip-path="url(#clip490)" style="stroke:#000000; stroke-linecap:round; stroke-linejoin:round; stroke-width:4; stroke-opacity:1; fill:none" points="250.092,788.14 250.092,769.242 "/>
<polyline clip-path="url(#clip490)" style="stroke:#000000; stroke-linecap:round; stroke-linejoin:round; stroke-width:4; stroke-opacity:1; fill:none" points="380.801,788.14 380.801,769.242 "/>
<polyline clip-path="url(#clip490)" style="stroke:#000000; stroke-linecap:round; stroke-linejoin:round; stroke-width:4; stroke-opacity:1; fill:none" points="511.51,788.14 511.51,769.242 "/>
<polyline clip-path="url(#clip490)" style="stroke:#000000; stroke-linecap:round; stroke-linejoin:round; stroke-width:4; stroke-opacity:1; fill:none" points="642.218,788.14 642.218,769.242 "/>
<polyline clip-path="url(#clip490)" style="stroke:#000000; stroke-linecap:round; stroke-linejoin:round; stroke-width:4; stroke-opacity:1; fill:none" points="772.927,788.14 772.927,769.242 "/>
<polyline clip-path="url(#clip490)" style="stroke:#000000; stroke-linecap:round; stroke-linejoin:round; stroke-width:4; stroke-opacity:1; fill:none" points="903.636,788.14 903.636,769.242 "/>
<path clip-path="url(#clip490)" d="M250.092 807.859 Q246.481 807.859 244.652 811.423 Q242.847 814.965 242.847 822.095 Q242.847 829.201 244.652 832.766 Q246.481 836.307 250.092 836.307 Q253.726 836.307 255.532 832.766 Q257.361 829.201 257.361 822.095 Q257.361 814.965 255.532 811.423 Q253.726 807.859 250.092 807.859 M250.092 804.155 Q255.902 804.155 258.958 808.761 Q262.037 813.345 262.037 822.095 Q262.037 830.821 258.958 835.428 Q255.902 840.011 250.092 840.011 Q244.282 840.011 241.203 835.428 Q238.148 830.821 238.148 822.095 Q238.148 813.345 241.203 808.761 Q244.282 804.155 250.092 804.155 Z" fill="#000000" fill-rule="nonzero" fill-opacity="1" /><path clip-path="url(#clip490)" d="M340.408 835.405 L348.047 835.405 L348.047 809.039 L339.736 810.706 L339.736 806.447 L348 804.78 L352.676 804.78 L352.676 835.405 L360.315 835.405 L360.315 839.34 L340.408 839.34 L340.408 835.405 Z" fill="#000000" fill-rule="nonzero" fill-opacity="1" /><path clip-path="url(#clip490)" d="M379.759 807.859 Q376.148 807.859 374.32 811.423 Q372.514 814.965 372.514 822.095 Q372.514 829.201 374.32 832.766 Q376.148 836.307 379.759 836.307 Q383.394 836.307 385.199 832.766 Q387.028 829.201 387.028 822.095 Q387.028 814.965 385.199 811.423 Q383.394 807.859 379.759 807.859 M379.759 804.155 Q385.569 804.155 388.625 808.761 Q391.704 813.345 391.704 822.095 Q391.704 830.821 388.625 835.428 Q385.569 840.011 379.759 840.011 Q373.949 840.011 370.87 835.428 Q367.815 830.821 367.815 822.095 Q367.815 813.345 370.87 808.761 Q373.949 804.155 379.759 804.155 Z" fill="#000000" fill-rule="nonzero" fill-opacity="1" /><path clip-path="url(#clip490)" d="M409.921 807.859 Q406.31 807.859 404.481 811.423 Q402.676 814.965 402.676 822.095 Q402.676 829.201 404.481 832.766 Q406.31 836.307 409.921 836.307 Q413.555 836.307 415.361 832.766 Q417.19 829.201 417.19 822.095 Q417.19 814.965 415.361 811.423 Q413.555 807.859 409.921 807.859 M409.921 804.155 Q415.731 804.155 418.787 808.761 Q421.866 813.345 421.866 822.095 Q421.866 830.821 418.787 835.428 Q415.731 840.011 409.921 840.011 Q404.111 840.011 401.032 835.428 Q397.977 830.821 397.977 822.095 Q397.977 813.345 401.032 808.761 Q404.111 804.155 409.921 804.155 Z" fill="#000000" fill-rule="nonzero" fill-opacity="1" /><path clip-path="url(#clip490)" d="M475.202 835.405 L491.521 835.405 L491.521 839.34 L469.577 839.34 L469.577 835.405 Q472.239 832.65 476.822 828.02 Q481.429 823.368 482.609 822.025 Q484.855 819.502 485.734 817.766 Q486.637 816.007 486.637 814.317 Q486.637 811.562 484.693 809.826 Q482.771 808.09 479.67 808.09 Q477.471 808.09 475.017 808.854 Q472.586 809.618 469.809 811.169 L469.809 806.447 Q472.633 805.312 475.086 804.734 Q477.54 804.155 479.577 804.155 Q484.947 804.155 488.142 806.84 Q491.336 809.525 491.336 814.016 Q491.336 816.146 490.526 818.067 Q489.739 819.965 487.633 822.558 Q487.054 823.229 483.952 826.446 Q480.85 829.641 475.202 835.405 Z" fill="#000000" fill-rule="nonzero" fill-opacity="1" /><path clip-path="url(#clip490)" d="M511.336 807.859 Q507.725 807.859 505.896 811.423 Q504.091 814.965 504.091 822.095 Q504.091 829.201 505.896 832.766 Q507.725 836.307 511.336 836.307 Q514.97 836.307 516.776 832.766 Q518.605 829.201 518.605 822.095 Q518.605 814.965 516.776 811.423 Q514.97 807.859 511.336 807.859 M511.336 804.155 Q517.146 804.155 520.202 808.761 Q523.28 813.345 523.28 822.095 Q523.28 830.821 520.202 835.428 Q517.146 840.011 511.336 840.011 Q505.526 840.011 502.447 835.428 Q499.392 830.821 499.392 822.095 Q499.392 813.345 502.447 808.761 Q505.526 804.155 511.336 804.155 Z" fill="#000000" fill-rule="nonzero" fill-opacity="1" /><path clip-path="url(#clip490)" d="M541.498 807.859 Q537.887 807.859 536.058 811.423 Q534.253 814.965 534.253 822.095 Q534.253 829.201 536.058 832.766 Q537.887 836.307 541.498 836.307 Q545.132 836.307 546.938 832.766 Q548.766 829.201 548.766 822.095 Q548.766 814.965 546.938 811.423 Q545.132 807.859 541.498 807.859 M541.498 804.155 Q547.308 804.155 550.364 808.761 Q553.442 813.345 553.442 822.095 Q553.442 830.821 550.364 835.428 Q547.308 840.011 541.498 840.011 Q535.688 840.011 532.609 835.428 Q529.554 830.821 529.554 822.095 Q529.554 813.345 532.609 808.761 Q535.688 804.155 541.498 804.155 Z" fill="#000000" fill-rule="nonzero" fill-opacity="1" /><path clip-path="url(#clip490)" d="M615.98 820.706 Q619.337 821.423 621.212 823.692 Q623.11 825.96 623.11 829.294 Q623.11 834.409 619.591 837.21 Q616.073 840.011 609.591 840.011 Q607.415 840.011 605.101 839.571 Q602.809 839.155 600.355 838.298 L600.355 833.784 Q602.3 834.919 604.615 835.497 Q606.929 836.076 609.452 836.076 Q613.851 836.076 616.142 834.34 Q618.457 832.604 618.457 829.294 Q618.457 826.238 616.304 824.525 Q614.175 822.789 610.355 822.789 L606.327 822.789 L606.327 818.946 L610.54 818.946 Q613.989 818.946 615.818 817.581 Q617.647 816.192 617.647 813.599 Q617.647 810.937 615.749 809.525 Q613.874 808.09 610.355 808.09 Q608.434 808.09 606.235 808.507 Q604.036 808.923 601.397 809.803 L601.397 805.636 Q604.059 804.896 606.374 804.525 Q608.712 804.155 610.772 804.155 Q616.096 804.155 619.198 806.585 Q622.3 808.993 622.3 813.113 Q622.3 815.983 620.656 817.974 Q619.013 819.942 615.98 820.706 Z" fill="#000000" fill-rule="nonzero" fill-opacity="1" /><path clip-path="url(#clip490)" d="M641.975 807.859 Q638.364 807.859 636.536 811.423 Q634.73 814.965 634.73 822.095 Q634.73 829.201 636.536 832.766 Q638.364 836.307 641.975 836.307 Q645.61 836.307 647.415 832.766 Q649.244 829.201 649.244 822.095 Q649.244 814.965 647.415 811.423 Q645.61 807.859 641.975 807.859 M641.975 804.155 Q647.786 804.155 650.841 808.761 Q653.92 813.345 653.92 822.095 Q653.92 830.821 650.841 835.428 Q647.786 840.011 641.975 840.011 Q636.165 840.011 633.087 835.428 Q630.031 830.821 630.031 822.095 Q630.031 813.345 633.087 808.761 Q636.165 804.155 641.975 804.155 Z" fill="#000000" fill-rule="nonzero" fill-opacity="1" /><path clip-path="url(#clip490)" d="M672.137 807.859 Q668.526 807.859 666.698 811.423 Q664.892 814.965 664.892 822.095 Q664.892 829.201 666.698 832.766 Q668.526 836.307 672.137 836.307 Q675.772 836.307 677.577 832.766 Q679.406 829.201 679.406 822.095 Q679.406 814.965 677.577 811.423 Q675.772 807.859 672.137 807.859 M672.137 804.155 Q677.947 804.155 681.003 808.761 Q684.082 813.345 684.082 822.095 Q684.082 830.821 681.003 835.428 Q677.947 840.011 672.137 840.011 Q666.327 840.011 663.248 835.428 Q660.193 830.821 660.193 822.095 Q660.193 813.345 663.248 808.761 Q666.327 804.155 672.137 804.155 Z" fill="#000000" fill-rule="nonzero" fill-opacity="1" /><path clip-path="url(#clip490)" d="M746.018 808.854 L734.212 827.303 L746.018 827.303 L746.018 808.854 M744.791 804.78 L750.67 804.78 L750.67 827.303 L755.601 827.303 L755.601 831.192 L750.67 831.192 L750.67 839.34 L746.018 839.34 L746.018 831.192 L730.416 831.192 L730.416 826.678 L744.791 804.78 Z" fill="#000000" fill-rule="nonzero" fill-opacity="1" /><path clip-path="url(#clip490)" d="M773.332 807.859 Q769.721 807.859 767.893 811.423 Q766.087 814.965 766.087 822.095 Q766.087 829.201 767.893 832.766 Q769.721 836.307 773.332 836.307 Q776.967 836.307 778.772 832.766 Q780.601 829.201 780.601 822.095 Q780.601 814.965 778.772 811.423 Q776.967 807.859 773.332 807.859 M773.332 804.155 Q779.142 804.155 782.198 808.761 Q785.277 813.345 785.277 822.095 Q785.277 830.821 782.198 835.428 Q779.142 840.011 773.332 840.011 Q767.522 840.011 764.443 835.428 Q761.388 830.821 761.388 822.095 Q761.388 813.345 764.443 808.761 Q767.522 804.155 773.332 804.155 Z" fill="#000000" fill-rule="nonzero" fill-opacity="1" /><path clip-path="url(#clip490)" d="M803.494 807.859 Q799.883 807.859 798.054 811.423 Q796.249 814.965 796.249 822.095 Q796.249 829.201 798.054 832.766 Q799.883 836.307 803.494 836.307 Q807.128 836.307 808.934 832.766 Q810.763 829.201 810.763 822.095 Q810.763 814.965 808.934 811.423 Q807.128 807.859 803.494 807.859 M803.494 804.155 Q809.304 804.155 812.36 808.761 Q815.439 813.345 815.439 822.095 Q815.439 830.821 812.36 835.428 Q809.304 840.011 803.494 840.011 Q797.684 840.011 794.605 835.428 Q791.55 830.821 791.55 822.095 Q791.55 813.345 794.605 808.761 Q797.684 804.155 803.494 804.155 Z" fill="#000000" fill-rule="nonzero" fill-opacity="1" /><path clip-path="url(#clip490)" d="M863.254 804.78 L881.611 804.78 L881.611 808.715 L867.537 808.715 L867.537 817.187 Q868.555 816.84 869.574 816.678 Q870.592 816.493 871.611 816.493 Q877.398 816.493 880.777 819.664 Q884.157 822.835 884.157 828.252 Q884.157 833.831 880.685 836.932 Q877.213 840.011 870.893 840.011 Q868.717 840.011 866.449 839.641 Q864.203 839.27 861.796 838.53 L861.796 833.831 Q863.879 834.965 866.101 835.52 Q868.324 836.076 870.801 836.076 Q874.805 836.076 877.143 833.97 Q879.481 831.863 879.481 828.252 Q879.481 824.641 877.143 822.534 Q874.805 820.428 870.801 820.428 Q868.926 820.428 867.051 820.845 Q865.199 821.261 863.254 822.141 L863.254 804.78 Z" fill="#000000" fill-rule="nonzero" fill-opacity="1" /><path clip-path="url(#clip490)" d="M903.37 807.859 Q899.759 807.859 897.93 811.423 Q896.124 814.965 896.124 822.095 Q896.124 829.201 897.93 832.766 Q899.759 836.307 903.37 836.307 Q907.004 836.307 908.81 832.766 Q910.638 829.201 910.638 822.095 Q910.638 814.965 908.81 811.423 Q907.004 807.859 903.37 807.859 M903.37 804.155 Q909.18 804.155 912.235 808.761 Q915.314 813.345 915.314 822.095 Q915.314 830.821 912.235 835.428 Q909.18 840.011 903.37 840.011 Q897.56 840.011 894.481 835.428 Q891.425 830.821 891.425 822.095 Q891.425 813.345 894.481 808.761 Q897.56 804.155 903.37 804.155 Z" fill="#000000" fill-rule="nonzero" fill-opacity="1" /><path clip-path="url(#clip490)" d="M933.532 807.859 Q929.921 807.859 928.092 811.423 Q926.286 814.965 926.286 822.095 Q926.286 829.201 928.092 832.766 Q929.921 836.307 933.532 836.307 Q937.166 836.307 938.971 832.766 Q940.8 829.201 940.8 822.095 Q940.8 814.965 938.971 811.423 Q937.166 807.859 933.532 807.859 M933.532 804.155 Q939.342 804.155 942.397 808.761 Q945.476 813.345 945.476 822.095 Q945.476 830.821 942.397 835.428 Q939.342 840.011 933.532 840.011 Q927.722 840.011 924.643 835.428 Q921.587 830.821 921.587 822.095 Q921.587 813.345 924.643 808.761 Q927.722 804.155 933.532 804.155 Z" fill="#000000" fill-rule="nonzero" fill-opacity="1" /><path clip-path="url(#clip490)" d="M440.212 869.767 L440.212 887.623 L448.297 887.623 Q452.785 887.623 455.236 885.3 Q457.686 882.976 457.686 878.679 Q457.686 874.414 455.236 872.091 Q452.785 869.767 448.297 869.767 L440.212 869.767 M433.783 864.484 L448.297 864.484 Q456.286 864.484 460.36 868.112 Q464.466 871.709 464.466 878.679 Q464.466 885.713 460.36 889.31 Q456.286 892.907 448.297 892.907 L440.212 892.907 L440.212 912.004 L433.783 912.004 L433.783 864.484 Z" fill="#000000" fill-rule="nonzero" fill-opacity="1" /><path clip-path="url(#clip490)" d="M501.005 892.716 L501.005 895.58 L474.078 895.58 Q474.46 901.628 477.706 904.811 Q480.985 907.962 486.809 907.962 Q490.183 907.962 493.334 907.134 Q496.517 906.307 499.636 904.651 L499.636 910.19 Q496.485 911.526 493.175 912.227 Q489.865 912.927 486.459 912.927 Q477.929 912.927 472.932 907.962 Q467.967 902.996 467.967 894.53 Q467.967 885.777 472.678 880.653 Q477.42 875.497 485.441 875.497 Q492.634 875.497 496.804 880.143 Q501.005 884.759 501.005 892.716 M495.148 890.997 Q495.085 886.191 492.443 883.326 Q489.833 880.462 485.504 880.462 Q480.603 880.462 477.643 883.231 Q474.715 886 474.269 891.029 L495.148 890.997 Z" fill="#000000" fill-rule="nonzero" fill-opacity="1" /><path clip-path="url(#clip490)" d="M531.274 881.83 Q530.287 881.257 529.11 881.003 Q527.964 880.716 526.563 880.716 Q521.598 880.716 518.924 883.963 Q516.283 887.178 516.283 893.225 L516.283 912.004 L510.394 912.004 L510.394 876.356 L516.283 876.356 L516.283 881.894 Q518.129 878.648 521.089 877.088 Q524.049 875.497 528.282 875.497 Q528.887 875.497 529.619 875.592 Q530.351 875.656 531.242 875.815 L531.274 881.83 Z" fill="#000000" fill-rule="nonzero" fill-opacity="1" /><path clip-path="url(#clip490)" d="M543.082 906.657 L543.082 925.563 L537.194 925.563 L537.194 876.356 L543.082 876.356 L543.082 881.767 Q544.928 878.584 547.729 877.056 Q550.562 875.497 554.477 875.497 Q560.97 875.497 565.012 880.653 Q569.086 885.809 569.086 894.212 Q569.086 902.614 565.012 907.771 Q560.97 912.927 554.477 912.927 Q550.562 912.927 547.729 911.399 Q544.928 909.84 543.082 906.657 M563.007 894.212 Q563.007 887.751 560.333 884.09 Q557.692 880.398 553.045 880.398 Q548.398 880.398 545.724 884.09 Q543.082 887.751 543.082 894.212 Q543.082 900.673 545.724 904.365 Q548.398 908.025 553.045 908.025 Q557.692 908.025 560.333 904.365 Q563.007 900.673 563.007 894.212 Z" fill="#000000" fill-rule="nonzero" fill-opacity="1" /><path clip-path="url(#clip490)" d="M578.794 862.479 L584.65 862.479 L584.65 912.004 L578.794 912.004 L578.794 862.479 Z" fill="#000000" fill-rule="nonzero" fill-opacity="1" /><path clip-path="url(#clip490)" d="M627.396 892.716 L627.396 895.58 L600.469 895.58 Q600.851 901.628 604.098 904.811 Q607.376 907.962 613.201 907.962 Q616.574 907.962 619.725 907.134 Q622.908 906.307 626.027 904.651 L626.027 910.19 Q622.876 911.526 619.566 912.227 Q616.256 912.927 612.85 912.927 Q604.32 912.927 599.323 907.962 Q594.358 902.996 594.358 894.53 Q594.358 885.777 599.069 880.653 Q603.811 875.497 611.832 875.497 Q619.025 875.497 623.195 880.143 Q627.396 884.759 627.396 892.716 M621.54 890.997 Q621.476 886.191 618.834 883.326 Q616.224 880.462 611.896 880.462 Q606.994 880.462 604.034 883.231 Q601.106 886 600.66 891.029 L621.54 890.997 Z" fill="#000000" fill-rule="nonzero" fill-opacity="1" /><path clip-path="url(#clip490)" d="M665.495 876.356 L652.604 893.702 L666.163 912.004 L659.256 912.004 L648.88 897.999 L638.504 912.004 L631.597 912.004 L645.443 893.352 L632.775 876.356 L639.682 876.356 L649.135 889.055 L658.588 876.356 L665.495 876.356 Z" fill="#000000" fill-rule="nonzero" fill-opacity="1" /><path clip-path="url(#clip490)" d="M674.439 876.356 L680.295 876.356 L680.295 912.004 L674.439 912.004 L674.439 876.356 M674.439 862.479 L680.295 862.479 L680.295 869.895 L674.439 869.895 L674.439 862.479 Z" fill="#000000" fill-rule="nonzero" fill-opacity="1" /><path clip-path="url(#clip490)" d="M698.342 866.234 L698.342 876.356 L710.405 876.356 L710.405 880.907 L698.342 880.907 L698.342 900.259 Q698.342 904.62 699.519 905.861 Q700.729 907.102 704.389 907.102 L710.405 907.102 L710.405 912.004 L704.389 912.004 Q697.61 912.004 695.032 909.489 Q692.454 906.943 692.454 900.259 L692.454 880.907 L688.157 880.907 L688.157 876.356 L692.454 876.356 L692.454 866.234 L698.342 866.234 Z" fill="#000000" fill-rule="nonzero" fill-opacity="1" /><path clip-path="url(#clip490)" d="M732.939 915.314 Q730.457 921.68 728.102 923.621 Q725.746 925.563 721.799 925.563 L717.121 925.563 L717.121 920.661 L720.558 920.661 Q722.977 920.661 724.314 919.515 Q725.651 918.37 727.274 914.105 L728.324 911.431 L713.906 876.356 L720.113 876.356 L731.253 904.238 L742.393 876.356 L748.599 876.356 L732.939 915.314 Z" fill="#000000" fill-rule="nonzero" fill-opacity="1" /><polyline clip-path="url(#clip492)" style="stroke:#000000; stroke-linecap:round; stroke-linejoin:round; stroke-width:2; stroke-opacity:0.1; fill:none" points="229.626,767.171 952.756,767.171 "/>
<polyline clip-path="url(#clip492)" style="stroke:#000000; stroke-linecap:round; stroke-linejoin:round; stroke-width:2; stroke-opacity:0.1; fill:none" points="229.626,639.437 952.756,639.437 "/>
<polyline clip-path="url(#clip492)" style="stroke:#000000; stroke-linecap:round; stroke-linejoin:round; stroke-width:2; stroke-opacity:0.1; fill:none" points="229.626,511.704 952.756,511.704 "/>
<polyline clip-path="url(#clip492)" style="stroke:#000000; stroke-linecap:round; stroke-linejoin:round; stroke-width:2; stroke-opacity:0.1; fill:none" points="229.626,383.97 952.756,383.97 "/>
<polyline clip-path="url(#clip492)" style="stroke:#000000; stroke-linecap:round; stroke-linejoin:round; stroke-width:2; stroke-opacity:0.1; fill:none" points="229.626,256.237 952.756,256.237 "/>
<polyline clip-path="url(#clip492)" style="stroke:#000000; stroke-linecap:round; stroke-linejoin:round; stroke-width:2; stroke-opacity:0.1; fill:none" points="229.626,128.503 952.756,128.503 "/>
<polyline clip-path="url(#clip490)" style="stroke:#000000; stroke-linecap:round; stroke-linejoin:round; stroke-width:4; stroke-opacity:1; fill:none" points="229.626,788.14 229.626,47.2441 "/>
<polyline clip-path="url(#clip490)" style="stroke:#000000; stroke-linecap:round; stroke-linejoin:round; stroke-width:4; stroke-opacity:1; fill:none" points="229.626,767.171 248.524,767.171 "/>
<polyline clip-path="url(#clip490)" style="stroke:#000000; stroke-linecap:round; stroke-linejoin:round; stroke-width:4; stroke-opacity:1; fill:none" points="229.626,639.437 248.524,639.437 "/>
<polyline clip-path="url(#clip490)" style="stroke:#000000; stroke-linecap:round; stroke-linejoin:round; stroke-width:4; stroke-opacity:1; fill:none" points="229.626,511.704 248.524,511.704 "/>
<polyline clip-path="url(#clip490)" style="stroke:#000000; stroke-linecap:round; stroke-linejoin:round; stroke-width:4; stroke-opacity:1; fill:none" points="229.626,383.97 248.524,383.97 "/>
<polyline clip-path="url(#clip490)" style="stroke:#000000; stroke-linecap:round; stroke-linejoin:round; stroke-width:4; stroke-opacity:1; fill:none" points="229.626,256.237 248.524,256.237 "/>
<polyline clip-path="url(#clip490)" style="stroke:#000000; stroke-linecap:round; stroke-linejoin:round; stroke-width:4; stroke-opacity:1; fill:none" points="229.626,128.503 248.524,128.503 "/>
<path clip-path="url(#clip490)" d="M157.451 752.97 Q153.84 752.97 152.011 756.535 Q150.205 760.076 150.205 767.206 Q150.205 774.312 152.011 777.877 Q153.84 781.419 157.451 781.419 Q161.085 781.419 162.89 777.877 Q164.719 774.312 164.719 767.206 Q164.719 760.076 162.89 756.535 Q161.085 752.97 157.451 752.97 M157.451 749.266 Q163.261 749.266 166.316 753.873 Q169.395 758.456 169.395 767.206 Q169.395 775.933 166.316 780.539 Q163.261 785.122 157.451 785.122 Q151.64 785.122 148.562 780.539 Q145.506 775.933 145.506 767.206 Q145.506 758.456 148.562 753.873 Q151.64 749.266 157.451 749.266 Z" fill="#000000" fill-rule="nonzero" fill-opacity="1" /><path clip-path="url(#clip490)" d="M177.613 778.571 L182.497 778.571 L182.497 784.451 L177.613 784.451 L177.613 778.571 Z" fill="#000000" fill-rule="nonzero" fill-opacity="1" /><path clip-path="url(#clip490)" d="M202.682 752.97 Q199.071 752.97 197.242 756.535 Q195.437 760.076 195.437 767.206 Q195.437 774.312 197.242 777.877 Q199.071 781.419 202.682 781.419 Q206.316 781.419 208.122 777.877 Q209.95 774.312 209.95 767.206 Q209.95 760.076 208.122 756.535 Q206.316 752.97 202.682 752.97 M202.682 749.266 Q208.492 749.266 211.548 753.873 Q214.626 758.456 214.626 767.206 Q214.626 775.933 211.548 780.539 Q208.492 785.122 202.682 785.122 Q196.872 785.122 193.793 780.539 Q190.738 775.933 190.738 767.206 Q190.738 758.456 193.793 753.873 Q196.872 749.266 202.682 749.266 Z" fill="#000000" fill-rule="nonzero" fill-opacity="1" /><path clip-path="url(#clip490)" d="M158.677 625.236 Q155.066 625.236 153.238 628.801 Q151.432 632.343 151.432 639.472 Q151.432 646.579 153.238 650.143 Q155.066 653.685 158.677 653.685 Q162.312 653.685 164.117 650.143 Q165.946 646.579 165.946 639.472 Q165.946 632.343 164.117 628.801 Q162.312 625.236 158.677 625.236 M158.677 621.532 Q164.488 621.532 167.543 626.139 Q170.622 630.722 170.622 639.472 Q170.622 648.199 167.543 652.805 Q164.488 657.389 158.677 657.389 Q152.867 657.389 149.789 652.805 Q146.733 648.199 146.733 639.472 Q146.733 630.722 149.789 626.139 Q152.867 621.532 158.677 621.532 Z" fill="#000000" fill-rule="nonzero" fill-opacity="1" /><path clip-path="url(#clip490)" d="M178.839 650.838 L183.724 650.838 L183.724 656.717 L178.839 656.717 L178.839 650.838 Z" fill="#000000" fill-rule="nonzero" fill-opacity="1" /><path clip-path="url(#clip490)" d="M194.719 652.782 L202.358 652.782 L202.358 626.417 L194.048 628.083 L194.048 623.824 L202.312 622.157 L206.987 622.157 L206.987 652.782 L214.626 652.782 L214.626 656.717 L194.719 656.717 L194.719 652.782 Z" fill="#000000" fill-rule="nonzero" fill-opacity="1" /><path clip-path="url(#clip490)" d="M159.048 497.503 Q155.437 497.503 153.608 501.067 Q151.803 504.609 151.803 511.739 Q151.803 518.845 153.608 522.41 Q155.437 525.952 159.048 525.952 Q162.682 525.952 164.488 522.41 Q166.316 518.845 166.316 511.739 Q166.316 504.609 164.488 501.067 Q162.682 497.503 159.048 497.503 M159.048 493.799 Q164.858 493.799 167.914 498.405 Q170.992 502.989 170.992 511.739 Q170.992 520.465 167.914 525.072 Q164.858 529.655 159.048 529.655 Q153.238 529.655 150.159 525.072 Q147.103 520.465 147.103 511.739 Q147.103 502.989 150.159 498.405 Q153.238 493.799 159.048 493.799 Z" fill="#000000" fill-rule="nonzero" fill-opacity="1" /><path clip-path="url(#clip490)" d="M179.21 523.104 L184.094 523.104 L184.094 528.984 L179.21 528.984 L179.21 523.104 Z" fill="#000000" fill-rule="nonzero" fill-opacity="1" /><path clip-path="url(#clip490)" d="M198.307 525.049 L214.626 525.049 L214.626 528.984 L192.682 528.984 L192.682 525.049 Q195.344 522.294 199.927 517.665 Q204.534 513.012 205.714 511.669 Q207.96 509.146 208.839 507.41 Q209.742 505.651 209.742 503.961 Q209.742 501.206 207.798 499.47 Q205.876 497.734 202.774 497.734 Q200.575 497.734 198.122 498.498 Q195.691 499.262 192.913 500.813 L192.913 496.091 Q195.737 494.956 198.191 494.378 Q200.645 493.799 202.682 493.799 Q208.052 493.799 211.247 496.484 Q214.441 499.169 214.441 503.66 Q214.441 505.79 213.631 507.711 Q212.844 509.609 210.737 512.202 Q210.159 512.873 207.057 516.09 Q203.955 519.285 198.307 525.049 Z" fill="#000000" fill-rule="nonzero" fill-opacity="1" /><path clip-path="url(#clip490)" d="M158.099 369.769 Q154.488 369.769 152.659 373.334 Q150.853 376.875 150.853 384.005 Q150.853 391.111 152.659 394.676 Q154.488 398.218 158.099 398.218 Q161.733 398.218 163.539 394.676 Q165.367 391.111 165.367 384.005 Q165.367 376.875 163.539 373.334 Q161.733 369.769 158.099 369.769 M158.099 366.065 Q163.909 366.065 166.964 370.672 Q170.043 375.255 170.043 384.005 Q170.043 392.732 166.964 397.338 Q163.909 401.922 158.099 401.922 Q152.289 401.922 149.21 397.338 Q146.154 392.732 146.154 384.005 Q146.154 375.255 149.21 370.672 Q152.289 366.065 158.099 366.065 Z" fill="#000000" fill-rule="nonzero" fill-opacity="1" /><path clip-path="url(#clip490)" d="M178.261 395.371 L183.145 395.371 L183.145 401.25 L178.261 401.25 L178.261 395.371 Z" fill="#000000" fill-rule="nonzero" fill-opacity="1" /><path clip-path="url(#clip490)" d="M207.497 382.616 Q210.853 383.334 212.728 385.602 Q214.626 387.871 214.626 391.204 Q214.626 396.32 211.108 399.121 Q207.589 401.922 201.108 401.922 Q198.932 401.922 196.617 401.482 Q194.325 401.065 191.872 400.209 L191.872 395.695 Q193.816 396.829 196.131 397.408 Q198.446 397.986 200.969 397.986 Q205.367 397.986 207.659 396.25 Q209.974 394.514 209.974 391.204 Q209.974 388.149 207.821 386.436 Q205.691 384.699 201.872 384.699 L197.844 384.699 L197.844 380.857 L202.057 380.857 Q205.506 380.857 207.335 379.491 Q209.163 378.102 209.163 375.51 Q209.163 372.848 207.265 371.436 Q205.39 370 201.872 370 Q199.95 370 197.751 370.417 Q195.552 370.834 192.913 371.713 L192.913 367.547 Q195.575 366.806 197.89 366.436 Q200.228 366.065 202.288 366.065 Q207.612 366.065 210.714 368.496 Q213.816 370.903 213.816 375.024 Q213.816 377.894 212.173 379.885 Q210.529 381.852 207.497 382.616 Z" fill="#000000" fill-rule="nonzero" fill-opacity="1" /><path clip-path="url(#clip490)" d="M156.965 242.035 Q153.353 242.035 151.525 245.6 Q149.719 249.142 149.719 256.271 Q149.719 263.378 151.525 266.943 Q153.353 270.484 156.965 270.484 Q160.599 270.484 162.404 266.943 Q164.233 263.378 164.233 256.271 Q164.233 249.142 162.404 245.6 Q160.599 242.035 156.965 242.035 M156.965 238.332 Q162.775 238.332 165.83 242.938 Q168.909 247.521 168.909 256.271 Q168.909 264.998 165.83 269.605 Q162.775 274.188 156.965 274.188 Q151.154 274.188 148.076 269.605 Q145.02 264.998 145.02 256.271 Q145.02 247.521 148.076 242.938 Q151.154 238.332 156.965 238.332 Z" fill="#000000" fill-rule="nonzero" fill-opacity="1" /><path clip-path="url(#clip490)" d="M177.126 267.637 L182.011 267.637 L182.011 273.517 L177.126 273.517 L177.126 267.637 Z" fill="#000000" fill-rule="nonzero" fill-opacity="1" /><path clip-path="url(#clip490)" d="M205.043 243.031 L193.237 261.48 L205.043 261.48 L205.043 243.031 M203.816 238.957 L209.696 238.957 L209.696 261.48 L214.626 261.48 L214.626 265.369 L209.696 265.369 L209.696 273.517 L205.043 273.517 L205.043 265.369 L189.441 265.369 L189.441 260.855 L203.816 238.957 Z" fill="#000000" fill-rule="nonzero" fill-opacity="1" /><path clip-path="url(#clip490)" d="M158.446 114.302 Q154.835 114.302 153.006 117.867 Q151.201 121.408 151.201 128.538 Q151.201 135.644 153.006 139.209 Q154.835 142.751 158.446 142.751 Q162.08 142.751 163.886 139.209 Q165.714 135.644 165.714 128.538 Q165.714 121.408 163.886 117.867 Q162.08 114.302 158.446 114.302 M158.446 110.598 Q164.256 110.598 167.312 115.205 Q170.39 119.788 170.39 128.538 Q170.39 137.265 167.312 141.871 Q164.256 146.454 158.446 146.454 Q152.636 146.454 149.557 141.871 Q146.502 137.265 146.502 128.538 Q146.502 119.788 149.557 115.205 Q152.636 110.598 158.446 110.598 Z" fill="#000000" fill-rule="nonzero" fill-opacity="1" /><path clip-path="url(#clip490)" d="M178.608 139.904 L183.492 139.904 L183.492 145.783 L178.608 145.783 L178.608 139.904 Z" fill="#000000" fill-rule="nonzero" fill-opacity="1" /><path clip-path="url(#clip490)" d="M193.724 111.223 L212.08 111.223 L212.08 115.158 L198.006 115.158 L198.006 123.63 Q199.024 123.283 200.043 123.121 Q201.062 122.936 202.08 122.936 Q207.867 122.936 211.247 126.107 Q214.626 129.279 214.626 134.695 Q214.626 140.274 211.154 143.376 Q207.682 146.454 201.362 146.454 Q199.187 146.454 196.918 146.084 Q194.673 145.714 192.265 144.973 L192.265 140.274 Q194.349 141.408 196.571 141.964 Q198.793 142.519 201.27 142.519 Q205.274 142.519 207.612 140.413 Q209.95 138.306 209.95 134.695 Q209.95 131.084 207.612 128.978 Q205.274 126.871 201.27 126.871 Q199.395 126.871 197.52 127.288 Q195.668 127.704 193.724 128.584 L193.724 111.223 Z" fill="#000000" fill-rule="nonzero" fill-opacity="1" /><path clip-path="url(#clip490)" d="M68.2442 581.895 L68.2442 554.586 L73.655 554.586 L73.655 575.466 L87.6596 575.466 L87.6596 556.624 L93.0704 556.624 L93.0704 575.466 L115.764 575.466 L115.764 581.895 L68.2442 581.895 Z" fill="#000000" fill-rule="nonzero" fill-opacity="1" /><path clip-path="url(#clip490)" d="M85.5907 528.742 Q85.0178 529.728 84.7632 530.906 Q84.4767 532.052 84.4767 533.452 Q84.4767 538.418 87.7232 541.091 Q90.9379 543.733 96.9853 543.733 L115.764 543.733 L115.764 549.621 L80.1162 549.621 L80.1162 543.733 L85.6544 543.733 Q82.4079 541.887 80.8483 538.927 Q79.2568 535.967 79.2568 531.734 Q79.2568 531.129 79.3523 530.397 Q79.416 529.665 79.5751 528.774 L85.5907 528.742 Z" fill="#000000" fill-rule="nonzero" fill-opacity="1" /><path clip-path="url(#clip490)" d="M96.4761 493.539 L99.3406 493.539 L99.3406 520.466 Q105.388 520.084 108.571 516.838 Q111.722 513.56 111.722 507.735 Q111.722 504.361 110.894 501.21 Q110.067 498.027 108.412 494.908 L113.95 494.908 Q115.287 498.059 115.987 501.369 Q116.687 504.679 116.687 508.085 Q116.687 516.615 111.722 521.612 Q106.757 526.577 98.2903 526.577 Q89.5374 526.577 84.4131 521.867 Q79.2568 517.124 79.2568 509.104 Q79.2568 501.91 83.9038 497.741 Q88.5189 493.539 96.4761 493.539 M94.7573 499.396 Q89.9512 499.459 87.0866 502.101 Q84.2221 504.711 84.2221 509.04 Q84.2221 513.941 86.9912 516.902 Q89.7602 519.83 94.7892 520.275 L94.7573 499.396 Z" fill="#000000" fill-rule="nonzero" fill-opacity="1" /><path clip-path="url(#clip490)" d="M97.972 480.426 Q104.433 480.426 108.125 477.784 Q111.786 475.111 111.786 470.464 Q111.786 465.817 108.125 463.143 Q104.433 460.47 97.972 460.47 Q91.5108 460.47 87.8505 463.143 Q84.1584 465.817 84.1584 470.464 Q84.1584 475.111 87.8505 477.784 Q91.5108 480.426 97.972 480.426 M110.417 460.47 Q113.6 462.316 115.159 465.148 Q116.687 467.949 116.687 471.896 Q116.687 478.357 111.531 482.431 Q106.375 486.473 97.972 486.473 Q89.5693 486.473 84.4131 482.431 Q79.2568 478.357 79.2568 471.896 Q79.2568 467.949 80.8164 465.148 Q82.3442 462.316 85.5271 460.47 L80.1162 460.47 L80.1162 454.613 L129.323 454.613 L129.323 460.47 L110.417 460.47 Z" fill="#000000" fill-rule="nonzero" fill-opacity="1" /><path clip-path="url(#clip490)" d="M101.696 443.155 L80.1162 443.155 L80.1162 437.298 L101.473 437.298 Q106.534 437.298 109.08 435.325 Q111.595 433.352 111.595 429.405 Q111.595 424.662 108.571 421.925 Q105.547 419.156 100.327 419.156 L80.1162 419.156 L80.1162 413.3 L115.764 413.3 L115.764 419.156 L110.29 419.156 Q113.536 421.289 115.128 424.121 Q116.687 426.922 116.687 430.646 Q116.687 436.789 112.868 439.972 Q109.048 443.155 101.696 443.155 M79.2568 428.418 L79.2568 428.418 Z" fill="#000000" fill-rule="nonzero" fill-opacity="1" /><path clip-path="url(#clip490)" d="M96.4761 370.745 L99.3406 370.745 L99.3406 397.672 Q105.388 397.29 108.571 394.043 Q111.722 390.765 111.722 384.94 Q111.722 381.567 110.894 378.416 Q110.067 375.233 108.412 372.114 L113.95 372.114 Q115.287 375.265 115.987 378.575 Q116.687 381.885 116.687 385.291 Q116.687 393.821 111.722 398.818 Q106.757 403.783 98.2903 403.783 Q89.5374 403.783 84.4131 399.072 Q79.2568 394.33 79.2568 386.309 Q79.2568 379.116 83.9038 374.946 Q88.5189 370.745 96.4761 370.745 M94.7573 376.601 Q89.9512 376.665 87.0866 379.307 Q84.2221 381.917 84.2221 386.245 Q84.2221 391.147 86.9912 394.107 Q89.7602 397.035 94.7892 397.481 L94.7573 376.601 Z" fill="#000000" fill-rule="nonzero" fill-opacity="1" /><path clip-path="url(#clip490)" d="M94.2481 331.5 L115.764 331.5 L115.764 337.357 L94.439 337.357 Q89.3783 337.357 86.8638 339.33 Q84.3494 341.303 84.3494 345.25 Q84.3494 349.993 87.3731 352.73 Q90.3968 355.467 95.6167 355.467 L115.764 355.467 L115.764 361.355 L80.1162 361.355 L80.1162 355.467 L85.6544 355.467 Q82.4397 353.367 80.8483 350.534 Q79.2568 347.669 79.2568 343.945 Q79.2568 337.802 83.0763 334.651 Q86.8638 331.5 94.2481 331.5 Z" fill="#000000" fill-rule="nonzero" fill-opacity="1" /><path clip-path="url(#clip490)" d="M81.4848 294.165 L86.9593 294.165 Q85.5907 296.648 84.9223 299.163 Q84.2221 301.645 84.2221 304.191 Q84.2221 309.889 87.8505 313.04 Q91.4472 316.191 97.972 316.191 Q104.497 316.191 108.125 313.04 Q111.722 309.889 111.722 304.191 Q111.722 301.645 111.054 299.163 Q110.353 296.648 108.985 294.165 L114.396 294.165 Q115.541 296.616 116.114 299.258 Q116.687 301.868 116.687 304.828 Q116.687 312.881 111.626 317.623 Q106.566 322.366 97.972 322.366 Q89.251 322.366 84.2539 317.591 Q79.2568 312.785 79.2568 304.446 Q79.2568 301.741 79.8297 299.163 Q80.3708 296.584 81.4848 294.165 Z" fill="#000000" fill-rule="nonzero" fill-opacity="1" /><path clip-path="url(#clip490)" d="M119.074 269.148 Q125.44 271.631 127.382 273.986 Q129.323 276.341 129.323 280.288 L129.323 284.967 L124.422 284.967 L124.422 281.53 Q124.422 279.111 123.276 277.774 Q122.13 276.437 117.865 274.814 L115.191 273.763 L80.1162 288.182 L80.1162 281.975 L107.998 270.835 L80.1162 259.695 L80.1162 253.489 L119.074 269.148 Z" fill="#000000" fill-rule="nonzero" fill-opacity="1" /><path clip-path="url(#clip492)" d="M250.092 767.171 L250.092 609.037 L278.517 609.037 L278.517 417.692 L306.942 417.692 L306.942 385.759 L335.367 385.759 L335.367 509.405 L363.792 509.405 L363.792 672.904 L392.217 672.904 L392.217 733.705 L420.642 733.705 L420.642 764.361 L449.067 764.361 L449.067 767.171 L477.491 767.171 L477.491 767.171 L505.916 767.171 L505.916 767.171 L534.341 767.171 L534.341 767.171 L562.766 767.171 L562.766 767.171 L591.191 767.171 L591.191 767.171 L619.616 767.171 L619.616 767.171 L648.041 767.171 L648.041 767.171 L676.466 767.171 L676.466 767.171 L704.891 767.171 L704.891 767.171 L733.316 767.171 L733.316 767.171 L761.741 767.171 L761.741 767.171 L790.165 767.171 L790.165 767.171 L818.59 767.171 L818.59 767.171 L847.015 767.171 L847.015 767.171 L875.44 767.171 L875.44 767.171 L903.865 767.171 L903.865 767.171 L932.29 767.171 L932.29 767.171 L903.865 767.171 L903.865 767.171 L875.44 767.171 L875.44 767.171 L847.015 767.171 L847.015 767.171 L818.59 767.171 L818.59 767.171 L790.165 767.171 L790.165 767.171 L761.741 767.171 L761.741 767.171 L733.316 767.171 L733.316 767.171 L704.891 767.171 L704.891 767.171 L676.466 767.171 L676.466 767.171 L648.041 767.171 L648.041 767.171 L619.616 767.171 L619.616 767.171 L591.191 767.171 L591.191 767.171 L562.766 767.171 L562.766 767.171 L534.341 767.171 L534.341 767.171 L505.916 767.171 L505.916 767.171 L477.491 767.171 L477.491 767.171 L449.067 767.171 L449.067 767.171 L420.642 767.171 L420.642 767.171 L392.217 767.171 L392.217 767.171 L363.792 767.171 L363.792 767.171 L335.367 767.171 L335.367 767.171 L306.942 767.171 L306.942 767.171 L278.517 767.171 L278.517 767.171 L250.092 767.171 L250.092 767.171  Z" fill="#377db8" fill-rule="evenodd" fill-opacity="0.5"/>
<polyline clip-path="url(#clip492)" style="stroke:#377db8; stroke-linecap:round; stroke-linejoin:round; stroke-width:4; stroke-opacity:0.5; fill:none" points="250.092,767.171 250.092,609.037 278.517,609.037 278.517,417.692 306.942,417.692 306.942,385.759 335.367,385.759 335.367,509.405 363.792,509.405 363.792,672.904 392.217,672.904 392.217,733.705 420.642,733.705 420.642,764.361 449.067,764.361 449.067,767.171 477.491,767.171 505.916,767.171 534.341,767.171 562.766,767.171 591.191,767.171 619.616,767.171 648.041,767.171 676.466,767.171 704.891,767.171 733.316,767.171 761.741,767.171 790.165,767.171 818.59,767.171 847.015,767.171 875.44,767.171 903.865,767.171 932.29,767.171 "/>
<path clip-path="url(#clip492)" d="M250.092 767.171 L250.092 68.2128 L278.517 68.2128 L278.517 602.906 L306.942 602.906 L306.942 658.853 L335.367 658.853 L335.367 707.136 L363.792 707.136 L363.792 718.632 L392.217 718.632 L392.217 732.172 L420.642 732.172 L420.642 736.77 L449.067 736.77 L449.067 746.223 L477.491 746.223 L477.491 752.865 L505.916 752.865 L505.916 749.288 L534.341 749.288 L534.341 753.12 L562.766 753.12 L562.766 756.697 L591.191 756.697 L591.191 757.208 L619.616 757.208 L619.616 759.507 L648.041 759.507 L648.041 757.208 L676.466 757.208 L676.466 762.317 L704.891 762.317 L704.891 759.507 L733.316 759.507 L733.316 762.573 L761.741 762.573 L761.741 763.339 L790.165 763.339 L790.165 764.872 L818.59 764.872 L818.59 765.127 L847.015 765.127 L847.015 766.405 L875.44 766.405 L875.44 766.66 L903.865 766.66 L903.865 767.171 L932.29 767.171 L932.29 767.171 L903.865 767.171 L903.865 767.171 L875.44 767.171 L875.44 767.171 L847.015 767.171 L847.015 767.171 L818.59 767.171 L818.59 767.171 L790.165 767.171 L790.165 767.171 L761.741 767.171 L761.741 767.171 L733.316 767.171 L733.316 767.171 L704.891 767.171 L704.891 767.171 L676.466 767.171 L676.466 767.171 L648.041 767.171 L648.041 767.171 L619.616 767.171 L619.616 767.171 L591.191 767.171 L591.191 767.171 L562.766 767.171 L562.766 767.171 L534.341 767.171 L534.341 767.171 L505.916 767.171 L505.916 767.171 L477.491 767.171 L477.491 767.171 L449.067 767.171 L449.067 767.171 L420.642 767.171 L420.642 767.171 L392.217 767.171 L392.217 767.171 L363.792 767.171 L363.792 767.171 L335.367 767.171 L335.367 767.171 L306.942 767.171 L306.942 767.171 L278.517 767.171 L278.517 767.171 L250.092 767.171 L250.092 767.171  Z" fill="#e31a1c" fill-rule="evenodd" fill-opacity="0.5"/>
<polyline clip-path="url(#clip492)" style="stroke:#e31a1c; stroke-linecap:round; stroke-linejoin:round; stroke-width:4; stroke-opacity:0.5; fill:none" points="250.092,767.171 250.092,68.2128 278.517,68.2128 278.517,602.906 306.942,602.906 306.942,658.853 335.367,658.853 335.367,707.136 363.792,707.136 363.792,718.632 392.217,718.632 392.217,732.172 420.642,732.172 420.642,736.77 449.067,736.77 449.067,746.223 477.491,746.223 477.491,752.865 505.916,752.865 505.916,749.288 534.341,749.288 534.341,753.12 562.766,753.12 562.766,756.697 591.191,756.697 591.191,757.208 619.616,757.208 619.616,759.507 648.041,759.507 648.041,757.208 676.466,757.208 676.466,762.317 704.891,762.317 704.891,759.507 733.316,759.507 733.316,762.573 761.741,762.573 761.741,763.339 790.165,763.339 790.165,764.872 818.59,764.872 818.59,765.127 847.015,765.127 847.015,766.405 875.44,766.405 875.44,766.66 903.865,766.66 903.865,767.171 932.29,767.171 "/>
<path clip-path="url(#clip490)" d="M482.799 227.461 L928.652 227.461 L928.652 71.9406 L482.799 71.9406  Z" fill="#ffffff" fill-rule="evenodd" fill-opacity="1"/>
<polyline clip-path="url(#clip490)" style="stroke:#000000; stroke-linecap:round; stroke-linejoin:round; stroke-width:4; stroke-opacity:1; fill:none" points="482.799,227.461 928.652,227.461 928.652,71.9406 482.799,71.9406 482.799,227.461 "/>
<path clip-path="url(#clip490)" d="M490.834 144.517 L539.042 144.517 L539.042 103.045 L490.834 103.045 L490.834 144.517  Z" fill="#377db8" fill-rule="evenodd" fill-opacity="0.5"/>
<polyline clip-path="url(#clip490)" style="stroke:#377db8; stroke-linecap:round; stroke-linejoin:round; stroke-width:4; stroke-opacity:0.5; fill:none" points="490.834,103.045 539.042,103.045 "/>
<path clip-path="url(#clip490)" d="M551.753 124.556 L551.753 137.218 L559.253 137.218 Q563.026 137.218 564.832 135.667 Q566.66 134.093 566.66 130.875 Q566.66 127.635 564.832 126.107 Q563.026 124.556 559.253 124.556 L551.753 124.556 M551.753 110.343 L551.753 120.76 L558.674 120.76 Q562.1 120.76 563.767 119.487 Q565.457 118.19 565.457 115.551 Q565.457 112.936 563.767 111.639 Q562.1 110.343 558.674 110.343 L551.753 110.343 M547.077 106.501 L559.022 106.501 Q564.369 106.501 567.262 108.723 Q570.156 110.945 570.156 115.042 Q570.156 118.214 568.674 120.089 Q567.193 121.963 564.322 122.426 Q567.771 123.167 569.67 125.528 Q571.591 127.866 571.591 131.385 Q571.591 136.014 568.443 138.537 Q565.295 141.061 559.484 141.061 L547.077 141.061 L547.077 106.501 Z" fill="#000000" fill-rule="nonzero" fill-opacity="1" /><path clip-path="url(#clip490)" d="M579.415 115.135 L583.674 115.135 L583.674 141.061 L579.415 141.061 L579.415 115.135 M579.415 105.042 L583.674 105.042 L583.674 110.436 L579.415 110.436 L579.415 105.042 Z" fill="#000000" fill-rule="nonzero" fill-opacity="1" /><path clip-path="url(#clip490)" d="M609.114 115.899 L609.114 119.926 Q607.308 119.001 605.364 118.538 Q603.419 118.075 601.336 118.075 Q598.165 118.075 596.568 119.047 Q594.994 120.019 594.994 121.963 Q594.994 123.445 596.128 124.301 Q597.262 125.135 600.688 125.899 L602.146 126.223 Q606.683 127.195 608.581 128.977 Q610.503 130.737 610.503 133.908 Q610.503 137.519 607.632 139.625 Q604.785 141.732 599.785 141.732 Q597.702 141.732 595.433 141.315 Q593.188 140.922 590.688 140.112 L590.688 135.713 Q593.049 136.94 595.341 137.565 Q597.632 138.167 599.878 138.167 Q602.887 138.167 604.507 137.149 Q606.128 136.107 606.128 134.232 Q606.128 132.496 604.947 131.57 Q603.79 130.644 599.831 129.788 L598.35 129.44 Q594.392 128.607 592.632 126.894 Q590.873 125.158 590.873 122.149 Q590.873 118.491 593.466 116.501 Q596.058 114.51 600.827 114.51 Q603.188 114.51 605.271 114.857 Q607.355 115.204 609.114 115.899 Z" fill="#000000" fill-rule="nonzero" fill-opacity="1" /><path clip-path="url(#clip490)" d="M621.498 107.774 L621.498 115.135 L630.271 115.135 L630.271 118.445 L621.498 118.445 L621.498 132.519 Q621.498 135.69 622.355 136.593 Q623.234 137.496 625.896 137.496 L630.271 137.496 L630.271 141.061 L625.896 141.061 Q620.966 141.061 619.091 139.232 Q617.216 137.38 617.216 132.519 L617.216 118.445 L614.091 118.445 L614.091 115.135 L617.216 115.135 L617.216 107.774 L621.498 107.774 Z" fill="#000000" fill-rule="nonzero" fill-opacity="1" /><path clip-path="url(#clip490)" d="M645.919 118.121 Q642.493 118.121 640.503 120.806 Q638.512 123.468 638.512 128.121 Q638.512 132.774 640.479 135.459 Q642.47 138.121 645.919 138.121 Q649.322 138.121 651.313 135.436 Q653.303 132.75 653.303 128.121 Q653.303 123.514 651.313 120.829 Q649.322 118.121 645.919 118.121 M645.919 114.51 Q651.475 114.51 654.646 118.121 Q657.817 121.732 657.817 128.121 Q657.817 134.487 654.646 138.121 Q651.475 141.732 645.919 141.732 Q640.341 141.732 637.169 138.121 Q634.021 134.487 634.021 128.121 Q634.021 121.732 637.169 118.121 Q640.341 114.51 645.919 114.51 Z" fill="#000000" fill-rule="nonzero" fill-opacity="1" /><path clip-path="url(#clip490)" d="M683.535 116.13 L683.535 120.112 Q681.729 119.116 679.901 118.63 Q678.095 118.121 676.243 118.121 Q672.1 118.121 669.808 120.76 Q667.516 123.376 667.516 128.121 Q667.516 132.866 669.808 135.505 Q672.1 138.121 676.243 138.121 Q678.095 138.121 679.901 137.635 Q681.729 137.125 683.535 136.13 L683.535 140.065 Q681.752 140.899 679.831 141.315 Q677.933 141.732 675.78 141.732 Q669.924 141.732 666.475 138.051 Q663.026 134.371 663.026 128.121 Q663.026 121.778 666.498 118.144 Q669.993 114.51 676.058 114.51 Q678.026 114.51 679.901 114.927 Q681.775 115.32 683.535 116.13 Z" fill="#000000" fill-rule="nonzero" fill-opacity="1" /><path clip-path="url(#clip490)" d="M712.493 125.413 L712.493 141.061 L708.234 141.061 L708.234 125.551 Q708.234 121.871 706.799 120.042 Q705.363 118.214 702.493 118.214 Q699.044 118.214 697.053 120.413 Q695.062 122.612 695.062 126.408 L695.062 141.061 L690.78 141.061 L690.78 105.042 L695.062 105.042 L695.062 119.163 Q696.59 116.825 698.65 115.667 Q700.734 114.51 703.442 114.51 Q707.91 114.51 710.201 117.288 Q712.493 120.042 712.493 125.413 Z" fill="#000000" fill-rule="nonzero" fill-opacity="1" /><path clip-path="url(#clip490)" d="M732.771 128.028 Q727.609 128.028 725.618 129.209 Q723.627 130.389 723.627 133.237 Q723.627 135.505 725.109 136.848 Q726.613 138.167 729.183 138.167 Q732.724 138.167 734.854 135.667 Q737.007 133.144 737.007 128.977 L737.007 128.028 L732.771 128.028 M741.266 126.269 L741.266 141.061 L737.007 141.061 L737.007 137.125 Q735.548 139.487 733.372 140.621 Q731.197 141.732 728.048 141.732 Q724.067 141.732 721.706 139.51 Q719.368 137.264 719.368 133.514 Q719.368 129.139 722.285 126.917 Q725.224 124.695 731.034 124.695 L737.007 124.695 L737.007 124.278 Q737.007 121.339 735.062 119.741 Q733.141 118.121 729.646 118.121 Q727.423 118.121 725.317 118.653 Q723.21 119.186 721.266 120.251 L721.266 116.315 Q723.604 115.413 725.803 114.973 Q728.002 114.51 730.085 114.51 Q735.71 114.51 738.488 117.426 Q741.266 120.343 741.266 126.269 Z" fill="#000000" fill-rule="nonzero" fill-opacity="1" /><path clip-path="url(#clip490)" d="M766.567 115.899 L766.567 119.926 Q764.761 119.001 762.817 118.538 Q760.872 118.075 758.789 118.075 Q755.618 118.075 754.02 119.047 Q752.446 120.019 752.446 121.963 Q752.446 123.445 753.581 124.301 Q754.715 125.135 758.141 125.899 L759.599 126.223 Q764.136 127.195 766.034 128.977 Q767.956 130.737 767.956 133.908 Q767.956 137.519 765.085 139.625 Q762.238 141.732 757.238 141.732 Q755.155 141.732 752.886 141.315 Q750.641 140.922 748.141 140.112 L748.141 135.713 Q750.502 136.94 752.794 137.565 Q755.085 138.167 757.331 138.167 Q760.34 138.167 761.96 137.149 Q763.581 136.107 763.581 134.232 Q763.581 132.496 762.4 131.57 Q761.243 130.644 757.284 129.788 L755.803 129.44 Q751.845 128.607 750.085 126.894 Q748.326 125.158 748.326 122.149 Q748.326 118.491 750.919 116.501 Q753.511 114.51 758.28 114.51 Q760.641 114.51 762.724 114.857 Q764.807 115.204 766.567 115.899 Z" fill="#000000" fill-rule="nonzero" fill-opacity="1" /><path clip-path="url(#clip490)" d="M778.951 107.774 L778.951 115.135 L787.724 115.135 L787.724 118.445 L778.951 118.445 L778.951 132.519 Q778.951 135.69 779.807 136.593 Q780.687 137.496 783.349 137.496 L787.724 137.496 L787.724 141.061 L783.349 141.061 Q778.418 141.061 776.544 139.232 Q774.669 137.38 774.669 132.519 L774.669 118.445 L771.544 118.445 L771.544 115.135 L774.669 115.135 L774.669 107.774 L778.951 107.774 Z" fill="#000000" fill-rule="nonzero" fill-opacity="1" /><path clip-path="url(#clip490)" d="M793.326 115.135 L797.585 115.135 L797.585 141.061 L793.326 141.061 L793.326 115.135 M793.326 105.042 L797.585 105.042 L797.585 110.436 L793.326 110.436 L793.326 105.042 Z" fill="#000000" fill-rule="nonzero" fill-opacity="1" /><path clip-path="url(#clip490)" d="M825.154 116.13 L825.154 120.112 Q823.349 119.116 821.52 118.63 Q819.715 118.121 817.863 118.121 Q813.719 118.121 811.428 120.76 Q809.136 123.376 809.136 128.121 Q809.136 132.866 811.428 135.505 Q813.719 138.121 817.863 138.121 Q819.715 138.121 821.52 137.635 Q823.349 137.125 825.154 136.13 L825.154 140.065 Q823.372 140.899 821.451 141.315 Q819.553 141.732 817.4 141.732 Q811.543 141.732 808.094 138.051 Q804.645 134.371 804.645 128.121 Q804.645 121.778 808.117 118.144 Q811.613 114.51 817.678 114.51 Q819.645 114.51 821.52 114.927 Q823.395 115.32 825.154 116.13 Z" fill="#000000" fill-rule="nonzero" fill-opacity="1" /><path clip-path="url(#clip490)" d="M847.816 106.501 L852.492 106.501 L852.492 137.125 L869.321 137.125 L869.321 141.061 L847.816 141.061 L847.816 106.501 Z" fill="#000000" fill-rule="nonzero" fill-opacity="1" /><path clip-path="url(#clip490)" d="M878.673 137.125 L894.992 137.125 L894.992 141.061 L873.048 141.061 L873.048 137.125 Q875.71 134.371 880.293 129.741 Q884.899 125.088 886.08 123.746 Q888.325 121.223 889.205 119.487 Q890.108 117.727 890.108 116.038 Q890.108 113.283 888.163 111.547 Q886.242 109.811 883.14 109.811 Q880.941 109.811 878.487 110.575 Q876.057 111.339 873.279 112.889 L873.279 108.167 Q876.103 107.033 878.557 106.454 Q881.011 105.876 883.048 105.876 Q888.418 105.876 891.612 108.561 Q894.807 111.246 894.807 115.737 Q894.807 117.866 893.997 119.788 Q893.21 121.686 891.103 124.278 Q890.524 124.95 887.423 128.167 Q884.321 131.362 878.673 137.125 Z" fill="#000000" fill-rule="nonzero" fill-opacity="1" /><path clip-path="url(#clip490)" d="M490.834 196.357 L539.042 196.357 L539.042 154.885 L490.834 154.885 L490.834 196.357  Z" fill="#e31a1c" fill-rule="evenodd" fill-opacity="0.5"/>
<polyline clip-path="url(#clip490)" style="stroke:#e31a1c; stroke-linecap:round; stroke-linejoin:round; stroke-width:4; stroke-opacity:0.5; fill:none" points="490.834,154.885 539.042,154.885 "/>
<path clip-path="url(#clip490)" d="M551.753 176.396 L551.753 189.058 L559.253 189.058 Q563.026 189.058 564.832 187.507 Q566.66 185.933 566.66 182.715 Q566.66 179.475 564.832 177.947 Q563.026 176.396 559.253 176.396 L551.753 176.396 M551.753 162.183 L551.753 172.6 L558.674 172.6 Q562.1 172.6 563.767 171.327 Q565.457 170.03 565.457 167.391 Q565.457 164.776 563.767 163.479 Q562.1 162.183 558.674 162.183 L551.753 162.183 M547.077 158.341 L559.022 158.341 Q564.369 158.341 567.262 160.563 Q570.156 162.785 570.156 166.882 Q570.156 170.054 568.674 171.929 Q567.193 173.803 564.322 174.266 Q567.771 175.007 569.67 177.368 Q571.591 179.706 571.591 183.225 Q571.591 187.854 568.443 190.377 Q565.295 192.901 559.484 192.901 L547.077 192.901 L547.077 158.341 Z" fill="#000000" fill-rule="nonzero" fill-opacity="1" /><path clip-path="url(#clip490)" d="M579.415 166.975 L583.674 166.975 L583.674 192.901 L579.415 192.901 L579.415 166.975 M579.415 156.882 L583.674 156.882 L583.674 162.276 L579.415 162.276 L579.415 156.882 Z" fill="#000000" fill-rule="nonzero" fill-opacity="1" /><path clip-path="url(#clip490)" d="M609.114 167.739 L609.114 171.766 Q607.308 170.841 605.364 170.378 Q603.419 169.915 601.336 169.915 Q598.165 169.915 596.568 170.887 Q594.994 171.859 594.994 173.803 Q594.994 175.285 596.128 176.141 Q597.262 176.975 600.688 177.739 L602.146 178.063 Q606.683 179.035 608.581 180.817 Q610.503 182.577 610.503 185.748 Q610.503 189.359 607.632 191.465 Q604.785 193.572 599.785 193.572 Q597.702 193.572 595.433 193.155 Q593.188 192.762 590.688 191.952 L590.688 187.553 Q593.049 188.78 595.341 189.405 Q597.632 190.007 599.878 190.007 Q602.887 190.007 604.507 188.989 Q606.128 187.947 606.128 186.072 Q606.128 184.336 604.947 183.41 Q603.79 182.484 599.831 181.628 L598.35 181.28 Q594.392 180.447 592.632 178.734 Q590.873 176.998 590.873 173.989 Q590.873 170.331 593.466 168.341 Q596.058 166.35 600.827 166.35 Q603.188 166.35 605.271 166.697 Q607.355 167.044 609.114 167.739 Z" fill="#000000" fill-rule="nonzero" fill-opacity="1" /><path clip-path="url(#clip490)" d="M621.498 159.614 L621.498 166.975 L630.271 166.975 L630.271 170.285 L621.498 170.285 L621.498 184.359 Q621.498 187.53 622.355 188.433 Q623.234 189.336 625.896 189.336 L630.271 189.336 L630.271 192.901 L625.896 192.901 Q620.966 192.901 619.091 191.072 Q617.216 189.22 617.216 184.359 L617.216 170.285 L614.091 170.285 L614.091 166.975 L617.216 166.975 L617.216 159.614 L621.498 159.614 Z" fill="#000000" fill-rule="nonzero" fill-opacity="1" /><path clip-path="url(#clip490)" d="M645.919 169.961 Q642.493 169.961 640.503 172.646 Q638.512 175.308 638.512 179.961 Q638.512 184.614 640.479 187.299 Q642.47 189.961 645.919 189.961 Q649.322 189.961 651.313 187.276 Q653.303 184.59 653.303 179.961 Q653.303 175.354 651.313 172.669 Q649.322 169.961 645.919 169.961 M645.919 166.35 Q651.475 166.35 654.646 169.961 Q657.817 173.572 657.817 179.961 Q657.817 186.327 654.646 189.961 Q651.475 193.572 645.919 193.572 Q640.341 193.572 637.169 189.961 Q634.021 186.327 634.021 179.961 Q634.021 173.572 637.169 169.961 Q640.341 166.35 645.919 166.35 Z" fill="#000000" fill-rule="nonzero" fill-opacity="1" /><path clip-path="url(#clip490)" d="M683.535 167.97 L683.535 171.952 Q681.729 170.956 679.901 170.47 Q678.095 169.961 676.243 169.961 Q672.1 169.961 669.808 172.6 Q667.516 175.216 667.516 179.961 Q667.516 184.706 669.808 187.345 Q672.1 189.961 676.243 189.961 Q678.095 189.961 679.901 189.475 Q681.729 188.965 683.535 187.97 L683.535 191.905 Q681.752 192.739 679.831 193.155 Q677.933 193.572 675.78 193.572 Q669.924 193.572 666.475 189.891 Q663.026 186.211 663.026 179.961 Q663.026 173.618 666.498 169.984 Q669.993 166.35 676.058 166.35 Q678.026 166.35 679.901 166.767 Q681.775 167.16 683.535 167.97 Z" fill="#000000" fill-rule="nonzero" fill-opacity="1" /><path clip-path="url(#clip490)" d="M712.493 177.253 L712.493 192.901 L708.234 192.901 L708.234 177.391 Q708.234 173.711 706.799 171.882 Q705.363 170.054 702.493 170.054 Q699.044 170.054 697.053 172.253 Q695.062 174.452 695.062 178.248 L695.062 192.901 L690.78 192.901 L690.78 156.882 L695.062 156.882 L695.062 171.003 Q696.59 168.665 698.65 167.507 Q700.734 166.35 703.442 166.35 Q707.91 166.35 710.201 169.128 Q712.493 171.882 712.493 177.253 Z" fill="#000000" fill-rule="nonzero" fill-opacity="1" /><path clip-path="url(#clip490)" d="M732.771 179.868 Q727.609 179.868 725.618 181.049 Q723.627 182.229 723.627 185.077 Q723.627 187.345 725.109 188.688 Q726.613 190.007 729.183 190.007 Q732.724 190.007 734.854 187.507 Q737.007 184.984 737.007 180.817 L737.007 179.868 L732.771 179.868 M741.266 178.109 L741.266 192.901 L737.007 192.901 L737.007 188.965 Q735.548 191.327 733.372 192.461 Q731.197 193.572 728.048 193.572 Q724.067 193.572 721.706 191.35 Q719.368 189.104 719.368 185.354 Q719.368 180.979 722.285 178.757 Q725.224 176.535 731.034 176.535 L737.007 176.535 L737.007 176.118 Q737.007 173.179 735.062 171.581 Q733.141 169.961 729.646 169.961 Q727.423 169.961 725.317 170.493 Q723.21 171.026 721.266 172.091 L721.266 168.155 Q723.604 167.253 725.803 166.813 Q728.002 166.35 730.085 166.35 Q735.71 166.35 738.488 169.266 Q741.266 172.183 741.266 178.109 Z" fill="#000000" fill-rule="nonzero" fill-opacity="1" /><path clip-path="url(#clip490)" d="M766.567 167.739 L766.567 171.766 Q764.761 170.841 762.817 170.378 Q760.872 169.915 758.789 169.915 Q755.618 169.915 754.02 170.887 Q752.446 171.859 752.446 173.803 Q752.446 175.285 753.581 176.141 Q754.715 176.975 758.141 177.739 L759.599 178.063 Q764.136 179.035 766.034 180.817 Q767.956 182.577 767.956 185.748 Q767.956 189.359 765.085 191.465 Q762.238 193.572 757.238 193.572 Q755.155 193.572 752.886 193.155 Q750.641 192.762 748.141 191.952 L748.141 187.553 Q750.502 188.78 752.794 189.405 Q755.085 190.007 757.331 190.007 Q760.34 190.007 761.96 188.989 Q763.581 187.947 763.581 186.072 Q763.581 184.336 762.4 183.41 Q761.243 182.484 757.284 181.628 L755.803 181.28 Q751.845 180.447 750.085 178.734 Q748.326 176.998 748.326 173.989 Q748.326 170.331 750.919 168.341 Q753.511 166.35 758.28 166.35 Q760.641 166.35 762.724 166.697 Q764.807 167.044 766.567 167.739 Z" fill="#000000" fill-rule="nonzero" fill-opacity="1" /><path clip-path="url(#clip490)" d="M778.951 159.614 L778.951 166.975 L787.724 166.975 L787.724 170.285 L778.951 170.285 L778.951 184.359 Q778.951 187.53 779.807 188.433 Q780.687 189.336 783.349 189.336 L787.724 189.336 L787.724 192.901 L783.349 192.901 Q778.418 192.901 776.544 191.072 Q774.669 189.22 774.669 184.359 L774.669 170.285 L771.544 170.285 L771.544 166.975 L774.669 166.975 L774.669 159.614 L778.951 159.614 Z" fill="#000000" fill-rule="nonzero" fill-opacity="1" /><path clip-path="url(#clip490)" d="M793.326 166.975 L797.585 166.975 L797.585 192.901 L793.326 192.901 L793.326 166.975 M793.326 156.882 L797.585 156.882 L797.585 162.276 L793.326 162.276 L793.326 156.882 Z" fill="#000000" fill-rule="nonzero" fill-opacity="1" /><path clip-path="url(#clip490)" d="M825.154 167.97 L825.154 171.952 Q823.349 170.956 821.52 170.47 Q819.715 169.961 817.863 169.961 Q813.719 169.961 811.428 172.6 Q809.136 175.216 809.136 179.961 Q809.136 184.706 811.428 187.345 Q813.719 189.961 817.863 189.961 Q819.715 189.961 821.52 189.475 Q823.349 188.965 825.154 187.97 L825.154 191.905 Q823.372 192.739 821.451 193.155 Q819.553 193.572 817.4 193.572 Q811.543 193.572 808.094 189.891 Q804.645 186.211 804.645 179.961 Q804.645 173.618 808.117 169.984 Q811.613 166.35 817.678 166.35 Q819.645 166.35 821.52 166.767 Q823.395 167.16 825.154 167.97 Z" fill="#000000" fill-rule="nonzero" fill-opacity="1" /><path clip-path="url(#clip490)" d="M847.816 158.341 L869.668 158.341 L869.668 162.276 L852.492 162.276 L852.492 172.507 L868.95 172.507 L868.95 176.442 L852.492 176.442 L852.492 188.965 L870.085 188.965 L870.085 192.901 L847.816 192.901 L847.816 158.341 Z" fill="#000000" fill-rule="nonzero" fill-opacity="1" /><path clip-path="url(#clip490)" d="M899.135 177.253 L899.135 192.901 L894.876 192.901 L894.876 177.391 Q894.876 173.711 893.441 171.882 Q892.006 170.054 889.135 170.054 Q885.686 170.054 883.696 172.253 Q881.705 174.452 881.705 178.248 L881.705 192.901 L877.423 192.901 L877.423 166.975 L881.705 166.975 L881.705 171.003 Q883.233 168.665 885.293 167.507 Q887.376 166.35 890.085 166.35 Q894.552 166.35 896.844 169.128 Q899.135 171.882 899.135 177.253 Z" fill="#000000" fill-rule="nonzero" fill-opacity="1" /><path clip-path="url(#clip490)" d="M911.844 159.614 L911.844 166.975 L920.617 166.975 L920.617 170.285 L911.844 170.285 L911.844 184.359 Q911.844 187.53 912.7 188.433 Q913.58 189.336 916.242 189.336 L920.617 189.336 L920.617 192.901 L916.242 192.901 Q911.311 192.901 909.436 191.072 Q907.561 189.22 907.561 184.359 L907.561 170.285 L904.436 170.285 L904.436 166.975 L907.561 166.975 L907.561 159.614 L911.844 159.614 Z" fill="#000000" fill-rule="nonzero" fill-opacity="1" /></svg>
